G04 #@! TF.FileFunction,Copper,L3,Inr*
G04 #@! TF.FilePolarity,Positive*
G04 #@! TF.SameCoordinates,7kUT78nNERSz2yLT6yVT75H2gAgWAaL*
G04 #@! TF.CreationDate,2025-09-04T08:29:34+0200*
G04 #@! TF.GenerationSoftware,Ucamco,UcamX,v2023.12-240208*
%FSLAX36Y36*%
%MOMM*%
%ADD10C,0.100000*%
%ADD11C,0.200000*%
%AMBOXR*
$16=$1/2*
$17=$2/2*
$8=$16-$3*
$9=$17-$3*
$10=$8X$6*
$11=$8X$5*
$12=$9X$6*
$13=$9X$5*
$15=2X$3*
$18=0-$10*
$19=0-$11*
21,1-$7,$1,$2-$15,0,0,$4*
21,1-$7,$1-$15,$2,0,0,$4*
1,1-$7,$15,$10-$13,$11+$12*
1,1-$7,$15,$18-$13,$12-$11*
1,1-$7,$15,$10+$13,$11-$12*
1,1-$7,$15,$13-$10,$19-$12*%
%ADD12BOXR,0.700000X0.520000X0.250000X0.00X0X1X0*%
%ADD13C,0.500000*%
%ADD14C,0.650000*%
G04 layer name: DFS3498AM1_L3*
%LPD*%
D10*
X228850000Y112989995D02*
X227250000D01*
X227000000Y113239995D01*
Y121139730D01*
X222700000Y125439730D01*
Y130290050D01*
X223200000Y130790050D01*
X229798650D01*
X230298650Y130290050D01*
Y128190100D01*
X231850000Y113989995D02*
X231250000Y114589995D01*
X228050000D01*
X227800000Y114839995D01*
Y122254770D01*
X223500000Y126554770D01*
Y129490050D01*
X224000000Y129990050D01*
X226598650D01*
X227098650Y129490050D01*
Y128190100D01*
X229850000Y113989995D02*
X229450000Y114389995D01*
X227850000D01*
X227600000Y114639995D01*
Y121976010D01*
X223300000Y126276010D01*
Y129690050D01*
X223800000Y130190050D01*
X227398650D01*
X227898650Y129690050D01*
Y127390100D01*
X232850000Y112989995D02*
X232250000Y113589995D01*
X227650000D01*
X227400000Y113839995D01*
Y121697250D01*
X223100000Y125997250D01*
Y129890050D01*
X223600000Y130390050D01*
X228198650D01*
X228698650Y129890050D01*
Y128190100D01*
X230850000Y112989995D02*
X230450000Y113389995D01*
X227450000D01*
X227200000Y113639995D01*
Y121418490D01*
X222900000Y125718490D01*
Y130090050D01*
X223400000Y130590050D01*
X228998650D01*
X229498650Y130090050D01*
Y127390100D01*
X231850000Y111989995D02*
X231250000Y112589995D01*
X223000000D01*
X222500000Y113089995D01*
Y130490050D01*
X223000000Y130990050D01*
X230598650D01*
X231098650Y130490050D01*
Y127390100D01*
X229850000Y111989995D02*
X229450000Y112389995D01*
X222800000D01*
X222300000Y112889995D01*
Y130690050D01*
X222800000Y131190050D01*
X231398650D01*
X231898650Y130690050D01*
Y128190100D01*
X232850000Y110989995D02*
X232250000Y111589995D01*
X222600000D01*
X222100000Y112089995D01*
Y130890050D01*
X222600000Y131390050D01*
X232198650D01*
X232698650Y130890050D01*
Y127390100D01*
X230850000Y110989995D02*
X230450000Y111389995D01*
X222400000D01*
X221900000Y111889995D01*
Y131090050D01*
X222400000Y131590050D01*
X232998650D01*
X233498650Y131090050D01*
Y128190100D01*
X231850000Y109989995D02*
X231250000Y110589995D01*
X222000000D01*
X221500000Y111089995D01*
Y131490050D01*
X222000000Y131990050D01*
X234598650D01*
X235098650Y131490050D01*
Y128190100D01*
X229850000Y109989995D02*
X229450000Y110389995D01*
X221800000D01*
X221300000Y110889995D01*
Y131690050D01*
X221800000Y132190050D01*
X235398650D01*
X235898650Y131690050D01*
Y127390100D01*
X232850000Y108989995D02*
X232250000Y109589995D01*
X221600000D01*
X221100000Y110089995D01*
Y131890050D01*
X221600000Y132390050D01*
X236198650D01*
X236698650Y131890050D01*
Y128190100D01*
X230850000Y108989995D02*
X230450000Y109389995D01*
X221400000D01*
X220900000Y109889995D01*
Y132090050D01*
X221400000Y132590050D01*
X236998650D01*
X237498650Y132090050D01*
Y127390100D01*
X231850000Y107989995D02*
X231250000Y108589995D01*
X221000000D01*
X220500000Y109089995D01*
Y132490050D01*
X221000000Y132990050D01*
X238598650D01*
X239098650Y132490050D01*
Y127390100D01*
X231850000Y89989995D02*
X231250000Y90589995D01*
X221200000D01*
X220700000Y90089995D01*
Y70864020D01*
X224133385Y67430635D01*
X241858115D01*
X242298650Y66990100D01*
Y66590100D01*
Y66190100D01*
X232850000Y86989995D02*
X232250000Y87589995D01*
X222600000D01*
X222100000Y87089995D01*
Y71443920D01*
X224713285Y68830635D01*
X247457815D01*
X247898350Y68390100D01*
Y65790100D01*
X229850000Y87989995D02*
X229450000Y88389995D01*
X222400000D01*
X221900000Y87889995D01*
Y71361075D01*
X224630440Y68630635D01*
X246658115D01*
X247098650Y68190100D01*
Y66590100D01*
Y66190100D01*
X257800000Y40890050D02*
X257300000Y40390050D01*
X233198950D01*
X232698950Y39890050D01*
Y36290100D01*
X237250000Y86589995D02*
X236850000Y86989995D01*
X258000000Y40690050D02*
X257500000Y40190050D01*
X233998950D01*
X233498950Y39690050D01*
Y35490100D01*
X234450000Y87389995D02*
X233850000Y87989995D01*
X258200000Y40490050D02*
X257700000Y39990050D01*
X234798950D01*
X234298950Y39490050D01*
Y36290100D01*
X236250000Y87589995D02*
X235850000Y87989995D01*
X257298590Y87989995D02*
X258400000Y86888585D01*
Y40290050D01*
X257900000Y39790050D01*
X235598950D01*
X235098950Y39290050D01*
Y35490100D01*
X257498590Y88389995D02*
X258600000Y87288585D01*
Y40090050D01*
X258100000Y39590050D01*
X236398950D01*
X235898950Y39090050D01*
Y36290100D01*
X235450000Y88389995D02*
X234850000Y88989995D01*
X257698590Y88589995D02*
X258800000Y87488585D01*
Y39890050D01*
X258300000Y39390050D01*
X237198950D01*
X236698950Y38890050D01*
Y35490100D01*
X237250000Y88589995D02*
X236850000Y88989995D01*
X257898590Y89389995D02*
X259000000Y88288585D01*
Y39690050D01*
X258500000Y39190050D01*
X237998950D01*
X237498950Y38690050D01*
Y36290100D01*
X234450000Y89389995D02*
X233850000Y89989995D01*
X258098590Y89589995D02*
X259200000Y88488585D01*
Y39490050D01*
X258700000Y38990050D01*
X238798950D01*
X238298950Y38490050D01*
Y35490100D01*
X236250000Y89589995D02*
X235850000Y89989995D01*
X258298590Y89989995D02*
X259400000Y88888585D01*
Y39290050D01*
X258900000Y38790050D01*
X239598950D01*
X239098950Y38290050D01*
Y36290100D01*
X230850000Y86989995D02*
X230450000Y87389995D01*
X222800000D01*
X222300000Y86889995D01*
Y71526760D01*
X224796125Y69030635D01*
X248257815D01*
X248698350Y68590100D01*
Y66590100D01*
X228850000Y86989995D02*
X223000000D01*
X222500000Y86489995D01*
Y71609605D01*
X224878970Y69230635D01*
X249057515D01*
X249498050Y68790100D01*
Y65790100D01*
X231850000Y85989995D02*
X231250000Y86589995D01*
X223200000D01*
X222700000Y86089995D01*
Y71692445D01*
X224961810Y69430635D01*
X249857515D01*
X250298050Y68990100D01*
Y66590100D01*
X229850000Y85989995D02*
X229450000Y86389995D01*
X223400000D01*
X222900000Y85889995D01*
Y71775285D01*
X225044650Y69630635D01*
X250657815D01*
X251098350Y69190100D01*
Y65790100D01*
X230850000Y84989995D02*
X230450000Y85389995D01*
X226932550D01*
X226461550Y85860995D01*
X224617290D01*
X224146290Y85389995D01*
X223800000D01*
X223300000Y84889995D01*
Y71940970D01*
X225210335Y70030635D01*
X252257815D01*
X252698350Y69590100D01*
Y65790100D01*
X228850000Y90989995D02*
X221000000D01*
X220500000Y90489995D01*
Y70781175D01*
X224050540Y67230635D01*
X241058115D01*
X241498650Y66790100D01*
Y65790100D01*
Y65390100D01*
X229850000Y89989995D02*
X229450000Y90389995D01*
X221400000D01*
X220900000Y89889995D01*
Y70946860D01*
X224216225Y67630635D01*
X242658115D01*
X243098650Y67190100D01*
Y65790100D01*
Y65390100D01*
X232850000Y88989995D02*
X232250000Y89589995D01*
X221600000D01*
X221100000Y89089995D01*
Y71029705D01*
X224299070Y67830635D01*
X243458115D01*
X243898650Y67390100D01*
Y66590100D01*
Y66190100D01*
X230850000Y88989995D02*
X230450000Y89389995D01*
X221800000D01*
X221300000Y88889995D01*
Y71112550D01*
X224381915Y68030635D01*
X244258115D01*
X244698650Y67590100D01*
Y65790100D01*
Y65390100D01*
X231850000Y87989995D02*
X231250000Y88589995D01*
X222200000D01*
X221700000Y88089995D01*
Y71278230D01*
X224547595Y68430635D01*
X245858115D01*
X246298650Y67990100D01*
Y65790100D01*
Y65390100D01*
X228850000Y88989995D02*
X222000000D01*
X221500000Y88489995D01*
Y71195390D01*
X224464755Y68230635D01*
X245058115D01*
X245498650Y67790100D01*
Y66590100D01*
Y66190100D01*
X229498650Y163190200D02*
Y163990200D01*
Y166890150D01*
X229998650Y167390150D01*
X258200000D01*
X258700000Y166890150D01*
Y102085495D01*
X258004500Y101389995D01*
X237250000D01*
X236850000Y100989995D01*
X230298650Y162390200D02*
Y163990200D01*
Y166690150D01*
X230798650Y167190150D01*
X258000000D01*
X258500000Y166690150D01*
Y102495370D01*
X257594625Y101589995D01*
X235450000D01*
X234850000Y100989995D01*
X233498650Y162390200D02*
Y163990200D01*
Y165890150D01*
X233998650Y166390150D01*
X257200000D01*
X257700000Y165890150D01*
Y104389995D01*
X256700000Y103389995D01*
X236250000D01*
X235850000Y102989995D01*
X234298650Y163190200D02*
Y163990200D01*
Y165690150D01*
X234798650Y166190150D01*
X257000000D01*
X257500000Y165690150D01*
Y107589995D01*
X256637805Y106727800D01*
X239795985D01*
X239058180Y105989995D01*
X237850000D01*
X231098650Y163190200D02*
Y163990200D01*
Y166490150D01*
X231598650Y166990150D01*
X257800000D01*
X258300000Y166490150D01*
Y102989995D01*
X257300000Y101989995D01*
X237850000D01*
X231898650Y162390200D02*
Y163990200D01*
Y166290150D01*
X232398650Y166790150D01*
X257600000D01*
X258100000Y166290150D01*
Y103389995D01*
X257100000Y102389995D01*
X236250000D01*
X235850000Y101989995D01*
X237498650Y163190200D02*
Y163990200D01*
Y164890150D01*
X237998650Y165390150D01*
X256200000D01*
X256700000Y164890150D01*
Y108589995D01*
X255700000Y107589995D01*
X235450000D01*
X234850000Y106989995D01*
X238298650Y162390200D02*
Y163990200D01*
Y164690150D01*
X238798650Y165190150D01*
X256000000D01*
X256500000Y164690150D01*
Y108989995D01*
X255500000Y107989995D01*
X237850000D01*
X235098650Y162390200D02*
Y163990200D01*
Y165490150D01*
X235598650Y165990150D01*
X256800000D01*
X257300000Y165490150D01*
Y107989995D01*
X256300000Y106989995D01*
X239458180D01*
X238858180Y106389995D01*
X236250000D01*
X235850000Y105989995D01*
X235898650Y163190200D02*
Y163990200D01*
Y165290150D01*
X236398650Y165790150D01*
X256600000D01*
X257100000Y165290150D01*
Y108189995D01*
X256100000Y107189995D01*
X239258180D01*
X238658180Y106589995D01*
X234450000D01*
X233850000Y105989995D01*
X239098650Y163190200D02*
Y163990200D01*
Y164490150D01*
X239598650Y164990150D01*
X255800000D01*
X256300000Y164490150D01*
Y109389995D01*
X255300000Y108389995D01*
X236250000D01*
X235850000Y107989995D01*
X236698650Y162390200D02*
Y163990200D01*
Y165090150D01*
X237198650Y165590150D01*
X256400000D01*
X256900000Y165090150D01*
Y108389995D01*
X255900000Y107389995D01*
X237250000D01*
X236850000Y106989995D01*
X232698650Y163190200D02*
Y163990200D01*
Y166090150D01*
X233198650Y166590150D01*
X257400000D01*
X257900000Y166090150D01*
Y103989995D01*
X256900000Y102989995D01*
X237850000D01*
X228698650Y162390200D02*
Y163990200D01*
Y167090150D01*
X229198650Y167590150D01*
X258400000D01*
X258900000Y167090150D01*
Y101814220D01*
X257675775Y100589995D01*
X234450000D01*
X233850000Y99989995D01*
X237271580Y163345330D02*
X237498650Y163677700D01*
X237544060Y163345330D01*
X237354540Y163412590D02*
G75*
G3*
X237498650Y163677700I-171795J265110D01*
G74*
G1*
X237725720Y163345330D01*
X233725720Y162545330D02*
X233498650Y162877700D01*
X233634890Y162545330D01*
X233453235Y162545330D02*
X233498650Y162877700D01*
G75*
G3*
X233558650Y162612590I615690J0D01*
G74*
G1*
X233271580Y162545330D02*
X233498650Y162877700D01*
G75*
G2*
X233438650Y162612590I-615690J0D01*
G74*
G1*
X232125720Y162545330D02*
X231898650Y162877700D01*
X231762405Y162545330D01*
X231853235Y162545330D02*
X231898650Y162877700D01*
G75*
G2*
X231838650Y162612590I-615690J0D01*
G74*
G1*
X231158650Y163412590D02*
G75*
G2*
X231098650Y163677700I555690J265110D01*
G74*
G1*
X231144060Y163345330D01*
X231038650Y163412590D02*
G75*
G3*
X231098650Y163677700I-555690J265110D01*
G74*
G1*
X231234890Y163345330D01*
X231325720Y163345330D02*
X231098650Y163677700D01*
G75*
G2*
X230954540Y163412590I-315905J0D01*
G74*
G1*
X230253235Y162545330D02*
X230298650Y162877700D01*
G75*
G2*
X230238650Y162612590I-615690J0D01*
G74*
G1*
X230154540Y162612590D02*
G75*
G3*
X230298650Y162877700I-171795J265110D01*
G74*
G1*
X230162405Y162545330D01*
X230071580Y162545330D02*
X230298650Y162877700D01*
X230344060Y162545330D01*
X227098650Y162390200D02*
Y163990200D01*
Y167490150D01*
X227598650Y167990150D01*
X258800000D01*
X259300000Y167490150D01*
Y101493455D01*
X257796540Y99989995D01*
X237850000D01*
X239053235Y163345330D02*
X239098650Y163677700D01*
G75*
G3*
X239158650Y163412590I615690J0D01*
G74*
G1*
X238871580Y163345330D02*
X239098650Y163677700D01*
X239325720Y163345330D01*
X239038650Y163412590D02*
G75*
G3*
X239098650Y163677700I-555690J265110D01*
G74*
G1*
X238962405Y163345330D01*
X238954540Y163412590D02*
G75*
G3*
X239098650Y163677700I-171795J265110D01*
G74*
G1*
X239144060Y163345330D01*
X239242760Y163412590D02*
G75*
G2*
X239098650Y163677700I171795J265110D01*
G74*
G1*
X239234890Y163345330D01*
X238154540Y162612590D02*
G75*
G3*
X238298650Y162877700I-171795J265110D01*
G74*
G1*
X238525720Y162545330D01*
X238434890Y162545330D02*
X238298650Y162877700D01*
X238162405Y162545330D01*
X238071580Y162545330D02*
X238298650Y162877700D01*
X238253235Y162545330D01*
X238238650Y162612590D02*
G75*
G3*
X238298650Y162877700I-555690J265110D01*
G74*
G75*
G3*
X238358650Y162612590I615690J0D01*
G74*
G1*
X238442760Y162612590D02*
G75*
G2*
X238298650Y162877700I171795J265110D01*
G74*
G1*
X238344060Y162545330D01*
X237642760Y163412590D02*
G75*
G2*
X237498650Y163677700I171795J265110D01*
G74*
G75*
G3*
X237558650Y163412590I615690J0D01*
G74*
G1*
X237362405Y163345330D02*
X237498650Y163677700D01*
G75*
G2*
X237438650Y163412590I-615690J0D01*
G74*
G1*
X237453235Y163345330D02*
X237498650Y163677700D01*
X237634890Y163345330D01*
X236758650Y162612590D02*
G75*
G2*
X236698650Y162877700I555690J265110D01*
G74*
G1*
X236925720Y162545330D01*
X236471580Y162545330D02*
X236698650Y162877700D01*
G75*
G2*
X236554540Y162612590I-315905J0D01*
G74*
G1*
X236638650Y162612590D02*
G75*
G3*
X236698650Y162877700I-555690J265110D01*
G74*
G75*
G3*
X236842760Y162612590I315905J0D01*
G74*
G1*
X236562405Y162545330D02*
X236698650Y162877700D01*
X236834890Y162545330D01*
X236744060Y162545330D02*
X236698650Y162877700D01*
X236653235Y162545330D01*
X235958650Y163412590D02*
G75*
G2*
X235898650Y163677700I555690J265110D01*
G74*
G75*
G2*
X235838650Y163412590I-615690J0D01*
G74*
G1*
X235754540Y163412590D02*
G75*
G3*
X235898650Y163677700I-171795J265110D01*
G74*
G1*
X235944060Y163345330D01*
X236034890Y163345330D02*
X235898650Y163677700D01*
X235671580Y163345330D01*
X236042760Y163412590D02*
G75*
G2*
X235898650Y163677700I171795J265110D01*
G74*
G1*
X235853235Y163345330D01*
X235762405Y163345330D02*
X235898650Y163677700D01*
X236125720Y163345330D01*
X234962405Y162545330D02*
X235098650Y162877700D01*
X235053235Y162545330D01*
X235234890Y162545330D02*
X235098650Y162877700D01*
G75*
G3*
X235242760Y162612590I315905J0D01*
G74*
G1*
X234954540Y162612590D02*
G75*
G3*
X235098650Y162877700I-171795J265110D01*
G74*
G75*
G3*
X235158650Y162612590I615690J0D01*
G74*
G1*
X235144060Y162545330D02*
X235098650Y162877700D01*
X234871580Y162545330D01*
X235038650Y162612590D02*
G75*
G3*
X235098650Y162877700I-555690J265110D01*
G74*
G1*
X235325720Y162545330D01*
X234071580Y163345330D02*
X234298650Y163677700D01*
G75*
G2*
X234154540Y163412590I-315905J0D01*
G74*
G1*
X234344060Y163345330D02*
X234298650Y163677700D01*
X234434890Y163345330D01*
X234238650Y163412590D02*
G75*
G3*
X234298650Y163677700I-555690J265110D01*
G74*
G1*
X234525720Y163345330D01*
X234162405Y163345330D02*
X234298650Y163677700D01*
G75*
G3*
X234442760Y163412590I315905J0D01*
G74*
G1*
X234253235Y163345330D02*
X234298650Y163677700D01*
G75*
G3*
X234358650Y163412590I615690J0D01*
G74*
G1*
X233362405Y162545330D02*
X233498650Y162877700D01*
G75*
G2*
X233354540Y162612590I-315905J0D01*
G74*
G1*
X233544060Y162545330D02*
X233498650Y162877700D01*
G75*
G3*
X233642760Y162612590I315905J0D01*
G74*
G1*
X232562405Y163345330D02*
X232698650Y163677700D01*
G75*
G2*
X232638650Y163412590I-615690J0D01*
G74*
G1*
X232744060Y163345330D02*
X232698650Y163677700D01*
X232653235Y163345330D01*
X232758650Y163412590D02*
G75*
G2*
X232698650Y163677700I555690J265110D01*
G74*
G75*
G3*
X232842760Y163412590I315905J0D01*
G74*
G1*
X232554540Y163412590D02*
G75*
G3*
X232698650Y163677700I-171795J265110D01*
G74*
G1*
X232834890Y163345330D01*
X232925720Y163345330D02*
X232698650Y163677700D01*
X232471580Y163345330D01*
X232034890Y162545330D02*
X231898650Y162877700D01*
G75*
G2*
X231754540Y162612590I-315905J0D01*
G74*
G1*
X232042760Y162612590D02*
G75*
G2*
X231898650Y162877700I171795J265110D01*
G74*
G75*
G3*
X231958650Y162612590I615690J0D01*
G74*
G1*
X231671580Y162545330D02*
X231898650Y162877700D01*
X231944060Y162545330D01*
X230962405Y163345330D02*
X231098650Y163677700D01*
X230871580Y163345330D01*
X231053235Y163345330D02*
X231098650Y163677700D01*
G75*
G3*
X231242760Y163412590I315905J0D01*
G74*
G1*
X230525720Y162545330D02*
X230298650Y162877700D01*
G75*
G3*
X230442760Y162612590I315905J0D01*
G74*
G1*
X230358650Y162612590D02*
G75*
G2*
X230298650Y162877700I555690J265110D01*
G74*
G1*
X230434890Y162545330D01*
X229544060Y163345330D02*
X229498650Y163677700D01*
G75*
G3*
X229558650Y163412590I615690J0D01*
G74*
G1*
X229362405Y163345330D02*
X229498650Y163677700D01*
G75*
G3*
X229642760Y163412590I315905J0D01*
G74*
G1*
X229634890Y163345330D02*
X229498650Y163677700D01*
G75*
G2*
X229354540Y163412590I-315905J0D01*
G74*
G1*
X229438650Y163412590D02*
G75*
G3*
X229498650Y163677700I-555690J265110D01*
G74*
G1*
X229453235Y163345330D01*
X229725720Y163345330D02*
X229498650Y163677700D01*
X229271580Y163345330D01*
X228638650Y162612590D02*
G75*
G3*
X228698650Y162877700I-555690J265110D01*
G74*
G75*
G3*
X228758650Y162612590I615690J0D01*
G74*
G1*
X228842760Y162612590D02*
G75*
G2*
X228698650Y162877700I171795J265110D01*
G74*
G1*
X228925720Y162545330D01*
X228653235Y162545330D02*
X228698650Y162877700D01*
X228744060Y162545330D01*
X228471580Y162545330D02*
X228698650Y162877700D01*
X228834890Y162545330D01*
X228554540Y162612590D02*
G75*
G3*
X228698650Y162877700I-171795J265110D01*
G74*
G1*
X228562405Y162545330D01*
X228125720Y163345330D02*
X227898650Y163677700D01*
G75*
G3*
X228042760Y163412590I315905J0D01*
G74*
G1*
X227762405Y163345330D02*
X227898650Y163677700D01*
X228034890Y163345330D01*
X227671580Y163345330D02*
X227898650Y163677700D01*
X227944060Y163345330D01*
X227853235Y163345330D02*
X227898650Y163677700D01*
G75*
G2*
X227838650Y163412590I-615690J0D01*
G74*
G1*
X227958650Y163412590D02*
G75*
G2*
X227898650Y163677700I555690J265110D01*
G74*
G75*
G2*
X227754540Y163412590I-315905J0D01*
G74*
G1*
X227325720Y162545330D02*
X227098650Y162877700D01*
X227144060Y162545330D01*
X226962405Y162545330D02*
X227098650Y162877700D01*
G75*
G2*
X227038650Y162612590I-615690J0D01*
G74*
G1*
X227053235Y162545330D02*
X227098650Y162877700D01*
G75*
G3*
X227242760Y162612590I315905J0D01*
G74*
G1*
X227158650Y162612590D02*
G75*
G2*
X227098650Y162877700I555690J265110D01*
G74*
G75*
G2*
X226954540Y162612590I-315905J0D01*
G74*
G1*
X227234890Y162545330D02*
X227098650Y162877700D01*
X226871580Y162545330D01*
X227898650Y163190200D02*
Y163990200D01*
Y167290150D01*
X228398650Y167790150D01*
X258600000D01*
X259100000Y167290150D01*
Y101681555D01*
X257808440Y100389995D01*
X236250000D01*
X235850000Y99989995D01*
X228850000Y110989995D02*
X222200000D01*
X221700000Y111489995D01*
Y131290050D01*
X222200000Y131790050D01*
X233798650D01*
X234298650Y131290050D01*
Y127390100D01*
X228850000Y108989995D02*
X221200000D01*
X220700000Y109489995D01*
Y132290050D01*
X221200000Y132790050D01*
X237798650D01*
X238298650Y132290050D01*
Y128190100D01*
X230850000Y90989995D02*
X230450000Y91389995D01*
X220800000D01*
X220300000Y90889995D01*
Y70698330D01*
X223967695Y67030635D01*
X240258115D01*
X240698650Y66590100D01*
Y66190100D01*
X235850000Y85989995D02*
X236250000Y85589995D01*
X238450000D01*
X238567825Y85472170D01*
Y81745745D01*
X239067825Y81245745D01*
X256700000D01*
X257200000Y80745745D01*
Y41490050D01*
X256700000Y40990050D01*
X230798950D01*
X230298950Y40490050D01*
Y35490100D01*
X257282175Y85989995D02*
X257400000Y85872170D01*
Y41290050D01*
X256900000Y40790050D01*
X231598950D01*
X231098950Y40290050D01*
Y36290100D01*
X257482175Y86389995D02*
X257600000Y86272170D01*
Y41090050D01*
X257100000Y40590050D01*
X232398950D01*
X231898950Y40090050D01*
Y35490100D01*
X235450000Y86389995D02*
X234850000Y86989995D01*
X227898950Y36290100D02*
Y41090050D01*
X228398950Y41590050D01*
X256100000D01*
X256600000Y42090050D01*
Y80145745D01*
X256100000Y80645745D01*
X236057945D01*
X235557945Y81145745D01*
Y83763800D01*
X234850000Y84989995D01*
X228698950Y35490100D02*
Y40890050D01*
X229198950Y41390050D01*
X256300000D01*
X256800000Y41890050D01*
Y80345745D01*
X256300000Y80845745D01*
X238057945D01*
X237557945Y81345745D01*
Y83763800D01*
X236850000Y84989995D01*
X229498950Y36290100D02*
Y40690050D01*
X229998950Y41190050D01*
X256500000D01*
X257000000Y41690050D01*
Y80545745D01*
X256500000Y81045745D01*
X238867825D01*
X238367825Y81545745D01*
Y85272170D01*
X238250000Y85389995D01*
X234450000D01*
X233850000Y85989995D01*
X251898350Y66590100D02*
Y69390100D01*
X251457815Y69830635D01*
X225127495D01*
X223100000Y71858130D01*
Y85089995D01*
X223600000Y85589995D01*
X223837255D01*
X224374200Y86126940D01*
X226625800D01*
X227162745Y85589995D01*
X232250000D01*
X232850000Y84989995D01*
X251898650Y66590100D02*
Y66190100D01*
X247898650Y65790100D02*
Y65390100D01*
X248698650Y66590100D02*
Y66190100D01*
X249498650Y65790100D02*
Y65390100D01*
X250298650Y66590100D02*
Y66190100D01*
X251098650Y65790100D02*
Y65390100D01*
X252698650Y65790100D02*
Y65390100D01*
X227098950Y35490100D02*
X227098675Y41290050D01*
X227598650Y41790050D01*
X255900000D01*
X256400000Y42290050D01*
Y79945745D01*
X255900000Y80445745D01*
X233749850D01*
X233249850Y80945745D01*
Y83866100D01*
X232749850Y84366100D01*
X229050000D01*
X228850000Y84566100D01*
Y84989995D01*
X257282175Y85989995D02*
X237850000D01*
X257482175Y86389995D02*
X235450000D01*
X257298590Y87989995D02*
X237850000D01*
X257498590Y88389995D02*
X235450000D01*
X257698590Y88589995D02*
X237250000D01*
X257898590Y89389995D02*
X234450000D01*
X258098590Y89589995D02*
X236250000D01*
X258298590Y89989995D02*
X237850000D01*
X257648165Y86589995D02*
X257800000Y86446000D01*
X237250000Y86589995D02*
X257648165D01*
X257800000Y40890050D02*
Y86446000D01*
X257190390Y87389995D02*
X258000000Y86580385D01*
X234450000Y87389995D02*
X257190390D01*
X258000000Y40690050D02*
Y86580385D01*
X257344500Y87589995D02*
X258200000Y86734495D01*
X236250000Y87589995D02*
X257344500D01*
X258200000Y40490050D02*
Y86734495D01*
D11*
X237850000Y104989995D02*
X228850000D01*
X237850000Y93989995D02*
X228850000D01*
X237850000Y94989995D02*
X228850000D01*
X237850000Y103989995D02*
X228850000D01*
X233850000Y104989995D02*
Y101989995D01*
X233850000Y96989995D02*
Y93989995D01*
D12*
X237850000Y84989995D03*
X236850000D03*
X235850000D03*
X234850000D03*
X233850000D03*
X232850000D03*
X231850000D03*
X230850000D03*
X229850000D03*
X228850000D03*
X237850000Y85989995D03*
X236850000D03*
X235850000D03*
X234850000D03*
X233850000D03*
X232850000D03*
X231850000D03*
X230850000D03*
X229850000D03*
X228850000D03*
X237850000Y86989995D03*
X236850000D03*
X235850000D03*
X234850000D03*
X233850000D03*
X232850000D03*
X231850000D03*
X230850000D03*
X229850000D03*
X228850000D03*
X237850000Y87989995D03*
X236850000D03*
X235850000D03*
X234850000D03*
X233850000D03*
X232850000D03*
X231850000D03*
X230850000D03*
X229850000D03*
X228850000D03*
X237850000Y88989995D03*
X236850000D03*
X235850000D03*
X234850000D03*
X233850000D03*
X232850000D03*
X231850000D03*
X230850000D03*
X229850000D03*
X228850000D03*
X237850000Y89989995D03*
X236850000D03*
X235850000D03*
X234850000D03*
X233850000D03*
X232850000D03*
X231850000D03*
X230850000D03*
X229850000D03*
X228850000D03*
X237850000Y90989995D03*
X236850000D03*
X235850000D03*
X234850000D03*
X233850000D03*
X232850000D03*
X231850000D03*
X230850000D03*
X229850000D03*
X228850000D03*
X237850000Y91989995D03*
X236850000D03*
X235850000D03*
X234850000D03*
X233850000D03*
X232850000D03*
X231850000D03*
X230850000D03*
X229850000D03*
X228850000D03*
X237850000Y92989995D03*
X236850000D03*
X235850000D03*
X234850000D03*
X233850000D03*
X232850000D03*
X231850000D03*
X230850000D03*
X229850000D03*
X228850000D03*
X237850000Y93989995D03*
X236850000D03*
X235850000D03*
X234850000D03*
X233850000D03*
X232850000D03*
X231850000D03*
X230850000D03*
X229850000D03*
X228850000D03*
X237850000Y94989995D03*
X236850000D03*
X235850000D03*
X234850000D03*
X233850000D03*
X232850000D03*
X231850000D03*
X230850000D03*
X229850000D03*
X228850000D03*
X237850000Y95989995D03*
X236850000D03*
X235850000D03*
X234850000D03*
X233850000D03*
X232850000D03*
X231850000D03*
X230850000D03*
X229850000D03*
X228850000D03*
X237850000Y96989995D03*
X236850000D03*
X235850000D03*
X234850000D03*
X233850000D03*
X232850000D03*
X231850000D03*
X230850000D03*
X229850000D03*
X228850000D03*
X237850000Y97989995D03*
X236850000D03*
X235850000D03*
X234850000D03*
X233850000D03*
X232850000D03*
X231850000D03*
X230850000D03*
X229850000D03*
X228850000D03*
X237850000Y98989995D03*
X236850000D03*
X235850000D03*
X234850000D03*
X233850000D03*
X232850000D03*
X231850000D03*
X230850000D03*
X229850000D03*
X228850000D03*
X237850000Y99989995D03*
X236850000D03*
X235850000D03*
X234850000D03*
X233850000D03*
X232850000D03*
X231850000D03*
X230850000D03*
X229850000D03*
X228850000D03*
X237850000Y100989995D03*
X236850000D03*
X235850000D03*
X234850000D03*
X233850000D03*
X232850000D03*
X231850000D03*
X230850000D03*
X229850000D03*
X228850000D03*
X237850000Y101989995D03*
X236850000D03*
X235850000D03*
X234850000D03*
X233850000D03*
X232850000D03*
X231850000D03*
X230850000D03*
X229850000D03*
X228850000D03*
X237850000Y102989995D03*
X236850000D03*
X235850000D03*
X234850000D03*
X233850000D03*
X232850000D03*
X231850000D03*
X230850000D03*
X229850000D03*
X228850000D03*
X237850000Y103989995D03*
X236850000D03*
X235850000D03*
X234850000D03*
X233850000D03*
X232850000D03*
X231850000D03*
X230850000D03*
X229850000D03*
X228850000D03*
X237850000Y104989995D03*
X236850000D03*
X235850000D03*
X234850000D03*
X233850000D03*
X232850000D03*
X231850000D03*
X230850000D03*
X229850000D03*
X228850000D03*
X237850000Y105989995D03*
X236850000D03*
X235850000D03*
X234850000D03*
X233850000D03*
X232850000D03*
X231850000D03*
X230850000D03*
X229850000D03*
X228850000D03*
X237850000Y106989995D03*
X236850000D03*
X235850000D03*
X234850000D03*
X233850000D03*
X232850000D03*
X231850000D03*
X230850000D03*
X229850000D03*
X228850000D03*
X237850000Y107989995D03*
X236850000D03*
X235850000D03*
X234850000D03*
X233850000D03*
X232850000D03*
X231850000D03*
X230850000D03*
X229850000D03*
X228850000D03*
X237850000Y108989995D03*
X236850000D03*
X235850000D03*
X234850000D03*
X233850000D03*
X232850000D03*
X231850000D03*
X230850000D03*
X229850000D03*
X228850000D03*
X237850000Y109989995D03*
X236850000D03*
X235850000D03*
X234850000D03*
X233850000D03*
X232850000D03*
X231850000D03*
X230850000D03*
X229850000D03*
X228850000D03*
X237850000Y110989995D03*
X236850000D03*
X235850000D03*
X234850000D03*
X233850000D03*
X232850000D03*
X231850000D03*
X230850000D03*
X229850000D03*
X228850000D03*
X237850000Y111989995D03*
X236850000D03*
X235850000D03*
X234850000D03*
X233850000D03*
X232850000D03*
X231850000D03*
X230850000D03*
X229850000D03*
X228850000D03*
X237850000Y112989995D03*
X236850000D03*
X235850000D03*
X234850000D03*
X233850000D03*
X232850000D03*
X231850000D03*
X230850000D03*
X229850000D03*
X228850000D03*
X237850000Y113989995D03*
X236850000D03*
X235850000D03*
X234850000D03*
X233850000D03*
X232850000D03*
X231850000D03*
X230850000D03*
X229850000D03*
X228850000D03*
D13*
X237550000Y84989995D03*
X236550000D03*
X235550000D03*
X234550000D03*
X233550000D03*
X232550000D03*
X231550000D03*
X230550000D03*
X229550000D03*
X228550000D03*
X237550000Y85989995D03*
X236550000D03*
X235550000D03*
X234550000D03*
X233550000D03*
X232550000D03*
X231550000D03*
X230550000D03*
X229550000D03*
X228550000D03*
X237550000Y86989995D03*
X236550000D03*
X235550000D03*
X234550000D03*
X233550000D03*
X232550000D03*
X231550000D03*
X230550000D03*
X229550000D03*
X228550000D03*
X237550000Y87989995D03*
X236550000D03*
X235550000D03*
X234550000D03*
X233550000D03*
X232550000D03*
X231550000D03*
X230550000D03*
X229550000D03*
X228550000D03*
X237550000Y88989995D03*
X236550000D03*
X235550000D03*
X234550000D03*
X233550000D03*
X232550000D03*
X231550000D03*
X230550000D03*
X229550000D03*
X228550000D03*
X237550000Y89989995D03*
X236550000D03*
X235550000D03*
X234550000D03*
X233550000D03*
X232550000D03*
X231550000D03*
X230550000D03*
X229550000D03*
X228550000D03*
X237550000Y90989995D03*
X236550000D03*
X235550000D03*
X234550000D03*
X233550000D03*
X232550000D03*
X231550000D03*
X230550000D03*
X229550000D03*
X228550000D03*
X237550000Y91989995D03*
X236550000D03*
X235550000D03*
X234550000D03*
X233550000D03*
X232550000D03*
X231550000D03*
X230550000D03*
X229550000D03*
X228550000D03*
X237550000Y92989995D03*
X236550000D03*
X235550000D03*
X234550000D03*
X233550000D03*
X232550000D03*
X231550000D03*
X230550000D03*
X229550000D03*
X228550000D03*
X237550000Y93989995D03*
X236550000D03*
X235550000D03*
X234550000D03*
X233550000D03*
X232550000D03*
X231550000D03*
X230550000D03*
X229550000D03*
X228550000D03*
X237550000Y94989995D03*
X236550000D03*
X235550000D03*
X234550000D03*
X233550000D03*
X232550000D03*
X231550000D03*
X230550000D03*
X229550000D03*
X228550000D03*
X237550000Y95989995D03*
X236550000D03*
X235550000D03*
X234550000D03*
X233550000D03*
X232550000D03*
X231550000D03*
X230550000D03*
X229550000D03*
X228550000D03*
X237550000Y96989995D03*
X236550000D03*
X235550000D03*
X234550000D03*
X233550000D03*
X232550000D03*
X231550000D03*
X230550000D03*
X229550000D03*
X228550000D03*
X237550000Y97989995D03*
X236550000D03*
X235550000D03*
X234550000D03*
X233550000D03*
X232550000D03*
X231550000D03*
X230550000D03*
X229550000D03*
X228550000D03*
X237550000Y98989995D03*
X236550000D03*
X235550000D03*
X234550000D03*
X233550000D03*
X232550000D03*
X231550000D03*
X230550000D03*
X229550000D03*
X228550000D03*
X237550000Y99989995D03*
X236550000D03*
X235550000D03*
X234550000D03*
X233550000D03*
X232550000D03*
X231550000D03*
X230550000D03*
X229550000D03*
X228550000D03*
X237550000Y100989995D03*
X236550000D03*
X235550000D03*
X234550000D03*
X233550000D03*
X232550000D03*
X231550000D03*
X230550000D03*
X229550000D03*
X228550000D03*
X237550000Y101989995D03*
X236550000D03*
X235550000D03*
X234550000D03*
X233550000D03*
X232550000D03*
X231550000D03*
X230550000D03*
X229550000D03*
X228550000D03*
X237550000Y102989995D03*
X236550000D03*
X235550000D03*
X234550000D03*
X233550000D03*
X232550000D03*
X231550000D03*
X230550000D03*
X229550000D03*
X228550000D03*
X237550000Y103989995D03*
X236550000D03*
X235550000D03*
X234550000D03*
X233550000D03*
X232550000D03*
X231550000D03*
X230550000D03*
X229550000D03*
X228550000D03*
X237550000Y104989995D03*
X236550000D03*
X235550000D03*
X234550000D03*
X233550000D03*
X232550000D03*
X231550000D03*
X230550000D03*
X229550000D03*
X228550000D03*
X237550000Y105989995D03*
X236550000D03*
X235550000D03*
X234550000D03*
X233550000D03*
X232550000D03*
X231550000D03*
X230550000D03*
X229550000D03*
X228550000D03*
X237550000Y106989995D03*
X236550000D03*
X235550000D03*
X234550000D03*
X233550000D03*
X232550000D03*
X231550000D03*
X230550000D03*
X229550000D03*
X228550000D03*
X237550000Y107989995D03*
X236550000D03*
X235550000D03*
X234550000D03*
X233550000D03*
X232550000D03*
X231550000D03*
X230550000D03*
X229550000D03*
X228550000D03*
X237550000Y108989995D03*
X236550000D03*
X235550000D03*
X234550000D03*
X233550000D03*
X232550000D03*
X231550000D03*
X230550000D03*
X229550000D03*
X228550000D03*
X237550000Y109989995D03*
X236550000D03*
X235550000D03*
X234550000D03*
X233550000D03*
X232550000D03*
X231550000D03*
X230550000D03*
X229550000D03*
X228550000D03*
X237550000Y110989995D03*
X236550000D03*
X235550000D03*
X234550000D03*
X233550000D03*
X232550000D03*
X231550000D03*
X230550000D03*
X229550000D03*
X228550000D03*
X237550000Y111989995D03*
X236550000D03*
X235550000D03*
X234550000D03*
X233550000D03*
X232550000D03*
X231550000D03*
X230550000D03*
X229550000D03*
X228550000D03*
X237550000Y112989995D03*
X236550000D03*
X235550000D03*
X234550000D03*
X233550000D03*
X232550000D03*
X231550000D03*
X230550000D03*
X229550000D03*
X228550000D03*
X237550000Y113989995D03*
X236550000D03*
X235550000D03*
X234550000D03*
X233550000D03*
X232550000D03*
X231550000D03*
X230550000D03*
X229550000D03*
X228550000D03*
G04 #@! TO.N,483*
D14*
X239098650Y36290100D03*
G04 #@! TO.N,484*
X238298650Y35490100D03*
G04 #@! TO.N,485*
X237498650Y36290100D03*
G04 #@! TO.N,486*
X236698650Y35490100D03*
G04 #@! TO.N,487*
X235898650Y36290100D03*
G04 #@! TO.N,488*
X235098650Y35490100D03*
G04 #@! TO.N,489*
X234298650Y36290100D03*
G04 #@! TO.N,490*
X233498650Y35490100D03*
G04 #@! TO.N,491*
X232698650Y36290100D03*
G04 #@! TO.N,492*
X231898650Y35490100D03*
G04 #@! TO.N,493*
X231098650Y36290100D03*
G04 #@! TO.N,494*
X230298650Y35490100D03*
G04 #@! TO.N,495*
X229498650Y36290100D03*
G04 #@! TO.N,496*
X228698650Y35490100D03*
G04 #@! TO.N,497*
X227898650Y36290100D03*
G04 #@! TO.N,498*
X227098650Y35490100D03*
G04 #@! TO.N,450*
X239098650Y44290100D03*
G04 #@! TO.N,449*
X238298650Y43490100D03*
G04 #@! TO.N,448*
X237498650Y44290100D03*
G04 #@! TO.N,447*
X236698650Y43490100D03*
G04 #@! TO.N,446*
X235898650Y44290100D03*
G04 #@! TO.N,445*
X235098650Y43490100D03*
G04 #@! TO.N,444*
X234298650Y44290100D03*
G04 #@! TO.N,443*
X233498650Y43490100D03*
G04 #@! TO.N,442*
X232698650Y44290100D03*
G04 #@! TO.N,441*
X231898650Y43490100D03*
G04 #@! TO.N,440*
X231098650Y44290100D03*
G04 #@! TO.N,439*
X230298650Y43490100D03*
G04 #@! TO.N,435*
X229498650Y44290100D03*
G04 #@! TO.N,438*
X228698650Y43490100D03*
G04 #@! TO.N,436*
X227898650Y44290100D03*
G04 #@! TO.N,437*
X227098650Y43490100D03*
G04 #@! TO.N,467*
X252698650Y36290100D03*
G04 #@! TO.N,468*
X251898650Y35490100D03*
G04 #@! TO.N,469*
X251098650Y36290100D03*
G04 #@! TO.N,470*
X250298650Y35490100D03*
G04 #@! TO.N,471*
X249498650Y36290100D03*
G04 #@! TO.N,472*
X248698650Y35490100D03*
G04 #@! TO.N,473*
X247898650Y36290100D03*
G04 #@! TO.N,474*
X247098650Y35490100D03*
G04 #@! TO.N,475*
X246298650Y36290100D03*
G04 #@! TO.N,476*
X245498650Y35490100D03*
G04 #@! TO.N,477*
X244698650Y36290100D03*
G04 #@! TO.N,478*
X243898650Y35490100D03*
G04 #@! TO.N,479*
X243098650Y36290100D03*
G04 #@! TO.N,480*
X242298650Y35490100D03*
G04 #@! TO.N,481*
X241498650Y36290100D03*
G04 #@! TO.N,482*
X240698650Y35490100D03*
G04 #@! TO.N,465*
X252698650Y44290100D03*
G04 #@! TO.N,466*
X251898650Y43490100D03*
G04 #@! TO.N,464*
X251098650Y44290100D03*
G04 #@! TO.N,463*
X250298650Y43490100D03*
G04 #@! TO.N,462*
X249498650Y44290100D03*
G04 #@! TO.N,461*
X248698650Y43490100D03*
G04 #@! TO.N,460*
X247898650Y44290100D03*
G04 #@! TO.N,459*
X247098650Y43490100D03*
G04 #@! TO.N,458*
X246298650Y44290100D03*
G04 #@! TO.N,457*
X245498650Y43490100D03*
G04 #@! TO.N,456*
X244698650Y44290100D03*
G04 #@! TO.N,455*
X243898650Y43490100D03*
G04 #@! TO.N,454*
X243098650Y44290100D03*
G04 #@! TO.N,453*
X242298650Y43490100D03*
G04 #@! TO.N,452*
X241498650Y44290100D03*
G04 #@! TO.N,451*
X240698650Y43490100D03*
G04 #@! TO.N,483*
X239098650Y163190200D03*
G04 #@! TO.N,484*
X238298650Y162390200D03*
G04 #@! TO.N,485*
X237498650Y163190200D03*
G04 #@! TO.N,486*
X236698650Y162390200D03*
G04 #@! TO.N,487*
X235898650Y163190200D03*
G04 #@! TO.N,488*
X235098650Y162390200D03*
G04 #@! TO.N,489*
X234298650Y163190200D03*
G04 #@! TO.N,490*
X233498650Y162390200D03*
G04 #@! TO.N,491*
X232698650Y163190200D03*
G04 #@! TO.N,492*
X231898650Y162390200D03*
G04 #@! TO.N,493*
X231098650Y163190200D03*
G04 #@! TO.N,494*
X230298650Y162390200D03*
G04 #@! TO.N,495*
X229498650Y163190200D03*
G04 #@! TO.N,496*
X228698650Y162390200D03*
G04 #@! TO.N,497*
X227898650Y163190200D03*
G04 #@! TO.N,498*
X227098650Y162390200D03*
G04 #@! TO.N,450*
X239098650Y171190200D03*
G04 #@! TO.N,449*
X238298650Y170390200D03*
G04 #@! TO.N,448*
X237498650Y171190200D03*
G04 #@! TO.N,447*
X236698650Y170390200D03*
G04 #@! TO.N,446*
X235898650Y171190200D03*
G04 #@! TO.N,445*
X235098650Y170390200D03*
G04 #@! TO.N,444*
X234298650Y171190200D03*
G04 #@! TO.N,443*
X233498650Y170390200D03*
G04 #@! TO.N,442*
X232698650Y171190200D03*
G04 #@! TO.N,441*
X231898650Y170390200D03*
G04 #@! TO.N,440*
X231098650Y171190200D03*
G04 #@! TO.N,439*
X230298650Y170390200D03*
G04 #@! TO.N,435*
X229498650Y171190200D03*
G04 #@! TO.N,438*
X228698650Y170390200D03*
G04 #@! TO.N,436*
X227898650Y171190200D03*
G04 #@! TO.N,437*
X227098650Y170390200D03*
G04 #@! TO.N,467*
X252698650Y163190200D03*
G04 #@! TO.N,468*
X251898650Y162390200D03*
G04 #@! TO.N,469*
X251098650Y163190200D03*
G04 #@! TO.N,470*
X250298650Y162390200D03*
G04 #@! TO.N,471*
X249498650Y163190200D03*
G04 #@! TO.N,472*
X248698650Y162390200D03*
G04 #@! TO.N,473*
X247898650Y163190200D03*
G04 #@! TO.N,474*
X247098650Y162390200D03*
G04 #@! TO.N,475*
X246298650Y163190200D03*
G04 #@! TO.N,476*
X245498650Y162390200D03*
G04 #@! TO.N,477*
X244698650Y163190200D03*
G04 #@! TO.N,478*
X243898650Y162390200D03*
G04 #@! TO.N,479*
X243098650Y163190200D03*
G04 #@! TO.N,480*
X242298650Y162390200D03*
G04 #@! TO.N,481*
X241498650Y163190200D03*
G04 #@! TO.N,482*
X240698650Y162390200D03*
G04 #@! TO.N,465*
X252698650Y171190200D03*
G04 #@! TO.N,466*
X251898650Y170390200D03*
G04 #@! TO.N,464*
X251098650Y171190200D03*
G04 #@! TO.N,463*
X250298650Y170390200D03*
G04 #@! TO.N,462*
X249498650Y171190200D03*
G04 #@! TO.N,461*
X248698650Y170390200D03*
G04 #@! TO.N,460*
X247898650Y171190200D03*
G04 #@! TO.N,459*
X247098650Y170390200D03*
G04 #@! TO.N,458*
X246298650Y171190200D03*
G04 #@! TO.N,457*
X245498650Y170390200D03*
G04 #@! TO.N,456*
X244698650Y171190200D03*
G04 #@! TO.N,455*
X243898650Y170390200D03*
G04 #@! TO.N,454*
X243098650Y171190200D03*
G04 #@! TO.N,453*
X242298650Y170390200D03*
G04 #@! TO.N,452*
X241498650Y171190200D03*
G04 #@! TO.N,451*
X240698650Y170390200D03*
G04 #@! TO.N,483*
Y128190100D03*
G04 #@! TO.N,484*
X241498650Y127390100D03*
G04 #@! TO.N,485*
X242298650Y128190100D03*
G04 #@! TO.N,486*
X243098650Y127390100D03*
G04 #@! TO.N,487*
X243898650Y128190100D03*
G04 #@! TO.N,488*
X244698650Y127390100D03*
G04 #@! TO.N,489*
X245498650Y128190100D03*
G04 #@! TO.N,490*
X246298650Y127390100D03*
G04 #@! TO.N,491*
X247098650Y128190100D03*
G04 #@! TO.N,492*
X247898650Y127390100D03*
G04 #@! TO.N,493*
X248698650Y128190100D03*
G04 #@! TO.N,494*
X249498650Y127390100D03*
G04 #@! TO.N,495*
X250298650Y128190100D03*
G04 #@! TO.N,496*
X251098650Y127390100D03*
G04 #@! TO.N,497*
X251898650Y128190100D03*
G04 #@! TO.N,467*
X227098650D03*
G04 #@! TO.N,468*
X227898650Y127390100D03*
G04 #@! TO.N,469*
X228698650Y128190100D03*
G04 #@! TO.N,470*
X229498650Y127390100D03*
G04 #@! TO.N,471*
X230298650Y128190100D03*
G04 #@! TO.N,472*
X231098650Y127390100D03*
G04 #@! TO.N,473*
X231898650Y128190100D03*
G04 #@! TO.N,474*
X232698650Y127390100D03*
G04 #@! TO.N,475*
X233498650Y128190100D03*
G04 #@! TO.N,476*
X234298650Y127390100D03*
G04 #@! TO.N,477*
X235098650Y128190100D03*
G04 #@! TO.N,478*
X235898650Y127390100D03*
G04 #@! TO.N,479*
X236698650Y128190100D03*
G04 #@! TO.N,480*
X237498650Y127390100D03*
G04 #@! TO.N,481*
X238298650Y128190100D03*
G04 #@! TO.N,482*
X239098650Y127390100D03*
G04 #@! TO.N,497*
X252698650D03*
G04 #@! TO.N,465*
Y141290100D03*
G04 #@! TO.N,466*
X251898650Y140490100D03*
G04 #@! TO.N,464*
X251098650Y141290100D03*
G04 #@! TO.N,463*
X250298650Y140490100D03*
G04 #@! TO.N,462*
X249498650Y141290100D03*
G04 #@! TO.N,461*
X248698650Y140490100D03*
G04 #@! TO.N,460*
X247898650Y141290100D03*
G04 #@! TO.N,459*
X247098650Y140490100D03*
G04 #@! TO.N,458*
X246298650Y141290100D03*
G04 #@! TO.N,457*
X245498650Y140490100D03*
G04 #@! TO.N,456*
X244698650Y141290100D03*
G04 #@! TO.N,455*
X243898650Y140490100D03*
G04 #@! TO.N,454*
X243098650Y141290100D03*
G04 #@! TO.N,453*
X242298650Y140490100D03*
G04 #@! TO.N,452*
X241498650Y141290100D03*
G04 #@! TO.N,451*
X240698650Y140490100D03*
G04 #@! TO.N,450*
X239098650Y141290100D03*
G04 #@! TO.N,449*
X238298650Y140490100D03*
G04 #@! TO.N,448*
X237498650Y141290100D03*
G04 #@! TO.N,447*
X236698650Y140490100D03*
G04 #@! TO.N,446*
X235898650Y141290100D03*
G04 #@! TO.N,445*
X235098650Y140490100D03*
G04 #@! TO.N,444*
X234298650Y141290100D03*
G04 #@! TO.N,443*
X233498650Y140490100D03*
G04 #@! TO.N,442*
X232698650Y141290100D03*
G04 #@! TO.N,441*
X231898650Y140490100D03*
G04 #@! TO.N,440*
X231098650Y141290100D03*
G04 #@! TO.N,439*
X230298650Y140490100D03*
G04 #@! TO.N,435*
X229498650Y141290100D03*
G04 #@! TO.N,438*
X228698650Y140490100D03*
G04 #@! TO.N,436*
X227898650Y141290100D03*
G04 #@! TO.N,437*
X227098650Y140490100D03*
G04 #@! TO.N,465*
X239098650Y36290100D03*
G04 #@! TO.N,466*
X238298650Y35490100D03*
G04 #@! TO.N,464*
X237498650Y36290100D03*
G04 #@! TO.N,463*
X236698650Y35490100D03*
G04 #@! TO.N,462*
X235898650Y36290100D03*
G04 #@! TO.N,461*
X235098650Y35490100D03*
G04 #@! TO.N,460*
X234298650Y36290100D03*
G04 #@! TO.N,459*
X233498650Y35490100D03*
G04 #@! TO.N,458*
X232698650Y36290100D03*
G04 #@! TO.N,457*
X231898650Y35490100D03*
G04 #@! TO.N,456*
X231098650Y36290100D03*
G04 #@! TO.N,455*
X230298650Y35490100D03*
G04 #@! TO.N,454*
X229498650Y36290100D03*
G04 #@! TO.N,453*
X228698650Y35490100D03*
G04 #@! TO.N,452*
X227898650Y36290100D03*
G04 #@! TO.N,451*
X227098650Y35490100D03*
G04 #@! TO.N,483*
X252698650Y65390100D03*
G04 #@! TO.N,484*
X251898650Y66190100D03*
G04 #@! TO.N,485*
X251098650Y65390100D03*
G04 #@! TO.N,486*
X250298650Y66190100D03*
G04 #@! TO.N,487*
X249498650Y65390100D03*
G04 #@! TO.N,488*
X248698650Y66190100D03*
G04 #@! TO.N,489*
X247898650Y65390100D03*
G04 #@! TO.N,490*
X247098650Y66190100D03*
G04 #@! TO.N,491*
X246298650Y65390100D03*
G04 #@! TO.N,492*
X245498650Y66190100D03*
G04 #@! TO.N,493*
X244698650Y65390100D03*
G04 #@! TO.N,494*
X243898650Y66190100D03*
G04 #@! TO.N,495*
X243098650Y65390100D03*
G04 #@! TO.N,496*
X242298650Y66190100D03*
G04 #@! TO.N,497*
X241498650Y65390100D03*
G04 #@! TO.N,498*
X240698650Y66190100D03*
G04 #@! TO.N,467*
X252698650Y65390100D03*
G04 #@! TO.N,468*
X251898650Y66190100D03*
G04 #@! TO.N,469*
X251098650Y65390100D03*
G04 #@! TO.N,470*
X250298650Y66190100D03*
G04 #@! TO.N,471*
X249498650Y65390100D03*
G04 #@! TO.N,472*
X248698650Y66190100D03*
G04 #@! TO.N,473*
X247898650Y65390100D03*
G04 #@! TO.N,474*
X247098650Y66190100D03*
G04 #@! TO.N,475*
X246298650Y65390100D03*
G04 #@! TO.N,476*
X245498650Y66190100D03*
G04 #@! TO.N,477*
X244698650Y65390100D03*
G04 #@! TO.N,478*
X243898650Y66190100D03*
G04 #@! TO.N,479*
X243098650Y65390100D03*
G04 #@! TO.N,480*
X242298650Y66190100D03*
G04 #@! TO.N,481*
X241498650Y65390100D03*
G04 #@! TO.N,482*
X240698650Y66190100D03*
G04 #@! TO.N,483*
X239098650Y65390100D03*
G04 #@! TO.N,484*
X238298650Y66190100D03*
G04 #@! TO.N,485*
X237498650Y65390100D03*
G04 #@! TO.N,486*
X236698650Y66190100D03*
G04 #@! TO.N,487*
X235898650Y65390100D03*
G04 #@! TO.N,488*
X235098650Y66190100D03*
G04 #@! TO.N,489*
X234298650Y65390100D03*
G04 #@! TO.N,490*
X233498650Y66190100D03*
G04 #@! TO.N,491*
X232698650Y65390100D03*
G04 #@! TO.N,492*
X231898650Y66190100D03*
G04 #@! TO.N,493*
X231098650Y65390100D03*
G04 #@! TO.N,494*
X230298650Y66190100D03*
G04 #@! TO.N,495*
X229498650Y65390100D03*
G04 #@! TO.N,496*
X228698650Y66190100D03*
G04 #@! TO.N,497*
X227898650Y65390100D03*
G04 #@! TO.N,498*
X227098650Y66190100D03*
G04 #@! TO.N,465*
X252698650Y71290000D03*
G04 #@! TO.N,466*
X251898650Y72090000D03*
G04 #@! TO.N,464*
X251098650Y71290000D03*
G04 #@! TO.N,463*
X250298650Y72090000D03*
G04 #@! TO.N,462*
X249498650Y71290000D03*
G04 #@! TO.N,461*
X248698650Y72090000D03*
G04 #@! TO.N,460*
X247898650Y71290000D03*
G04 #@! TO.N,459*
X247098650Y72090000D03*
G04 #@! TO.N,458*
X246298650Y71290000D03*
G04 #@! TO.N,457*
X245498650Y72090000D03*
G04 #@! TO.N,456*
X244698650Y71290000D03*
G04 #@! TO.N,455*
X243898650Y72090000D03*
G04 #@! TO.N,454*
X243098650Y71290000D03*
G04 #@! TO.N,453*
X242298650Y72090000D03*
G04 #@! TO.N,452*
X241498650Y71290000D03*
G04 #@! TO.N,451*
X240698650Y72090000D03*
G04 #@! TO.N,450*
X239098650Y71290000D03*
G04 #@! TO.N,449*
X238298650Y72090000D03*
G04 #@! TO.N,448*
X237498650Y71290000D03*
G04 #@! TO.N,447*
X236698650Y72090000D03*
G04 #@! TO.N,446*
X235898650Y71290000D03*
G04 #@! TO.N,445*
X235098650Y72090000D03*
G04 #@! TO.N,444*
X234298650Y71290000D03*
G04 #@! TO.N,443*
X233498650Y72090000D03*
G04 #@! TO.N,442*
X232698650Y71290000D03*
G04 #@! TO.N,441*
X231898650Y72090000D03*
G04 #@! TO.N,440*
X231098650Y71290000D03*
G04 #@! TO.N,439*
X230298650Y72090000D03*
G04 #@! TO.N,435*
X229498650Y71290000D03*
G04 #@! TO.N,438*
X228698650Y72090000D03*
G04 #@! TO.N,436*
X227898650Y71290000D03*
G04 #@! TO.N,437*
X227098650Y72090000D03*
%LPD*%
M02*