G04 #@! TF.FileFunction,Copper,L1,Top*
G04 #@! TF.FilePolarity,Positive*
G04 #@! TF.SameCoordinates,7kUT78nNERSz2yLT6yVT75H2gAgWAaL*
G04 #@! TF.CreationDate,2025-09-04T08:29:34+0200*
G04 #@! TF.GenerationSoftware,Ucamco,UcamX,v2023.12-240208*
%FSLAX36Y36*%
%MOMM*%
%ADD10R,0.500000X2*%
%ADD11C,0.650000*%
%ADD12C,0.160000*%
%ADD13C,0.510000*%
%ADD14C,0.600000*%
%ADD15C,0.500000*%
%ADD16C,0.200000*%
%ADD17C,3.200000*%
%ADD18C,2.400000*%
%ADD19R,5X5*%
G04 layer name: DFS3498AM1_top*
%LPD*%
G04 #@! TO.N,442*
D10*
X232698650Y41090100D03*
G04 #@! TO.N,478*
X243898650Y33090100D03*
G04 #@! TO.N,809*
X226298650D03*
G04 #@! TO.N,498*
X227098650D03*
G04 #@! TO.N,497*
X227898650D03*
G04 #@! TO.N,496*
X228698650D03*
G04 #@! TO.N,495*
X229498650D03*
G04 #@! TO.N,494*
X230298650D03*
G04 #@! TO.N,493*
X231098650D03*
G04 #@! TO.N,492*
X231898650D03*
G04 #@! TO.N,491*
X232698650D03*
G04 #@! TO.N,490*
X233498650D03*
G04 #@! TO.N,489*
X234298650D03*
G04 #@! TO.N,488*
X235098650D03*
G04 #@! TO.N,487*
X235898650D03*
G04 #@! TO.N,486*
X236698650D03*
G04 #@! TO.N,485*
X237498650D03*
G04 #@! TO.N,484*
X238298650D03*
G04 #@! TO.N,483*
X239098650D03*
G04 #@! TO.N,809*
X239898650D03*
G04 #@! TO.N,482*
X240698650D03*
G04 #@! TO.N,481*
X241498650D03*
G04 #@! TO.N,480*
X242298650D03*
G04 #@! TO.N,479*
X243098650D03*
G04 #@! TO.N,477*
X244698650D03*
G04 #@! TO.N,476*
X245498650D03*
G04 #@! TO.N,475*
X246298650D03*
G04 #@! TO.N,474*
X247098650D03*
G04 #@! TO.N,473*
X247898650D03*
G04 #@! TO.N,472*
X248698650D03*
G04 #@! TO.N,471*
X249498650D03*
G04 #@! TO.N,470*
X250298650D03*
G04 #@! TO.N,469*
X251098650D03*
G04 #@! TO.N,468*
X251898650D03*
G04 #@! TO.N,467*
X252698650D03*
G04 #@! TO.N,809*
X253498650D03*
Y41090100D03*
G04 #@! TO.N,465*
X252698650D03*
G04 #@! TO.N,466*
X251898650D03*
G04 #@! TO.N,464*
X251098650D03*
G04 #@! TO.N,463*
X250298650D03*
G04 #@! TO.N,462*
X249498650D03*
G04 #@! TO.N,461*
X248698650D03*
G04 #@! TO.N,460*
X247898650D03*
G04 #@! TO.N,459*
X247098650D03*
G04 #@! TO.N,458*
X246298650D03*
G04 #@! TO.N,457*
X245498650D03*
G04 #@! TO.N,456*
X244698650D03*
G04 #@! TO.N,455*
X243898650D03*
G04 #@! TO.N,454*
X243098650D03*
G04 #@! TO.N,453*
X242298650D03*
G04 #@! TO.N,452*
X241498650D03*
G04 #@! TO.N,451*
X240698650D03*
G04 #@! TO.N,809*
X239898650D03*
G04 #@! TO.N,450*
X239098650D03*
G04 #@! TO.N,449*
X238298650D03*
G04 #@! TO.N,448*
X237498650D03*
G04 #@! TO.N,447*
X236698650D03*
G04 #@! TO.N,446*
X235898650D03*
G04 #@! TO.N,445*
X235098650D03*
G04 #@! TO.N,444*
X234298650D03*
G04 #@! TO.N,443*
X233498650D03*
G04 #@! TO.N,441*
X231898650D03*
G04 #@! TO.N,440*
X231098650D03*
G04 #@! TO.N,439*
X230298650D03*
G04 #@! TO.N,435*
X229498650D03*
G04 #@! TO.N,438*
X228698650D03*
G04 #@! TO.N,436*
X227898650D03*
G04 #@! TO.N,437*
X227098650D03*
G04 #@! TO.N,809*
X226298650D03*
G04 #@! TO.N,442*
X232698650Y76090100D03*
G04 #@! TO.N,478*
X243898650Y68090100D03*
G04 #@! TO.N,809*
X226298650D03*
G04 #@! TO.N,498*
X227098650D03*
G04 #@! TO.N,497*
X227898650D03*
G04 #@! TO.N,496*
X228698650D03*
G04 #@! TO.N,495*
X229498650D03*
G04 #@! TO.N,494*
X230298650D03*
G04 #@! TO.N,493*
X231098650D03*
G04 #@! TO.N,492*
X231898650D03*
G04 #@! TO.N,491*
X232698650D03*
G04 #@! TO.N,490*
X233498650D03*
G04 #@! TO.N,489*
X234298650D03*
G04 #@! TO.N,488*
X235098650D03*
G04 #@! TO.N,487*
X235898650D03*
G04 #@! TO.N,486*
X236698650D03*
G04 #@! TO.N,485*
X237498650D03*
G04 #@! TO.N,484*
X238298650D03*
G04 #@! TO.N,483*
X239098650D03*
G04 #@! TO.N,809*
X239898650D03*
G04 #@! TO.N,482*
X240698650D03*
G04 #@! TO.N,481*
X241498650D03*
G04 #@! TO.N,480*
X242298650D03*
G04 #@! TO.N,479*
X243098650D03*
G04 #@! TO.N,477*
X244698650D03*
G04 #@! TO.N,476*
X245498650D03*
G04 #@! TO.N,475*
X246298650D03*
G04 #@! TO.N,474*
X247098650D03*
G04 #@! TO.N,473*
X247898650D03*
G04 #@! TO.N,472*
X248698650D03*
G04 #@! TO.N,471*
X249498650D03*
G04 #@! TO.N,470*
X250298650D03*
G04 #@! TO.N,469*
X251098650D03*
G04 #@! TO.N,468*
X251898650D03*
G04 #@! TO.N,467*
X252698650D03*
G04 #@! TO.N,809*
X253498650D03*
Y76090100D03*
G04 #@! TO.N,465*
X252698650D03*
G04 #@! TO.N,466*
X251898650D03*
G04 #@! TO.N,464*
X251098650D03*
G04 #@! TO.N,463*
X250298650D03*
G04 #@! TO.N,462*
X249498650D03*
G04 #@! TO.N,461*
X248698650D03*
G04 #@! TO.N,460*
X247898650D03*
G04 #@! TO.N,459*
X247098650D03*
G04 #@! TO.N,458*
X246298650D03*
G04 #@! TO.N,457*
X245498650D03*
G04 #@! TO.N,456*
X244698650D03*
G04 #@! TO.N,455*
X243898650D03*
G04 #@! TO.N,454*
X243098650D03*
G04 #@! TO.N,453*
X242298650D03*
G04 #@! TO.N,452*
X241498650D03*
G04 #@! TO.N,451*
X240698650D03*
G04 #@! TO.N,809*
X239898650D03*
G04 #@! TO.N,450*
X239098650D03*
G04 #@! TO.N,449*
X238298650D03*
G04 #@! TO.N,448*
X237498650D03*
G04 #@! TO.N,447*
X236698650D03*
G04 #@! TO.N,446*
X235898650D03*
G04 #@! TO.N,445*
X235098650D03*
G04 #@! TO.N,444*
X234298650D03*
G04 #@! TO.N,443*
X233498650D03*
G04 #@! TO.N,441*
X231898650D03*
G04 #@! TO.N,440*
X231098650D03*
G04 #@! TO.N,439*
X230298650D03*
G04 #@! TO.N,435*
X229498650D03*
G04 #@! TO.N,438*
X228698650D03*
G04 #@! TO.N,436*
X227898650D03*
G04 #@! TO.N,437*
X227098650D03*
G04 #@! TO.N,809*
X226298650D03*
G04 #@! TO.N,186*
X247103750Y165590200D03*
G04 #@! TO.N,222*
X235903750Y173590200D03*
G04 #@! TO.N,809*
X253503750D03*
G04 #@! TO.N,242*
X252703750D03*
G04 #@! TO.N,241*
X251903750D03*
G04 #@! TO.N,240*
X251103750D03*
G04 #@! TO.N,239*
X250303750D03*
G04 #@! TO.N,238*
X249503750D03*
G04 #@! TO.N,237*
X248703750D03*
G04 #@! TO.N,236*
X247903750D03*
G04 #@! TO.N,235*
X247103750D03*
G04 #@! TO.N,234*
X246303750D03*
G04 #@! TO.N,233*
X245503750D03*
G04 #@! TO.N,232*
X244703750D03*
G04 #@! TO.N,231*
X243903750D03*
G04 #@! TO.N,230*
X243103750D03*
G04 #@! TO.N,229*
X242303750D03*
G04 #@! TO.N,228*
X241503750D03*
G04 #@! TO.N,227*
X240703750D03*
G04 #@! TO.N,809*
X239903750D03*
G04 #@! TO.N,226*
X239103750D03*
G04 #@! TO.N,225*
X238303750D03*
G04 #@! TO.N,224*
X237503750D03*
G04 #@! TO.N,223*
X236703750D03*
G04 #@! TO.N,221*
X235103750D03*
G04 #@! TO.N,220*
X234303750D03*
G04 #@! TO.N,219*
X233503750D03*
G04 #@! TO.N,218*
X232703750D03*
G04 #@! TO.N,217*
X231903750D03*
G04 #@! TO.N,216*
X231103750D03*
G04 #@! TO.N,215*
X230303750D03*
G04 #@! TO.N,214*
X229503750D03*
G04 #@! TO.N,213*
X228703750D03*
G04 #@! TO.N,212*
X227903750D03*
G04 #@! TO.N,211*
X227103750D03*
G04 #@! TO.N,809*
X226303750D03*
Y165590200D03*
G04 #@! TO.N,209*
X227103750D03*
G04 #@! TO.N,210*
X227903750D03*
G04 #@! TO.N,208*
X228703750D03*
G04 #@! TO.N,207*
X229503750D03*
G04 #@! TO.N,206*
X230303750D03*
G04 #@! TO.N,205*
X231103750D03*
G04 #@! TO.N,204*
X231903750D03*
G04 #@! TO.N,203*
X232703750D03*
G04 #@! TO.N,202*
X233503750D03*
G04 #@! TO.N,201*
X234303750D03*
G04 #@! TO.N,200*
X235103750D03*
G04 #@! TO.N,199*
X235903750D03*
G04 #@! TO.N,198*
X236703750D03*
G04 #@! TO.N,197*
X237503750D03*
G04 #@! TO.N,196*
X238303750D03*
G04 #@! TO.N,195*
X239103750D03*
G04 #@! TO.N,809*
X239903750D03*
G04 #@! TO.N,194*
X240703750D03*
G04 #@! TO.N,193*
X241503750D03*
G04 #@! TO.N,192*
X242303750D03*
G04 #@! TO.N,191*
X243103750D03*
G04 #@! TO.N,190*
X243903750D03*
G04 #@! TO.N,189*
X244703750D03*
G04 #@! TO.N,188*
X245503750D03*
G04 #@! TO.N,187*
X246303750D03*
G04 #@! TO.N,185*
X247903750D03*
G04 #@! TO.N,184*
X248703750D03*
G04 #@! TO.N,183*
X249503750D03*
G04 #@! TO.N,182*
X250303750D03*
G04 #@! TO.N,181*
X251103750D03*
G04 #@! TO.N,179*
X251903750D03*
G04 #@! TO.N,180*
X252703750D03*
G04 #@! TO.N,442*
X232698650Y138590100D03*
G04 #@! TO.N,478*
X243898650Y130590100D03*
G04 #@! TO.N,809*
X226298650D03*
G04 #@! TO.N,498*
X227098650D03*
G04 #@! TO.N,497*
X227898650D03*
G04 #@! TO.N,496*
X228698650D03*
G04 #@! TO.N,495*
X229498650D03*
G04 #@! TO.N,494*
X230298650D03*
G04 #@! TO.N,493*
X231098650D03*
G04 #@! TO.N,492*
X231898650D03*
G04 #@! TO.N,491*
X232698650D03*
G04 #@! TO.N,490*
X233498650D03*
G04 #@! TO.N,489*
X234298650D03*
G04 #@! TO.N,488*
X235098650D03*
G04 #@! TO.N,487*
X235898650D03*
G04 #@! TO.N,486*
X236698650D03*
G04 #@! TO.N,485*
X237498650D03*
G04 #@! TO.N,484*
X238298650D03*
G04 #@! TO.N,483*
X239098650D03*
G04 #@! TO.N,809*
X239898650D03*
G04 #@! TO.N,482*
X240698650D03*
G04 #@! TO.N,481*
X241498650D03*
G04 #@! TO.N,480*
X242298650D03*
G04 #@! TO.N,479*
X243098650D03*
G04 #@! TO.N,477*
X244698650D03*
G04 #@! TO.N,476*
X245498650D03*
G04 #@! TO.N,475*
X246298650D03*
G04 #@! TO.N,474*
X247098650D03*
G04 #@! TO.N,473*
X247898650D03*
G04 #@! TO.N,472*
X248698650D03*
G04 #@! TO.N,471*
X249498650D03*
G04 #@! TO.N,470*
X250298650D03*
G04 #@! TO.N,469*
X251098650D03*
G04 #@! TO.N,468*
X251898650D03*
G04 #@! TO.N,467*
X252698650D03*
G04 #@! TO.N,809*
X253498650D03*
Y138590100D03*
G04 #@! TO.N,465*
X252698650D03*
G04 #@! TO.N,466*
X251898650D03*
G04 #@! TO.N,464*
X251098650D03*
G04 #@! TO.N,463*
X250298650D03*
G04 #@! TO.N,462*
X249498650D03*
G04 #@! TO.N,461*
X248698650D03*
G04 #@! TO.N,460*
X247898650D03*
G04 #@! TO.N,459*
X247098650D03*
G04 #@! TO.N,458*
X246298650D03*
G04 #@! TO.N,457*
X245498650D03*
G04 #@! TO.N,456*
X244698650D03*
G04 #@! TO.N,455*
X243898650D03*
G04 #@! TO.N,454*
X243098650D03*
G04 #@! TO.N,453*
X242298650D03*
G04 #@! TO.N,452*
X241498650D03*
G04 #@! TO.N,451*
X240698650D03*
G04 #@! TO.N,809*
X239898650D03*
G04 #@! TO.N,450*
X239098650D03*
G04 #@! TO.N,449*
X238298650D03*
G04 #@! TO.N,448*
X237498650D03*
G04 #@! TO.N,447*
X236698650D03*
G04 #@! TO.N,446*
X235898650D03*
G04 #@! TO.N,445*
X235098650D03*
G04 #@! TO.N,444*
X234298650D03*
G04 #@! TO.N,443*
X233498650D03*
G04 #@! TO.N,441*
X231898650D03*
G04 #@! TO.N,440*
X231098650D03*
G04 #@! TO.N,439*
X230298650D03*
G04 #@! TO.N,435*
X229498650D03*
G04 #@! TO.N,438*
X228698650D03*
G04 #@! TO.N,436*
X227898650D03*
G04 #@! TO.N,437*
X227098650D03*
G04 #@! TO.N,809*
X226298650D03*
X253503750Y165590200D03*
G04 #@! TO.N,467*
D11*
X252698650Y36290100D03*
G04 #@! TO.N,468*
X251898650Y35490100D03*
G04 #@! TO.N,469*
X251098650Y36290100D03*
G04 #@! TO.N,470*
X250298650Y35490100D03*
G04 #@! TO.N,471*
X249498650Y36290100D03*
G04 #@! TO.N,472*
X248698650Y35490100D03*
G04 #@! TO.N,473*
X247898650Y36290100D03*
G04 #@! TO.N,474*
X247098650Y35490100D03*
G04 #@! TO.N,475*
X246298650Y36290100D03*
G04 #@! TO.N,476*
X245498650Y35490100D03*
G04 #@! TO.N,477*
X244698650Y36290100D03*
G04 #@! TO.N,478*
X243898650Y35490100D03*
G04 #@! TO.N,479*
X243098650Y36290100D03*
G04 #@! TO.N,480*
X242298650Y35490100D03*
G04 #@! TO.N,481*
X241498650Y36290100D03*
G04 #@! TO.N,482*
X240698650Y35490100D03*
G04 #@! TO.N,483*
X239098650Y36290100D03*
G04 #@! TO.N,484*
X238298650Y35490100D03*
G04 #@! TO.N,485*
X237498650Y36290100D03*
G04 #@! TO.N,486*
X236698650Y35490100D03*
G04 #@! TO.N,487*
X235898650Y36290100D03*
G04 #@! TO.N,488*
X235098650Y35490100D03*
G04 #@! TO.N,489*
X234298650Y36290100D03*
G04 #@! TO.N,490*
X233498650Y35490100D03*
G04 #@! TO.N,491*
X232698650Y36290100D03*
G04 #@! TO.N,492*
X231898650Y35490100D03*
G04 #@! TO.N,493*
X231098650Y36290100D03*
G04 #@! TO.N,494*
X230298650Y35490100D03*
G04 #@! TO.N,495*
X229498650Y36290100D03*
G04 #@! TO.N,496*
X228698650Y35490100D03*
G04 #@! TO.N,497*
X227898650Y36290100D03*
G04 #@! TO.N,498*
X227098650Y35490100D03*
G04 #@! TO.N,465*
X252698650Y44290100D03*
G04 #@! TO.N,466*
X251898650Y43490100D03*
G04 #@! TO.N,464*
X251098650Y44290100D03*
G04 #@! TO.N,463*
X250298650Y43490100D03*
G04 #@! TO.N,462*
X249498650Y44290100D03*
G04 #@! TO.N,461*
X248698650Y43490100D03*
G04 #@! TO.N,460*
X247898650Y44290100D03*
G04 #@! TO.N,459*
X247098650Y43490100D03*
G04 #@! TO.N,458*
X246298650Y44290100D03*
G04 #@! TO.N,457*
X245498650Y43490100D03*
G04 #@! TO.N,456*
X244698650Y44290100D03*
G04 #@! TO.N,455*
X243898650Y43490100D03*
G04 #@! TO.N,454*
X243098650Y44290100D03*
G04 #@! TO.N,453*
X242298650Y43490100D03*
G04 #@! TO.N,452*
X241498650Y44290100D03*
G04 #@! TO.N,451*
X240698650Y43490100D03*
G04 #@! TO.N,450*
X239098650Y44290100D03*
G04 #@! TO.N,449*
X238298650Y43490100D03*
G04 #@! TO.N,448*
X237498650Y44290100D03*
G04 #@! TO.N,447*
X236698650Y43490100D03*
G04 #@! TO.N,446*
X235898650Y44290100D03*
G04 #@! TO.N,445*
X235098650Y43490100D03*
G04 #@! TO.N,444*
X234298650Y44290100D03*
G04 #@! TO.N,443*
X233498650Y43490100D03*
G04 #@! TO.N,442*
X232698650Y44290100D03*
G04 #@! TO.N,441*
X231898650Y43490100D03*
G04 #@! TO.N,440*
X231098650Y44290100D03*
G04 #@! TO.N,439*
X230298650Y43490100D03*
G04 #@! TO.N,435*
X229498650Y44290100D03*
G04 #@! TO.N,438*
X228698650Y43490100D03*
G04 #@! TO.N,436*
X227898650Y44290100D03*
G04 #@! TO.N,437*
X227098650Y43490100D03*
G04 #@! TO.N,211*
X227103750Y170390200D03*
G04 #@! TO.N,212*
X227903750Y171190200D03*
G04 #@! TO.N,213*
X228703750Y170390200D03*
G04 #@! TO.N,214*
X229503750Y171190200D03*
G04 #@! TO.N,215*
X230303750Y170390200D03*
G04 #@! TO.N,216*
X231103750Y171190200D03*
G04 #@! TO.N,217*
X231903750Y170390200D03*
G04 #@! TO.N,218*
X232703750Y171190200D03*
G04 #@! TO.N,219*
X233503750Y170390200D03*
G04 #@! TO.N,220*
X234303750Y171190200D03*
G04 #@! TO.N,221*
X235103750Y170390200D03*
G04 #@! TO.N,222*
X235903750Y171190200D03*
G04 #@! TO.N,223*
X236703750Y170390200D03*
G04 #@! TO.N,224*
X237503750Y171190200D03*
G04 #@! TO.N,225*
X238303750Y170390200D03*
G04 #@! TO.N,226*
X239103750Y171190200D03*
G04 #@! TO.N,227*
X240703750Y170390200D03*
G04 #@! TO.N,228*
X241503750Y171190200D03*
G04 #@! TO.N,229*
X242303750Y170390200D03*
G04 #@! TO.N,230*
X243103750Y171190200D03*
G04 #@! TO.N,231*
X243903750Y170390200D03*
G04 #@! TO.N,232*
X244703750Y171190200D03*
G04 #@! TO.N,233*
X245503750Y170390200D03*
G04 #@! TO.N,234*
X246303750Y171190200D03*
G04 #@! TO.N,235*
X247103750Y170390200D03*
G04 #@! TO.N,236*
X247903750Y171190200D03*
G04 #@! TO.N,237*
X248703750Y170390200D03*
G04 #@! TO.N,238*
X249503750Y171190200D03*
G04 #@! TO.N,239*
X250303750Y170390200D03*
G04 #@! TO.N,240*
X251103750Y171190200D03*
G04 #@! TO.N,241*
X251903750Y170390200D03*
G04 #@! TO.N,242*
X252703750Y171190200D03*
G04 #@! TO.N,209*
X227103750Y162390200D03*
G04 #@! TO.N,210*
X227903750Y163190200D03*
G04 #@! TO.N,208*
X228703750Y162390200D03*
G04 #@! TO.N,207*
X229503750Y163190200D03*
G04 #@! TO.N,206*
X230303750Y162390200D03*
G04 #@! TO.N,205*
X231103750Y163190200D03*
G04 #@! TO.N,204*
X231903750Y162390200D03*
G04 #@! TO.N,203*
X232703750Y163190200D03*
G04 #@! TO.N,202*
X233503750Y162390200D03*
G04 #@! TO.N,201*
X234303750Y163190200D03*
G04 #@! TO.N,200*
X235103750Y162390200D03*
G04 #@! TO.N,199*
X235903750Y163190200D03*
G04 #@! TO.N,198*
X236703750Y162390200D03*
G04 #@! TO.N,197*
X237503750Y163190200D03*
G04 #@! TO.N,196*
X238303750Y162390200D03*
G04 #@! TO.N,195*
X239103750Y163190200D03*
G04 #@! TO.N,194*
X240703750Y162390200D03*
G04 #@! TO.N,193*
X241503750Y163190200D03*
G04 #@! TO.N,192*
X242303750Y162390200D03*
G04 #@! TO.N,191*
X243103750Y163190200D03*
G04 #@! TO.N,190*
X243903750Y162390200D03*
G04 #@! TO.N,189*
X244703750Y163190200D03*
G04 #@! TO.N,188*
X245503750Y162390200D03*
G04 #@! TO.N,187*
X246303750Y163190200D03*
G04 #@! TO.N,186*
X247103750Y162390200D03*
G04 #@! TO.N,185*
X247903750Y163190200D03*
G04 #@! TO.N,184*
X248703750Y162390200D03*
G04 #@! TO.N,183*
X249503750Y163190200D03*
G04 #@! TO.N,182*
X250303750Y162390200D03*
G04 #@! TO.N,181*
X251103750Y163190200D03*
G04 #@! TO.N,179*
X251903750Y162390200D03*
G04 #@! TO.N,180*
X252703750Y163190200D03*
G04 #@! TO.N,467*
X252698650Y65390100D03*
G04 #@! TO.N,468*
X251898650Y66190100D03*
G04 #@! TO.N,469*
X251098650Y65390100D03*
G04 #@! TO.N,470*
X250298650Y66190100D03*
G04 #@! TO.N,471*
X249498650Y65390100D03*
G04 #@! TO.N,472*
X248698650Y66190100D03*
G04 #@! TO.N,473*
X247898650Y65390100D03*
G04 #@! TO.N,474*
X247098650Y66190100D03*
G04 #@! TO.N,475*
X246298650Y65390100D03*
G04 #@! TO.N,476*
X245498650Y66190100D03*
G04 #@! TO.N,477*
X244698650Y65390100D03*
G04 #@! TO.N,478*
X243898650Y66190100D03*
G04 #@! TO.N,479*
X243098650Y65390100D03*
G04 #@! TO.N,480*
X242298650Y66190100D03*
G04 #@! TO.N,481*
X241498650Y65390100D03*
G04 #@! TO.N,482*
X240698650Y66190100D03*
G04 #@! TO.N,483*
X239098650Y65390100D03*
G04 #@! TO.N,484*
X238298650Y66190100D03*
G04 #@! TO.N,485*
X237498650Y65390100D03*
G04 #@! TO.N,486*
X236698650Y66190100D03*
G04 #@! TO.N,487*
X235898650Y65390100D03*
G04 #@! TO.N,488*
X235098650Y66190100D03*
G04 #@! TO.N,489*
X234298650Y65390100D03*
G04 #@! TO.N,490*
X233498650Y66190100D03*
G04 #@! TO.N,491*
X232698650Y65390100D03*
G04 #@! TO.N,492*
X231898650Y66190100D03*
G04 #@! TO.N,493*
X231098650Y65390100D03*
G04 #@! TO.N,494*
X230298650Y66190100D03*
G04 #@! TO.N,495*
X229498650Y65390100D03*
G04 #@! TO.N,496*
X228698650Y66190100D03*
G04 #@! TO.N,497*
X227898650Y65390100D03*
G04 #@! TO.N,498*
X227098650Y66190100D03*
G04 #@! TO.N,465*
X252698650Y71290000D03*
G04 #@! TO.N,466*
X251898650Y72090000D03*
G04 #@! TO.N,464*
X251098650Y71290000D03*
G04 #@! TO.N,463*
X250298650Y72090000D03*
G04 #@! TO.N,462*
X249498650Y71290000D03*
G04 #@! TO.N,461*
X248698650Y72090000D03*
G04 #@! TO.N,460*
X247898650Y71290000D03*
G04 #@! TO.N,459*
X247098650Y72090000D03*
G04 #@! TO.N,458*
X246298650Y71290000D03*
G04 #@! TO.N,457*
X245498650Y72090000D03*
G04 #@! TO.N,456*
X244698650Y71290000D03*
G04 #@! TO.N,455*
X243898650Y72090000D03*
G04 #@! TO.N,454*
X243098650Y71290000D03*
G04 #@! TO.N,453*
X242298650Y72090000D03*
G04 #@! TO.N,452*
X241498650Y71290000D03*
G04 #@! TO.N,451*
X240698650Y72090000D03*
G04 #@! TO.N,450*
X239098650Y71290000D03*
G04 #@! TO.N,449*
X238298650Y72090000D03*
G04 #@! TO.N,448*
X237498650Y71290000D03*
G04 #@! TO.N,447*
X236698650Y72090000D03*
G04 #@! TO.N,446*
X235898650Y71290000D03*
G04 #@! TO.N,445*
X235098650Y72090000D03*
G04 #@! TO.N,444*
X234298650Y71290000D03*
G04 #@! TO.N,443*
X233498650Y72090000D03*
G04 #@! TO.N,442*
X232698650Y71290000D03*
G04 #@! TO.N,441*
X231898650Y72090000D03*
G04 #@! TO.N,440*
X231098650Y71290000D03*
G04 #@! TO.N,439*
X230298650Y72090000D03*
G04 #@! TO.N,435*
X229498650Y71290000D03*
G04 #@! TO.N,438*
X228698650Y72090000D03*
G04 #@! TO.N,436*
X227898650Y71290000D03*
G04 #@! TO.N,437*
X227098650Y72090000D03*
G04 #@! TO.N,467*
X252698650Y127390100D03*
G04 #@! TO.N,468*
X251898650Y128190100D03*
G04 #@! TO.N,469*
X251098650Y127390100D03*
G04 #@! TO.N,470*
X250298650Y128190100D03*
G04 #@! TO.N,471*
X249498650Y127390100D03*
G04 #@! TO.N,472*
X248698650Y128190100D03*
G04 #@! TO.N,473*
X247898650Y127390100D03*
G04 #@! TO.N,474*
X247098650Y128190100D03*
G04 #@! TO.N,475*
X246298650Y127390100D03*
G04 #@! TO.N,476*
X245498650Y128190100D03*
G04 #@! TO.N,477*
X244698650Y127390100D03*
G04 #@! TO.N,478*
X243898650Y128190100D03*
G04 #@! TO.N,479*
X243098650Y127390100D03*
G04 #@! TO.N,480*
X242298650Y128190100D03*
G04 #@! TO.N,481*
X241498650Y127390100D03*
G04 #@! TO.N,482*
X240698650Y128190100D03*
G04 #@! TO.N,483*
X239098650Y127390100D03*
G04 #@! TO.N,484*
X238298650Y128190100D03*
G04 #@! TO.N,485*
X237498650Y127390100D03*
G04 #@! TO.N,486*
X236698650Y128190100D03*
G04 #@! TO.N,487*
X235898650Y127390100D03*
G04 #@! TO.N,488*
X235098650Y128190100D03*
G04 #@! TO.N,489*
X234298650Y127390100D03*
G04 #@! TO.N,490*
X233498650Y128190100D03*
G04 #@! TO.N,491*
X232698650Y127390100D03*
G04 #@! TO.N,492*
X231898650Y128190100D03*
G04 #@! TO.N,493*
X231098650Y127390100D03*
G04 #@! TO.N,494*
X230298650Y128190100D03*
G04 #@! TO.N,495*
X229498650Y127390100D03*
G04 #@! TO.N,496*
X228698650Y128190100D03*
G04 #@! TO.N,497*
X227898650Y127390100D03*
G04 #@! TO.N,498*
X227098650Y128190100D03*
G04 #@! TO.N,465*
X252698650Y141290100D03*
G04 #@! TO.N,466*
X251898650Y140490100D03*
G04 #@! TO.N,464*
X251098650Y141290100D03*
G04 #@! TO.N,463*
X250298650Y140490100D03*
G04 #@! TO.N,462*
X249498650Y141290100D03*
G04 #@! TO.N,461*
X248698650Y140490100D03*
G04 #@! TO.N,460*
X247898650Y141290100D03*
G04 #@! TO.N,459*
X247098650Y140490100D03*
G04 #@! TO.N,458*
X246298650Y141290100D03*
G04 #@! TO.N,457*
X245498650Y140490100D03*
G04 #@! TO.N,456*
X244698650Y141290100D03*
G04 #@! TO.N,455*
X243898650Y140490100D03*
G04 #@! TO.N,454*
X243098650Y141290100D03*
G04 #@! TO.N,453*
X242298650Y140490100D03*
G04 #@! TO.N,452*
X241498650Y141290100D03*
G04 #@! TO.N,451*
X240698650Y140490100D03*
G04 #@! TO.N,450*
X239098650Y141290100D03*
G04 #@! TO.N,449*
X238298650Y140490100D03*
G04 #@! TO.N,448*
X237498650Y141290100D03*
G04 #@! TO.N,447*
X236698650Y140490100D03*
G04 #@! TO.N,446*
X235898650Y141290100D03*
G04 #@! TO.N,445*
X235098650Y140490100D03*
G04 #@! TO.N,444*
X234298650Y141290100D03*
G04 #@! TO.N,443*
X233498650Y140490100D03*
G04 #@! TO.N,442*
X232698650Y141290100D03*
G04 #@! TO.N,441*
X231898650Y140490100D03*
G04 #@! TO.N,440*
X231098650Y141290100D03*
G04 #@! TO.N,439*
X230298650Y140490100D03*
G04 #@! TO.N,435*
X229498650Y141290100D03*
G04 #@! TO.N,438*
X228698650Y140490100D03*
G04 #@! TO.N,436*
X227898650Y141290100D03*
G04 #@! TO.N,437*
X227098650Y140490100D03*
G04 #@! TO.N,467*
D12*
X252698650Y36290100D02*
Y33090100D01*
G04 #@! TO.N,468*
X251898650Y35490100D02*
Y33090100D01*
G04 #@! TO.N,469*
X251098650Y36290100D02*
Y33090100D01*
G04 #@! TO.N,470*
X250298650Y35490100D02*
Y33090100D01*
G04 #@! TO.N,471*
X249498650Y36290100D02*
Y33090100D01*
G04 #@! TO.N,472*
X248698650Y35490100D02*
Y33090100D01*
G04 #@! TO.N,473*
X247898650Y36290100D02*
Y33090100D01*
G04 #@! TO.N,474*
X247098650Y35490100D02*
Y33090100D01*
G04 #@! TO.N,475*
X246298650Y36290100D02*
Y33090100D01*
G04 #@! TO.N,476*
X245498650Y35490100D02*
Y33090100D01*
G04 #@! TO.N,477*
X244698650Y36290100D02*
Y33090100D01*
G04 #@! TO.N,478*
X243898650Y35490100D02*
Y33090100D01*
G04 #@! TO.N,479*
X243098650Y36290100D02*
Y33090100D01*
G04 #@! TO.N,480*
X242298650Y35490100D02*
Y33090100D01*
G04 #@! TO.N,481*
X241498650Y36290100D02*
Y33090100D01*
G04 #@! TO.N,482*
X240698650Y35490100D02*
Y33090100D01*
G04 #@! TO.N,483*
X239098650Y36290100D02*
Y33090100D01*
G04 #@! TO.N,484*
X238298650Y35490100D02*
Y33090100D01*
G04 #@! TO.N,485*
X237498650Y36290100D02*
Y33090100D01*
G04 #@! TO.N,486*
X236698650Y35490100D02*
Y33090100D01*
G04 #@! TO.N,487*
X235898650Y36290100D02*
Y33090100D01*
G04 #@! TO.N,488*
X235098650Y35490100D02*
Y33090100D01*
G04 #@! TO.N,489*
X234298650Y36290100D02*
Y33090100D01*
G04 #@! TO.N,490*
X233498650Y35490100D02*
Y33090100D01*
G04 #@! TO.N,491*
X232698650Y36290100D02*
Y33090100D01*
G04 #@! TO.N,492*
X231898650Y35490100D02*
Y33090100D01*
G04 #@! TO.N,493*
X231098650Y36290100D02*
Y33090100D01*
G04 #@! TO.N,494*
X230298650Y35490100D02*
Y33090100D01*
G04 #@! TO.N,495*
X229498650Y36290100D02*
Y33090100D01*
G04 #@! TO.N,496*
X228698650Y35490100D02*
Y33090100D01*
G04 #@! TO.N,497*
X227898650Y36290100D02*
Y33090100D01*
G04 #@! TO.N,498*
X227098650Y35490100D02*
Y33090100D01*
G04 #@! TO.N,465*
X252698650Y44290100D02*
Y41090100D01*
G04 #@! TO.N,466*
X251898650Y43490100D02*
Y41090100D01*
G04 #@! TO.N,464*
X251098650Y44290100D02*
Y41090100D01*
G04 #@! TO.N,463*
X250298650Y43490100D02*
Y41090100D01*
G04 #@! TO.N,462*
X249498650Y44290100D02*
Y41090100D01*
G04 #@! TO.N,461*
X248698650Y43490100D02*
Y41090100D01*
G04 #@! TO.N,460*
X247898650Y44290100D02*
Y41090100D01*
G04 #@! TO.N,459*
X247098650Y43490100D02*
Y41090100D01*
G04 #@! TO.N,458*
X246298650Y44290100D02*
Y41090100D01*
G04 #@! TO.N,457*
X245498650Y43490100D02*
Y41090100D01*
G04 #@! TO.N,456*
X244698650Y44290100D02*
Y41090100D01*
G04 #@! TO.N,455*
X243898650Y43490100D02*
Y41090100D01*
G04 #@! TO.N,454*
X243098650Y44290100D02*
Y41090100D01*
G04 #@! TO.N,453*
X242298650Y43490100D02*
Y41090100D01*
G04 #@! TO.N,452*
X241498650Y44290100D02*
Y41090100D01*
G04 #@! TO.N,451*
X240698650Y43490100D02*
Y41090100D01*
G04 #@! TO.N,450*
X239098650Y44290100D02*
Y41090100D01*
G04 #@! TO.N,449*
X238298650Y43490100D02*
Y41090100D01*
G04 #@! TO.N,448*
X237498650Y44290100D02*
Y41090100D01*
G04 #@! TO.N,447*
X236698650Y43490100D02*
Y41090100D01*
G04 #@! TO.N,446*
X235898650Y44290100D02*
Y41090100D01*
G04 #@! TO.N,445*
X235098650Y43490100D02*
Y41090100D01*
G04 #@! TO.N,444*
X234298650Y44290100D02*
Y41090100D01*
G04 #@! TO.N,443*
X233498650Y43490100D02*
Y41090100D01*
G04 #@! TO.N,442*
X232698650Y44290100D02*
Y41090100D01*
G04 #@! TO.N,441*
X231898650Y43490100D02*
Y41090100D01*
G04 #@! TO.N,440*
X231098650Y44290100D02*
Y41090100D01*
G04 #@! TO.N,439*
X230298650Y43490100D02*
Y41090100D01*
G04 #@! TO.N,435*
X229498650Y44290100D02*
Y41090100D01*
G04 #@! TO.N,438*
X228698650Y43490100D02*
Y41090100D01*
G04 #@! TO.N,436*
X227898650Y44290100D02*
Y41090100D01*
G04 #@! TO.N,437*
X227098650Y43490100D02*
Y41090100D01*
G04 #@! TO.N,467*
X252587435Y36146050D02*
X252698650Y35802600D01*
X252809865Y36146050D01*
G04 #@! TO.N,468*
X251676220Y35346050D02*
X251898650Y35002600D01*
X251787435Y35346050D01*
G04 #@! TO.N,471*
X249609865Y36146050D02*
X249498650Y35802600D01*
X249387435Y36146050D01*
G04 #@! TO.N,472*
X248476220Y35346050D02*
X248698650Y35002600D01*
X248921080Y35346050D01*
G04 #@! TO.N,473*
X248009865Y36146050D02*
X247898650Y35802600D01*
X247787435Y36146050D01*
X247676220Y36146050D02*
X247898650Y35802600D01*
X248121080Y36146050D01*
G04 #@! TO.N,474*
X246987435Y35346050D02*
X247098650Y35002600D01*
X247321080Y35346050D01*
G04 #@! TO.N,475*
X246409865Y36146050D02*
X246298650Y35802600D01*
X246076220Y36146050D01*
X246187435Y36146050D02*
X246298650Y35802600D01*
X246521080Y36146050D01*
G04 #@! TO.N,476*
X245276220Y35346050D02*
X245498650Y35002600D01*
X245609865Y35346050D01*
X245387435Y35346050D02*
X245498650Y35002600D01*
X245721080Y35346050D01*
G04 #@! TO.N,477*
X244809865Y36146050D02*
X244698650Y35802600D01*
X244476220Y36146050D01*
X244587435Y36146050D02*
X244698650Y35802600D01*
X244921080Y36146050D01*
G04 #@! TO.N,478*
X244009865Y35346050D02*
X243898650Y35002600D01*
X243676220Y35346050D01*
X243787435Y35346050D02*
X243898650Y35002600D01*
X244121080Y35346050D01*
G04 #@! TO.N,480*
X242409865Y35346050D02*
X242298650Y35002600D01*
X242187435Y35346050D01*
G04 #@! TO.N,481*
X241609865Y36146050D02*
X241498650Y35802600D01*
X241276220Y36146050D01*
G04 #@! TO.N,482*
X240809865Y35346050D02*
X240698650Y35002600D01*
X240587435Y35346050D01*
G04 #@! TO.N,483*
X239209865Y36146050D02*
X239098650Y35802600D01*
X238876220Y36146050D01*
G04 #@! TO.N,484*
X238076220Y35346050D02*
X238298650Y35002600D01*
X238187435Y35346050D01*
X238409865Y35346050D02*
X238298650Y35002600D01*
X238521080Y35346050D01*
G04 #@! TO.N,485*
X237276220Y36146050D02*
X237498650Y35802600D01*
X237387435Y36146050D01*
G04 #@! TO.N,486*
X236809865Y35346050D02*
X236698650Y35002600D01*
X236476220Y35346050D01*
X236587435Y35346050D02*
X236698650Y35002600D01*
X236921080Y35346050D01*
G04 #@! TO.N,487*
X235676220Y36146050D02*
X235898650Y35802600D01*
X236009865Y36146050D01*
X235787435Y36146050D02*
X235898650Y35802600D01*
X236121080Y36146050D01*
G04 #@! TO.N,488*
X235209865Y35346050D02*
X235098650Y35002600D01*
X234876220Y35346050D01*
X234987435Y35346050D02*
X235098650Y35002600D01*
X235321080Y35346050D01*
G04 #@! TO.N,489*
X234187435Y36146050D02*
X234298650Y35802600D01*
X234076220Y36146050D01*
X234409865Y36146050D02*
X234298650Y35802600D01*
X234521080Y36146050D01*
G04 #@! TO.N,490*
X233276220Y35346050D02*
X233498650Y35002600D01*
X233721080Y35346050D01*
G04 #@! TO.N,491*
X232809865Y36146050D02*
X232698650Y35802600D01*
X232476220Y36146050D01*
G04 #@! TO.N,493*
X230876220Y36146050D02*
X231098650Y35802600D01*
X231321080Y36146050D01*
G04 #@! TO.N,494*
X230409865Y35346050D02*
X230298650Y35002600D01*
X230521080Y35346050D01*
G04 #@! TO.N,495*
X229276220Y36146050D02*
X229498650Y35802600D01*
X229609865Y36146050D01*
X229387435Y36146050D02*
X229498650Y35802600D01*
X229721080Y36146050D01*
G04 #@! TO.N,496*
X228587435Y35346050D02*
X228698650Y35002600D01*
X228476220Y35346050D01*
X228809865Y35346050D02*
X228698650Y35002600D01*
X228921080Y35346050D01*
G04 #@! TO.N,497*
X227676220Y36146050D02*
X227898650Y35802600D01*
X228121080Y36146050D01*
G04 #@! TO.N,498*
X226987435Y35346050D02*
X227098650Y35002600D01*
X227209865Y35346050D01*
G04 #@! TO.N,465*
X252476220Y44146050D02*
X252698650Y43802600D01*
X252921080Y44146050D01*
G04 #@! TO.N,466*
X252009865Y43346050D02*
X251898650Y43002600D01*
X251676220Y43346050D01*
X251787435Y43346050D02*
X251898650Y43002600D01*
X252121080Y43346050D01*
G04 #@! TO.N,463*
X250409865Y43346050D02*
X250298650Y43002600D01*
X250076220Y43346050D01*
X250187435Y43346050D02*
X250298650Y43002600D01*
X250521080Y43346050D01*
G04 #@! TO.N,461*
X248809865Y43346050D02*
X248698650Y43002600D01*
X248476220Y43346050D01*
G04 #@! TO.N,460*
X247676220Y44146050D02*
X247898650Y43802600D01*
X247787435Y44146050D01*
G04 #@! TO.N,459*
X246876220Y43346050D02*
X247098650Y43002600D01*
X246987435Y43346050D01*
X247209865Y43346050D02*
X247098650Y43002600D01*
X247321080Y43346050D01*
G04 #@! TO.N,458*
X246409865Y44146050D02*
X246298650Y43802600D01*
X246187435Y44146050D01*
G04 #@! TO.N,457*
X245276220Y43346050D02*
X245498650Y43002600D01*
X245609865Y43346050D01*
G04 #@! TO.N,455*
X244009865Y43346050D02*
X243898650Y43002600D01*
X244121080Y43346050D01*
G04 #@! TO.N,454*
X242987435Y44146050D02*
X243098650Y43802600D01*
X243321080Y44146050D01*
G04 #@! TO.N,453*
X242187435Y43346050D02*
X242298650Y43002600D01*
X242409865Y43346050D01*
X242076220Y43346050D02*
X242298650Y43002600D01*
X242521080Y43346050D01*
G04 #@! TO.N,452*
X241387435Y44146050D02*
X241498650Y43802600D01*
X241721080Y44146050D01*
G04 #@! TO.N,450*
X239209865Y44146050D02*
X239098650Y43802600D01*
X239321080Y44146050D01*
G04 #@! TO.N,449*
X238076220Y43346050D02*
X238298650Y43002600D01*
X238521080Y43346050D01*
G04 #@! TO.N,448*
X237609865Y44146050D02*
X237498650Y43802600D01*
X237276220Y44146050D01*
X237387435Y44146050D02*
X237498650Y43802600D01*
X237721080Y44146050D01*
G04 #@! TO.N,447*
X236476220Y43346050D02*
X236698650Y43002600D01*
X236921080Y43346050D01*
G04 #@! TO.N,446*
X236009865Y44146050D02*
X235898650Y43802600D01*
X235787435Y44146050D01*
G04 #@! TO.N,445*
X234987435Y43346050D02*
X235098650Y43002600D01*
X234876220Y43346050D01*
G04 #@! TO.N,444*
X234076220Y44146050D02*
X234298650Y43802600D01*
X234187435Y44146050D01*
G04 #@! TO.N,443*
X233276220Y43346050D02*
X233498650Y43002600D01*
X233721080Y43346050D01*
G04 #@! TO.N,442*
X232587435Y44146050D02*
X232698650Y43802600D01*
X232921080Y44146050D01*
G04 #@! TO.N,441*
X231787435Y43346050D02*
X231898650Y43002600D01*
X232121080Y43346050D01*
G04 #@! TO.N,438*
X228587435Y43346050D02*
X228698650Y43002600D01*
X228476220Y43346050D01*
X228809865Y43346050D02*
X228698650Y43002600D01*
X228921080Y43346050D01*
G04 #@! TO.N,436*
X227787435Y44146050D02*
X227898650Y43802600D01*
X228121080Y44146050D01*
G04 #@! TO.N,437*
X227209865Y43346050D02*
X227098650Y43002600D01*
X226987435Y43346050D01*
X226876220Y43346050D02*
X227098650Y43002600D01*
X227321080Y43346050D01*
G04 #@! TO.N,467*
X252770190Y36161895D02*
X252698650Y35802600D01*
X252476220Y36146050D01*
X252921080Y36146050D02*
X252698650Y35802600D01*
X252627105Y36161895D01*
X252913275Y36161895D02*
X252698650Y35802600D01*
X252484025Y36161895D01*
G04 #@! TO.N,468*
X251898650Y35002600D02*
X252121080Y35346050D01*
X251684025Y35361895D02*
X251898650Y35002605D01*
X251970190Y35361895D02*
X251898650Y35002600D01*
X251827105Y35361895D02*
X251898650Y35002605D01*
X252113275Y35361895D02*
X251898650Y35002600D01*
X252009865Y35346050D01*
G04 #@! TO.N,469*
X250884025Y36161895D02*
X251098650Y35802600D01*
X250876220Y36146050D01*
X250987435Y36146050D02*
X251098650Y35802600D01*
X251027105Y36161895D01*
X251170190Y36161895D02*
X251098650Y35802600D01*
X251209865Y36146050D01*
X251321080Y36146050D02*
X251098650Y35802600D01*
X251313275Y36161895D01*
G04 #@! TO.N,470*
X250521080Y35346050D02*
X250298650Y35002600D01*
X250409865Y35346050D01*
X250187435Y35346050D02*
X250298650Y35002600D01*
X250084025Y35361895D02*
X250298645Y35002605D01*
X250513270Y35361890D02*
X250298645Y35002605D01*
X250227105Y35361895D02*
X250298650Y35002605D01*
X250370190Y35361895D02*
X250298650Y35002600D01*
X250076220Y35346050D01*
G04 #@! TO.N,471*
X249570190Y36161895D02*
X249498650Y35802600D01*
X249721080Y36146050D01*
X249284025Y36161895D02*
X249498650Y35802600D01*
X249427105Y36161895D01*
X249276220Y36146050D02*
X249498650Y35802600D01*
X249713275Y36161895D01*
G04 #@! TO.N,472*
X248587435Y35346050D02*
X248698650Y35002600D01*
X248809865Y35346050D01*
X248770185Y35361895D02*
X248698645Y35002605D01*
X248913270Y35361890D01*
G04 #@! TO.N,473*
X247970190Y36161895D02*
X247898650Y35802600D01*
X247684025Y36161895D01*
X247827105Y36161895D02*
X247898650Y35802600D01*
X248113275Y36161895D01*
G04 #@! TO.N,474*
X247027105Y35361895D02*
X247098650Y35002605D01*
X247098650Y35002600D02*
X246876220Y35346050D01*
X247209865Y35346050D02*
X247098650Y35002600D01*
X247170190Y35361895D02*
X247098650Y35002605D01*
X246884025Y35361895D02*
X247098645Y35002605D01*
X247313270Y35361890D01*
G04 #@! TO.N,475*
X246227105Y36161895D02*
X246298650Y35802600D01*
X246370190Y36161895D01*
X246513275Y36161895D02*
X246298650Y35802600D01*
X246084025Y36161895D01*
G04 #@! TO.N,476*
X245427105Y35361895D02*
X245498650Y35002600D01*
X245284025Y35361895D01*
X245570190Y35361895D02*
X245498650Y35002600D01*
X245713275Y35361895D02*
X245498650Y35002605D01*
G04 #@! TO.N,477*
X244770190Y36161895D02*
X244698650Y35802600D01*
X244627105Y36161895D01*
X244913275Y36161895D02*
X244698650Y35802600D01*
X244484025Y36161895D01*
G04 #@! TO.N,478*
X243684025Y35361895D02*
X243898650Y35002600D01*
X244113275Y35361895D01*
X243827105Y35361895D02*
X243898650Y35002600D01*
X243970190Y35361895D02*
X243898650Y35002605D01*
G04 #@! TO.N,479*
X242884025Y36161895D02*
X243098650Y35802600D01*
X243321080Y36146050D01*
X243209865Y36146050D02*
X243098650Y35802600D01*
X243027105Y36161895D01*
X243170190Y36161895D02*
X243098650Y35802600D01*
X242987435Y36146050D01*
X242876220Y36146050D02*
X243098650Y35802600D01*
X243313275Y36161895D01*
G04 #@! TO.N,480*
X242298650Y35002600D02*
X242076220Y35346050D01*
X242521080Y35346050D02*
X242298650Y35002600D01*
X242370190Y35361895D02*
X242298650Y35002605D01*
X242513275Y35361895D01*
X242227105Y35361895D02*
X242298645Y35002605D01*
X242084025Y35361895D01*
G04 #@! TO.N,481*
X241570190Y36161895D02*
X241498650Y35802600D01*
X241284025Y36161895D01*
X241713275Y36161895D02*
X241498650Y35802600D01*
X241387435Y36146050D01*
X241721080Y36146050D02*
X241498650Y35802600D01*
X241427105Y36161895D01*
G04 #@! TO.N,482*
X240698650Y35002600D02*
X240921080Y35346050D01*
X240698650Y35002600D02*
X240484025Y35361895D01*
X240913270Y35361890D02*
X240698645Y35002605D01*
X240627105Y35361895D02*
X240698650Y35002605D01*
X240770190Y35361895D02*
X240698650Y35002600D01*
X240476220Y35346050D01*
G04 #@! TO.N,483*
X238884025Y36161895D02*
X239098650Y35802600D01*
X239321080Y36146050D01*
X239170190Y36161895D02*
X239098650Y35802600D01*
X239313275Y36161895D01*
X238987435Y36146050D02*
X239098650Y35802600D01*
X239027105Y36161895D01*
G04 #@! TO.N,484*
X238370190Y35361895D02*
X238298650Y35002605D01*
X238513275Y35361895D02*
X238298650Y35002600D01*
X238084025Y35361895D02*
X238298645Y35002605D01*
X238227105Y35361895D01*
G04 #@! TO.N,485*
X237570190Y36161895D02*
X237498650Y35802600D01*
X237609865Y36146050D01*
X237284025Y36161895D02*
X237498650Y35802600D01*
X237427105Y36161895D01*
X237721080Y36146050D02*
X237498650Y35802600D01*
X237713275Y36161895D01*
G04 #@! TO.N,487*
X235684025Y36161895D02*
X235898650Y35802600D01*
X235827105Y36161895D01*
X235970190Y36161895D02*
X235898650Y35802600D01*
X236113275Y36161895D01*
G04 #@! TO.N,489*
X234370190Y36161895D02*
X234298650Y35802600D01*
X234227105Y36161895D01*
X234084025Y36161895D02*
X234298650Y35802600D01*
X234513275Y36161895D01*
G04 #@! TO.N,490*
X233498650Y35002600D02*
X233387435Y35346050D01*
X233609865Y35346050D02*
X233498650Y35002600D01*
G04 #@! TO.N,491*
X232921080Y36146050D02*
X232698650Y35802600D01*
X232913275Y36161895D01*
X232770190Y36161895D02*
X232698650Y35802600D01*
X232587435Y36146050D01*
X232484025Y36161895D02*
X232698650Y35802600D01*
X232627105Y36161895D01*
G04 #@! TO.N,492*
X232121080Y35346050D02*
X231898650Y35002600D01*
X231684025Y35361895D02*
X231898650Y35002605D01*
X232113275Y35361895D02*
X231898650Y35002600D01*
X231787435Y35346050D01*
X232009865Y35346050D02*
X231898650Y35002600D01*
X231827105Y35361895D02*
X231898650Y35002605D01*
X231970190Y35361895D02*
X231898650Y35002600D01*
X231676220Y35346050D01*
G04 #@! TO.N,493*
X231170190Y36161895D02*
X231098650Y35802600D01*
X231209865Y36146050D01*
X230987435Y36146050D02*
X231098650Y35802600D01*
X230884025Y36161895D01*
X231027105Y36161895D02*
X231098650Y35802600D01*
X231313275Y36161895D01*
G04 #@! TO.N,494*
X230076220Y35346050D02*
X230298650Y35002600D01*
X230084025Y35361895D02*
X230298650Y35002605D01*
X230513275Y35361895D02*
X230298650Y35002600D01*
X230227105Y35361895D02*
X230298650Y35002605D01*
X230370190Y35361895D02*
X230298650Y35002600D01*
X230187435Y35346050D01*
G04 #@! TO.N,495*
X229427105Y36161895D02*
X229498650Y35802600D01*
X229713275Y36161895D01*
X229570190Y36161895D02*
X229498650Y35802600D01*
X229284025Y36161895D01*
G04 #@! TO.N,497*
X227787435Y36146050D02*
X227898650Y35802600D01*
X227970190Y36161895D01*
X228113275Y36161895D02*
X227898650Y35802600D01*
X227684025Y36161895D01*
X228009865Y36146050D02*
X227898650Y35802600D01*
X227827105Y36161895D01*
G04 #@! TO.N,498*
X226876220Y35346050D02*
X227098650Y35002600D01*
X226884025Y35361895D02*
X227098650Y35002605D01*
X227321080Y35346050D02*
X227098650Y35002600D01*
X227027105Y35361895D02*
X227098645Y35002605D01*
X227313275Y35361895D02*
X227098650Y35002600D01*
X227170190Y35361895D01*
G04 #@! TO.N,465*
X252484025Y44161895D02*
X252698650Y43802600D01*
X252770190Y44161895D01*
X252913275Y44161895D02*
X252698650Y43802600D01*
X252809865Y44146050D01*
X252587435Y44146050D02*
X252698650Y43802600D01*
X252627105Y44161895D01*
G04 #@! TO.N,466*
X252113275Y43361895D02*
X251898650Y43002600D01*
X251684025Y43361895D01*
X251970190Y43361895D02*
X251898650Y43002600D01*
X251827105Y43361895D01*
G04 #@! TO.N,464*
X251170190Y44161895D02*
X251098650Y43802600D01*
X251321080Y44146050D01*
X250876220Y44146050D02*
X251098650Y43802600D01*
X251313275Y44161895D01*
X251027105Y44161895D02*
X251098650Y43802600D01*
X250987435Y44146050D01*
X251209865Y44146050D02*
X251098650Y43802600D01*
X250884025Y44161895D01*
G04 #@! TO.N,463*
X250227105Y43361895D02*
X250298650Y43002600D01*
X250370190Y43361895D01*
X250084025Y43361895D02*
X250298650Y43002600D01*
X250513275Y43361895D01*
G04 #@! TO.N,462*
X249570190Y44161895D02*
X249498650Y43802600D01*
X249609865Y44146050D01*
X249721080Y44146050D02*
X249498650Y43802600D01*
X249427105Y44161895D01*
X249284025Y44161895D02*
X249498650Y43802600D01*
X249276220Y44146050D01*
X249387435Y44146050D02*
X249498650Y43802600D01*
X249713275Y44161895D01*
G04 #@! TO.N,461*
X248770190Y43361895D02*
X248698650Y43002600D01*
X248921080Y43346050D01*
X248627105Y43361895D02*
X248698650Y43002600D01*
X248484025Y43361895D01*
X248587435Y43346050D02*
X248698650Y43002600D01*
X248913275Y43361895D01*
G04 #@! TO.N,460*
X247970190Y44161895D02*
X247898650Y43802600D01*
X248009865Y44146050D01*
X247684025Y44161895D02*
X247898650Y43802600D01*
X248121080Y44146050D01*
X247827105Y44161895D02*
X247898650Y43802600D01*
X248113275Y44161895D01*
G04 #@! TO.N,459*
X246884025Y43361895D02*
X247098650Y43002600D01*
X247027105Y43361895D01*
X247313275Y43361895D02*
X247098650Y43002600D01*
X247170190Y43361895D01*
G04 #@! TO.N,458*
X246370190Y44161895D02*
X246298650Y43802600D01*
X246227105Y44161895D01*
X246084025Y44161895D02*
X246298650Y43802600D01*
X246076220Y44146050D01*
X246521080Y44146050D02*
X246298650Y43802600D01*
X246513275Y44161895D01*
G04 #@! TO.N,457*
X245284025Y43361895D02*
X245498650Y43002600D01*
X245427105Y43361895D01*
X245570190Y43361895D02*
X245498650Y43002600D01*
X245387435Y43346050D01*
X245721080Y43346050D02*
X245498650Y43002600D01*
X245713275Y43361895D01*
G04 #@! TO.N,456*
X244484025Y44161895D02*
X244698650Y43802600D01*
X244587435Y44146050D01*
X244921080Y44146050D02*
X244698650Y43802600D01*
X244770190Y44161895D01*
X244913275Y44161895D02*
X244698650Y43802600D01*
X244476220Y44146050D01*
X244809865Y44146050D02*
X244698650Y43802600D01*
X244627105Y44161895D01*
G04 #@! TO.N,455*
X243684025Y43361895D02*
X243898650Y43002600D01*
X243676220Y43346050D01*
X243787435Y43346050D02*
X243898650Y43002600D01*
X244113275Y43361895D01*
X243970190Y43361895D02*
X243898650Y43002600D01*
X243827105Y43361895D01*
G04 #@! TO.N,454*
X242876220Y44146050D02*
X243098650Y43802600D01*
X243027105Y44161895D01*
X243313275Y44161895D02*
X243098650Y43802600D01*
X243209865Y44146050D01*
X243170190Y44161895D02*
X243098650Y43802600D01*
X242884025Y44161895D01*
G04 #@! TO.N,453*
X242227105Y43361895D02*
X242298650Y43002600D01*
X242513275Y43361895D01*
X242370190Y43361895D02*
X242298650Y43002600D01*
X242084025Y43361895D01*
G04 #@! TO.N,452*
X241284025Y44161895D02*
X241498650Y43802600D01*
X241570190Y44161895D01*
X241427105Y44161895D02*
X241498650Y43802600D01*
X241609865Y44146050D01*
X241276220Y44146050D02*
X241498650Y43802600D01*
X241713275Y44161895D01*
G04 #@! TO.N,451*
X240484025Y43361895D02*
X240698650Y43002600D01*
X240476220Y43346050D01*
X240809865Y43346050D02*
X240698650Y43002600D01*
X240770190Y43361895D01*
X240913275Y43361895D02*
X240698650Y43002600D01*
X240587435Y43346050D01*
X240921080Y43346050D02*
X240698650Y43002600D01*
X240627105Y43361895D01*
G04 #@! TO.N,450*
X239170190Y44161895D02*
X239098650Y43802600D01*
X238987435Y44146050D01*
X238876220Y44146050D02*
X239098650Y43802600D01*
X239313275Y44161895D01*
X238884025Y44161895D02*
X239098650Y43802600D01*
X239027105Y44161895D01*
G04 #@! TO.N,449*
X238084025Y43361895D02*
X238298650Y43002600D01*
X238513275Y43361895D01*
X238227105Y43361895D02*
X238298650Y43002600D01*
X238409865Y43346050D01*
X238187435Y43346050D02*
X238298650Y43002600D01*
X238370190Y43361895D01*
G04 #@! TO.N,448*
X237284025Y44161895D02*
X237498650Y43802600D01*
X237713275Y44161895D01*
X237570190Y44161895D02*
X237498650Y43802600D01*
X237427105Y44161895D01*
G04 #@! TO.N,447*
X236913275Y43361895D02*
X236698650Y43002600D01*
X236809865Y43346050D01*
X236770190Y43361895D02*
X236698650Y43002600D01*
X236627105Y43361895D01*
X236587435Y43346050D02*
X236698650Y43002600D01*
X236484025Y43361895D01*
G04 #@! TO.N,446*
X235827105Y44161895D02*
X235898650Y43802600D01*
X236121080Y44146050D01*
X235676220Y44146050D02*
X235898650Y43802600D01*
X236113275Y44161895D01*
X235970190Y44161895D02*
X235898650Y43802600D01*
X235684025Y44161895D01*
G04 #@! TO.N,445*
X235321080Y43346050D02*
X235098650Y43002600D01*
X234884025Y43361895D01*
X235027105Y43361895D02*
X235098650Y43002600D01*
X235170190Y43361895D01*
X235209865Y43346050D02*
X235098650Y43002600D01*
X235313275Y43361895D01*
G04 #@! TO.N,444*
X234084025Y44161895D02*
X234298650Y43802600D01*
X234409865Y44146050D01*
X234370190Y44161895D02*
X234298650Y43802600D01*
X234513275Y44161895D01*
X234521080Y44146050D02*
X234298650Y43802600D01*
X234227105Y44161895D01*
G04 #@! TO.N,443*
X233609865Y43346050D02*
X233498650Y43002600D01*
X233427105Y43361895D01*
X233570190Y43361895D02*
X233498650Y43002600D01*
X233284025Y43361895D01*
X233387435Y43346050D02*
X233498650Y43002600D01*
X233713275Y43361895D01*
G04 #@! TO.N,442*
X232809865Y44146050D02*
X232698650Y43802600D01*
X232913275Y44161895D01*
X232484025Y44161895D02*
X232698650Y43802600D01*
X232476220Y44146050D01*
X232627105Y44161895D02*
X232698650Y43802600D01*
X232770190Y44161895D01*
G04 #@! TO.N,441*
X231684025Y43361895D02*
X231898650Y43002600D01*
X232113275Y43361895D01*
X231970190Y43361895D02*
X231898650Y43002600D01*
X231676220Y43346050D01*
X232009865Y43346050D02*
X231898650Y43002600D01*
X231827105Y43361895D01*
G04 #@! TO.N,440*
X230884025Y44161895D02*
X231098650Y43802600D01*
X231321080Y44146050D01*
X230876220Y44146050D02*
X231098650Y43802600D01*
X231313275Y44161895D01*
X231170190Y44161895D02*
X231098650Y43802600D01*
X231209865Y44146050D01*
X230987435Y44146050D02*
X231098650Y43802600D01*
X231027105Y44161895D01*
G04 #@! TO.N,439*
X230370190Y43361895D02*
X230298650Y43002600D01*
X230521080Y43346050D01*
X230409865Y43346050D02*
X230298650Y43002600D01*
X230227105Y43361895D01*
X230084025Y43361895D02*
X230298650Y43002600D01*
X230076220Y43346050D01*
X230187435Y43346050D02*
X230298650Y43002600D01*
X230513275Y43361895D01*
G04 #@! TO.N,435*
X229570190Y44161895D02*
X229498650Y43802600D01*
X229609865Y44146050D01*
X229276220Y44146050D02*
X229498650Y43802600D01*
X229713275Y44161895D01*
X229284025Y44161895D02*
X229498650Y43802600D01*
X229721080Y44146050D01*
X229387435Y44146050D02*
X229498650Y43802600D01*
X229427105Y44161895D01*
G04 #@! TO.N,438*
X228913275Y43361895D02*
X228698650Y43002600D01*
X228484025Y43361895D01*
X228627105Y43361895D02*
X228698650Y43002600D01*
X228770190Y43361895D01*
G04 #@! TO.N,436*
X227676220Y44146050D02*
X227898650Y43802600D01*
X227827105Y44161895D01*
X227970190Y44161895D02*
X227898650Y43802600D01*
X227684025Y44161895D01*
X228009865Y44146050D02*
X227898650Y43802600D01*
X228113275Y44161895D01*
G04 #@! TO.N,437*
X226884025Y43361895D02*
X227098650Y43002600D01*
X227170190Y43361895D01*
X227027105Y43361895D02*
X227098650Y43002600D01*
X227313275Y43361895D01*
G04 #@! TO.N,472*
X248484025Y35361895D02*
X248698645Y35002605D01*
X248627105Y35361895D02*
X248698650Y35002600D01*
G04 #@! TO.N,486*
X236627105Y35361895D02*
X236698650Y35002605D01*
X236484025Y35361895D01*
X236770190Y35361895D02*
X236698650Y35002605D01*
X236913275Y35361895D01*
G04 #@! TO.N,488*
X235170190Y35361895D02*
X235098650Y35002600D01*
X234884025Y35361895D01*
X235027105Y35361895D02*
X235098650Y35002605D01*
X235313275Y35361895D02*
X235098650Y35002600D01*
G04 #@! TO.N,490*
X233427105Y35361895D02*
X233498650Y35002605D01*
X233570190Y35361895D02*
X233498650Y35002600D01*
X233713275Y35361895D02*
X233498650Y35002605D01*
X233284025Y35361895D02*
X233498645Y35002605D01*
G04 #@! TO.N,496*
X228484025Y35361895D02*
X228698650Y35002600D01*
X228770190Y35361895D02*
X228698650Y35002605D01*
X228913275Y35361895D02*
X228698650Y35002600D01*
X228627105Y35361895D02*
X228698645Y35002605D01*
G04 #@! TO.N,211*
X227103750Y170390200D02*
Y173590200D01*
G04 #@! TO.N,212*
X227903750Y171190200D02*
Y173590200D01*
G04 #@! TO.N,213*
X228703750Y170390200D02*
Y173590200D01*
G04 #@! TO.N,214*
X229503750Y171190200D02*
Y173590200D01*
G04 #@! TO.N,215*
X230303750Y170390200D02*
Y173590200D01*
G04 #@! TO.N,216*
X231103750Y171190200D02*
Y173590200D01*
G04 #@! TO.N,217*
X231903750Y170390200D02*
Y173590200D01*
G04 #@! TO.N,218*
X232703750Y171190200D02*
Y173590200D01*
G04 #@! TO.N,219*
X233503750Y170390200D02*
Y173590200D01*
G04 #@! TO.N,220*
X234303750Y171190200D02*
Y173590200D01*
G04 #@! TO.N,221*
X235103750Y170390200D02*
Y173590200D01*
G04 #@! TO.N,222*
X235903750Y171190200D02*
Y173590200D01*
G04 #@! TO.N,223*
X236703750Y170390200D02*
Y173590200D01*
G04 #@! TO.N,224*
X237503750Y171190200D02*
Y173590200D01*
G04 #@! TO.N,225*
X238303750Y170390200D02*
Y173590200D01*
G04 #@! TO.N,226*
X239103750Y171190200D02*
Y173590200D01*
G04 #@! TO.N,227*
X240703750Y170390200D02*
Y173590200D01*
G04 #@! TO.N,228*
X241503750Y171190200D02*
Y173590200D01*
G04 #@! TO.N,229*
X242303750Y170390200D02*
Y173590200D01*
G04 #@! TO.N,230*
X243103750Y171190200D02*
Y173590200D01*
G04 #@! TO.N,231*
X243903750Y170390200D02*
Y173590200D01*
G04 #@! TO.N,232*
X244703750Y171190200D02*
Y173590200D01*
G04 #@! TO.N,233*
X245503750Y170390200D02*
Y173590200D01*
G04 #@! TO.N,234*
X246303750Y171190200D02*
Y173590200D01*
G04 #@! TO.N,235*
X247103750Y170390200D02*
Y173590200D01*
G04 #@! TO.N,236*
X247903750Y171190200D02*
Y173590200D01*
G04 #@! TO.N,237*
X248703750Y170390200D02*
Y173590200D01*
G04 #@! TO.N,238*
X249503750Y171190200D02*
Y173590200D01*
G04 #@! TO.N,239*
X250303750Y170390200D02*
Y173590200D01*
G04 #@! TO.N,240*
X251103750Y171190200D02*
Y173590200D01*
G04 #@! TO.N,241*
X251903750Y170390200D02*
Y173590200D01*
G04 #@! TO.N,242*
X252703750Y171190200D02*
Y173590200D01*
G04 #@! TO.N,209*
X227103750Y162390200D02*
Y165590200D01*
G04 #@! TO.N,210*
X227903750Y163190200D02*
Y165590200D01*
G04 #@! TO.N,208*
X228703750Y162390200D02*
Y165590200D01*
G04 #@! TO.N,207*
X229503750Y163190200D02*
Y165590200D01*
G04 #@! TO.N,206*
X230303750Y162390200D02*
Y165590200D01*
G04 #@! TO.N,205*
X231103750Y163190200D02*
Y165590200D01*
G04 #@! TO.N,204*
X231903750Y162390200D02*
Y165590200D01*
G04 #@! TO.N,203*
X232703750Y163190200D02*
Y165590200D01*
G04 #@! TO.N,202*
X233503750Y162390200D02*
Y165590200D01*
G04 #@! TO.N,201*
X234303750Y163190200D02*
Y165590200D01*
G04 #@! TO.N,200*
X235103750Y162390200D02*
Y165590200D01*
G04 #@! TO.N,199*
X235903750Y163190200D02*
Y165590200D01*
G04 #@! TO.N,198*
X236703750Y162390200D02*
Y165590200D01*
G04 #@! TO.N,197*
X237503750Y163190200D02*
Y165590200D01*
G04 #@! TO.N,196*
X238303750Y162390200D02*
Y165590200D01*
G04 #@! TO.N,195*
X239103750Y163190200D02*
Y165590200D01*
G04 #@! TO.N,194*
X240703750Y162390200D02*
Y165590200D01*
G04 #@! TO.N,193*
X241503750Y163190200D02*
Y165590200D01*
G04 #@! TO.N,192*
X242303750Y162390200D02*
Y165590200D01*
G04 #@! TO.N,191*
X243103750Y163190200D02*
Y165590200D01*
G04 #@! TO.N,190*
X243903750Y162390200D02*
Y165590200D01*
G04 #@! TO.N,189*
X244703750Y163190200D02*
Y165590200D01*
G04 #@! TO.N,188*
X245503750Y162390200D02*
Y165590200D01*
G04 #@! TO.N,187*
X246303750Y163190200D02*
Y165590200D01*
G04 #@! TO.N,186*
X247103750Y162390200D02*
Y165590200D01*
G04 #@! TO.N,185*
X247903750Y163190200D02*
Y165590200D01*
G04 #@! TO.N,184*
X248703750Y162390200D02*
Y165590200D01*
G04 #@! TO.N,183*
X249503750Y163190200D02*
Y165590200D01*
G04 #@! TO.N,182*
X250303750Y162390200D02*
Y165590200D01*
G04 #@! TO.N,181*
X251103750Y163190200D02*
Y165590200D01*
G04 #@! TO.N,179*
X251903750Y162390200D02*
Y165590200D01*
G04 #@! TO.N,180*
X252703750Y163190200D02*
Y165590200D01*
G04 #@! TO.N,211*
X227214965Y170534250D02*
X227103750Y170877700D01*
X226992535Y170534250D01*
G04 #@! TO.N,212*
X228126180Y171334250D02*
X227903750Y171677700D01*
X228014965Y171334250D01*
G04 #@! TO.N,215*
X230192535Y170534250D02*
X230303750Y170877700D01*
X230414965Y170534250D01*
G04 #@! TO.N,216*
X231326180Y171334250D02*
X231103750Y171677700D01*
X230881320Y171334250D01*
G04 #@! TO.N,217*
X231792535Y170534250D02*
X231903750Y170877700D01*
X232014965Y170534250D01*
X232126180Y170534250D02*
X231903750Y170877700D01*
X231681320Y170534250D01*
G04 #@! TO.N,218*
X232814965Y171334250D02*
X232703750Y171677700D01*
X232481320Y171334250D01*
G04 #@! TO.N,219*
X233392535Y170534250D02*
X233503750Y170877700D01*
X233726180Y170534250D01*
X233614965Y170534250D02*
X233503750Y170877700D01*
X233281320Y170534250D01*
G04 #@! TO.N,220*
X234526180Y171334250D02*
X234303750Y171677700D01*
X234192535Y171334250D01*
X234414965Y171334250D02*
X234303750Y171677700D01*
X234081320Y171334250D01*
G04 #@! TO.N,221*
X234992535Y170534250D02*
X235103750Y170877700D01*
X235326180Y170534250D01*
X235214965Y170534250D02*
X235103750Y170877700D01*
X234881320Y170534250D01*
G04 #@! TO.N,222*
X235792535Y171334250D02*
X235903750Y171677700D01*
X236126180Y171334250D01*
X236014965Y171334250D02*
X235903750Y171677700D01*
X235681320Y171334250D01*
G04 #@! TO.N,224*
X237392535Y171334250D02*
X237503750Y171677700D01*
X237614965Y171334250D01*
G04 #@! TO.N,225*
X238192535Y170534250D02*
X238303750Y170877700D01*
X238526180Y170534250D01*
G04 #@! TO.N,226*
X238992535Y171334250D02*
X239103750Y171677700D01*
X239214965Y171334250D01*
G04 #@! TO.N,227*
X240592535Y170534250D02*
X240703750Y170877700D01*
X240926180Y170534250D01*
G04 #@! TO.N,228*
X241726180Y171334250D02*
X241503750Y171677700D01*
X241614965Y171334250D01*
X241392535Y171334250D02*
X241503750Y171677700D01*
X241281320Y171334250D01*
G04 #@! TO.N,229*
X242526180Y170534250D02*
X242303750Y170877700D01*
X242414965Y170534250D01*
G04 #@! TO.N,230*
X242992535Y171334250D02*
X243103750Y171677700D01*
X243326180Y171334250D01*
X243214965Y171334250D02*
X243103750Y171677700D01*
X242881320Y171334250D01*
G04 #@! TO.N,231*
X244126180Y170534250D02*
X243903750Y170877700D01*
X243792535Y170534250D01*
X244014965Y170534250D02*
X243903750Y170877700D01*
X243681320Y170534250D01*
G04 #@! TO.N,232*
X244592535Y171334250D02*
X244703750Y171677700D01*
X244926180Y171334250D01*
X244814965Y171334250D02*
X244703750Y171677700D01*
X244481320Y171334250D01*
G04 #@! TO.N,233*
X245614965Y170534250D02*
X245503750Y170877700D01*
X245726180Y170534250D01*
X245392535Y170534250D02*
X245503750Y170877700D01*
X245281320Y170534250D01*
G04 #@! TO.N,234*
X246526180Y171334250D02*
X246303750Y171677700D01*
X246081320Y171334250D01*
G04 #@! TO.N,235*
X246992535Y170534250D02*
X247103750Y170877700D01*
X247326180Y170534250D01*
G04 #@! TO.N,237*
X248926180Y170534250D02*
X248703750Y170877700D01*
X248481320Y170534250D01*
G04 #@! TO.N,238*
X249392535Y171334250D02*
X249503750Y171677700D01*
X249281320Y171334250D01*
G04 #@! TO.N,239*
X250526180Y170534250D02*
X250303750Y170877700D01*
X250192535Y170534250D01*
X250414965Y170534250D02*
X250303750Y170877700D01*
X250081320Y170534250D01*
G04 #@! TO.N,240*
X251214965Y171334250D02*
X251103750Y171677700D01*
X251326180Y171334250D01*
X250992535Y171334250D02*
X251103750Y171677700D01*
X250881320Y171334250D01*
G04 #@! TO.N,241*
X252126180Y170534250D02*
X251903750Y170877700D01*
X251681320Y170534250D01*
G04 #@! TO.N,242*
X252814965Y171334250D02*
X252703750Y171677700D01*
X252592535Y171334250D01*
G04 #@! TO.N,209*
X227326180Y162534250D02*
X227103750Y162877700D01*
X226881320Y162534250D01*
G04 #@! TO.N,210*
X227792535Y163334250D02*
X227903750Y163677700D01*
X228126180Y163334250D01*
X228014965Y163334250D02*
X227903750Y163677700D01*
X227681320Y163334250D01*
G04 #@! TO.N,207*
X229392535Y163334250D02*
X229503750Y163677700D01*
X229726180Y163334250D01*
X229614965Y163334250D02*
X229503750Y163677700D01*
X229281320Y163334250D01*
G04 #@! TO.N,205*
X230992535Y163334250D02*
X231103750Y163677700D01*
X231326180Y163334250D01*
G04 #@! TO.N,204*
X232126180Y162534250D02*
X231903750Y162877700D01*
X232014965Y162534250D01*
G04 #@! TO.N,203*
X232926180Y163334250D02*
X232703750Y163677700D01*
X232814965Y163334250D01*
X232592535Y163334250D02*
X232703750Y163677700D01*
X232481320Y163334250D01*
G04 #@! TO.N,202*
X233392535Y162534250D02*
X233503750Y162877700D01*
X233614965Y162534250D01*
G04 #@! TO.N,201*
X234526180Y163334250D02*
X234303750Y163677700D01*
X234192535Y163334250D01*
G04 #@! TO.N,199*
X235792535Y163334250D02*
X235903750Y163677700D01*
X235681320Y163334250D01*
G04 #@! TO.N,198*
X236814965Y162534250D02*
X236703750Y162877700D01*
X236481320Y162534250D01*
G04 #@! TO.N,197*
X237614965Y163334250D02*
X237503750Y163677700D01*
X237392535Y163334250D01*
X237726180Y163334250D02*
X237503750Y163677700D01*
X237281320Y163334250D01*
G04 #@! TO.N,196*
X238414965Y162534250D02*
X238303750Y162877700D01*
X238081320Y162534250D01*
G04 #@! TO.N,194*
X240592535Y162534250D02*
X240703750Y162877700D01*
X240481320Y162534250D01*
G04 #@! TO.N,193*
X241726180Y163334250D02*
X241503750Y163677700D01*
X241281320Y163334250D01*
G04 #@! TO.N,192*
X242192535Y162534250D02*
X242303750Y162877700D01*
X242526180Y162534250D01*
X242414965Y162534250D02*
X242303750Y162877700D01*
X242081320Y162534250D01*
G04 #@! TO.N,191*
X243326180Y163334250D02*
X243103750Y163677700D01*
X242881320Y163334250D01*
G04 #@! TO.N,190*
X243792535Y162534250D02*
X243903750Y162877700D01*
X244014965Y162534250D01*
G04 #@! TO.N,189*
X244814965Y163334250D02*
X244703750Y163677700D01*
X244926180Y163334250D01*
G04 #@! TO.N,188*
X245726180Y162534250D02*
X245503750Y162877700D01*
X245614965Y162534250D01*
G04 #@! TO.N,187*
X246526180Y163334250D02*
X246303750Y163677700D01*
X246081320Y163334250D01*
G04 #@! TO.N,186*
X247214965Y162534250D02*
X247103750Y162877700D01*
X246881320Y162534250D01*
G04 #@! TO.N,185*
X248014965Y163334250D02*
X247903750Y163677700D01*
X247681320Y163334250D01*
G04 #@! TO.N,181*
X251214965Y163334250D02*
X251103750Y163677700D01*
X251326180Y163334250D01*
X250992535Y163334250D02*
X251103750Y163677700D01*
X250881320Y163334250D01*
G04 #@! TO.N,179*
X252014965Y162534250D02*
X251903750Y162877700D01*
X251681320Y162534250D01*
G04 #@! TO.N,180*
X252592535Y163334250D02*
X252703750Y163677700D01*
X252814965Y163334250D01*
X252926180Y163334250D02*
X252703750Y163677700D01*
X252481320Y163334250D01*
G04 #@! TO.N,211*
X227032210Y170518405D02*
X227103750Y170877700D01*
X227326180Y170534250D01*
X226881320Y170534250D02*
X227103750Y170877700D01*
X227175295Y170518405D01*
X226889125Y170518405D02*
X227103750Y170877700D01*
X227318375Y170518405D01*
G04 #@! TO.N,212*
X227903750Y171677700D02*
X227681320Y171334250D01*
X228118375Y171318405D02*
X227903750Y171677695D01*
X227832210Y171318405D02*
X227903750Y171677700D01*
X227975295Y171318405D02*
X227903750Y171677695D01*
X227689125Y171318405D02*
X227903750Y171677700D01*
X227792535Y171334250D01*
G04 #@! TO.N,213*
X228918375Y170518405D02*
X228703750Y170877700D01*
X228926180Y170534250D01*
X228814965Y170534250D02*
X228703750Y170877700D01*
X228775295Y170518405D01*
X228632210Y170518405D02*
X228703750Y170877700D01*
X228592535Y170534250D01*
X228481320Y170534250D02*
X228703750Y170877700D01*
X228489125Y170518405D01*
G04 #@! TO.N,214*
X229281320Y171334250D02*
X229503750Y171677700D01*
X229392535Y171334250D01*
X229614965Y171334250D02*
X229503750Y171677700D01*
X229718375Y171318405D02*
X229503755Y171677695D01*
X229289130Y171318410D02*
X229503755Y171677695D01*
X229575295Y171318405D02*
X229503750Y171677695D01*
X229432210Y171318405D02*
X229503750Y171677700D01*
X229726180Y171334250D01*
G04 #@! TO.N,215*
X230232210Y170518405D02*
X230303750Y170877700D01*
X230081320Y170534250D01*
X230518375Y170518405D02*
X230303750Y170877700D01*
X230375295Y170518405D01*
X230526180Y170534250D02*
X230303750Y170877700D01*
X230089125Y170518405D01*
G04 #@! TO.N,216*
X231214965Y171334250D02*
X231103750Y171677700D01*
X230992535Y171334250D01*
X231032215Y171318405D02*
X231103755Y171677695D01*
X230889130Y171318410D01*
G04 #@! TO.N,217*
X231832210Y170518405D02*
X231903750Y170877700D01*
X232118375Y170518405D01*
X231975295Y170518405D02*
X231903750Y170877700D01*
X231689125Y170518405D01*
G04 #@! TO.N,218*
X232775295Y171318405D02*
X232703750Y171677695D01*
X232703750Y171677700D02*
X232926180Y171334250D01*
X232592535Y171334250D02*
X232703750Y171677700D01*
X232632210Y171318405D02*
X232703750Y171677695D01*
X232918375Y171318405D02*
X232703755Y171677695D01*
X232489130Y171318410D01*
G04 #@! TO.N,219*
X233575295Y170518405D02*
X233503750Y170877700D01*
X233432210Y170518405D01*
X233289125Y170518405D02*
X233503750Y170877700D01*
X233718375Y170518405D01*
G04 #@! TO.N,220*
X234375295Y171318405D02*
X234303750Y171677700D01*
X234518375Y171318405D01*
X234232210Y171318405D02*
X234303750Y171677700D01*
X234089125Y171318405D02*
X234303750Y171677695D01*
G04 #@! TO.N,221*
X235032210Y170518405D02*
X235103750Y170877700D01*
X235175295Y170518405D01*
X234889125Y170518405D02*
X235103750Y170877700D01*
X235318375Y170518405D01*
G04 #@! TO.N,222*
X236118375Y171318405D02*
X235903750Y171677700D01*
X235689125Y171318405D01*
X235975295Y171318405D02*
X235903750Y171677700D01*
X235832210Y171318405D02*
X235903750Y171677695D01*
G04 #@! TO.N,223*
X236918375Y170518405D02*
X236703750Y170877700D01*
X236481320Y170534250D01*
X236592535Y170534250D02*
X236703750Y170877700D01*
X236775295Y170518405D01*
X236632210Y170518405D02*
X236703750Y170877700D01*
X236814965Y170534250D01*
X236926180Y170534250D02*
X236703750Y170877700D01*
X236489125Y170518405D01*
G04 #@! TO.N,224*
X237503750Y171677700D02*
X237726180Y171334250D01*
X237281320Y171334250D02*
X237503750Y171677700D01*
X237432210Y171318405D02*
X237503750Y171677695D01*
X237289125Y171318405D01*
X237575295Y171318405D02*
X237503755Y171677695D01*
X237718375Y171318405D01*
G04 #@! TO.N,225*
X238232210Y170518405D02*
X238303750Y170877700D01*
X238518375Y170518405D01*
X238089125Y170518405D02*
X238303750Y170877700D01*
X238414965Y170534250D01*
X238081320Y170534250D02*
X238303750Y170877700D01*
X238375295Y170518405D01*
G04 #@! TO.N,226*
X239103750Y171677700D02*
X238881320Y171334250D01*
X239103750Y171677700D02*
X239318375Y171318405D01*
X238889130Y171318410D02*
X239103755Y171677695D01*
X239175295Y171318405D02*
X239103750Y171677695D01*
X239032210Y171318405D02*
X239103750Y171677700D01*
X239326180Y171334250D01*
G04 #@! TO.N,227*
X240918375Y170518405D02*
X240703750Y170877700D01*
X240481320Y170534250D01*
X240632210Y170518405D02*
X240703750Y170877700D01*
X240489125Y170518405D01*
X240814965Y170534250D02*
X240703750Y170877700D01*
X240775295Y170518405D01*
G04 #@! TO.N,228*
X241432210Y171318405D02*
X241503750Y171677695D01*
X241289125Y171318405D02*
X241503750Y171677700D01*
X241718375Y171318405D02*
X241503755Y171677695D01*
X241575295Y171318405D01*
G04 #@! TO.N,229*
X242232210Y170518405D02*
X242303750Y170877700D01*
X242192535Y170534250D01*
X242518375Y170518405D02*
X242303750Y170877700D01*
X242375295Y170518405D01*
X242081320Y170534250D02*
X242303750Y170877700D01*
X242089125Y170518405D01*
G04 #@! TO.N,231*
X244118375Y170518405D02*
X243903750Y170877700D01*
X243975295Y170518405D01*
X243832210Y170518405D02*
X243903750Y170877700D01*
X243689125Y170518405D01*
G04 #@! TO.N,233*
X245432210Y170518405D02*
X245503750Y170877700D01*
X245575295Y170518405D01*
X245718375Y170518405D02*
X245503750Y170877700D01*
X245289125Y170518405D01*
G04 #@! TO.N,234*
X246303750Y171677700D02*
X246414965Y171334250D01*
X246192535Y171334250D02*
X246303750Y171677700D01*
G04 #@! TO.N,235*
X246881320Y170534250D02*
X247103750Y170877700D01*
X246889125Y170518405D01*
X247032210Y170518405D02*
X247103750Y170877700D01*
X247214965Y170534250D01*
X247318375Y170518405D02*
X247103750Y170877700D01*
X247175295Y170518405D01*
G04 #@! TO.N,236*
X247681320Y171334250D02*
X247903750Y171677700D01*
X248118375Y171318405D02*
X247903750Y171677695D01*
X247689125Y171318405D02*
X247903750Y171677700D01*
X248014965Y171334250D01*
X247792535Y171334250D02*
X247903750Y171677700D01*
X247975295Y171318405D02*
X247903750Y171677695D01*
X247832210Y171318405D02*
X247903750Y171677700D01*
X248126180Y171334250D01*
G04 #@! TO.N,237*
X248632210Y170518405D02*
X248703750Y170877700D01*
X248592535Y170534250D01*
X248814965Y170534250D02*
X248703750Y170877700D01*
X248918375Y170518405D01*
X248775295Y170518405D02*
X248703750Y170877700D01*
X248489125Y170518405D01*
G04 #@! TO.N,238*
X249726180Y171334250D02*
X249503750Y171677700D01*
X249718375Y171318405D02*
X249503750Y171677695D01*
X249289125Y171318405D02*
X249503750Y171677700D01*
X249575295Y171318405D02*
X249503750Y171677695D01*
X249432210Y171318405D02*
X249503750Y171677700D01*
X249614965Y171334250D01*
G04 #@! TO.N,239*
X250375295Y170518405D02*
X250303750Y170877700D01*
X250089125Y170518405D01*
X250232210Y170518405D02*
X250303750Y170877700D01*
X250518375Y170518405D01*
G04 #@! TO.N,241*
X252014965Y170534250D02*
X251903750Y170877700D01*
X251832210Y170518405D01*
X251689125Y170518405D02*
X251903750Y170877700D01*
X252118375Y170518405D01*
X251792535Y170534250D02*
X251903750Y170877700D01*
X251975295Y170518405D01*
G04 #@! TO.N,242*
X252926180Y171334250D02*
X252703750Y171677700D01*
X252918375Y171318405D02*
X252703750Y171677695D01*
X252481320Y171334250D02*
X252703750Y171677700D01*
X252775295Y171318405D02*
X252703755Y171677695D01*
X252489125Y171318405D02*
X252703750Y171677700D01*
X252632210Y171318405D01*
G04 #@! TO.N,209*
X227318375Y162518405D02*
X227103750Y162877700D01*
X227032210Y162518405D01*
X226889125Y162518405D02*
X227103750Y162877700D01*
X226992535Y162534250D01*
X227214965Y162534250D02*
X227103750Y162877700D01*
X227175295Y162518405D01*
G04 #@! TO.N,210*
X227689125Y163318405D02*
X227903750Y163677700D01*
X228118375Y163318405D01*
X227832210Y163318405D02*
X227903750Y163677700D01*
X227975295Y163318405D01*
G04 #@! TO.N,208*
X228632210Y162518405D02*
X228703750Y162877700D01*
X228481320Y162534250D01*
X228926180Y162534250D02*
X228703750Y162877700D01*
X228489125Y162518405D01*
X228775295Y162518405D02*
X228703750Y162877700D01*
X228814965Y162534250D01*
X228592535Y162534250D02*
X228703750Y162877700D01*
X228918375Y162518405D01*
G04 #@! TO.N,207*
X229575295Y163318405D02*
X229503750Y163677700D01*
X229432210Y163318405D01*
X229718375Y163318405D02*
X229503750Y163677700D01*
X229289125Y163318405D01*
G04 #@! TO.N,206*
X230232210Y162518405D02*
X230303750Y162877700D01*
X230192535Y162534250D01*
X230081320Y162534250D02*
X230303750Y162877700D01*
X230375295Y162518405D01*
X230518375Y162518405D02*
X230303750Y162877700D01*
X230526180Y162534250D01*
X230414965Y162534250D02*
X230303750Y162877700D01*
X230089125Y162518405D01*
G04 #@! TO.N,205*
X231032210Y163318405D02*
X231103750Y163677700D01*
X230881320Y163334250D01*
X231175295Y163318405D02*
X231103750Y163677700D01*
X231318375Y163318405D01*
X231214965Y163334250D02*
X231103750Y163677700D01*
X230889125Y163318405D01*
G04 #@! TO.N,204*
X231832210Y162518405D02*
X231903750Y162877700D01*
X231792535Y162534250D01*
X232118375Y162518405D02*
X231903750Y162877700D01*
X231681320Y162534250D01*
X231975295Y162518405D02*
X231903750Y162877700D01*
X231689125Y162518405D01*
G04 #@! TO.N,203*
X232918375Y163318405D02*
X232703750Y163677700D01*
X232775295Y163318405D01*
X232489125Y163318405D02*
X232703750Y163677700D01*
X232632210Y163318405D01*
G04 #@! TO.N,202*
X233432210Y162518405D02*
X233503750Y162877700D01*
X233575295Y162518405D01*
X233718375Y162518405D02*
X233503750Y162877700D01*
X233726180Y162534250D01*
X233281320Y162534250D02*
X233503750Y162877700D01*
X233289125Y162518405D01*
G04 #@! TO.N,201*
X234518375Y163318405D02*
X234303750Y163677700D01*
X234375295Y163318405D01*
X234232210Y163318405D02*
X234303750Y163677700D01*
X234414965Y163334250D01*
X234081320Y163334250D02*
X234303750Y163677700D01*
X234089125Y163318405D01*
G04 #@! TO.N,200*
X235318375Y162518405D02*
X235103750Y162877700D01*
X235214965Y162534250D01*
X234881320Y162534250D02*
X235103750Y162877700D01*
X235032210Y162518405D01*
X234889125Y162518405D02*
X235103750Y162877700D01*
X235326180Y162534250D01*
X234992535Y162534250D02*
X235103750Y162877700D01*
X235175295Y162518405D01*
G04 #@! TO.N,199*
X236118375Y163318405D02*
X235903750Y163677700D01*
X236126180Y163334250D01*
X236014965Y163334250D02*
X235903750Y163677700D01*
X235689125Y163318405D01*
X235832210Y163318405D02*
X235903750Y163677700D01*
X235975295Y163318405D01*
G04 #@! TO.N,198*
X236926180Y162534250D02*
X236703750Y162877700D01*
X236775295Y162518405D01*
X236489125Y162518405D02*
X236703750Y162877700D01*
X236592535Y162534250D01*
X236632210Y162518405D02*
X236703750Y162877700D01*
X236918375Y162518405D01*
G04 #@! TO.N,197*
X237575295Y163318405D02*
X237503750Y163677700D01*
X237289125Y163318405D01*
X237432210Y163318405D02*
X237503750Y163677700D01*
X237718375Y163318405D01*
G04 #@! TO.N,196*
X238518375Y162518405D02*
X238303750Y162877700D01*
X238232210Y162518405D01*
X238375295Y162518405D02*
X238303750Y162877700D01*
X238192535Y162534250D01*
X238526180Y162534250D02*
X238303750Y162877700D01*
X238089125Y162518405D01*
G04 #@! TO.N,195*
X239318375Y163318405D02*
X239103750Y163677700D01*
X239326180Y163334250D01*
X238992535Y163334250D02*
X239103750Y163677700D01*
X239032210Y163318405D01*
X238889125Y163318405D02*
X239103750Y163677700D01*
X239214965Y163334250D01*
X238881320Y163334250D02*
X239103750Y163677700D01*
X239175295Y163318405D01*
G04 #@! TO.N,194*
X240632210Y162518405D02*
X240703750Y162877700D01*
X240814965Y162534250D01*
X240926180Y162534250D02*
X240703750Y162877700D01*
X240489125Y162518405D01*
X240918375Y162518405D02*
X240703750Y162877700D01*
X240775295Y162518405D01*
G04 #@! TO.N,193*
X241718375Y163318405D02*
X241503750Y163677700D01*
X241289125Y163318405D01*
X241575295Y163318405D02*
X241503750Y163677700D01*
X241392535Y163334250D01*
X241614965Y163334250D02*
X241503750Y163677700D01*
X241432210Y163318405D01*
G04 #@! TO.N,192*
X242518375Y162518405D02*
X242303750Y162877700D01*
X242089125Y162518405D01*
X242232210Y162518405D02*
X242303750Y162877700D01*
X242375295Y162518405D01*
G04 #@! TO.N,191*
X242889125Y163318405D02*
X243103750Y163677700D01*
X242992535Y163334250D01*
X243032210Y163318405D02*
X243103750Y163677700D01*
X243175295Y163318405D01*
X243214965Y163334250D02*
X243103750Y163677700D01*
X243318375Y163318405D01*
G04 #@! TO.N,190*
X243975295Y162518405D02*
X243903750Y162877700D01*
X243681320Y162534250D01*
X244126180Y162534250D02*
X243903750Y162877700D01*
X243689125Y162518405D01*
X243832210Y162518405D02*
X243903750Y162877700D01*
X244118375Y162518405D01*
G04 #@! TO.N,189*
X244481320Y163334250D02*
X244703750Y163677700D01*
X244918375Y163318405D01*
X244775295Y163318405D02*
X244703750Y163677700D01*
X244632210Y163318405D01*
X244592535Y163334250D02*
X244703750Y163677700D01*
X244489125Y163318405D01*
G04 #@! TO.N,188*
X245718375Y162518405D02*
X245503750Y162877700D01*
X245392535Y162534250D01*
X245432210Y162518405D02*
X245503750Y162877700D01*
X245289125Y162518405D01*
X245281320Y162534250D02*
X245503750Y162877700D01*
X245575295Y162518405D01*
G04 #@! TO.N,187*
X246192535Y163334250D02*
X246303750Y163677700D01*
X246375295Y163318405D01*
X246232210Y163318405D02*
X246303750Y163677700D01*
X246518375Y163318405D01*
X246414965Y163334250D02*
X246303750Y163677700D01*
X246089125Y163318405D01*
G04 #@! TO.N,186*
X246992535Y162534250D02*
X247103750Y162877700D01*
X246889125Y162518405D01*
X247318375Y162518405D02*
X247103750Y162877700D01*
X247326180Y162534250D01*
X247175295Y162518405D02*
X247103750Y162877700D01*
X247032210Y162518405D01*
G04 #@! TO.N,185*
X248118375Y163318405D02*
X247903750Y163677700D01*
X247689125Y163318405D01*
X247832210Y163318405D02*
X247903750Y163677700D01*
X248126180Y163334250D01*
X247792535Y163334250D02*
X247903750Y163677700D01*
X247975295Y163318405D01*
G04 #@! TO.N,184*
X248918375Y162518405D02*
X248703750Y162877700D01*
X248481320Y162534250D01*
X248926180Y162534250D02*
X248703750Y162877700D01*
X248489125Y162518405D01*
X248632210Y162518405D02*
X248703750Y162877700D01*
X248592535Y162534250D01*
X248814965Y162534250D02*
X248703750Y162877700D01*
X248775295Y162518405D01*
G04 #@! TO.N,183*
X249432210Y163318405D02*
X249503750Y163677700D01*
X249281320Y163334250D01*
X249392535Y163334250D02*
X249503750Y163677700D01*
X249575295Y163318405D01*
X249718375Y163318405D02*
X249503750Y163677700D01*
X249726180Y163334250D01*
X249614965Y163334250D02*
X249503750Y163677700D01*
X249289125Y163318405D01*
G04 #@! TO.N,182*
X250232210Y162518405D02*
X250303750Y162877700D01*
X250192535Y162534250D01*
X250526180Y162534250D02*
X250303750Y162877700D01*
X250089125Y162518405D01*
X250518375Y162518405D02*
X250303750Y162877700D01*
X250081320Y162534250D01*
X250414965Y162534250D02*
X250303750Y162877700D01*
X250375295Y162518405D01*
G04 #@! TO.N,181*
X250889125Y163318405D02*
X251103750Y163677700D01*
X251318375Y163318405D01*
X251175295Y163318405D02*
X251103750Y163677700D01*
X251032210Y163318405D01*
G04 #@! TO.N,179*
X252126180Y162534250D02*
X251903750Y162877700D01*
X251975295Y162518405D01*
X251832210Y162518405D02*
X251903750Y162877700D01*
X252118375Y162518405D01*
X251792535Y162534250D02*
X251903750Y162877700D01*
X251689125Y162518405D01*
G04 #@! TO.N,180*
X252918375Y163318405D02*
X252703750Y163677700D01*
X252632210Y163318405D01*
X252775295Y163318405D02*
X252703750Y163677700D01*
X252489125Y163318405D01*
G04 #@! TO.N,216*
X231318375Y171318405D02*
X231103755Y171677695D01*
X231175295Y171318405D02*
X231103750Y171677700D01*
G04 #@! TO.N,230*
X243175295Y171318405D02*
X243103750Y171677695D01*
X243318375Y171318405D01*
X243032210Y171318405D02*
X243103750Y171677695D01*
X242889125Y171318405D01*
G04 #@! TO.N,232*
X244632210Y171318405D02*
X244703750Y171677700D01*
X244918375Y171318405D01*
X244775295Y171318405D02*
X244703750Y171677695D01*
X244489125Y171318405D02*
X244703750Y171677700D01*
G04 #@! TO.N,234*
X246375295Y171318405D02*
X246303750Y171677695D01*
X246232210Y171318405D02*
X246303750Y171677700D01*
X246089125Y171318405D02*
X246303750Y171677695D01*
X246518375Y171318405D02*
X246303755Y171677695D01*
G04 #@! TO.N,240*
X251318375Y171318405D02*
X251103750Y171677700D01*
X251032210Y171318405D02*
X251103750Y171677695D01*
X250889125Y171318405D02*
X251103750Y171677700D01*
X251175295Y171318405D02*
X251103755Y171677695D01*
G04 #@! TO.N,467*
X252698650Y65390100D02*
Y68590100D01*
G04 #@! TO.N,468*
X251898650Y66190100D02*
Y68590100D01*
G04 #@! TO.N,469*
X251098650Y65390100D02*
Y68590100D01*
G04 #@! TO.N,470*
X250298650Y66190100D02*
Y68590100D01*
G04 #@! TO.N,471*
X249498650Y65390100D02*
Y68590100D01*
G04 #@! TO.N,472*
X248698650Y66190100D02*
Y68590100D01*
G04 #@! TO.N,473*
X247898650Y65390100D02*
Y68590100D01*
G04 #@! TO.N,474*
X247098650Y66190100D02*
Y68590100D01*
G04 #@! TO.N,475*
X246298650Y65390100D02*
Y68590100D01*
G04 #@! TO.N,476*
X245498650Y66190100D02*
Y68590100D01*
G04 #@! TO.N,477*
X244698650Y65390100D02*
Y68590100D01*
G04 #@! TO.N,478*
X243898650Y66190100D02*
Y68590100D01*
G04 #@! TO.N,479*
X243098650Y65390100D02*
Y68590100D01*
G04 #@! TO.N,480*
X242298650Y66190100D02*
Y68590100D01*
G04 #@! TO.N,481*
X241498650Y65390100D02*
Y68590100D01*
G04 #@! TO.N,482*
X240698650Y66190100D02*
Y68590100D01*
G04 #@! TO.N,483*
X239098650Y65390100D02*
Y68590100D01*
G04 #@! TO.N,484*
X238298650Y66190100D02*
Y68590100D01*
G04 #@! TO.N,485*
X237498650Y65390100D02*
Y68590100D01*
G04 #@! TO.N,486*
X236698650Y66190100D02*
Y68590100D01*
G04 #@! TO.N,487*
X235898650Y65390100D02*
Y68590100D01*
G04 #@! TO.N,488*
X235098650Y66190100D02*
Y68590100D01*
G04 #@! TO.N,489*
X234298650Y65390100D02*
Y68590100D01*
G04 #@! TO.N,490*
X233498650Y66190100D02*
Y68590100D01*
G04 #@! TO.N,491*
X232698650Y65390100D02*
Y68590100D01*
G04 #@! TO.N,492*
X231898650Y66190100D02*
Y68590100D01*
G04 #@! TO.N,493*
X231098650Y65390100D02*
Y68590100D01*
G04 #@! TO.N,494*
X230298650Y66190100D02*
Y68590100D01*
G04 #@! TO.N,495*
X229498650Y65390100D02*
Y68590100D01*
G04 #@! TO.N,496*
X228698650Y66190100D02*
Y68590100D01*
G04 #@! TO.N,497*
X227898650Y65390100D02*
Y68590100D01*
G04 #@! TO.N,498*
X227098650Y66190100D02*
Y68590100D01*
G04 #@! TO.N,467*
X252587435Y65534150D02*
X252698650Y65877600D01*
X252809865Y65534150D01*
G04 #@! TO.N,468*
X251676220Y66334150D02*
X251898650Y66677600D01*
X251787435Y66334150D01*
G04 #@! TO.N,471*
X249609865Y65534150D02*
X249498650Y65877600D01*
X249387435Y65534150D01*
G04 #@! TO.N,472*
X248476220Y66334150D02*
X248698650Y66677600D01*
X248921080Y66334150D01*
G04 #@! TO.N,473*
X248009865Y65534150D02*
X247898650Y65877600D01*
X247787435Y65534150D01*
X247676220Y65534150D02*
X247898650Y65877600D01*
X248121080Y65534150D01*
G04 #@! TO.N,474*
X246987435Y66334150D02*
X247098650Y66677600D01*
X247321080Y66334150D01*
G04 #@! TO.N,475*
X246409865Y65534150D02*
X246298650Y65877600D01*
X246076220Y65534150D01*
X246187435Y65534150D02*
X246298650Y65877600D01*
X246521080Y65534150D01*
G04 #@! TO.N,476*
X245276220Y66334150D02*
X245498650Y66677600D01*
X245609865Y66334150D01*
X245387435Y66334150D02*
X245498650Y66677600D01*
X245721080Y66334150D01*
G04 #@! TO.N,477*
X244809865Y65534150D02*
X244698650Y65877600D01*
X244476220Y65534150D01*
X244587435Y65534150D02*
X244698650Y65877600D01*
X244921080Y65534150D01*
G04 #@! TO.N,478*
X244009865Y66334150D02*
X243898650Y66677600D01*
X243676220Y66334150D01*
X243787435Y66334150D02*
X243898650Y66677600D01*
X244121080Y66334150D01*
G04 #@! TO.N,480*
X242409865Y66334150D02*
X242298650Y66677600D01*
X242187435Y66334150D01*
G04 #@! TO.N,481*
X241609865Y65534150D02*
X241498650Y65877600D01*
X241276220Y65534150D01*
G04 #@! TO.N,482*
X240809865Y66334150D02*
X240698650Y66677600D01*
X240587435Y66334150D01*
G04 #@! TO.N,483*
X239209865Y65534150D02*
X239098650Y65877600D01*
X238876220Y65534150D01*
G04 #@! TO.N,484*
X238076220Y66334150D02*
X238298650Y66677600D01*
X238187435Y66334150D01*
X238409865Y66334150D02*
X238298650Y66677600D01*
X238521080Y66334150D01*
G04 #@! TO.N,485*
X237276220Y65534150D02*
X237498650Y65877600D01*
X237387435Y65534150D01*
G04 #@! TO.N,486*
X236809865Y66334150D02*
X236698650Y66677600D01*
X236476220Y66334150D01*
X236587435Y66334150D02*
X236698650Y66677600D01*
X236921080Y66334150D01*
G04 #@! TO.N,487*
X235676220Y65534150D02*
X235898650Y65877600D01*
X236009865Y65534150D01*
X235787435Y65534150D02*
X235898650Y65877600D01*
X236121080Y65534150D01*
G04 #@! TO.N,488*
X235209865Y66334150D02*
X235098650Y66677600D01*
X234876220Y66334150D01*
X234987435Y66334150D02*
X235098650Y66677600D01*
X235321080Y66334150D01*
G04 #@! TO.N,489*
X234187435Y65534150D02*
X234298650Y65877600D01*
X234076220Y65534150D01*
X234409865Y65534150D02*
X234298650Y65877600D01*
X234521080Y65534150D01*
G04 #@! TO.N,490*
X233276220Y66334150D02*
X233498650Y66677600D01*
X233721080Y66334150D01*
G04 #@! TO.N,491*
X232809865Y65534150D02*
X232698650Y65877600D01*
X232476220Y65534150D01*
G04 #@! TO.N,493*
X230876220Y65534150D02*
X231098650Y65877600D01*
X231321080Y65534150D01*
G04 #@! TO.N,494*
X230409865Y66334150D02*
X230298650Y66677600D01*
X230521080Y66334150D01*
G04 #@! TO.N,495*
X229276220Y65534150D02*
X229498650Y65877600D01*
X229609865Y65534150D01*
X229387435Y65534150D02*
X229498650Y65877600D01*
X229721080Y65534150D01*
G04 #@! TO.N,496*
X228587435Y66334150D02*
X228698650Y66677600D01*
X228476220Y66334150D01*
X228809865Y66334150D02*
X228698650Y66677600D01*
X228921080Y66334150D01*
G04 #@! TO.N,497*
X227676220Y65534150D02*
X227898650Y65877600D01*
X228121080Y65534150D01*
G04 #@! TO.N,498*
X226987435Y66334150D02*
X227098650Y66677600D01*
X227209865Y66334150D01*
G04 #@! TO.N,465*
X252476220Y71434050D02*
X252698650Y71777500D01*
X252921080Y71434050D01*
G04 #@! TO.N,466*
X252009865Y72234050D02*
X251898650Y72577500D01*
X251676220Y72234050D01*
X251787435Y72234050D02*
X251898650Y72577500D01*
X252121080Y72234050D01*
G04 #@! TO.N,463*
X250409865Y72234050D02*
X250298650Y72577500D01*
X250076220Y72234050D01*
X250187435Y72234050D02*
X250298650Y72577500D01*
X250521080Y72234050D01*
G04 #@! TO.N,461*
X248809865Y72234050D02*
X248698650Y72577500D01*
X248476220Y72234050D01*
G04 #@! TO.N,460*
X247676220Y71434050D02*
X247898650Y71777500D01*
X247787435Y71434050D01*
G04 #@! TO.N,459*
X246876220Y72234050D02*
X247098650Y72577500D01*
X246987435Y72234050D01*
X247209865Y72234050D02*
X247098650Y72577500D01*
X247321080Y72234050D01*
G04 #@! TO.N,458*
X246409865Y71434050D02*
X246298650Y71777500D01*
X246187435Y71434050D01*
G04 #@! TO.N,457*
X245276220Y72234050D02*
X245498650Y72577500D01*
X245609865Y72234050D01*
G04 #@! TO.N,455*
X244009865Y72234050D02*
X243898650Y72577500D01*
X244121080Y72234050D01*
G04 #@! TO.N,454*
X242987435Y71434050D02*
X243098650Y71777500D01*
X243321080Y71434050D01*
G04 #@! TO.N,453*
X242187435Y72234050D02*
X242298650Y72577500D01*
X242409865Y72234050D01*
X242076220Y72234050D02*
X242298650Y72577500D01*
X242521080Y72234050D01*
G04 #@! TO.N,452*
X241387435Y71434050D02*
X241498650Y71777500D01*
X241721080Y71434050D01*
G04 #@! TO.N,450*
X239209865Y71434050D02*
X239098650Y71777500D01*
X239321080Y71434050D01*
G04 #@! TO.N,449*
X238076220Y72234050D02*
X238298650Y72577500D01*
X238521080Y72234050D01*
G04 #@! TO.N,448*
X237609865Y71434050D02*
X237498650Y71777500D01*
X237276220Y71434050D01*
X237387435Y71434050D02*
X237498650Y71777500D01*
X237721080Y71434050D01*
G04 #@! TO.N,447*
X236476220Y72234050D02*
X236698650Y72577500D01*
X236921080Y72234050D01*
G04 #@! TO.N,446*
X236009865Y71434050D02*
X235898650Y71777500D01*
X235787435Y71434050D01*
G04 #@! TO.N,445*
X234987435Y72234050D02*
X235098650Y72577500D01*
X234876220Y72234050D01*
G04 #@! TO.N,444*
X234076220Y71434050D02*
X234298650Y71777500D01*
X234187435Y71434050D01*
G04 #@! TO.N,443*
X233276220Y72234050D02*
X233498650Y72577500D01*
X233721080Y72234050D01*
G04 #@! TO.N,442*
X232587435Y71434050D02*
X232698650Y71777500D01*
X232921080Y71434050D01*
G04 #@! TO.N,441*
X231787435Y72234050D02*
X231898650Y72577500D01*
X232121080Y72234050D01*
G04 #@! TO.N,438*
X228587435Y72234050D02*
X228698650Y72577500D01*
X228476220Y72234050D01*
X228809865Y72234050D02*
X228698650Y72577500D01*
X228921080Y72234050D01*
G04 #@! TO.N,436*
X227787435Y71434050D02*
X227898650Y71777500D01*
X228121080Y71434050D01*
G04 #@! TO.N,437*
X227209865Y72234050D02*
X227098650Y72577500D01*
X226987435Y72234050D01*
X226876220Y72234050D02*
X227098650Y72577500D01*
X227321080Y72234050D01*
G04 #@! TO.N,467*
X252770190Y65518305D02*
X252698650Y65877600D01*
X252476220Y65534150D01*
X252921080Y65534150D02*
X252698650Y65877600D01*
X252627105Y65518305D01*
X252913275Y65518305D02*
X252698650Y65877600D01*
X252484025Y65518305D01*
G04 #@! TO.N,468*
X251898650Y66677600D02*
X252121080Y66334150D01*
X251684025Y66318305D02*
X251898650Y66677595D01*
X251970190Y66318305D02*
X251898650Y66677600D01*
X251827105Y66318305D02*
X251898650Y66677595D01*
X252113275Y66318305D02*
X251898650Y66677600D01*
X252009865Y66334150D01*
G04 #@! TO.N,469*
X250884025Y65518305D02*
X251098650Y65877600D01*
X250876220Y65534150D01*
X250987435Y65534150D02*
X251098650Y65877600D01*
X251027105Y65518305D01*
X251170190Y65518305D02*
X251098650Y65877600D01*
X251209865Y65534150D01*
X251321080Y65534150D02*
X251098650Y65877600D01*
X251313275Y65518305D01*
G04 #@! TO.N,470*
X250521080Y66334150D02*
X250298650Y66677600D01*
X250409865Y66334150D01*
X250187435Y66334150D02*
X250298650Y66677600D01*
X250084025Y66318305D02*
X250298645Y66677595D01*
X250513270Y66318310D02*
X250298645Y66677595D01*
X250227105Y66318305D02*
X250298650Y66677595D01*
X250370190Y66318305D02*
X250298650Y66677600D01*
X250076220Y66334150D01*
G04 #@! TO.N,471*
X249570190Y65518305D02*
X249498650Y65877600D01*
X249721080Y65534150D01*
X249284025Y65518305D02*
X249498650Y65877600D01*
X249427105Y65518305D01*
X249276220Y65534150D02*
X249498650Y65877600D01*
X249713275Y65518305D01*
G04 #@! TO.N,472*
X248587435Y66334150D02*
X248698650Y66677600D01*
X248809865Y66334150D01*
X248770185Y66318305D02*
X248698645Y66677595D01*
X248913270Y66318310D01*
G04 #@! TO.N,473*
X247970190Y65518305D02*
X247898650Y65877600D01*
X247684025Y65518305D01*
X247827105Y65518305D02*
X247898650Y65877600D01*
X248113275Y65518305D01*
G04 #@! TO.N,474*
X247027105Y66318305D02*
X247098650Y66677595D01*
X247098650Y66677600D02*
X246876220Y66334150D01*
X247209865Y66334150D02*
X247098650Y66677600D01*
X247170190Y66318305D02*
X247098650Y66677595D01*
X246884025Y66318305D02*
X247098645Y66677595D01*
X247313270Y66318310D01*
G04 #@! TO.N,475*
X246227105Y65518305D02*
X246298650Y65877600D01*
X246370190Y65518305D01*
X246513275Y65518305D02*
X246298650Y65877600D01*
X246084025Y65518305D01*
G04 #@! TO.N,476*
X245427105Y66318305D02*
X245498650Y66677600D01*
X245284025Y66318305D01*
X245570190Y66318305D02*
X245498650Y66677600D01*
X245713275Y66318305D02*
X245498650Y66677595D01*
G04 #@! TO.N,477*
X244770190Y65518305D02*
X244698650Y65877600D01*
X244627105Y65518305D01*
X244913275Y65518305D02*
X244698650Y65877600D01*
X244484025Y65518305D01*
G04 #@! TO.N,478*
X243684025Y66318305D02*
X243898650Y66677600D01*
X244113275Y66318305D01*
X243827105Y66318305D02*
X243898650Y66677600D01*
X243970190Y66318305D02*
X243898650Y66677595D01*
G04 #@! TO.N,479*
X242884025Y65518305D02*
X243098650Y65877600D01*
X243321080Y65534150D01*
X243209865Y65534150D02*
X243098650Y65877600D01*
X243027105Y65518305D01*
X243170190Y65518305D02*
X243098650Y65877600D01*
X242987435Y65534150D01*
X242876220Y65534150D02*
X243098650Y65877600D01*
X243313275Y65518305D01*
G04 #@! TO.N,480*
X242298650Y66677600D02*
X242076220Y66334150D01*
X242521080Y66334150D02*
X242298650Y66677600D01*
X242370190Y66318305D02*
X242298650Y66677595D01*
X242513275Y66318305D01*
X242227105Y66318305D02*
X242298645Y66677595D01*
X242084025Y66318305D01*
G04 #@! TO.N,481*
X241570190Y65518305D02*
X241498650Y65877600D01*
X241284025Y65518305D01*
X241713275Y65518305D02*
X241498650Y65877600D01*
X241387435Y65534150D01*
X241721080Y65534150D02*
X241498650Y65877600D01*
X241427105Y65518305D01*
G04 #@! TO.N,482*
X240698650Y66677600D02*
X240921080Y66334150D01*
X240698650Y66677600D02*
X240484025Y66318305D01*
X240913270Y66318310D02*
X240698645Y66677595D01*
X240627105Y66318305D02*
X240698650Y66677595D01*
X240770190Y66318305D02*
X240698650Y66677600D01*
X240476220Y66334150D01*
G04 #@! TO.N,483*
X238884025Y65518305D02*
X239098650Y65877600D01*
X239321080Y65534150D01*
X239170190Y65518305D02*
X239098650Y65877600D01*
X239313275Y65518305D01*
X238987435Y65534150D02*
X239098650Y65877600D01*
X239027105Y65518305D01*
G04 #@! TO.N,484*
X238370190Y66318305D02*
X238298650Y66677595D01*
X238513275Y66318305D02*
X238298650Y66677600D01*
X238084025Y66318305D02*
X238298645Y66677595D01*
X238227105Y66318305D01*
G04 #@! TO.N,485*
X237570190Y65518305D02*
X237498650Y65877600D01*
X237609865Y65534150D01*
X237284025Y65518305D02*
X237498650Y65877600D01*
X237427105Y65518305D01*
X237721080Y65534150D02*
X237498650Y65877600D01*
X237713275Y65518305D01*
G04 #@! TO.N,487*
X235684025Y65518305D02*
X235898650Y65877600D01*
X235827105Y65518305D01*
X235970190Y65518305D02*
X235898650Y65877600D01*
X236113275Y65518305D01*
G04 #@! TO.N,489*
X234370190Y65518305D02*
X234298650Y65877600D01*
X234227105Y65518305D01*
X234084025Y65518305D02*
X234298650Y65877600D01*
X234513275Y65518305D01*
G04 #@! TO.N,490*
X233498650Y66677600D02*
X233387435Y66334150D01*
X233609865Y66334150D02*
X233498650Y66677600D01*
G04 #@! TO.N,491*
X232921080Y65534150D02*
X232698650Y65877600D01*
X232913275Y65518305D01*
X232770190Y65518305D02*
X232698650Y65877600D01*
X232587435Y65534150D01*
X232484025Y65518305D02*
X232698650Y65877600D01*
X232627105Y65518305D01*
G04 #@! TO.N,492*
X232121080Y66334150D02*
X231898650Y66677600D01*
X231684025Y66318305D02*
X231898650Y66677595D01*
X232113275Y66318305D02*
X231898650Y66677600D01*
X231787435Y66334150D01*
X232009865Y66334150D02*
X231898650Y66677600D01*
X231827105Y66318305D02*
X231898650Y66677595D01*
X231970190Y66318305D02*
X231898650Y66677600D01*
X231676220Y66334150D01*
G04 #@! TO.N,493*
X231170190Y65518305D02*
X231098650Y65877600D01*
X231209865Y65534150D01*
X230987435Y65534150D02*
X231098650Y65877600D01*
X230884025Y65518305D01*
X231027105Y65518305D02*
X231098650Y65877600D01*
X231313275Y65518305D01*
G04 #@! TO.N,494*
X230076220Y66334150D02*
X230298650Y66677600D01*
X230084025Y66318305D02*
X230298650Y66677595D01*
X230513275Y66318305D02*
X230298650Y66677600D01*
X230227105Y66318305D02*
X230298650Y66677595D01*
X230370190Y66318305D02*
X230298650Y66677600D01*
X230187435Y66334150D01*
G04 #@! TO.N,495*
X229427105Y65518305D02*
X229498650Y65877600D01*
X229713275Y65518305D01*
X229570190Y65518305D02*
X229498650Y65877600D01*
X229284025Y65518305D01*
G04 #@! TO.N,497*
X227787435Y65534150D02*
X227898650Y65877600D01*
X227970190Y65518305D01*
X228113275Y65518305D02*
X227898650Y65877600D01*
X227684025Y65518305D01*
X228009865Y65534150D02*
X227898650Y65877600D01*
X227827105Y65518305D01*
G04 #@! TO.N,498*
X226876220Y66334150D02*
X227098650Y66677600D01*
X226884025Y66318305D02*
X227098650Y66677595D01*
X227321080Y66334150D02*
X227098650Y66677600D01*
X227027105Y66318305D02*
X227098645Y66677595D01*
X227313275Y66318305D02*
X227098650Y66677600D01*
X227170190Y66318305D01*
G04 #@! TO.N,465*
X252484025Y71418205D02*
X252698650Y71777500D01*
X252770190Y71418205D01*
X252913275Y71418205D02*
X252698650Y71777500D01*
X252809865Y71434050D01*
X252587435Y71434050D02*
X252698650Y71777500D01*
X252627105Y71418205D01*
G04 #@! TO.N,466*
X252113275Y72218205D02*
X251898650Y72577500D01*
X251684025Y72218205D01*
X251970190Y72218205D02*
X251898650Y72577500D01*
X251827105Y72218205D01*
G04 #@! TO.N,464*
X251170190Y71418205D02*
X251098650Y71777500D01*
X251321080Y71434050D01*
X250876220Y71434050D02*
X251098650Y71777500D01*
X251313275Y71418205D01*
X251027105Y71418205D02*
X251098650Y71777500D01*
X250987435Y71434050D01*
X251209865Y71434050D02*
X251098650Y71777500D01*
X250884025Y71418205D01*
G04 #@! TO.N,463*
X250227105Y72218205D02*
X250298650Y72577500D01*
X250370190Y72218205D01*
X250084025Y72218205D02*
X250298650Y72577500D01*
X250513275Y72218205D01*
G04 #@! TO.N,462*
X249570190Y71418205D02*
X249498650Y71777500D01*
X249609865Y71434050D01*
X249721080Y71434050D02*
X249498650Y71777500D01*
X249427105Y71418205D01*
X249284025Y71418205D02*
X249498650Y71777500D01*
X249276220Y71434050D01*
X249387435Y71434050D02*
X249498650Y71777500D01*
X249713275Y71418205D01*
G04 #@! TO.N,461*
X248770190Y72218205D02*
X248698650Y72577500D01*
X248921080Y72234050D01*
X248627105Y72218205D02*
X248698650Y72577500D01*
X248484025Y72218205D01*
X248587435Y72234050D02*
X248698650Y72577500D01*
X248913275Y72218205D01*
G04 #@! TO.N,460*
X247970190Y71418205D02*
X247898650Y71777500D01*
X248009865Y71434050D01*
X247684025Y71418205D02*
X247898650Y71777500D01*
X248121080Y71434050D01*
X247827105Y71418205D02*
X247898650Y71777500D01*
X248113275Y71418205D01*
G04 #@! TO.N,459*
X246884025Y72218205D02*
X247098650Y72577500D01*
X247027105Y72218205D01*
X247313275Y72218205D02*
X247098650Y72577500D01*
X247170190Y72218205D01*
G04 #@! TO.N,458*
X246370190Y71418205D02*
X246298650Y71777500D01*
X246227105Y71418205D01*
X246084025Y71418205D02*
X246298650Y71777500D01*
X246076220Y71434050D01*
X246521080Y71434050D02*
X246298650Y71777500D01*
X246513275Y71418205D01*
G04 #@! TO.N,457*
X245284025Y72218205D02*
X245498650Y72577500D01*
X245427105Y72218205D01*
X245570190Y72218205D02*
X245498650Y72577500D01*
X245387435Y72234050D01*
X245721080Y72234050D02*
X245498650Y72577500D01*
X245713275Y72218205D01*
G04 #@! TO.N,456*
X244484025Y71418205D02*
X244698650Y71777500D01*
X244587435Y71434050D01*
X244921080Y71434050D02*
X244698650Y71777500D01*
X244770190Y71418205D01*
X244913275Y71418205D02*
X244698650Y71777500D01*
X244476220Y71434050D01*
X244809865Y71434050D02*
X244698650Y71777500D01*
X244627105Y71418205D01*
G04 #@! TO.N,455*
X243684025Y72218205D02*
X243898650Y72577500D01*
X243676220Y72234050D01*
X243787435Y72234050D02*
X243898650Y72577500D01*
X244113275Y72218205D01*
X243970190Y72218205D02*
X243898650Y72577500D01*
X243827105Y72218205D01*
G04 #@! TO.N,454*
X242876220Y71434050D02*
X243098650Y71777500D01*
X243027105Y71418205D01*
X243313275Y71418205D02*
X243098650Y71777500D01*
X243209865Y71434050D01*
X243170190Y71418205D02*
X243098650Y71777500D01*
X242884025Y71418205D01*
G04 #@! TO.N,453*
X242227105Y72218205D02*
X242298650Y72577500D01*
X242513275Y72218205D01*
X242370190Y72218205D02*
X242298650Y72577500D01*
X242084025Y72218205D01*
G04 #@! TO.N,452*
X241284025Y71418205D02*
X241498650Y71777500D01*
X241570190Y71418205D01*
X241427105Y71418205D02*
X241498650Y71777500D01*
X241609865Y71434050D01*
X241276220Y71434050D02*
X241498650Y71777500D01*
X241713275Y71418205D01*
G04 #@! TO.N,451*
X240484025Y72218205D02*
X240698650Y72577500D01*
X240476220Y72234050D01*
X240809865Y72234050D02*
X240698650Y72577500D01*
X240770190Y72218205D01*
X240913275Y72218205D02*
X240698650Y72577500D01*
X240587435Y72234050D01*
X240921080Y72234050D02*
X240698650Y72577500D01*
X240627105Y72218205D01*
G04 #@! TO.N,450*
X239170190Y71418205D02*
X239098650Y71777500D01*
X238987435Y71434050D01*
X238876220Y71434050D02*
X239098650Y71777500D01*
X239313275Y71418205D01*
X238884025Y71418205D02*
X239098650Y71777500D01*
X239027105Y71418205D01*
G04 #@! TO.N,449*
X238084025Y72218205D02*
X238298650Y72577500D01*
X238513275Y72218205D01*
X238227105Y72218205D02*
X238298650Y72577500D01*
X238409865Y72234050D01*
X238187435Y72234050D02*
X238298650Y72577500D01*
X238370190Y72218205D01*
G04 #@! TO.N,448*
X237284025Y71418205D02*
X237498650Y71777500D01*
X237713275Y71418205D01*
X237570190Y71418205D02*
X237498650Y71777500D01*
X237427105Y71418205D01*
G04 #@! TO.N,447*
X236913275Y72218205D02*
X236698650Y72577500D01*
X236809865Y72234050D01*
X236770190Y72218205D02*
X236698650Y72577500D01*
X236627105Y72218205D01*
X236587435Y72234050D02*
X236698650Y72577500D01*
X236484025Y72218205D01*
G04 #@! TO.N,446*
X235827105Y71418205D02*
X235898650Y71777500D01*
X236121080Y71434050D01*
X235676220Y71434050D02*
X235898650Y71777500D01*
X236113275Y71418205D01*
X235970190Y71418205D02*
X235898650Y71777500D01*
X235684025Y71418205D01*
G04 #@! TO.N,445*
X235321080Y72234050D02*
X235098650Y72577500D01*
X234884025Y72218205D01*
X235027105Y72218205D02*
X235098650Y72577500D01*
X235170190Y72218205D01*
X235209865Y72234050D02*
X235098650Y72577500D01*
X235313275Y72218205D01*
G04 #@! TO.N,444*
X234084025Y71418205D02*
X234298650Y71777500D01*
X234409865Y71434050D01*
X234370190Y71418205D02*
X234298650Y71777500D01*
X234513275Y71418205D01*
X234521080Y71434050D02*
X234298650Y71777500D01*
X234227105Y71418205D01*
G04 #@! TO.N,443*
X233609865Y72234050D02*
X233498650Y72577500D01*
X233427105Y72218205D01*
X233570190Y72218205D02*
X233498650Y72577500D01*
X233284025Y72218205D01*
X233387435Y72234050D02*
X233498650Y72577500D01*
X233713275Y72218205D01*
G04 #@! TO.N,442*
X232809865Y71434050D02*
X232698650Y71777500D01*
X232913275Y71418205D01*
X232484025Y71418205D02*
X232698650Y71777500D01*
X232476220Y71434050D01*
X232627105Y71418205D02*
X232698650Y71777500D01*
X232770190Y71418205D01*
G04 #@! TO.N,441*
X231684025Y72218205D02*
X231898650Y72577500D01*
X232113275Y72218205D01*
X231970190Y72218205D02*
X231898650Y72577500D01*
X231676220Y72234050D01*
X232009865Y72234050D02*
X231898650Y72577500D01*
X231827105Y72218205D01*
G04 #@! TO.N,440*
X230884025Y71418205D02*
X231098650Y71777500D01*
X231321080Y71434050D01*
X230876220Y71434050D02*
X231098650Y71777500D01*
X231313275Y71418205D01*
X231170190Y71418205D02*
X231098650Y71777500D01*
X231209865Y71434050D01*
X230987435Y71434050D02*
X231098650Y71777500D01*
X231027105Y71418205D01*
G04 #@! TO.N,439*
X230370190Y72218205D02*
X230298650Y72577500D01*
X230521080Y72234050D01*
X230409865Y72234050D02*
X230298650Y72577500D01*
X230227105Y72218205D01*
X230084025Y72218205D02*
X230298650Y72577500D01*
X230076220Y72234050D01*
X230187435Y72234050D02*
X230298650Y72577500D01*
X230513275Y72218205D01*
G04 #@! TO.N,435*
X229570190Y71418205D02*
X229498650Y71777500D01*
X229609865Y71434050D01*
X229276220Y71434050D02*
X229498650Y71777500D01*
X229713275Y71418205D01*
X229284025Y71418205D02*
X229498650Y71777500D01*
X229721080Y71434050D01*
X229387435Y71434050D02*
X229498650Y71777500D01*
X229427105Y71418205D01*
G04 #@! TO.N,438*
X228913275Y72218205D02*
X228698650Y72577500D01*
X228484025Y72218205D01*
X228627105Y72218205D02*
X228698650Y72577500D01*
X228770190Y72218205D01*
G04 #@! TO.N,436*
X227676220Y71434050D02*
X227898650Y71777500D01*
X227827105Y71418205D01*
X227970190Y71418205D02*
X227898650Y71777500D01*
X227684025Y71418205D01*
X228009865Y71434050D02*
X227898650Y71777500D01*
X228113275Y71418205D01*
G04 #@! TO.N,437*
X226884025Y72218205D02*
X227098650Y72577500D01*
X227170190Y72218205D01*
X227027105Y72218205D02*
X227098650Y72577500D01*
X227313275Y72218205D01*
G04 #@! TO.N,472*
X248484025Y66318305D02*
X248698645Y66677595D01*
X248627105Y66318305D02*
X248698650Y66677600D01*
G04 #@! TO.N,486*
X236627105Y66318305D02*
X236698650Y66677595D01*
X236484025Y66318305D01*
X236770190Y66318305D02*
X236698650Y66677595D01*
X236913275Y66318305D01*
G04 #@! TO.N,488*
X235170190Y66318305D02*
X235098650Y66677600D01*
X234884025Y66318305D01*
X235027105Y66318305D02*
X235098650Y66677595D01*
X235313275Y66318305D02*
X235098650Y66677600D01*
G04 #@! TO.N,490*
X233427105Y66318305D02*
X233498650Y66677595D01*
X233570190Y66318305D02*
X233498650Y66677600D01*
X233713275Y66318305D02*
X233498650Y66677595D01*
X233284025Y66318305D02*
X233498645Y66677595D01*
G04 #@! TO.N,496*
X228484025Y66318305D02*
X228698650Y66677600D01*
X228770190Y66318305D02*
X228698650Y66677595D01*
X228913275Y66318305D02*
X228698650Y66677600D01*
X228627105Y66318305D02*
X228698645Y66677595D01*
G04 #@! TO.N,467*
X252698650Y127390100D02*
Y130590100D01*
G04 #@! TO.N,468*
X251898650Y128190100D02*
Y130590100D01*
G04 #@! TO.N,469*
X251098650Y127390100D02*
Y130590100D01*
G04 #@! TO.N,470*
X250298650Y128190100D02*
Y130590100D01*
G04 #@! TO.N,471*
X249498650Y127390100D02*
Y130590100D01*
G04 #@! TO.N,472*
X248698650Y128190100D02*
Y130590100D01*
G04 #@! TO.N,473*
X247898650Y127390100D02*
Y130590100D01*
G04 #@! TO.N,474*
X247098650Y128190100D02*
Y130590100D01*
G04 #@! TO.N,475*
X246298650Y127390100D02*
Y130590100D01*
G04 #@! TO.N,476*
X245498650Y128190100D02*
Y130590100D01*
G04 #@! TO.N,477*
X244698650Y127390100D02*
Y130590100D01*
G04 #@! TO.N,478*
X243898650Y128190100D02*
Y130590100D01*
G04 #@! TO.N,479*
X243098650Y127390100D02*
Y130590100D01*
G04 #@! TO.N,480*
X242298650Y128190100D02*
Y130590100D01*
G04 #@! TO.N,481*
X241498650Y127390100D02*
Y130590100D01*
G04 #@! TO.N,482*
X240698650Y128190100D02*
Y130590100D01*
G04 #@! TO.N,483*
X239098650Y127390100D02*
Y130590100D01*
G04 #@! TO.N,484*
X238298650Y128190100D02*
Y130590100D01*
G04 #@! TO.N,485*
X237498650Y127390100D02*
Y130590100D01*
G04 #@! TO.N,486*
X236698650Y128190100D02*
Y130590100D01*
G04 #@! TO.N,487*
X235898650Y127390100D02*
Y130590100D01*
G04 #@! TO.N,488*
X235098650Y128190100D02*
Y130590100D01*
G04 #@! TO.N,489*
X234298650Y127390100D02*
Y130590100D01*
G04 #@! TO.N,490*
X233498650Y128190100D02*
Y130590100D01*
G04 #@! TO.N,491*
X232698650Y127390100D02*
Y130590100D01*
G04 #@! TO.N,492*
X231898650Y128190100D02*
Y130590100D01*
G04 #@! TO.N,493*
X231098650Y127390100D02*
Y130590100D01*
G04 #@! TO.N,494*
X230298650Y128190100D02*
Y130590100D01*
G04 #@! TO.N,495*
X229498650Y127390100D02*
Y130590100D01*
G04 #@! TO.N,496*
X228698650Y128190100D02*
Y130590100D01*
G04 #@! TO.N,497*
X227898650Y127390100D02*
Y130590100D01*
G04 #@! TO.N,498*
X227098650Y128190100D02*
Y130590100D01*
G04 #@! TO.N,465*
X252698650Y141290100D02*
Y138090100D01*
G04 #@! TO.N,466*
X251898650Y140490100D02*
Y138090100D01*
G04 #@! TO.N,464*
X251098650Y141290100D02*
Y138090100D01*
G04 #@! TO.N,463*
X250298650Y140490100D02*
Y138090100D01*
G04 #@! TO.N,462*
X249498650Y141290100D02*
Y138090100D01*
G04 #@! TO.N,461*
X248698650Y140490100D02*
Y138090100D01*
G04 #@! TO.N,460*
X247898650Y141290100D02*
Y138090100D01*
G04 #@! TO.N,459*
X247098650Y140490100D02*
Y138090100D01*
G04 #@! TO.N,458*
X246298650Y141290100D02*
Y138090100D01*
G04 #@! TO.N,457*
X245498650Y140490100D02*
Y138090100D01*
G04 #@! TO.N,456*
X244698650Y141290100D02*
Y138090100D01*
G04 #@! TO.N,455*
X243898650Y140490100D02*
Y138090100D01*
G04 #@! TO.N,454*
X243098650Y141290100D02*
Y138090100D01*
G04 #@! TO.N,453*
X242298650Y140490100D02*
Y138090100D01*
G04 #@! TO.N,452*
X241498650Y141290100D02*
Y138090100D01*
G04 #@! TO.N,451*
X240698650Y140490100D02*
Y138090100D01*
G04 #@! TO.N,450*
X239098650Y141290100D02*
Y138090100D01*
G04 #@! TO.N,449*
X238298650Y140490100D02*
Y138090100D01*
G04 #@! TO.N,448*
X237498650Y141290100D02*
Y138090100D01*
G04 #@! TO.N,447*
X236698650Y140490100D02*
Y138090100D01*
G04 #@! TO.N,446*
X235898650Y141290100D02*
Y138090100D01*
G04 #@! TO.N,445*
X235098650Y140490100D02*
Y138090100D01*
G04 #@! TO.N,444*
X234298650Y141290100D02*
Y138090100D01*
G04 #@! TO.N,443*
X233498650Y140490100D02*
Y138090100D01*
G04 #@! TO.N,442*
X232698650Y141290100D02*
Y138090100D01*
G04 #@! TO.N,441*
X231898650Y140490100D02*
Y138090100D01*
G04 #@! TO.N,440*
X231098650Y141290100D02*
Y138090100D01*
G04 #@! TO.N,439*
X230298650Y140490100D02*
Y138090100D01*
G04 #@! TO.N,435*
X229498650Y141290100D02*
Y138090100D01*
G04 #@! TO.N,438*
X228698650Y140490100D02*
Y138090100D01*
G04 #@! TO.N,436*
X227898650Y141290100D02*
Y138090100D01*
G04 #@! TO.N,437*
X227098650Y140490100D02*
Y138090100D01*
G04 #@! TO.N,467*
X252587435Y127534150D02*
X252698650Y127877600D01*
X252809865Y127534150D01*
G04 #@! TO.N,468*
X251676220Y128334150D02*
X251898650Y128677600D01*
X251787435Y128334150D01*
G04 #@! TO.N,471*
X249609865Y127534150D02*
X249498650Y127877600D01*
X249387435Y127534150D01*
G04 #@! TO.N,472*
X248476220Y128334150D02*
X248698650Y128677600D01*
X248921080Y128334150D01*
G04 #@! TO.N,473*
X248009865Y127534150D02*
X247898650Y127877600D01*
X247787435Y127534150D01*
X247676220Y127534150D02*
X247898650Y127877600D01*
X248121080Y127534150D01*
G04 #@! TO.N,474*
X246987435Y128334150D02*
X247098650Y128677600D01*
X247321080Y128334150D01*
G04 #@! TO.N,475*
X246409865Y127534150D02*
X246298650Y127877600D01*
X246076220Y127534150D01*
X246187435Y127534150D02*
X246298650Y127877600D01*
X246521080Y127534150D01*
G04 #@! TO.N,476*
X245276220Y128334150D02*
X245498650Y128677600D01*
X245609865Y128334150D01*
X245387435Y128334150D02*
X245498650Y128677600D01*
X245721080Y128334150D01*
G04 #@! TO.N,477*
X244809865Y127534150D02*
X244698650Y127877600D01*
X244476220Y127534150D01*
X244587435Y127534150D02*
X244698650Y127877600D01*
X244921080Y127534150D01*
G04 #@! TO.N,478*
X244009865Y128334150D02*
X243898650Y128677600D01*
X243676220Y128334150D01*
X243787435Y128334150D02*
X243898650Y128677600D01*
X244121080Y128334150D01*
G04 #@! TO.N,480*
X242409865Y128334150D02*
X242298650Y128677600D01*
X242187435Y128334150D01*
G04 #@! TO.N,481*
X241609865Y127534150D02*
X241498650Y127877600D01*
X241276220Y127534150D01*
G04 #@! TO.N,482*
X240809865Y128334150D02*
X240698650Y128677600D01*
X240587435Y128334150D01*
G04 #@! TO.N,483*
X239209865Y127534150D02*
X239098650Y127877600D01*
X238876220Y127534150D01*
G04 #@! TO.N,484*
X238076220Y128334150D02*
X238298650Y128677600D01*
X238187435Y128334150D01*
X238409865Y128334150D02*
X238298650Y128677600D01*
X238521080Y128334150D01*
G04 #@! TO.N,485*
X237276220Y127534150D02*
X237498650Y127877600D01*
X237387435Y127534150D01*
G04 #@! TO.N,486*
X236809865Y128334150D02*
X236698650Y128677600D01*
X236476220Y128334150D01*
X236587435Y128334150D02*
X236698650Y128677600D01*
X236921080Y128334150D01*
G04 #@! TO.N,487*
X235676220Y127534150D02*
X235898650Y127877600D01*
X236009865Y127534150D01*
X235787435Y127534150D02*
X235898650Y127877600D01*
X236121080Y127534150D01*
G04 #@! TO.N,488*
X235209865Y128334150D02*
X235098650Y128677600D01*
X234876220Y128334150D01*
X234987435Y128334150D02*
X235098650Y128677600D01*
X235321080Y128334150D01*
G04 #@! TO.N,489*
X234187435Y127534150D02*
X234298650Y127877600D01*
X234076220Y127534150D01*
X234409865Y127534150D02*
X234298650Y127877600D01*
X234521080Y127534150D01*
G04 #@! TO.N,490*
X233276220Y128334150D02*
X233498650Y128677600D01*
X233721080Y128334150D01*
G04 #@! TO.N,491*
X232809865Y127534150D02*
X232698650Y127877600D01*
X232476220Y127534150D01*
G04 #@! TO.N,493*
X230876220Y127534150D02*
X231098650Y127877600D01*
X231321080Y127534150D01*
G04 #@! TO.N,494*
X230409865Y128334150D02*
X230298650Y128677600D01*
X230521080Y128334150D01*
G04 #@! TO.N,495*
X229276220Y127534150D02*
X229498650Y127877600D01*
X229609865Y127534150D01*
X229387435Y127534150D02*
X229498650Y127877600D01*
X229721080Y127534150D01*
G04 #@! TO.N,496*
X228587435Y128334150D02*
X228698650Y128677600D01*
X228476220Y128334150D01*
X228809865Y128334150D02*
X228698650Y128677600D01*
X228921080Y128334150D01*
G04 #@! TO.N,497*
X227676220Y127534150D02*
X227898650Y127877600D01*
X228121080Y127534150D01*
G04 #@! TO.N,498*
X226987435Y128334150D02*
X227098650Y128677600D01*
X227209865Y128334150D01*
G04 #@! TO.N,465*
X252476220Y141146050D02*
X252698650Y140802600D01*
X252921080Y141146050D01*
G04 #@! TO.N,466*
X252009865Y140346050D02*
X251898650Y140002600D01*
X251676220Y140346050D01*
X251787435Y140346050D02*
X251898650Y140002600D01*
X252121080Y140346050D01*
G04 #@! TO.N,463*
X250409865Y140346050D02*
X250298650Y140002600D01*
X250076220Y140346050D01*
X250187435Y140346050D02*
X250298650Y140002600D01*
X250521080Y140346050D01*
G04 #@! TO.N,461*
X248809865Y140346050D02*
X248698650Y140002600D01*
X248476220Y140346050D01*
G04 #@! TO.N,460*
X247676220Y141146050D02*
X247898650Y140802600D01*
X247787435Y141146050D01*
G04 #@! TO.N,459*
X246876220Y140346050D02*
X247098650Y140002600D01*
X246987435Y140346050D01*
X247209865Y140346050D02*
X247098650Y140002600D01*
X247321080Y140346050D01*
G04 #@! TO.N,458*
X246409865Y141146050D02*
X246298650Y140802600D01*
X246187435Y141146050D01*
G04 #@! TO.N,457*
X245276220Y140346050D02*
X245498650Y140002600D01*
X245609865Y140346050D01*
G04 #@! TO.N,455*
X244009865Y140346050D02*
X243898650Y140002600D01*
X244121080Y140346050D01*
G04 #@! TO.N,454*
X242987435Y141146050D02*
X243098650Y140802600D01*
X243321080Y141146050D01*
G04 #@! TO.N,453*
X242187435Y140346050D02*
X242298650Y140002600D01*
X242409865Y140346050D01*
X242076220Y140346050D02*
X242298650Y140002600D01*
X242521080Y140346050D01*
G04 #@! TO.N,452*
X241387435Y141146050D02*
X241498650Y140802600D01*
X241721080Y141146050D01*
G04 #@! TO.N,450*
X239209865Y141146050D02*
X239098650Y140802600D01*
X239321080Y141146050D01*
G04 #@! TO.N,449*
X238076220Y140346050D02*
X238298650Y140002600D01*
X238521080Y140346050D01*
G04 #@! TO.N,448*
X237609865Y141146050D02*
X237498650Y140802600D01*
X237276220Y141146050D01*
X237387435Y141146050D02*
X237498650Y140802600D01*
X237721080Y141146050D01*
G04 #@! TO.N,447*
X236476220Y140346050D02*
X236698650Y140002600D01*
X236921080Y140346050D01*
G04 #@! TO.N,446*
X236009865Y141146050D02*
X235898650Y140802600D01*
X235787435Y141146050D01*
G04 #@! TO.N,445*
X234987435Y140346050D02*
X235098650Y140002600D01*
X234876220Y140346050D01*
G04 #@! TO.N,444*
X234076220Y141146050D02*
X234298650Y140802600D01*
X234187435Y141146050D01*
G04 #@! TO.N,443*
X233276220Y140346050D02*
X233498650Y140002600D01*
X233721080Y140346050D01*
G04 #@! TO.N,442*
X232587435Y141146050D02*
X232698650Y140802600D01*
X232921080Y141146050D01*
G04 #@! TO.N,441*
X231787435Y140346050D02*
X231898650Y140002600D01*
X232121080Y140346050D01*
G04 #@! TO.N,438*
X228587435Y140346050D02*
X228698650Y140002600D01*
X228476220Y140346050D01*
X228809865Y140346050D02*
X228698650Y140002600D01*
X228921080Y140346050D01*
G04 #@! TO.N,436*
X227787435Y141146050D02*
X227898650Y140802600D01*
X228121080Y141146050D01*
G04 #@! TO.N,437*
X227209865Y140346050D02*
X227098650Y140002600D01*
X226987435Y140346050D01*
X226876220Y140346050D02*
X227098650Y140002600D01*
X227321080Y140346050D01*
G04 #@! TO.N,467*
X252770190Y127518305D02*
X252698650Y127877600D01*
X252476220Y127534150D01*
X252921080Y127534150D02*
X252698650Y127877600D01*
X252627105Y127518305D01*
X252913275Y127518305D02*
X252698650Y127877600D01*
X252484025Y127518305D01*
G04 #@! TO.N,468*
X251898650Y128677600D02*
X252121080Y128334150D01*
X251684025Y128318305D02*
X251898650Y128677595D01*
X251970190Y128318305D02*
X251898650Y128677600D01*
X251827105Y128318305D02*
X251898650Y128677595D01*
X252113275Y128318305D02*
X251898650Y128677600D01*
X252009865Y128334150D01*
G04 #@! TO.N,469*
X250884025Y127518305D02*
X251098650Y127877600D01*
X250876220Y127534150D01*
X250987435Y127534150D02*
X251098650Y127877600D01*
X251027105Y127518305D01*
X251170190Y127518305D02*
X251098650Y127877600D01*
X251209865Y127534150D01*
X251321080Y127534150D02*
X251098650Y127877600D01*
X251313275Y127518305D01*
G04 #@! TO.N,470*
X250521080Y128334150D02*
X250298650Y128677600D01*
X250409865Y128334150D01*
X250187435Y128334150D02*
X250298650Y128677600D01*
X250084025Y128318305D02*
X250298645Y128677595D01*
X250513270Y128318310D02*
X250298645Y128677595D01*
X250227105Y128318305D02*
X250298650Y128677595D01*
X250370190Y128318305D02*
X250298650Y128677600D01*
X250076220Y128334150D01*
G04 #@! TO.N,471*
X249570190Y127518305D02*
X249498650Y127877600D01*
X249721080Y127534150D01*
X249284025Y127518305D02*
X249498650Y127877600D01*
X249427105Y127518305D01*
X249276220Y127534150D02*
X249498650Y127877600D01*
X249713275Y127518305D01*
G04 #@! TO.N,472*
X248587435Y128334150D02*
X248698650Y128677600D01*
X248809865Y128334150D01*
X248770185Y128318305D02*
X248698645Y128677595D01*
X248913270Y128318310D01*
G04 #@! TO.N,473*
X247970190Y127518305D02*
X247898650Y127877600D01*
X247684025Y127518305D01*
X247827105Y127518305D02*
X247898650Y127877600D01*
X248113275Y127518305D01*
G04 #@! TO.N,474*
X247027105Y128318305D02*
X247098650Y128677595D01*
X247098650Y128677600D02*
X246876220Y128334150D01*
X247209865Y128334150D02*
X247098650Y128677600D01*
X247170190Y128318305D02*
X247098650Y128677595D01*
X246884025Y128318305D02*
X247098645Y128677595D01*
X247313270Y128318310D01*
G04 #@! TO.N,475*
X246227105Y127518305D02*
X246298650Y127877600D01*
X246370190Y127518305D01*
X246513275Y127518305D02*
X246298650Y127877600D01*
X246084025Y127518305D01*
G04 #@! TO.N,476*
X245427105Y128318305D02*
X245498650Y128677600D01*
X245284025Y128318305D01*
X245570190Y128318305D02*
X245498650Y128677600D01*
X245713275Y128318305D02*
X245498650Y128677595D01*
G04 #@! TO.N,477*
X244770190Y127518305D02*
X244698650Y127877600D01*
X244627105Y127518305D01*
X244913275Y127518305D02*
X244698650Y127877600D01*
X244484025Y127518305D01*
G04 #@! TO.N,478*
X243684025Y128318305D02*
X243898650Y128677600D01*
X244113275Y128318305D01*
X243827105Y128318305D02*
X243898650Y128677600D01*
X243970190Y128318305D02*
X243898650Y128677595D01*
G04 #@! TO.N,479*
X242884025Y127518305D02*
X243098650Y127877600D01*
X243321080Y127534150D01*
X243209865Y127534150D02*
X243098650Y127877600D01*
X243027105Y127518305D01*
X243170190Y127518305D02*
X243098650Y127877600D01*
X242987435Y127534150D01*
X242876220Y127534150D02*
X243098650Y127877600D01*
X243313275Y127518305D01*
G04 #@! TO.N,480*
X242298650Y128677600D02*
X242076220Y128334150D01*
X242521080Y128334150D02*
X242298650Y128677600D01*
X242370190Y128318305D02*
X242298650Y128677595D01*
X242513275Y128318305D01*
X242227105Y128318305D02*
X242298645Y128677595D01*
X242084025Y128318305D01*
G04 #@! TO.N,481*
X241570190Y127518305D02*
X241498650Y127877600D01*
X241284025Y127518305D01*
X241713275Y127518305D02*
X241498650Y127877600D01*
X241387435Y127534150D01*
X241721080Y127534150D02*
X241498650Y127877600D01*
X241427105Y127518305D01*
G04 #@! TO.N,482*
X240698650Y128677600D02*
X240921080Y128334150D01*
X240698650Y128677600D02*
X240484025Y128318305D01*
X240913270Y128318310D02*
X240698645Y128677595D01*
X240627105Y128318305D02*
X240698650Y128677595D01*
X240770190Y128318305D02*
X240698650Y128677600D01*
X240476220Y128334150D01*
G04 #@! TO.N,483*
X238884025Y127518305D02*
X239098650Y127877600D01*
X239321080Y127534150D01*
X239170190Y127518305D02*
X239098650Y127877600D01*
X239313275Y127518305D01*
X238987435Y127534150D02*
X239098650Y127877600D01*
X239027105Y127518305D01*
G04 #@! TO.N,484*
X238370190Y128318305D02*
X238298650Y128677595D01*
X238513275Y128318305D02*
X238298650Y128677600D01*
X238084025Y128318305D02*
X238298645Y128677595D01*
X238227105Y128318305D01*
G04 #@! TO.N,485*
X237570190Y127518305D02*
X237498650Y127877600D01*
X237609865Y127534150D01*
X237284025Y127518305D02*
X237498650Y127877600D01*
X237427105Y127518305D01*
X237721080Y127534150D02*
X237498650Y127877600D01*
X237713275Y127518305D01*
G04 #@! TO.N,487*
X235684025Y127518305D02*
X235898650Y127877600D01*
X235827105Y127518305D01*
X235970190Y127518305D02*
X235898650Y127877600D01*
X236113275Y127518305D01*
G04 #@! TO.N,489*
X234370190Y127518305D02*
X234298650Y127877600D01*
X234227105Y127518305D01*
X234084025Y127518305D02*
X234298650Y127877600D01*
X234513275Y127518305D01*
G04 #@! TO.N,490*
X233498650Y128677600D02*
X233387435Y128334150D01*
X233609865Y128334150D02*
X233498650Y128677600D01*
G04 #@! TO.N,491*
X232921080Y127534150D02*
X232698650Y127877600D01*
X232913275Y127518305D01*
X232770190Y127518305D02*
X232698650Y127877600D01*
X232587435Y127534150D01*
X232484025Y127518305D02*
X232698650Y127877600D01*
X232627105Y127518305D01*
G04 #@! TO.N,492*
X232121080Y128334150D02*
X231898650Y128677600D01*
X231684025Y128318305D02*
X231898650Y128677595D01*
X232113275Y128318305D02*
X231898650Y128677600D01*
X231787435Y128334150D01*
X232009865Y128334150D02*
X231898650Y128677600D01*
X231827105Y128318305D02*
X231898650Y128677595D01*
X231970190Y128318305D02*
X231898650Y128677600D01*
X231676220Y128334150D01*
G04 #@! TO.N,493*
X231170190Y127518305D02*
X231098650Y127877600D01*
X231209865Y127534150D01*
X230987435Y127534150D02*
X231098650Y127877600D01*
X230884025Y127518305D01*
X231027105Y127518305D02*
X231098650Y127877600D01*
X231313275Y127518305D01*
G04 #@! TO.N,494*
X230076220Y128334150D02*
X230298650Y128677600D01*
X230084025Y128318305D02*
X230298650Y128677595D01*
X230513275Y128318305D02*
X230298650Y128677600D01*
X230227105Y128318305D02*
X230298650Y128677595D01*
X230370190Y128318305D02*
X230298650Y128677600D01*
X230187435Y128334150D01*
G04 #@! TO.N,495*
X229427105Y127518305D02*
X229498650Y127877600D01*
X229713275Y127518305D01*
X229570190Y127518305D02*
X229498650Y127877600D01*
X229284025Y127518305D01*
G04 #@! TO.N,497*
X227787435Y127534150D02*
X227898650Y127877600D01*
X227970190Y127518305D01*
X228113275Y127518305D02*
X227898650Y127877600D01*
X227684025Y127518305D01*
X228009865Y127534150D02*
X227898650Y127877600D01*
X227827105Y127518305D01*
G04 #@! TO.N,498*
X226876220Y128334150D02*
X227098650Y128677600D01*
X226884025Y128318305D02*
X227098650Y128677595D01*
X227321080Y128334150D02*
X227098650Y128677600D01*
X227027105Y128318305D02*
X227098645Y128677595D01*
X227313275Y128318305D02*
X227098650Y128677600D01*
X227170190Y128318305D01*
G04 #@! TO.N,465*
X252484025Y141161895D02*
X252698650Y140802600D01*
X252770190Y141161895D01*
X252913275Y141161895D02*
X252698650Y140802600D01*
X252809865Y141146050D01*
X252587435Y141146050D02*
X252698650Y140802600D01*
X252627105Y141161895D01*
G04 #@! TO.N,466*
X252113275Y140361895D02*
X251898650Y140002600D01*
X251684025Y140361895D01*
X251970190Y140361895D02*
X251898650Y140002600D01*
X251827105Y140361895D01*
G04 #@! TO.N,464*
X251170190Y141161895D02*
X251098650Y140802600D01*
X251321080Y141146050D01*
X250876220Y141146050D02*
X251098650Y140802600D01*
X251313275Y141161895D01*
X251027105Y141161895D02*
X251098650Y140802600D01*
X250987435Y141146050D01*
X251209865Y141146050D02*
X251098650Y140802600D01*
X250884025Y141161895D01*
G04 #@! TO.N,463*
X250227105Y140361895D02*
X250298650Y140002600D01*
X250370190Y140361895D01*
X250084025Y140361895D02*
X250298650Y140002600D01*
X250513275Y140361895D01*
G04 #@! TO.N,462*
X249570190Y141161895D02*
X249498650Y140802600D01*
X249609865Y141146050D01*
X249721080Y141146050D02*
X249498650Y140802600D01*
X249427105Y141161895D01*
X249284025Y141161895D02*
X249498650Y140802600D01*
X249276220Y141146050D01*
X249387435Y141146050D02*
X249498650Y140802600D01*
X249713275Y141161895D01*
G04 #@! TO.N,461*
X248770190Y140361895D02*
X248698650Y140002600D01*
X248921080Y140346050D01*
X248627105Y140361895D02*
X248698650Y140002600D01*
X248484025Y140361895D01*
X248587435Y140346050D02*
X248698650Y140002600D01*
X248913275Y140361895D01*
G04 #@! TO.N,460*
X247970190Y141161895D02*
X247898650Y140802600D01*
X248009865Y141146050D01*
X247684025Y141161895D02*
X247898650Y140802600D01*
X248121080Y141146050D01*
X247827105Y141161895D02*
X247898650Y140802600D01*
X248113275Y141161895D01*
G04 #@! TO.N,459*
X246884025Y140361895D02*
X247098650Y140002600D01*
X247027105Y140361895D01*
X247313275Y140361895D02*
X247098650Y140002600D01*
X247170190Y140361895D01*
G04 #@! TO.N,458*
X246370190Y141161895D02*
X246298650Y140802600D01*
X246227105Y141161895D01*
X246084025Y141161895D02*
X246298650Y140802600D01*
X246076220Y141146050D01*
X246521080Y141146050D02*
X246298650Y140802600D01*
X246513275Y141161895D01*
G04 #@! TO.N,457*
X245284025Y140361895D02*
X245498650Y140002600D01*
X245427105Y140361895D01*
X245570190Y140361895D02*
X245498650Y140002600D01*
X245387435Y140346050D01*
X245721080Y140346050D02*
X245498650Y140002600D01*
X245713275Y140361895D01*
G04 #@! TO.N,456*
X244484025Y141161895D02*
X244698650Y140802600D01*
X244587435Y141146050D01*
X244921080Y141146050D02*
X244698650Y140802600D01*
X244770190Y141161895D01*
X244913275Y141161895D02*
X244698650Y140802600D01*
X244476220Y141146050D01*
X244809865Y141146050D02*
X244698650Y140802600D01*
X244627105Y141161895D01*
G04 #@! TO.N,455*
X243684025Y140361895D02*
X243898650Y140002600D01*
X243676220Y140346050D01*
X243787435Y140346050D02*
X243898650Y140002600D01*
X244113275Y140361895D01*
X243970190Y140361895D02*
X243898650Y140002600D01*
X243827105Y140361895D01*
G04 #@! TO.N,454*
X242876220Y141146050D02*
X243098650Y140802600D01*
X243027105Y141161895D01*
X243313275Y141161895D02*
X243098650Y140802600D01*
X243209865Y141146050D01*
X243170190Y141161895D02*
X243098650Y140802600D01*
X242884025Y141161895D01*
G04 #@! TO.N,453*
X242227105Y140361895D02*
X242298650Y140002600D01*
X242513275Y140361895D01*
X242370190Y140361895D02*
X242298650Y140002600D01*
X242084025Y140361895D01*
G04 #@! TO.N,452*
X241284025Y141161895D02*
X241498650Y140802600D01*
X241570190Y141161895D01*
X241427105Y141161895D02*
X241498650Y140802600D01*
X241609865Y141146050D01*
X241276220Y141146050D02*
X241498650Y140802600D01*
X241713275Y141161895D01*
G04 #@! TO.N,451*
X240484025Y140361895D02*
X240698650Y140002600D01*
X240476220Y140346050D01*
X240809865Y140346050D02*
X240698650Y140002600D01*
X240770190Y140361895D01*
X240913275Y140361895D02*
X240698650Y140002600D01*
X240587435Y140346050D01*
X240921080Y140346050D02*
X240698650Y140002600D01*
X240627105Y140361895D01*
G04 #@! TO.N,450*
X239170190Y141161895D02*
X239098650Y140802600D01*
X238987435Y141146050D01*
X238876220Y141146050D02*
X239098650Y140802600D01*
X239313275Y141161895D01*
X238884025Y141161895D02*
X239098650Y140802600D01*
X239027105Y141161895D01*
G04 #@! TO.N,449*
X238084025Y140361895D02*
X238298650Y140002600D01*
X238513275Y140361895D01*
X238227105Y140361895D02*
X238298650Y140002600D01*
X238409865Y140346050D01*
X238187435Y140346050D02*
X238298650Y140002600D01*
X238370190Y140361895D01*
G04 #@! TO.N,448*
X237284025Y141161895D02*
X237498650Y140802600D01*
X237713275Y141161895D01*
X237570190Y141161895D02*
X237498650Y140802600D01*
X237427105Y141161895D01*
G04 #@! TO.N,447*
X236913275Y140361895D02*
X236698650Y140002600D01*
X236809865Y140346050D01*
X236770190Y140361895D02*
X236698650Y140002600D01*
X236627105Y140361895D01*
X236587435Y140346050D02*
X236698650Y140002600D01*
X236484025Y140361895D01*
G04 #@! TO.N,446*
X235827105Y141161895D02*
X235898650Y140802600D01*
X236121080Y141146050D01*
X235676220Y141146050D02*
X235898650Y140802600D01*
X236113275Y141161895D01*
X235970190Y141161895D02*
X235898650Y140802600D01*
X235684025Y141161895D01*
G04 #@! TO.N,445*
X235321080Y140346050D02*
X235098650Y140002600D01*
X234884025Y140361895D01*
X235027105Y140361895D02*
X235098650Y140002600D01*
X235170190Y140361895D01*
X235209865Y140346050D02*
X235098650Y140002600D01*
X235313275Y140361895D01*
G04 #@! TO.N,444*
X234084025Y141161895D02*
X234298650Y140802600D01*
X234409865Y141146050D01*
X234370190Y141161895D02*
X234298650Y140802600D01*
X234513275Y141161895D01*
X234521080Y141146050D02*
X234298650Y140802600D01*
X234227105Y141161895D01*
G04 #@! TO.N,443*
X233609865Y140346050D02*
X233498650Y140002600D01*
X233427105Y140361895D01*
X233570190Y140361895D02*
X233498650Y140002600D01*
X233284025Y140361895D01*
X233387435Y140346050D02*
X233498650Y140002600D01*
X233713275Y140361895D01*
G04 #@! TO.N,442*
X232809865Y141146050D02*
X232698650Y140802600D01*
X232913275Y141161895D01*
X232484025Y141161895D02*
X232698650Y140802600D01*
X232476220Y141146050D01*
X232627105Y141161895D02*
X232698650Y140802600D01*
X232770190Y141161895D01*
G04 #@! TO.N,441*
X231684025Y140361895D02*
X231898650Y140002600D01*
X232113275Y140361895D01*
X231970190Y140361895D02*
X231898650Y140002600D01*
X231676220Y140346050D01*
X232009865Y140346050D02*
X231898650Y140002600D01*
X231827105Y140361895D01*
G04 #@! TO.N,440*
X230884025Y141161895D02*
X231098650Y140802600D01*
X231321080Y141146050D01*
X230876220Y141146050D02*
X231098650Y140802600D01*
X231313275Y141161895D01*
X231170190Y141161895D02*
X231098650Y140802600D01*
X231209865Y141146050D01*
X230987435Y141146050D02*
X231098650Y140802600D01*
X231027105Y141161895D01*
G04 #@! TO.N,439*
X230370190Y140361895D02*
X230298650Y140002600D01*
X230521080Y140346050D01*
X230409865Y140346050D02*
X230298650Y140002600D01*
X230227105Y140361895D01*
X230084025Y140361895D02*
X230298650Y140002600D01*
X230076220Y140346050D01*
X230187435Y140346050D02*
X230298650Y140002600D01*
X230513275Y140361895D01*
G04 #@! TO.N,435*
X229570190Y141161895D02*
X229498650Y140802600D01*
X229609865Y141146050D01*
X229276220Y141146050D02*
X229498650Y140802600D01*
X229713275Y141161895D01*
X229284025Y141161895D02*
X229498650Y140802600D01*
X229721080Y141146050D01*
X229387435Y141146050D02*
X229498650Y140802600D01*
X229427105Y141161895D01*
G04 #@! TO.N,438*
X228913275Y140361895D02*
X228698650Y140002600D01*
X228484025Y140361895D01*
X228627105Y140361895D02*
X228698650Y140002600D01*
X228770190Y140361895D01*
G04 #@! TO.N,436*
X227676220Y141146050D02*
X227898650Y140802600D01*
X227827105Y141161895D01*
X227970190Y141161895D02*
X227898650Y140802600D01*
X227684025Y141161895D01*
X228009865Y141146050D02*
X227898650Y140802600D01*
X228113275Y141161895D01*
G04 #@! TO.N,437*
X226884025Y140361895D02*
X227098650Y140002600D01*
X227170190Y140361895D01*
X227027105Y140361895D02*
X227098650Y140002600D01*
X227313275Y140361895D01*
G04 #@! TO.N,472*
X248484025Y128318305D02*
X248698645Y128677595D01*
X248627105Y128318305D02*
X248698650Y128677600D01*
G04 #@! TO.N,486*
X236627105Y128318305D02*
X236698650Y128677595D01*
X236484025Y128318305D01*
X236770190Y128318305D02*
X236698650Y128677595D01*
X236913275Y128318305D01*
G04 #@! TO.N,488*
X235170190Y128318305D02*
X235098650Y128677600D01*
X234884025Y128318305D01*
X235027105Y128318305D02*
X235098650Y128677595D01*
X235313275Y128318305D02*
X235098650Y128677600D01*
G04 #@! TO.N,490*
X233427105Y128318305D02*
X233498650Y128677595D01*
X233570190Y128318305D02*
X233498650Y128677600D01*
X233713275Y128318305D02*
X233498650Y128677595D01*
X233284025Y128318305D02*
X233498645Y128677595D01*
G04 #@! TO.N,496*
X228484025Y128318305D02*
X228698650Y128677600D01*
X228770190Y128318305D02*
X228698650Y128677595D01*
X228913275Y128318305D02*
X228698650Y128677600D01*
X228627105Y128318305D02*
X228698645Y128677595D01*
G04 #@! TO.N,465*
X252698650Y71290000D02*
Y76090100D01*
G04 #@! TO.N,466*
X251898650Y72090000D02*
Y76090100D01*
G04 #@! TO.N,464*
X251098650Y71290000D02*
Y76090100D01*
G04 #@! TO.N,463*
X250298650Y72090000D02*
Y76090100D01*
G04 #@! TO.N,462*
X249498650Y71290000D02*
Y76090100D01*
G04 #@! TO.N,461*
X248698650Y72090000D02*
Y76090100D01*
G04 #@! TO.N,460*
X247898650Y71290000D02*
Y76090100D01*
G04 #@! TO.N,459*
X247098650Y72090000D02*
Y76090100D01*
G04 #@! TO.N,458*
X246298650Y71290000D02*
Y76090100D01*
G04 #@! TO.N,457*
X245498650Y72090000D02*
Y76090100D01*
G04 #@! TO.N,456*
X244698650Y71290000D02*
Y76090100D01*
G04 #@! TO.N,455*
X243898650Y72090000D02*
Y76090100D01*
G04 #@! TO.N,454*
X243098650Y71290000D02*
Y76090100D01*
G04 #@! TO.N,453*
X242298650Y72090000D02*
Y76090100D01*
G04 #@! TO.N,452*
X241498650Y71290000D02*
Y76090100D01*
G04 #@! TO.N,451*
X240698650Y72090000D02*
Y76090100D01*
G04 #@! TO.N,450*
X239098650Y71290000D02*
Y76090100D01*
G04 #@! TO.N,449*
X238298650Y72090000D02*
Y76090100D01*
G04 #@! TO.N,448*
X237498650Y71290000D02*
Y76090100D01*
G04 #@! TO.N,447*
X236698650Y72090000D02*
Y76090100D01*
G04 #@! TO.N,446*
X235898650Y71290000D02*
Y76090100D01*
G04 #@! TO.N,445*
X235098650Y72090000D02*
Y76090100D01*
G04 #@! TO.N,444*
X234298650Y71290000D02*
Y76090100D01*
G04 #@! TO.N,443*
X233498650Y72090000D02*
Y76090100D01*
G04 #@! TO.N,442*
X232698650Y71290000D02*
Y76090100D01*
G04 #@! TO.N,441*
X231898650Y72090000D02*
Y76090100D01*
G04 #@! TO.N,440*
X231098650Y71290000D02*
Y76090100D01*
G04 #@! TO.N,439*
X230298650Y72090000D02*
Y76090100D01*
G04 #@! TO.N,435*
X229498650Y71290000D02*
Y76090100D01*
G04 #@! TO.N,438*
X228698650Y72090000D02*
Y76090100D01*
G04 #@! TO.N,436*
X227898650Y71290000D02*
Y76090100D01*
G04 #@! TO.N,437*
X227098650Y72090000D02*
Y76090100D01*
G04 #@! TO.N,809*
D13*
X222992550Y41090100D02*
X226298650D01*
X253498650Y41090100D02*
X256934350D01*
X239898650Y41090100D02*
Y33090100D01*
Y30462500D01*
X226298650Y33090100D02*
Y30462500D01*
X253498650Y33090100D02*
Y30575140D01*
X239903750Y165590200D02*
Y173590200D01*
Y176217800D01*
X253503750Y173590200D02*
Y176217800D01*
X226303750Y173590200D02*
Y176105160D01*
X222992550Y76090100D02*
X226298650D01*
X253498650Y76090100D02*
X256934350D01*
X239898650Y76090100D02*
Y68090100D01*
Y65462500D01*
X222992550Y138590100D02*
X226298650D01*
X253498650Y138590100D02*
X256934350D01*
X239898650Y138590100D02*
Y130590100D01*
Y127962500D01*
G04 #@! TO.N,0*
X226303750Y176217800D02*
X253503750D01*
X226298650Y30462500D02*
X253498650D01*
X256809850Y33773700D01*
X226298650Y30462500D02*
X222992550Y33768600D01*
X226303750Y176217800D02*
X222992550Y174306080D01*
X253503750Y176217800D02*
X256809850Y174309020D01*
X222992550Y33768600D02*
Y174193440D01*
X256809850Y174196380D02*
Y33773700D01*
G04 #@! TO.N,809*
X226303750Y165590200D02*
X222992550D01*
X256809850Y165590200D02*
X253503750D01*
X222992550Y130590100D02*
X226298650D01*
X253498650Y130590100D02*
X256934350D01*
X222992550Y68090100D02*
X226298650D01*
X253498650Y68090100D02*
X256934350D01*
G04 #@! TO.N,0*
X222992550Y132640800D02*
X256809850D01*
X222992550Y70140800D02*
X256809850D01*
D14*
X237850000Y84989995D03*
X236850000D03*
X235850000D03*
X234850000D03*
X233850000D03*
X232850000D03*
X231850000D03*
X230850000D03*
X229850000D03*
X228850000D03*
X237850000Y85989995D03*
X236850000D03*
X235850000D03*
X234850000D03*
X233850000D03*
X232850000D03*
X231850000D03*
X230850000D03*
X229850000D03*
X228850000D03*
X237850000Y86989995D03*
X236850000D03*
X235850000D03*
X234850000D03*
X233850000D03*
X232850000D03*
X231850000D03*
X230850000D03*
X229850000D03*
X228850000D03*
X237850000Y87989995D03*
X236850000D03*
X235850000D03*
X234850000D03*
X233850000D03*
X232850000D03*
X231850000D03*
X230850000D03*
X229850000D03*
X228850000D03*
X237850000Y88989995D03*
X236850000D03*
X235850000D03*
X234850000D03*
X233850000D03*
X232850000D03*
X231850000D03*
X230850000D03*
X229850000D03*
X228850000D03*
X237850000Y89989995D03*
X236850000D03*
X235850000D03*
X234850000D03*
X233850000D03*
X232850000D03*
X231850000D03*
X230850000D03*
X229850000D03*
X228850000D03*
X237850000Y90989995D03*
X236850000D03*
X235850000D03*
X234850000D03*
X233850000D03*
X232850000D03*
X231850000D03*
X230850000D03*
X229850000D03*
X228850000D03*
X237850000Y91989995D03*
X236850000D03*
X235850000D03*
X234850000D03*
X233850000D03*
X232850000D03*
X231850000D03*
X230850000D03*
X229850000D03*
X228850000D03*
X237850000Y92989995D03*
X236850000D03*
X235850000D03*
X234850000D03*
X233850000D03*
X232850000D03*
X231850000D03*
X230850000D03*
X229850000D03*
X228850000D03*
X237850000Y93989995D03*
X236850000D03*
X235850000D03*
X234850000D03*
X233850000D03*
X232850000D03*
X231850000D03*
X230850000D03*
X229850000D03*
X228850000D03*
X237850000Y94989995D03*
X236850000D03*
X235850000D03*
X234850000D03*
X233850000D03*
X232850000D03*
X231850000D03*
X230850000D03*
X229850000D03*
X228850000D03*
X237850000Y95989995D03*
X236850000D03*
X235850000D03*
X234850000D03*
X233850000D03*
X232850000D03*
X231850000D03*
X230850000D03*
X229850000D03*
X228850000D03*
X237850000Y96989995D03*
X236850000D03*
X235850000D03*
X234850000D03*
X233850000D03*
X232850000D03*
X231850000D03*
X230850000D03*
X229850000D03*
X228850000D03*
X237850000Y97989995D03*
X236850000D03*
X235850000D03*
X234850000D03*
X233850000D03*
X232850000D03*
X231850000D03*
X230850000D03*
X229850000D03*
X228850000D03*
X237850000Y98989995D03*
X236850000D03*
X235850000D03*
X234850000D03*
X233850000D03*
X232850000D03*
X231850000D03*
X230850000D03*
X229850000D03*
X228850000D03*
X237850000Y99989995D03*
X236850000D03*
X235850000D03*
X234850000D03*
X233850000D03*
X232850000D03*
X231850000D03*
X230850000D03*
X229850000D03*
X228850000D03*
X237850000Y100989995D03*
X236850000D03*
X235850000D03*
X234850000D03*
X233850000D03*
X232850000D03*
X231850000D03*
X230850000D03*
X229850000D03*
X228850000D03*
X237850000Y101989995D03*
X236850000D03*
X235850000D03*
X234850000D03*
X233850000D03*
X232850000D03*
X231850000D03*
X230850000D03*
X229850000D03*
X228850000D03*
X237850000Y102989995D03*
X236850000D03*
X235850000D03*
X234850000D03*
X233850000D03*
X232850000D03*
X231850000D03*
X230850000D03*
X229850000D03*
X228850000D03*
X237850000Y103989995D03*
X236850000D03*
X235850000D03*
X234850000D03*
X233850000D03*
X232850000D03*
X231850000D03*
X230850000D03*
X229850000D03*
X228850000D03*
X237850000Y104989995D03*
X236850000D03*
X235850000D03*
X234850000D03*
X233850000D03*
X232850000D03*
X231850000D03*
X230850000D03*
X229850000D03*
X228850000D03*
X237850000Y105989995D03*
X236850000D03*
X235850000D03*
X234850000D03*
X233850000D03*
X232850000D03*
X231850000D03*
X230850000D03*
X229850000D03*
X228850000D03*
X237850000Y106989995D03*
X236850000D03*
X235850000D03*
X234850000D03*
X233850000D03*
X232850000D03*
X231850000D03*
X230850000D03*
X229850000D03*
X228850000D03*
X237850000Y107989995D03*
X236850000D03*
X235850000D03*
X234850000D03*
X233850000D03*
X232850000D03*
X231850000D03*
X230850000D03*
X229850000D03*
X228850000D03*
X237850000Y108989995D03*
X236850000D03*
X235850000D03*
X234850000D03*
X233850000D03*
X232850000D03*
X231850000D03*
X230850000D03*
X229850000D03*
X228850000D03*
X237850000Y109989995D03*
X236850000D03*
X235850000D03*
X234850000D03*
X233850000D03*
X232850000D03*
X231850000D03*
X230850000D03*
X229850000D03*
X228850000D03*
X237850000Y110989995D03*
X236850000D03*
X235850000D03*
X234850000D03*
X233850000D03*
X232850000D03*
X231850000D03*
X230850000D03*
X229850000D03*
X228850000D03*
X237850000Y111989995D03*
X236850000D03*
X235850000D03*
X234850000D03*
X233850000D03*
X232850000D03*
X231850000D03*
X230850000D03*
X229850000D03*
X228850000D03*
X237850000Y112989995D03*
X236850000D03*
X235850000D03*
X234850000D03*
X233850000D03*
X232850000D03*
X231850000D03*
X230850000D03*
X229850000D03*
X228850000D03*
X237850000Y113989995D03*
X236850000D03*
X235850000D03*
X234850000D03*
X233850000D03*
X232850000D03*
X231850000D03*
X230850000D03*
X229850000D03*
X228850000D03*
D15*
X239898650Y65462500D02*
Y30462500D01*
X239898650Y65462500D02*
Y176217800D01*
X256809850Y104989995D02*
X239898650D01*
X256809850Y103989995D02*
X239898650D01*
X256809850Y94989995D02*
X239898650D01*
X256809850Y93989995D02*
X239898650D01*
X222992550Y104989995D02*
X228100000D01*
X222992550Y103989995D02*
X228100000D01*
X222992550Y94989995D02*
X228100000D01*
X222992550Y93989995D02*
X228100000D01*
X243707450Y104989995D02*
X238600000D01*
X243707450Y103989995D02*
X238600000D01*
X243707450Y94989995D02*
X238600000D01*
X243707450Y93989995D02*
X238600000D01*
D16*
X228850000Y104989995D02*
X237850000D01*
X228850000Y93989995D02*
X237850000D01*
X228850000Y94989995D02*
X237850000D01*
X228850000Y103989995D02*
X237850000D01*
X233850000Y101989995D02*
Y104989995D01*
X233850000Y96989995D02*
Y95989995D01*
Y93989995D01*
X239898650Y127962500D02*
Y76090100D01*
X237850000Y104989995D02*
X256809850D01*
X237850000Y103989995D02*
X256809850D01*
X237850000Y93989995D02*
X256809850D01*
X237850000Y94989995D02*
X256809850D01*
X228850000Y104989995D02*
X222992550D01*
X228850000Y103989995D02*
X222992550D01*
X228850000Y94989995D02*
X222992550D01*
X228850000Y93989995D02*
X222992550D01*
D17*
X240500000Y94590000D03*
Y105090000D03*
X225500000Y94590000D03*
Y105090000D03*
X240500000Y115590000D03*
Y84090000D03*
%LPC*%
D18*
X240500000Y94590000D03*
Y105090000D03*
X225500000Y94590000D03*
Y105090000D03*
X240500000Y115590000D03*
Y84090000D03*
%LPD*%
D19*
X249353840Y104989995D03*
X249203450Y93989995D03*
%LPD*%
M02*