G04 #@! TF.FileFunction,Copper,L2,Inr*
G04 #@! TF.FilePolarity,Positive*
G04 #@! TF.SameCoordinates,7kUT78nNERSz2yLT6yVT75H2gAgWAaL*
G04 #@! TF.CreationDate,2025-09-04T08:29:34+0200*
G04 #@! TF.GenerationSoftware,Ucamco,UcamX,v2023.12-240208*
%FSLAX36Y36*%
%MOMM*%
%ADD10C,0.100000*%
%AMBOXR*
$16=$1/2*
$17=$2/2*
$8=$16-$3*
$9=$17-$3*
$10=$8X$6*
$11=$8X$5*
$12=$9X$6*
$13=$9X$5*
$15=2X$3*
$18=0-$10*
$19=0-$11*
21,1-$7,$1,$2-$15,0,0,$4*
21,1-$7,$1-$15,$2,0,0,$4*
1,1-$7,$15,$10-$13,$11+$12*
1,1-$7,$15,$18-$13,$12-$11*
1,1-$7,$15,$10+$13,$11-$12*
1,1-$7,$15,$13-$10,$19-$12*%
%ADD11BOXR,0.700000X0.520000X0.250000X0.00X0X1X0*%
%ADD12C,0.200000*%
%ADD13C,0.500000*%
%ADD14C,0.650000*%
G04 layer name: DFS3498AM1_L2*
%LPD*%
D10*
X232850000Y89989995D02*
X232250000Y90589995D01*
X220999990D01*
X220600000Y90190005D01*
Y80744895D01*
X226011045Y75333850D01*
X239702080D01*
X241498950Y73536980D01*
Y71290000D01*
X229850000Y88989995D02*
X229450000Y89389995D01*
X222199990D01*
X221400000Y88590005D01*
Y81076265D01*
X226342415Y76133850D01*
X242902080D01*
X244698950Y74336980D01*
Y71290000D01*
X232850000Y85989995D02*
X232250000Y86589995D01*
X222999990D01*
X222600000Y86190005D01*
Y81573320D01*
X226839470Y77333850D01*
X247701480D01*
X249498350Y75536980D01*
Y71290000D01*
X230850000Y87989995D02*
X230450000Y88389995D01*
X222399990D01*
X221800000Y87790005D01*
Y81241950D01*
X226508100Y76533850D01*
X244502080D01*
X246298950Y74736980D01*
Y71290000D01*
X229850000Y112989995D02*
X229450000Y113389995D01*
X224418180D01*
X222811015Y114997160D01*
Y142390050D01*
X223311015Y142890050D01*
X228998650D01*
X229498650Y142390050D01*
Y141290100D01*
X230850000Y113989995D02*
X230450000Y114389995D01*
X227950000D01*
X227700000Y114639995D01*
Y122115370D01*
X223411015Y126404355D01*
Y141790050D01*
X223911015Y142290050D01*
X226598650D01*
X227098650Y141790050D01*
Y140490100D01*
X232850000Y111989995D02*
X232250000Y112589995D01*
X224760225D01*
X222611015Y114739205D01*
Y142590050D01*
X223111015Y143090050D01*
X229798650D01*
X230298650Y142590050D01*
Y140490100D01*
X228850000Y113989995D02*
X227750000D01*
X227500000Y114239995D01*
Y121836610D01*
X223211015Y126125595D01*
Y141990050D01*
X223711015Y142490050D01*
X227398650D01*
X227898650Y141990050D01*
Y141290100D01*
X236850000Y85989995D02*
X237250000Y85589995D01*
X238457230D01*
X238667825Y85379400D01*
Y81845745D01*
X239167825Y81345745D01*
X256800000D01*
X257300000Y80845745D01*
Y49490050D01*
X256800000Y48990050D01*
X230798950D01*
X230298950Y48490050D01*
Y43490100D01*
X234850000Y87989995D02*
X235450000Y87389995D01*
X257025050D01*
X258100000Y86315045D01*
Y48690050D01*
X257600000Y48190050D01*
X233998950D01*
X233498950Y47690050D01*
Y43490100D01*
X236850000Y87989995D02*
X237250000Y87589995D01*
X257387545D01*
X258300000Y86677540D01*
Y48490050D01*
X257800000Y47990050D01*
X234798950D01*
X234298950Y47490050D01*
Y44290100D01*
X235850000Y86989995D02*
X236250000Y86589995D01*
X256700000D01*
X257700000Y85589995D01*
Y49090050D01*
X257200000Y48590050D01*
X232398950D01*
X231898950Y48090050D01*
Y43490100D01*
X234850000Y89989995D02*
X235450000Y89389995D01*
X257837535D01*
X259100000Y88127530D01*
Y47690050D01*
X258600000Y47190050D01*
X237998950D01*
X237498950Y46690050D01*
Y44290100D01*
X236850000Y89989995D02*
X237250000Y89589995D01*
X258200030D01*
X259300000Y88490025D01*
Y47490050D01*
X258800000Y46990050D01*
X238798950D01*
X238298950Y46490050D01*
Y43490100D01*
X233850000Y88989995D02*
X234450000Y88389995D01*
X257150050D01*
X258500000Y87040045D01*
Y48290050D01*
X258000000Y47790050D01*
X235598950D01*
X235098950Y47290050D01*
Y43490100D01*
X235850000Y88989995D02*
X236250000Y88589995D01*
X257512545D01*
X258700000Y87402540D01*
Y48090050D01*
X258200000Y47590050D01*
X236398950D01*
X235898950Y47090050D01*
Y44290100D01*
X233850000Y90989995D02*
X234450000Y90389995D01*
X257962525D01*
X259500000Y88852520D01*
Y47290050D01*
X259000000Y46790050D01*
X239598950D01*
X239098950Y46290050D01*
Y44290100D01*
X230850000Y111989995D02*
X230450000Y112389995D01*
X224200010D01*
X222411015Y114178990D01*
Y142790050D01*
X222911015Y143290050D01*
X230598650D01*
X231098650Y142790050D01*
Y141290100D01*
X231850000Y110989995D02*
X231250000Y111589995D01*
X223874900D01*
X222011015Y113453880D01*
Y143190050D01*
X222511015Y143690050D01*
X232198650D01*
X232698650Y143190050D01*
Y141290100D01*
X229850000Y110989995D02*
X229450000Y111389995D01*
X223512345D01*
X221811015Y113091325D01*
Y143390050D01*
X222311015Y143890050D01*
X232998650D01*
X233498650Y143390050D01*
Y140490100D01*
X232850000Y109989995D02*
X232250000Y110589995D01*
X223749790D01*
X221611015Y112728770D01*
Y143590050D01*
X222111015Y144090050D01*
X233798650D01*
X234298650Y143590050D01*
Y141290100D01*
X230850000Y109989995D02*
X230450000Y110389995D01*
X223387235D01*
X221411015Y112366215D01*
Y143790050D01*
X221911015Y144290050D01*
X234598650D01*
X235098650Y143790050D01*
Y140490100D01*
X231850000Y108989995D02*
X231250000Y109589995D01*
X223062125D01*
X221011015Y111641105D01*
Y144190050D01*
X221511015Y144690050D01*
X236198650D01*
X236698650Y144190050D01*
Y140490100D01*
X229850000Y108989995D02*
X229450000Y109389995D01*
X222699570D01*
X220811015Y111278550D01*
Y144390050D01*
X221311015Y144890050D01*
X236998650D01*
X237498650Y144390050D01*
Y141290100D01*
X232850000Y107989995D02*
X232250000Y108589995D01*
X222937015D01*
X220611015Y110915995D01*
Y144590050D01*
X221111015Y145090050D01*
X237798650D01*
X238298650Y144590050D01*
Y140490100D01*
X230850000Y107989995D02*
X230450000Y108389995D01*
X222574460D01*
X220411015Y110553440D01*
Y144790050D01*
X220911015Y145290050D01*
X238598650D01*
X239098650Y144790050D01*
Y141290100D01*
X228850000Y87989995D02*
X222399990D01*
X222000000Y87590005D01*
Y81324795D01*
X226590945Y76733850D01*
X245301780D01*
X247098650Y74936980D01*
Y72090000D01*
X242298650Y171690205D02*
Y175790155D01*
X242798650Y176290155D01*
X258300000D01*
X258800000Y175790155D01*
Y110039995D01*
X258350000Y109589995D01*
X234450000D01*
X233850000Y108989995D01*
X243098650Y171690205D02*
Y175590155D01*
X243598650Y176090155D01*
X258100000D01*
X258600000Y175590155D01*
Y110839995D01*
X258150000Y110389995D01*
X237250000D01*
X236850000Y109989995D01*
X243898650Y171690205D02*
Y175390155D01*
X244398650Y175890155D01*
X257900000D01*
X258400000Y175390155D01*
Y111039995D01*
X257950000Y110589995D01*
X235450000D01*
X234850000Y109989995D01*
X244698950Y171690205D02*
Y171190200D01*
X244698650Y171690205D02*
Y175190155D01*
X245198650Y175690155D01*
X257700000D01*
X258200000Y175190155D01*
Y111439995D01*
X257750000Y110989995D01*
X237850000D01*
X247898950Y171690205D02*
Y171190200D01*
X247898650Y171690205D02*
Y174390155D01*
X248398650Y174890155D01*
X256900000D01*
X257400000Y174390155D01*
Y113039995D01*
X256950000Y112589995D01*
X235450000D01*
X234850000Y111989995D01*
X245498650Y171690205D02*
Y174990155D01*
X245998650Y175490155D01*
X257500000D01*
X258000000Y174990155D01*
Y111839995D01*
X257550000Y111389995D01*
X236250000D01*
X235850000Y110989995D01*
X249498650Y171690205D02*
Y173990155D01*
X249998650Y174490155D01*
X256500000D01*
X257000000Y173990155D01*
Y119190000D01*
X256300000Y118490000D01*
X239300000D01*
X238800000Y117990000D01*
Y113639995D01*
X238550000Y113389995D01*
X236250000D01*
X235850000Y112989995D01*
X249498950Y171690205D02*
Y171190200D01*
X252698950Y171690205D02*
Y171190200D01*
X252698650Y171690205D02*
Y173190155D01*
X253198650Y173690155D01*
X255700000D01*
X256200000Y173190155D01*
Y119990000D01*
X255500000Y119290000D01*
X238500000D01*
X238000000Y118790000D01*
Y115039995D01*
X237750000Y114789995D01*
X233650000D01*
X232850000Y113989995D01*
X248698650Y171690205D02*
Y174190155D01*
X249198650Y174690155D01*
X256700000D01*
X257200000Y174190155D01*
Y118990000D01*
X256500000Y118290000D01*
X239500000D01*
X239000000Y117790000D01*
Y113239995D01*
X238750000Y112989995D01*
X237850000D01*
X248698950Y171690205D02*
Y170390200D01*
X241498950Y171690205D02*
Y171190200D01*
X241498650Y171690205D02*
Y175990155D01*
X241998650Y176490155D01*
X258500000D01*
X259000000Y175990155D01*
Y109839995D01*
X258550000Y109389995D01*
X236250000D01*
X235850000Y108989995D01*
X246298650Y171690205D02*
Y174790155D01*
X246798650Y175290155D01*
X257300000D01*
X257800000Y174790155D01*
Y112039995D01*
X257350000Y111589995D01*
X234450000D01*
X233850000Y110989995D01*
X246298950Y171690205D02*
Y171190200D01*
X247098650Y171690205D02*
Y174590155D01*
X247598650Y175090155D01*
X257100000D01*
X257600000Y174590155D01*
Y112839995D01*
X257150000Y112389995D01*
X237250000D01*
X236850000Y111989995D01*
X247098950Y171690205D02*
Y170390200D01*
X251898950Y171690205D02*
Y170390200D01*
X251898650Y171690205D02*
Y173390155D01*
X252398650Y173890155D01*
X255900000D01*
X256400000Y173390155D01*
Y119790000D01*
X255700000Y119090000D01*
X238700000D01*
X238200000Y118590000D01*
Y114839995D01*
X237950000Y114589995D01*
X235450000D01*
X234850000Y113989995D01*
X251098650Y171690205D02*
Y173590155D01*
X251598650Y174090155D01*
X256100000D01*
X256600000Y173590155D01*
Y119590000D01*
X255900000Y118890000D01*
X238900000D01*
X238400000Y118390000D01*
Y114639995D01*
X238150000Y114389995D01*
X237250000D01*
X236850000Y113989995D01*
X251098950Y171690205D02*
Y171190200D01*
X250298650Y171690205D02*
Y173790155D01*
X250798650Y174290155D01*
X256300000D01*
X256800000Y173790155D01*
Y119390000D01*
X256100000Y118690000D01*
X239100000D01*
X238600000Y118190000D01*
Y113839995D01*
X238350000Y113589995D01*
X234450000D01*
X233850000Y112989995D01*
X250298950Y171690205D02*
Y170390200D01*
X240698650Y171690205D02*
Y176190155D01*
X241198650Y176690155D01*
X258700000D01*
X259200000Y176190155D01*
Y109439995D01*
X258750000Y108989995D01*
X237850000D01*
X240698950Y170390200D02*
Y171690205D01*
X242298950Y170390200D02*
Y171690205D01*
X243098950Y171190200D02*
Y171690205D01*
X243898950Y170390200D02*
Y171690205D01*
X245498950Y170390200D02*
Y171690205D01*
X228698650Y140490100D02*
Y142190050D01*
X228198650Y142690050D01*
X223511015D01*
X223011015Y142190050D01*
Y115219875D01*
X224640895Y113589995D01*
X231250000D01*
X231850000Y112989995D01*
X228850000Y111989995D02*
X224037455D01*
X222211015Y113816435D01*
Y142990050D01*
X222711015Y143490050D01*
X231398650D01*
X231898650Y142990050D01*
Y140490100D01*
X228850000Y109989995D02*
X223224680D01*
X221211015Y112003660D01*
Y143990050D01*
X221711015Y144490050D01*
X235398650D01*
X235898650Y143990050D01*
Y141290100D01*
X240698950Y72090000D02*
Y73336980D01*
X238902080Y75133850D01*
X225928200D01*
X220400000Y80662050D01*
Y90590005D01*
X221199990Y91389995D01*
X229450000D01*
X229850000Y90989995D01*
X242298950Y72090000D02*
Y73736980D01*
X240502080Y75533850D01*
X226093885D01*
X220800000Y80827735D01*
Y89790005D01*
X221399990Y90389995D01*
X230450000D01*
X230850000Y89989995D01*
X243898950Y72090000D02*
Y74136980D01*
X242102080Y75933850D01*
X226259575D01*
X221200000Y80993425D01*
Y88790005D01*
X221999990Y89589995D01*
X231250000D01*
X231850000Y88989995D01*
X245498950Y72090000D02*
Y74536980D01*
X243702080Y76333850D01*
X226425255D01*
X221600000Y81159105D01*
Y88190005D01*
X221999990Y88589995D01*
X232250000D01*
X232850000Y87989995D01*
X248698350Y72090000D02*
Y75336980D01*
X246901480Y77133850D01*
X226756630D01*
X222400000Y81490480D01*
Y86590005D01*
X223199990Y87389995D01*
X229450000D01*
X229850000Y86989995D01*
X250298650Y72090000D02*
Y75736980D01*
X248501780Y77533850D01*
X226922310D01*
X222800000Y81656160D01*
Y85790005D01*
X223399990Y86389995D01*
X230450000D01*
X230850000Y85989995D01*
X251898650Y72090000D02*
Y76136980D01*
X250101780Y77933850D01*
X227087995D01*
X223200000Y81821845D01*
Y84790005D01*
X224179980Y85769985D01*
X226861840D01*
X227041830Y85589995D01*
X231250000D01*
X231850000Y84989995D01*
X243098950Y71290000D02*
Y73936980D01*
X241302080Y75733850D01*
X226176730D01*
X221000000Y80910580D01*
Y89590005D01*
X221399990Y89989995D01*
X228850000D01*
X247898650Y71290000D02*
Y75136980D01*
X246101780Y76933850D01*
X226673785D01*
X222200000Y81407635D01*
Y86790005D01*
X222999990Y87589995D01*
X231250000D01*
X231850000Y86989995D01*
X251098650Y71290000D02*
Y75936980D01*
X249301780Y77733850D01*
X227005155D01*
X223000000Y81739005D01*
Y85590005D01*
X223399990Y85989995D01*
X228850000D01*
X252698650Y71290000D02*
Y76336980D01*
X250901780Y78133850D01*
X227170840D01*
X223400000Y81904690D01*
Y84590005D01*
X224368925Y85558930D01*
X226672895D01*
X226841830Y85389995D01*
X229450000D01*
X229850000Y84989995D01*
X227898950Y44290100D02*
Y49090050D01*
X228398950Y49590050D01*
X256200000D01*
X256700000Y50090050D01*
Y80245745D01*
X256200000Y80745745D01*
X236157945D01*
X235850000Y81053690D01*
Y84989995D01*
X228698950Y43490100D02*
Y48890050D01*
X229198950Y49390050D01*
X256400000D01*
X256900000Y49890050D01*
Y80445745D01*
X256400000Y80945745D01*
X238157945D01*
X237850000Y81253690D01*
Y84989995D01*
X229498950Y44290100D02*
Y48690050D01*
X229998950Y49190050D01*
X256600000D01*
X257100000Y49690050D01*
Y80645745D01*
X256600000Y81145745D01*
X238967825D01*
X238467825Y81645745D01*
Y85190875D01*
X238268705Y85389995D01*
X235450000D01*
X234850000Y85989995D01*
X233850000Y84989995D02*
X233541905Y84205205D01*
Y80853690D01*
X233849850Y80545745D01*
X256000000D01*
X256500000Y80045745D01*
Y50290050D01*
X256000000Y49790050D01*
X227598650D01*
X227098675Y49290050D01*
X227098950Y43490100D01*
X237850000Y88989995D02*
X257675040D01*
X258900000Y87765035D01*
Y47890050D01*
X258400000Y47390050D01*
X237198950D01*
X236698950Y46890050D01*
Y43490100D01*
X237850000Y86989995D02*
X256862555D01*
X257900000Y85952550D01*
Y48890050D01*
X257400000Y48390050D01*
X233198950D01*
X232698950Y47890050D01*
Y44290100D01*
X231098950Y44290100D02*
Y48290050D01*
X231598950Y48790050D01*
X257000000D01*
X257500000Y49290050D01*
Y85227500D01*
X256337505Y86389995D01*
X234450000D01*
X233850000Y86989995D01*
D11*
X237850000Y84989995D03*
X236850000D03*
X235850000D03*
X234850000D03*
X233850000D03*
X232850000D03*
X231850000D03*
X230850000D03*
X229850000D03*
X228850000D03*
X237850000Y85989995D03*
X236850000D03*
X235850000D03*
X234850000D03*
X233850000D03*
X232850000D03*
X231850000D03*
X230850000D03*
X229850000D03*
X228850000D03*
X237850000Y86989995D03*
X236850000D03*
X235850000D03*
X234850000D03*
X233850000D03*
X232850000D03*
X231850000D03*
X230850000D03*
X229850000D03*
X228850000D03*
X237850000Y87989995D03*
X236850000D03*
X235850000D03*
X234850000D03*
X233850000D03*
X232850000D03*
X231850000D03*
X230850000D03*
X229850000D03*
X228850000D03*
X237850000Y88989995D03*
X236850000D03*
X235850000D03*
X234850000D03*
X233850000D03*
X232850000D03*
X231850000D03*
X230850000D03*
X229850000D03*
X228850000D03*
X237850000Y89989995D03*
X236850000D03*
X235850000D03*
X234850000D03*
X233850000D03*
X232850000D03*
X231850000D03*
X230850000D03*
X229850000D03*
X228850000D03*
X237850000Y90989995D03*
X236850000D03*
X235850000D03*
X234850000D03*
X233850000D03*
X232850000D03*
X231850000D03*
X230850000D03*
X229850000D03*
X228850000D03*
X237850000Y91989995D03*
X236850000D03*
X235850000D03*
X234850000D03*
X233850000D03*
X232850000D03*
X231850000D03*
X230850000D03*
X229850000D03*
X228850000D03*
X237850000Y92989995D03*
X236850000D03*
X235850000D03*
X234850000D03*
X233850000D03*
X232850000D03*
X231850000D03*
X230850000D03*
X229850000D03*
X228850000D03*
X237850000Y93989995D03*
X236850000D03*
X235850000D03*
X234850000D03*
X233850000D03*
X232850000D03*
X231850000D03*
X230850000D03*
X229850000D03*
X228850000D03*
X237850000Y94989995D03*
X236850000D03*
X235850000D03*
X234850000D03*
X233850000D03*
X232850000D03*
X231850000D03*
X230850000D03*
X229850000D03*
X228850000D03*
X237850000Y95989995D03*
X236850000D03*
X235850000D03*
X234850000D03*
X233850000D03*
X232850000D03*
X231850000D03*
X230850000D03*
X229850000D03*
X228850000D03*
X237850000Y96989995D03*
X236850000D03*
X235850000D03*
X234850000D03*
X233850000D03*
X232850000D03*
X231850000D03*
X230850000D03*
X229850000D03*
X228850000D03*
X237850000Y97989995D03*
X236850000D03*
X235850000D03*
X234850000D03*
X233850000D03*
X232850000D03*
X231850000D03*
X230850000D03*
X229850000D03*
X228850000D03*
X237850000Y98989995D03*
X236850000D03*
X235850000D03*
X234850000D03*
X233850000D03*
X232850000D03*
X231850000D03*
X230850000D03*
X229850000D03*
X228850000D03*
X237850000Y99989995D03*
X236850000D03*
X235850000D03*
X234850000D03*
X233850000D03*
X232850000D03*
X231850000D03*
X230850000D03*
X229850000D03*
X228850000D03*
X237850000Y100989995D03*
X236850000D03*
X235850000D03*
X234850000D03*
X233850000D03*
X232850000D03*
X231850000D03*
X230850000D03*
X229850000D03*
X228850000D03*
X237850000Y101989995D03*
X236850000D03*
X235850000D03*
X234850000D03*
X233850000D03*
X232850000D03*
X231850000D03*
X230850000D03*
X229850000D03*
X228850000D03*
X237850000Y102989995D03*
X236850000D03*
X235850000D03*
X234850000D03*
X233850000D03*
X232850000D03*
X231850000D03*
X230850000D03*
X229850000D03*
X228850000D03*
X237850000Y103989995D03*
X236850000D03*
X235850000D03*
X234850000D03*
X233850000D03*
X232850000D03*
X231850000D03*
X230850000D03*
X229850000D03*
X228850000D03*
X237850000Y104989995D03*
X236850000D03*
X235850000D03*
X234850000D03*
X233850000D03*
X232850000D03*
X231850000D03*
X230850000D03*
X229850000D03*
X228850000D03*
X237850000Y105989995D03*
X236850000D03*
X235850000D03*
X234850000D03*
X233850000D03*
X232850000D03*
X231850000D03*
X230850000D03*
X229850000D03*
X228850000D03*
X237850000Y106989995D03*
X236850000D03*
X235850000D03*
X234850000D03*
X233850000D03*
X232850000D03*
X231850000D03*
X230850000D03*
X229850000D03*
X228850000D03*
X237850000Y107989995D03*
X236850000D03*
X235850000D03*
X234850000D03*
X233850000D03*
X232850000D03*
X231850000D03*
X230850000D03*
X229850000D03*
X228850000D03*
X237850000Y108989995D03*
X236850000D03*
X235850000D03*
X234850000D03*
X233850000D03*
X232850000D03*
X231850000D03*
X230850000D03*
X229850000D03*
X228850000D03*
X237850000Y109989995D03*
X236850000D03*
X235850000D03*
X234850000D03*
X233850000D03*
X232850000D03*
X231850000D03*
X230850000D03*
X229850000D03*
X228850000D03*
X237850000Y110989995D03*
X236850000D03*
X235850000D03*
X234850000D03*
X233850000D03*
X232850000D03*
X231850000D03*
X230850000D03*
X229850000D03*
X228850000D03*
X237850000Y111989995D03*
X236850000D03*
X235850000D03*
X234850000D03*
X233850000D03*
X232850000D03*
X231850000D03*
X230850000D03*
X229850000D03*
X228850000D03*
X237850000Y112989995D03*
X236850000D03*
X235850000D03*
X234850000D03*
X233850000D03*
X232850000D03*
X231850000D03*
X230850000D03*
X229850000D03*
X228850000D03*
X237850000Y113989995D03*
X236850000D03*
X235850000D03*
X234850000D03*
X233850000D03*
X232850000D03*
X231850000D03*
X230850000D03*
X229850000D03*
X228850000D03*
D12*
X228850000Y104989995D02*
X237850000D01*
X228850000Y93989995D02*
X237850000D01*
X228850000Y94989995D02*
X237850000D01*
X228850000Y103989995D02*
X237850000D01*
X233850000Y101989995D02*
Y104989995D01*
X233850000Y96989995D02*
Y95989995D01*
Y93989995D01*
D13*
X237550000Y84989995D03*
X236550000D03*
X235550000D03*
X234550000D03*
X233550000D03*
X232550000D03*
X231550000D03*
X230550000D03*
X229550000D03*
X228550000D03*
X237550000Y85989995D03*
X236550000D03*
X235550000D03*
X234550000D03*
X233550000D03*
X232550000D03*
X231550000D03*
X230550000D03*
X229550000D03*
X228550000D03*
X237550000Y86989995D03*
X236550000D03*
X235550000D03*
X234550000D03*
X233550000D03*
X232550000D03*
X231550000D03*
X230550000D03*
X229550000D03*
X228550000D03*
X237550000Y87989995D03*
X236550000D03*
X235550000D03*
X234550000D03*
X233550000D03*
X232550000D03*
X231550000D03*
X230550000D03*
X229550000D03*
X228550000D03*
X237550000Y88989995D03*
X236550000D03*
X235550000D03*
X234550000D03*
X233550000D03*
X232550000D03*
X231550000D03*
X230550000D03*
X229550000D03*
X228550000D03*
X237550000Y89989995D03*
X236550000D03*
X235550000D03*
X234550000D03*
X233550000D03*
X232550000D03*
X231550000D03*
X230550000D03*
X229550000D03*
X228550000D03*
X237550000Y90989995D03*
X236550000D03*
X235550000D03*
X234550000D03*
X233550000D03*
X232550000D03*
X231550000D03*
X230550000D03*
X229550000D03*
X228550000D03*
X237550000Y91989995D03*
X236550000D03*
X235550000D03*
X234550000D03*
X233550000D03*
X232550000D03*
X231550000D03*
X230550000D03*
X229550000D03*
X228550000D03*
X237550000Y92989995D03*
X236550000D03*
X235550000D03*
X234550000D03*
X233550000D03*
X232550000D03*
X231550000D03*
X230550000D03*
X229550000D03*
X228550000D03*
X237550000Y93989995D03*
X236550000D03*
X235550000D03*
X234550000D03*
X233550000D03*
X232550000D03*
X231550000D03*
X230550000D03*
X229550000D03*
X228550000D03*
X237550000Y94989995D03*
X236550000D03*
X235550000D03*
X234550000D03*
X233550000D03*
X232550000D03*
X231550000D03*
X230550000D03*
X229550000D03*
X228550000D03*
X237550000Y95989995D03*
X236550000D03*
X235550000D03*
X234550000D03*
X233550000D03*
X232550000D03*
X231550000D03*
X230550000D03*
X229550000D03*
X228550000D03*
X237550000Y96989995D03*
X236550000D03*
X235550000D03*
X234550000D03*
X233550000D03*
X232550000D03*
X231550000D03*
X230550000D03*
X229550000D03*
X228550000D03*
X237550000Y97989995D03*
X236550000D03*
X235550000D03*
X234550000D03*
X233550000D03*
X232550000D03*
X231550000D03*
X230550000D03*
X229550000D03*
X228550000D03*
X237550000Y98989995D03*
X236550000D03*
X235550000D03*
X234550000D03*
X233550000D03*
X232550000D03*
X231550000D03*
X230550000D03*
X229550000D03*
X228550000D03*
X237550000Y99989995D03*
X236550000D03*
X235550000D03*
X234550000D03*
X233550000D03*
X232550000D03*
X231550000D03*
X230550000D03*
X229550000D03*
X228550000D03*
X237550000Y100989995D03*
X236550000D03*
X235550000D03*
X234550000D03*
X233550000D03*
X232550000D03*
X231550000D03*
X230550000D03*
X229550000D03*
X228550000D03*
X237550000Y101989995D03*
X236550000D03*
X235550000D03*
X234550000D03*
X233550000D03*
X232550000D03*
X231550000D03*
X230550000D03*
X229550000D03*
X228550000D03*
X237550000Y102989995D03*
X236550000D03*
X235550000D03*
X234550000D03*
X233550000D03*
X232550000D03*
X231550000D03*
X230550000D03*
X229550000D03*
X228550000D03*
X237550000Y103989995D03*
X236550000D03*
X235550000D03*
X234550000D03*
X233550000D03*
X232550000D03*
X231550000D03*
X230550000D03*
X229550000D03*
X228550000D03*
X237550000Y104989995D03*
X236550000D03*
X235550000D03*
X234550000D03*
X233550000D03*
X232550000D03*
X231550000D03*
X230550000D03*
X229550000D03*
X228550000D03*
X237550000Y105989995D03*
X236550000D03*
X235550000D03*
X234550000D03*
X233550000D03*
X232550000D03*
X231550000D03*
X230550000D03*
X229550000D03*
X228550000D03*
X237550000Y106989995D03*
X236550000D03*
X235550000D03*
X234550000D03*
X233550000D03*
X232550000D03*
X231550000D03*
X230550000D03*
X229550000D03*
X228550000D03*
X237550000Y107989995D03*
X236550000D03*
X235550000D03*
X234550000D03*
X233550000D03*
X232550000D03*
X231550000D03*
X230550000D03*
X229550000D03*
X228550000D03*
X237550000Y108989995D03*
X236550000D03*
X235550000D03*
X234550000D03*
X233550000D03*
X232550000D03*
X231550000D03*
X230550000D03*
X229550000D03*
X228550000D03*
X237550000Y109989995D03*
X236550000D03*
X235550000D03*
X234550000D03*
X233550000D03*
X232550000D03*
X231550000D03*
X230550000D03*
X229550000D03*
X228550000D03*
X237550000Y110989995D03*
X236550000D03*
X235550000D03*
X234550000D03*
X233550000D03*
X232550000D03*
X231550000D03*
X230550000D03*
X229550000D03*
X228550000D03*
X237550000Y111989995D03*
X236550000D03*
X235550000D03*
X234550000D03*
X233550000D03*
X232550000D03*
X231550000D03*
X230550000D03*
X229550000D03*
X228550000D03*
X237550000Y112989995D03*
X236550000D03*
X235550000D03*
X234550000D03*
X233550000D03*
X232550000D03*
X231550000D03*
X230550000D03*
X229550000D03*
X228550000D03*
X237550000Y113989995D03*
X236550000D03*
X235550000D03*
X234550000D03*
X233550000D03*
X232550000D03*
X231550000D03*
X230550000D03*
X229550000D03*
X228550000D03*
G04 #@! TO.N,483*
D14*
X239098650Y36290100D03*
G04 #@! TO.N,484*
X238298650Y35490100D03*
G04 #@! TO.N,485*
X237498650Y36290100D03*
G04 #@! TO.N,486*
X236698650Y35490100D03*
G04 #@! TO.N,487*
X235898650Y36290100D03*
G04 #@! TO.N,488*
X235098650Y35490100D03*
G04 #@! TO.N,489*
X234298650Y36290100D03*
G04 #@! TO.N,490*
X233498650Y35490100D03*
G04 #@! TO.N,491*
X232698650Y36290100D03*
G04 #@! TO.N,492*
X231898650Y35490100D03*
G04 #@! TO.N,493*
X231098650Y36290100D03*
G04 #@! TO.N,494*
X230298650Y35490100D03*
G04 #@! TO.N,495*
X229498650Y36290100D03*
G04 #@! TO.N,496*
X228698650Y35490100D03*
G04 #@! TO.N,497*
X227898650Y36290100D03*
G04 #@! TO.N,498*
X227098650Y35490100D03*
G04 #@! TO.N,450*
X239098650Y44290100D03*
G04 #@! TO.N,449*
X238298650Y43490100D03*
G04 #@! TO.N,448*
X237498650Y44290100D03*
G04 #@! TO.N,447*
X236698650Y43490100D03*
G04 #@! TO.N,446*
X235898650Y44290100D03*
G04 #@! TO.N,445*
X235098650Y43490100D03*
G04 #@! TO.N,444*
X234298650Y44290100D03*
G04 #@! TO.N,443*
X233498650Y43490100D03*
G04 #@! TO.N,442*
X232698650Y44290100D03*
G04 #@! TO.N,441*
X231898650Y43490100D03*
G04 #@! TO.N,440*
X231098650Y44290100D03*
G04 #@! TO.N,439*
X230298650Y43490100D03*
G04 #@! TO.N,435*
X229498650Y44290100D03*
G04 #@! TO.N,438*
X228698650Y43490100D03*
G04 #@! TO.N,436*
X227898650Y44290100D03*
G04 #@! TO.N,437*
X227098650Y43490100D03*
G04 #@! TO.N,467*
X252698650Y36290100D03*
G04 #@! TO.N,468*
X251898650Y35490100D03*
G04 #@! TO.N,469*
X251098650Y36290100D03*
G04 #@! TO.N,470*
X250298650Y35490100D03*
G04 #@! TO.N,471*
X249498650Y36290100D03*
G04 #@! TO.N,472*
X248698650Y35490100D03*
G04 #@! TO.N,473*
X247898650Y36290100D03*
G04 #@! TO.N,474*
X247098650Y35490100D03*
G04 #@! TO.N,475*
X246298650Y36290100D03*
G04 #@! TO.N,476*
X245498650Y35490100D03*
G04 #@! TO.N,477*
X244698650Y36290100D03*
G04 #@! TO.N,478*
X243898650Y35490100D03*
G04 #@! TO.N,479*
X243098650Y36290100D03*
G04 #@! TO.N,480*
X242298650Y35490100D03*
G04 #@! TO.N,481*
X241498650Y36290100D03*
G04 #@! TO.N,482*
X240698650Y35490100D03*
G04 #@! TO.N,465*
X252698650Y44290100D03*
G04 #@! TO.N,466*
X251898650Y43490100D03*
G04 #@! TO.N,464*
X251098650Y44290100D03*
G04 #@! TO.N,463*
X250298650Y43490100D03*
G04 #@! TO.N,462*
X249498650Y44290100D03*
G04 #@! TO.N,461*
X248698650Y43490100D03*
G04 #@! TO.N,460*
X247898650Y44290100D03*
G04 #@! TO.N,459*
X247098650Y43490100D03*
G04 #@! TO.N,458*
X246298650Y44290100D03*
G04 #@! TO.N,457*
X245498650Y43490100D03*
G04 #@! TO.N,456*
X244698650Y44290100D03*
G04 #@! TO.N,455*
X243898650Y43490100D03*
G04 #@! TO.N,454*
X243098650Y44290100D03*
G04 #@! TO.N,453*
X242298650Y43490100D03*
G04 #@! TO.N,452*
X241498650Y44290100D03*
G04 #@! TO.N,451*
X240698650Y43490100D03*
G04 #@! TO.N,483*
Y128190100D03*
G04 #@! TO.N,484*
X241498650Y127390100D03*
G04 #@! TO.N,485*
X242298650Y128190100D03*
G04 #@! TO.N,486*
X243098650Y127390100D03*
G04 #@! TO.N,487*
X243898650Y128190100D03*
G04 #@! TO.N,488*
X244698650Y127390100D03*
G04 #@! TO.N,489*
X245498650Y128190100D03*
G04 #@! TO.N,490*
X246298650Y127390100D03*
G04 #@! TO.N,491*
X247098650Y128190100D03*
G04 #@! TO.N,492*
X247898650Y127390100D03*
G04 #@! TO.N,493*
X248698650Y128190100D03*
G04 #@! TO.N,494*
X249498650Y127390100D03*
G04 #@! TO.N,495*
X250298650Y128190100D03*
G04 #@! TO.N,496*
X251098650Y127390100D03*
G04 #@! TO.N,497*
X251898650Y128190100D03*
G04 #@! TO.N,467*
X227098650D03*
G04 #@! TO.N,468*
X227898650Y127390100D03*
G04 #@! TO.N,469*
X228698650Y128190100D03*
G04 #@! TO.N,470*
X229498650Y127390100D03*
G04 #@! TO.N,471*
X230298650Y128190100D03*
G04 #@! TO.N,472*
X231098650Y127390100D03*
G04 #@! TO.N,473*
X231898650Y128190100D03*
G04 #@! TO.N,474*
X232698650Y127390100D03*
G04 #@! TO.N,475*
X233498650Y128190100D03*
G04 #@! TO.N,476*
X234298650Y127390100D03*
G04 #@! TO.N,477*
X235098650Y128190100D03*
G04 #@! TO.N,478*
X235898650Y127390100D03*
G04 #@! TO.N,479*
X236698650Y128190100D03*
G04 #@! TO.N,480*
X237498650Y127390100D03*
G04 #@! TO.N,481*
X238298650Y128190100D03*
G04 #@! TO.N,482*
X239098650Y127390100D03*
G04 #@! TO.N,483*
Y163190200D03*
G04 #@! TO.N,484*
X238298650Y162390200D03*
G04 #@! TO.N,485*
X237498650Y163190200D03*
G04 #@! TO.N,486*
X236698650Y162390200D03*
G04 #@! TO.N,487*
X235898650Y163190200D03*
G04 #@! TO.N,488*
X235098650Y162390200D03*
G04 #@! TO.N,489*
X234298650Y163190200D03*
G04 #@! TO.N,490*
X233498650Y162390200D03*
G04 #@! TO.N,491*
X232698650Y163190200D03*
G04 #@! TO.N,492*
X231898650Y162390200D03*
G04 #@! TO.N,493*
X231098650Y163190200D03*
G04 #@! TO.N,494*
X230298650Y162390200D03*
G04 #@! TO.N,495*
X229498650Y163190200D03*
G04 #@! TO.N,496*
X228698650Y162390200D03*
G04 #@! TO.N,497*
X227898650Y163190200D03*
G04 #@! TO.N,498*
X227098650Y162390200D03*
G04 #@! TO.N,450*
X239098650Y171190200D03*
G04 #@! TO.N,449*
X238298650Y170390200D03*
G04 #@! TO.N,448*
X237498650Y171190200D03*
G04 #@! TO.N,447*
X236698650Y170390200D03*
G04 #@! TO.N,446*
X235898650Y171190200D03*
G04 #@! TO.N,445*
X235098650Y170390200D03*
G04 #@! TO.N,444*
X234298650Y171190200D03*
G04 #@! TO.N,443*
X233498650Y170390200D03*
G04 #@! TO.N,442*
X232698650Y171190200D03*
G04 #@! TO.N,441*
X231898650Y170390200D03*
G04 #@! TO.N,440*
X231098650Y171190200D03*
G04 #@! TO.N,439*
X230298650Y170390200D03*
G04 #@! TO.N,435*
X229498650Y171190200D03*
G04 #@! TO.N,438*
X228698650Y170390200D03*
G04 #@! TO.N,436*
X227898650Y171190200D03*
G04 #@! TO.N,437*
X227098650Y170390200D03*
G04 #@! TO.N,467*
X252698650Y163190200D03*
G04 #@! TO.N,468*
X251898650Y162390200D03*
G04 #@! TO.N,469*
X251098650Y163190200D03*
G04 #@! TO.N,470*
X250298650Y162390200D03*
G04 #@! TO.N,471*
X249498650Y163190200D03*
G04 #@! TO.N,472*
X248698650Y162390200D03*
G04 #@! TO.N,473*
X247898650Y163190200D03*
G04 #@! TO.N,474*
X247098650Y162390200D03*
G04 #@! TO.N,475*
X246298650Y163190200D03*
G04 #@! TO.N,476*
X245498650Y162390200D03*
G04 #@! TO.N,477*
X244698650Y163190200D03*
G04 #@! TO.N,478*
X243898650Y162390200D03*
G04 #@! TO.N,479*
X243098650Y163190200D03*
G04 #@! TO.N,480*
X242298650Y162390200D03*
G04 #@! TO.N,481*
X241498650Y163190200D03*
G04 #@! TO.N,482*
X240698650Y162390200D03*
G04 #@! TO.N,465*
X252698650Y171190200D03*
G04 #@! TO.N,466*
X251898650Y170390200D03*
G04 #@! TO.N,464*
X251098650Y171190200D03*
G04 #@! TO.N,463*
X250298650Y170390200D03*
G04 #@! TO.N,462*
X249498650Y171190200D03*
G04 #@! TO.N,461*
X248698650Y170390200D03*
G04 #@! TO.N,460*
X247898650Y171190200D03*
G04 #@! TO.N,459*
X247098650Y170390200D03*
G04 #@! TO.N,458*
X246298650Y171190200D03*
G04 #@! TO.N,457*
X245498650Y170390200D03*
G04 #@! TO.N,456*
X244698650Y171190200D03*
G04 #@! TO.N,455*
X243898650Y170390200D03*
G04 #@! TO.N,454*
X243098650Y171190200D03*
G04 #@! TO.N,453*
X242298650Y170390200D03*
G04 #@! TO.N,452*
X241498650Y171190200D03*
G04 #@! TO.N,451*
X240698650Y170390200D03*
G04 #@! TO.N,465*
X252698650Y171190200D03*
G04 #@! TO.N,466*
X251898650Y170390200D03*
G04 #@! TO.N,464*
X251098650Y171190200D03*
G04 #@! TO.N,463*
X250298650Y170390200D03*
G04 #@! TO.N,462*
X249498650Y171190200D03*
G04 #@! TO.N,461*
X248698650Y170390200D03*
G04 #@! TO.N,460*
X247898650Y171190200D03*
G04 #@! TO.N,459*
X247098650Y170390200D03*
G04 #@! TO.N,458*
X246298650Y171190200D03*
G04 #@! TO.N,457*
X245498650Y170390200D03*
G04 #@! TO.N,456*
X244698650Y171190200D03*
G04 #@! TO.N,455*
X243898650Y170390200D03*
G04 #@! TO.N,454*
X243098650Y171190200D03*
G04 #@! TO.N,453*
X242298650Y170390200D03*
G04 #@! TO.N,452*
X241498650Y171190200D03*
G04 #@! TO.N,451*
X240698650Y170390200D03*
G04 #@! TO.N,497*
X252698650Y127390100D03*
G04 #@! TO.N,465*
Y141290100D03*
G04 #@! TO.N,466*
X251898650Y140490100D03*
G04 #@! TO.N,464*
X251098650Y141290100D03*
G04 #@! TO.N,463*
X250298650Y140490100D03*
G04 #@! TO.N,462*
X249498650Y141290100D03*
G04 #@! TO.N,461*
X248698650Y140490100D03*
G04 #@! TO.N,460*
X247898650Y141290100D03*
G04 #@! TO.N,459*
X247098650Y140490100D03*
G04 #@! TO.N,458*
X246298650Y141290100D03*
G04 #@! TO.N,457*
X245498650Y140490100D03*
G04 #@! TO.N,456*
X244698650Y141290100D03*
G04 #@! TO.N,455*
X243898650Y140490100D03*
G04 #@! TO.N,454*
X243098650Y141290100D03*
G04 #@! TO.N,453*
X242298650Y140490100D03*
G04 #@! TO.N,452*
X241498650Y141290100D03*
G04 #@! TO.N,451*
X240698650Y140490100D03*
G04 #@! TO.N,450*
X239098650Y141290100D03*
G04 #@! TO.N,449*
X238298650Y140490100D03*
G04 #@! TO.N,448*
X237498650Y141290100D03*
G04 #@! TO.N,447*
X236698650Y140490100D03*
G04 #@! TO.N,446*
X235898650Y141290100D03*
G04 #@! TO.N,445*
X235098650Y140490100D03*
G04 #@! TO.N,444*
X234298650Y141290100D03*
G04 #@! TO.N,443*
X233498650Y140490100D03*
G04 #@! TO.N,442*
X232698650Y141290100D03*
G04 #@! TO.N,441*
X231898650Y140490100D03*
G04 #@! TO.N,440*
X231098650Y141290100D03*
G04 #@! TO.N,439*
X230298650Y140490100D03*
G04 #@! TO.N,435*
X229498650Y141290100D03*
G04 #@! TO.N,438*
X228698650Y140490100D03*
G04 #@! TO.N,436*
X227898650Y141290100D03*
G04 #@! TO.N,437*
X227098650Y140490100D03*
G04 #@! TO.N,467*
X252698650Y65390100D03*
G04 #@! TO.N,468*
X251898650Y66190100D03*
G04 #@! TO.N,469*
X251098650Y65390100D03*
G04 #@! TO.N,470*
X250298650Y66190100D03*
G04 #@! TO.N,471*
X249498650Y65390100D03*
G04 #@! TO.N,472*
X248698650Y66190100D03*
G04 #@! TO.N,473*
X247898650Y65390100D03*
G04 #@! TO.N,474*
X247098650Y66190100D03*
G04 #@! TO.N,475*
X246298650Y65390100D03*
G04 #@! TO.N,476*
X245498650Y66190100D03*
G04 #@! TO.N,477*
X244698650Y65390100D03*
G04 #@! TO.N,478*
X243898650Y66190100D03*
G04 #@! TO.N,479*
X243098650Y65390100D03*
G04 #@! TO.N,480*
X242298650Y66190100D03*
G04 #@! TO.N,481*
X241498650Y65390100D03*
G04 #@! TO.N,482*
X240698650Y66190100D03*
G04 #@! TO.N,483*
X239098650Y65390100D03*
G04 #@! TO.N,484*
X238298650Y66190100D03*
G04 #@! TO.N,485*
X237498650Y65390100D03*
G04 #@! TO.N,486*
X236698650Y66190100D03*
G04 #@! TO.N,487*
X235898650Y65390100D03*
G04 #@! TO.N,488*
X235098650Y66190100D03*
G04 #@! TO.N,489*
X234298650Y65390100D03*
G04 #@! TO.N,490*
X233498650Y66190100D03*
G04 #@! TO.N,491*
X232698650Y65390100D03*
G04 #@! TO.N,492*
X231898650Y66190100D03*
G04 #@! TO.N,493*
X231098650Y65390100D03*
G04 #@! TO.N,494*
X230298650Y66190100D03*
G04 #@! TO.N,495*
X229498650Y65390100D03*
G04 #@! TO.N,496*
X228698650Y66190100D03*
G04 #@! TO.N,497*
X227898650Y65390100D03*
G04 #@! TO.N,498*
X227098650Y66190100D03*
G04 #@! TO.N,465*
X252698650Y71290000D03*
G04 #@! TO.N,466*
X251898650Y72090000D03*
G04 #@! TO.N,464*
X251098650Y71290000D03*
G04 #@! TO.N,463*
X250298650Y72090000D03*
G04 #@! TO.N,462*
X249498650Y71290000D03*
G04 #@! TO.N,461*
X248698650Y72090000D03*
G04 #@! TO.N,460*
X247898650Y71290000D03*
G04 #@! TO.N,459*
X247098650Y72090000D03*
G04 #@! TO.N,458*
X246298650Y71290000D03*
G04 #@! TO.N,457*
X245498650Y72090000D03*
G04 #@! TO.N,456*
X244698650Y71290000D03*
G04 #@! TO.N,455*
X243898650Y72090000D03*
G04 #@! TO.N,454*
X243098650Y71290000D03*
G04 #@! TO.N,453*
X242298650Y72090000D03*
G04 #@! TO.N,452*
X241498650Y71290000D03*
G04 #@! TO.N,451*
X240698650Y72090000D03*
G04 #@! TO.N,450*
X239098650Y71290000D03*
G04 #@! TO.N,449*
X238298650Y72090000D03*
G04 #@! TO.N,448*
X237498650Y71290000D03*
G04 #@! TO.N,447*
X236698650Y72090000D03*
G04 #@! TO.N,446*
X235898650Y71290000D03*
G04 #@! TO.N,445*
X235098650Y72090000D03*
G04 #@! TO.N,444*
X234298650Y71290000D03*
G04 #@! TO.N,443*
X233498650Y72090000D03*
G04 #@! TO.N,442*
X232698650Y71290000D03*
G04 #@! TO.N,441*
X231898650Y72090000D03*
G04 #@! TO.N,440*
X231098650Y71290000D03*
G04 #@! TO.N,439*
X230298650Y72090000D03*
G04 #@! TO.N,435*
X229498650Y71290000D03*
G04 #@! TO.N,438*
X228698650Y72090000D03*
G04 #@! TO.N,436*
X227898650Y71290000D03*
G04 #@! TO.N,437*
X227098650Y72090000D03*
%LPD*%
M02*