G04 #@! TF.FileFunction,Copper,L7,Inr*
G04 #@! TF.FilePolarity,Positive*
G04 #@! TF.SameCoordinates,1cDX9PD3q2MVNQUlwPAFNq2hZJss5yh*
G04 #@! TF.CreationDate,2025-09-04T08:30:56+0200*
G04 #@! TF.GenerationSoftware,Ucamco,UcamX,v2023.12-240208*
%FSLAX36Y36*%
%MOMM*%
%ADD10C,0.100000*%
%ADD11C,0.650000*%
%ADD12C,0.200000*%
%AMBOXR*
$16=$1/2*
$17=$2/2*
$8=$16-$3*
$9=$17-$3*
$10=$8X$6*
$11=$8X$5*
$12=$9X$6*
$13=$9X$5*
$15=2X$3*
$18=0-$10*
$19=0-$11*
21,1-$7,$1,$2-$15,0,0,$4*
21,1-$7,$1-$15,$2,0,0,$4*
1,1-$7,$15,$10-$13,$11+$12*
1,1-$7,$15,$18-$13,$12-$11*
1,1-$7,$15,$10+$13,$11-$12*
1,1-$7,$15,$13-$10,$19-$12*%
%ADD13BOXR,0.700000X0.520000X0.250000X0.00X0X1X0*%
%ADD14C,0.500000*%
G04 layer name: DFS3498AM4_L7*
%LPD*%
G04 #@! TO.N,42*
D10*
X233850000Y106989995D02*
X234450000Y107589995D01*
X256350000D01*
X256600000Y107839995D01*
G04 #@! TO.N,54*
X235850000Y106989995D02*
X236250000Y107389995D01*
X256550000D01*
X256800000Y107639995D01*
G04 #@! TO.N,48*
X236850000Y99989995D02*
X237250000Y100389995D01*
X258200000D01*
X259200000Y101389995D01*
G04 #@! TO.N,53*
X237850000Y100989995D02*
X257800000D01*
X258800000Y101989995D01*
G04 #@! TO.N,14*
X235850000Y100989995D02*
X236250000Y101389995D01*
X257600000D01*
X258600000Y102389995D01*
G04 #@! TO.N,58*
X233850000Y100989995D02*
X234450000Y101589995D01*
X257400000D01*
X258400000Y102589995D01*
G04 #@! TO.N,61*
X234850000Y102989995D02*
X235450000Y103589995D01*
X257350000D01*
X257600000Y103839995D01*
G04 #@! TO.N,28*
X236850000Y105989995D02*
X237250000Y106389995D01*
X238858180D01*
X239058180Y106589995D01*
X257150000D01*
X257400000Y106839995D01*
G04 #@! TO.N,23*
X236850000Y101989995D02*
X237250000Y102389995D01*
X257875010D01*
X258200000Y102714985D01*
G04 #@! TO.N,57*
X234850000Y101989995D02*
X235450000Y102589995D01*
X257750000D01*
X258000000Y102839995D01*
G04 #@! TO.N,56*
X236850000Y107989995D02*
X237250000Y108389995D01*
X256150000D01*
X256400000Y108639995D01*
G04 #@! TO.N,59*
X234850000Y105989995D02*
X235450000Y106589995D01*
X238658180D01*
X238858180Y106789995D01*
X256950000D01*
X257200000Y107039995D01*
G04 #@! TO.N,36*
X237850000Y106989995D02*
X256750000D01*
X257000000Y107239995D01*
G04 #@! TO.N,20*
X236850000Y102989995D02*
X237250000Y103389995D01*
X257550000D01*
X257800000Y103639995D01*
G04 #@! TO.N,3*
X234850000Y99989995D02*
X235450000Y100589995D01*
X258000000D01*
X259000000Y101589995D01*
G04 #@! TO.N,49*
X234850000Y107989995D02*
X235450000Y108589995D01*
X255950000D01*
X256200000Y108839995D01*
G04 #@! TO.N,53*
X242298650Y140490100D02*
Y142190050D01*
X241798650Y142690050D01*
X223511015D01*
X223011015Y142190050D01*
Y107889995D01*
X223511015Y107389995D01*
X229450000D01*
X229850000Y106989995D01*
G04 #@! TO.N,48*
X240698650Y140490100D02*
Y141790050D01*
X240198650Y142290050D01*
X223911015D01*
X223411015Y141790050D01*
Y108489995D01*
X223911015Y107989995D01*
X228850000D01*
G04 #@! TO.N,44*
X241498650Y141290100D02*
Y141990050D01*
X240998650Y142490050D01*
X223711015D01*
X223211015Y141990050D01*
Y108089995D01*
X223711015Y107589995D01*
X231250000D01*
X231850000Y106989995D01*
G04 #@! TO.N,58*
X243898650Y140490100D02*
Y142590050D01*
X243398650Y143090050D01*
X223111015D01*
X222611015Y142590050D01*
Y107489995D01*
X223111015Y106989995D01*
X226541820D01*
X227141820Y106389995D01*
X230450000D01*
X230850000Y105989995D01*
G04 #@! TO.N,46*
X243098650Y141290100D02*
Y142390050D01*
X242598650Y142890050D01*
X223311015D01*
X222811015Y142390050D01*
Y107689995D01*
X223311015Y107189995D01*
X226741820D01*
X227341820Y106589995D01*
X232250000D01*
X232850000Y105989995D01*
G04 #@! TO.N,39*
X244698650Y141290100D02*
Y142790050D01*
X244198650Y143290050D01*
X222911015D01*
X222411015Y142790050D01*
Y107089995D01*
X222718515Y106782495D01*
X226367900D01*
X227160400Y105989995D01*
X228850000D01*
G04 #@! TO.N,56*
X230850000Y99989995D02*
X230450000Y100389995D01*
X221111015D01*
X220611015Y100889995D01*
Y144590050D01*
X221111015Y145090050D01*
X251398650D01*
X251898650Y144590050D01*
Y140490100D01*
G04 #@! TO.N,19*
X232850000Y99989995D02*
X232250000Y100589995D01*
X221311015D01*
X220811015Y101089995D01*
Y144390050D01*
X221311015Y144890050D01*
X250598650D01*
X251098650Y144390050D01*
Y141290100D01*
G04 #@! TO.N,57*
X231850000Y102989995D02*
X231250000Y103589995D01*
X227141820D01*
X226541820Y102989995D01*
X222711015D01*
X222211015Y103489995D01*
Y142990050D01*
X222711015Y143490050D01*
X244998650D01*
X245498650Y142990050D01*
Y140490100D01*
G04 #@! TO.N,33*
X229850000Y102989995D02*
X229450000Y103389995D01*
X227341820D01*
X226661820Y102709995D01*
X222511015D01*
X222011015Y103209995D01*
Y143190050D01*
X222511015Y143690050D01*
X245798650D01*
X246298650Y143190050D01*
Y141290100D01*
G04 #@! TO.N,61*
X232850000Y101989995D02*
X232250000Y102589995D01*
X227141820D01*
X226981815Y102429990D01*
X222311015D01*
X221811015Y102929990D01*
Y143390050D01*
X222311015Y143890050D01*
X246598650D01*
X247098650Y143390050D01*
Y140490100D01*
G04 #@! TO.N,24*
X230850000Y101989995D02*
X230450000Y102389995D01*
X227341820D01*
X227101810Y102149985D01*
X222111015D01*
X221611015Y102649985D01*
Y143590050D01*
X222111015Y144090050D01*
X247398650D01*
X247898650Y143590050D01*
Y141290100D01*
G04 #@! TO.N,59*
X228850000Y101989995D02*
X227341820D01*
X227221805Y101869980D01*
X221911015D01*
X221411015Y102369980D01*
Y143790050D01*
X221911015Y144290050D01*
X248198650D01*
X248698650Y143790050D01*
Y140490100D01*
G04 #@! TO.N,16*
X231850000Y100989995D02*
X231250000Y101589995D01*
X221711015D01*
X221211015Y102089995D01*
Y143990050D01*
X221711015Y144490050D01*
X248998650D01*
X249498650Y143990050D01*
Y141290100D01*
G04 #@! TO.N,54*
X229850000Y100989995D02*
X229450000Y101389995D01*
X221511015D01*
X221011015Y101889995D01*
Y144190050D01*
X221511015Y144690050D01*
X249798650D01*
X250298650Y144190050D01*
Y140490100D01*
G04 #@! TO.N,9*
X228850000Y99989995D02*
X220911015D01*
X220411015Y100489995D01*
Y144790050D01*
X220911015Y145290050D01*
X252198650D01*
X252698650Y144790050D01*
Y141290100D01*
G04 #@! TO.N,27*
X248698650Y136355075D02*
X249198650Y136855075D01*
X252956345D01*
X253956345Y137855075D01*
G04 #@! TO.N,40*
X251898650Y135555075D02*
X252398650Y136055075D01*
X253356345D01*
X254356345Y137055075D01*
G04 #@! TO.N,35*
X250298650Y135955075D02*
X250798650Y136455075D01*
X253156345D01*
X254156345Y137455075D01*
G04 #@! TO.N,31*
X247098650Y136755075D02*
X247598650Y137255075D01*
X252756345D01*
X253756345Y138255075D01*
G04 #@! TO.N,27*
X248698650Y128190100D02*
Y136355075D01*
G04 #@! TO.N,40*
X251898650Y128190100D02*
Y135555075D01*
G04 #@! TO.N,35*
X250298650Y128190100D02*
Y135955075D01*
G04 #@! TO.N,31*
X247098650Y128190100D02*
Y136755075D01*
G04 #@! TO.N,42*
X256600000Y107839995D02*
Y163890150D01*
X256100000Y164390150D01*
X237998650D01*
X237498650Y163890150D01*
Y161990200D01*
Y161190200D01*
G04 #@! TO.N,54*
X256800000Y107639995D02*
Y164090150D01*
X256300000Y164590150D01*
X237198650D01*
X236698650Y164090150D01*
Y161990200D01*
Y160390200D01*
G04 #@! TO.N,48*
X259200000Y101389995D02*
Y166490150D01*
X258700000Y166990150D01*
X227598650D01*
X227098650Y166490150D01*
G04 #@! TO.N,53*
X258800000Y101989995D02*
Y166090150D01*
X258300000Y166590150D01*
X229198650D01*
X228698650Y166090150D01*
Y161990200D01*
Y160390200D01*
G04 #@! TO.N,14*
X258600000Y102389995D02*
Y165890150D01*
X258100000Y166390150D01*
X229998650D01*
X229498650Y165890150D01*
Y161990200D01*
Y161190200D01*
G04 #@! TO.N,58*
X258400000Y102589995D02*
Y165690150D01*
X257900000Y166190150D01*
X230798650D01*
X230298650Y165690150D01*
Y161990200D01*
Y160390200D01*
G04 #@! TO.N,61*
X257600000Y103839995D02*
Y164890150D01*
X257100000Y165390150D01*
X233998650D01*
X233498650Y164890150D01*
Y161990200D01*
Y160390200D01*
G04 #@! TO.N,28*
X257400000Y106839995D02*
Y164690150D01*
X256900000Y165190150D01*
X234798650D01*
X234298650Y164690150D01*
Y161990200D01*
Y161190200D01*
G04 #@! TO.N,23*
X258200000Y102714985D02*
Y165490150D01*
X257700000Y165990150D01*
X231598650D01*
X231098650Y165490150D01*
Y161990200D01*
Y161190200D01*
G04 #@! TO.N,57*
X258000000Y102839995D02*
Y165290150D01*
X257500000Y165790150D01*
X232398650D01*
X231898650Y165290150D01*
Y161990200D01*
Y160390200D01*
G04 #@! TO.N,56*
X256400000Y108639995D02*
Y163690150D01*
X255900000Y164190150D01*
X238798650D01*
X238298650Y163690150D01*
Y161990200D01*
Y160390200D01*
G04 #@! TO.N,59*
X257200000Y107039995D02*
Y164490150D01*
X256700000Y164990150D01*
X235598650D01*
X235098650Y164490150D01*
Y161990200D01*
Y160390200D01*
G04 #@! TO.N,36*
X257000000Y107239995D02*
Y164290150D01*
X256500000Y164790150D01*
X236398650D01*
X235898650Y164290150D01*
Y161990200D01*
Y161190200D01*
G04 #@! TO.N,20*
X257800000Y103639995D02*
Y165090150D01*
X257300000Y165590150D01*
X233198650D01*
X232698650Y165090150D01*
Y161990200D01*
Y161190200D01*
G04 #@! TO.N,61*
X233271580Y160545330D02*
X233498650Y160877700D01*
X233362405Y160545330D01*
X233354540Y160612590D02*
G75*
G3*
X233498650Y160877700I-171795J265110D01*
G74*
G1*
X233725720Y160545330D01*
X233634890Y160545330D02*
X233498650Y160877700D01*
G75*
G3*
X233642760Y160612590I315905J0D01*
G74*
G1*
X233453235Y160545330D02*
X233498650Y160877700D01*
G75*
G3*
X233558650Y160612590I615690J0D01*
G74*
G1*
X239158650Y161412590D02*
G75*
G2*
X239098650Y161677700I555690J265110D01*
G74*
G04 #@! TO.N,49*
G1*
X239053235Y161345330D01*
X238962405Y161345330D02*
X239098650Y161677700D01*
X239144060Y161345330D01*
X238954540Y161412590D02*
G75*
G3*
X239098650Y161677700I-171795J265110D01*
G74*
G1*
X238871580Y161345330D01*
X239242760Y161412590D02*
G75*
G2*
X239098650Y161677700I171795J265110D01*
G74*
G1*
X239325720Y161345330D01*
X239234890Y161345330D02*
X239098650Y161677700D01*
G75*
G2*
X239038650Y161412590I-615690J0D01*
G74*
G04 #@! TO.N,56*
G1*
X238434890Y160545330D02*
X238298650Y160877700D01*
X238253235Y160545330D01*
X238238650Y160612590D02*
G75*
G3*
X238298650Y160877700I-555690J265110D01*
G74*
G75*
G2*
X238154540Y160612590I-315905J0D01*
G74*
G1*
X238525720Y160545330D02*
X238298650Y160877700D01*
G75*
G3*
X238358650Y160612590I615690J0D01*
G74*
G1*
X238344060Y160545330D02*
X238298650Y160877700D01*
X238071580Y160545330D01*
X238442760Y160612590D02*
G75*
G2*
X238298650Y160877700I171795J265110D01*
G74*
G1*
X238162405Y160545330D01*
G04 #@! TO.N,42*
X237634890Y161345330D02*
X237498650Y161677700D01*
X237725720Y161345330D01*
X237558650Y161412590D02*
G75*
G2*
X237498650Y161677700I555690J265110D01*
G74*
G75*
G3*
X237642760Y161412590I315905J0D01*
G74*
G1*
X237271580Y161345330D02*
X237498650Y161677700D01*
X237453235Y161345330D01*
X237438650Y161412590D02*
G75*
G3*
X237498650Y161677700I-555690J265110D01*
G74*
G75*
G2*
X237354540Y161412590I-315905J0D01*
G74*
G1*
X237544060Y161345330D02*
X237498650Y161677700D01*
X237362405Y161345330D01*
G04 #@! TO.N,54*
X236653235Y160545330D02*
X236698650Y160877700D01*
X236471580Y160545330D01*
X236834890Y160545330D02*
X236698650Y160877700D01*
X236562405Y160545330D01*
X236842760Y160612590D02*
G75*
G2*
X236698650Y160877700I171795J265110D01*
G74*
G1*
X236925720Y160545330D01*
X236744060Y160545330D02*
X236698650Y160877700D01*
G75*
G2*
X236554540Y160612590I-315905J0D01*
G74*
G1*
X236638650Y160612590D02*
G75*
G3*
X236698650Y160877700I-555690J265110D01*
G74*
G75*
G3*
X236758650Y160612590I615690J0D01*
G74*
G1*
X236042760Y161412590D02*
G75*
G2*
X235898650Y161677700I171795J265110D01*
G74*
G04 #@! TO.N,36*
G1*
X235762405Y161345330D01*
X236125720Y161345330D02*
X235898650Y161677700D01*
G75*
G3*
X235958650Y161412590I615690J0D01*
G74*
G1*
X235671580Y161345330D02*
X235898650Y161677700D01*
X236034890Y161345330D01*
X235754540Y161412590D02*
G75*
G3*
X235898650Y161677700I-171795J265110D01*
G74*
G1*
X235944060Y161345330D01*
X235853235Y161345330D02*
X235898650Y161677700D01*
G75*
G2*
X235838650Y161412590I-615690J0D01*
G74*
G1*
X234954540Y160612590D02*
G75*
G3*
X235098650Y160877700I-171795J265110D01*
G74*
G75*
G3*
X235242760Y160612590I315905J0D01*
G74*
G04 #@! TO.N,59*
G1*
X235325720Y160545330D02*
X235098650Y160877700D01*
X234962405Y160545330D01*
X234871580Y160545330D02*
X235098650Y160877700D01*
G75*
G3*
X235158650Y160612590I615690J0D01*
G74*
G1*
X235144060Y160545330D02*
X235098650Y160877700D01*
X235234890Y160545330D01*
X235053235Y160545330D02*
X235098650Y160877700D01*
G75*
G2*
X235038650Y160612590I-615690J0D01*
G74*
G1*
X234238650Y161412590D02*
G75*
G3*
X234298650Y161677700I-555690J265110D01*
G74*
G04 #@! TO.N,28*
G1*
X234525720Y161345330D01*
X234442760Y161412590D02*
G75*
G2*
X234298650Y161677700I171795J265110D01*
G74*
G1*
X234434890Y161345330D01*
X234253235Y161345330D02*
X234298650Y161677700D01*
X234071580Y161345330D01*
X234154540Y161412590D02*
G75*
G3*
X234298650Y161677700I-171795J265110D01*
G74*
G1*
X234344060Y161345330D01*
X234162405Y161345330D02*
X234298650Y161677700D01*
G75*
G3*
X234358650Y161412590I615690J0D01*
G74*
G04 #@! TO.N,61*
G1*
X233544060Y160545330D02*
X233498650Y160877700D01*
G75*
G2*
X233438650Y160612590I-615690J0D01*
G74*
G04 #@! TO.N,20*
G1*
X232562405Y161345330D02*
X232698650Y161677700D01*
G75*
G3*
X232842760Y161412590I315905J0D01*
G74*
G1*
X232554540Y161412590D02*
G75*
G3*
X232698650Y161677700I-171795J265110D01*
G74*
G1*
X232653235Y161345330D01*
X232834890Y161345330D02*
X232698650Y161677700D01*
X232925720Y161345330D01*
X232758650Y161412590D02*
G75*
G2*
X232698650Y161677700I555690J265110D01*
G74*
G1*
X232744060Y161345330D01*
X232638650Y161412590D02*
G75*
G3*
X232698650Y161677700I-555690J265110D01*
G74*
G1*
X232471580Y161345330D01*
G04 #@! TO.N,57*
X231853235Y160545330D02*
X231898650Y160877700D01*
G75*
G2*
X231754540Y160612590I-315905J0D01*
G74*
G1*
X232034890Y160545330D02*
X231898650Y160877700D01*
X231944060Y160545330D01*
X231958650Y160612590D02*
G75*
G2*
X231898650Y160877700I555690J265110D01*
G74*
G75*
G2*
X231838650Y160612590I-615690J0D01*
G74*
G1*
X232042760Y160612590D02*
G75*
G2*
X231898650Y160877700I171795J265110D01*
G74*
G1*
X231762405Y160545330D01*
X231671580Y160545330D02*
X231898650Y160877700D01*
X232125720Y160545330D01*
G04 #@! TO.N,23*
X231234890Y161345330D02*
X231098650Y161677700D01*
X231325720Y161345330D01*
X231242760Y161412590D02*
G75*
G2*
X231098650Y161677700I171795J265110D01*
G74*
G1*
X230871580Y161345330D01*
X231158650Y161412590D02*
G75*
G2*
X231098650Y161677700I555690J265110D01*
G74*
G75*
G2*
X231038650Y161412590I-615690J0D01*
G74*
G1*
X231144060Y161345330D02*
X231098650Y161677700D01*
X230962405Y161345330D01*
X231053235Y161345330D02*
X231098650Y161677700D01*
G75*
G2*
X230954540Y161412590I-315905J0D01*
G74*
G04 #@! TO.N,58*
G1*
X230162405Y160545330D02*
X230298650Y160877700D01*
G75*
G2*
X230154540Y160612590I-315905J0D01*
G74*
G1*
X230442760Y160612590D02*
G75*
G2*
X230298650Y160877700I171795J265110D01*
G74*
G75*
G2*
X230238650Y160612590I-615690J0D01*
G74*
G1*
X230434890Y160545330D02*
X230298650Y160877700D01*
X230344060Y160545330D01*
X230358650Y160612590D02*
G75*
G2*
X230298650Y160877700I555690J265110D01*
G74*
G1*
X230071580Y160545330D01*
X230525720Y160545330D02*
X230298650Y160877700D01*
X230253235Y160545330D01*
G04 #@! TO.N,14*
X229362405Y161345330D02*
X229498650Y161677700D01*
G75*
G2*
X229438650Y161412590I-615690J0D01*
G74*
G1*
X229271580Y161345330D02*
X229498650Y161677700D01*
G75*
G2*
X229354540Y161412590I-315905J0D01*
G74*
G1*
X229725720Y161345330D02*
X229498650Y161677700D01*
G75*
G3*
X229558650Y161412590I615690J0D01*
G74*
G1*
X229642760Y161412590D02*
G75*
G2*
X229498650Y161677700I171795J265110D01*
G74*
G1*
X229544060Y161345330D01*
X229634890Y161345330D02*
X229498650Y161677700D01*
X229453235Y161345330D01*
G04 #@! TO.N,53*
X228744060Y160545330D02*
X228698650Y160877700D01*
X228562405Y160545330D01*
X228758650Y160612590D02*
G75*
G2*
X228698650Y160877700I555690J265110D01*
G74*
G75*
G3*
X228842760Y160612590I315905J0D01*
G74*
G1*
X228834890Y160545330D02*
X228698650Y160877700D01*
X228653235Y160545330D01*
X228554540Y160612590D02*
G75*
G3*
X228698650Y160877700I-171795J265110D01*
G74*
G1*
X228471580Y160545330D01*
X228925720Y160545330D02*
X228698650Y160877700D01*
G75*
G2*
X228638650Y160612590I-615690J0D01*
G74*
G04 #@! TO.N,3*
G1*
X227944060Y161345330D02*
X227898650Y161677700D01*
G75*
G3*
X228042760Y161412590I315905J0D01*
G74*
G1*
X227671580Y161345330D02*
X227898650Y161677700D01*
X227853235Y161345330D01*
X227958650Y161412590D02*
G75*
G2*
X227898650Y161677700I555690J265110D01*
G74*
G1*
X228125720Y161345330D01*
X227762405Y161345330D02*
X227898650Y161677700D01*
G75*
G2*
X227754540Y161412590I-315905J0D01*
G74*
G1*
X228034890Y161345330D02*
X227898650Y161677700D01*
G75*
G2*
X227838650Y161412590I-615690J0D01*
G74*
G1*
X259000000Y101589995D02*
Y166290150D01*
X258500000Y166790150D01*
X228398650D01*
X227898650Y166290150D01*
Y161990200D01*
Y161190200D01*
X227898950Y161690205D02*
Y161190200D01*
G04 #@! TO.N,20*
X232698950Y161690205D02*
Y161190200D01*
G04 #@! TO.N,28*
X234298950Y161690205D02*
Y161190200D01*
G04 #@! TO.N,59*
X235098950Y161690205D02*
Y160390200D01*
G04 #@! TO.N,36*
X235898950Y161690205D02*
Y161190200D01*
G04 #@! TO.N,54*
X236698950Y161690205D02*
Y160390200D01*
G04 #@! TO.N,56*
X238298950Y161690205D02*
Y160390200D01*
G04 #@! TO.N,49*
X239098950Y161690205D02*
Y161190200D01*
G04 #@! TO.N,42*
X237498950Y161690205D02*
Y161190200D01*
G04 #@! TO.N,53*
X228698950Y160390200D02*
Y161690205D01*
G04 #@! TO.N,14*
X229498950Y161190200D02*
Y161690205D01*
G04 #@! TO.N,58*
X230298950Y160390200D02*
Y161690205D01*
G04 #@! TO.N,57*
X231898950Y160390200D02*
Y161690205D01*
G04 #@! TO.N,61*
X233498950Y161690205D02*
Y160390200D01*
G04 #@! TO.N,23*
X231098950Y161690205D02*
Y161190200D01*
G04 #@! TO.N,48*
X227098950Y160390200D02*
Y166490150D01*
G04 #@! TO.N,49*
X256200000Y108839995D02*
Y163490150D01*
X255700000Y163990150D01*
X239598650D01*
X239098650Y163490150D01*
Y161990200D01*
Y161190200D01*
G04 #@! TO.N,27*
X253956345Y137855075D02*
Y149186650D01*
X252956345Y150186650D01*
X229198650D01*
X228698650Y150686650D01*
G04 #@! TO.N,40*
X254356345Y137055075D02*
Y149986650D01*
X253356345Y150986650D01*
X232398650D01*
X231898650Y151486650D01*
G04 #@! TO.N,35*
X254156345Y137455075D02*
Y149586650D01*
X253156345Y150586650D01*
X230798650D01*
X230298650Y151086650D01*
G04 #@! TO.N,31*
X253756345Y138255075D02*
Y148786650D01*
X252756345Y149786650D01*
X227598650D01*
X227098650Y150286650D01*
G04 #@! TO.N,27*
X228698650Y150686650D02*
Y152390200D01*
G04 #@! TO.N,40*
X231898650Y151486650D02*
Y152390200D01*
G04 #@! TO.N,35*
X230298650Y151086650D02*
Y152390200D01*
G04 #@! TO.N,31*
X227098650Y150286650D02*
Y152390200D01*
G04 #@! TO.N,10*
D11*
X240698650Y128190100D03*
G04 #@! TO.N,4*
X241498650Y127390100D03*
G04 #@! TO.N,2*
X242298650Y128190100D03*
G04 #@! TO.N,15*
X243098650Y127390100D03*
G04 #@! TO.N,13*
X243898650Y128190100D03*
G04 #@! TO.N,11*
X244698650Y127390100D03*
G04 #@! TO.N,22*
X245498650Y128190100D03*
G04 #@! TO.N,8*
X246298650Y127390100D03*
G04 #@! TO.N,31*
X247098650Y128190100D03*
G04 #@! TO.N,29*
X247898650Y127390100D03*
G04 #@! TO.N,27*
X248698650Y128190100D03*
G04 #@! TO.N,37*
X249498650Y127390100D03*
G04 #@! TO.N,35*
X250298650Y128190100D03*
G04 #@! TO.N,43*
X251098650Y127390100D03*
G04 #@! TO.N,40*
X251898650Y128190100D03*
G04 #@! TO.N,34*
X227098650D03*
G04 #@! TO.N,47*
X227898650Y127390100D03*
G04 #@! TO.N,25*
X228698650Y128190100D03*
G04 #@! TO.N,52*
X229498650Y127390100D03*
G04 #@! TO.N,17*
X230298650Y128190100D03*
G04 #@! TO.N,55*
X231098650Y127390100D03*
G04 #@! TO.N,6*
X231898650Y128190100D03*
G04 #@! TO.N,50*
X232698650Y127390100D03*
G04 #@! TO.N,62*
X233498650Y128190100D03*
G04 #@! TO.N,51*
X234298650Y127390100D03*
G04 #@! TO.N,63*
X235098650Y128190100D03*
G04 #@! TO.N,45*
X235898650Y127390100D03*
G04 #@! TO.N,65*
X236698650Y128190100D03*
G04 #@! TO.N,38*
X237498650Y127390100D03*
G04 #@! TO.N,64*
X238298650Y128190100D03*
G04 #@! TO.N,32*
X239098650Y127390100D03*
G04 #@! TO.N,41*
X252698650D03*
G04 #@! TO.N,9*
Y141290100D03*
G04 #@! TO.N,56*
X251898650Y140490100D03*
G04 #@! TO.N,19*
X251098650Y141290100D03*
G04 #@! TO.N,54*
X250298650Y140490100D03*
G04 #@! TO.N,16*
X249498650Y141290100D03*
G04 #@! TO.N,59*
X248698650Y140490100D03*
G04 #@! TO.N,24*
X247898650Y141290100D03*
G04 #@! TO.N,61*
X247098650Y140490100D03*
G04 #@! TO.N,33*
X246298650Y141290100D03*
G04 #@! TO.N,57*
X245498650Y140490100D03*
G04 #@! TO.N,39*
X244698650Y141290100D03*
G04 #@! TO.N,58*
X243898650Y140490100D03*
G04 #@! TO.N,46*
X243098650Y141290100D03*
G04 #@! TO.N,53*
X242298650Y140490100D03*
G04 #@! TO.N,44*
X241498650Y141290100D03*
G04 #@! TO.N,48*
X240698650Y140490100D03*
G04 #@! TO.N,49*
X239098650Y141290100D03*
G04 #@! TO.N,7*
X238298650Y140490100D03*
G04 #@! TO.N,42*
X237498650Y141290100D03*
G04 #@! TO.N,18*
X236698650Y140490100D03*
G04 #@! TO.N,36*
X235898650Y141290100D03*
G04 #@! TO.N,26*
X235098650Y140490100D03*
G04 #@! TO.N,28*
X234298650Y141290100D03*
G04 #@! TO.N,30*
X233498650Y140490100D03*
G04 #@! TO.N,20*
X232698650Y141290100D03*
G04 #@! TO.N,21*
X231898650Y140490100D03*
G04 #@! TO.N,23*
X231098650Y141290100D03*
G04 #@! TO.N,12*
X230298650Y140490100D03*
G04 #@! TO.N,14*
X229498650Y141290100D03*
G04 #@! TO.N,1*
X228698650Y140490100D03*
G04 #@! TO.N,3*
X227898650Y141290100D03*
G04 #@! TO.N,5*
X227098650Y140490100D03*
G04 #@! TO.N,49*
X239098650Y161190200D03*
G04 #@! TO.N,56*
X238298650Y160390200D03*
G04 #@! TO.N,42*
X237498650Y161190200D03*
G04 #@! TO.N,54*
X236698650Y160390200D03*
G04 #@! TO.N,36*
X235898650Y161190200D03*
G04 #@! TO.N,59*
X235098650Y160390200D03*
G04 #@! TO.N,28*
X234298650Y161190200D03*
G04 #@! TO.N,61*
X233498650Y160390200D03*
G04 #@! TO.N,20*
X232698650Y161190200D03*
G04 #@! TO.N,57*
X231898650Y160390200D03*
G04 #@! TO.N,23*
X231098650Y161190200D03*
G04 #@! TO.N,58*
X230298650Y160390200D03*
G04 #@! TO.N,14*
X229498650Y161190200D03*
G04 #@! TO.N,53*
X228698650Y160390200D03*
G04 #@! TO.N,3*
X227898650Y161190200D03*
G04 #@! TO.N,8*
X239098650Y153190200D03*
G04 #@! TO.N,6*
X238298650Y152390200D03*
G04 #@! TO.N,11*
X237498650Y153190200D03*
G04 #@! TO.N,17*
X236698650Y152390200D03*
G04 #@! TO.N,15*
X235898650Y153190200D03*
G04 #@! TO.N,25*
X235098650Y152390200D03*
G04 #@! TO.N,4*
X234298650Y153190200D03*
G04 #@! TO.N,34*
X233498650Y152390200D03*
G04 #@! TO.N,32*
X232698650Y153190200D03*
G04 #@! TO.N,40*
X231898650Y152390200D03*
G04 #@! TO.N,38*
X231098650Y153190200D03*
G04 #@! TO.N,35*
X230298650Y152390200D03*
G04 #@! TO.N,45*
X229498650Y153190200D03*
G04 #@! TO.N,27*
X228698650Y152390200D03*
G04 #@! TO.N,51*
X227898650Y153190200D03*
G04 #@! TO.N,31*
X227098650Y152390200D03*
G04 #@! TO.N,50*
X252698650Y153190200D03*
G04 #@! TO.N,22*
X251898650Y152390200D03*
G04 #@! TO.N,55*
X251098650Y153190200D03*
G04 #@! TO.N,13*
X250298650Y152390200D03*
G04 #@! TO.N,52*
X249498650Y153190200D03*
G04 #@! TO.N,2*
X248698650Y152390200D03*
G04 #@! TO.N,47*
X247898650Y153190200D03*
G04 #@! TO.N,10*
X247098650Y152390200D03*
G04 #@! TO.N,41*
X246298650Y153190200D03*
G04 #@! TO.N,64*
X245498650Y152390200D03*
G04 #@! TO.N,43*
X244698650Y153190200D03*
G04 #@! TO.N,65*
X243898650Y152390200D03*
G04 #@! TO.N,37*
X243098650Y153190200D03*
G04 #@! TO.N,63*
X242298650Y152390200D03*
G04 #@! TO.N,29*
X241498650Y153190200D03*
G04 #@! TO.N,62*
X240698650Y152390200D03*
G04 #@! TO.N,9*
X252698650Y161190200D03*
G04 #@! TO.N,7*
X251898650Y160390200D03*
G04 #@! TO.N,19*
X251098650Y161190200D03*
G04 #@! TO.N,18*
X250298650Y160390200D03*
G04 #@! TO.N,16*
X249498650Y161190200D03*
G04 #@! TO.N,26*
X248698650Y160390200D03*
G04 #@! TO.N,24*
X247898650Y161190200D03*
G04 #@! TO.N,30*
X247098650Y160390200D03*
G04 #@! TO.N,33*
X246298650Y161190200D03*
G04 #@! TO.N,21*
X245498650Y160390200D03*
G04 #@! TO.N,39*
X244698650Y161190200D03*
G04 #@! TO.N,12*
X243898650Y160390200D03*
G04 #@! TO.N,46*
X243098650Y161190200D03*
G04 #@! TO.N,1*
X242298650Y160390200D03*
G04 #@! TO.N,44*
X241498650Y161190200D03*
G04 #@! TO.N,5*
X240698650Y160390200D03*
G04 #@! TO.N,49*
X239098650Y161190200D03*
G04 #@! TO.N,56*
X238298650Y160390200D03*
G04 #@! TO.N,42*
X237498650Y161190200D03*
G04 #@! TO.N,54*
X236698650Y160390200D03*
G04 #@! TO.N,36*
X235898650Y161190200D03*
G04 #@! TO.N,59*
X235098650Y160390200D03*
G04 #@! TO.N,28*
X234298650Y161190200D03*
G04 #@! TO.N,61*
X233498650Y160390200D03*
G04 #@! TO.N,20*
X232698650Y161190200D03*
G04 #@! TO.N,57*
X231898650Y160390200D03*
G04 #@! TO.N,23*
X231098650Y161190200D03*
G04 #@! TO.N,58*
X230298650Y160390200D03*
G04 #@! TO.N,14*
X229498650Y161190200D03*
G04 #@! TO.N,53*
X228698650Y160390200D03*
G04 #@! TO.N,3*
X227898650Y161190200D03*
G04 #@! TO.N,48*
X227098650Y160390200D03*
G04 #@! TO.N,60*
D12*
X237850000Y104989995D02*
X228850000D01*
X237850000Y93989995D02*
X228850000D01*
X237850000Y94989995D02*
X228850000D01*
X237850000Y103989995D02*
X228850000D01*
X233850000Y104989995D02*
Y101989995D01*
X233850000Y96989995D02*
Y93989995D01*
G04 #@! TO.N,1*
D13*
X237850000Y84989995D03*
G04 #@! TO.N,2*
X236850000D03*
G04 #@! TO.N,3*
X235850000D03*
G04 #@! TO.N,4*
X234850000D03*
G04 #@! TO.N,5*
X233850000D03*
G04 #@! TO.N,6*
X232850000D03*
G04 #@! TO.N,7*
X231850000D03*
G04 #@! TO.N,8*
X230850000D03*
G04 #@! TO.N,9*
X229850000D03*
G04 #@! TO.N,10*
X228850000D03*
G04 #@! TO.N,11*
X237850000Y85989995D03*
G04 #@! TO.N,12*
X236850000D03*
G04 #@! TO.N,13*
X235850000D03*
G04 #@! TO.N,14*
X234850000D03*
G04 #@! TO.N,15*
X233850000D03*
G04 #@! TO.N,16*
X232850000D03*
G04 #@! TO.N,17*
X231850000D03*
G04 #@! TO.N,18*
X230850000D03*
G04 #@! TO.N,11*
X229850000D03*
G04 #@! TO.N,19*
X228850000D03*
G04 #@! TO.N,20*
X237850000Y86989995D03*
G04 #@! TO.N,8*
X236850000D03*
G04 #@! TO.N,21*
X235850000D03*
G04 #@! TO.N,22*
X234850000D03*
G04 #@! TO.N,23*
X233850000D03*
G04 #@! TO.N,4*
X232850000D03*
G04 #@! TO.N,24*
X231850000D03*
G04 #@! TO.N,25*
X230850000D03*
G04 #@! TO.N,26*
X229850000D03*
G04 #@! TO.N,15*
X228850000D03*
G04 #@! TO.N,27*
X237850000Y87989995D03*
G04 #@! TO.N,28*
X236850000D03*
G04 #@! TO.N,29*
X235850000D03*
G04 #@! TO.N,30*
X234850000D03*
G04 #@! TO.N,31*
X233850000D03*
G04 #@! TO.N,21*
X232850000D03*
G04 #@! TO.N,32*
X231850000D03*
G04 #@! TO.N,33*
X230850000D03*
G04 #@! TO.N,34*
X229850000D03*
G04 #@! TO.N,30*
X228850000D03*
G04 #@! TO.N,18*
X237850000Y88989995D03*
G04 #@! TO.N,35*
X236850000D03*
G04 #@! TO.N,36*
X235850000D03*
G04 #@! TO.N,37*
X234850000D03*
G04 #@! TO.N,26*
X233850000D03*
G04 #@! TO.N,35*
X232850000D03*
G04 #@! TO.N,12*
X231850000D03*
G04 #@! TO.N,38*
X230850000D03*
G04 #@! TO.N,39*
X229850000D03*
G04 #@! TO.N,40*
X228850000D03*
G04 #@! TO.N,41*
X237850000Y89989995D03*
G04 #@! TO.N,7*
X236850000D03*
G04 #@! TO.N,40*
X235850000D03*
G04 #@! TO.N,42*
X234850000D03*
G04 #@! TO.N,43*
X233850000D03*
G04 #@! TO.N,44*
X232850000D03*
G04 #@! TO.N,27*
X231850000D03*
G04 #@! TO.N,1*
X230850000D03*
G04 #@! TO.N,45*
X229850000D03*
G04 #@! TO.N,46*
X228850000D03*
G04 #@! TO.N,44*
X237850000Y90989995D03*
G04 #@! TO.N,47*
X236850000D03*
G04 #@! TO.N,48*
X235850000D03*
G04 #@! TO.N,34*
X234850000D03*
G04 #@! TO.N,49*
X233850000D03*
G04 #@! TO.N,50*
X232850000D03*
G04 #@! TO.N,49*
X231850000D03*
G04 #@! TO.N,31*
X230850000D03*
G04 #@! TO.N,5*
X229850000D03*
G04 #@! TO.N,51*
X228850000D03*
G04 #@! TO.N,17*
X237850000Y91989995D03*
G04 #@! TO.N,46*
X236850000D03*
G04 #@! TO.N,52*
X235850000D03*
G04 #@! TO.N,53*
X234850000D03*
G04 #@! TO.N,25*
X233850000D03*
G04 #@! TO.N,54*
X232850000D03*
G04 #@! TO.N,55*
X231850000D03*
G04 #@! TO.N,42*
X230850000D03*
G04 #@! TO.N,22*
X229850000D03*
G04 #@! TO.N,56*
X228850000D03*
G04 #@! TO.N,57*
X237850000Y92989995D03*
G04 #@! TO.N,6*
X236850000D03*
G04 #@! TO.N,39*
X235850000D03*
G04 #@! TO.N,55*
X234850000D03*
G04 #@! TO.N,58*
X233850000D03*
G04 #@! TO.N,2*
X232850000D03*
G04 #@! TO.N,59*
X231850000D03*
G04 #@! TO.N,52*
X230850000D03*
G04 #@! TO.N,36*
X229850000D03*
G04 #@! TO.N,13*
X228850000D03*
G04 #@! TO.N,60*
X237850000Y93989995D03*
X236850000D03*
X235850000D03*
X234850000D03*
X233850000D03*
X232850000D03*
X231850000D03*
X230850000D03*
X229850000D03*
X228850000D03*
X237850000Y94989995D03*
X236850000D03*
X235850000D03*
X234850000D03*
X233850000D03*
X232850000D03*
X231850000D03*
X230850000D03*
X229850000D03*
X228850000D03*
G04 #@! TO.N,61*
X237850000Y95989995D03*
G04 #@! TO.N,62*
X236850000D03*
G04 #@! TO.N,33*
X235850000D03*
G04 #@! TO.N,50*
X234850000D03*
G04 #@! TO.N,60*
X233850000D03*
G04 #@! TO.N,20*
X232850000D03*
G04 #@! TO.N,10*
X231850000D03*
G04 #@! TO.N,61*
X230850000D03*
G04 #@! TO.N,47*
X229850000D03*
G04 #@! TO.N,28*
X228850000D03*
G04 #@! TO.N,59*
X237850000Y96989995D03*
G04 #@! TO.N,63*
X236850000D03*
G04 #@! TO.N,24*
X235850000D03*
G04 #@! TO.N,51*
X234850000D03*
G04 #@! TO.N,60*
X233850000D03*
G04 #@! TO.N,43*
X232850000D03*
G04 #@! TO.N,23*
X231850000D03*
G04 #@! TO.N,64*
X230850000D03*
G04 #@! TO.N,57*
X229850000D03*
G04 #@! TO.N,41*
X228850000D03*
G04 #@! TO.N,38*
X237850000Y97989995D03*
G04 #@! TO.N,54*
X236850000D03*
G04 #@! TO.N,65*
X235850000D03*
G04 #@! TO.N,16*
X234850000D03*
G04 #@! TO.N,45*
X233850000D03*
G04 #@! TO.N,53*
X232850000D03*
G04 #@! TO.N,37*
X231850000D03*
G04 #@! TO.N,14*
X230850000D03*
G04 #@! TO.N,65*
X229850000D03*
G04 #@! TO.N,58*
X228850000D03*
G04 #@! TO.N,9*
X237850000Y98989995D03*
G04 #@! TO.N,32*
X236850000D03*
G04 #@! TO.N,56*
X235850000D03*
G04 #@! TO.N,64*
X234850000D03*
G04 #@! TO.N,19*
X233850000D03*
G04 #@! TO.N,62*
X232850000D03*
G04 #@! TO.N,48*
X231850000D03*
G04 #@! TO.N,29*
X230850000D03*
G04 #@! TO.N,3*
X229850000D03*
G04 #@! TO.N,63*
X228850000D03*
G04 #@! TO.N,31*
X237850000Y99989995D03*
G04 #@! TO.N,48*
X236850000D03*
G04 #@! TO.N,51*
X235850000D03*
G04 #@! TO.N,3*
X234850000D03*
G04 #@! TO.N,27*
X233850000D03*
G04 #@! TO.N,19*
X232850000D03*
G04 #@! TO.N,40*
X231850000D03*
G04 #@! TO.N,56*
X230850000D03*
G04 #@! TO.N,41*
X229850000D03*
G04 #@! TO.N,9*
X228850000D03*
G04 #@! TO.N,53*
X237850000Y100989995D03*
G04 #@! TO.N,45*
X236850000D03*
G04 #@! TO.N,14*
X235850000D03*
G04 #@! TO.N,35*
X234850000D03*
G04 #@! TO.N,58*
X233850000D03*
G04 #@! TO.N,37*
X232850000D03*
G04 #@! TO.N,16*
X231850000D03*
G04 #@! TO.N,35*
X230850000D03*
G04 #@! TO.N,54*
X229850000D03*
G04 #@! TO.N,43*
X228850000D03*
G04 #@! TO.N,38*
X237850000Y101989995D03*
G04 #@! TO.N,23*
X236850000D03*
G04 #@! TO.N,40*
X235850000D03*
G04 #@! TO.N,57*
X234850000D03*
G04 #@! TO.N,60*
X233850000D03*
G04 #@! TO.N,61*
X232850000D03*
G04 #@! TO.N,29*
X231850000D03*
G04 #@! TO.N,24*
X230850000D03*
G04 #@! TO.N,27*
X229850000D03*
G04 #@! TO.N,59*
X228850000D03*
G04 #@! TO.N,32*
X237850000Y102989995D03*
G04 #@! TO.N,20*
X236850000D03*
G04 #@! TO.N,34*
X235850000D03*
G04 #@! TO.N,61*
X234850000D03*
G04 #@! TO.N,60*
X233850000D03*
G04 #@! TO.N,22*
X232850000D03*
G04 #@! TO.N,57*
X231850000D03*
G04 #@! TO.N,8*
X230850000D03*
G04 #@! TO.N,33*
X229850000D03*
G04 #@! TO.N,31*
X228850000D03*
G04 #@! TO.N,60*
X237850000Y103989995D03*
X236850000D03*
X235850000D03*
X234850000D03*
X233850000D03*
X232850000D03*
X231850000D03*
X230850000D03*
X229850000D03*
X228850000D03*
X237850000Y104989995D03*
X236850000D03*
X235850000D03*
X234850000D03*
X233850000D03*
X232850000D03*
X231850000D03*
X230850000D03*
X229850000D03*
X228850000D03*
G04 #@! TO.N,4*
X237850000Y105989995D03*
G04 #@! TO.N,28*
X236850000D03*
G04 #@! TO.N,25*
X235850000D03*
G04 #@! TO.N,59*
X234850000D03*
G04 #@! TO.N,15*
X233850000D03*
G04 #@! TO.N,46*
X232850000D03*
G04 #@! TO.N,13*
X231850000D03*
G04 #@! TO.N,58*
X230850000D03*
G04 #@! TO.N,11*
X229850000D03*
G04 #@! TO.N,39*
X228850000D03*
G04 #@! TO.N,36*
X237850000Y106989995D03*
G04 #@! TO.N,17*
X236850000D03*
G04 #@! TO.N,54*
X235850000D03*
G04 #@! TO.N,11*
X234850000D03*
G04 #@! TO.N,42*
X233850000D03*
G04 #@! TO.N,4*
X232850000D03*
G04 #@! TO.N,44*
X231850000D03*
G04 #@! TO.N,2*
X230850000D03*
G04 #@! TO.N,53*
X229850000D03*
G04 #@! TO.N,15*
X228850000D03*
G04 #@! TO.N,6*
X237850000Y107989995D03*
G04 #@! TO.N,56*
X236850000D03*
G04 #@! TO.N,8*
X235850000D03*
G04 #@! TO.N,49*
X234850000D03*
G04 #@! TO.N,62*
X233850000D03*
G04 #@! TO.N,7*
X232850000D03*
G04 #@! TO.N,32*
X231850000D03*
G04 #@! TO.N,49*
X230850000D03*
G04 #@! TO.N,10*
X229850000D03*
G04 #@! TO.N,48*
X228850000D03*
G04 #@! TO.N,5*
X237850000Y108989995D03*
G04 #@! TO.N,29*
X236850000D03*
G04 #@! TO.N,44*
X235850000D03*
G04 #@! TO.N,63*
X234850000D03*
G04 #@! TO.N,1*
X233850000D03*
G04 #@! TO.N,65*
X232850000D03*
G04 #@! TO.N,18*
X231850000D03*
G04 #@! TO.N,38*
X230850000D03*
G04 #@! TO.N,42*
X229850000D03*
G04 #@! TO.N,64*
X228850000D03*
G04 #@! TO.N,37*
X237850000Y109989995D03*
G04 #@! TO.N,46*
X236850000D03*
G04 #@! TO.N,65*
X235850000D03*
G04 #@! TO.N,12*
X234850000D03*
G04 #@! TO.N,43*
X233850000D03*
G04 #@! TO.N,28*
X232850000D03*
G04 #@! TO.N,63*
X231850000D03*
G04 #@! TO.N,26*
X230850000D03*
G04 #@! TO.N,45*
X229850000D03*
G04 #@! TO.N,36*
X228850000D03*
G04 #@! TO.N,39*
X237850000Y110989995D03*
G04 #@! TO.N,64*
X236850000D03*
G04 #@! TO.N,21*
X235850000D03*
G04 #@! TO.N,41*
X234850000D03*
G04 #@! TO.N,33*
X233850000D03*
G04 #@! TO.N,50*
X232850000D03*
G04 #@! TO.N,20*
X231850000D03*
G04 #@! TO.N,62*
X230850000D03*
G04 #@! TO.N,30*
X229850000D03*
G04 #@! TO.N,51*
X228850000D03*
G04 #@! TO.N,10*
X237850000Y111989995D03*
G04 #@! TO.N,30*
X236850000D03*
G04 #@! TO.N,47*
X235850000D03*
G04 #@! TO.N,24*
X234850000D03*
G04 #@! TO.N,2*
X233850000D03*
G04 #@! TO.N,12*
X232850000D03*
G04 #@! TO.N,55*
X231850000D03*
G04 #@! TO.N,23*
X230850000D03*
G04 #@! TO.N,6*
X229850000D03*
G04 #@! TO.N,21*
X228850000D03*
G04 #@! TO.N,26*
X237850000Y112989995D03*
G04 #@! TO.N,52*
X236850000D03*
G04 #@! TO.N,16*
X235850000D03*
G04 #@! TO.N,13*
X234850000D03*
G04 #@! TO.N,18*
X233850000D03*
G04 #@! TO.N,25*
X232850000D03*
G04 #@! TO.N,1*
X231850000D03*
G04 #@! TO.N,52*
X230850000D03*
G04 #@! TO.N,14*
X229850000D03*
G04 #@! TO.N,17*
X228850000D03*
G04 #@! TO.N,55*
X237850000Y113989995D03*
G04 #@! TO.N,19*
X236850000D03*
G04 #@! TO.N,22*
X235850000D03*
G04 #@! TO.N,7*
X234850000D03*
G04 #@! TO.N,50*
X233850000D03*
G04 #@! TO.N,9*
X232850000D03*
G04 #@! TO.N,34*
X231850000D03*
G04 #@! TO.N,5*
X230850000D03*
G04 #@! TO.N,47*
X229850000D03*
G04 #@! TO.N,3*
X228850000D03*
G04 #@! TO.N,1*
D14*
X237550000Y84989995D03*
G04 #@! TO.N,2*
X236550000D03*
G04 #@! TO.N,3*
X235550000D03*
G04 #@! TO.N,4*
X234550000D03*
G04 #@! TO.N,5*
X233550000D03*
G04 #@! TO.N,6*
X232550000D03*
G04 #@! TO.N,7*
X231550000D03*
G04 #@! TO.N,8*
X230550000D03*
G04 #@! TO.N,9*
X229550000D03*
G04 #@! TO.N,10*
X228550000D03*
G04 #@! TO.N,11*
X237550000Y85989995D03*
G04 #@! TO.N,12*
X236550000D03*
G04 #@! TO.N,13*
X235550000D03*
G04 #@! TO.N,14*
X234550000D03*
G04 #@! TO.N,15*
X233550000D03*
G04 #@! TO.N,16*
X232550000D03*
G04 #@! TO.N,17*
X231550000D03*
G04 #@! TO.N,18*
X230550000D03*
G04 #@! TO.N,11*
X229550000D03*
G04 #@! TO.N,19*
X228550000D03*
G04 #@! TO.N,20*
X237550000Y86989995D03*
G04 #@! TO.N,8*
X236550000D03*
G04 #@! TO.N,21*
X235550000D03*
G04 #@! TO.N,22*
X234550000D03*
G04 #@! TO.N,23*
X233550000D03*
G04 #@! TO.N,4*
X232550000D03*
G04 #@! TO.N,24*
X231550000D03*
G04 #@! TO.N,25*
X230550000D03*
G04 #@! TO.N,26*
X229550000D03*
G04 #@! TO.N,15*
X228550000D03*
G04 #@! TO.N,27*
X237550000Y87989995D03*
G04 #@! TO.N,28*
X236550000D03*
G04 #@! TO.N,29*
X235550000D03*
G04 #@! TO.N,30*
X234550000D03*
G04 #@! TO.N,31*
X233550000D03*
G04 #@! TO.N,21*
X232550000D03*
G04 #@! TO.N,32*
X231550000D03*
G04 #@! TO.N,33*
X230550000D03*
G04 #@! TO.N,34*
X229550000D03*
G04 #@! TO.N,30*
X228550000D03*
G04 #@! TO.N,18*
X237550000Y88989995D03*
G04 #@! TO.N,35*
X236550000D03*
G04 #@! TO.N,36*
X235550000D03*
G04 #@! TO.N,37*
X234550000D03*
G04 #@! TO.N,26*
X233550000D03*
G04 #@! TO.N,35*
X232550000D03*
G04 #@! TO.N,12*
X231550000D03*
G04 #@! TO.N,38*
X230550000D03*
G04 #@! TO.N,39*
X229550000D03*
G04 #@! TO.N,40*
X228550000D03*
G04 #@! TO.N,41*
X237550000Y89989995D03*
G04 #@! TO.N,7*
X236550000D03*
G04 #@! TO.N,40*
X235550000D03*
G04 #@! TO.N,42*
X234550000D03*
G04 #@! TO.N,43*
X233550000D03*
G04 #@! TO.N,44*
X232550000D03*
G04 #@! TO.N,27*
X231550000D03*
G04 #@! TO.N,1*
X230550000D03*
G04 #@! TO.N,45*
X229550000D03*
G04 #@! TO.N,46*
X228550000D03*
G04 #@! TO.N,44*
X237550000Y90989995D03*
G04 #@! TO.N,47*
X236550000D03*
G04 #@! TO.N,48*
X235550000D03*
G04 #@! TO.N,34*
X234550000D03*
G04 #@! TO.N,49*
X233550000D03*
G04 #@! TO.N,50*
X232550000D03*
G04 #@! TO.N,49*
X231550000D03*
G04 #@! TO.N,31*
X230550000D03*
G04 #@! TO.N,5*
X229550000D03*
G04 #@! TO.N,51*
X228550000D03*
G04 #@! TO.N,17*
X237550000Y91989995D03*
G04 #@! TO.N,46*
X236550000D03*
G04 #@! TO.N,52*
X235550000D03*
G04 #@! TO.N,53*
X234550000D03*
G04 #@! TO.N,25*
X233550000D03*
G04 #@! TO.N,54*
X232550000D03*
G04 #@! TO.N,55*
X231550000D03*
G04 #@! TO.N,42*
X230550000D03*
G04 #@! TO.N,22*
X229550000D03*
G04 #@! TO.N,56*
X228550000D03*
G04 #@! TO.N,57*
X237550000Y92989995D03*
G04 #@! TO.N,6*
X236550000D03*
G04 #@! TO.N,39*
X235550000D03*
G04 #@! TO.N,55*
X234550000D03*
G04 #@! TO.N,58*
X233550000D03*
G04 #@! TO.N,2*
X232550000D03*
G04 #@! TO.N,59*
X231550000D03*
G04 #@! TO.N,52*
X230550000D03*
G04 #@! TO.N,36*
X229550000D03*
G04 #@! TO.N,13*
X228550000D03*
G04 #@! TO.N,60*
X237550000Y93989995D03*
X236550000D03*
X235550000D03*
X234550000D03*
X233550000D03*
X232550000D03*
X231550000D03*
X230550000D03*
X229550000D03*
X228550000D03*
X237550000Y94989995D03*
X236550000D03*
X235550000D03*
X234550000D03*
X233550000D03*
X232550000D03*
X231550000D03*
X230550000D03*
X229550000D03*
X228550000D03*
G04 #@! TO.N,61*
X237550000Y95989995D03*
G04 #@! TO.N,62*
X236550000D03*
G04 #@! TO.N,33*
X235550000D03*
G04 #@! TO.N,50*
X234550000D03*
G04 #@! TO.N,60*
X233550000D03*
G04 #@! TO.N,20*
X232550000D03*
G04 #@! TO.N,10*
X231550000D03*
G04 #@! TO.N,61*
X230550000D03*
G04 #@! TO.N,47*
X229550000D03*
G04 #@! TO.N,28*
X228550000D03*
G04 #@! TO.N,59*
X237550000Y96989995D03*
G04 #@! TO.N,63*
X236550000D03*
G04 #@! TO.N,24*
X235550000D03*
G04 #@! TO.N,51*
X234550000D03*
G04 #@! TO.N,60*
X233550000D03*
G04 #@! TO.N,43*
X232550000D03*
G04 #@! TO.N,23*
X231550000D03*
G04 #@! TO.N,64*
X230550000D03*
G04 #@! TO.N,57*
X229550000D03*
G04 #@! TO.N,41*
X228550000D03*
G04 #@! TO.N,38*
X237550000Y97989995D03*
G04 #@! TO.N,54*
X236550000D03*
G04 #@! TO.N,65*
X235550000D03*
G04 #@! TO.N,16*
X234550000D03*
G04 #@! TO.N,45*
X233550000D03*
G04 #@! TO.N,53*
X232550000D03*
G04 #@! TO.N,37*
X231550000D03*
G04 #@! TO.N,14*
X230550000D03*
G04 #@! TO.N,65*
X229550000D03*
G04 #@! TO.N,58*
X228550000D03*
G04 #@! TO.N,9*
X237550000Y98989995D03*
G04 #@! TO.N,32*
X236550000D03*
G04 #@! TO.N,56*
X235550000D03*
G04 #@! TO.N,64*
X234550000D03*
G04 #@! TO.N,19*
X233550000D03*
G04 #@! TO.N,62*
X232550000D03*
G04 #@! TO.N,48*
X231550000D03*
G04 #@! TO.N,29*
X230550000D03*
G04 #@! TO.N,3*
X229550000D03*
G04 #@! TO.N,63*
X228550000D03*
G04 #@! TO.N,31*
X237550000Y99989995D03*
G04 #@! TO.N,48*
X236550000D03*
G04 #@! TO.N,51*
X235550000D03*
G04 #@! TO.N,3*
X234550000D03*
G04 #@! TO.N,27*
X233550000D03*
G04 #@! TO.N,19*
X232550000D03*
G04 #@! TO.N,40*
X231550000D03*
G04 #@! TO.N,56*
X230550000D03*
G04 #@! TO.N,41*
X229550000D03*
G04 #@! TO.N,9*
X228550000D03*
G04 #@! TO.N,53*
X237550000Y100989995D03*
G04 #@! TO.N,45*
X236550000D03*
G04 #@! TO.N,14*
X235550000D03*
G04 #@! TO.N,35*
X234550000D03*
G04 #@! TO.N,58*
X233550000D03*
G04 #@! TO.N,37*
X232550000D03*
G04 #@! TO.N,16*
X231550000D03*
G04 #@! TO.N,35*
X230550000D03*
G04 #@! TO.N,54*
X229550000D03*
G04 #@! TO.N,43*
X228550000D03*
G04 #@! TO.N,38*
X237550000Y101989995D03*
G04 #@! TO.N,23*
X236550000D03*
G04 #@! TO.N,40*
X235550000D03*
G04 #@! TO.N,57*
X234550000D03*
G04 #@! TO.N,60*
X233550000D03*
G04 #@! TO.N,61*
X232550000D03*
G04 #@! TO.N,29*
X231550000D03*
G04 #@! TO.N,24*
X230550000D03*
G04 #@! TO.N,27*
X229550000D03*
G04 #@! TO.N,59*
X228550000D03*
G04 #@! TO.N,32*
X237550000Y102989995D03*
G04 #@! TO.N,20*
X236550000D03*
G04 #@! TO.N,34*
X235550000D03*
G04 #@! TO.N,61*
X234550000D03*
G04 #@! TO.N,60*
X233550000D03*
G04 #@! TO.N,22*
X232550000D03*
G04 #@! TO.N,57*
X231550000D03*
G04 #@! TO.N,8*
X230550000D03*
G04 #@! TO.N,33*
X229550000D03*
G04 #@! TO.N,31*
X228550000D03*
G04 #@! TO.N,60*
X237550000Y103989995D03*
X236550000D03*
X235550000D03*
X234550000D03*
X233550000D03*
X232550000D03*
X231550000D03*
X230550000D03*
X229550000D03*
X228550000D03*
X237550000Y104989995D03*
X236550000D03*
X235550000D03*
X234550000D03*
X233550000D03*
X232550000D03*
X231550000D03*
X230550000D03*
X229550000D03*
X228550000D03*
G04 #@! TO.N,4*
X237550000Y105989995D03*
G04 #@! TO.N,28*
X236550000D03*
G04 #@! TO.N,25*
X235550000D03*
G04 #@! TO.N,59*
X234550000D03*
G04 #@! TO.N,15*
X233550000D03*
G04 #@! TO.N,46*
X232550000D03*
G04 #@! TO.N,13*
X231550000D03*
G04 #@! TO.N,58*
X230550000D03*
G04 #@! TO.N,11*
X229550000D03*
G04 #@! TO.N,39*
X228550000D03*
G04 #@! TO.N,36*
X237550000Y106989995D03*
G04 #@! TO.N,17*
X236550000D03*
G04 #@! TO.N,54*
X235550000D03*
G04 #@! TO.N,11*
X234550000D03*
G04 #@! TO.N,42*
X233550000D03*
G04 #@! TO.N,4*
X232550000D03*
G04 #@! TO.N,44*
X231550000D03*
G04 #@! TO.N,2*
X230550000D03*
G04 #@! TO.N,53*
X229550000D03*
G04 #@! TO.N,15*
X228550000D03*
G04 #@! TO.N,6*
X237550000Y107989995D03*
G04 #@! TO.N,56*
X236550000D03*
G04 #@! TO.N,8*
X235550000D03*
G04 #@! TO.N,49*
X234550000D03*
G04 #@! TO.N,62*
X233550000D03*
G04 #@! TO.N,7*
X232550000D03*
G04 #@! TO.N,32*
X231550000D03*
G04 #@! TO.N,49*
X230550000D03*
G04 #@! TO.N,10*
X229550000D03*
G04 #@! TO.N,48*
X228550000D03*
G04 #@! TO.N,5*
X237550000Y108989995D03*
G04 #@! TO.N,29*
X236550000D03*
G04 #@! TO.N,44*
X235550000D03*
G04 #@! TO.N,63*
X234550000D03*
G04 #@! TO.N,1*
X233550000D03*
G04 #@! TO.N,65*
X232550000D03*
G04 #@! TO.N,18*
X231550000D03*
G04 #@! TO.N,38*
X230550000D03*
G04 #@! TO.N,42*
X229550000D03*
G04 #@! TO.N,64*
X228550000D03*
G04 #@! TO.N,37*
X237550000Y109989995D03*
G04 #@! TO.N,46*
X236550000D03*
G04 #@! TO.N,65*
X235550000D03*
G04 #@! TO.N,12*
X234550000D03*
G04 #@! TO.N,43*
X233550000D03*
G04 #@! TO.N,28*
X232550000D03*
G04 #@! TO.N,63*
X231550000D03*
G04 #@! TO.N,26*
X230550000D03*
G04 #@! TO.N,45*
X229550000D03*
G04 #@! TO.N,36*
X228550000D03*
G04 #@! TO.N,39*
X237550000Y110989995D03*
G04 #@! TO.N,64*
X236550000D03*
G04 #@! TO.N,21*
X235550000D03*
G04 #@! TO.N,41*
X234550000D03*
G04 #@! TO.N,33*
X233550000D03*
G04 #@! TO.N,50*
X232550000D03*
G04 #@! TO.N,20*
X231550000D03*
G04 #@! TO.N,62*
X230550000D03*
G04 #@! TO.N,30*
X229550000D03*
G04 #@! TO.N,51*
X228550000D03*
G04 #@! TO.N,10*
X237550000Y111989995D03*
G04 #@! TO.N,30*
X236550000D03*
G04 #@! TO.N,47*
X235550000D03*
G04 #@! TO.N,24*
X234550000D03*
G04 #@! TO.N,2*
X233550000D03*
G04 #@! TO.N,12*
X232550000D03*
G04 #@! TO.N,55*
X231550000D03*
G04 #@! TO.N,23*
X230550000D03*
G04 #@! TO.N,6*
X229550000D03*
G04 #@! TO.N,21*
X228550000D03*
G04 #@! TO.N,26*
X237550000Y112989995D03*
G04 #@! TO.N,52*
X236550000D03*
G04 #@! TO.N,16*
X235550000D03*
G04 #@! TO.N,13*
X234550000D03*
G04 #@! TO.N,18*
X233550000D03*
G04 #@! TO.N,25*
X232550000D03*
G04 #@! TO.N,1*
X231550000D03*
G04 #@! TO.N,52*
X230550000D03*
G04 #@! TO.N,14*
X229550000D03*
G04 #@! TO.N,17*
X228550000D03*
G04 #@! TO.N,55*
X237550000Y113989995D03*
G04 #@! TO.N,19*
X236550000D03*
G04 #@! TO.N,22*
X235550000D03*
G04 #@! TO.N,7*
X234550000D03*
G04 #@! TO.N,50*
X233550000D03*
G04 #@! TO.N,9*
X232550000D03*
G04 #@! TO.N,34*
X231550000D03*
G04 #@! TO.N,5*
X230550000D03*
G04 #@! TO.N,47*
X229550000D03*
G04 #@! TO.N,3*
X228550000D03*
%LPD*%
M02*