G04 #@! TF.FileFunction,Copper,L1,Top*
G04 #@! TF.FilePolarity,Positive*
G04 #@! TF.SameCoordinates,1cDX9PD3q2MVNQUlwPAFNq2hZJss5yh*
G04 #@! TF.CreationDate,2025-09-04T08:30:56+0200*
G04 #@! TF.GenerationSoftware,Ucamco,UcamX,v2023.12-240208*
%FSLAX36Y36*%
%MOMM*%
%ADD10R,0.500000X2*%
%ADD11C,0.650000*%
%ADD12C,0.160000*%
%ADD13C,0.510000*%
%ADD14C,0.600000*%
%ADD15C,0.500000*%
%ADD16C,0.200000*%
%ADD17C,3.200000*%
%ADD18C,2.400000*%
%ADD19C,2.100000*%
%ADD20C,3.100000*%
%ADD21C,2.600000*%
%ADD22R,5X5*%
G04 layer name: DFS3498AM4_top*
%LPD*%
G04 #@! TO.N,20*
D10*
X232698650Y138590100D03*
G04 #@! TO.N,13*
X243898650Y130590100D03*
G04 #@! TO.N,60*
X226298650D03*
G04 #@! TO.N,34*
X227098650D03*
G04 #@! TO.N,47*
X227898650D03*
G04 #@! TO.N,25*
X228698650D03*
G04 #@! TO.N,52*
X229498650D03*
G04 #@! TO.N,17*
X230298650D03*
G04 #@! TO.N,55*
X231098650D03*
G04 #@! TO.N,6*
X231898650D03*
G04 #@! TO.N,50*
X232698650D03*
G04 #@! TO.N,62*
X233498650D03*
G04 #@! TO.N,51*
X234298650D03*
G04 #@! TO.N,63*
X235098650D03*
G04 #@! TO.N,45*
X235898650D03*
G04 #@! TO.N,65*
X236698650D03*
G04 #@! TO.N,38*
X237498650D03*
G04 #@! TO.N,64*
X238298650D03*
G04 #@! TO.N,32*
X239098650D03*
G04 #@! TO.N,60*
X239898650D03*
G04 #@! TO.N,10*
X240698650D03*
G04 #@! TO.N,4*
X241498650D03*
G04 #@! TO.N,2*
X242298650D03*
G04 #@! TO.N,15*
X243098650D03*
G04 #@! TO.N,11*
X244698650D03*
G04 #@! TO.N,22*
X245498650D03*
G04 #@! TO.N,8*
X246298650D03*
G04 #@! TO.N,31*
X247098650D03*
G04 #@! TO.N,29*
X247898650D03*
G04 #@! TO.N,27*
X248698650D03*
G04 #@! TO.N,37*
X249498650D03*
G04 #@! TO.N,35*
X250298650D03*
G04 #@! TO.N,43*
X251098650D03*
G04 #@! TO.N,40*
X251898650D03*
G04 #@! TO.N,41*
X252698650D03*
G04 #@! TO.N,60*
X253498650D03*
Y138590100D03*
G04 #@! TO.N,9*
X252698650D03*
G04 #@! TO.N,56*
X251898650D03*
G04 #@! TO.N,19*
X251098650D03*
G04 #@! TO.N,54*
X250298650D03*
G04 #@! TO.N,16*
X249498650D03*
G04 #@! TO.N,59*
X248698650D03*
G04 #@! TO.N,24*
X247898650D03*
G04 #@! TO.N,61*
X247098650D03*
G04 #@! TO.N,33*
X246298650D03*
G04 #@! TO.N,57*
X245498650D03*
G04 #@! TO.N,39*
X244698650D03*
G04 #@! TO.N,58*
X243898650D03*
G04 #@! TO.N,46*
X243098650D03*
G04 #@! TO.N,53*
X242298650D03*
G04 #@! TO.N,44*
X241498650D03*
G04 #@! TO.N,48*
X240698650D03*
G04 #@! TO.N,60*
X239898650D03*
G04 #@! TO.N,49*
X239098650D03*
G04 #@! TO.N,7*
X238298650D03*
G04 #@! TO.N,42*
X237498650D03*
G04 #@! TO.N,18*
X236698650D03*
G04 #@! TO.N,36*
X235898650D03*
G04 #@! TO.N,26*
X235098650D03*
G04 #@! TO.N,28*
X234298650D03*
G04 #@! TO.N,30*
X233498650D03*
G04 #@! TO.N,21*
X231898650D03*
G04 #@! TO.N,23*
X231098650D03*
G04 #@! TO.N,12*
X230298650D03*
G04 #@! TO.N,14*
X229498650D03*
G04 #@! TO.N,1*
X228698650D03*
G04 #@! TO.N,3*
X227898650D03*
G04 #@! TO.N,5*
X227098650D03*
G04 #@! TO.N,60*
X226298650D03*
G04 #@! TO.N,41*
D11*
X252698650Y127390100D03*
G04 #@! TO.N,40*
X251898650Y128190100D03*
G04 #@! TO.N,43*
X251098650Y127390100D03*
G04 #@! TO.N,35*
X250298650Y128190100D03*
G04 #@! TO.N,37*
X249498650Y127390100D03*
G04 #@! TO.N,27*
X248698650Y128190100D03*
G04 #@! TO.N,29*
X247898650Y127390100D03*
G04 #@! TO.N,31*
X247098650Y128190100D03*
G04 #@! TO.N,8*
X246298650Y127390100D03*
G04 #@! TO.N,22*
X245498650Y128190100D03*
G04 #@! TO.N,11*
X244698650Y127390100D03*
G04 #@! TO.N,13*
X243898650Y128190100D03*
G04 #@! TO.N,15*
X243098650Y127390100D03*
G04 #@! TO.N,2*
X242298650Y128190100D03*
G04 #@! TO.N,4*
X241498650Y127390100D03*
G04 #@! TO.N,10*
X240698650Y128190100D03*
G04 #@! TO.N,32*
X239098650Y127390100D03*
G04 #@! TO.N,64*
X238298650Y128190100D03*
G04 #@! TO.N,38*
X237498650Y127390100D03*
G04 #@! TO.N,65*
X236698650Y128190100D03*
G04 #@! TO.N,45*
X235898650Y127390100D03*
G04 #@! TO.N,63*
X235098650Y128190100D03*
G04 #@! TO.N,51*
X234298650Y127390100D03*
G04 #@! TO.N,62*
X233498650Y128190100D03*
G04 #@! TO.N,50*
X232698650Y127390100D03*
G04 #@! TO.N,6*
X231898650Y128190100D03*
G04 #@! TO.N,55*
X231098650Y127390100D03*
G04 #@! TO.N,17*
X230298650Y128190100D03*
G04 #@! TO.N,52*
X229498650Y127390100D03*
G04 #@! TO.N,25*
X228698650Y128190100D03*
G04 #@! TO.N,47*
X227898650Y127390100D03*
G04 #@! TO.N,34*
X227098650Y128190100D03*
G04 #@! TO.N,9*
X252698650Y141290100D03*
G04 #@! TO.N,56*
X251898650Y140490100D03*
G04 #@! TO.N,19*
X251098650Y141290100D03*
G04 #@! TO.N,54*
X250298650Y140490100D03*
G04 #@! TO.N,16*
X249498650Y141290100D03*
G04 #@! TO.N,59*
X248698650Y140490100D03*
G04 #@! TO.N,24*
X247898650Y141290100D03*
G04 #@! TO.N,61*
X247098650Y140490100D03*
G04 #@! TO.N,33*
X246298650Y141290100D03*
G04 #@! TO.N,57*
X245498650Y140490100D03*
G04 #@! TO.N,39*
X244698650Y141290100D03*
G04 #@! TO.N,58*
X243898650Y140490100D03*
G04 #@! TO.N,46*
X243098650Y141290100D03*
G04 #@! TO.N,53*
X242298650Y140490100D03*
G04 #@! TO.N,44*
X241498650Y141290100D03*
G04 #@! TO.N,48*
X240698650Y140490100D03*
G04 #@! TO.N,49*
X239098650Y141290100D03*
G04 #@! TO.N,7*
X238298650Y140490100D03*
G04 #@! TO.N,42*
X237498650Y141290100D03*
G04 #@! TO.N,18*
X236698650Y140490100D03*
G04 #@! TO.N,36*
X235898650Y141290100D03*
G04 #@! TO.N,26*
X235098650Y140490100D03*
G04 #@! TO.N,28*
X234298650Y141290100D03*
G04 #@! TO.N,30*
X233498650Y140490100D03*
G04 #@! TO.N,20*
X232698650Y141290100D03*
G04 #@! TO.N,21*
X231898650Y140490100D03*
G04 #@! TO.N,23*
X231098650Y141290100D03*
G04 #@! TO.N,12*
X230298650Y140490100D03*
G04 #@! TO.N,14*
X229498650Y141290100D03*
G04 #@! TO.N,1*
X228698650Y140490100D03*
G04 #@! TO.N,3*
X227898650Y141290100D03*
G04 #@! TO.N,5*
X227098650Y140490100D03*
G04 #@! TO.N,48*
X227103750Y160390200D03*
G04 #@! TO.N,3*
X227903750Y161190200D03*
G04 #@! TO.N,53*
X228703750Y160390200D03*
G04 #@! TO.N,14*
X229503750Y161190200D03*
G04 #@! TO.N,58*
X230303750Y160390200D03*
G04 #@! TO.N,23*
X231103750Y161190200D03*
G04 #@! TO.N,57*
X231903750Y160390200D03*
G04 #@! TO.N,20*
X232703750Y161190200D03*
G04 #@! TO.N,61*
X233503750Y160390200D03*
G04 #@! TO.N,28*
X234303750Y161190200D03*
G04 #@! TO.N,59*
X235103750Y160390200D03*
G04 #@! TO.N,36*
X235903750Y161190200D03*
G04 #@! TO.N,54*
X236703750Y160390200D03*
G04 #@! TO.N,42*
X237503750Y161190200D03*
G04 #@! TO.N,56*
X238303750Y160390200D03*
G04 #@! TO.N,49*
X239103750Y161190200D03*
G04 #@! TO.N,5*
X240703750Y160390200D03*
G04 #@! TO.N,44*
X241503750Y161190200D03*
G04 #@! TO.N,1*
X242303750Y160390200D03*
G04 #@! TO.N,46*
X243103750Y161190200D03*
G04 #@! TO.N,12*
X243903750Y160390200D03*
G04 #@! TO.N,39*
X244703750Y161190200D03*
G04 #@! TO.N,21*
X245503750Y160390200D03*
G04 #@! TO.N,33*
X246303750Y161190200D03*
G04 #@! TO.N,30*
X247103750Y160390200D03*
G04 #@! TO.N,24*
X247903750Y161190200D03*
G04 #@! TO.N,26*
X248703750Y160390200D03*
G04 #@! TO.N,16*
X249503750Y161190200D03*
G04 #@! TO.N,18*
X250303750Y160390200D03*
G04 #@! TO.N,19*
X251103750Y161190200D03*
G04 #@! TO.N,7*
X251903750Y160390200D03*
G04 #@! TO.N,9*
X252703750Y161190200D03*
G04 #@! TO.N,31*
X227103750Y152390200D03*
G04 #@! TO.N,51*
X227903750Y153190200D03*
G04 #@! TO.N,27*
X228703750Y152390200D03*
G04 #@! TO.N,45*
X229503750Y153190200D03*
G04 #@! TO.N,35*
X230303750Y152390200D03*
G04 #@! TO.N,38*
X231103750Y153190200D03*
G04 #@! TO.N,40*
X231903750Y152390200D03*
G04 #@! TO.N,32*
X232703750Y153190200D03*
G04 #@! TO.N,34*
X233503750Y152390200D03*
G04 #@! TO.N,4*
X234303750Y153190200D03*
G04 #@! TO.N,25*
X235103750Y152390200D03*
G04 #@! TO.N,15*
X235903750Y153190200D03*
G04 #@! TO.N,17*
X236703750Y152390200D03*
G04 #@! TO.N,11*
X237503750Y153190200D03*
G04 #@! TO.N,6*
X238303750Y152390200D03*
G04 #@! TO.N,8*
X239103750Y153190200D03*
G04 #@! TO.N,62*
X240703750Y152390200D03*
G04 #@! TO.N,29*
X241503750Y153190200D03*
G04 #@! TO.N,63*
X242303750Y152390200D03*
G04 #@! TO.N,37*
X243103750Y153190200D03*
G04 #@! TO.N,65*
X243903750Y152390200D03*
G04 #@! TO.N,43*
X244703750Y153190200D03*
G04 #@! TO.N,64*
X245503750Y152390200D03*
G04 #@! TO.N,41*
X246303750Y153190200D03*
G04 #@! TO.N,10*
X247103750Y152390200D03*
G04 #@! TO.N,47*
X247903750Y153190200D03*
G04 #@! TO.N,2*
X248703750Y152390200D03*
G04 #@! TO.N,52*
X249503750Y153190200D03*
G04 #@! TO.N,13*
X250303750Y152390200D03*
G04 #@! TO.N,55*
X251103750Y153190200D03*
G04 #@! TO.N,22*
X251903750Y152390200D03*
G04 #@! TO.N,50*
X252703750Y153190200D03*
G04 #@! TO.N,41*
D12*
X252698650Y127390100D02*
Y130590100D01*
G04 #@! TO.N,40*
X251898650Y128190100D02*
Y130590100D01*
G04 #@! TO.N,43*
X251098650Y127390100D02*
Y130590100D01*
G04 #@! TO.N,35*
X250298650Y128190100D02*
Y130590100D01*
G04 #@! TO.N,37*
X249498650Y127390100D02*
Y130590100D01*
G04 #@! TO.N,27*
X248698650Y128190100D02*
Y130590100D01*
G04 #@! TO.N,29*
X247898650Y127390100D02*
Y130590100D01*
G04 #@! TO.N,31*
X247098650Y128190100D02*
Y130590100D01*
G04 #@! TO.N,8*
X246298650Y127390100D02*
Y130590100D01*
G04 #@! TO.N,22*
X245498650Y128190100D02*
Y130590100D01*
G04 #@! TO.N,11*
X244698650Y127390100D02*
Y130590100D01*
G04 #@! TO.N,13*
X243898650Y128190100D02*
Y130590100D01*
G04 #@! TO.N,15*
X243098650Y127390100D02*
Y130590100D01*
G04 #@! TO.N,2*
X242298650Y128190100D02*
Y130590100D01*
G04 #@! TO.N,4*
X241498650Y127390100D02*
Y130590100D01*
G04 #@! TO.N,10*
X240698650Y128190100D02*
Y130590100D01*
G04 #@! TO.N,32*
X239098650Y127390100D02*
Y130590100D01*
G04 #@! TO.N,64*
X238298650Y128190100D02*
Y130590100D01*
G04 #@! TO.N,38*
X237498650Y127390100D02*
Y130590100D01*
G04 #@! TO.N,65*
X236698650Y128190100D02*
Y130590100D01*
G04 #@! TO.N,45*
X235898650Y127390100D02*
Y130590100D01*
G04 #@! TO.N,63*
X235098650Y128190100D02*
Y130590100D01*
G04 #@! TO.N,51*
X234298650Y127390100D02*
Y130590100D01*
G04 #@! TO.N,62*
X233498650Y128190100D02*
Y130590100D01*
G04 #@! TO.N,50*
X232698650Y127390100D02*
Y130590100D01*
G04 #@! TO.N,6*
X231898650Y128190100D02*
Y130590100D01*
G04 #@! TO.N,55*
X231098650Y127390100D02*
Y130590100D01*
G04 #@! TO.N,17*
X230298650Y128190100D02*
Y130590100D01*
G04 #@! TO.N,52*
X229498650Y127390100D02*
Y130590100D01*
G04 #@! TO.N,25*
X228698650Y128190100D02*
Y130590100D01*
G04 #@! TO.N,47*
X227898650Y127390100D02*
Y130590100D01*
G04 #@! TO.N,34*
X227098650Y128190100D02*
Y130590100D01*
G04 #@! TO.N,9*
X252698650Y141290100D02*
Y138090100D01*
G04 #@! TO.N,56*
X251898650Y140490100D02*
Y138090100D01*
G04 #@! TO.N,19*
X251098650Y141290100D02*
Y138090100D01*
G04 #@! TO.N,54*
X250298650Y140490100D02*
Y138090100D01*
G04 #@! TO.N,16*
X249498650Y141290100D02*
Y138090100D01*
G04 #@! TO.N,59*
X248698650Y140490100D02*
Y138090100D01*
G04 #@! TO.N,24*
X247898650Y141290100D02*
Y138090100D01*
G04 #@! TO.N,61*
X247098650Y140490100D02*
Y138090100D01*
G04 #@! TO.N,33*
X246298650Y141290100D02*
Y138090100D01*
G04 #@! TO.N,57*
X245498650Y140490100D02*
Y138090100D01*
G04 #@! TO.N,39*
X244698650Y141290100D02*
Y138090100D01*
G04 #@! TO.N,58*
X243898650Y140490100D02*
Y138090100D01*
G04 #@! TO.N,46*
X243098650Y141290100D02*
Y138090100D01*
G04 #@! TO.N,53*
X242298650Y140490100D02*
Y138090100D01*
G04 #@! TO.N,44*
X241498650Y141290100D02*
Y138090100D01*
G04 #@! TO.N,48*
X240698650Y140490100D02*
Y138090100D01*
G04 #@! TO.N,49*
X239098650Y141290100D02*
Y138090100D01*
G04 #@! TO.N,7*
X238298650Y140490100D02*
Y138090100D01*
G04 #@! TO.N,42*
X237498650Y141290100D02*
Y138090100D01*
G04 #@! TO.N,18*
X236698650Y140490100D02*
Y138090100D01*
G04 #@! TO.N,36*
X235898650Y141290100D02*
Y138090100D01*
G04 #@! TO.N,26*
X235098650Y140490100D02*
Y138090100D01*
G04 #@! TO.N,28*
X234298650Y141290100D02*
Y138090100D01*
G04 #@! TO.N,30*
X233498650Y140490100D02*
Y138090100D01*
G04 #@! TO.N,20*
X232698650Y141290100D02*
Y138090100D01*
G04 #@! TO.N,21*
X231898650Y140490100D02*
Y138090100D01*
G04 #@! TO.N,23*
X231098650Y141290100D02*
Y138090100D01*
G04 #@! TO.N,12*
X230298650Y140490100D02*
Y138090100D01*
G04 #@! TO.N,14*
X229498650Y141290100D02*
Y138090100D01*
G04 #@! TO.N,1*
X228698650Y140490100D02*
Y138090100D01*
G04 #@! TO.N,3*
X227898650Y141290100D02*
Y138090100D01*
G04 #@! TO.N,5*
X227098650Y140490100D02*
Y138090100D01*
G04 #@! TO.N,41*
X252587435Y127534150D02*
X252698650Y127877600D01*
X252809865Y127534150D01*
G04 #@! TO.N,40*
X251676220Y128334150D02*
X251898650Y128677600D01*
X251787435Y128334150D01*
G04 #@! TO.N,37*
X249609865Y127534150D02*
X249498650Y127877600D01*
X249387435Y127534150D01*
G04 #@! TO.N,27*
X248476220Y128334150D02*
X248698650Y128677600D01*
X248921080Y128334150D01*
G04 #@! TO.N,29*
X248009865Y127534150D02*
X247898650Y127877600D01*
X247787435Y127534150D01*
X247676220Y127534150D02*
X247898650Y127877600D01*
X248121080Y127534150D01*
G04 #@! TO.N,31*
X246987435Y128334150D02*
X247098650Y128677600D01*
X247321080Y128334150D01*
G04 #@! TO.N,8*
X246409865Y127534150D02*
X246298650Y127877600D01*
X246076220Y127534150D01*
X246187435Y127534150D02*
X246298650Y127877600D01*
X246521080Y127534150D01*
G04 #@! TO.N,22*
X245276220Y128334150D02*
X245498650Y128677600D01*
X245609865Y128334150D01*
X245387435Y128334150D02*
X245498650Y128677600D01*
X245721080Y128334150D01*
G04 #@! TO.N,11*
X244809865Y127534150D02*
X244698650Y127877600D01*
X244476220Y127534150D01*
X244587435Y127534150D02*
X244698650Y127877600D01*
X244921080Y127534150D01*
G04 #@! TO.N,13*
X244009865Y128334150D02*
X243898650Y128677600D01*
X243676220Y128334150D01*
X243787435Y128334150D02*
X243898650Y128677600D01*
X244121080Y128334150D01*
G04 #@! TO.N,2*
X242409865Y128334150D02*
X242298650Y128677600D01*
X242187435Y128334150D01*
G04 #@! TO.N,4*
X241609865Y127534150D02*
X241498650Y127877600D01*
X241276220Y127534150D01*
G04 #@! TO.N,10*
X240809865Y128334150D02*
X240698650Y128677600D01*
X240587435Y128334150D01*
G04 #@! TO.N,32*
X239209865Y127534150D02*
X239098650Y127877600D01*
X238876220Y127534150D01*
G04 #@! TO.N,64*
X238076220Y128334150D02*
X238298650Y128677600D01*
X238187435Y128334150D01*
X238409865Y128334150D02*
X238298650Y128677600D01*
X238521080Y128334150D01*
G04 #@! TO.N,38*
X237276220Y127534150D02*
X237498650Y127877600D01*
X237387435Y127534150D01*
G04 #@! TO.N,65*
X236809865Y128334150D02*
X236698650Y128677600D01*
X236476220Y128334150D01*
X236587435Y128334150D02*
X236698650Y128677600D01*
X236921080Y128334150D01*
G04 #@! TO.N,45*
X235676220Y127534150D02*
X235898650Y127877600D01*
X236009865Y127534150D01*
X235787435Y127534150D02*
X235898650Y127877600D01*
X236121080Y127534150D01*
G04 #@! TO.N,63*
X235209865Y128334150D02*
X235098650Y128677600D01*
X234876220Y128334150D01*
X234987435Y128334150D02*
X235098650Y128677600D01*
X235321080Y128334150D01*
G04 #@! TO.N,51*
X234187435Y127534150D02*
X234298650Y127877600D01*
X234076220Y127534150D01*
X234409865Y127534150D02*
X234298650Y127877600D01*
X234521080Y127534150D01*
G04 #@! TO.N,62*
X233276220Y128334150D02*
X233498650Y128677600D01*
X233721080Y128334150D01*
G04 #@! TO.N,50*
X232809865Y127534150D02*
X232698650Y127877600D01*
X232476220Y127534150D01*
G04 #@! TO.N,55*
X230876220Y127534150D02*
X231098650Y127877600D01*
X231321080Y127534150D01*
G04 #@! TO.N,17*
X230409865Y128334150D02*
X230298650Y128677600D01*
X230521080Y128334150D01*
G04 #@! TO.N,52*
X229276220Y127534150D02*
X229498650Y127877600D01*
X229609865Y127534150D01*
X229387435Y127534150D02*
X229498650Y127877600D01*
X229721080Y127534150D01*
G04 #@! TO.N,25*
X228587435Y128334150D02*
X228698650Y128677600D01*
X228476220Y128334150D01*
X228809865Y128334150D02*
X228698650Y128677600D01*
X228921080Y128334150D01*
G04 #@! TO.N,47*
X227676220Y127534150D02*
X227898650Y127877600D01*
X228121080Y127534150D01*
G04 #@! TO.N,34*
X226987435Y128334150D02*
X227098650Y128677600D01*
X227209865Y128334150D01*
G04 #@! TO.N,9*
X252476220Y141146050D02*
X252698650Y140802600D01*
X252921080Y141146050D01*
G04 #@! TO.N,56*
X252009865Y140346050D02*
X251898650Y140002600D01*
X251676220Y140346050D01*
X251787435Y140346050D02*
X251898650Y140002600D01*
X252121080Y140346050D01*
G04 #@! TO.N,54*
X250409865Y140346050D02*
X250298650Y140002600D01*
X250076220Y140346050D01*
X250187435Y140346050D02*
X250298650Y140002600D01*
X250521080Y140346050D01*
G04 #@! TO.N,59*
X248809865Y140346050D02*
X248698650Y140002600D01*
X248476220Y140346050D01*
G04 #@! TO.N,24*
X247676220Y141146050D02*
X247898650Y140802600D01*
X247787435Y141146050D01*
G04 #@! TO.N,61*
X246876220Y140346050D02*
X247098650Y140002600D01*
X246987435Y140346050D01*
X247209865Y140346050D02*
X247098650Y140002600D01*
X247321080Y140346050D01*
G04 #@! TO.N,33*
X246409865Y141146050D02*
X246298650Y140802600D01*
X246187435Y141146050D01*
G04 #@! TO.N,57*
X245276220Y140346050D02*
X245498650Y140002600D01*
X245609865Y140346050D01*
G04 #@! TO.N,58*
X244009865Y140346050D02*
X243898650Y140002600D01*
X244121080Y140346050D01*
G04 #@! TO.N,46*
X242987435Y141146050D02*
X243098650Y140802600D01*
X243321080Y141146050D01*
G04 #@! TO.N,53*
X242187435Y140346050D02*
X242298650Y140002600D01*
X242409865Y140346050D01*
X242076220Y140346050D02*
X242298650Y140002600D01*
X242521080Y140346050D01*
G04 #@! TO.N,44*
X241387435Y141146050D02*
X241498650Y140802600D01*
X241721080Y141146050D01*
G04 #@! TO.N,49*
X239209865Y141146050D02*
X239098650Y140802600D01*
X239321080Y141146050D01*
G04 #@! TO.N,7*
X238076220Y140346050D02*
X238298650Y140002600D01*
X238521080Y140346050D01*
G04 #@! TO.N,42*
X237609865Y141146050D02*
X237498650Y140802600D01*
X237276220Y141146050D01*
X237387435Y141146050D02*
X237498650Y140802600D01*
X237721080Y141146050D01*
G04 #@! TO.N,18*
X236476220Y140346050D02*
X236698650Y140002600D01*
X236921080Y140346050D01*
G04 #@! TO.N,36*
X236009865Y141146050D02*
X235898650Y140802600D01*
X235787435Y141146050D01*
G04 #@! TO.N,26*
X234987435Y140346050D02*
X235098650Y140002600D01*
X234876220Y140346050D01*
G04 #@! TO.N,28*
X234076220Y141146050D02*
X234298650Y140802600D01*
X234187435Y141146050D01*
G04 #@! TO.N,30*
X233276220Y140346050D02*
X233498650Y140002600D01*
X233721080Y140346050D01*
G04 #@! TO.N,20*
X232587435Y141146050D02*
X232698650Y140802600D01*
X232921080Y141146050D01*
G04 #@! TO.N,21*
X231787435Y140346050D02*
X231898650Y140002600D01*
X232121080Y140346050D01*
G04 #@! TO.N,1*
X228587435Y140346050D02*
X228698650Y140002600D01*
X228476220Y140346050D01*
X228809865Y140346050D02*
X228698650Y140002600D01*
X228921080Y140346050D01*
G04 #@! TO.N,3*
X227787435Y141146050D02*
X227898650Y140802600D01*
X228121080Y141146050D01*
G04 #@! TO.N,5*
X227209865Y140346050D02*
X227098650Y140002600D01*
X226987435Y140346050D01*
X226876220Y140346050D02*
X227098650Y140002600D01*
X227321080Y140346050D01*
G04 #@! TO.N,41*
X252770190Y127518305D02*
X252698650Y127877600D01*
X252476220Y127534150D01*
X252921080Y127534150D02*
X252698650Y127877600D01*
X252627105Y127518305D01*
X252913275Y127518305D02*
X252698650Y127877600D01*
X252484025Y127518305D01*
G04 #@! TO.N,40*
X251898650Y128677600D02*
X252121080Y128334150D01*
X251684025Y128318305D02*
X251898650Y128677595D01*
X251970190Y128318305D02*
X251898650Y128677600D01*
X251827105Y128318305D02*
X251898650Y128677595D01*
X252113275Y128318305D02*
X251898650Y128677600D01*
X252009865Y128334150D01*
G04 #@! TO.N,43*
X250884025Y127518305D02*
X251098650Y127877600D01*
X250876220Y127534150D01*
X250987435Y127534150D02*
X251098650Y127877600D01*
X251027105Y127518305D01*
X251170190Y127518305D02*
X251098650Y127877600D01*
X251209865Y127534150D01*
X251321080Y127534150D02*
X251098650Y127877600D01*
X251313275Y127518305D01*
G04 #@! TO.N,35*
X250521080Y128334150D02*
X250298650Y128677600D01*
X250409865Y128334150D01*
X250187435Y128334150D02*
X250298650Y128677600D01*
X250084025Y128318305D02*
X250298645Y128677595D01*
X250513270Y128318310D02*
X250298645Y128677595D01*
X250227105Y128318305D02*
X250298650Y128677595D01*
X250370190Y128318305D02*
X250298650Y128677600D01*
X250076220Y128334150D01*
G04 #@! TO.N,37*
X249570190Y127518305D02*
X249498650Y127877600D01*
X249721080Y127534150D01*
X249284025Y127518305D02*
X249498650Y127877600D01*
X249427105Y127518305D01*
X249276220Y127534150D02*
X249498650Y127877600D01*
X249713275Y127518305D01*
G04 #@! TO.N,27*
X248587435Y128334150D02*
X248698650Y128677600D01*
X248809865Y128334150D01*
X248770185Y128318305D02*
X248698645Y128677595D01*
X248913270Y128318310D01*
G04 #@! TO.N,29*
X247970190Y127518305D02*
X247898650Y127877600D01*
X247684025Y127518305D01*
X247827105Y127518305D02*
X247898650Y127877600D01*
X248113275Y127518305D01*
G04 #@! TO.N,31*
X247027105Y128318305D02*
X247098650Y128677595D01*
X247098650Y128677600D02*
X246876220Y128334150D01*
X247209865Y128334150D02*
X247098650Y128677600D01*
X247170190Y128318305D02*
X247098650Y128677595D01*
X246884025Y128318305D02*
X247098645Y128677595D01*
X247313270Y128318310D01*
G04 #@! TO.N,8*
X246227105Y127518305D02*
X246298650Y127877600D01*
X246370190Y127518305D01*
X246513275Y127518305D02*
X246298650Y127877600D01*
X246084025Y127518305D01*
G04 #@! TO.N,22*
X245427105Y128318305D02*
X245498650Y128677600D01*
X245284025Y128318305D01*
X245570190Y128318305D02*
X245498650Y128677600D01*
X245713275Y128318305D02*
X245498650Y128677595D01*
G04 #@! TO.N,11*
X244770190Y127518305D02*
X244698650Y127877600D01*
X244627105Y127518305D01*
X244913275Y127518305D02*
X244698650Y127877600D01*
X244484025Y127518305D01*
G04 #@! TO.N,13*
X243684025Y128318305D02*
X243898650Y128677600D01*
X244113275Y128318305D01*
X243827105Y128318305D02*
X243898650Y128677600D01*
X243970190Y128318305D02*
X243898650Y128677595D01*
G04 #@! TO.N,15*
X242884025Y127518305D02*
X243098650Y127877600D01*
X243321080Y127534150D01*
X243209865Y127534150D02*
X243098650Y127877600D01*
X243027105Y127518305D01*
X243170190Y127518305D02*
X243098650Y127877600D01*
X242987435Y127534150D01*
X242876220Y127534150D02*
X243098650Y127877600D01*
X243313275Y127518305D01*
G04 #@! TO.N,2*
X242298650Y128677600D02*
X242076220Y128334150D01*
X242521080Y128334150D02*
X242298650Y128677600D01*
X242370190Y128318305D02*
X242298650Y128677595D01*
X242513275Y128318305D01*
X242227105Y128318305D02*
X242298645Y128677595D01*
X242084025Y128318305D01*
G04 #@! TO.N,4*
X241570190Y127518305D02*
X241498650Y127877600D01*
X241284025Y127518305D01*
X241713275Y127518305D02*
X241498650Y127877600D01*
X241387435Y127534150D01*
X241721080Y127534150D02*
X241498650Y127877600D01*
X241427105Y127518305D01*
G04 #@! TO.N,10*
X240698650Y128677600D02*
X240921080Y128334150D01*
X240698650Y128677600D02*
X240484025Y128318305D01*
X240913270Y128318310D02*
X240698645Y128677595D01*
X240627105Y128318305D02*
X240698650Y128677595D01*
X240770190Y128318305D02*
X240698650Y128677600D01*
X240476220Y128334150D01*
G04 #@! TO.N,32*
X238884025Y127518305D02*
X239098650Y127877600D01*
X239321080Y127534150D01*
X239170190Y127518305D02*
X239098650Y127877600D01*
X239313275Y127518305D01*
X238987435Y127534150D02*
X239098650Y127877600D01*
X239027105Y127518305D01*
G04 #@! TO.N,64*
X238370190Y128318305D02*
X238298650Y128677595D01*
X238513275Y128318305D02*
X238298650Y128677600D01*
X238084025Y128318305D02*
X238298645Y128677595D01*
X238227105Y128318305D01*
G04 #@! TO.N,38*
X237570190Y127518305D02*
X237498650Y127877600D01*
X237609865Y127534150D01*
X237284025Y127518305D02*
X237498650Y127877600D01*
X237427105Y127518305D01*
X237721080Y127534150D02*
X237498650Y127877600D01*
X237713275Y127518305D01*
G04 #@! TO.N,45*
X235684025Y127518305D02*
X235898650Y127877600D01*
X235827105Y127518305D01*
X235970190Y127518305D02*
X235898650Y127877600D01*
X236113275Y127518305D01*
G04 #@! TO.N,51*
X234370190Y127518305D02*
X234298650Y127877600D01*
X234227105Y127518305D01*
X234084025Y127518305D02*
X234298650Y127877600D01*
X234513275Y127518305D01*
G04 #@! TO.N,62*
X233498650Y128677600D02*
X233387435Y128334150D01*
X233609865Y128334150D02*
X233498650Y128677600D01*
G04 #@! TO.N,50*
X232921080Y127534150D02*
X232698650Y127877600D01*
X232913275Y127518305D01*
X232770190Y127518305D02*
X232698650Y127877600D01*
X232587435Y127534150D01*
X232484025Y127518305D02*
X232698650Y127877600D01*
X232627105Y127518305D01*
G04 #@! TO.N,6*
X232121080Y128334150D02*
X231898650Y128677600D01*
X231684025Y128318305D02*
X231898650Y128677595D01*
X232113275Y128318305D02*
X231898650Y128677600D01*
X231787435Y128334150D01*
X232009865Y128334150D02*
X231898650Y128677600D01*
X231827105Y128318305D02*
X231898650Y128677595D01*
X231970190Y128318305D02*
X231898650Y128677600D01*
X231676220Y128334150D01*
G04 #@! TO.N,55*
X231170190Y127518305D02*
X231098650Y127877600D01*
X231209865Y127534150D01*
X230987435Y127534150D02*
X231098650Y127877600D01*
X230884025Y127518305D01*
X231027105Y127518305D02*
X231098650Y127877600D01*
X231313275Y127518305D01*
G04 #@! TO.N,17*
X230076220Y128334150D02*
X230298650Y128677600D01*
X230084025Y128318305D02*
X230298650Y128677595D01*
X230513275Y128318305D02*
X230298650Y128677600D01*
X230227105Y128318305D02*
X230298650Y128677595D01*
X230370190Y128318305D02*
X230298650Y128677600D01*
X230187435Y128334150D01*
G04 #@! TO.N,52*
X229427105Y127518305D02*
X229498650Y127877600D01*
X229713275Y127518305D01*
X229570190Y127518305D02*
X229498650Y127877600D01*
X229284025Y127518305D01*
G04 #@! TO.N,47*
X227787435Y127534150D02*
X227898650Y127877600D01*
X227970190Y127518305D01*
X228113275Y127518305D02*
X227898650Y127877600D01*
X227684025Y127518305D01*
X228009865Y127534150D02*
X227898650Y127877600D01*
X227827105Y127518305D01*
G04 #@! TO.N,34*
X226876220Y128334150D02*
X227098650Y128677600D01*
X226884025Y128318305D02*
X227098650Y128677595D01*
X227321080Y128334150D02*
X227098650Y128677600D01*
X227027105Y128318305D02*
X227098645Y128677595D01*
X227313275Y128318305D02*
X227098650Y128677600D01*
X227170190Y128318305D01*
G04 #@! TO.N,9*
X252484025Y141161895D02*
X252698650Y140802600D01*
X252770190Y141161895D01*
X252913275Y141161895D02*
X252698650Y140802600D01*
X252809865Y141146050D01*
X252587435Y141146050D02*
X252698650Y140802600D01*
X252627105Y141161895D01*
G04 #@! TO.N,56*
X252113275Y140361895D02*
X251898650Y140002600D01*
X251684025Y140361895D01*
X251970190Y140361895D02*
X251898650Y140002600D01*
X251827105Y140361895D01*
G04 #@! TO.N,19*
X251170190Y141161895D02*
X251098650Y140802600D01*
X251321080Y141146050D01*
X250876220Y141146050D02*
X251098650Y140802600D01*
X251313275Y141161895D01*
X251027105Y141161895D02*
X251098650Y140802600D01*
X250987435Y141146050D01*
X251209865Y141146050D02*
X251098650Y140802600D01*
X250884025Y141161895D01*
G04 #@! TO.N,54*
X250227105Y140361895D02*
X250298650Y140002600D01*
X250370190Y140361895D01*
X250084025Y140361895D02*
X250298650Y140002600D01*
X250513275Y140361895D01*
G04 #@! TO.N,16*
X249570190Y141161895D02*
X249498650Y140802600D01*
X249609865Y141146050D01*
X249721080Y141146050D02*
X249498650Y140802600D01*
X249427105Y141161895D01*
X249284025Y141161895D02*
X249498650Y140802600D01*
X249276220Y141146050D01*
X249387435Y141146050D02*
X249498650Y140802600D01*
X249713275Y141161895D01*
G04 #@! TO.N,59*
X248770190Y140361895D02*
X248698650Y140002600D01*
X248921080Y140346050D01*
X248627105Y140361895D02*
X248698650Y140002600D01*
X248484025Y140361895D01*
X248587435Y140346050D02*
X248698650Y140002600D01*
X248913275Y140361895D01*
G04 #@! TO.N,24*
X247970190Y141161895D02*
X247898650Y140802600D01*
X248009865Y141146050D01*
X247684025Y141161895D02*
X247898650Y140802600D01*
X248121080Y141146050D01*
X247827105Y141161895D02*
X247898650Y140802600D01*
X248113275Y141161895D01*
G04 #@! TO.N,61*
X246884025Y140361895D02*
X247098650Y140002600D01*
X247027105Y140361895D01*
X247313275Y140361895D02*
X247098650Y140002600D01*
X247170190Y140361895D01*
G04 #@! TO.N,33*
X246370190Y141161895D02*
X246298650Y140802600D01*
X246227105Y141161895D01*
X246084025Y141161895D02*
X246298650Y140802600D01*
X246076220Y141146050D01*
X246521080Y141146050D02*
X246298650Y140802600D01*
X246513275Y141161895D01*
G04 #@! TO.N,57*
X245284025Y140361895D02*
X245498650Y140002600D01*
X245427105Y140361895D01*
X245570190Y140361895D02*
X245498650Y140002600D01*
X245387435Y140346050D01*
X245721080Y140346050D02*
X245498650Y140002600D01*
X245713275Y140361895D01*
G04 #@! TO.N,39*
X244484025Y141161895D02*
X244698650Y140802600D01*
X244587435Y141146050D01*
X244921080Y141146050D02*
X244698650Y140802600D01*
X244770190Y141161895D01*
X244913275Y141161895D02*
X244698650Y140802600D01*
X244476220Y141146050D01*
X244809865Y141146050D02*
X244698650Y140802600D01*
X244627105Y141161895D01*
G04 #@! TO.N,58*
X243684025Y140361895D02*
X243898650Y140002600D01*
X243676220Y140346050D01*
X243787435Y140346050D02*
X243898650Y140002600D01*
X244113275Y140361895D01*
X243970190Y140361895D02*
X243898650Y140002600D01*
X243827105Y140361895D01*
G04 #@! TO.N,46*
X242876220Y141146050D02*
X243098650Y140802600D01*
X243027105Y141161895D01*
X243313275Y141161895D02*
X243098650Y140802600D01*
X243209865Y141146050D01*
X243170190Y141161895D02*
X243098650Y140802600D01*
X242884025Y141161895D01*
G04 #@! TO.N,53*
X242227105Y140361895D02*
X242298650Y140002600D01*
X242513275Y140361895D01*
X242370190Y140361895D02*
X242298650Y140002600D01*
X242084025Y140361895D01*
G04 #@! TO.N,44*
X241284025Y141161895D02*
X241498650Y140802600D01*
X241570190Y141161895D01*
X241427105Y141161895D02*
X241498650Y140802600D01*
X241609865Y141146050D01*
X241276220Y141146050D02*
X241498650Y140802600D01*
X241713275Y141161895D01*
G04 #@! TO.N,48*
X240484025Y140361895D02*
X240698650Y140002600D01*
X240476220Y140346050D01*
X240809865Y140346050D02*
X240698650Y140002600D01*
X240770190Y140361895D01*
X240913275Y140361895D02*
X240698650Y140002600D01*
X240587435Y140346050D01*
X240921080Y140346050D02*
X240698650Y140002600D01*
X240627105Y140361895D01*
G04 #@! TO.N,49*
X239170190Y141161895D02*
X239098650Y140802600D01*
X238987435Y141146050D01*
X238876220Y141146050D02*
X239098650Y140802600D01*
X239313275Y141161895D01*
X238884025Y141161895D02*
X239098650Y140802600D01*
X239027105Y141161895D01*
G04 #@! TO.N,7*
X238084025Y140361895D02*
X238298650Y140002600D01*
X238513275Y140361895D01*
X238227105Y140361895D02*
X238298650Y140002600D01*
X238409865Y140346050D01*
X238187435Y140346050D02*
X238298650Y140002600D01*
X238370190Y140361895D01*
G04 #@! TO.N,42*
X237284025Y141161895D02*
X237498650Y140802600D01*
X237713275Y141161895D01*
X237570190Y141161895D02*
X237498650Y140802600D01*
X237427105Y141161895D01*
G04 #@! TO.N,18*
X236913275Y140361895D02*
X236698650Y140002600D01*
X236809865Y140346050D01*
X236770190Y140361895D02*
X236698650Y140002600D01*
X236627105Y140361895D01*
X236587435Y140346050D02*
X236698650Y140002600D01*
X236484025Y140361895D01*
G04 #@! TO.N,36*
X235827105Y141161895D02*
X235898650Y140802600D01*
X236121080Y141146050D01*
X235676220Y141146050D02*
X235898650Y140802600D01*
X236113275Y141161895D01*
X235970190Y141161895D02*
X235898650Y140802600D01*
X235684025Y141161895D01*
G04 #@! TO.N,26*
X235321080Y140346050D02*
X235098650Y140002600D01*
X234884025Y140361895D01*
X235027105Y140361895D02*
X235098650Y140002600D01*
X235170190Y140361895D01*
X235209865Y140346050D02*
X235098650Y140002600D01*
X235313275Y140361895D01*
G04 #@! TO.N,28*
X234084025Y141161895D02*
X234298650Y140802600D01*
X234409865Y141146050D01*
X234370190Y141161895D02*
X234298650Y140802600D01*
X234513275Y141161895D01*
X234521080Y141146050D02*
X234298650Y140802600D01*
X234227105Y141161895D01*
G04 #@! TO.N,30*
X233609865Y140346050D02*
X233498650Y140002600D01*
X233427105Y140361895D01*
X233570190Y140361895D02*
X233498650Y140002600D01*
X233284025Y140361895D01*
X233387435Y140346050D02*
X233498650Y140002600D01*
X233713275Y140361895D01*
G04 #@! TO.N,20*
X232809865Y141146050D02*
X232698650Y140802600D01*
X232913275Y141161895D01*
X232484025Y141161895D02*
X232698650Y140802600D01*
X232476220Y141146050D01*
X232627105Y141161895D02*
X232698650Y140802600D01*
X232770190Y141161895D01*
G04 #@! TO.N,21*
X231684025Y140361895D02*
X231898650Y140002600D01*
X232113275Y140361895D01*
X231970190Y140361895D02*
X231898650Y140002600D01*
X231676220Y140346050D01*
X232009865Y140346050D02*
X231898650Y140002600D01*
X231827105Y140361895D01*
G04 #@! TO.N,23*
X230884025Y141161895D02*
X231098650Y140802600D01*
X231321080Y141146050D01*
X230876220Y141146050D02*
X231098650Y140802600D01*
X231313275Y141161895D01*
X231170190Y141161895D02*
X231098650Y140802600D01*
X231209865Y141146050D01*
X230987435Y141146050D02*
X231098650Y140802600D01*
X231027105Y141161895D01*
G04 #@! TO.N,12*
X230370190Y140361895D02*
X230298650Y140002600D01*
X230521080Y140346050D01*
X230409865Y140346050D02*
X230298650Y140002600D01*
X230227105Y140361895D01*
X230084025Y140361895D02*
X230298650Y140002600D01*
X230076220Y140346050D01*
X230187435Y140346050D02*
X230298650Y140002600D01*
X230513275Y140361895D01*
G04 #@! TO.N,14*
X229570190Y141161895D02*
X229498650Y140802600D01*
X229609865Y141146050D01*
X229276220Y141146050D02*
X229498650Y140802600D01*
X229713275Y141161895D01*
X229284025Y141161895D02*
X229498650Y140802600D01*
X229721080Y141146050D01*
X229387435Y141146050D02*
X229498650Y140802600D01*
X229427105Y141161895D01*
G04 #@! TO.N,1*
X228913275Y140361895D02*
X228698650Y140002600D01*
X228484025Y140361895D01*
X228627105Y140361895D02*
X228698650Y140002600D01*
X228770190Y140361895D01*
G04 #@! TO.N,3*
X227676220Y141146050D02*
X227898650Y140802600D01*
X227827105Y141161895D01*
X227970190Y141161895D02*
X227898650Y140802600D01*
X227684025Y141161895D01*
X228009865Y141146050D02*
X227898650Y140802600D01*
X228113275Y141161895D01*
G04 #@! TO.N,5*
X226884025Y140361895D02*
X227098650Y140002600D01*
X227170190Y140361895D01*
X227027105Y140361895D02*
X227098650Y140002600D01*
X227313275Y140361895D01*
G04 #@! TO.N,27*
X248484025Y128318305D02*
X248698645Y128677595D01*
X248627105Y128318305D02*
X248698650Y128677600D01*
G04 #@! TO.N,65*
X236627105Y128318305D02*
X236698650Y128677595D01*
X236484025Y128318305D01*
X236770190Y128318305D02*
X236698650Y128677595D01*
X236913275Y128318305D01*
G04 #@! TO.N,63*
X235170190Y128318305D02*
X235098650Y128677600D01*
X234884025Y128318305D01*
X235027105Y128318305D02*
X235098650Y128677595D01*
X235313275Y128318305D02*
X235098650Y128677600D01*
G04 #@! TO.N,62*
X233427105Y128318305D02*
X233498650Y128677595D01*
X233570190Y128318305D02*
X233498650Y128677600D01*
X233713275Y128318305D02*
X233498650Y128677595D01*
X233284025Y128318305D02*
X233498645Y128677595D01*
G04 #@! TO.N,25*
X228484025Y128318305D02*
X228698650Y128677600D01*
X228770190Y128318305D02*
X228698650Y128677595D01*
X228913275Y128318305D02*
X228698650Y128677600D01*
X228627105Y128318305D02*
X228698645Y128677595D01*
G04 #@! TO.N,60*
D13*
X239898650Y83090100D02*
Y80462500D01*
X222992550Y138590100D02*
X226298650D01*
X239898650Y138590100D02*
Y130590100D01*
Y127962500D01*
X226298650Y70462500D02*
X253498650D01*
X256809850Y73773700D01*
X226298650Y70462500D02*
X222992550Y73768600D01*
X222992550Y130590100D02*
X226298650D01*
X222992550Y132640800D02*
X256809850D01*
X222992550Y73773700D02*
X256809850D01*
X226298650Y73773700D02*
Y70462500D01*
X253498650Y73773700D02*
Y70575140D01*
X239903750Y163590200D02*
Y166217800D01*
X253503750Y163590200D02*
Y166217800D01*
X226303750Y163590200D02*
Y166105160D01*
X226303750Y166217800D02*
X253503750D01*
X226303750Y166217800D02*
X222992550Y164306080D01*
X253503750Y166217800D02*
X256809850Y164309020D01*
X226303750Y155590200D02*
X222992550D01*
X256809850Y155590200D02*
X253503750D01*
X222992550Y83768600D02*
Y164193440D01*
X256809850Y164196380D02*
Y83773700D01*
X239898650Y76090100D02*
Y70462500D01*
X239898650D01*
X253498650Y130590100D02*
X256809850D01*
X253498650Y138590100D02*
X256809850D01*
G04 #@! TO.N,1*
D14*
X237850000Y84989995D03*
G04 #@! TO.N,2*
X236850000D03*
G04 #@! TO.N,3*
X235850000D03*
G04 #@! TO.N,4*
X234850000D03*
G04 #@! TO.N,5*
X233850000D03*
G04 #@! TO.N,6*
X232850000D03*
G04 #@! TO.N,7*
X231850000D03*
G04 #@! TO.N,8*
X230850000D03*
G04 #@! TO.N,9*
X229850000D03*
G04 #@! TO.N,10*
X228850000D03*
G04 #@! TO.N,11*
X237850000Y85989995D03*
G04 #@! TO.N,12*
X236850000D03*
G04 #@! TO.N,13*
X235850000D03*
G04 #@! TO.N,14*
X234850000D03*
G04 #@! TO.N,15*
X233850000D03*
G04 #@! TO.N,16*
X232850000D03*
G04 #@! TO.N,17*
X231850000D03*
G04 #@! TO.N,18*
X230850000D03*
G04 #@! TO.N,11*
X229850000D03*
G04 #@! TO.N,19*
X228850000D03*
G04 #@! TO.N,20*
X237850000Y86989995D03*
G04 #@! TO.N,8*
X236850000D03*
G04 #@! TO.N,21*
X235850000D03*
G04 #@! TO.N,22*
X234850000D03*
G04 #@! TO.N,23*
X233850000D03*
G04 #@! TO.N,4*
X232850000D03*
G04 #@! TO.N,24*
X231850000D03*
G04 #@! TO.N,25*
X230850000D03*
G04 #@! TO.N,26*
X229850000D03*
G04 #@! TO.N,15*
X228850000D03*
G04 #@! TO.N,27*
X237850000Y87989995D03*
G04 #@! TO.N,28*
X236850000D03*
G04 #@! TO.N,29*
X235850000D03*
G04 #@! TO.N,30*
X234850000D03*
G04 #@! TO.N,31*
X233850000D03*
G04 #@! TO.N,21*
X232850000D03*
G04 #@! TO.N,32*
X231850000D03*
G04 #@! TO.N,33*
X230850000D03*
G04 #@! TO.N,34*
X229850000D03*
G04 #@! TO.N,30*
X228850000D03*
G04 #@! TO.N,18*
X237850000Y88989995D03*
G04 #@! TO.N,35*
X236850000D03*
G04 #@! TO.N,36*
X235850000D03*
G04 #@! TO.N,37*
X234850000D03*
G04 #@! TO.N,26*
X233850000D03*
G04 #@! TO.N,35*
X232850000D03*
G04 #@! TO.N,12*
X231850000D03*
G04 #@! TO.N,38*
X230850000D03*
G04 #@! TO.N,39*
X229850000D03*
G04 #@! TO.N,40*
X228850000D03*
G04 #@! TO.N,41*
X237850000Y89989995D03*
G04 #@! TO.N,7*
X236850000D03*
G04 #@! TO.N,40*
X235850000D03*
G04 #@! TO.N,42*
X234850000D03*
G04 #@! TO.N,43*
X233850000D03*
G04 #@! TO.N,44*
X232850000D03*
G04 #@! TO.N,27*
X231850000D03*
G04 #@! TO.N,1*
X230850000D03*
G04 #@! TO.N,45*
X229850000D03*
G04 #@! TO.N,46*
X228850000D03*
G04 #@! TO.N,44*
X237850000Y90989995D03*
G04 #@! TO.N,47*
X236850000D03*
G04 #@! TO.N,48*
X235850000D03*
G04 #@! TO.N,34*
X234850000D03*
G04 #@! TO.N,49*
X233850000D03*
G04 #@! TO.N,50*
X232850000D03*
G04 #@! TO.N,49*
X231850000D03*
G04 #@! TO.N,31*
X230850000D03*
G04 #@! TO.N,5*
X229850000D03*
G04 #@! TO.N,51*
X228850000D03*
G04 #@! TO.N,17*
X237850000Y91989995D03*
G04 #@! TO.N,46*
X236850000D03*
G04 #@! TO.N,52*
X235850000D03*
G04 #@! TO.N,53*
X234850000D03*
G04 #@! TO.N,25*
X233850000D03*
G04 #@! TO.N,54*
X232850000D03*
G04 #@! TO.N,55*
X231850000D03*
G04 #@! TO.N,42*
X230850000D03*
G04 #@! TO.N,22*
X229850000D03*
G04 #@! TO.N,56*
X228850000D03*
G04 #@! TO.N,57*
X237850000Y92989995D03*
G04 #@! TO.N,6*
X236850000D03*
G04 #@! TO.N,39*
X235850000D03*
G04 #@! TO.N,55*
X234850000D03*
G04 #@! TO.N,58*
X233850000D03*
G04 #@! TO.N,2*
X232850000D03*
G04 #@! TO.N,59*
X231850000D03*
G04 #@! TO.N,52*
X230850000D03*
G04 #@! TO.N,36*
X229850000D03*
G04 #@! TO.N,13*
X228850000D03*
G04 #@! TO.N,60*
X237850000Y93989995D03*
X236850000D03*
X235850000D03*
X234850000D03*
X233850000D03*
X232850000D03*
X231850000D03*
X230850000D03*
X229850000D03*
X228850000D03*
X237850000Y94989995D03*
X236850000D03*
X235850000D03*
X234850000D03*
X233850000D03*
X232850000D03*
X231850000D03*
X230850000D03*
X229850000D03*
X228850000D03*
G04 #@! TO.N,61*
X237850000Y95989995D03*
G04 #@! TO.N,62*
X236850000D03*
G04 #@! TO.N,33*
X235850000D03*
G04 #@! TO.N,50*
X234850000D03*
G04 #@! TO.N,60*
X233850000D03*
G04 #@! TO.N,20*
X232850000D03*
G04 #@! TO.N,10*
X231850000D03*
G04 #@! TO.N,61*
X230850000D03*
G04 #@! TO.N,47*
X229850000D03*
G04 #@! TO.N,28*
X228850000D03*
G04 #@! TO.N,59*
X237850000Y96989995D03*
G04 #@! TO.N,63*
X236850000D03*
G04 #@! TO.N,24*
X235850000D03*
G04 #@! TO.N,51*
X234850000D03*
G04 #@! TO.N,60*
X233850000D03*
G04 #@! TO.N,43*
X232850000D03*
G04 #@! TO.N,23*
X231850000D03*
G04 #@! TO.N,64*
X230850000D03*
G04 #@! TO.N,57*
X229850000D03*
G04 #@! TO.N,41*
X228850000D03*
G04 #@! TO.N,38*
X237850000Y97989995D03*
G04 #@! TO.N,54*
X236850000D03*
G04 #@! TO.N,65*
X235850000D03*
G04 #@! TO.N,16*
X234850000D03*
G04 #@! TO.N,45*
X233850000D03*
G04 #@! TO.N,53*
X232850000D03*
G04 #@! TO.N,37*
X231850000D03*
G04 #@! TO.N,14*
X230850000D03*
G04 #@! TO.N,65*
X229850000D03*
G04 #@! TO.N,58*
X228850000D03*
G04 #@! TO.N,9*
X237850000Y98989995D03*
G04 #@! TO.N,32*
X236850000D03*
G04 #@! TO.N,56*
X235850000D03*
G04 #@! TO.N,64*
X234850000D03*
G04 #@! TO.N,19*
X233850000D03*
G04 #@! TO.N,62*
X232850000D03*
G04 #@! TO.N,48*
X231850000D03*
G04 #@! TO.N,29*
X230850000D03*
G04 #@! TO.N,3*
X229850000D03*
G04 #@! TO.N,63*
X228850000D03*
G04 #@! TO.N,31*
X237850000Y99989995D03*
G04 #@! TO.N,48*
X236850000D03*
G04 #@! TO.N,51*
X235850000D03*
G04 #@! TO.N,3*
X234850000D03*
G04 #@! TO.N,27*
X233850000D03*
G04 #@! TO.N,19*
X232850000D03*
G04 #@! TO.N,40*
X231850000D03*
G04 #@! TO.N,56*
X230850000D03*
G04 #@! TO.N,41*
X229850000D03*
G04 #@! TO.N,9*
X228850000D03*
G04 #@! TO.N,53*
X237850000Y100989995D03*
G04 #@! TO.N,45*
X236850000D03*
G04 #@! TO.N,14*
X235850000D03*
G04 #@! TO.N,35*
X234850000D03*
G04 #@! TO.N,58*
X233850000D03*
G04 #@! TO.N,37*
X232850000D03*
G04 #@! TO.N,16*
X231850000D03*
G04 #@! TO.N,35*
X230850000D03*
G04 #@! TO.N,54*
X229850000D03*
G04 #@! TO.N,43*
X228850000D03*
G04 #@! TO.N,38*
X237850000Y101989995D03*
G04 #@! TO.N,23*
X236850000D03*
G04 #@! TO.N,40*
X235850000D03*
G04 #@! TO.N,57*
X234850000D03*
G04 #@! TO.N,60*
X233850000D03*
G04 #@! TO.N,61*
X232850000D03*
G04 #@! TO.N,29*
X231850000D03*
G04 #@! TO.N,24*
X230850000D03*
G04 #@! TO.N,27*
X229850000D03*
G04 #@! TO.N,59*
X228850000D03*
G04 #@! TO.N,32*
X237850000Y102989995D03*
G04 #@! TO.N,20*
X236850000D03*
G04 #@! TO.N,34*
X235850000D03*
G04 #@! TO.N,61*
X234850000D03*
G04 #@! TO.N,60*
X233850000D03*
G04 #@! TO.N,22*
X232850000D03*
G04 #@! TO.N,57*
X231850000D03*
G04 #@! TO.N,8*
X230850000D03*
G04 #@! TO.N,33*
X229850000D03*
G04 #@! TO.N,31*
X228850000D03*
G04 #@! TO.N,60*
X237850000Y103989995D03*
X236850000D03*
X235850000D03*
X234850000D03*
X233850000D03*
X232850000D03*
X231850000D03*
X230850000D03*
X229850000D03*
X228850000D03*
X237850000Y104989995D03*
X236850000D03*
X235850000D03*
X234850000D03*
X233850000D03*
X232850000D03*
X231850000D03*
X230850000D03*
X229850000D03*
X228850000D03*
G04 #@! TO.N,4*
X237850000Y105989995D03*
G04 #@! TO.N,28*
X236850000D03*
G04 #@! TO.N,25*
X235850000D03*
G04 #@! TO.N,59*
X234850000D03*
G04 #@! TO.N,15*
X233850000D03*
G04 #@! TO.N,46*
X232850000D03*
G04 #@! TO.N,13*
X231850000D03*
G04 #@! TO.N,58*
X230850000D03*
G04 #@! TO.N,11*
X229850000D03*
G04 #@! TO.N,39*
X228850000D03*
G04 #@! TO.N,36*
X237850000Y106989995D03*
G04 #@! TO.N,17*
X236850000D03*
G04 #@! TO.N,54*
X235850000D03*
G04 #@! TO.N,11*
X234850000D03*
G04 #@! TO.N,42*
X233850000D03*
G04 #@! TO.N,4*
X232850000D03*
G04 #@! TO.N,44*
X231850000D03*
G04 #@! TO.N,2*
X230850000D03*
G04 #@! TO.N,53*
X229850000D03*
G04 #@! TO.N,15*
X228850000D03*
G04 #@! TO.N,6*
X237850000Y107989995D03*
G04 #@! TO.N,56*
X236850000D03*
G04 #@! TO.N,8*
X235850000D03*
G04 #@! TO.N,49*
X234850000D03*
G04 #@! TO.N,62*
X233850000D03*
G04 #@! TO.N,7*
X232850000D03*
G04 #@! TO.N,32*
X231850000D03*
G04 #@! TO.N,49*
X230850000D03*
G04 #@! TO.N,10*
X229850000D03*
G04 #@! TO.N,48*
X228850000D03*
G04 #@! TO.N,5*
X237850000Y108989995D03*
G04 #@! TO.N,29*
X236850000D03*
G04 #@! TO.N,44*
X235850000D03*
G04 #@! TO.N,63*
X234850000D03*
G04 #@! TO.N,1*
X233850000D03*
G04 #@! TO.N,65*
X232850000D03*
G04 #@! TO.N,18*
X231850000D03*
G04 #@! TO.N,38*
X230850000D03*
G04 #@! TO.N,42*
X229850000D03*
G04 #@! TO.N,64*
X228850000D03*
G04 #@! TO.N,37*
X237850000Y109989995D03*
G04 #@! TO.N,46*
X236850000D03*
G04 #@! TO.N,65*
X235850000D03*
G04 #@! TO.N,12*
X234850000D03*
G04 #@! TO.N,43*
X233850000D03*
G04 #@! TO.N,28*
X232850000D03*
G04 #@! TO.N,63*
X231850000D03*
G04 #@! TO.N,26*
X230850000D03*
G04 #@! TO.N,45*
X229850000D03*
G04 #@! TO.N,36*
X228850000D03*
G04 #@! TO.N,39*
X237850000Y110989995D03*
G04 #@! TO.N,64*
X236850000D03*
G04 #@! TO.N,21*
X235850000D03*
G04 #@! TO.N,41*
X234850000D03*
G04 #@! TO.N,33*
X233850000D03*
G04 #@! TO.N,50*
X232850000D03*
G04 #@! TO.N,20*
X231850000D03*
G04 #@! TO.N,62*
X230850000D03*
G04 #@! TO.N,30*
X229850000D03*
G04 #@! TO.N,51*
X228850000D03*
G04 #@! TO.N,10*
X237850000Y111989995D03*
G04 #@! TO.N,30*
X236850000D03*
G04 #@! TO.N,47*
X235850000D03*
G04 #@! TO.N,24*
X234850000D03*
G04 #@! TO.N,2*
X233850000D03*
G04 #@! TO.N,12*
X232850000D03*
G04 #@! TO.N,55*
X231850000D03*
G04 #@! TO.N,23*
X230850000D03*
G04 #@! TO.N,6*
X229850000D03*
G04 #@! TO.N,21*
X228850000D03*
G04 #@! TO.N,26*
X237850000Y112989995D03*
G04 #@! TO.N,52*
X236850000D03*
G04 #@! TO.N,16*
X235850000D03*
G04 #@! TO.N,13*
X234850000D03*
G04 #@! TO.N,18*
X233850000D03*
G04 #@! TO.N,25*
X232850000D03*
G04 #@! TO.N,1*
X231850000D03*
G04 #@! TO.N,52*
X230850000D03*
G04 #@! TO.N,14*
X229850000D03*
G04 #@! TO.N,17*
X228850000D03*
G04 #@! TO.N,55*
X237850000Y113989995D03*
G04 #@! TO.N,19*
X236850000D03*
G04 #@! TO.N,22*
X235850000D03*
G04 #@! TO.N,7*
X234850000D03*
G04 #@! TO.N,50*
X233850000D03*
G04 #@! TO.N,9*
X232850000D03*
G04 #@! TO.N,34*
X231850000D03*
G04 #@! TO.N,5*
X230850000D03*
G04 #@! TO.N,47*
X229850000D03*
G04 #@! TO.N,3*
X228850000D03*
G04 #@! TO.N,60*
D15*
X256809850Y104989995D02*
X239898650D01*
X256809850Y103989995D02*
X239898650D01*
X256809850Y94989995D02*
X239898650D01*
X256809850Y93989995D02*
X239898650D01*
X222992550Y104989995D02*
X228100000D01*
X222992550Y103989995D02*
X228100000D01*
X222992550Y94989995D02*
X228100000D01*
X222992550Y93989995D02*
X228100000D01*
X237850000Y103989995D02*
X256809850D01*
X222992550Y84090000D02*
X256809850D01*
X222992550Y115590000D02*
X256809850D01*
X222992550Y83768600D02*
Y73773700D01*
X256809850Y73773700D02*
Y84090000D01*
X222992550Y155590200D02*
X256809850D01*
X222992550Y163590200D02*
X256809850D01*
X239898650Y70462500D02*
Y166217800D01*
X243707450Y104989995D02*
X238600000D01*
X243707450Y103989995D02*
X238600000D01*
X243707450Y94989995D02*
X238600000D01*
X243707450Y93989995D02*
X238600000D01*
D16*
X228850000Y104989995D02*
X237850000D01*
X228850000Y93989995D02*
X237850000D01*
X228850000Y94989995D02*
X237850000D01*
X228850000Y103989995D02*
X237850000D01*
X233850000Y101989995D02*
Y104989995D01*
X233850000Y96989995D02*
Y95989995D01*
Y93989995D01*
X239898650Y127962500D02*
Y76090100D01*
X237850000Y104989995D02*
X256809850D01*
X237850000Y93989995D02*
X256809850D01*
X237850000Y94989995D02*
X256809850D01*
X228850000Y104989995D02*
X222992550D01*
X228850000Y103989995D02*
X222992550D01*
X228850000Y94989995D02*
X222992550D01*
X228850000Y93989995D02*
X222992550D01*
D17*
X240500000Y94590000D03*
Y105090000D03*
X225500000Y94590000D03*
Y105090000D03*
X240500000Y115590000D03*
Y84090000D03*
G04 #@! TO.N,0*
%LPC*%
D18*
X240500000Y94590000D03*
Y105090000D03*
X225500000Y94590000D03*
Y105090000D03*
X240500000Y115590000D03*
Y84090000D03*
%LPD*%
D19*
X225500000Y84090000D03*
Y115590000D03*
G04 #@! TO.N,60*
D20*
Y84090000D03*
Y115590000D03*
G04 #@! TO.N,0*
%LPC*%
D21*
X225500000Y84090000D03*
Y115590000D03*
%LPD*%
D22*
X249353840Y104989995D03*
X249203450Y93989995D03*
%LPD*%
M02*