G04 #@! TF.FileFunction,Other,help*
G04 #@! TF.FilePolarity,Positive*
G04 #@! TF.SameCoordinates,1cDX9PD3q2MVNQUlwPAFNq2hZJss5yh*
G04 #@! TF.CreationDate,2025-09-04T08:30:57+0200*
G04 #@! TF.GenerationSoftware,Ucamco,UcamX,v2023.12-240208*
%FSLAX36Y36*%
%MOMM*%
%ADD10C,0.100000*%
%ADD11C,0.025400*%
%ADD12C,0.050800*%
%ADD13C,0.101600*%
%ADD14C,0.203200*%
%ADD15C,2.100000*%
%ADD16C,1.600000*%
%ADD17O,1.800000X1.600000*%
%ADD18C,3.100000*%
%ADD19C,2.600000*%
%ADD20O,2.800000X2.600000*%
%ADD21C,1.550000*%
%ADD22C,2.600000*%
%ADD23C,2.100000*%
%ADD24O,2.300000X2.100000*%
G04 layer name: DFS3498AM4_help*
%LPD*%
D10*
X253698650Y133040700D02*
G75*
G3*
X253548650Y133190700I-150000J0D01*
G74*
G1*
X253448650Y133190700D02*
G75*
G3*
X253298650Y133040700I0J-150000D01*
G74*
G1*
X252898650Y133040700D02*
G75*
G3*
X252748650Y133190700I-150000J0D01*
G74*
G1*
X252648650Y133190700D02*
G75*
G3*
X252498650Y133040700I0J-150000D01*
G74*
G1*
X252098650Y133040700D02*
G75*
G3*
X251948650Y133190700I-150000J0D01*
G74*
G1*
X251848650Y133190700D02*
G75*
G3*
X251698650Y133040700I0J-150000D01*
G74*
G1*
X251298650Y133040700D02*
G75*
G3*
X251148650Y133190700I-150000J0D01*
G74*
G1*
X251048650Y133190700D02*
G75*
G3*
X250898650Y133040700I0J-150000D01*
G74*
G1*
X250498650Y133040700D02*
G75*
G3*
X250348650Y133190700I-150000J0D01*
G74*
G1*
X250248650Y133190700D02*
G75*
G3*
X250098650Y133040700I0J-150000D01*
G74*
G1*
X249698650Y133040700D02*
G75*
G3*
X249548650Y133190700I-150000J0D01*
G74*
G1*
X249448650Y133190700D02*
G75*
G3*
X249298650Y133040700I0J-150000D01*
G74*
G1*
X248898650Y133040700D02*
G75*
G3*
X248748650Y133190700I-150000J0D01*
G74*
G1*
X248648650Y133190700D02*
G75*
G3*
X248498650Y133040700I0J-150000D01*
G74*
G1*
X248098650Y133040700D02*
G75*
G3*
X247948650Y133190700I-150000J0D01*
G74*
G1*
X247848650Y133190700D02*
G75*
G3*
X247698650Y133040700I0J-150000D01*
G74*
G1*
X247298650Y133040700D02*
G75*
G3*
X247148650Y133190700I-150000J0D01*
G74*
G1*
X247048650Y133190700D02*
G75*
G3*
X246898650Y133040700I0J-150000D01*
G74*
G1*
X246498650Y133040700D02*
G75*
G3*
X246348650Y133190700I-150000J0D01*
G74*
G1*
X246248650Y133190700D02*
G75*
G3*
X246098650Y133040700I0J-150000D01*
G74*
G1*
X245698650Y133040700D02*
G75*
G3*
X245548650Y133190700I-150000J0D01*
G74*
G1*
X245448650Y133190700D02*
G75*
G3*
X245298650Y133040700I0J-150000D01*
G74*
G1*
X244898650Y133040700D02*
G75*
G3*
X244748650Y133190700I-150000J0D01*
G74*
G1*
X244648650Y133190700D02*
G75*
G3*
X244498650Y133040700I0J-150000D01*
G74*
G1*
X244098650Y133040700D02*
G75*
G3*
X243948650Y133190700I-150000J0D01*
G74*
G1*
X243848650Y133190700D02*
G75*
G3*
X243698650Y133040700I0J-150000D01*
G74*
G1*
X243298650Y133040700D02*
G75*
G3*
X243148650Y133190700I-150000J0D01*
G74*
G1*
X243048650Y133190700D02*
G75*
G3*
X242898650Y133040700I0J-150000D01*
G74*
G1*
X242498650Y133040700D02*
G75*
G3*
X242348650Y133190700I-150000J0D01*
G74*
G1*
X242248650Y133190700D02*
G75*
G3*
X242098650Y133040700I0J-150000D01*
G74*
G1*
X241698650Y133040700D02*
G75*
G3*
X241548650Y133190700I-150000J0D01*
G74*
G1*
X241448650Y133190700D02*
G75*
G3*
X241298650Y133040700I0J-150000D01*
G74*
G1*
X240898650Y133040700D02*
G75*
G3*
X240748650Y133190700I-150000J0D01*
G74*
G1*
X240648650Y133190700D02*
G75*
G3*
X240498650Y133040700I0J-150000D01*
G74*
G1*
X240098650Y133040700D02*
G75*
G3*
X239948650Y133190700I-150000J0D01*
G74*
G1*
X239848650Y133190700D02*
G75*
G3*
X239698650Y133040700I0J-150000D01*
G74*
G1*
X239298650Y133040700D02*
G75*
G3*
X239148650Y133190700I-150000J0D01*
G74*
G1*
X239048650Y133190700D02*
G75*
G3*
X238898650Y133040700I0J-150000D01*
G74*
G1*
X238498650Y133040700D02*
G75*
G3*
X238348650Y133190700I-150000J0D01*
G74*
G1*
X238248650Y133190700D02*
G75*
G3*
X238098650Y133040700I0J-150000D01*
G74*
G1*
X237698650Y133040700D02*
G75*
G3*
X237548650Y133190700I-150000J0D01*
G74*
G1*
X237448650Y133190700D02*
G75*
G3*
X237298650Y133040700I0J-150000D01*
G74*
G1*
X236898650Y133040700D02*
G75*
G3*
X236748650Y133190700I-150000J0D01*
G74*
G1*
X236648650Y133190700D02*
G75*
G3*
X236498650Y133040700I0J-150000D01*
G74*
G1*
X236098650Y133040700D02*
G75*
G3*
X235948650Y133190700I-150000J0D01*
G74*
G1*
X235848650Y133190700D02*
G75*
G3*
X235698650Y133040700I0J-150000D01*
G74*
G1*
X235298650Y133040700D02*
G75*
G3*
X235148650Y133190700I-150000J0D01*
G74*
G1*
X235048650Y133190700D02*
G75*
G3*
X234898650Y133040700I0J-150000D01*
G74*
G1*
X234498650Y133040700D02*
G75*
G3*
X234348650Y133190700I-150000J0D01*
G74*
G1*
X234248650Y133190700D02*
G75*
G3*
X234098650Y133040700I0J-150000D01*
G74*
G1*
X233698650Y133040700D02*
G75*
G3*
X233548650Y133190700I-150000J0D01*
G74*
G1*
X233448650Y133190700D02*
G75*
G3*
X233298650Y133040700I0J-150000D01*
G74*
G1*
X232898650Y133040700D02*
G75*
G3*
X232748650Y133190700I-150000J0D01*
G74*
G1*
X232648650Y133190700D02*
G75*
G3*
X232498650Y133040700I0J-150000D01*
G74*
G1*
X232098650Y133040700D02*
G75*
G3*
X231948650Y133190700I-150000J0D01*
G74*
G1*
X231848650Y133190700D02*
G75*
G3*
X231698650Y133040700I0J-150000D01*
G74*
G1*
X231298650Y133040700D02*
G75*
G3*
X231148650Y133190700I-150000J0D01*
G74*
G1*
X231048650Y133190700D02*
G75*
G3*
X230898650Y133040700I0J-150000D01*
G74*
G1*
X230498650Y133040700D02*
G75*
G3*
X230348650Y133190700I-150000J0D01*
G74*
G1*
X230248650Y133190700D02*
G75*
G3*
X230098650Y133040700I0J-150000D01*
G74*
G1*
X229698650Y133040700D02*
G75*
G3*
X229548650Y133190700I-150000J0D01*
G74*
G1*
X229448650Y133190700D02*
G75*
G3*
X229298650Y133040700I0J-150000D01*
G74*
G1*
X228898550Y133040700D02*
G75*
G3*
X228748650Y133190700I-150000J0D01*
G74*
G1*
X228648650Y133190700D02*
G75*
G3*
X228498650Y133040700I0J-150000D01*
G74*
G1*
X228098650Y133040700D02*
G75*
G3*
X227948650Y133190700I-150000J0D01*
G74*
G1*
X227848650Y133190700D02*
G75*
G3*
X227698650Y133040700I0J-150000D01*
G74*
G1*
X227298650Y133040700D02*
G75*
G3*
X227148650Y133190700I-150000J0D01*
G74*
G1*
X227048650Y133190700D02*
G75*
G3*
X226898650Y133040700I0J-150000D01*
G74*
G1*
X226498650Y133040700D02*
G75*
G3*
X226348650Y133190700I-150000J0D01*
G74*
G1*
X226248650Y133190700D02*
G75*
G3*
X226098650Y133040700I0J-150000D01*
G74*
G1*
X255398650Y134254600D02*
G75*
G3*
X255398650Y134925300I-698700J335400D01*
G74*
G1*
X224398550Y134919800D02*
G75*
G3*
X224398550Y134260200I701300J-329800D01*
G74*
G1*
X254528550Y130890700D02*
Y130640700D01*
X253298650Y132640800D02*
X253698650D01*
X252498650Y132640800D02*
X252898650D01*
X251698650Y132640800D02*
X252098650D01*
X250898650Y132640800D02*
X251298650D01*
X250098650Y132640800D02*
X250498650D01*
X249298650Y132640800D02*
X249698650D01*
X248498650Y132640800D02*
X248898650D01*
X247698650Y132640800D02*
X248098550D01*
X246898550Y132640800D02*
X247298550D01*
X246098650Y132640800D02*
X246498650D01*
X245298550Y132640800D02*
X245698650D01*
X244498650Y132640800D02*
X244898550D01*
X243698650Y132640800D02*
X244098650D01*
X242898550Y132640800D02*
X243298550D01*
X242098650Y132640800D02*
X242498650D01*
X241298650Y132640800D02*
X241698650D01*
X240498650Y132640800D02*
X240898650D01*
X239698650Y132640800D02*
X240098650D01*
X238898650Y132640800D02*
X239298650D01*
X238098650Y132640800D02*
X238498650D01*
X237298650Y132640800D02*
X237698650D01*
X236498650Y132640800D02*
X236898650D01*
X235698650Y132640800D02*
X236098650D01*
X234898650Y132640800D02*
X235298650D01*
X234098650Y132640800D02*
X234498650D01*
X233298650Y132640800D02*
X233698650D01*
X232498650Y132640800D02*
X232898650D01*
X231698650Y132640800D02*
X232098650D01*
X230898650Y132640800D02*
X231298650D01*
X230098650Y132640800D02*
X230498650D01*
X229298650Y132640800D02*
X229698650D01*
X228498550Y132640800D02*
X228898650D01*
X227698550Y132640800D02*
X228098550D01*
X226898550Y132640800D02*
X227298550D01*
X226098550Y132640800D02*
X226498650D01*
X225268650Y130890700D02*
Y130640700D01*
X225648550Y131240700D02*
X225698550Y131140700D01*
X224648550Y131240700D02*
X224598650Y131140700D01*
X225698550D01*
X226398650Y133980700D02*
X228779850D01*
X226398650Y134285500D02*
Y133980700D01*
X226398650Y134285500D02*
X228779850D01*
Y133980700D01*
X226398650Y137485900D02*
X228779850D01*
X226398650Y137790700D02*
Y137485900D01*
X226398650Y137790700D02*
X228779850D01*
Y137485900D01*
X226398650Y134590300D02*
X228779850D01*
X226398650Y134895200D02*
Y134590300D01*
X226398650Y134895200D02*
X228475050D01*
X228475050Y135733400D02*
Y134895200D01*
X226398650Y135733400D02*
X228475050D01*
X226398650Y137181100D02*
Y135733400D01*
X226398650Y137181100D02*
X228779850D01*
Y136876400D01*
X226703450Y136876400D02*
X228779850D01*
X226703450Y136876400D02*
Y136038200D01*
X228779850D01*
Y134590300D01*
X253698650Y131240700D02*
Y130890700D01*
X252898650Y131240700D02*
Y130890700D01*
X252098650Y131240700D02*
Y130890700D01*
X251298650Y131240700D02*
Y130890700D01*
X250498650Y131240700D02*
Y130890700D01*
X249698650Y131240700D02*
Y130890700D01*
X248898650Y131240700D02*
Y130890700D01*
X248098550Y131240700D02*
Y130890700D01*
X247298550Y131240700D02*
Y130890700D01*
X246498650Y131240700D02*
Y130890700D01*
X245698650Y131240700D02*
Y130890700D01*
X244898550Y131240700D02*
Y130890700D01*
X244098650Y131240700D02*
Y130890700D01*
X243298550Y131240700D02*
Y130890700D01*
X242498650Y131240700D02*
Y130890700D01*
X241698650Y131240700D02*
Y130890700D01*
X240898650Y131240700D02*
Y130890700D01*
X240098650Y131240700D02*
Y130890700D01*
X239298650Y131240700D02*
Y130890700D01*
X238498650Y131240700D02*
Y130890700D01*
X237698650Y131240700D02*
Y130890700D01*
X236898650Y131240700D02*
Y130890700D01*
X236098650Y131240700D02*
Y130890700D01*
X235298650Y131240700D02*
Y130890700D01*
X234498650Y131240700D02*
Y130890700D01*
X233698650Y131240700D02*
Y130890700D01*
X232898650Y131240700D02*
Y130890700D01*
X232098650Y131240700D02*
Y130890700D01*
X231298650Y131240700D02*
Y130890700D01*
X230498650Y131240700D02*
Y130890700D01*
X229698650Y131240700D02*
Y130890700D01*
X228898650Y131240700D02*
Y130890700D01*
X228098550Y131240700D02*
Y130890700D01*
X227298550Y131240700D02*
Y130890700D01*
X226498650Y131240700D02*
Y130890700D01*
X224398650Y131240700D02*
Y130890700D01*
X226098550D01*
X255398650Y131240700D02*
Y130890700D01*
X226498650Y130890700D02*
X226898550D01*
X226098550Y131240700D02*
Y130890700D01*
X227298550Y130890700D02*
X227698550D01*
X228098550Y130890700D02*
X228498550D01*
X228898650Y130890700D02*
X229298650D01*
X229698650Y130890700D02*
X230098650D01*
X230498650Y130890700D02*
X230898650D01*
X231298650Y130890700D02*
X231698650D01*
X232098650Y130890700D02*
X232498650D01*
X232898650Y130890700D02*
X233298650D01*
X233698650Y130890700D02*
X234098650D01*
X234498650Y130890700D02*
X234898650D01*
X235298650Y130890700D02*
X235698650D01*
X236098650Y130890700D02*
X236498650D01*
X236898650Y130890700D02*
X237298650D01*
X237698650Y130890700D02*
X238098650D01*
X238498650Y130890700D02*
X238898650D01*
X239298650Y130890700D02*
X239698650D01*
X240098650Y130890700D02*
X240498650D01*
X240898650Y130890700D02*
X241298650D01*
X241698650Y130890700D02*
X242098650D01*
X242498650Y130890700D02*
X242898550D01*
X243298550Y130890700D02*
X243698650D01*
X244098650Y130890700D02*
X244498650D01*
X244898550Y130890700D02*
X245298550D01*
X245698650Y130890700D02*
X246098650D01*
X246498650Y130890700D02*
X246898550D01*
X247298550Y130890700D02*
X247698650D01*
X248098550Y130890700D02*
X248498650D01*
X248898650Y130890700D02*
X249298650D01*
X249698650Y130890700D02*
X250098650D01*
X250498650Y130890700D02*
X250898650D01*
X251298650Y130890700D02*
X251698650D01*
X252098650Y130890700D02*
X252498650D01*
X252898650Y130890700D02*
X253298650D01*
X253698650Y130890700D02*
X255398650D01*
X226898550Y131240700D02*
Y130890700D01*
X227698550Y131240700D02*
Y130890700D01*
X228498550Y131240700D02*
Y130890700D01*
X229298650Y131240700D02*
Y130890700D01*
X230098650Y131240700D02*
Y130890700D01*
X230898650Y131240700D02*
Y130890700D01*
X231698650Y131240700D02*
Y130890700D01*
X232498650Y131240700D02*
Y130890700D01*
X233298650Y131240700D02*
Y130890700D01*
X234098650Y131240700D02*
Y130890700D01*
X234898650Y131240700D02*
Y130890700D01*
X235698650Y131240700D02*
Y130890700D01*
X236498650Y131240700D02*
Y130890700D01*
X237298650Y131240700D02*
Y130890700D01*
X238098650Y131240700D02*
Y130890700D01*
X238898650Y131240700D02*
Y130890700D01*
X239698650Y131240700D02*
Y130890700D01*
X240498650Y131240700D02*
Y130890700D01*
X241298650Y131240700D02*
Y130890700D01*
X242098650Y131240700D02*
Y130890700D01*
X242898550Y131240700D02*
Y130890700D01*
X243698650Y131240700D02*
Y130890700D01*
X244498650Y131240700D02*
Y130890700D01*
X245298550Y131240700D02*
Y130890700D01*
X246098650Y131240700D02*
Y130890700D01*
X246898550Y131240700D02*
Y130890700D01*
X247698650Y131240700D02*
Y130890700D01*
X248498650Y131240700D02*
Y130890700D01*
X249298650Y131240700D02*
Y130890700D01*
X250098650Y131240700D02*
Y130890700D01*
X250898650Y131240700D02*
Y130890700D01*
X251698650Y131240700D02*
Y130890700D01*
X252498650Y131240700D02*
Y130890700D01*
X253298650Y131240700D02*
Y130890700D01*
X224398650Y137090700D02*
Y131240700D01*
X225598650Y138290700D02*
X224398650Y137090700D01*
X225598650Y138290700D02*
X254198650D01*
X255398650Y137090700D01*
Y131240700D01*
X253698650Y131240700D02*
X255398650D01*
X253698650Y133040700D02*
Y131240700D01*
X253448650Y133190700D02*
X253548650D01*
X253298650Y133040700D02*
Y131240700D01*
X252898650Y131240700D02*
X253298650D01*
X252898650Y133040700D02*
Y131240700D01*
X252648550Y133190700D02*
X252748650D01*
X252498650Y133040700D02*
Y131240700D01*
X252098650Y131240700D02*
X252498650D01*
X252098650Y133040700D02*
Y131240700D01*
X251848650Y133190700D02*
X251948650D01*
X251698650Y133040700D02*
Y131240700D01*
X251298650Y131240700D02*
X251698650D01*
X251298650Y133040700D02*
Y131240700D01*
X251048550Y133190700D02*
X251148650D01*
X250898650Y133040700D02*
Y131240700D01*
X250498650Y131240700D02*
X250898650D01*
X250498650Y133040700D02*
Y131240700D01*
X250248650Y133190700D02*
X250348650D01*
X250098650Y133040700D02*
Y131240700D01*
X249698650Y131240700D02*
X250098650D01*
X249698650Y133040700D02*
Y131240700D01*
X249448650Y133190700D02*
X249548650D01*
X249298650Y133040700D02*
Y131240700D01*
X248898650Y131240700D02*
X249298650D01*
X248898650Y133040700D02*
Y131240700D01*
X248648650Y133190700D02*
X248748650D01*
X248498650Y133040700D02*
Y131240700D01*
X248098550Y131240700D02*
X248498650D01*
X248098550Y133040700D02*
Y131240700D01*
X247848650Y133190700D02*
X247948650D01*
X247698650Y133040700D02*
Y131240700D01*
X247298550Y131240700D02*
X247698650D01*
X247298550Y133040700D02*
Y131240700D01*
X247048650Y133190700D02*
X247148650D01*
X246898550Y133040700D02*
Y131240700D01*
X246498650Y131240700D02*
X246898550D01*
X246498650Y133040700D02*
Y131240700D01*
X246248650Y133190700D02*
X246348650D01*
X246098650Y133040700D02*
Y131240700D01*
X245698650Y131240700D02*
X246098650D01*
X245698650Y133040700D02*
Y131240700D01*
X245448650Y133190700D02*
X245548650D01*
X245298550Y133040700D02*
Y131240700D01*
X244898550Y131240700D02*
X245298550D01*
X244898550Y133040700D02*
Y131240700D01*
X244648650Y133190700D02*
X244748650D01*
X244498650Y133040700D02*
Y131240700D01*
X244098650Y131240700D02*
X244498650D01*
X244098650Y133040700D02*
Y131240700D01*
X243848650Y133190700D02*
X243948650D01*
X243698650Y133040700D02*
Y131240700D01*
X243298550Y131240700D02*
X243698650D01*
X243298550Y133040700D02*
Y131240700D01*
X243048650Y133190700D02*
X243148550D01*
X242898550Y133040700D02*
Y131240700D01*
X242498650Y131240700D02*
X242898550D01*
X242498650Y133040700D02*
Y131240700D01*
X242248650Y133190700D02*
X242348550D01*
X242098650Y133040700D02*
Y131240700D01*
X241698650Y131240700D02*
X242098650D01*
X241698650Y133040700D02*
Y131240700D01*
X241448650Y133190700D02*
X241548550D01*
X241298650Y133040700D02*
Y131240700D01*
X240898650Y131240700D02*
X241298650D01*
X240898650Y133040700D02*
Y131240700D01*
X240648650Y133190700D02*
X240748650D01*
X240498650Y133040700D02*
Y131240700D01*
X240098650Y131240700D02*
X240498650D01*
X240098650Y133040700D02*
Y131240700D01*
X239848650Y133190700D02*
X239948650D01*
X239698650Y133040700D02*
Y131240700D01*
X239298650Y131240700D02*
X239698650D01*
X239298650Y133040700D02*
Y131240700D01*
X239048650Y133190700D02*
X239148550D01*
X238898650Y133040700D02*
Y131240700D01*
X238498650Y131240700D02*
X238898650D01*
X238498650Y133040700D02*
Y131240700D01*
X238248650Y133190700D02*
X238348650D01*
X238098650Y133040700D02*
Y131240700D01*
X237698650Y131240700D02*
X238098650D01*
X237698650Y133040700D02*
Y131240700D01*
X237448650Y133190700D02*
X237548550D01*
X237298650Y133040700D02*
Y131240700D01*
X236898650Y131240700D02*
X237298650D01*
X236898650Y133040700D02*
Y131240700D01*
X236648650Y133190700D02*
X236748650D01*
X236498650Y133040700D02*
Y131240700D01*
X236098650Y131240700D02*
X236498650D01*
X236098650Y133040700D02*
Y131240700D01*
X235848650Y133190700D02*
X235948650D01*
X235698650Y133040700D02*
Y131240700D01*
X235298650Y131240700D02*
X235698650D01*
X235298650Y133040700D02*
Y131240700D01*
X235048650Y133190700D02*
X235148650D01*
X234898650Y133040700D02*
Y131240700D01*
X234498650Y131240700D02*
X234898650D01*
X234498650Y133040700D02*
Y131240700D01*
X234248650Y133190700D02*
X234348650D01*
X234098650Y133040700D02*
Y131240700D01*
X233698650Y131240700D02*
X234098650D01*
X233698650Y133040700D02*
Y131240700D01*
X233448550Y133190700D02*
X233548650D01*
X233298650Y133040700D02*
Y131240700D01*
X232898650Y131240700D02*
X233298650D01*
X232898650Y133040700D02*
Y131240700D01*
X232648550Y133190700D02*
X232748650D01*
X232498650Y133040700D02*
Y131240700D01*
X232098650Y131240700D02*
X232498650D01*
X232098650Y133040700D02*
Y131240700D01*
X231848550Y133190700D02*
X231948650D01*
X231698650Y133040700D02*
Y131240700D01*
X231298650Y131240700D02*
X231698650D01*
X231298650Y133040700D02*
Y131240700D01*
X231048550Y133190700D02*
X231148650D01*
X230898650Y133040700D02*
Y131240700D01*
X230498650Y131240700D02*
X230898650D01*
X230498650Y133040700D02*
Y131240700D01*
X230248650Y133190700D02*
X230348650D01*
X230098650Y133040700D02*
Y131240700D01*
X229698650Y131240700D02*
X230098650D01*
X229698650Y133040700D02*
Y131240700D01*
X229448550Y133190700D02*
X229548650D01*
X229298650Y133040700D02*
Y131240700D01*
X228898650Y131240700D02*
X229298650D01*
X228898650Y133040700D02*
Y131240700D01*
X228648550Y133190700D02*
X228748650D01*
X228498550Y133040700D02*
Y131240700D01*
X228098550Y131240700D02*
X228498550D01*
X228098550Y133040700D02*
Y131240700D01*
X227848650Y133190700D02*
X227948650D01*
X227698550Y133040700D02*
Y131240700D01*
X227298550Y131240700D02*
X227698550D01*
X227298550Y133040700D02*
Y131240700D01*
X227048550Y133190700D02*
X227148650D01*
X226898550Y133040700D02*
Y131240700D01*
X226498650Y131240700D02*
X226898550D01*
X226498650Y133040700D02*
Y131240700D01*
X226248650Y133190700D02*
X226348650D01*
X226098550Y133040700D02*
Y131240700D01*
X225648550Y131240700D02*
X226098550D01*
X225148650Y132240800D02*
X225648550Y131240700D01*
X225148650Y132240800D02*
X224648550Y131240700D01*
X224398650Y131240700D02*
X224648550D01*
X219400000Y169590100D02*
X260400000D01*
X260400000Y69590100D02*
X219400000D01*
Y169590100D01*
X260400000Y169590100D02*
Y69590100D01*
D11*
X225062685Y125280980D02*
X225262690Y125290765D01*
X225263345Y125290815D01*
X225371660Y125302335D01*
X225372635Y125302480D01*
X225453290Y125317460D01*
X225454555Y125317760D01*
X225532910Y125340805D01*
X225534360Y125341330D01*
X225585060Y125363225D01*
X225586560Y125363995D01*
X225632710Y125391690D01*
X225634170Y125392720D01*
X225679110Y125429590D01*
X225680520Y125430940D01*
X225719695Y125474730D01*
X225720830Y125476205D01*
X225756550Y125530360D01*
X225757440Y125531945D01*
X225785095Y125590710D01*
X225785630Y125592035D01*
X225806370Y125653105D01*
X225806800Y125654720D01*
X225830120Y125772390D01*
X226252920D01*
Y123012770D01*
X225729845D01*
Y124905915D01*
G75*
G3*
X225717145Y124918615I-12700J0D01*
G74*
G1*
X225062685D01*
Y125280980D01*
X253777630Y142440605D02*
X253784520Y142611570D01*
X253800580Y142781380D01*
X253823480Y142922220D01*
X253855555Y143060815D01*
X253900140Y143200280D01*
X253956175Y143334075D01*
X254009675Y143434255D01*
X254074525Y143527545D01*
X254148445Y143610565D01*
X254230265Y143684430D01*
X254317715Y143744625D01*
X254410915Y143794635D01*
X254497165Y143828680D01*
X254585820Y143852550D01*
X254695360Y143871950D01*
X254807135Y143882215D01*
X254921185D01*
X255035260Y143870810D01*
X255128395Y143853770D01*
X255216970Y143825380D01*
X255295250Y143792485D01*
X255367740Y143750575D01*
X255432390Y143704070D01*
X255492350Y143650895D01*
X255531955Y143605635D01*
X255569350Y143558045D01*
X255600980Y143508335D01*
X255627985Y143455455D01*
X255660850Y143363660D01*
X255682400Y143267250D01*
X255689095Y143195515D01*
X255150065D01*
X255140530Y143245130D01*
X255140155Y143246600D01*
X255130935Y143275410D01*
X255130150Y143277315D01*
X255102495Y143331470D01*
G75*
G3*
X255100740Y143334060I-11310J-5775D01*
G74*
G1*
X255060410Y143380150D01*
G75*
G3*
X255058325Y143382055I-9555J-8365D01*
G74*
G1*
X255007625Y143418930D01*
G75*
G3*
X255004980Y143420410I-7470J-10270D01*
G74*
G1*
X254940455Y143446910D01*
G75*
G3*
X254938120Y143447615I-4825J-11750D01*
G74*
G1*
X254874745Y143460290D01*
X254872830Y143460520D01*
X254796780Y143463975D01*
X254795280Y143463955D01*
X254748040Y143460500D01*
X254746775Y143460345D01*
X254700685Y143452280D01*
X254699435Y143451995D01*
X254662560Y143441625D01*
X254660950Y143441055D01*
X254626385Y143426075D01*
X254625070Y143425410D01*
X254581275Y143400055D01*
X254579745Y143399015D01*
X254540570Y143367905D01*
X254539250Y143366695D01*
X254497770Y143322910D01*
X254496770Y143321715D01*
X254461050Y143273320D01*
X254460120Y143271860D01*
X254432435Y143221095D01*
X254431915Y143220020D01*
X254410020Y143168165D01*
X254409655Y143167185D01*
X254385460Y143093440D01*
X254385140Y143092295D01*
X254367855Y143016245D01*
X254367690Y143015370D01*
X254352710Y142918580D01*
X254352615Y142917835D01*
X254334180Y142723105D01*
G75*
G3*
X254355220Y142712380I12645J-1195D01*
G74*
G1*
X254422690Y142771840D01*
X254460830Y142798765D01*
X254500200Y142821260D01*
X254549885Y142844975D01*
X254600755Y142863065D01*
X254663220Y142881235D01*
X254727825Y142893700D01*
X254801780Y142901665D01*
X254875810Y142905090D01*
X254957815Y142902810D01*
X255039725Y142893710D01*
X255115830Y142878940D01*
X255190965Y142857315D01*
X255275115Y142826610D01*
X255354560Y142786890D01*
X255422630Y142743780D01*
X255486070Y142693935D01*
X255546120Y142635015D01*
X255598225Y142570445D01*
X255647035Y142494395D01*
X255686770Y142413800D01*
X255717415Y142333205D01*
X255739010Y142249100D01*
X255756095Y142151120D01*
X255764075Y142053140D01*
X255762935Y141949360D01*
X255753805Y141846685D01*
X255736745Y141751125D01*
X255710550Y141657745D01*
X255675300Y141566775D01*
X255630945Y141479205D01*
X255582115Y141404250D01*
X255525360Y141333875D01*
X255458375Y141266890D01*
X255383520Y141207915D01*
X255299480Y141156815D01*
X255210765Y141114730D01*
X255120985Y141082905D01*
X255030145Y141061335D01*
X254915950Y141046490D01*
X254801855Y141039640D01*
X254685420Y141044215D01*
X254570325Y141057885D01*
X254480565Y141079475D01*
X254391945Y141110150D01*
X254326125Y141140790D01*
X254262740Y141177010D01*
X254203695Y141220160D01*
X254145765Y141269000D01*
X254091240Y141324665D01*
X254042435Y141383680D01*
X253982070Y141472520D01*
X253932005Y141566960D01*
X253880630Y141693690D01*
X253841770Y141823985D01*
X253812000Y141959100D01*
X253792540Y142096460D01*
X253779930Y142268435D01*
X253777630Y142440605D01*
X254342190Y141993435D02*
X254343345Y141933450D01*
X254343425Y141932305D01*
X254350340Y141872390D01*
X254350445Y141871655D01*
X254358510Y141825565D01*
X254358775Y141824390D01*
X254371450Y141778295D01*
X254371885Y141776995D01*
X254389170Y141733210D01*
X254389390Y141732690D01*
X254408980Y141688905D01*
X254409740Y141687455D01*
X254431670Y141651675D01*
X254432345Y141650695D01*
X254457695Y141617280D01*
X254457910Y141617015D01*
X254458490Y141616325D01*
X254487300Y141585215D01*
X254488325Y141584225D01*
X254521740Y141555415D01*
X254522750Y141554630D01*
X254557315Y141530435D01*
X254558375Y141529770D01*
X254595125Y141509100D01*
X254595275Y141509020D01*
X254596470Y141508425D01*
X254636800Y141491140D01*
X254638490Y141490555D01*
X254681120Y141479030D01*
X254682115Y141478805D01*
X254731665Y141469590D01*
X254732810Y141469430D01*
X254782355Y141464820D01*
X254783825Y141464770D01*
X254833425Y141465925D01*
X254834550Y141466000D01*
X254884095Y141471765D01*
X254885455Y141472000D01*
X254925785Y141481215D01*
X254927180Y141481620D01*
X254966360Y141495450D01*
X254967815Y141496065D01*
X255006990Y141515650D01*
X255008435Y141516495D01*
X255044155Y141540695D01*
X255045190Y141541480D01*
X255080910Y141571440D01*
X255082190Y141572675D01*
X255113300Y141607240D01*
X255113745Y141607770D01*
X255113940Y141608005D01*
X255140445Y141642575D01*
X255141450Y141644110D01*
X255163215Y141683060D01*
X255163285Y141683190D01*
X255163350Y141683310D01*
X255163845Y141684295D01*
X255183435Y141728080D01*
X255183530Y141728310D01*
X255183865Y141729160D01*
X255199995Y141776405D01*
X255200350Y141777655D01*
X255210720Y141822595D01*
X255210855Y141823260D01*
X255218920Y141869350D01*
X255219070Y141870545D01*
X255223680Y141929310D01*
X255223720Y141930055D01*
X255224875Y141988820D01*
X255224865Y141989530D01*
X255222560Y142052905D01*
X255222555Y142052980D01*
X255222490Y142053850D01*
X255215575Y142116070D01*
X255215345Y142117455D01*
X255204975Y142163545D01*
X255204725Y142164490D01*
X255190900Y142209430D01*
X255190350Y142210880D01*
X255170760Y142254665D01*
X255170140Y142255880D01*
X255145930Y142297375D01*
X255145170Y142298530D01*
X255118670Y142334250D01*
X255117925Y142335165D01*
X255087965Y142368580D01*
X255086605Y142369885D01*
X255053190Y142397540D01*
X255052215Y142398270D01*
X255016495Y142422465D01*
X255015055Y142423310D01*
X254975880Y142442900D01*
X254974515Y142443485D01*
X254933030Y142458465D01*
X254931430Y142458925D01*
X254857685Y142475055D01*
G75*
G3*
X254855430Y142475340I-2715J-12405D01*
G74*
G1*
X254759795Y142478795D01*
X254758430Y142478770D01*
X254710035Y142475315D01*
X254709845Y142475295D01*
X254708805Y142475170D01*
X254661560Y142467105D01*
X254660715Y142466930D01*
X254627300Y142458865D01*
X254626140Y142458525D01*
X254592725Y142447000D01*
X254591185Y142446355D01*
X254554315Y142427920D01*
X254552950Y142427130D01*
X254518380Y142404085D01*
X254516930Y142402955D01*
X254482360Y142371845D01*
X254481560Y142371060D01*
X254450450Y142337640D01*
X254449505Y142336495D01*
X254424155Y142301930D01*
X254423565Y142301055D01*
X254401675Y142265335D01*
X254401015Y142264110D01*
X254382575Y142224930D01*
X254382275Y142224235D01*
X254366145Y142183910D01*
X254365520Y142181870D01*
X254349390Y142106970D01*
X254349130Y142105085D01*
X254342215Y141994470D01*
X254342190Y141993435D01*
X255676770Y143205040D02*
X255678460Y143206895D01*
X255678635Y143205040D01*
X255676770D01*
X256243065Y142197390D02*
X257262850Y143802705D01*
X257934535D01*
Y142154995D01*
G75*
G3*
X257947235Y142142295I12700J0D01*
G74*
G1*
X258257170D01*
Y141726380D01*
X257947235D01*
G75*
G3*
X257934535Y141713680I0J-12700D01*
G74*
G1*
Y141123745D01*
X257416065D01*
Y141713680D01*
G75*
G3*
X257403365Y141726380I-12700J0D01*
G74*
G1*
X256243065D01*
Y142197390D01*
X256647455Y142141170D02*
G75*
G3*
X256660155Y142128470I12700J0D01*
G74*
G1*
X257417195D01*
G75*
G3*
X257429895Y142141170I0J12700D01*
G74*
G1*
Y143333760D01*
G75*
G3*
X257406475Y143340565I-12700J0D01*
G74*
G1*
X256649435Y142147975D01*
G75*
G3*
X256647455Y142141170I10720J-6805D01*
G74*
D12*
G1*
X225088085Y125256790D02*
X225263860Y125265390D01*
X225266030Y125265560D01*
X225374345Y125277080D01*
X225377270Y125277505D01*
X225457925Y125292485D01*
G75*
G3*
X225461720Y125293395I-6955J37460D01*
G74*
G1*
X225540075Y125316440D01*
G75*
G3*
X225543180Y125317505I-10750J36550D01*
G74*
G1*
X225544430Y125318010D01*
X225595130Y125339905D01*
G75*
G3*
X225599630Y125342215I-15105J34980D01*
G74*
G1*
X225645720Y125369870D01*
G75*
G3*
X225650280Y125373085I-19605J32670D01*
G74*
G1*
X225695220Y125409955D01*
G75*
G3*
X225699450Y125414005I-24165J29455D01*
G74*
G1*
X225738625Y125457795D01*
G75*
G3*
X225742035Y125462220I-28395J25405D01*
G74*
G1*
X225777755Y125516375D01*
G75*
G3*
X225780425Y125521130I-31805J20980D01*
G74*
G1*
X225808080Y125579895D01*
G75*
G3*
X225809680Y125583870I-34475J16225D01*
G74*
G1*
X225830420Y125644940D01*
G75*
G3*
X225831715Y125649785I-36075J12250D01*
G74*
G1*
X225850980Y125746990D01*
X226227520D01*
Y123038170D01*
X225755245D01*
Y124905915D01*
G75*
G3*
X225717145Y124944015I-38100J0D01*
G74*
G1*
X225088085D01*
Y125256790D01*
X253803035Y142440195D02*
X253809870Y142609905D01*
X253825785Y142778130D01*
X253848415Y142917315D01*
X253880055Y143054040D01*
X253923990Y143191475D01*
X253979155Y143323190D01*
X254031390Y143420995D01*
X254094500Y143511780D01*
X254166485Y143592630D01*
X254246045Y143664455D01*
X254330980Y143722915D01*
X254421620Y143771555D01*
X254505155Y143804525D01*
X254591340Y143827730D01*
X254698715Y143846750D01*
X254808315Y143856815D01*
X254919910D01*
X255031720Y143845635D01*
X255122220Y143829080D01*
X255208150Y143801540D01*
X255283910Y143769700D01*
X255353925Y143729220D01*
X255416505Y143684210D01*
X255474315Y143632940D01*
X255512340Y143589480D01*
X255548615Y143543310D01*
X255578920Y143495695D01*
X255604615Y143445380D01*
X255636400Y143356585D01*
X255657260Y143263270D01*
X255661215Y143220915D01*
X255171050D01*
X255165475Y143249925D01*
G75*
G3*
X255164345Y143254345I-37415J-7195D01*
G74*
G1*
X255155125Y143283155D01*
G75*
G3*
X255152770Y143288865I-36285J-11615D01*
G74*
G1*
X255125115Y143343020D01*
G75*
G3*
X255119855Y143350785I-33930J-17325D01*
G74*
G1*
X255079525Y143396875D01*
G75*
G3*
X255073265Y143402600I-28670J-25090D01*
G74*
G1*
X255022565Y143439475D01*
G75*
G3*
X255014630Y143443905I-22410J-30815D01*
G74*
G1*
X254950105Y143470405D01*
G75*
G3*
X254943100Y143472520I-14475J-35245D01*
G74*
G1*
X254879725Y143485195D01*
G75*
G3*
X254873985Y143485895I-7470J-37360D01*
G74*
G1*
X254797935Y143489350D01*
G75*
G3*
X254793425Y143489290I-1730J-38060D01*
G74*
G1*
X254746185Y143485835D01*
G75*
G3*
X254742400Y143485365I2780J-38000D01*
G74*
G1*
X254696310Y143477300D01*
X254694780Y143476995D01*
X254692560Y143476450D01*
X254655685Y143466080D01*
G75*
G3*
X254650850Y143464360I10315J-36680D01*
G74*
G1*
X254616285Y143449380D01*
G75*
G3*
X254612345Y143447390I15150J-34960D01*
G74*
G1*
X254568885Y143422230D01*
X254568545Y143422030D01*
G75*
G3*
X254563950Y143418905I19100J-32960D01*
G74*
G1*
X254524775Y143387795D01*
G75*
G3*
X254520810Y143384160I23695J-29835D01*
G74*
G1*
X254479330Y143340375D01*
G75*
G3*
X254476335Y143336800I27660J-26200D01*
G74*
G1*
X254440615Y143288405D01*
G75*
G3*
X254437820Y143284025I30655J-22625D01*
G74*
G1*
X254410165Y143233325D01*
G75*
G3*
X254408515Y143229900I33450J-18245D01*
G74*
G1*
X254386620Y143178045D01*
X254385520Y143175100D01*
X254361325Y143101355D01*
G75*
G3*
X254360375Y143097925I36200J-11875D01*
G74*
G1*
X254343090Y143021875D01*
X254342745Y143020155D01*
X254342585Y143019255D01*
X254327605Y142922465D01*
X254327330Y142920230D01*
X254308895Y142725500D01*
G75*
G3*
X254372015Y142693325I37930J-3590D01*
G74*
G1*
X254438475Y142751895D01*
X254474460Y142777300D01*
X254511975Y142798735D01*
X254559625Y142821480D01*
X254608595Y142838890D01*
X254669190Y142856515D01*
X254731590Y142868560D01*
X254803710Y142876325D01*
X254876075Y142879675D01*
X254956050Y142877450D01*
X255035900Y142868575D01*
X255109935Y142854210D01*
X255183055Y142833165D01*
X255265020Y142803260D01*
X255342095Y142764720D01*
X255407895Y142723050D01*
X255469295Y142674805D01*
X255527295Y142617900D01*
X255577585Y142555575D01*
X255624875Y142481905D01*
X255663475Y142403605D01*
X255693155Y142325550D01*
X255714155Y142243760D01*
X255730880Y142147855D01*
X255738665Y142052280D01*
X255737545Y141950605D01*
X255728605Y141850055D01*
X255711950Y141756785D01*
X255686425Y141665790D01*
X255652070Y141577125D01*
X255608905Y141491900D01*
X255561560Y141419230D01*
X255506420Y141350855D01*
X255441500Y141285935D01*
X255368990Y141228810D01*
X255287400Y141179195D01*
X255201040Y141138230D01*
X255113815Y141107315D01*
X255025505Y141086340D01*
X254913600Y141071795D01*
X254801585Y141065070D01*
X254687455Y141069555D01*
X254574785Y141082935D01*
X254487740Y141103875D01*
X254401440Y141133745D01*
X254337855Y141163345D01*
X254276535Y141198390D01*
X254219455Y141240100D01*
X254163050Y141287650D01*
X254110125Y141341685D01*
X254062780Y141398935D01*
X254003870Y141485635D01*
X253955055Y141577710D01*
X253904620Y141702130D01*
X253866380Y141830355D01*
X253837015Y141963605D01*
X253817815Y142099150D01*
X253805310Y142269625D01*
X253803035Y142440195D01*
X254316790Y141993680D02*
X254316795Y141992950D01*
X254317945Y141933030D01*
G75*
G3*
X254318195Y141929390I38095J730D01*
G74*
G1*
X254325110Y141869475D01*
X254325425Y141867280D01*
X254333490Y141821190D01*
G75*
G3*
X254334285Y141817655I37530J6565D01*
G74*
G1*
X254346960Y141771560D01*
G75*
G3*
X254348260Y141767670I36735J10100D01*
G74*
G1*
X254365545Y141723885D01*
X254366205Y141722315D01*
X254385795Y141678530D01*
G75*
G3*
X254388085Y141674185I34775J15560D01*
G74*
G1*
X254409975Y141638465D01*
G75*
G3*
X254412110Y141635345I32485J19905D01*
G74*
G1*
X254437460Y141601930D01*
X254438120Y141601095D01*
X254439855Y141599065D01*
X254468665Y141567955D01*
G75*
G3*
X254471740Y141564990I27955J25890D01*
G74*
G1*
X254505155Y141536180D01*
G75*
G3*
X254508185Y141533820I24880J28855D01*
G74*
G1*
X254542750Y141509625D01*
G75*
G3*
X254545920Y141507630I21850J31215D01*
G74*
G1*
X254582795Y141486890D01*
G75*
G3*
X254586465Y141485080I18680J33210D01*
G74*
G1*
X254626795Y141467795D01*
G75*
G3*
X254631860Y141466035I15010J35020D01*
G74*
G1*
X254674490Y141454510D01*
X254677470Y141453835D01*
X254727020Y141444620D01*
G75*
G3*
X254730455Y141444140I6965J37455D01*
G74*
G1*
X254780000Y141439530D01*
G75*
G3*
X254784415Y141439375I3530J37935D01*
G74*
G1*
X254833965Y141440525D01*
G75*
G3*
X254837485Y141440770I-885J38090D01*
G74*
G1*
X254887030Y141446535D01*
G75*
G3*
X254891110Y141447240I-4405J37845D01*
G74*
G1*
X254931440Y141456455D01*
G75*
G3*
X254935635Y141457670I-8485J37140D01*
G74*
G1*
X254974815Y141471500D01*
G75*
G3*
X254979170Y141473350I-12680J35925D01*
G74*
G1*
X255018345Y141492935D01*
G75*
G3*
X255022680Y141495465I-17035J34075D01*
G74*
G1*
X255058400Y141519665D01*
G75*
G3*
X255061515Y141522020I-21370J31545D01*
G74*
G1*
X255097235Y141551980D01*
G75*
G3*
X255101070Y141555685I-24485J29190D01*
G74*
G1*
X255132180Y141590250D01*
X255134095Y141592550D01*
X255160600Y141627120D01*
G75*
G3*
X255163625Y141631720I-30235J23185D01*
G74*
G1*
X255185515Y141670895D01*
G75*
G3*
X255187030Y141673920I-33260J18585D01*
G74*
G1*
X255206620Y141717705D01*
G75*
G3*
X255207900Y141720955I-34775J15560D01*
G74*
G1*
X255224030Y141768200D01*
G75*
G3*
X255225100Y141771945I-36055J12310D01*
G74*
G1*
X255235470Y141816885D01*
X255235875Y141818885D01*
X255243940Y141864975D01*
G75*
G3*
X255244395Y141868560I-37530J6565D01*
G74*
G1*
X255249005Y141927325D01*
X255249115Y141929555D01*
X255250270Y141988320D01*
X255250250Y141990455D01*
X255247945Y142053830D01*
X255247735Y142056655D01*
X255240820Y142118875D01*
X255240680Y142119960D01*
X255240130Y142123030D01*
X255229760Y142169120D01*
X255229000Y142171955D01*
X255215175Y142216895D01*
G75*
G3*
X255213535Y142221255I-36415J-11200D01*
G74*
G1*
X255193945Y142265040D01*
G75*
G3*
X255192080Y142268675I-34775J-15560D01*
G74*
G1*
X255167855Y142310195D01*
G75*
G3*
X255165570Y142313665I-32885J-19230D01*
G74*
G1*
X255139070Y142349385D01*
G75*
G3*
X255136835Y142352120I-30600J-22700D01*
G74*
G1*
X255106875Y142385535D01*
G75*
G3*
X255102800Y142389450I-28365J-25435D01*
G74*
G1*
X255069385Y142417105D01*
G75*
G3*
X255066460Y142419300I-24290J-29350D01*
G74*
G1*
X255030740Y142443495D01*
G75*
G3*
X255026415Y142446025I-21365J-31545D01*
G74*
G1*
X254987240Y142465615D01*
G75*
G3*
X254983140Y142467375I-17040J-34075D01*
G74*
G1*
X254941655Y142482355D01*
G75*
G3*
X254936855Y142483740I-12940J-35835D01*
G74*
G1*
X254863110Y142499870D01*
G75*
G3*
X254856345Y142500725I-8140J-37220D01*
G74*
G1*
X254760710Y142504180D01*
G75*
G3*
X254756620Y142504105I-1375J-38075D01*
G74*
G1*
X254708225Y142500650D01*
G75*
G3*
X254704530Y142500205I2715J-38000D01*
G74*
G1*
X254657285Y142492140D01*
X254654755Y142491620D01*
X254621340Y142483555D01*
G75*
G3*
X254617855Y142482540I8940J-37035D01*
G74*
G1*
X254584440Y142471015D01*
G75*
G3*
X254579825Y142469075I12425J-36020D01*
G74*
G1*
X254542955Y142450640D01*
G75*
G3*
X254538860Y142448265I17040J-34080D01*
G74*
G1*
X254504290Y142425220D01*
G75*
G3*
X254499940Y142421835I21135J-31705D01*
G74*
G1*
X254465370Y142390725D01*
G75*
G3*
X254462970Y142388365I25485J-28320D01*
G74*
G1*
X254431860Y142354945D01*
G75*
G3*
X254429020Y142351515I27885J-25960D01*
G74*
G1*
X254403670Y142316950D01*
X254401910Y142314325D01*
X254380020Y142278605D01*
G75*
G3*
X254378030Y142274925I32485J-19905D01*
G74*
G1*
X254359590Y142235745D01*
X254358690Y142233670D01*
X254342560Y142193345D01*
G75*
G3*
X254340690Y142187215I35375J-14150D01*
G74*
G1*
X254324560Y142112315D01*
G75*
G3*
X254323780Y142106670I37245J-8020D01*
G74*
G1*
X254316865Y141996055D01*
X254316790Y141993680D01*
X256268465Y142190005D02*
X257276805Y143777305D01*
X257909135D01*
Y142154995D01*
G75*
G3*
X257947235Y142116895I38100J0D01*
G74*
G1*
X258231770D01*
Y141751780D01*
X257947235D01*
G75*
G3*
X257909135Y141713680I0J-38100D01*
G74*
G1*
Y141149145D01*
X257441465D01*
Y141713680D01*
G75*
G3*
X257403365Y141751780I-38100J0D01*
G74*
G1*
X256268465D01*
Y142190005D01*
X256622055Y142141170D02*
G75*
G3*
X256660155Y142103070I38100J0D01*
G74*
G1*
X257417195D01*
G75*
G3*
X257455295Y142141170I0J38100D01*
G74*
G1*
Y143333760D01*
G75*
G3*
X257385030Y143354180I-38100J0D01*
G74*
G1*
X256627990Y142161590D01*
G75*
G3*
X256622055Y142141170I32165J-20420D01*
G74*
D13*
G1*
X225138885Y125208415D02*
X225266345Y125214650D01*
G75*
G3*
X225271400Y125215045I-4345J88795D01*
G74*
G1*
X225379715Y125226565D01*
G75*
G3*
X225386550Y125227560I-9400J88400D01*
G74*
G1*
X225467205Y125242540D01*
G75*
G3*
X225476055Y125244660I-16235J87405D01*
G74*
G1*
X225554410Y125267705D01*
G75*
G3*
X225564570Y125271375I-25085J85285D01*
G74*
G1*
X225615270Y125293270D01*
G75*
G3*
X225625765Y125298655I-35245J81615D01*
G74*
G1*
X225671855Y125326310D01*
G75*
G3*
X225682500Y125333810I-45740J76230D01*
G74*
G1*
X225727440Y125370680D01*
G75*
G3*
X225737310Y125380135I-56385J68730D01*
G74*
G1*
X225776485Y125423925D01*
G75*
G3*
X225784440Y125434250I-66255J59275D01*
G74*
G1*
X225820160Y125488405D01*
G75*
G3*
X225826390Y125499500I-74210J48950D01*
G74*
G1*
X225854045Y125558265D01*
G75*
G3*
X225857785Y125567530I-80440J37855D01*
G74*
G1*
X225878525Y125628600D01*
G75*
G3*
X225881545Y125639905I-84180J28590D01*
G74*
G1*
X225892700Y125696190D01*
X226176720D01*
Y123088970D01*
X225806045D01*
Y124905915D01*
G75*
G3*
X225717145Y124994815I-88900J0D01*
G74*
G1*
X225138885D01*
Y125208415D01*
X253853850Y142439475D02*
X253860580Y142606505D01*
X253876195Y142771605D01*
X253898305Y142907585D01*
X253929065Y143040505D01*
X253971725Y143173960D01*
X254025075Y143301345D01*
X254074790Y143394430D01*
X254134460Y143480270D01*
X254202615Y143556810D01*
X254277580Y143624490D01*
X254357460Y143679475D01*
X254443065Y143725405D01*
X254521090Y143756205D01*
X254602385Y143778095D01*
X254705490Y143796355D01*
X254810675Y143806015D01*
X254917350D01*
X255024655Y143795285D01*
X255109855Y143779700D01*
X255190455Y143753865D01*
X255261320Y143724085D01*
X255326295Y143686520D01*
X255384710Y143644500D01*
X255438220Y143597045D01*
X255473205Y143557065D01*
X255507120Y143513900D01*
X255534770Y143470455D01*
X255557870Y143425215D01*
X255587525Y143342390D01*
X255603320Y143271715D01*
X255212125D01*
X255203510Y143298635D01*
G75*
G3*
X255198010Y143311970I-84670J-27095D01*
G74*
G1*
X255170355Y143366125D01*
G75*
G3*
X255158085Y143384235I-79170J-40430D01*
G74*
G1*
X255117755Y143430325D01*
G75*
G3*
X255103145Y143443680I-66900J-58540D01*
G74*
G1*
X255052445Y143480555D01*
G75*
G3*
X255033930Y143490895I-52290J-71895D01*
G74*
G1*
X254969405Y143517395D01*
G75*
G3*
X254953065Y143522335I-33775J-82235D01*
G74*
G1*
X254889690Y143535010D01*
G75*
G3*
X254876290Y143536640I-17435J-87175D01*
G74*
G1*
X254800240Y143540095D01*
G75*
G3*
X254789720Y143539955I-4035J-88805D01*
G74*
G1*
X254742480Y143536500D01*
G75*
G3*
X254733640Y143535405I6485J-88665D01*
G74*
G1*
X254687550Y143527340D01*
G75*
G3*
X254678810Y143525350I15325J-87570D01*
G74*
G1*
X254641935Y143514980D01*
G75*
G3*
X254630650Y143510970I24065J-85580D01*
G74*
G1*
X254596085Y143495990D01*
G75*
G3*
X254586895Y143491355I35350J-81570D01*
G74*
G1*
X254543105Y143466005D01*
G75*
G3*
X254537230Y143462285I44540J-76935D01*
G74*
G75*
G3*
X254532360Y143458690I50330J-73275D01*
G74*
G1*
X254493185Y143427580D01*
G75*
G3*
X254483935Y143419100I55285J-69620D01*
G74*
G1*
X254442455Y143375315D01*
G75*
G3*
X254435465Y143366970I64535J-61140D01*
G74*
G1*
X254399745Y143318575D01*
G75*
G3*
X254393225Y143308350I71525J-52795D01*
G74*
G1*
X254365570Y143257650D01*
G75*
G3*
X254361720Y143249660I78045J-42570D01*
G74*
G1*
X254361480Y143249100D01*
X254361370Y143248835D01*
X254339825Y143197805D01*
G75*
G3*
X254337255Y143190940I81895J-34580D01*
G74*
G1*
X254313060Y143117195D01*
X254312445Y143115230D01*
G75*
G3*
X254310835Y143109185I85045J-25885D01*
G74*
G1*
X254293550Y143033135D01*
G75*
G3*
X254292385Y143027025I86690J-19705D01*
G74*
G1*
X254277405Y142930235D01*
G75*
G3*
X254276755Y142925020I87855J-13595D01*
G74*
G1*
X254258320Y142730290D01*
G75*
G3*
X254405605Y142655215I88505J-8380D01*
G74*
G1*
X254470025Y142711985D01*
X254501765Y142734395D01*
X254535530Y142753685D01*
X254579140Y142774505D01*
X254624165Y142790510D01*
X254681145Y142807085D01*
X254739175Y142818285D01*
X254807575Y142825650D01*
X254876465Y142828840D01*
X254952580Y142826725D01*
X255028250Y142818315D01*
X255098030Y142804775D01*
X255167305Y142784835D01*
X255244910Y142756520D01*
X255317055Y142720445D01*
X255378560Y142681495D01*
X255435680Y142636615D01*
X255489620Y142583690D01*
X255536345Y142525785D01*
X255580560Y142456900D01*
X255616835Y142383310D01*
X255644660Y142310140D01*
X255664460Y142233040D01*
X255680440Y142141395D01*
X255687845Y142050495D01*
X255686770Y141953160D01*
X255678205Y141856795D01*
X255662380Y141768155D01*
X255638170Y141681860D01*
X255605600Y141597810D01*
X255564840Y141517325D01*
X255520380Y141449090D01*
X255468585Y141384860D01*
X255407705Y141323980D01*
X255339980Y141270625D01*
X255263235Y141223960D01*
X255181615Y141185240D01*
X255099425Y141156110D01*
X255016385Y141136390D01*
X254908760Y141122395D01*
X254801030Y141115930D01*
X254691455Y141120235D01*
X254583750Y141133030D01*
X254502025Y141152685D01*
X254420515Y141180900D01*
X254361220Y141208500D01*
X254304200Y141241085D01*
X254250805Y141280105D01*
X254197670Y141324900D01*
X254147915Y141375700D01*
X254103445Y141429475D01*
X254047475Y141511845D01*
X254001155Y141599215D01*
X253952615Y141718955D01*
X253915580Y141843135D01*
X253887035Y141972680D01*
X253868345Y142104595D01*
X253856085Y142271765D01*
X253853850Y142439475D01*
X254265990Y141993680D02*
X254266005Y141991975D01*
X254267155Y141932055D01*
G75*
G3*
X254267730Y141923570I88885J1705D01*
G74*
G1*
X254274645Y141863655D01*
X254274865Y141861920D01*
G75*
G3*
X254275385Y141858520I88120J11735D01*
G74*
G1*
X254283450Y141812430D01*
G75*
G3*
X254285300Y141804185I87570J15325D01*
G74*
G1*
X254297975Y141758090D01*
G75*
G3*
X254301010Y141749020I85700J23635D01*
G74*
G1*
X254318295Y141705235D01*
X254318845Y141703855D01*
X254319835Y141701570D01*
X254339425Y141657785D01*
G75*
G3*
X254344775Y141647640I81145J36305D01*
G74*
G1*
X254366665Y141611920D01*
G75*
G3*
X254371640Y141604640I75795J46450D01*
G74*
G1*
X254396990Y141571225D01*
G75*
G3*
X254402580Y141564550I70870J53670D01*
G74*
G1*
X254431390Y141533440D01*
G75*
G3*
X254438570Y141526515I65230J60405D01*
G74*
G1*
X254471985Y141497705D01*
X254473705Y141496265D01*
G75*
G3*
X254479055Y141492200I56420J68700D01*
G74*
G1*
X254513620Y141468005D01*
G75*
G3*
X254517950Y141465165I50980J72835D01*
G74*
G75*
G3*
X254521015Y141463350I46820J75575D01*
G74*
G1*
X254557890Y141442610D01*
G75*
G3*
X254566455Y141438390I43520J77525D01*
G74*
G1*
X254606785Y141421105D01*
G75*
G3*
X254618605Y141416995I35020J81710D01*
G74*
G1*
X254661235Y141405470D01*
G75*
G3*
X254668180Y141403890I23200J85820D01*
G74*
G1*
X254717730Y141394675D01*
G75*
G3*
X254725750Y141393560I16255J87400D01*
G74*
G1*
X254775295Y141388950D01*
G75*
G3*
X254785595Y141388590I8235J88515D01*
G74*
G1*
X254835145Y141389740D01*
G75*
G3*
X254843355Y141390310I-2065J88875D01*
G74*
G1*
X254892900Y141396075D01*
G75*
G3*
X254902425Y141397715I-10275J88305D01*
G74*
G1*
X254942755Y141406930D01*
G75*
G3*
X254952545Y141409765I-19800J86665D01*
G74*
G1*
X254991725Y141423595D01*
G75*
G3*
X255001885Y141427910I-29590J83830D01*
G74*
G1*
X255041060Y141447495D01*
G75*
G3*
X255051175Y141453410I-39750J79515D01*
G74*
G1*
X255086895Y141477610D01*
G75*
G3*
X255094160Y141483095I-49865J73600D01*
G74*
G1*
X255129880Y141513055D01*
G75*
G3*
X255138825Y141521700I-57130J68115D01*
G74*
G1*
X255169935Y141556265D01*
X255170680Y141557110D01*
G75*
G3*
X255174415Y141561640I-66685J58790D01*
G74*
G1*
X255200920Y141596210D01*
G75*
G3*
X255207975Y141606940I-70555J54095D01*
G74*
G1*
X255229865Y141646115D01*
G75*
G3*
X255233400Y141653175I-77645J43295D01*
G74*
G1*
X255252990Y141696960D01*
G75*
G3*
X255255975Y141704545I-81145J36305D01*
G74*
G1*
X255272105Y141751790D01*
X255272710Y141753640D01*
G75*
G3*
X255274600Y141760520I-84710J26970D01*
G74*
G1*
X255284970Y141805460D01*
G75*
G3*
X255285915Y141810125I-86625J19990D01*
G74*
G1*
X255293980Y141856215D01*
G75*
G3*
X255295040Y141864585I-87570J15325D01*
G74*
G1*
X255299650Y141923350D01*
G75*
G3*
X255299905Y141928560I-88630J6955D01*
G74*
G1*
X255301060Y141987325D01*
G75*
G3*
X255301020Y141992300I-88885J1745D01*
G74*
G1*
X255298715Y142055675D01*
G75*
G3*
X255298225Y142062265I-88845J-3230D01*
G74*
G1*
X255291310Y142124485D01*
G75*
G3*
X255290800Y142128285I-88355J-9820D01*
G74*
G75*
G3*
X255289690Y142134180I-87870J-13495D01*
G74*
G1*
X255279320Y142180270D01*
G75*
G3*
X255277550Y142186895I-86710J-19615D01*
G74*
G1*
X255263725Y142231835D01*
G75*
G3*
X255259905Y142242000I-84965J-26140D01*
G74*
G1*
X255240315Y142285785D01*
G75*
G3*
X255235955Y142294270I-81145J-36305D01*
G74*
G1*
X255211755Y142335755D01*
G75*
G3*
X255209315Y142339695I-76785J-44790D01*
G74*
G75*
G3*
X255206370Y142343935I-74455J-48570D01*
G74*
G1*
X255179870Y142379655D01*
G75*
G3*
X255174660Y142386030I-71400J-52970D01*
G74*
G1*
X255144700Y142419445D01*
G75*
G3*
X255135190Y142428585I-66190J-59345D01*
G74*
G1*
X255101775Y142456240D01*
G75*
G3*
X255094950Y142461355I-56680J-68485D01*
G74*
G1*
X255059230Y142485550D01*
G75*
G3*
X255051950Y142489985I-49855J-73600D01*
G74*
G1*
X255049135Y142491465D01*
X255009960Y142511055D01*
G75*
G3*
X255000395Y142515160I-39760J-79515D01*
G74*
G1*
X254958910Y142530140D01*
G75*
G3*
X254947710Y142533365I-30195J-83620D01*
G74*
G1*
X254873965Y142549495D01*
G75*
G3*
X254858180Y142551495I-18995J-86845D01*
G74*
G1*
X254762545Y142554950D01*
G75*
G3*
X254753005Y142554775I-3140J-88845D01*
G74*
G1*
X254704610Y142551320D01*
G75*
G3*
X254695980Y142550280I6330J-88670D01*
G74*
G1*
X254648735Y142542215D01*
G75*
G3*
X254642835Y142541000I14960J-87630D01*
G74*
G1*
X254609420Y142532935D01*
G75*
G3*
X254602945Y142531105I20860J-86415D01*
G74*
G1*
X254601290Y142530565D01*
X254567875Y142519040D01*
G75*
G3*
X254557105Y142514515I28990J-84045D01*
G74*
G1*
X254520235Y142496080D01*
G75*
G3*
X254510680Y142490535I39760J-79520D01*
G74*
G1*
X254476110Y142467490D01*
G75*
G3*
X254465955Y142459600I49315J-73975D01*
G74*
G1*
X254431385Y142428490D01*
G75*
G3*
X254425785Y142422975I59470J-66085D01*
G74*
G1*
X254394675Y142389555D01*
G75*
G3*
X254388060Y142381560I65070J-60570D01*
G74*
G1*
X254362710Y142346995D01*
G75*
G3*
X254358600Y142340870I71685J-52575D01*
G74*
G1*
X254336710Y142305150D01*
G75*
G3*
X254332790Y142298035I75795J-46450D01*
G74*
G1*
X254332065Y142296560D01*
X254313625Y142257380D01*
G75*
G3*
X254311520Y142252540I80440J-37860D01*
G74*
G1*
X254295390Y142212215D01*
G75*
G3*
X254291025Y142197910I82545J-33020D01*
G74*
G1*
X254274895Y142123010D01*
G75*
G3*
X254273075Y142109840I86910J-18715D01*
G74*
G1*
X254266160Y141999225D01*
G75*
G3*
X254265990Y141993680I88730J-5545D01*
G74*
G1*
X256319265Y142175230D02*
X257304720Y143726505D01*
X257858335D01*
Y142154995D01*
G75*
G3*
X257947235Y142066095I88900J0D01*
G74*
G1*
X258180970D01*
Y141802580D01*
X257947235D01*
G75*
G3*
X257858335Y141713680I0J-88900D01*
G74*
G1*
Y141199945D01*
X257492265D01*
Y141713680D01*
G75*
G3*
X257403365Y141802580I-88900J0D01*
G74*
G1*
X256319265D01*
Y142175230D01*
X256571255Y142141170D02*
G75*
G3*
X256660155Y142052270I88900J0D01*
G74*
G1*
X257417195D01*
G75*
G3*
X257506095Y142141170I0J88900D01*
G74*
G1*
Y143333760D01*
G75*
G3*
X257342140Y143381405I-88900J0D01*
G74*
G1*
X256585100Y142188815D01*
G75*
G3*
X256571255Y142141170I75055J-47645D01*
G74*
D14*
G1*
X225240485Y125111665D02*
X225271305Y125113175D01*
X225273845Y125113320D01*
G75*
G3*
X225282145Y125114010I-11630J190145D01*
G74*
G1*
X225390460Y125125530D01*
G75*
G3*
X225405100Y125127670I-20145J189435D01*
G74*
G1*
X225485755Y125142650D01*
G75*
G3*
X225504720Y125147190I-34785J187295D01*
G74*
G1*
X225583075Y125170235D01*
G75*
G3*
X225586815Y125171380I-53750J182755D01*
G74*
G75*
G3*
X225604850Y125178100I-57410J181640D01*
G74*
G1*
X225655550Y125199995D01*
G75*
G3*
X225678040Y125211535I-75525J174890D01*
G74*
G1*
X225724130Y125239190D01*
G75*
G3*
X225746945Y125255265I-98015J163350D01*
G74*
G1*
X225791885Y125292135D01*
G75*
G3*
X225813035Y125312395I-120830J147275D01*
G74*
G1*
X225852210Y125356185D01*
G75*
G3*
X225869250Y125378310I-141980J127015D01*
G74*
G1*
X225904970Y125432465D01*
G75*
G3*
X225918325Y125456235I-158980J104960D01*
G74*
G1*
X225945980Y125515000D01*
G75*
G3*
X225953990Y125534860I-172375J81120D01*
G74*
G1*
X225974270Y125594590D01*
X226075120D01*
Y123190570D01*
X225907645D01*
Y124905915D01*
G75*
G3*
X225717145Y125096415I-190500J0D01*
G74*
G1*
X225240485D01*
Y125111665D01*
X225809375Y125179170D02*
X225810150Y125179810D01*
X225853610Y125215465D01*
X225854315Y125216040D01*
G75*
G3*
X225886390Y125246770I-183260J223370D01*
G74*
G1*
X225925565Y125290560D01*
G75*
G3*
X225943345Y125312510I-215335J192640D01*
G74*
G1*
X225948875Y125320455D01*
G75*
G3*
X225951410Y125324115I-79625J57855D01*
G74*
G1*
X225976695Y125362445D01*
Y125032840D01*
G75*
G3*
X225842505Y125166225I-259550J-126925D01*
G74*
G1*
X225809375Y125179170D01*
X225907800Y123363610D02*
X226074885D01*
X225907800Y123560460D02*
X226074885D01*
X225907800Y123757310D02*
X226074885D01*
X225907800Y123954160D02*
X226074885D01*
X225907800Y124151010D02*
X226074885D01*
X225907800Y124347860D02*
X226074885D01*
X225907800Y124544710D02*
X226074885D01*
X225907800Y124741560D02*
X226074885D01*
X225904030Y124938410D02*
X226074885D01*
X225447820Y125135260D02*
X226074885D01*
X225831205Y125332110D02*
X226074885D01*
X225952250Y125528960D02*
X226074885D01*
X253955480Y142438240D02*
X253961980Y142599590D01*
X253977030Y142758725D01*
X253998035Y142887900D01*
X254027125Y143013610D01*
X254067120Y143138710D01*
X254116955Y143257705D01*
X254161615Y143341330D01*
X254214410Y143417280D01*
X254274785Y143485085D01*
X254340715Y143544605D01*
X254410455Y143592610D01*
X254485865Y143633075D01*
X254553060Y143659595D01*
X254624465Y143678820D01*
X254719085Y143695580D01*
X254815280Y143704415D01*
X254912290D01*
X255010440Y143694600D01*
X255085115Y143680940D01*
X255155175Y143658485D01*
X255216065Y143632895D01*
X255271020Y143601120D01*
X255321170Y143565050D01*
X255366015Y143525280D01*
X255394930Y143492230D01*
X255424095Y143455115D01*
X255446525Y143419870D01*
X255464405Y143384860D01*
X255468535Y143373315D01*
X255280755D01*
X255260835Y143412330D01*
G75*
G3*
X255256165Y143420945I-169755J-86445D01*
G74*
G75*
G3*
X255234545Y143451140I-164980J-95250D01*
G74*
G1*
X255194215Y143497230D01*
G75*
G3*
X255162910Y143525850I-143395J-125415D01*
G74*
G1*
X255112210Y143562725D01*
G75*
G3*
X255072525Y143584875I-112025J-154080D01*
G74*
G1*
X255008000Y143611375D01*
G75*
G3*
X254972990Y143621960I-72370J-176215D01*
G74*
G1*
X254909615Y143634635D01*
G75*
G3*
X254880900Y143638135I-37360J-186800D01*
G74*
G1*
X254804850Y143641590D01*
G75*
G3*
X254782310Y143641285I-8645J-190300D01*
G74*
G1*
X254735070Y143637830D01*
G75*
G3*
X254716130Y143635485I13895J-189995D01*
G74*
G1*
X254670040Y143627420D01*
G75*
G3*
X254651300Y143623160I32835J-187650D01*
G74*
G1*
X254614425Y143612790D01*
G75*
G3*
X254590245Y143604200I51575J-183390D01*
G74*
G1*
X254555680Y143589220D01*
G75*
G3*
X254536185Y143579400I75815J-174770D01*
G74*
G1*
X254535995Y143579280D01*
X254493755Y143554825D01*
X254492395Y143554050D01*
X254492205Y143553930D01*
X254492090Y143553860D01*
G75*
G3*
X254469175Y143538250I95505J-164825D01*
G74*
G1*
X254430000Y143507140D01*
G75*
G3*
X254413765Y143492665I118470J-149180D01*
G74*
G75*
G3*
X254410180Y143488970I134915J-134485D01*
G74*
G1*
X254368700Y143445185D01*
G75*
G3*
X254365700Y143441940I138290J-131010D01*
G74*
G75*
G3*
X254353720Y143427305I141235J-127835D01*
G74*
G1*
X254318000Y143378910D01*
G75*
G3*
X254304025Y143357005I153240J-113175D01*
G74*
G1*
X254276370Y143306305D01*
X254274990Y143303720D01*
G75*
G3*
X254268125Y143289180I168675J-88530D01*
G74*
G1*
X254246230Y143237325D01*
G75*
G3*
X254240720Y143222610I175490J-74100D01*
G74*
G1*
X254216525Y143148865D01*
G75*
G3*
X254213515Y143138785I180960J-59525D01*
G74*
G75*
G3*
X254211765Y143131700I184010J-49305D01*
G74*
G1*
X254194480Y143055650D01*
X254193925Y143053115D01*
G75*
G3*
X254191975Y143042565I186280J-39885D01*
G74*
G1*
X254176995Y142945775D01*
G75*
G3*
X254175605Y142934595I188265J-29135D01*
G74*
G1*
X254157170Y142739865D01*
G75*
G3*
X254403775Y142540120I189655J-17955D01*
G74*
G75*
G3*
X254397990Y142535125I121650J-146605D01*
G74*
G1*
X254363420Y142504015D01*
G75*
G3*
X254351420Y142492200I127525J-141520D01*
G74*
G1*
X254320310Y142458780D01*
G75*
G3*
X254306130Y142441645I139435J-129795D01*
G74*
G1*
X254280780Y142407080D01*
G75*
G3*
X254271975Y142393955I153615J-112660D01*
G74*
G1*
X254250085Y142358235D01*
G75*
G3*
X254247525Y142353950I162240J-99835D01*
G74*
G75*
G3*
X254240130Y142339825I164930J-95345D01*
G74*
G1*
X254221690Y142300645D01*
G75*
G3*
X254217185Y142290270I172375J-81125D01*
G74*
G1*
X254201055Y142249945D01*
G75*
G3*
X254191700Y142219300I176880J-70750D01*
G74*
G1*
X254175570Y142144400D01*
G75*
G3*
X254171675Y142116180I186235J-40105D01*
G74*
G1*
X254164760Y142005565D01*
G75*
G3*
X254164420Y141990025I190130J-11885D01*
G74*
G1*
X254165570Y141930105D01*
X254165625Y141927930D01*
G75*
G3*
X254166805Y141911920I190405J5985D01*
G74*
G1*
X254173720Y141852005D01*
G75*
G3*
X254174535Y141845860I189235J21840D01*
G74*
G75*
G3*
X254175305Y141841010I188505J27440D01*
G74*
G1*
X254183370Y141794920D01*
G75*
G3*
X254187335Y141777245I187650J32835D01*
G74*
G1*
X254200010Y141731150D01*
G75*
G3*
X254206510Y141711710I183655J50600D01*
G74*
G1*
X254223795Y141667925D01*
G75*
G3*
X254227100Y141660080I177185J69950D01*
G74*
G1*
X254246690Y141616295D01*
G75*
G3*
X254255590Y141598840I173935J77690D01*
G74*
G75*
G3*
X254258150Y141594555I164800J95550D01*
G74*
G1*
X254280040Y141558835D01*
G75*
G3*
X254290700Y141543240I162420J99535D01*
G74*
G1*
X254316050Y141509825D01*
G75*
G3*
X254325055Y141498835I151760J115130D01*
G74*
G75*
G3*
X254328035Y141495515I143245J125575D01*
G74*
G1*
X254356845Y141464405D01*
G75*
G3*
X254372225Y141449565I139775J129440D01*
G74*
G1*
X254405640Y141420755D01*
G75*
G3*
X254412420Y141415185I124395J144280D01*
G74*
G75*
G3*
X254420790Y141408965I117770J149735D01*
G74*
G1*
X254455355Y141384770D01*
G75*
G3*
X254471205Y141374790I109310J156030D01*
G74*
G1*
X254508080Y141354050D01*
X254509510Y141353255D01*
G75*
G3*
X254526435Y141345010I91790J166930D01*
G74*
G1*
X254566765Y141327725D01*
G75*
G3*
X254592090Y141318915I75100J175070D01*
G74*
G1*
X254634720Y141307390D01*
G75*
G3*
X254649605Y141304005I49715J183900D01*
G74*
G1*
X254699155Y141294790D01*
G75*
G3*
X254716335Y141292400I34830J187285D01*
G74*
G1*
X254765880Y141287790D01*
G75*
G3*
X254783530Y141286965I17650J189675D01*
G74*
G75*
G3*
X254787950Y141287025I-375J190495D01*
G74*
G1*
X254837500Y141288175D01*
X254839815Y141288245D01*
G75*
G3*
X254855095Y141289395I-6645J190375D01*
G74*
G1*
X254904640Y141295160D01*
G75*
G3*
X254925060Y141298670I-22015J189220D01*
G74*
G1*
X254965390Y141307885D01*
G75*
G3*
X254986365Y141313960I-42435J185710D01*
G74*
G1*
X255025545Y141327790D01*
G75*
G3*
X255047315Y141337040I-63465J179610D01*
G74*
G1*
X255086490Y141356625D01*
G75*
G3*
X255096560Y141362030I-85015J170475D01*
G74*
G75*
G3*
X255108160Y141369295I-95250J164980D01*
G74*
G1*
X255143880Y141393495D01*
G75*
G3*
X255159455Y141405250I-106850J157715D01*
G74*
G1*
X255195175Y141435210D01*
G75*
G3*
X255207455Y141446465I-122425J145960D01*
G74*
G75*
G3*
X255214340Y141453735I-134825J134580D01*
G74*
G1*
X255245450Y141488300D01*
G75*
G3*
X255248200Y141491425I-141590J127435D01*
G74*
G75*
G3*
X255255045Y141499820I-144160J124530D01*
G74*
G1*
X255281550Y141534390D01*
G75*
G3*
X255296670Y141557380I-151185J115915D01*
G74*
G1*
X255318560Y141596555D01*
X255319255Y141597810D01*
G75*
G3*
X255326135Y141611685I-167085J91495D01*
G74*
G1*
X255345725Y141655470D01*
G75*
G3*
X255352120Y141671715I-173880J77795D01*
G74*
G1*
X255368250Y141718960D01*
G75*
G3*
X255371985Y141731205I-180240J61670D01*
G74*
G75*
G3*
X255373600Y141737675I-184010J49305D01*
G74*
G1*
X255383970Y141782615D01*
G75*
G3*
X255385995Y141792615I-185625J42835D01*
G74*
G1*
X255394060Y141838705D01*
G75*
G3*
X255396330Y141856640I-187650J32835D01*
G74*
G1*
X255400940Y141915405D01*
G75*
G3*
X255401490Y141926560I-189920J14900D01*
G74*
G1*
X255402645Y141985325D01*
G75*
G3*
X255402555Y141995995I-190470J3745D01*
G74*
G1*
X255400250Y142059370D01*
X255400125Y142062185D01*
G75*
G3*
X255399200Y142073485I-190245J-9885D01*
G74*
G1*
X255392285Y142135705D01*
G75*
G3*
X255389985Y142150820I-189330J-21040D01*
G74*
G75*
G3*
X255388820Y142156485I-187160J-35535D01*
G74*
G1*
X255378450Y142202575D01*
G75*
G3*
X255376595Y142210060I-185800J-42075D01*
G74*
G75*
G3*
X255374660Y142216765I-184010J-49305D01*
G74*
G1*
X255360835Y142261705D01*
G75*
G3*
X255352640Y142283490I-182075J-56010D01*
G74*
G1*
X255333050Y142327275D01*
G75*
G3*
X255324150Y142344730I-173935J-77690D01*
G74*
G1*
X255323710Y142345465D01*
X255300555Y142385160D01*
X255299950Y142386215D01*
X255299510Y142386950D01*
X255299275Y142387345D01*
G75*
G3*
X255287970Y142404475I-164415J-96210D01*
G74*
G1*
X255261470Y142440195D01*
G75*
G3*
X255253975Y142449650I-153000J-113510D01*
G74*
G75*
G3*
X255250305Y142453855I-145345J-123150D01*
G74*
G1*
X255220345Y142487270D01*
G75*
G3*
X255199970Y142506855I-141835J-127170D01*
G74*
G1*
X255166555Y142534510D01*
G75*
G3*
X255151925Y142545470I-121395J-146800D01*
G74*
G1*
X255116205Y142569665D01*
G75*
G3*
X255104625Y142576930I-106965J-157630D01*
G74*
G75*
G3*
X255094580Y142582335I-95250J-164980D01*
G74*
G1*
X255055405Y142601925D01*
G75*
G3*
X255047090Y142605830I-85205J-170385D01*
G74*
G75*
G3*
X255034900Y142610725I-77040J-174230D01*
G74*
G1*
X254993415Y142625705D01*
G75*
G3*
X254969420Y142632615I-64600J-179215D01*
G74*
G1*
X254895675Y142648745D01*
G75*
G3*
X254876865Y142651880I-40705J-186095D01*
G74*
G75*
G3*
X254861850Y142653030I-22045J-189220D01*
G74*
G1*
X254766215Y142656485D01*
G75*
G3*
X254745770Y142656115I-6780J-190380D01*
G74*
G1*
X254697375Y142652660D01*
G75*
G3*
X254678885Y142650425I13565J-190010D01*
G74*
G1*
X254631640Y142642360D01*
G75*
G3*
X254619000Y142639765I32055J-187775D01*
G74*
G1*
X254585585Y142631700D01*
G75*
G3*
X254580975Y142630530I44695J-185180D01*
G74*
G75*
G3*
X254568165Y142626620I49175J-184050D01*
G74*
G1*
X254534750Y142615095D01*
G75*
G3*
X254511665Y142605390I62115J-180100D01*
G74*
G1*
X254491000Y142595055D01*
X254533080Y142632140D01*
X254556345Y142648565D01*
X254582685Y142663615D01*
X254618180Y142680555D01*
X254655260Y142693740D01*
X254704990Y142708205D01*
X254754350Y142717735D01*
X254815370Y142724305D01*
X254877390Y142727175D01*
X254945520Y142725280D01*
X255012950Y142717785D01*
X255074335Y142705875D01*
X255135785Y142688190D01*
X255204610Y142663075D01*
X255267065Y142631850D01*
X255319845Y142598425D01*
X255368505Y142560190D01*
X255414225Y142515330D01*
X255453860Y142466210D01*
X255491955Y142406860D01*
X255523580Y142342715D01*
X255547675Y142279345D01*
X255565050Y142211685D01*
X255579555Y142128510D01*
X255586195Y142046935D01*
X255585220Y141958195D01*
X255577400Y141870275D01*
X255563225Y141790865D01*
X255541655Y141713980D01*
X255512680Y141639205D01*
X255476685Y141568130D01*
X255438120Y141508935D01*
X255392910Y141452875D01*
X255340090Y141400055D01*
X255281945Y141354245D01*
X255214915Y141313490D01*
X255142785Y141279270D01*
X255070615Y141253690D01*
X254998040Y141236455D01*
X254899215Y141223610D01*
X254799985Y141217655D01*
X254699345Y141221605D01*
X254601750Y141233200D01*
X254530615Y141250310D01*
X254458675Y141275210D01*
X254407875Y141298855D01*
X254359530Y141326485D01*
X254313630Y141360025D01*
X254266835Y141399480D01*
X254223525Y141443695D01*
X254184775Y141490550D01*
X254134630Y141564355D01*
X254093355Y141642205D01*
X254048610Y141752580D01*
X254013995Y141868660D01*
X253987100Y141990715D01*
X253969425Y142115475D01*
X253957640Y142276135D01*
X253955480Y142438240D01*
X254053930Y142436895D02*
X254060215Y142592925D01*
X254065990Y142654000D01*
G75*
G3*
X254205005Y142470185I280835J67910D01*
G74*
G1*
X254201970Y142466050D01*
X254201410Y142465290D01*
G75*
G3*
X254188055Y142445385I233040J-170790D01*
G74*
G1*
X254187770Y142444915D01*
X254166165Y142409660D01*
X254165940Y142409295D01*
G75*
G3*
X254162375Y142403320I246385J-150895D01*
G74*
G1*
X254162315Y142403210D01*
G75*
G3*
X254151685Y142383015I250140J-144605D01*
G74*
G1*
X254151070Y142381740D01*
X254132630Y142342560D01*
X254132055Y142341315D01*
G75*
G3*
X254126030Y142327400I262010J-121795D01*
G74*
G1*
X254125795Y142326825D01*
X254109665Y142286500D01*
X254109365Y142285740D01*
G75*
G3*
X254095480Y142240020I268570J-106545D01*
G74*
G1*
X254079350Y142165120D01*
G75*
G3*
X254073440Y142122320I282455J-60825D01*
G74*
G1*
X254071730Y142095025D01*
X254067335Y142126055D01*
X254056015Y142280395D01*
X254053930Y142436895D01*
X254276890Y141390840D02*
X254445960D01*
X255140490Y141390840D02*
X255328810D01*
X254122110Y141587690D02*
X254262010D01*
X255313925Y141587690D02*
X255486565D01*
X254039165Y141784540D02*
X254185215D01*
X255384770Y141784540D02*
X255561375D01*
X253989355Y141981390D02*
X254164375D01*
X255402825Y141981390D02*
X255585190D01*
X253964950Y142178240D02*
X254182830D01*
X255383975Y142178240D02*
X255570705D01*
X253956415Y142375090D02*
X254260420D01*
X255306385Y142375090D02*
X255507205D01*
X253960980Y142571940D02*
X254230260D01*
X255112510Y142571940D02*
X255352820D01*
X253978840Y142768790D02*
X254159815D01*
X254016345Y142965640D02*
X254180055D01*
X254077460Y143162490D02*
X254220930D01*
X254174500Y143359340D02*
X254305465D01*
X254358250Y143556190D02*
X254496365D01*
X255120650Y143556190D02*
X255330395D01*
X256420865Y142145685D02*
X257360545Y143624905D01*
X257756735D01*
Y142154995D01*
G75*
G3*
X257947235Y141964495I190500J0D01*
G74*
G1*
X258079370D01*
Y141904180D01*
X257947235D01*
G75*
G3*
X257756735Y141713680I0J-190500D01*
G74*
G1*
Y141301545D01*
X257593865D01*
Y141713680D01*
G75*
G3*
X257403365Y141904180I-190500J0D01*
G74*
G1*
X256420865D01*
Y142145685D01*
X256469655Y142141170D02*
G75*
G3*
X256660155Y141950670I190500J0D01*
G74*
G1*
X257417195D01*
G75*
G3*
X257607695Y142141170I0J190500D01*
G74*
G1*
Y143333760D01*
G75*
G3*
X257256365Y143435855I-190500J0D01*
G74*
G1*
X256499325Y142243265D01*
G75*
G3*
X256469655Y142141170I160830J-102095D01*
G74*
G1*
X257604450Y141921145D02*
G75*
G3*
X257685210Y142033260I-187255J220025D01*
G74*
G75*
G3*
X257760720Y141934340I262025J121735D01*
G74*
G75*
G3*
X257675300Y141811290I186515J-220660D01*
G74*
G75*
G3*
X257604450Y141921145I-271935J-97610D01*
G74*
G1*
X257632455Y143526480D02*
X257658310D01*
Y143492950D01*
G75*
G3*
X257632455Y143526480I-241115J-159190D01*
G74*
G1*
X257594055Y141474585D02*
X257756575D01*
X257594055Y141671435D02*
X257756575D01*
X257512895Y141868285D02*
X257837740D01*
X256421095Y142065135D02*
X256485785D01*
X257591675Y142065135D02*
X257779595D01*
X256494910Y142261985D02*
X256511185D01*
X257607950Y142261985D02*
X257756575D01*
X256619925Y142458835D02*
X256636200D01*
X257607950Y142458835D02*
X257756575D01*
X256745140Y142655685D02*
X256761015D01*
X257607950Y142655685D02*
X257756575D01*
X256870155Y142852535D02*
X256886030D01*
X257607950Y142852535D02*
X257756575D01*
X256995175Y143049385D02*
X257011050D01*
X257607950Y143049385D02*
X257756575D01*
X257120190Y143246235D02*
X257135865D01*
X257607950Y143246235D02*
X257756575D01*
X257245205Y143443085D02*
X257262070D01*
X257572425Y143443085D02*
X257756575D01*
D15*
X240500000Y84090000D03*
Y94590000D03*
Y105090000D03*
Y115590000D03*
X225500000Y84090000D03*
Y94590000D03*
Y105090000D03*
Y115590000D03*
D16*
X233000005Y116839995D03*
D17*
X228350005Y82839995D03*
D18*
X240500000Y84090000D03*
Y94590000D03*
Y105090000D03*
Y115590000D03*
X225500000Y84090000D03*
Y94590000D03*
Y105090000D03*
Y115590000D03*
D19*
X233000005Y116839995D03*
D20*
X228350005Y82839995D03*
G04 #@! TO.N,931*
D21*
X225099950Y134590000D03*
G04 #@! TO.N,932*
X254699950D03*
G04 #@! TO.N,0*
%LPC*%
D22*
X240500000Y84090000D03*
Y94590000D03*
Y105090000D03*
Y115590000D03*
X225500000Y84090000D03*
Y94590000D03*
Y105090000D03*
Y115590000D03*
D23*
X233000005Y116839995D03*
D24*
X228350005Y82839995D03*
%LPD*%
M02*