G04 #@! TF.FileFunction,Copper,L3,Inr*
G04 #@! TF.FilePolarity,Positive*
G04 #@! TF.SameCoordinates,1cDX9PD3q2MVNQUlwPAFNq2hZJss5yh*
G04 #@! TF.CreationDate,2025-09-04T08:30:56+0200*
G04 #@! TF.GenerationSoftware,Ucamco,UcamX,v2023.12-240208*
%FSLAX36Y36*%
%MOMM*%
%ADD10C,0.100000*%
%AMBOXR*
$16=$1/2*
$17=$2/2*
$8=$16-$3*
$9=$17-$3*
$10=$8X$6*
$11=$8X$5*
$12=$9X$6*
$13=$9X$5*
$15=2X$3*
$18=0-$10*
$19=0-$11*
21,1-$7,$1,$2-$15,0,0,$4*
21,1-$7,$1-$15,$2,0,0,$4*
1,1-$7,$15,$10-$13,$11+$12*
1,1-$7,$15,$18-$13,$12-$11*
1,1-$7,$15,$10+$13,$11-$12*
1,1-$7,$15,$13-$10,$19-$12*%
%ADD11BOXR,0.700000X0.520000X0.250000X0.00X0X1X0*%
%ADD12C,0.200000*%
%ADD13C,0.500000*%
%ADD14C,0.650000*%
G04 layer name: DFS3498AM4_L3*
%LPD*%
D10*
X229850000Y112989995D02*
X229450000Y113389995D01*
X224418180D01*
X222811015Y114997160D01*
Y142390050D01*
X223311015Y142890050D01*
X228998650D01*
X229498650Y142390050D01*
Y141290100D01*
X230850000Y113989995D02*
X230450000Y114389995D01*
X227950000D01*
X227700000Y114639995D01*
Y122115370D01*
X223411015Y126404355D01*
Y141790050D01*
X223911015Y142290050D01*
X226598650D01*
X227098650Y141790050D01*
Y140490100D01*
X232850000Y111989995D02*
X232250000Y112589995D01*
X224760225D01*
X222611015Y114739205D01*
Y142590050D01*
X223111015Y143090050D01*
X229798650D01*
X230298650Y142590050D01*
Y140490100D01*
X228850000Y113989995D02*
X227750000D01*
X227500000Y114239995D01*
Y121836610D01*
X223211015Y126125595D01*
Y141990050D01*
X223711015Y142490050D01*
X227398650D01*
X227898650Y141990050D01*
Y141290100D01*
X230850000Y111989995D02*
X230450000Y112389995D01*
X224200010D01*
X222411015Y114178990D01*
Y142790050D01*
X222911015Y143290050D01*
X230598650D01*
X231098650Y142790050D01*
Y141290100D01*
X231850000Y110989995D02*
X231250000Y111589995D01*
X223874900D01*
X222011015Y113453880D01*
Y143190050D01*
X222511015Y143690050D01*
X232198650D01*
X232698650Y143190050D01*
Y141290100D01*
X229850000Y110989995D02*
X229450000Y111389995D01*
X223512345D01*
X221811015Y113091325D01*
Y143390050D01*
X222311015Y143890050D01*
X232998650D01*
X233498650Y143390050D01*
Y140490100D01*
X232850000Y109989995D02*
X232250000Y110589995D01*
X223749790D01*
X221611015Y112728770D01*
Y143590050D01*
X222111015Y144090050D01*
X233798650D01*
X234298650Y143590050D01*
Y141290100D01*
X230850000Y109989995D02*
X230450000Y110389995D01*
X223387235D01*
X221411015Y112366215D01*
Y143790050D01*
X221911015Y144290050D01*
X234598650D01*
X235098650Y143790050D01*
Y140490100D01*
X231850000Y108989995D02*
X231250000Y109589995D01*
X223062125D01*
X221011015Y111641105D01*
Y144190050D01*
X221511015Y144690050D01*
X236198650D01*
X236698650Y144190050D01*
Y140490100D01*
X229850000Y108989995D02*
X229450000Y109389995D01*
X222699570D01*
X220811015Y111278550D01*
Y144390050D01*
X221311015Y144890050D01*
X236998650D01*
X237498650Y144390050D01*
Y141290100D01*
X232850000Y107989995D02*
X232250000Y108589995D01*
X222937015D01*
X220611015Y110915995D01*
Y144590050D01*
X221111015Y145090050D01*
X237798650D01*
X238298650Y144590050D01*
Y140490100D01*
X230850000Y107989995D02*
X230450000Y108389995D01*
X222574460D01*
X220411015Y110553440D01*
Y144790050D01*
X220911015Y145290050D01*
X238598650D01*
X239098650Y144790050D01*
Y141290100D01*
X258800000Y110039995D02*
X258350000Y109589995D01*
X234450000D01*
X233850000Y108989995D01*
X258600000Y110839995D02*
X258150000Y110389995D01*
X237250000D01*
X236850000Y109989995D01*
X258400000Y111039995D02*
X257950000Y110589995D01*
X235450000D01*
X234850000Y109989995D01*
X258200000Y111439995D02*
X257750000Y110989995D01*
X237850000D01*
X257400000Y113039995D02*
X256950000Y112589995D01*
X235450000D01*
X234850000Y111989995D01*
X258000000Y111839995D02*
X257550000Y111389995D01*
X236250000D01*
X235850000Y110989995D01*
X257000000Y119190000D02*
X256300000Y118490000D01*
X239300000D01*
X238550000Y113389995D02*
X236250000D01*
X235850000Y112989995D01*
X256200000Y119990000D02*
X255500000Y119290000D01*
X238500000D01*
X237750000Y114789995D02*
X233650000D01*
X232850000Y113989995D01*
X257200000Y118990000D02*
X256500000Y118290000D01*
X239500000D01*
X238750000Y112989995D02*
X237850000D01*
X259000000Y109839995D02*
X258550000Y109389995D01*
X236250000D01*
X235850000Y108989995D01*
X257800000Y112039995D02*
X257350000Y111589995D01*
X234450000D01*
X233850000Y110989995D01*
X257600000Y112839995D02*
X257150000Y112389995D01*
X237250000D01*
X236850000Y111989995D01*
X256400000Y119790000D02*
X255700000Y119090000D01*
X238700000D01*
X237950000Y114589995D02*
X235450000D01*
X234850000Y113989995D01*
X256600000Y119590000D02*
X255900000Y118890000D01*
X238900000D01*
X238150000Y114389995D02*
X237250000D01*
X236850000Y113989995D01*
X256800000Y119390000D02*
X256100000Y118690000D01*
X239100000D01*
X238350000Y113589995D02*
X234450000D01*
X233850000Y112989995D01*
X259200000Y109439995D02*
X258750000Y108989995D01*
X237850000D01*
X228698650Y140490100D02*
Y142190050D01*
X228198650Y142690050D01*
X223511015D01*
X223011015Y142190050D01*
Y115219875D01*
X224640895Y113589995D01*
X231250000D01*
X231850000Y112989995D01*
X228850000Y111989995D02*
X224037455D01*
X222211015Y113816435D01*
Y142990050D01*
X222711015Y143490050D01*
X231398650D01*
X231898650Y142990050D01*
Y140490100D01*
X228850000Y109989995D02*
X223224680D01*
X221211015Y112003660D01*
Y143990050D01*
X221711015Y144490050D01*
X235398650D01*
X235898650Y143990050D01*
Y141290100D01*
X227098950Y128190100D02*
Y129490105D01*
X228698950Y128190100D02*
Y129490105D01*
X230298950Y128190100D02*
Y129490105D01*
X231898950Y128190100D02*
Y129490105D01*
X233498650Y128190100D02*
Y129490105D01*
X235098650Y128190100D02*
Y129490105D01*
X236698650Y128190100D02*
Y129490105D01*
X238298650Y128190100D02*
Y129490105D01*
X238298650Y131190055D02*
X238798650Y131690055D01*
X249125330D01*
X254899350Y137464075D01*
X238298350Y129490105D02*
Y131190055D01*
X235098350Y129490105D02*
Y131990055D01*
X233498350Y129490105D02*
Y132390055D01*
X236698350Y129490105D02*
Y131590055D01*
X225913450Y149048560D02*
X227098335Y147863675D01*
X226313450Y149214245D02*
X226864020Y148663675D01*
X226981175Y148263675D02*
X226113450Y149131400D01*
X227215490Y147463675D02*
X225713450Y148965715D01*
X227332650Y147063675D02*
X225513450Y148882875D01*
X227449805Y146663675D02*
X225313450Y148800030D01*
X227566965Y146263675D02*
X225113450Y148717190D01*
X227684120Y145863675D02*
X224913450Y148634345D01*
X253499350Y138043980D02*
X249945425Y134490055D01*
X227598650D01*
X227098650Y133990055D01*
Y129490105D01*
X253699350Y137961135D02*
X249828270Y134090055D01*
X229198650D01*
X228698650Y133590055D01*
Y129490105D01*
X253899350Y137878295D02*
X249711110Y133690055D01*
X230798650D01*
X230298650Y133190055D01*
Y129490105D01*
X254099350Y137795450D02*
X249593955Y133290055D01*
X232398650D01*
X231898650Y132790055D01*
Y129490105D01*
X254299350Y137712605D02*
X249476800Y132890055D01*
X233998650D01*
X233498650Y132390055D01*
X254499350Y137629765D02*
X249359640Y132490055D01*
X235598650D01*
X235098650Y131990055D01*
X254699350Y137546920D02*
X249242485Y132090055D01*
X237198650D01*
X236698650Y131590055D01*
X242298650Y161690205D02*
Y165790155D01*
X242798650Y166290155D01*
X258300000D01*
X258800000Y165790155D01*
Y110039995D01*
X243098650Y161690205D02*
Y165590155D01*
X243598650Y166090155D01*
X258100000D01*
X258600000Y165590155D01*
Y110839995D01*
X243898650Y161690205D02*
Y165390155D01*
X244398650Y165890155D01*
X257900000D01*
X258400000Y165390155D01*
Y111039995D01*
X244698950Y161690205D02*
Y161190200D01*
X244698650Y161690205D02*
Y165190155D01*
X245198650Y165690155D01*
X257700000D01*
X258200000Y165190155D01*
Y111439995D01*
X247898650Y161690205D02*
Y164390155D01*
X248398650Y164890155D01*
X256900000D01*
X257400000Y164390155D01*
Y113039995D01*
X247898950Y161690205D02*
Y161190200D01*
X245498650Y161690205D02*
Y164990155D01*
X245998650Y165490155D01*
X257500000D01*
X258000000Y164990155D01*
Y111839995D01*
X249498950Y161690205D02*
Y161190200D01*
X249498650Y161690205D02*
Y163990155D01*
X249998650Y164490155D01*
X256500000D01*
X257000000Y163990155D01*
Y119190000D01*
X252698950Y161690205D02*
Y161190200D01*
X252698650Y161690205D02*
Y163190155D01*
X253198650Y163690155D01*
X255700000D01*
X256200000Y163190155D01*
Y119990000D01*
X248698950Y161690205D02*
Y160390200D01*
X248698650Y161690205D02*
Y164190155D01*
X249198650Y164690155D01*
X256700000D01*
X257200000Y164190155D01*
Y118990000D01*
X241498650Y161690205D02*
Y165990155D01*
X241998650Y166490155D01*
X258500000D01*
X259000000Y165990155D01*
Y109839995D01*
X241498950Y161690205D02*
Y161190200D01*
X246298950Y161690205D02*
Y161190200D01*
X246298650Y161690205D02*
Y164790155D01*
X246798650Y165290155D01*
X257300000D01*
X257800000Y164790155D01*
Y112039995D01*
X247098650Y161690205D02*
Y164590155D01*
X247598650Y165090155D01*
X257100000D01*
X257600000Y164590155D01*
Y112839995D01*
X247098950Y161690205D02*
Y160390200D01*
X251898650Y161690205D02*
Y163390155D01*
X252398650Y163890155D01*
X255900000D01*
X256400000Y163390155D01*
Y119790000D01*
X251898950Y161690205D02*
Y160390200D01*
X251098650Y161690205D02*
Y163590155D01*
X251598650Y164090155D01*
X256100000D01*
X256600000Y163590155D01*
Y119590000D01*
X251098950Y161690205D02*
Y161190200D01*
X250298650Y161690205D02*
Y163790155D01*
X250798650Y164290155D01*
X256300000D01*
X256800000Y163790155D01*
Y119390000D01*
X250298950Y161690205D02*
Y160390200D01*
X240698650Y161690205D02*
Y166190155D01*
X241198650Y166690155D01*
X258700000D01*
X259200000Y166190155D01*
Y109439995D01*
X240698950Y160390200D02*
Y161690205D01*
X242298950Y160390200D02*
Y161690205D01*
X243098950Y161190200D02*
Y161690205D01*
X243898950Y160390200D02*
Y161690205D01*
X245498950Y160390200D02*
Y161690205D01*
X245998650Y151745645D02*
X245498650Y152245645D01*
Y152390200D01*
X244698350Y159890195D02*
Y161190200D01*
X246298350Y159890195D02*
Y161190200D01*
X241498350Y159890195D02*
Y161190200D01*
X243098350Y159890195D02*
Y161190200D01*
X252698350Y161190200D02*
Y159890195D01*
X251098350Y161190200D02*
Y159890195D01*
X249498350Y161190200D02*
Y159890195D01*
X247898350Y161190200D02*
Y159890195D01*
X249498650Y159890195D02*
Y157490250D01*
X248998650Y156990250D01*
X227698695D01*
X225913450Y155205005D01*
Y149048560D01*
X252698650Y159890195D02*
Y156690250D01*
X252198650Y156190250D01*
X227464380D01*
X226313450Y155039320D01*
Y149214245D01*
X226113450Y149131400D02*
Y155122165D01*
X227581535Y156590250D01*
X250598650D01*
X251098650Y157090250D01*
Y159890195D01*
X225713450Y148965715D02*
Y155287850D01*
X227815850Y157390250D01*
X247398650D01*
X247898650Y157890250D01*
Y159890195D01*
X225513450Y148882875D02*
Y155370690D01*
X227933010Y157790250D01*
X245798650D01*
X246298650Y158290250D01*
Y159890195D01*
X225313450Y148800030D02*
Y155453535D01*
X228050165Y158190250D01*
X244198650D01*
X244698650Y158690250D01*
Y159890195D01*
X225113450Y148717190D02*
Y155536375D01*
X228167325Y158590250D01*
X242598650D01*
X243098650Y159090250D01*
Y159890195D01*
X224913450Y148634345D02*
Y155619220D01*
X228284480Y158990250D01*
X240998650D01*
X241498650Y159490250D01*
Y159890195D01*
X233498650Y152390200D02*
Y149445645D01*
X233998650Y148945645D01*
X235098650Y152390200D02*
Y149845645D01*
X235598650Y149345645D01*
X236698650Y152390200D02*
Y150310510D01*
X237198650Y149810510D01*
X238298650Y152390200D02*
Y150645645D01*
X238798650Y150145645D01*
X240698650Y152390200D02*
Y151045645D01*
X241198650Y150545645D01*
X242298650Y152390200D02*
Y151445645D01*
X242798650Y150945645D01*
X243898650Y152390200D02*
Y151845645D01*
X244398650Y151345645D01*
X241498650Y143700930D02*
X239335905Y145863675D01*
X241498650Y141290100D02*
Y143700930D01*
X239335905Y145863675D02*
X227684120D01*
X243098650Y143281215D02*
X240116190Y146263675D01*
X243098650Y141290100D02*
Y143281215D01*
X240116190Y146263675D02*
X227566965D01*
X244698650Y142438380D02*
X240473355Y146663675D01*
X244698650Y141290100D02*
Y142438380D01*
X240473355Y146663675D02*
X227449805D01*
X246298650Y141573275D02*
X240808250Y147063675D01*
X246298650Y141290100D02*
Y141573275D01*
X240808250Y147063675D02*
X227332650D01*
X247898650Y141290100D02*
X241725075Y147463675D01*
X227215490D01*
X242925070Y147863675D02*
X249498650Y141290095D01*
X227098335Y147863675D02*
X242925070D01*
X249498650Y141290095D02*
Y141290100D01*
X251098650Y141290105D02*
X244125080Y148263675D01*
X251098650Y141290100D02*
Y141290105D01*
X244125080Y148263675D02*
X226981175D01*
X245325075Y148663675D02*
X252698650Y141290100D01*
X226864020Y148663675D02*
X245325075D01*
X254899350Y144833310D02*
X247987015Y151745645D01*
X254899350Y137464075D02*
Y144833310D01*
X247987015Y151745645D02*
X245998650D01*
X246587015Y148945645D02*
X253499350Y142033310D01*
X233998650Y148945645D02*
X246587015D01*
X253499350Y142033310D02*
Y138043980D01*
X246787015Y149345645D02*
X253699350Y142433310D01*
X235598650Y149345645D02*
X246787015D01*
X253699350Y142433310D02*
Y137961135D01*
X246922150Y149810510D02*
X253899350Y142833310D01*
X237198650Y149810510D02*
X246922150D01*
X253899350Y142833310D02*
Y137878295D01*
X247187015Y150145645D02*
X254099350Y143233310D01*
X238798650Y150145645D02*
X247187015D01*
X254099350Y143233310D02*
Y137795450D01*
X247387015Y150545645D02*
X254299350Y143633310D01*
X241198650Y150545645D02*
X247387015D01*
X254299350Y143633310D02*
Y137712605D01*
X247587015Y150945645D02*
X254499350Y144033310D01*
X242798650Y150945645D02*
X247587015D01*
X254499350Y144033310D02*
Y137629765D01*
X247787015Y151345645D02*
X254699350Y144433310D01*
X244398650Y151345645D02*
X247787015D01*
X254699350Y144433310D02*
Y137546920D01*
X238712675Y117902675D02*
Y113552670D01*
X239300000Y118490000D02*
X238712675Y117902675D01*
X238712675Y113552670D02*
X238550000Y113389995D01*
X237912675Y118702675D02*
Y114952670D01*
X238500000Y119290000D02*
X237912675Y118702675D01*
X237912675Y114952670D02*
X237750000Y114789995D01*
X238912675Y117702675D02*
Y113152670D01*
X239500000Y118290000D02*
X238912675Y117702675D01*
X238912675Y113152670D02*
X238750000Y112989995D01*
X238112675Y118502675D02*
Y114752670D01*
X238700000Y119090000D02*
X238112675Y118502675D01*
X238112675Y114752670D02*
X237950000Y114589995D01*
X238312675Y118302675D02*
Y114552670D01*
X238900000Y118890000D02*
X238312675Y118302675D01*
X238312675Y114552670D02*
X238150000Y114389995D01*
X238512675Y118102675D02*
Y113752670D01*
X239100000Y118690000D02*
X238512675Y118102675D01*
X238512675Y113752670D02*
X238350000Y113589995D01*
G04 #@! TO.N,1*
D11*
X237850000Y84989995D03*
G04 #@! TO.N,2*
X236850000D03*
G04 #@! TO.N,3*
X235850000D03*
G04 #@! TO.N,4*
X234850000D03*
G04 #@! TO.N,5*
X233850000D03*
G04 #@! TO.N,6*
X232850000D03*
G04 #@! TO.N,7*
X231850000D03*
G04 #@! TO.N,8*
X230850000D03*
G04 #@! TO.N,9*
X229850000D03*
G04 #@! TO.N,10*
X228850000D03*
G04 #@! TO.N,11*
X237850000Y85989995D03*
G04 #@! TO.N,12*
X236850000D03*
G04 #@! TO.N,13*
X235850000D03*
G04 #@! TO.N,14*
X234850000D03*
G04 #@! TO.N,15*
X233850000D03*
G04 #@! TO.N,16*
X232850000D03*
G04 #@! TO.N,17*
X231850000D03*
G04 #@! TO.N,18*
X230850000D03*
G04 #@! TO.N,11*
X229850000D03*
G04 #@! TO.N,19*
X228850000D03*
G04 #@! TO.N,20*
X237850000Y86989995D03*
G04 #@! TO.N,8*
X236850000D03*
G04 #@! TO.N,21*
X235850000D03*
G04 #@! TO.N,22*
X234850000D03*
G04 #@! TO.N,23*
X233850000D03*
G04 #@! TO.N,4*
X232850000D03*
G04 #@! TO.N,24*
X231850000D03*
G04 #@! TO.N,25*
X230850000D03*
G04 #@! TO.N,26*
X229850000D03*
G04 #@! TO.N,15*
X228850000D03*
G04 #@! TO.N,27*
X237850000Y87989995D03*
G04 #@! TO.N,28*
X236850000D03*
G04 #@! TO.N,29*
X235850000D03*
G04 #@! TO.N,30*
X234850000D03*
G04 #@! TO.N,31*
X233850000D03*
G04 #@! TO.N,21*
X232850000D03*
G04 #@! TO.N,32*
X231850000D03*
G04 #@! TO.N,33*
X230850000D03*
G04 #@! TO.N,34*
X229850000D03*
G04 #@! TO.N,30*
X228850000D03*
G04 #@! TO.N,18*
X237850000Y88989995D03*
G04 #@! TO.N,35*
X236850000D03*
G04 #@! TO.N,36*
X235850000D03*
G04 #@! TO.N,37*
X234850000D03*
G04 #@! TO.N,26*
X233850000D03*
G04 #@! TO.N,35*
X232850000D03*
G04 #@! TO.N,12*
X231850000D03*
G04 #@! TO.N,38*
X230850000D03*
G04 #@! TO.N,39*
X229850000D03*
G04 #@! TO.N,40*
X228850000D03*
G04 #@! TO.N,41*
X237850000Y89989995D03*
G04 #@! TO.N,7*
X236850000D03*
G04 #@! TO.N,40*
X235850000D03*
G04 #@! TO.N,42*
X234850000D03*
G04 #@! TO.N,43*
X233850000D03*
G04 #@! TO.N,44*
X232850000D03*
G04 #@! TO.N,27*
X231850000D03*
G04 #@! TO.N,1*
X230850000D03*
G04 #@! TO.N,45*
X229850000D03*
G04 #@! TO.N,46*
X228850000D03*
G04 #@! TO.N,44*
X237850000Y90989995D03*
G04 #@! TO.N,47*
X236850000D03*
G04 #@! TO.N,48*
X235850000D03*
G04 #@! TO.N,34*
X234850000D03*
G04 #@! TO.N,49*
X233850000D03*
G04 #@! TO.N,50*
X232850000D03*
G04 #@! TO.N,49*
X231850000D03*
G04 #@! TO.N,31*
X230850000D03*
G04 #@! TO.N,5*
X229850000D03*
G04 #@! TO.N,51*
X228850000D03*
G04 #@! TO.N,17*
X237850000Y91989995D03*
G04 #@! TO.N,46*
X236850000D03*
G04 #@! TO.N,52*
X235850000D03*
G04 #@! TO.N,53*
X234850000D03*
G04 #@! TO.N,25*
X233850000D03*
G04 #@! TO.N,54*
X232850000D03*
G04 #@! TO.N,55*
X231850000D03*
G04 #@! TO.N,42*
X230850000D03*
G04 #@! TO.N,22*
X229850000D03*
G04 #@! TO.N,56*
X228850000D03*
G04 #@! TO.N,57*
X237850000Y92989995D03*
G04 #@! TO.N,6*
X236850000D03*
G04 #@! TO.N,39*
X235850000D03*
G04 #@! TO.N,55*
X234850000D03*
G04 #@! TO.N,58*
X233850000D03*
G04 #@! TO.N,2*
X232850000D03*
G04 #@! TO.N,59*
X231850000D03*
G04 #@! TO.N,52*
X230850000D03*
G04 #@! TO.N,36*
X229850000D03*
G04 #@! TO.N,13*
X228850000D03*
G04 #@! TO.N,60*
X237850000Y93989995D03*
X236850000D03*
X235850000D03*
X234850000D03*
X233850000D03*
X232850000D03*
X231850000D03*
X230850000D03*
X229850000D03*
X228850000D03*
X237850000Y94989995D03*
X236850000D03*
X235850000D03*
X234850000D03*
X233850000D03*
X232850000D03*
X231850000D03*
X230850000D03*
X229850000D03*
X228850000D03*
G04 #@! TO.N,61*
X237850000Y95989995D03*
G04 #@! TO.N,62*
X236850000D03*
G04 #@! TO.N,33*
X235850000D03*
G04 #@! TO.N,50*
X234850000D03*
G04 #@! TO.N,60*
X233850000D03*
G04 #@! TO.N,20*
X232850000D03*
G04 #@! TO.N,10*
X231850000D03*
G04 #@! TO.N,61*
X230850000D03*
G04 #@! TO.N,47*
X229850000D03*
G04 #@! TO.N,28*
X228850000D03*
G04 #@! TO.N,59*
X237850000Y96989995D03*
G04 #@! TO.N,63*
X236850000D03*
G04 #@! TO.N,24*
X235850000D03*
G04 #@! TO.N,51*
X234850000D03*
G04 #@! TO.N,60*
X233850000D03*
G04 #@! TO.N,43*
X232850000D03*
G04 #@! TO.N,23*
X231850000D03*
G04 #@! TO.N,64*
X230850000D03*
G04 #@! TO.N,57*
X229850000D03*
G04 #@! TO.N,41*
X228850000D03*
G04 #@! TO.N,38*
X237850000Y97989995D03*
G04 #@! TO.N,54*
X236850000D03*
G04 #@! TO.N,65*
X235850000D03*
G04 #@! TO.N,16*
X234850000D03*
G04 #@! TO.N,45*
X233850000D03*
G04 #@! TO.N,53*
X232850000D03*
G04 #@! TO.N,37*
X231850000D03*
G04 #@! TO.N,14*
X230850000D03*
G04 #@! TO.N,65*
X229850000D03*
G04 #@! TO.N,58*
X228850000D03*
G04 #@! TO.N,9*
X237850000Y98989995D03*
G04 #@! TO.N,32*
X236850000D03*
G04 #@! TO.N,56*
X235850000D03*
G04 #@! TO.N,64*
X234850000D03*
G04 #@! TO.N,19*
X233850000D03*
G04 #@! TO.N,62*
X232850000D03*
G04 #@! TO.N,48*
X231850000D03*
G04 #@! TO.N,29*
X230850000D03*
G04 #@! TO.N,3*
X229850000D03*
G04 #@! TO.N,63*
X228850000D03*
G04 #@! TO.N,31*
X237850000Y99989995D03*
G04 #@! TO.N,48*
X236850000D03*
G04 #@! TO.N,51*
X235850000D03*
G04 #@! TO.N,3*
X234850000D03*
G04 #@! TO.N,27*
X233850000D03*
G04 #@! TO.N,19*
X232850000D03*
G04 #@! TO.N,40*
X231850000D03*
G04 #@! TO.N,56*
X230850000D03*
G04 #@! TO.N,41*
X229850000D03*
G04 #@! TO.N,9*
X228850000D03*
G04 #@! TO.N,53*
X237850000Y100989995D03*
G04 #@! TO.N,45*
X236850000D03*
G04 #@! TO.N,14*
X235850000D03*
G04 #@! TO.N,35*
X234850000D03*
G04 #@! TO.N,58*
X233850000D03*
G04 #@! TO.N,37*
X232850000D03*
G04 #@! TO.N,16*
X231850000D03*
G04 #@! TO.N,35*
X230850000D03*
G04 #@! TO.N,54*
X229850000D03*
G04 #@! TO.N,43*
X228850000D03*
G04 #@! TO.N,38*
X237850000Y101989995D03*
G04 #@! TO.N,23*
X236850000D03*
G04 #@! TO.N,40*
X235850000D03*
G04 #@! TO.N,57*
X234850000D03*
G04 #@! TO.N,60*
X233850000D03*
G04 #@! TO.N,61*
X232850000D03*
G04 #@! TO.N,29*
X231850000D03*
G04 #@! TO.N,24*
X230850000D03*
G04 #@! TO.N,27*
X229850000D03*
G04 #@! TO.N,59*
X228850000D03*
G04 #@! TO.N,32*
X237850000Y102989995D03*
G04 #@! TO.N,20*
X236850000D03*
G04 #@! TO.N,34*
X235850000D03*
G04 #@! TO.N,61*
X234850000D03*
G04 #@! TO.N,60*
X233850000D03*
G04 #@! TO.N,22*
X232850000D03*
G04 #@! TO.N,57*
X231850000D03*
G04 #@! TO.N,8*
X230850000D03*
G04 #@! TO.N,33*
X229850000D03*
G04 #@! TO.N,31*
X228850000D03*
G04 #@! TO.N,60*
X237850000Y103989995D03*
X236850000D03*
X235850000D03*
X234850000D03*
X233850000D03*
X232850000D03*
X231850000D03*
X230850000D03*
X229850000D03*
X228850000D03*
X237850000Y104989995D03*
X236850000D03*
X235850000D03*
X234850000D03*
X233850000D03*
X232850000D03*
X231850000D03*
X230850000D03*
X229850000D03*
X228850000D03*
G04 #@! TO.N,4*
X237850000Y105989995D03*
G04 #@! TO.N,28*
X236850000D03*
G04 #@! TO.N,25*
X235850000D03*
G04 #@! TO.N,59*
X234850000D03*
G04 #@! TO.N,15*
X233850000D03*
G04 #@! TO.N,46*
X232850000D03*
G04 #@! TO.N,13*
X231850000D03*
G04 #@! TO.N,58*
X230850000D03*
G04 #@! TO.N,11*
X229850000D03*
G04 #@! TO.N,39*
X228850000D03*
G04 #@! TO.N,36*
X237850000Y106989995D03*
G04 #@! TO.N,17*
X236850000D03*
G04 #@! TO.N,54*
X235850000D03*
G04 #@! TO.N,11*
X234850000D03*
G04 #@! TO.N,42*
X233850000D03*
G04 #@! TO.N,4*
X232850000D03*
G04 #@! TO.N,44*
X231850000D03*
G04 #@! TO.N,2*
X230850000D03*
G04 #@! TO.N,53*
X229850000D03*
G04 #@! TO.N,15*
X228850000D03*
G04 #@! TO.N,6*
X237850000Y107989995D03*
G04 #@! TO.N,56*
X236850000D03*
G04 #@! TO.N,8*
X235850000D03*
G04 #@! TO.N,49*
X234850000D03*
G04 #@! TO.N,62*
X233850000D03*
G04 #@! TO.N,7*
X232850000D03*
G04 #@! TO.N,32*
X231850000D03*
G04 #@! TO.N,49*
X230850000D03*
G04 #@! TO.N,10*
X229850000D03*
G04 #@! TO.N,48*
X228850000D03*
G04 #@! TO.N,5*
X237850000Y108989995D03*
G04 #@! TO.N,29*
X236850000D03*
G04 #@! TO.N,44*
X235850000D03*
G04 #@! TO.N,63*
X234850000D03*
G04 #@! TO.N,1*
X233850000D03*
G04 #@! TO.N,65*
X232850000D03*
G04 #@! TO.N,18*
X231850000D03*
G04 #@! TO.N,38*
X230850000D03*
G04 #@! TO.N,42*
X229850000D03*
G04 #@! TO.N,64*
X228850000D03*
G04 #@! TO.N,37*
X237850000Y109989995D03*
G04 #@! TO.N,46*
X236850000D03*
G04 #@! TO.N,65*
X235850000D03*
G04 #@! TO.N,12*
X234850000D03*
G04 #@! TO.N,43*
X233850000D03*
G04 #@! TO.N,28*
X232850000D03*
G04 #@! TO.N,63*
X231850000D03*
G04 #@! TO.N,26*
X230850000D03*
G04 #@! TO.N,45*
X229850000D03*
G04 #@! TO.N,36*
X228850000D03*
G04 #@! TO.N,39*
X237850000Y110989995D03*
G04 #@! TO.N,64*
X236850000D03*
G04 #@! TO.N,21*
X235850000D03*
G04 #@! TO.N,41*
X234850000D03*
G04 #@! TO.N,33*
X233850000D03*
G04 #@! TO.N,50*
X232850000D03*
G04 #@! TO.N,20*
X231850000D03*
G04 #@! TO.N,62*
X230850000D03*
G04 #@! TO.N,30*
X229850000D03*
G04 #@! TO.N,51*
X228850000D03*
G04 #@! TO.N,10*
X237850000Y111989995D03*
G04 #@! TO.N,30*
X236850000D03*
G04 #@! TO.N,47*
X235850000D03*
G04 #@! TO.N,24*
X234850000D03*
G04 #@! TO.N,2*
X233850000D03*
G04 #@! TO.N,12*
X232850000D03*
G04 #@! TO.N,55*
X231850000D03*
G04 #@! TO.N,23*
X230850000D03*
G04 #@! TO.N,6*
X229850000D03*
G04 #@! TO.N,21*
X228850000D03*
G04 #@! TO.N,26*
X237850000Y112989995D03*
G04 #@! TO.N,52*
X236850000D03*
G04 #@! TO.N,16*
X235850000D03*
G04 #@! TO.N,13*
X234850000D03*
G04 #@! TO.N,18*
X233850000D03*
G04 #@! TO.N,25*
X232850000D03*
G04 #@! TO.N,1*
X231850000D03*
G04 #@! TO.N,52*
X230850000D03*
G04 #@! TO.N,14*
X229850000D03*
G04 #@! TO.N,17*
X228850000D03*
G04 #@! TO.N,55*
X237850000Y113989995D03*
G04 #@! TO.N,19*
X236850000D03*
G04 #@! TO.N,22*
X235850000D03*
G04 #@! TO.N,7*
X234850000D03*
G04 #@! TO.N,50*
X233850000D03*
G04 #@! TO.N,9*
X232850000D03*
G04 #@! TO.N,34*
X231850000D03*
G04 #@! TO.N,5*
X230850000D03*
G04 #@! TO.N,47*
X229850000D03*
G04 #@! TO.N,3*
X228850000D03*
G04 #@! TO.N,0*
D12*
X228850000Y104989995D02*
X237850000D01*
X228850000Y93989995D02*
X237850000D01*
X228850000Y94989995D02*
X237850000D01*
X228850000Y103989995D02*
X237850000D01*
X233850000Y101989995D02*
Y104989995D01*
X233850000Y96989995D02*
Y95989995D01*
Y93989995D01*
G04 #@! TO.N,1*
D13*
X237550000Y84989995D03*
G04 #@! TO.N,2*
X236550000D03*
G04 #@! TO.N,3*
X235550000D03*
G04 #@! TO.N,4*
X234550000D03*
G04 #@! TO.N,5*
X233550000D03*
G04 #@! TO.N,6*
X232550000D03*
G04 #@! TO.N,7*
X231550000D03*
G04 #@! TO.N,8*
X230550000D03*
G04 #@! TO.N,9*
X229550000D03*
G04 #@! TO.N,10*
X228550000D03*
G04 #@! TO.N,11*
X237550000Y85989995D03*
G04 #@! TO.N,12*
X236550000D03*
G04 #@! TO.N,13*
X235550000D03*
G04 #@! TO.N,14*
X234550000D03*
G04 #@! TO.N,15*
X233550000D03*
G04 #@! TO.N,16*
X232550000D03*
G04 #@! TO.N,17*
X231550000D03*
G04 #@! TO.N,18*
X230550000D03*
G04 #@! TO.N,11*
X229550000D03*
G04 #@! TO.N,19*
X228550000D03*
G04 #@! TO.N,20*
X237550000Y86989995D03*
G04 #@! TO.N,8*
X236550000D03*
G04 #@! TO.N,21*
X235550000D03*
G04 #@! TO.N,22*
X234550000D03*
G04 #@! TO.N,23*
X233550000D03*
G04 #@! TO.N,4*
X232550000D03*
G04 #@! TO.N,24*
X231550000D03*
G04 #@! TO.N,25*
X230550000D03*
G04 #@! TO.N,26*
X229550000D03*
G04 #@! TO.N,15*
X228550000D03*
G04 #@! TO.N,27*
X237550000Y87989995D03*
G04 #@! TO.N,28*
X236550000D03*
G04 #@! TO.N,29*
X235550000D03*
G04 #@! TO.N,30*
X234550000D03*
G04 #@! TO.N,31*
X233550000D03*
G04 #@! TO.N,21*
X232550000D03*
G04 #@! TO.N,32*
X231550000D03*
G04 #@! TO.N,33*
X230550000D03*
G04 #@! TO.N,34*
X229550000D03*
G04 #@! TO.N,30*
X228550000D03*
G04 #@! TO.N,18*
X237550000Y88989995D03*
G04 #@! TO.N,35*
X236550000D03*
G04 #@! TO.N,36*
X235550000D03*
G04 #@! TO.N,37*
X234550000D03*
G04 #@! TO.N,26*
X233550000D03*
G04 #@! TO.N,35*
X232550000D03*
G04 #@! TO.N,12*
X231550000D03*
G04 #@! TO.N,38*
X230550000D03*
G04 #@! TO.N,39*
X229550000D03*
G04 #@! TO.N,40*
X228550000D03*
G04 #@! TO.N,41*
X237550000Y89989995D03*
G04 #@! TO.N,7*
X236550000D03*
G04 #@! TO.N,40*
X235550000D03*
G04 #@! TO.N,42*
X234550000D03*
G04 #@! TO.N,43*
X233550000D03*
G04 #@! TO.N,44*
X232550000D03*
G04 #@! TO.N,27*
X231550000D03*
G04 #@! TO.N,1*
X230550000D03*
G04 #@! TO.N,45*
X229550000D03*
G04 #@! TO.N,46*
X228550000D03*
G04 #@! TO.N,44*
X237550000Y90989995D03*
G04 #@! TO.N,47*
X236550000D03*
G04 #@! TO.N,48*
X235550000D03*
G04 #@! TO.N,34*
X234550000D03*
G04 #@! TO.N,49*
X233550000D03*
G04 #@! TO.N,50*
X232550000D03*
G04 #@! TO.N,49*
X231550000D03*
G04 #@! TO.N,31*
X230550000D03*
G04 #@! TO.N,5*
X229550000D03*
G04 #@! TO.N,51*
X228550000D03*
G04 #@! TO.N,17*
X237550000Y91989995D03*
G04 #@! TO.N,46*
X236550000D03*
G04 #@! TO.N,52*
X235550000D03*
G04 #@! TO.N,53*
X234550000D03*
G04 #@! TO.N,25*
X233550000D03*
G04 #@! TO.N,54*
X232550000D03*
G04 #@! TO.N,55*
X231550000D03*
G04 #@! TO.N,42*
X230550000D03*
G04 #@! TO.N,22*
X229550000D03*
G04 #@! TO.N,56*
X228550000D03*
G04 #@! TO.N,57*
X237550000Y92989995D03*
G04 #@! TO.N,6*
X236550000D03*
G04 #@! TO.N,39*
X235550000D03*
G04 #@! TO.N,55*
X234550000D03*
G04 #@! TO.N,58*
X233550000D03*
G04 #@! TO.N,2*
X232550000D03*
G04 #@! TO.N,59*
X231550000D03*
G04 #@! TO.N,52*
X230550000D03*
G04 #@! TO.N,36*
X229550000D03*
G04 #@! TO.N,13*
X228550000D03*
G04 #@! TO.N,60*
X237550000Y93989995D03*
X236550000D03*
X235550000D03*
X234550000D03*
X233550000D03*
X232550000D03*
X231550000D03*
X230550000D03*
X229550000D03*
X228550000D03*
X237550000Y94989995D03*
X236550000D03*
X235550000D03*
X234550000D03*
X233550000D03*
X232550000D03*
X231550000D03*
X230550000D03*
X229550000D03*
X228550000D03*
G04 #@! TO.N,61*
X237550000Y95989995D03*
G04 #@! TO.N,62*
X236550000D03*
G04 #@! TO.N,33*
X235550000D03*
G04 #@! TO.N,50*
X234550000D03*
G04 #@! TO.N,60*
X233550000D03*
G04 #@! TO.N,20*
X232550000D03*
G04 #@! TO.N,10*
X231550000D03*
G04 #@! TO.N,61*
X230550000D03*
G04 #@! TO.N,47*
X229550000D03*
G04 #@! TO.N,28*
X228550000D03*
G04 #@! TO.N,59*
X237550000Y96989995D03*
G04 #@! TO.N,63*
X236550000D03*
G04 #@! TO.N,24*
X235550000D03*
G04 #@! TO.N,51*
X234550000D03*
G04 #@! TO.N,60*
X233550000D03*
G04 #@! TO.N,43*
X232550000D03*
G04 #@! TO.N,23*
X231550000D03*
G04 #@! TO.N,64*
X230550000D03*
G04 #@! TO.N,57*
X229550000D03*
G04 #@! TO.N,41*
X228550000D03*
G04 #@! TO.N,38*
X237550000Y97989995D03*
G04 #@! TO.N,54*
X236550000D03*
G04 #@! TO.N,65*
X235550000D03*
G04 #@! TO.N,16*
X234550000D03*
G04 #@! TO.N,45*
X233550000D03*
G04 #@! TO.N,53*
X232550000D03*
G04 #@! TO.N,37*
X231550000D03*
G04 #@! TO.N,14*
X230550000D03*
G04 #@! TO.N,65*
X229550000D03*
G04 #@! TO.N,58*
X228550000D03*
G04 #@! TO.N,9*
X237550000Y98989995D03*
G04 #@! TO.N,32*
X236550000D03*
G04 #@! TO.N,56*
X235550000D03*
G04 #@! TO.N,64*
X234550000D03*
G04 #@! TO.N,19*
X233550000D03*
G04 #@! TO.N,62*
X232550000D03*
G04 #@! TO.N,48*
X231550000D03*
G04 #@! TO.N,29*
X230550000D03*
G04 #@! TO.N,3*
X229550000D03*
G04 #@! TO.N,63*
X228550000D03*
G04 #@! TO.N,31*
X237550000Y99989995D03*
G04 #@! TO.N,48*
X236550000D03*
G04 #@! TO.N,51*
X235550000D03*
G04 #@! TO.N,3*
X234550000D03*
G04 #@! TO.N,27*
X233550000D03*
G04 #@! TO.N,19*
X232550000D03*
G04 #@! TO.N,40*
X231550000D03*
G04 #@! TO.N,56*
X230550000D03*
G04 #@! TO.N,41*
X229550000D03*
G04 #@! TO.N,9*
X228550000D03*
G04 #@! TO.N,53*
X237550000Y100989995D03*
G04 #@! TO.N,45*
X236550000D03*
G04 #@! TO.N,14*
X235550000D03*
G04 #@! TO.N,35*
X234550000D03*
G04 #@! TO.N,58*
X233550000D03*
G04 #@! TO.N,37*
X232550000D03*
G04 #@! TO.N,16*
X231550000D03*
G04 #@! TO.N,35*
X230550000D03*
G04 #@! TO.N,54*
X229550000D03*
G04 #@! TO.N,43*
X228550000D03*
G04 #@! TO.N,38*
X237550000Y101989995D03*
G04 #@! TO.N,23*
X236550000D03*
G04 #@! TO.N,40*
X235550000D03*
G04 #@! TO.N,57*
X234550000D03*
G04 #@! TO.N,60*
X233550000D03*
G04 #@! TO.N,61*
X232550000D03*
G04 #@! TO.N,29*
X231550000D03*
G04 #@! TO.N,24*
X230550000D03*
G04 #@! TO.N,27*
X229550000D03*
G04 #@! TO.N,59*
X228550000D03*
G04 #@! TO.N,32*
X237550000Y102989995D03*
G04 #@! TO.N,20*
X236550000D03*
G04 #@! TO.N,34*
X235550000D03*
G04 #@! TO.N,61*
X234550000D03*
G04 #@! TO.N,60*
X233550000D03*
G04 #@! TO.N,22*
X232550000D03*
G04 #@! TO.N,57*
X231550000D03*
G04 #@! TO.N,8*
X230550000D03*
G04 #@! TO.N,33*
X229550000D03*
G04 #@! TO.N,31*
X228550000D03*
G04 #@! TO.N,60*
X237550000Y103989995D03*
X236550000D03*
X235550000D03*
X234550000D03*
X233550000D03*
X232550000D03*
X231550000D03*
X230550000D03*
X229550000D03*
X228550000D03*
X237550000Y104989995D03*
X236550000D03*
X235550000D03*
X234550000D03*
X233550000D03*
X232550000D03*
X231550000D03*
X230550000D03*
X229550000D03*
X228550000D03*
G04 #@! TO.N,4*
X237550000Y105989995D03*
G04 #@! TO.N,28*
X236550000D03*
G04 #@! TO.N,25*
X235550000D03*
G04 #@! TO.N,59*
X234550000D03*
G04 #@! TO.N,15*
X233550000D03*
G04 #@! TO.N,46*
X232550000D03*
G04 #@! TO.N,13*
X231550000D03*
G04 #@! TO.N,58*
X230550000D03*
G04 #@! TO.N,11*
X229550000D03*
G04 #@! TO.N,39*
X228550000D03*
G04 #@! TO.N,36*
X237550000Y106989995D03*
G04 #@! TO.N,17*
X236550000D03*
G04 #@! TO.N,54*
X235550000D03*
G04 #@! TO.N,11*
X234550000D03*
G04 #@! TO.N,42*
X233550000D03*
G04 #@! TO.N,4*
X232550000D03*
G04 #@! TO.N,44*
X231550000D03*
G04 #@! TO.N,2*
X230550000D03*
G04 #@! TO.N,53*
X229550000D03*
G04 #@! TO.N,15*
X228550000D03*
G04 #@! TO.N,6*
X237550000Y107989995D03*
G04 #@! TO.N,56*
X236550000D03*
G04 #@! TO.N,8*
X235550000D03*
G04 #@! TO.N,49*
X234550000D03*
G04 #@! TO.N,62*
X233550000D03*
G04 #@! TO.N,7*
X232550000D03*
G04 #@! TO.N,32*
X231550000D03*
G04 #@! TO.N,49*
X230550000D03*
G04 #@! TO.N,10*
X229550000D03*
G04 #@! TO.N,48*
X228550000D03*
G04 #@! TO.N,5*
X237550000Y108989995D03*
G04 #@! TO.N,29*
X236550000D03*
G04 #@! TO.N,44*
X235550000D03*
G04 #@! TO.N,63*
X234550000D03*
G04 #@! TO.N,1*
X233550000D03*
G04 #@! TO.N,65*
X232550000D03*
G04 #@! TO.N,18*
X231550000D03*
G04 #@! TO.N,38*
X230550000D03*
G04 #@! TO.N,42*
X229550000D03*
G04 #@! TO.N,64*
X228550000D03*
G04 #@! TO.N,37*
X237550000Y109989995D03*
G04 #@! TO.N,46*
X236550000D03*
G04 #@! TO.N,65*
X235550000D03*
G04 #@! TO.N,12*
X234550000D03*
G04 #@! TO.N,43*
X233550000D03*
G04 #@! TO.N,28*
X232550000D03*
G04 #@! TO.N,63*
X231550000D03*
G04 #@! TO.N,26*
X230550000D03*
G04 #@! TO.N,45*
X229550000D03*
G04 #@! TO.N,36*
X228550000D03*
G04 #@! TO.N,39*
X237550000Y110989995D03*
G04 #@! TO.N,64*
X236550000D03*
G04 #@! TO.N,21*
X235550000D03*
G04 #@! TO.N,41*
X234550000D03*
G04 #@! TO.N,33*
X233550000D03*
G04 #@! TO.N,50*
X232550000D03*
G04 #@! TO.N,20*
X231550000D03*
G04 #@! TO.N,62*
X230550000D03*
G04 #@! TO.N,30*
X229550000D03*
G04 #@! TO.N,51*
X228550000D03*
G04 #@! TO.N,10*
X237550000Y111989995D03*
G04 #@! TO.N,30*
X236550000D03*
G04 #@! TO.N,47*
X235550000D03*
G04 #@! TO.N,24*
X234550000D03*
G04 #@! TO.N,2*
X233550000D03*
G04 #@! TO.N,12*
X232550000D03*
G04 #@! TO.N,55*
X231550000D03*
G04 #@! TO.N,23*
X230550000D03*
G04 #@! TO.N,6*
X229550000D03*
G04 #@! TO.N,21*
X228550000D03*
G04 #@! TO.N,26*
X237550000Y112989995D03*
G04 #@! TO.N,52*
X236550000D03*
G04 #@! TO.N,16*
X235550000D03*
G04 #@! TO.N,13*
X234550000D03*
G04 #@! TO.N,18*
X233550000D03*
G04 #@! TO.N,25*
X232550000D03*
G04 #@! TO.N,1*
X231550000D03*
G04 #@! TO.N,52*
X230550000D03*
G04 #@! TO.N,14*
X229550000D03*
G04 #@! TO.N,17*
X228550000D03*
G04 #@! TO.N,55*
X237550000Y113989995D03*
G04 #@! TO.N,19*
X236550000D03*
G04 #@! TO.N,22*
X235550000D03*
G04 #@! TO.N,7*
X234550000D03*
G04 #@! TO.N,50*
X233550000D03*
G04 #@! TO.N,9*
X232550000D03*
G04 #@! TO.N,34*
X231550000D03*
G04 #@! TO.N,5*
X230550000D03*
G04 #@! TO.N,47*
X229550000D03*
G04 #@! TO.N,3*
X228550000D03*
G04 #@! TO.N,10*
D14*
X240698650Y128190100D03*
G04 #@! TO.N,4*
X241498650Y127390100D03*
G04 #@! TO.N,2*
X242298650Y128190100D03*
G04 #@! TO.N,15*
X243098650Y127390100D03*
G04 #@! TO.N,13*
X243898650Y128190100D03*
G04 #@! TO.N,11*
X244698650Y127390100D03*
G04 #@! TO.N,22*
X245498650Y128190100D03*
G04 #@! TO.N,8*
X246298650Y127390100D03*
G04 #@! TO.N,31*
X247098650Y128190100D03*
G04 #@! TO.N,29*
X247898650Y127390100D03*
G04 #@! TO.N,27*
X248698650Y128190100D03*
G04 #@! TO.N,37*
X249498650Y127390100D03*
G04 #@! TO.N,35*
X250298650Y128190100D03*
G04 #@! TO.N,43*
X251098650Y127390100D03*
G04 #@! TO.N,40*
X251898650Y128190100D03*
G04 #@! TO.N,34*
X227098650D03*
G04 #@! TO.N,47*
X227898650Y127390100D03*
G04 #@! TO.N,25*
X228698650Y128190100D03*
G04 #@! TO.N,52*
X229498650Y127390100D03*
G04 #@! TO.N,17*
X230298650Y128190100D03*
G04 #@! TO.N,55*
X231098650Y127390100D03*
G04 #@! TO.N,6*
X231898650Y128190100D03*
G04 #@! TO.N,50*
X232698650Y127390100D03*
G04 #@! TO.N,62*
X233498650Y128190100D03*
G04 #@! TO.N,51*
X234298650Y127390100D03*
G04 #@! TO.N,63*
X235098650Y128190100D03*
G04 #@! TO.N,45*
X235898650Y127390100D03*
G04 #@! TO.N,65*
X236698650Y128190100D03*
G04 #@! TO.N,38*
X237498650Y127390100D03*
G04 #@! TO.N,64*
X238298650Y128190100D03*
G04 #@! TO.N,32*
X239098650Y127390100D03*
G04 #@! TO.N,41*
X252698650D03*
G04 #@! TO.N,9*
Y141290100D03*
G04 #@! TO.N,56*
X251898650Y140490100D03*
G04 #@! TO.N,19*
X251098650Y141290100D03*
G04 #@! TO.N,54*
X250298650Y140490100D03*
G04 #@! TO.N,16*
X249498650Y141290100D03*
G04 #@! TO.N,59*
X248698650Y140490100D03*
G04 #@! TO.N,24*
X247898650Y141290100D03*
G04 #@! TO.N,61*
X247098650Y140490100D03*
G04 #@! TO.N,33*
X246298650Y141290100D03*
G04 #@! TO.N,57*
X245498650Y140490100D03*
G04 #@! TO.N,39*
X244698650Y141290100D03*
G04 #@! TO.N,58*
X243898650Y140490100D03*
G04 #@! TO.N,46*
X243098650Y141290100D03*
G04 #@! TO.N,53*
X242298650Y140490100D03*
G04 #@! TO.N,44*
X241498650Y141290100D03*
G04 #@! TO.N,48*
X240698650Y140490100D03*
G04 #@! TO.N,49*
X239098650Y141290100D03*
G04 #@! TO.N,7*
X238298650Y140490100D03*
G04 #@! TO.N,42*
X237498650Y141290100D03*
G04 #@! TO.N,18*
X236698650Y140490100D03*
G04 #@! TO.N,36*
X235898650Y141290100D03*
G04 #@! TO.N,26*
X235098650Y140490100D03*
G04 #@! TO.N,28*
X234298650Y141290100D03*
G04 #@! TO.N,30*
X233498650Y140490100D03*
G04 #@! TO.N,20*
X232698650Y141290100D03*
G04 #@! TO.N,21*
X231898650Y140490100D03*
G04 #@! TO.N,23*
X231098650Y141290100D03*
G04 #@! TO.N,12*
X230298650Y140490100D03*
G04 #@! TO.N,14*
X229498650Y141290100D03*
G04 #@! TO.N,1*
X228698650Y140490100D03*
G04 #@! TO.N,3*
X227898650Y141290100D03*
G04 #@! TO.N,5*
X227098650Y140490100D03*
G04 #@! TO.N,8*
X239098650Y153190200D03*
G04 #@! TO.N,6*
X238298650Y152390200D03*
G04 #@! TO.N,11*
X237498650Y153190200D03*
G04 #@! TO.N,17*
X236698650Y152390200D03*
G04 #@! TO.N,15*
X235898650Y153190200D03*
G04 #@! TO.N,25*
X235098650Y152390200D03*
G04 #@! TO.N,4*
X234298650Y153190200D03*
G04 #@! TO.N,34*
X233498650Y152390200D03*
G04 #@! TO.N,32*
X232698650Y153190200D03*
G04 #@! TO.N,40*
X231898650Y152390200D03*
G04 #@! TO.N,38*
X231098650Y153190200D03*
G04 #@! TO.N,35*
X230298650Y152390200D03*
G04 #@! TO.N,45*
X229498650Y153190200D03*
G04 #@! TO.N,27*
X228698650Y152390200D03*
G04 #@! TO.N,51*
X227898650Y153190200D03*
G04 #@! TO.N,31*
X227098650Y152390200D03*
G04 #@! TO.N,49*
X239098650Y161190200D03*
G04 #@! TO.N,56*
X238298650Y160390200D03*
G04 #@! TO.N,42*
X237498650Y161190200D03*
G04 #@! TO.N,54*
X236698650Y160390200D03*
G04 #@! TO.N,36*
X235898650Y161190200D03*
G04 #@! TO.N,59*
X235098650Y160390200D03*
G04 #@! TO.N,28*
X234298650Y161190200D03*
G04 #@! TO.N,61*
X233498650Y160390200D03*
G04 #@! TO.N,20*
X232698650Y161190200D03*
G04 #@! TO.N,57*
X231898650Y160390200D03*
G04 #@! TO.N,23*
X231098650Y161190200D03*
G04 #@! TO.N,58*
X230298650Y160390200D03*
G04 #@! TO.N,14*
X229498650Y161190200D03*
G04 #@! TO.N,53*
X228698650Y160390200D03*
G04 #@! TO.N,3*
X227898650Y161190200D03*
G04 #@! TO.N,48*
X227098650Y160390200D03*
G04 #@! TO.N,50*
X252698650Y153190200D03*
G04 #@! TO.N,22*
X251898650Y152390200D03*
G04 #@! TO.N,55*
X251098650Y153190200D03*
G04 #@! TO.N,13*
X250298650Y152390200D03*
G04 #@! TO.N,52*
X249498650Y153190200D03*
G04 #@! TO.N,2*
X248698650Y152390200D03*
G04 #@! TO.N,47*
X247898650Y153190200D03*
G04 #@! TO.N,10*
X247098650Y152390200D03*
G04 #@! TO.N,41*
X246298650Y153190200D03*
G04 #@! TO.N,64*
X245498650Y152390200D03*
G04 #@! TO.N,43*
X244698650Y153190200D03*
G04 #@! TO.N,65*
X243898650Y152390200D03*
G04 #@! TO.N,37*
X243098650Y153190200D03*
G04 #@! TO.N,63*
X242298650Y152390200D03*
G04 #@! TO.N,29*
X241498650Y153190200D03*
G04 #@! TO.N,62*
X240698650Y152390200D03*
G04 #@! TO.N,9*
X252698650Y161190200D03*
G04 #@! TO.N,7*
X251898650Y160390200D03*
G04 #@! TO.N,19*
X251098650Y161190200D03*
G04 #@! TO.N,18*
X250298650Y160390200D03*
G04 #@! TO.N,16*
X249498650Y161190200D03*
G04 #@! TO.N,26*
X248698650Y160390200D03*
G04 #@! TO.N,24*
X247898650Y161190200D03*
G04 #@! TO.N,30*
X247098650Y160390200D03*
G04 #@! TO.N,33*
X246298650Y161190200D03*
G04 #@! TO.N,21*
X245498650Y160390200D03*
G04 #@! TO.N,39*
X244698650Y161190200D03*
G04 #@! TO.N,12*
X243898650Y160390200D03*
G04 #@! TO.N,46*
X243098650Y161190200D03*
G04 #@! TO.N,1*
X242298650Y160390200D03*
G04 #@! TO.N,44*
X241498650Y161190200D03*
G04 #@! TO.N,5*
X240698650Y160390200D03*
%LPD*%
M02*