G04 #@! TF.FileFunction,Copper,L5,Inr*
G04 #@! TF.FilePolarity,Positive*
G04 #@! TF.SameCoordinates,1cDX9PD3q2MVNQUlwPAFNq2hZJss5yh*
G04 #@! TF.CreationDate,2025-09-04T08:30:56+0200*
G04 #@! TF.GenerationSoftware,Ucamco,UcamX,v2023.12-240208*
%FSLAX36Y36*%
%MOMM*%
%ADD10C,0.100000*%
%AMBOXR*
$16=$1/2*
$17=$2/2*
$8=$16-$3*
$9=$17-$3*
$10=$8X$6*
$11=$8X$5*
$12=$9X$6*
$13=$9X$5*
$15=2X$3*
$18=0-$10*
$19=0-$11*
21,1-$7,$1,$2-$15,0,0,$4*
21,1-$7,$1-$15,$2,0,0,$4*
1,1-$7,$15,$10-$13,$11+$12*
1,1-$7,$15,$18-$13,$12-$11*
1,1-$7,$15,$10+$13,$11-$12*
1,1-$7,$15,$13-$10,$19-$12*%
%ADD11BOXR,0.700000X0.520000X0.250000X0.00X0X1X0*%
%ADD12C,0.500000*%
%ADD13C,0.650000*%
G04 layer name: DFS3498AM4_L5*
%LPD*%
G04 #@! TO.N,8*
D10*
X236850000Y86989995D02*
X237250000Y86589995D01*
X257000000D01*
X258000000Y87589995D01*
Y129590100D01*
X257500000Y130090100D01*
X246798950D01*
X246298950Y129590100D01*
Y127390100D01*
G04 #@! TO.N,31*
X233850000Y87989995D02*
X234450000Y87389995D01*
X256800000D01*
X257800000Y88389995D01*
Y129390100D01*
X257300000Y129890100D01*
X247598950D01*
X247098950Y129390100D01*
Y128190100D01*
G04 #@! TO.N,29*
X235850000Y87989995D02*
X236250000Y87589995D01*
X256600000D01*
X257600000Y88589995D01*
Y129190100D01*
X257100000Y129690100D01*
X248398950D01*
X247898950Y129190100D01*
Y127390100D01*
G04 #@! TO.N,37*
X234850000Y88989995D02*
X235450000Y88389995D01*
X256200000D01*
X257200000Y89389995D01*
Y128790100D01*
X256700000Y129290100D01*
X249998950D01*
X249498950Y128790100D01*
Y127390100D01*
G04 #@! TO.N,35*
X236850000Y88989995D02*
X237250000Y88589995D01*
X256000000D01*
X257000000Y89589995D01*
Y128590100D01*
X256500000Y129090100D01*
X250798950D01*
X250298950Y128590100D01*
Y128190100D01*
G04 #@! TO.N,43*
X233850000Y89989995D02*
X234450000Y89389995D01*
X255800000D01*
X256800000Y90389995D01*
Y128390100D01*
X256300000Y128890100D01*
X251598950D01*
X251098950Y128390100D01*
Y127390100D01*
G04 #@! TO.N,40*
X235850000Y89989995D02*
X236250000Y89589995D01*
X255600000D01*
X256600000Y90589995D01*
Y128190100D01*
X256100000Y128690100D01*
X252398950D01*
X251898950Y128190100D01*
G04 #@! TO.N,13*
X235850000Y85989995D02*
X236250000Y85589995D01*
X238450000D01*
X238567825Y85472170D01*
Y81745745D01*
X239067825Y81245745D01*
X257600000D01*
X258600000Y82245745D01*
Y130190100D01*
X258100000Y130690100D01*
X244398950D01*
X243898950Y130190100D01*
Y128190100D01*
G04 #@! TO.N,22*
X234850000Y86989995D02*
X235450000Y86389995D01*
X257200000D01*
X258200000Y87389995D01*
Y129790100D01*
X257700000Y130290100D01*
X245998950D01*
X245498950Y129790100D01*
Y128190100D01*
G04 #@! TO.N,41*
X237850000Y89989995D02*
X255400000D01*
X256400000Y90989995D01*
Y127990100D01*
X255900000Y128490100D01*
X253198950D01*
X252698950Y127990100D01*
Y127390100D01*
G04 #@! TO.N,27*
X237850000Y87989995D02*
X256400000D01*
X257400000Y88989995D01*
Y128990100D01*
X256900000Y129490100D01*
X249198950D01*
X248698950Y128990100D01*
Y128190100D01*
G04 #@! TO.N,11*
X237850000Y85989995D02*
X257400000D01*
X258400000Y86989995D01*
Y129990100D01*
X257900000Y130490100D01*
X245198950D01*
X244698950Y129990100D01*
Y127390100D01*
G04 #@! TO.N,27*
X231850000Y89989995D02*
X231250000Y90589995D01*
X223900000D01*
X222900000Y91589995D01*
G04 #@! TO.N,4*
X232850000Y86989995D02*
X232250000Y87589995D01*
X222500000D01*
X221500000Y88589995D01*
G04 #@! TO.N,34*
X229850000Y87989995D02*
X229450000Y88389995D01*
X222700000D01*
X221700000Y89389995D01*
G04 #@! TO.N,25*
X230850000Y86989995D02*
X230450000Y87389995D01*
X222300000D01*
X221300000Y88389995D01*
G04 #@! TO.N,17*
X231850000Y85989995D02*
X231250000Y86589995D01*
X221900000D01*
X220900000Y87589995D01*
G04 #@! TO.N,11*
X229850000Y85989995D02*
X229450000Y86389995D01*
X221700000D01*
X220700000Y87389995D01*
G04 #@! TO.N,8*
X230850000Y84989995D02*
X230450000Y85389995D01*
X226932550D01*
X226461550Y85860995D01*
X224617290D01*
X224146290Y85389995D01*
X221300000D01*
X220300000Y86389995D01*
G04 #@! TO.N,45*
X229850000Y89989995D02*
X229450000Y90389995D01*
X223700000D01*
X222700000Y91389995D01*
G04 #@! TO.N,35*
X232850000Y88989995D02*
X232250000Y89589995D01*
X223500000D01*
X222500000Y90589995D01*
G04 #@! TO.N,38*
X230850000Y88989995D02*
X230450000Y89389995D01*
X223300000D01*
X222300000Y90389995D01*
G04 #@! TO.N,32*
X231850000Y87989995D02*
X231250000Y88589995D01*
X222900000D01*
X221900000Y89589995D01*
G04 #@! TO.N,31*
X230850000Y90989995D02*
X230450000Y91389995D01*
X224300000D01*
X223300000Y92389995D01*
G04 #@! TO.N,15*
X228850000Y86989995D02*
X222100000D01*
X221100000Y87989995D01*
G04 #@! TO.N,40*
X228850000Y88989995D02*
X223100000D01*
X222100000Y89989995D01*
G04 #@! TO.N,51*
X223100000Y91989995D02*
X224100000Y90989995D01*
X228850000D01*
G04 #@! TO.N,6*
X220500000Y86589995D02*
X221500000Y85589995D01*
X223837255D01*
X224374200Y86126940D01*
X226625800D01*
X227162745Y85589995D01*
X232250000D01*
X232850000Y84989995D01*
G04 #@! TO.N,2*
X242298950Y128190100D02*
Y130590100D01*
X242798950Y131090100D01*
X258500000D01*
X259000000Y130590100D01*
Y81845745D01*
X258000000Y80845745D01*
X238057945D01*
X237557945Y81345745D01*
Y83763800D01*
X236850000Y84989995D01*
G04 #@! TO.N,10*
X240698950Y128190100D02*
X240698675Y130990100D01*
X241198650Y131490100D01*
X258900000D01*
X259400000Y130990100D01*
Y81445745D01*
X258400000Y80445745D01*
X233749850D01*
X233249850Y80945745D01*
Y83866100D01*
X232749850Y84366100D01*
X229050000D01*
X228850000Y84566100D01*
Y84989995D01*
G04 #@! TO.N,15*
X243098950Y127390100D02*
Y130390100D01*
X243598950Y130890100D01*
X258300000D01*
X258800000Y130390100D01*
Y82045745D01*
X257800000Y81045745D01*
X238867825D01*
X238367825Y81545745D01*
Y85272170D01*
X238250000Y85389995D01*
X234450000D01*
X233850000Y85989995D01*
G04 #@! TO.N,4*
X241498950Y127390100D02*
Y130790100D01*
X241998950Y131290100D01*
X258700000D01*
X259200000Y130790100D01*
Y81645745D01*
X258200000Y80645745D01*
X236057945D01*
X235557945Y81145745D01*
Y83763800D01*
X234850000Y84989995D01*
G04 #@! TO.N,56*
X253673240Y142130635D02*
X252338885D01*
X251898350Y141690100D01*
G04 #@! TO.N,57*
X245498650Y142490100D02*
X245939185Y142930635D01*
X252873240D01*
G04 #@! TO.N,53*
X242298650Y142890100D02*
X242739185Y143330635D01*
X252473240D01*
G04 #@! TO.N,48*
X240698650Y143090100D02*
X241139185Y143530635D01*
X252273240D01*
G04 #@! TO.N,54*
X250298350Y141890100D02*
X250738885Y142330635D01*
X253473240D01*
G04 #@! TO.N,59*
X248698350Y142090100D02*
X249138885Y142530635D01*
X253273240D01*
G04 #@! TO.N,61*
X247098350Y142290100D02*
X247538885Y142730635D01*
X253073240D01*
G04 #@! TO.N,58*
X243898950Y142690100D02*
X244339485Y143130635D01*
X252673240D01*
G04 #@! TO.N,56*
X251898650Y140490100D02*
Y141690400D01*
G04 #@! TO.N,54*
X250298650Y140490100D02*
Y141890400D01*
G04 #@! TO.N,59*
X248698650Y140490100D02*
Y142090400D01*
G04 #@! TO.N,61*
X247098650Y140490100D02*
Y142290400D01*
G04 #@! TO.N,57*
X245498650Y140490100D02*
Y142490100D01*
G04 #@! TO.N,58*
X243898650Y140490100D02*
Y142689800D01*
G04 #@! TO.N,53*
X242298650Y140490100D02*
Y142890100D01*
G04 #@! TO.N,48*
X240698650Y140490100D02*
Y143090100D01*
G04 #@! TO.N,56*
X255007760Y143465155D02*
X253673240Y142130635D01*
G04 #@! TO.N,57*
X252873240Y142930635D02*
X254207760Y144265155D01*
G04 #@! TO.N,53*
X252473240Y143330635D02*
X253807760Y144665155D01*
G04 #@! TO.N,48*
X252273240Y143530635D02*
X253607760Y144865155D01*
G04 #@! TO.N,54*
X253473240Y142330635D02*
X254807760Y143665155D01*
G04 #@! TO.N,59*
X253273240Y142530635D02*
X254607760Y143865155D01*
G04 #@! TO.N,61*
X253073240Y142730635D02*
X254407760Y144065155D01*
G04 #@! TO.N,58*
X252673240Y143130635D02*
X254007760Y144465155D01*
G04 #@! TO.N,27*
X222900000Y91589995D02*
Y153830735D01*
X223900000Y154830735D01*
X228258115D01*
X228698650Y154390200D01*
Y153990200D01*
Y152390200D01*
G04 #@! TO.N,4*
X221500000Y88589995D02*
Y155230735D01*
X222500000Y156230735D01*
X233857815D01*
X234298350Y155790200D01*
Y153190200D01*
G04 #@! TO.N,34*
X221700000Y89389995D02*
Y155030735D01*
X222700000Y156030735D01*
X233058115D01*
X233498650Y155590200D01*
Y153990200D01*
Y152390200D01*
G04 #@! TO.N,25*
X221300000Y88389995D02*
Y155430735D01*
X222300000Y156430735D01*
X234657815D01*
X235098350Y155990200D01*
Y152390200D01*
G04 #@! TO.N,17*
X220900000Y87589995D02*
Y155830735D01*
X221900000Y156830735D01*
X236257515D01*
X236698050Y156390200D01*
Y152390200D01*
G04 #@! TO.N,11*
X220700000Y87389995D02*
Y156030735D01*
X221700000Y157030735D01*
X237057815D01*
X237498350Y156590200D01*
Y153190200D01*
G04 #@! TO.N,8*
X220300000Y86389995D02*
Y156430735D01*
X221300000Y157430735D01*
X238657815D01*
X239098350Y156990200D01*
Y153190200D01*
G04 #@! TO.N,45*
X222700000Y91389995D02*
Y154030735D01*
X223700000Y155030735D01*
X229058115D01*
X229498650Y154590200D01*
Y153190200D01*
G04 #@! TO.N,35*
X222500000Y90589995D02*
Y154230735D01*
X223500000Y155230735D01*
X229858115D01*
X230298650Y154790200D01*
Y153990200D01*
Y152390200D01*
G04 #@! TO.N,38*
X222300000Y90389995D02*
Y154430735D01*
X223300000Y155430735D01*
X230658115D01*
X231098650Y154990200D01*
Y153190200D01*
G04 #@! TO.N,32*
X221900000Y89589995D02*
Y154830735D01*
X222900000Y155830735D01*
X232258115D01*
X232698650Y155390200D01*
Y153190200D01*
G04 #@! TO.N,31*
X223300000Y92389995D02*
Y153430735D01*
X224300000Y154430735D01*
X226658115D01*
X227098650Y153990200D01*
Y152390200D01*
G04 #@! TO.N,15*
X221100000Y87989995D02*
Y155630735D01*
X222100000Y156630735D01*
X235457515D01*
X235898050Y156190200D01*
Y153190200D01*
G04 #@! TO.N,40*
X222100000Y89989995D02*
Y154630735D01*
X223100000Y155630735D01*
X231458115D01*
X231898650Y155190200D01*
Y153990200D01*
Y152390200D01*
G04 #@! TO.N,51*
X227898650Y153190200D02*
Y154190200D01*
X227458115Y154630735D01*
X224100000D01*
X223100000Y153630735D01*
Y91989995D01*
G04 #@! TO.N,6*
X238298350Y152390200D02*
Y156790200D01*
X237857815Y157230735D01*
X221500000D01*
X220500000Y156230735D01*
Y86589995D01*
G04 #@! TO.N,56*
X238298350Y159990200D02*
X238738885Y159549665D01*
X252376025D01*
X238298650Y160390200D02*
Y159989900D01*
G04 #@! TO.N,54*
X236698650Y160390200D02*
Y159789900D01*
G04 #@! TO.N,59*
X235098650Y160390200D02*
Y159589900D01*
G04 #@! TO.N,61*
X233498650Y160390200D02*
Y159389900D01*
G04 #@! TO.N,58*
X230298650Y160390200D02*
Y158990500D01*
G04 #@! TO.N,57*
X251576025Y158749665D02*
X232339185D01*
X231898650Y159190200D01*
Y160390200D01*
G04 #@! TO.N,53*
X251176025Y158349665D02*
X229139185D01*
X228698650Y158790200D01*
Y160390200D01*
G04 #@! TO.N,48*
X250976025Y158149665D02*
X227539185D01*
X227098650Y158590200D01*
Y160390200D01*
G04 #@! TO.N,54*
X252176025Y159349665D02*
X237138885D01*
X236698350Y159790200D01*
G04 #@! TO.N,59*
X251976025Y159149665D02*
X235538885D01*
X235098350Y159590200D01*
G04 #@! TO.N,61*
X251776025Y158949665D02*
X233938885D01*
X233498350Y159390200D01*
G04 #@! TO.N,58*
X251376025Y158549665D02*
X230739485D01*
X230298950Y158990200D01*
G04 #@! TO.N,56*
X255007760Y156917930D02*
Y143465155D01*
X252376025Y159549665D02*
X255007760Y156917930D01*
G04 #@! TO.N,57*
X254207760Y144265155D02*
Y156117930D01*
X251576025Y158749665D01*
G04 #@! TO.N,53*
X253807760Y144665155D02*
Y155717930D01*
X251176025Y158349665D01*
G04 #@! TO.N,48*
X253607760Y144865155D02*
Y155517930D01*
X250976025Y158149665D01*
G04 #@! TO.N,54*
X254807760Y143665155D02*
Y156717930D01*
X252176025Y159349665D01*
G04 #@! TO.N,59*
X254607760Y143865155D02*
Y156517930D01*
X251976025Y159149665D01*
G04 #@! TO.N,61*
X254407760Y144065155D02*
Y156317930D01*
X251776025Y158949665D01*
G04 #@! TO.N,58*
X254007760Y144465155D02*
Y155917930D01*
X251376025Y158549665D01*
G04 #@! TO.N,45*
X225569985Y138736125D02*
X226569985Y137736125D01*
X235398650D01*
X235898650Y137236125D01*
G04 #@! TO.N,51*
X225369985Y138336125D02*
X226369985Y137336125D01*
X233798650D01*
X234298650Y136836125D01*
G04 #@! TO.N,38*
X225769985Y139136125D02*
X226769985Y138136125D01*
X236998650D01*
X237498650Y137636125D01*
G04 #@! TO.N,32*
X225969985Y139536125D02*
X226969985Y138536125D01*
X238598650D01*
X239098650Y138036125D01*
G04 #@! TO.N,45*
X235898650Y137236125D02*
Y127390100D01*
G04 #@! TO.N,51*
X234298650Y136836125D02*
Y127390100D01*
G04 #@! TO.N,38*
X237498650Y137636125D02*
Y127390100D01*
G04 #@! TO.N,32*
X239098650Y138036125D02*
Y127390100D01*
G04 #@! TO.N,45*
X229498650Y148890250D02*
X228998650Y148390250D01*
X226569985D01*
X225569985Y147390250D01*
Y138736125D01*
G04 #@! TO.N,51*
X227898650Y149290250D02*
X227398650Y148790250D01*
X226369985D01*
X225369985Y147790250D01*
Y138336125D01*
G04 #@! TO.N,38*
X231098650Y148490250D02*
X230598650Y147990250D01*
X226769985D01*
X225769985Y146990250D01*
Y139136125D01*
G04 #@! TO.N,32*
X232698650Y148090250D02*
X232198650Y147590250D01*
X226969985D01*
X225969985Y146590250D01*
Y139536125D01*
X232698650Y153190200D02*
Y148090250D01*
G04 #@! TO.N,38*
X231098650Y153190200D02*
Y148490250D01*
G04 #@! TO.N,45*
X229498650Y153190200D02*
Y148890250D01*
G04 #@! TO.N,51*
X227898650Y153190200D02*
Y149290250D01*
G04 #@! TO.N,1*
D11*
X237850000Y84989995D03*
G04 #@! TO.N,2*
X236850000D03*
G04 #@! TO.N,3*
X235850000D03*
G04 #@! TO.N,4*
X234850000D03*
G04 #@! TO.N,5*
X233850000D03*
G04 #@! TO.N,6*
X232850000D03*
G04 #@! TO.N,7*
X231850000D03*
G04 #@! TO.N,8*
X230850000D03*
G04 #@! TO.N,9*
X229850000D03*
G04 #@! TO.N,10*
X228850000D03*
G04 #@! TO.N,11*
X237850000Y85989995D03*
G04 #@! TO.N,12*
X236850000D03*
G04 #@! TO.N,13*
X235850000D03*
G04 #@! TO.N,14*
X234850000D03*
G04 #@! TO.N,15*
X233850000D03*
G04 #@! TO.N,16*
X232850000D03*
G04 #@! TO.N,17*
X231850000D03*
G04 #@! TO.N,18*
X230850000D03*
G04 #@! TO.N,11*
X229850000D03*
G04 #@! TO.N,19*
X228850000D03*
G04 #@! TO.N,20*
X237850000Y86989995D03*
G04 #@! TO.N,8*
X236850000D03*
G04 #@! TO.N,21*
X235850000D03*
G04 #@! TO.N,22*
X234850000D03*
G04 #@! TO.N,23*
X233850000D03*
G04 #@! TO.N,4*
X232850000D03*
G04 #@! TO.N,24*
X231850000D03*
G04 #@! TO.N,25*
X230850000D03*
G04 #@! TO.N,26*
X229850000D03*
G04 #@! TO.N,15*
X228850000D03*
G04 #@! TO.N,27*
X237850000Y87989995D03*
G04 #@! TO.N,28*
X236850000D03*
G04 #@! TO.N,29*
X235850000D03*
G04 #@! TO.N,30*
X234850000D03*
G04 #@! TO.N,31*
X233850000D03*
G04 #@! TO.N,21*
X232850000D03*
G04 #@! TO.N,32*
X231850000D03*
G04 #@! TO.N,33*
X230850000D03*
G04 #@! TO.N,34*
X229850000D03*
G04 #@! TO.N,30*
X228850000D03*
G04 #@! TO.N,18*
X237850000Y88989995D03*
G04 #@! TO.N,35*
X236850000D03*
G04 #@! TO.N,36*
X235850000D03*
G04 #@! TO.N,37*
X234850000D03*
G04 #@! TO.N,26*
X233850000D03*
G04 #@! TO.N,35*
X232850000D03*
G04 #@! TO.N,12*
X231850000D03*
G04 #@! TO.N,38*
X230850000D03*
G04 #@! TO.N,39*
X229850000D03*
G04 #@! TO.N,40*
X228850000D03*
G04 #@! TO.N,41*
X237850000Y89989995D03*
G04 #@! TO.N,7*
X236850000D03*
G04 #@! TO.N,40*
X235850000D03*
G04 #@! TO.N,42*
X234850000D03*
G04 #@! TO.N,43*
X233850000D03*
G04 #@! TO.N,44*
X232850000D03*
G04 #@! TO.N,27*
X231850000D03*
G04 #@! TO.N,1*
X230850000D03*
G04 #@! TO.N,45*
X229850000D03*
G04 #@! TO.N,46*
X228850000D03*
G04 #@! TO.N,44*
X237850000Y90989995D03*
G04 #@! TO.N,47*
X236850000D03*
G04 #@! TO.N,48*
X235850000D03*
G04 #@! TO.N,34*
X234850000D03*
G04 #@! TO.N,49*
X233850000D03*
G04 #@! TO.N,50*
X232850000D03*
G04 #@! TO.N,49*
X231850000D03*
G04 #@! TO.N,31*
X230850000D03*
G04 #@! TO.N,5*
X229850000D03*
G04 #@! TO.N,51*
X228850000D03*
G04 #@! TO.N,17*
X237850000Y91989995D03*
G04 #@! TO.N,46*
X236850000D03*
G04 #@! TO.N,52*
X235850000D03*
G04 #@! TO.N,53*
X234850000D03*
G04 #@! TO.N,25*
X233850000D03*
G04 #@! TO.N,54*
X232850000D03*
G04 #@! TO.N,55*
X231850000D03*
G04 #@! TO.N,42*
X230850000D03*
G04 #@! TO.N,22*
X229850000D03*
G04 #@! TO.N,56*
X228850000D03*
G04 #@! TO.N,57*
X237850000Y92989995D03*
G04 #@! TO.N,6*
X236850000D03*
G04 #@! TO.N,39*
X235850000D03*
G04 #@! TO.N,55*
X234850000D03*
G04 #@! TO.N,58*
X233850000D03*
G04 #@! TO.N,2*
X232850000D03*
G04 #@! TO.N,59*
X231850000D03*
G04 #@! TO.N,52*
X230850000D03*
G04 #@! TO.N,36*
X229850000D03*
G04 #@! TO.N,13*
X228850000D03*
G04 #@! TO.N,60*
X237850000Y93989995D03*
X236850000D03*
X235850000D03*
X234850000D03*
X233850000D03*
X232850000D03*
X231850000D03*
X230850000D03*
X229850000D03*
X228850000D03*
X237850000Y94989995D03*
X236850000D03*
X235850000D03*
X234850000D03*
X233850000D03*
X232850000D03*
X231850000D03*
X230850000D03*
X229850000D03*
X228850000D03*
G04 #@! TO.N,61*
X237850000Y95989995D03*
G04 #@! TO.N,62*
X236850000D03*
G04 #@! TO.N,33*
X235850000D03*
G04 #@! TO.N,50*
X234850000D03*
G04 #@! TO.N,60*
X233850000D03*
G04 #@! TO.N,20*
X232850000D03*
G04 #@! TO.N,10*
X231850000D03*
G04 #@! TO.N,61*
X230850000D03*
G04 #@! TO.N,47*
X229850000D03*
G04 #@! TO.N,28*
X228850000D03*
G04 #@! TO.N,59*
X237850000Y96989995D03*
G04 #@! TO.N,63*
X236850000D03*
G04 #@! TO.N,24*
X235850000D03*
G04 #@! TO.N,51*
X234850000D03*
G04 #@! TO.N,60*
X233850000D03*
G04 #@! TO.N,43*
X232850000D03*
G04 #@! TO.N,23*
X231850000D03*
G04 #@! TO.N,64*
X230850000D03*
G04 #@! TO.N,57*
X229850000D03*
G04 #@! TO.N,41*
X228850000D03*
G04 #@! TO.N,38*
X237850000Y97989995D03*
G04 #@! TO.N,54*
X236850000D03*
G04 #@! TO.N,65*
X235850000D03*
G04 #@! TO.N,16*
X234850000D03*
G04 #@! TO.N,45*
X233850000D03*
G04 #@! TO.N,53*
X232850000D03*
G04 #@! TO.N,37*
X231850000D03*
G04 #@! TO.N,14*
X230850000D03*
G04 #@! TO.N,65*
X229850000D03*
G04 #@! TO.N,58*
X228850000D03*
G04 #@! TO.N,9*
X237850000Y98989995D03*
G04 #@! TO.N,32*
X236850000D03*
G04 #@! TO.N,56*
X235850000D03*
G04 #@! TO.N,64*
X234850000D03*
G04 #@! TO.N,19*
X233850000D03*
G04 #@! TO.N,62*
X232850000D03*
G04 #@! TO.N,48*
X231850000D03*
G04 #@! TO.N,29*
X230850000D03*
G04 #@! TO.N,3*
X229850000D03*
G04 #@! TO.N,63*
X228850000D03*
G04 #@! TO.N,31*
X237850000Y99989995D03*
G04 #@! TO.N,48*
X236850000D03*
G04 #@! TO.N,51*
X235850000D03*
G04 #@! TO.N,3*
X234850000D03*
G04 #@! TO.N,27*
X233850000D03*
G04 #@! TO.N,19*
X232850000D03*
G04 #@! TO.N,40*
X231850000D03*
G04 #@! TO.N,56*
X230850000D03*
G04 #@! TO.N,41*
X229850000D03*
G04 #@! TO.N,9*
X228850000D03*
G04 #@! TO.N,53*
X237850000Y100989995D03*
G04 #@! TO.N,45*
X236850000D03*
G04 #@! TO.N,14*
X235850000D03*
G04 #@! TO.N,35*
X234850000D03*
G04 #@! TO.N,58*
X233850000D03*
G04 #@! TO.N,37*
X232850000D03*
G04 #@! TO.N,16*
X231850000D03*
G04 #@! TO.N,35*
X230850000D03*
G04 #@! TO.N,54*
X229850000D03*
G04 #@! TO.N,43*
X228850000D03*
G04 #@! TO.N,38*
X237850000Y101989995D03*
G04 #@! TO.N,23*
X236850000D03*
G04 #@! TO.N,40*
X235850000D03*
G04 #@! TO.N,57*
X234850000D03*
G04 #@! TO.N,60*
X233850000D03*
G04 #@! TO.N,61*
X232850000D03*
G04 #@! TO.N,29*
X231850000D03*
G04 #@! TO.N,24*
X230850000D03*
G04 #@! TO.N,27*
X229850000D03*
G04 #@! TO.N,59*
X228850000D03*
G04 #@! TO.N,32*
X237850000Y102989995D03*
G04 #@! TO.N,20*
X236850000D03*
G04 #@! TO.N,34*
X235850000D03*
G04 #@! TO.N,61*
X234850000D03*
G04 #@! TO.N,60*
X233850000D03*
G04 #@! TO.N,22*
X232850000D03*
G04 #@! TO.N,57*
X231850000D03*
G04 #@! TO.N,8*
X230850000D03*
G04 #@! TO.N,33*
X229850000D03*
G04 #@! TO.N,31*
X228850000D03*
G04 #@! TO.N,60*
X237850000Y103989995D03*
X236850000D03*
X235850000D03*
X234850000D03*
X233850000D03*
X232850000D03*
X231850000D03*
X230850000D03*
X229850000D03*
X228850000D03*
X237850000Y104989995D03*
X236850000D03*
X235850000D03*
X234850000D03*
X233850000D03*
X232850000D03*
X231850000D03*
X230850000D03*
X229850000D03*
X228850000D03*
G04 #@! TO.N,4*
X237850000Y105989995D03*
G04 #@! TO.N,28*
X236850000D03*
G04 #@! TO.N,25*
X235850000D03*
G04 #@! TO.N,59*
X234850000D03*
G04 #@! TO.N,15*
X233850000D03*
G04 #@! TO.N,46*
X232850000D03*
G04 #@! TO.N,13*
X231850000D03*
G04 #@! TO.N,58*
X230850000D03*
G04 #@! TO.N,11*
X229850000D03*
G04 #@! TO.N,39*
X228850000D03*
G04 #@! TO.N,36*
X237850000Y106989995D03*
G04 #@! TO.N,17*
X236850000D03*
G04 #@! TO.N,54*
X235850000D03*
G04 #@! TO.N,11*
X234850000D03*
G04 #@! TO.N,42*
X233850000D03*
G04 #@! TO.N,4*
X232850000D03*
G04 #@! TO.N,44*
X231850000D03*
G04 #@! TO.N,2*
X230850000D03*
G04 #@! TO.N,53*
X229850000D03*
G04 #@! TO.N,15*
X228850000D03*
G04 #@! TO.N,6*
X237850000Y107989995D03*
G04 #@! TO.N,56*
X236850000D03*
G04 #@! TO.N,8*
X235850000D03*
G04 #@! TO.N,49*
X234850000D03*
G04 #@! TO.N,62*
X233850000D03*
G04 #@! TO.N,7*
X232850000D03*
G04 #@! TO.N,32*
X231850000D03*
G04 #@! TO.N,49*
X230850000D03*
G04 #@! TO.N,10*
X229850000D03*
G04 #@! TO.N,48*
X228850000D03*
G04 #@! TO.N,5*
X237850000Y108989995D03*
G04 #@! TO.N,29*
X236850000D03*
G04 #@! TO.N,44*
X235850000D03*
G04 #@! TO.N,63*
X234850000D03*
G04 #@! TO.N,1*
X233850000D03*
G04 #@! TO.N,65*
X232850000D03*
G04 #@! TO.N,18*
X231850000D03*
G04 #@! TO.N,38*
X230850000D03*
G04 #@! TO.N,42*
X229850000D03*
G04 #@! TO.N,64*
X228850000D03*
G04 #@! TO.N,37*
X237850000Y109989995D03*
G04 #@! TO.N,46*
X236850000D03*
G04 #@! TO.N,65*
X235850000D03*
G04 #@! TO.N,12*
X234850000D03*
G04 #@! TO.N,43*
X233850000D03*
G04 #@! TO.N,28*
X232850000D03*
G04 #@! TO.N,63*
X231850000D03*
G04 #@! TO.N,26*
X230850000D03*
G04 #@! TO.N,45*
X229850000D03*
G04 #@! TO.N,36*
X228850000D03*
G04 #@! TO.N,39*
X237850000Y110989995D03*
G04 #@! TO.N,64*
X236850000D03*
G04 #@! TO.N,21*
X235850000D03*
G04 #@! TO.N,41*
X234850000D03*
G04 #@! TO.N,33*
X233850000D03*
G04 #@! TO.N,50*
X232850000D03*
G04 #@! TO.N,20*
X231850000D03*
G04 #@! TO.N,62*
X230850000D03*
G04 #@! TO.N,30*
X229850000D03*
G04 #@! TO.N,51*
X228850000D03*
G04 #@! TO.N,10*
X237850000Y111989995D03*
G04 #@! TO.N,30*
X236850000D03*
G04 #@! TO.N,47*
X235850000D03*
G04 #@! TO.N,24*
X234850000D03*
G04 #@! TO.N,2*
X233850000D03*
G04 #@! TO.N,12*
X232850000D03*
G04 #@! TO.N,55*
X231850000D03*
G04 #@! TO.N,23*
X230850000D03*
G04 #@! TO.N,6*
X229850000D03*
G04 #@! TO.N,21*
X228850000D03*
G04 #@! TO.N,26*
X237850000Y112989995D03*
G04 #@! TO.N,52*
X236850000D03*
G04 #@! TO.N,16*
X235850000D03*
G04 #@! TO.N,13*
X234850000D03*
G04 #@! TO.N,18*
X233850000D03*
G04 #@! TO.N,25*
X232850000D03*
G04 #@! TO.N,1*
X231850000D03*
G04 #@! TO.N,52*
X230850000D03*
G04 #@! TO.N,14*
X229850000D03*
G04 #@! TO.N,17*
X228850000D03*
G04 #@! TO.N,55*
X237850000Y113989995D03*
G04 #@! TO.N,19*
X236850000D03*
G04 #@! TO.N,22*
X235850000D03*
G04 #@! TO.N,7*
X234850000D03*
G04 #@! TO.N,50*
X233850000D03*
G04 #@! TO.N,9*
X232850000D03*
G04 #@! TO.N,34*
X231850000D03*
G04 #@! TO.N,5*
X230850000D03*
G04 #@! TO.N,47*
X229850000D03*
G04 #@! TO.N,3*
X228850000D03*
G04 #@! TO.N,1*
D12*
X237550000Y84989995D03*
G04 #@! TO.N,2*
X236550000D03*
G04 #@! TO.N,3*
X235550000D03*
G04 #@! TO.N,4*
X234550000D03*
G04 #@! TO.N,5*
X233550000D03*
G04 #@! TO.N,6*
X232550000D03*
G04 #@! TO.N,7*
X231550000D03*
G04 #@! TO.N,8*
X230550000D03*
G04 #@! TO.N,9*
X229550000D03*
G04 #@! TO.N,10*
X228550000D03*
G04 #@! TO.N,11*
X237550000Y85989995D03*
G04 #@! TO.N,12*
X236550000D03*
G04 #@! TO.N,13*
X235550000D03*
G04 #@! TO.N,14*
X234550000D03*
G04 #@! TO.N,15*
X233550000D03*
G04 #@! TO.N,16*
X232550000D03*
G04 #@! TO.N,17*
X231550000D03*
G04 #@! TO.N,18*
X230550000D03*
G04 #@! TO.N,11*
X229550000D03*
G04 #@! TO.N,19*
X228550000D03*
G04 #@! TO.N,20*
X237550000Y86989995D03*
G04 #@! TO.N,8*
X236550000D03*
G04 #@! TO.N,21*
X235550000D03*
G04 #@! TO.N,22*
X234550000D03*
G04 #@! TO.N,23*
X233550000D03*
G04 #@! TO.N,4*
X232550000D03*
G04 #@! TO.N,24*
X231550000D03*
G04 #@! TO.N,25*
X230550000D03*
G04 #@! TO.N,26*
X229550000D03*
G04 #@! TO.N,15*
X228550000D03*
G04 #@! TO.N,27*
X237550000Y87989995D03*
G04 #@! TO.N,28*
X236550000D03*
G04 #@! TO.N,29*
X235550000D03*
G04 #@! TO.N,30*
X234550000D03*
G04 #@! TO.N,31*
X233550000D03*
G04 #@! TO.N,21*
X232550000D03*
G04 #@! TO.N,32*
X231550000D03*
G04 #@! TO.N,33*
X230550000D03*
G04 #@! TO.N,34*
X229550000D03*
G04 #@! TO.N,30*
X228550000D03*
G04 #@! TO.N,18*
X237550000Y88989995D03*
G04 #@! TO.N,35*
X236550000D03*
G04 #@! TO.N,36*
X235550000D03*
G04 #@! TO.N,37*
X234550000D03*
G04 #@! TO.N,26*
X233550000D03*
G04 #@! TO.N,35*
X232550000D03*
G04 #@! TO.N,12*
X231550000D03*
G04 #@! TO.N,38*
X230550000D03*
G04 #@! TO.N,39*
X229550000D03*
G04 #@! TO.N,40*
X228550000D03*
G04 #@! TO.N,41*
X237550000Y89989995D03*
G04 #@! TO.N,7*
X236550000D03*
G04 #@! TO.N,40*
X235550000D03*
G04 #@! TO.N,42*
X234550000D03*
G04 #@! TO.N,43*
X233550000D03*
G04 #@! TO.N,44*
X232550000D03*
G04 #@! TO.N,27*
X231550000D03*
G04 #@! TO.N,1*
X230550000D03*
G04 #@! TO.N,45*
X229550000D03*
G04 #@! TO.N,46*
X228550000D03*
G04 #@! TO.N,44*
X237550000Y90989995D03*
G04 #@! TO.N,47*
X236550000D03*
G04 #@! TO.N,48*
X235550000D03*
G04 #@! TO.N,34*
X234550000D03*
G04 #@! TO.N,49*
X233550000D03*
G04 #@! TO.N,50*
X232550000D03*
G04 #@! TO.N,49*
X231550000D03*
G04 #@! TO.N,31*
X230550000D03*
G04 #@! TO.N,5*
X229550000D03*
G04 #@! TO.N,51*
X228550000D03*
G04 #@! TO.N,17*
X237550000Y91989995D03*
G04 #@! TO.N,46*
X236550000D03*
G04 #@! TO.N,52*
X235550000D03*
G04 #@! TO.N,53*
X234550000D03*
G04 #@! TO.N,25*
X233550000D03*
G04 #@! TO.N,54*
X232550000D03*
G04 #@! TO.N,55*
X231550000D03*
G04 #@! TO.N,42*
X230550000D03*
G04 #@! TO.N,22*
X229550000D03*
G04 #@! TO.N,56*
X228550000D03*
G04 #@! TO.N,57*
X237550000Y92989995D03*
G04 #@! TO.N,6*
X236550000D03*
G04 #@! TO.N,39*
X235550000D03*
G04 #@! TO.N,55*
X234550000D03*
G04 #@! TO.N,58*
X233550000D03*
G04 #@! TO.N,2*
X232550000D03*
G04 #@! TO.N,59*
X231550000D03*
G04 #@! TO.N,52*
X230550000D03*
G04 #@! TO.N,36*
X229550000D03*
G04 #@! TO.N,13*
X228550000D03*
G04 #@! TO.N,60*
X237550000Y93989995D03*
X236550000D03*
X235550000D03*
X234550000D03*
X233550000D03*
X232550000D03*
X231550000D03*
X230550000D03*
X229550000D03*
X228550000D03*
X237550000Y94989995D03*
X236550000D03*
X235550000D03*
X234550000D03*
X233550000D03*
X232550000D03*
X231550000D03*
X230550000D03*
X229550000D03*
X228550000D03*
G04 #@! TO.N,61*
X237550000Y95989995D03*
G04 #@! TO.N,62*
X236550000D03*
G04 #@! TO.N,33*
X235550000D03*
G04 #@! TO.N,50*
X234550000D03*
G04 #@! TO.N,60*
X233550000D03*
G04 #@! TO.N,20*
X232550000D03*
G04 #@! TO.N,10*
X231550000D03*
G04 #@! TO.N,61*
X230550000D03*
G04 #@! TO.N,47*
X229550000D03*
G04 #@! TO.N,28*
X228550000D03*
G04 #@! TO.N,59*
X237550000Y96989995D03*
G04 #@! TO.N,63*
X236550000D03*
G04 #@! TO.N,24*
X235550000D03*
G04 #@! TO.N,51*
X234550000D03*
G04 #@! TO.N,60*
X233550000D03*
G04 #@! TO.N,43*
X232550000D03*
G04 #@! TO.N,23*
X231550000D03*
G04 #@! TO.N,64*
X230550000D03*
G04 #@! TO.N,57*
X229550000D03*
G04 #@! TO.N,41*
X228550000D03*
G04 #@! TO.N,38*
X237550000Y97989995D03*
G04 #@! TO.N,54*
X236550000D03*
G04 #@! TO.N,65*
X235550000D03*
G04 #@! TO.N,16*
X234550000D03*
G04 #@! TO.N,45*
X233550000D03*
G04 #@! TO.N,53*
X232550000D03*
G04 #@! TO.N,37*
X231550000D03*
G04 #@! TO.N,14*
X230550000D03*
G04 #@! TO.N,65*
X229550000D03*
G04 #@! TO.N,58*
X228550000D03*
G04 #@! TO.N,9*
X237550000Y98989995D03*
G04 #@! TO.N,32*
X236550000D03*
G04 #@! TO.N,56*
X235550000D03*
G04 #@! TO.N,64*
X234550000D03*
G04 #@! TO.N,19*
X233550000D03*
G04 #@! TO.N,62*
X232550000D03*
G04 #@! TO.N,48*
X231550000D03*
G04 #@! TO.N,29*
X230550000D03*
G04 #@! TO.N,3*
X229550000D03*
G04 #@! TO.N,63*
X228550000D03*
G04 #@! TO.N,31*
X237550000Y99989995D03*
G04 #@! TO.N,48*
X236550000D03*
G04 #@! TO.N,51*
X235550000D03*
G04 #@! TO.N,3*
X234550000D03*
G04 #@! TO.N,27*
X233550000D03*
G04 #@! TO.N,19*
X232550000D03*
G04 #@! TO.N,40*
X231550000D03*
G04 #@! TO.N,56*
X230550000D03*
G04 #@! TO.N,41*
X229550000D03*
G04 #@! TO.N,9*
X228550000D03*
G04 #@! TO.N,53*
X237550000Y100989995D03*
G04 #@! TO.N,45*
X236550000D03*
G04 #@! TO.N,14*
X235550000D03*
G04 #@! TO.N,35*
X234550000D03*
G04 #@! TO.N,58*
X233550000D03*
G04 #@! TO.N,37*
X232550000D03*
G04 #@! TO.N,16*
X231550000D03*
G04 #@! TO.N,35*
X230550000D03*
G04 #@! TO.N,54*
X229550000D03*
G04 #@! TO.N,43*
X228550000D03*
G04 #@! TO.N,38*
X237550000Y101989995D03*
G04 #@! TO.N,23*
X236550000D03*
G04 #@! TO.N,40*
X235550000D03*
G04 #@! TO.N,57*
X234550000D03*
G04 #@! TO.N,60*
X233550000D03*
G04 #@! TO.N,61*
X232550000D03*
G04 #@! TO.N,29*
X231550000D03*
G04 #@! TO.N,24*
X230550000D03*
G04 #@! TO.N,27*
X229550000D03*
G04 #@! TO.N,59*
X228550000D03*
G04 #@! TO.N,32*
X237550000Y102989995D03*
G04 #@! TO.N,20*
X236550000D03*
G04 #@! TO.N,34*
X235550000D03*
G04 #@! TO.N,61*
X234550000D03*
G04 #@! TO.N,60*
X233550000D03*
G04 #@! TO.N,22*
X232550000D03*
G04 #@! TO.N,57*
X231550000D03*
G04 #@! TO.N,8*
X230550000D03*
G04 #@! TO.N,33*
X229550000D03*
G04 #@! TO.N,31*
X228550000D03*
G04 #@! TO.N,60*
X237550000Y103989995D03*
X236550000D03*
X235550000D03*
X234550000D03*
X233550000D03*
X232550000D03*
X231550000D03*
X230550000D03*
X229550000D03*
X228550000D03*
X237550000Y104989995D03*
X236550000D03*
X235550000D03*
X234550000D03*
X233550000D03*
X232550000D03*
X231550000D03*
X230550000D03*
X229550000D03*
X228550000D03*
G04 #@! TO.N,4*
X237550000Y105989995D03*
G04 #@! TO.N,28*
X236550000D03*
G04 #@! TO.N,25*
X235550000D03*
G04 #@! TO.N,59*
X234550000D03*
G04 #@! TO.N,15*
X233550000D03*
G04 #@! TO.N,46*
X232550000D03*
G04 #@! TO.N,13*
X231550000D03*
G04 #@! TO.N,58*
X230550000D03*
G04 #@! TO.N,11*
X229550000D03*
G04 #@! TO.N,39*
X228550000D03*
G04 #@! TO.N,36*
X237550000Y106989995D03*
G04 #@! TO.N,17*
X236550000D03*
G04 #@! TO.N,54*
X235550000D03*
G04 #@! TO.N,11*
X234550000D03*
G04 #@! TO.N,42*
X233550000D03*
G04 #@! TO.N,4*
X232550000D03*
G04 #@! TO.N,44*
X231550000D03*
G04 #@! TO.N,2*
X230550000D03*
G04 #@! TO.N,53*
X229550000D03*
G04 #@! TO.N,15*
X228550000D03*
G04 #@! TO.N,6*
X237550000Y107989995D03*
G04 #@! TO.N,56*
X236550000D03*
G04 #@! TO.N,8*
X235550000D03*
G04 #@! TO.N,49*
X234550000D03*
G04 #@! TO.N,62*
X233550000D03*
G04 #@! TO.N,7*
X232550000D03*
G04 #@! TO.N,32*
X231550000D03*
G04 #@! TO.N,49*
X230550000D03*
G04 #@! TO.N,10*
X229550000D03*
G04 #@! TO.N,48*
X228550000D03*
G04 #@! TO.N,5*
X237550000Y108989995D03*
G04 #@! TO.N,29*
X236550000D03*
G04 #@! TO.N,44*
X235550000D03*
G04 #@! TO.N,63*
X234550000D03*
G04 #@! TO.N,1*
X233550000D03*
G04 #@! TO.N,65*
X232550000D03*
G04 #@! TO.N,18*
X231550000D03*
G04 #@! TO.N,38*
X230550000D03*
G04 #@! TO.N,42*
X229550000D03*
G04 #@! TO.N,64*
X228550000D03*
G04 #@! TO.N,37*
X237550000Y109989995D03*
G04 #@! TO.N,46*
X236550000D03*
G04 #@! TO.N,65*
X235550000D03*
G04 #@! TO.N,12*
X234550000D03*
G04 #@! TO.N,43*
X233550000D03*
G04 #@! TO.N,28*
X232550000D03*
G04 #@! TO.N,63*
X231550000D03*
G04 #@! TO.N,26*
X230550000D03*
G04 #@! TO.N,45*
X229550000D03*
G04 #@! TO.N,36*
X228550000D03*
G04 #@! TO.N,39*
X237550000Y110989995D03*
G04 #@! TO.N,64*
X236550000D03*
G04 #@! TO.N,21*
X235550000D03*
G04 #@! TO.N,41*
X234550000D03*
G04 #@! TO.N,33*
X233550000D03*
G04 #@! TO.N,50*
X232550000D03*
G04 #@! TO.N,20*
X231550000D03*
G04 #@! TO.N,62*
X230550000D03*
G04 #@! TO.N,30*
X229550000D03*
G04 #@! TO.N,51*
X228550000D03*
G04 #@! TO.N,10*
X237550000Y111989995D03*
G04 #@! TO.N,30*
X236550000D03*
G04 #@! TO.N,47*
X235550000D03*
G04 #@! TO.N,24*
X234550000D03*
G04 #@! TO.N,2*
X233550000D03*
G04 #@! TO.N,12*
X232550000D03*
G04 #@! TO.N,55*
X231550000D03*
G04 #@! TO.N,23*
X230550000D03*
G04 #@! TO.N,6*
X229550000D03*
G04 #@! TO.N,21*
X228550000D03*
G04 #@! TO.N,26*
X237550000Y112989995D03*
G04 #@! TO.N,52*
X236550000D03*
G04 #@! TO.N,16*
X235550000D03*
G04 #@! TO.N,13*
X234550000D03*
G04 #@! TO.N,18*
X233550000D03*
G04 #@! TO.N,25*
X232550000D03*
G04 #@! TO.N,1*
X231550000D03*
G04 #@! TO.N,52*
X230550000D03*
G04 #@! TO.N,14*
X229550000D03*
G04 #@! TO.N,17*
X228550000D03*
G04 #@! TO.N,55*
X237550000Y113989995D03*
G04 #@! TO.N,19*
X236550000D03*
G04 #@! TO.N,22*
X235550000D03*
G04 #@! TO.N,7*
X234550000D03*
G04 #@! TO.N,50*
X233550000D03*
G04 #@! TO.N,9*
X232550000D03*
G04 #@! TO.N,34*
X231550000D03*
G04 #@! TO.N,5*
X230550000D03*
G04 #@! TO.N,47*
X229550000D03*
G04 #@! TO.N,3*
X228550000D03*
G04 #@! TO.N,10*
D13*
X240698650Y128190100D03*
G04 #@! TO.N,4*
X241498650Y127390100D03*
G04 #@! TO.N,2*
X242298650Y128190100D03*
G04 #@! TO.N,15*
X243098650Y127390100D03*
G04 #@! TO.N,13*
X243898650Y128190100D03*
G04 #@! TO.N,11*
X244698650Y127390100D03*
G04 #@! TO.N,22*
X245498650Y128190100D03*
G04 #@! TO.N,8*
X246298650Y127390100D03*
G04 #@! TO.N,31*
X247098650Y128190100D03*
G04 #@! TO.N,29*
X247898650Y127390100D03*
G04 #@! TO.N,27*
X248698650Y128190100D03*
G04 #@! TO.N,37*
X249498650Y127390100D03*
G04 #@! TO.N,35*
X250298650Y128190100D03*
G04 #@! TO.N,43*
X251098650Y127390100D03*
G04 #@! TO.N,40*
X251898650Y128190100D03*
G04 #@! TO.N,34*
X227098650D03*
G04 #@! TO.N,47*
X227898650Y127390100D03*
G04 #@! TO.N,25*
X228698650Y128190100D03*
G04 #@! TO.N,52*
X229498650Y127390100D03*
G04 #@! TO.N,17*
X230298650Y128190100D03*
G04 #@! TO.N,55*
X231098650Y127390100D03*
G04 #@! TO.N,6*
X231898650Y128190100D03*
G04 #@! TO.N,50*
X232698650Y127390100D03*
G04 #@! TO.N,62*
X233498650Y128190100D03*
G04 #@! TO.N,51*
X234298650Y127390100D03*
G04 #@! TO.N,63*
X235098650Y128190100D03*
G04 #@! TO.N,45*
X235898650Y127390100D03*
G04 #@! TO.N,65*
X236698650Y128190100D03*
G04 #@! TO.N,38*
X237498650Y127390100D03*
G04 #@! TO.N,64*
X238298650Y128190100D03*
G04 #@! TO.N,32*
X239098650Y127390100D03*
G04 #@! TO.N,41*
X252698650D03*
G04 #@! TO.N,9*
Y141290100D03*
G04 #@! TO.N,56*
X251898650Y140490100D03*
G04 #@! TO.N,19*
X251098650Y141290100D03*
G04 #@! TO.N,54*
X250298650Y140490100D03*
G04 #@! TO.N,16*
X249498650Y141290100D03*
G04 #@! TO.N,59*
X248698650Y140490100D03*
G04 #@! TO.N,24*
X247898650Y141290100D03*
G04 #@! TO.N,61*
X247098650Y140490100D03*
G04 #@! TO.N,33*
X246298650Y141290100D03*
G04 #@! TO.N,57*
X245498650Y140490100D03*
G04 #@! TO.N,39*
X244698650Y141290100D03*
G04 #@! TO.N,58*
X243898650Y140490100D03*
G04 #@! TO.N,46*
X243098650Y141290100D03*
G04 #@! TO.N,53*
X242298650Y140490100D03*
G04 #@! TO.N,44*
X241498650Y141290100D03*
G04 #@! TO.N,48*
X240698650Y140490100D03*
G04 #@! TO.N,49*
X239098650Y141290100D03*
G04 #@! TO.N,7*
X238298650Y140490100D03*
G04 #@! TO.N,42*
X237498650Y141290100D03*
G04 #@! TO.N,18*
X236698650Y140490100D03*
G04 #@! TO.N,36*
X235898650Y141290100D03*
G04 #@! TO.N,26*
X235098650Y140490100D03*
G04 #@! TO.N,28*
X234298650Y141290100D03*
G04 #@! TO.N,30*
X233498650Y140490100D03*
G04 #@! TO.N,20*
X232698650Y141290100D03*
G04 #@! TO.N,21*
X231898650Y140490100D03*
G04 #@! TO.N,23*
X231098650Y141290100D03*
G04 #@! TO.N,12*
X230298650Y140490100D03*
G04 #@! TO.N,14*
X229498650Y141290100D03*
G04 #@! TO.N,1*
X228698650Y140490100D03*
G04 #@! TO.N,3*
X227898650Y141290100D03*
G04 #@! TO.N,5*
X227098650Y140490100D03*
G04 #@! TO.N,8*
X239098650Y153190200D03*
G04 #@! TO.N,6*
X238298650Y152390200D03*
G04 #@! TO.N,11*
X237498650Y153190200D03*
G04 #@! TO.N,17*
X236698650Y152390200D03*
G04 #@! TO.N,15*
X235898650Y153190200D03*
G04 #@! TO.N,25*
X235098650Y152390200D03*
G04 #@! TO.N,4*
X234298650Y153190200D03*
G04 #@! TO.N,34*
X233498650Y152390200D03*
G04 #@! TO.N,32*
X232698650Y153190200D03*
G04 #@! TO.N,40*
X231898650Y152390200D03*
G04 #@! TO.N,38*
X231098650Y153190200D03*
G04 #@! TO.N,35*
X230298650Y152390200D03*
G04 #@! TO.N,45*
X229498650Y153190200D03*
G04 #@! TO.N,27*
X228698650Y152390200D03*
G04 #@! TO.N,51*
X227898650Y153190200D03*
G04 #@! TO.N,31*
X227098650Y152390200D03*
G04 #@! TO.N,49*
X239098650Y161190200D03*
G04 #@! TO.N,56*
X238298650Y160390200D03*
G04 #@! TO.N,42*
X237498650Y161190200D03*
G04 #@! TO.N,54*
X236698650Y160390200D03*
G04 #@! TO.N,36*
X235898650Y161190200D03*
G04 #@! TO.N,59*
X235098650Y160390200D03*
G04 #@! TO.N,28*
X234298650Y161190200D03*
G04 #@! TO.N,61*
X233498650Y160390200D03*
G04 #@! TO.N,20*
X232698650Y161190200D03*
G04 #@! TO.N,57*
X231898650Y160390200D03*
G04 #@! TO.N,23*
X231098650Y161190200D03*
G04 #@! TO.N,58*
X230298650Y160390200D03*
G04 #@! TO.N,14*
X229498650Y161190200D03*
G04 #@! TO.N,53*
X228698650Y160390200D03*
G04 #@! TO.N,3*
X227898650Y161190200D03*
G04 #@! TO.N,48*
X227098650Y160390200D03*
G04 #@! TO.N,50*
X252698650Y153190200D03*
G04 #@! TO.N,22*
X251898650Y152390200D03*
G04 #@! TO.N,55*
X251098650Y153190200D03*
G04 #@! TO.N,13*
X250298650Y152390200D03*
G04 #@! TO.N,52*
X249498650Y153190200D03*
G04 #@! TO.N,2*
X248698650Y152390200D03*
G04 #@! TO.N,47*
X247898650Y153190200D03*
G04 #@! TO.N,10*
X247098650Y152390200D03*
G04 #@! TO.N,41*
X246298650Y153190200D03*
G04 #@! TO.N,64*
X245498650Y152390200D03*
G04 #@! TO.N,43*
X244698650Y153190200D03*
G04 #@! TO.N,65*
X243898650Y152390200D03*
G04 #@! TO.N,37*
X243098650Y153190200D03*
G04 #@! TO.N,63*
X242298650Y152390200D03*
G04 #@! TO.N,29*
X241498650Y153190200D03*
G04 #@! TO.N,62*
X240698650Y152390200D03*
G04 #@! TO.N,9*
X252698650Y161190200D03*
G04 #@! TO.N,7*
X251898650Y160390200D03*
G04 #@! TO.N,19*
X251098650Y161190200D03*
G04 #@! TO.N,18*
X250298650Y160390200D03*
G04 #@! TO.N,16*
X249498650Y161190200D03*
G04 #@! TO.N,26*
X248698650Y160390200D03*
G04 #@! TO.N,24*
X247898650Y161190200D03*
G04 #@! TO.N,30*
X247098650Y160390200D03*
G04 #@! TO.N,33*
X246298650Y161190200D03*
G04 #@! TO.N,21*
X245498650Y160390200D03*
G04 #@! TO.N,39*
X244698650Y161190200D03*
G04 #@! TO.N,12*
X243898650Y160390200D03*
G04 #@! TO.N,46*
X243098650Y161190200D03*
G04 #@! TO.N,1*
X242298650Y160390200D03*
G04 #@! TO.N,44*
X241498650Y161190200D03*
G04 #@! TO.N,5*
X240698650Y160390200D03*
G04 #@! TO.N,9*
X252698650Y161190200D03*
G04 #@! TO.N,7*
X251898650Y160390200D03*
G04 #@! TO.N,19*
X251098650Y161190200D03*
G04 #@! TO.N,18*
X250298650Y160390200D03*
G04 #@! TO.N,16*
X249498650Y161190200D03*
G04 #@! TO.N,26*
X248698650Y160390200D03*
G04 #@! TO.N,24*
X247898650Y161190200D03*
G04 #@! TO.N,30*
X247098650Y160390200D03*
G04 #@! TO.N,33*
X246298650Y161190200D03*
G04 #@! TO.N,21*
X245498650Y160390200D03*
G04 #@! TO.N,39*
X244698650Y161190200D03*
G04 #@! TO.N,12*
X243898650Y160390200D03*
G04 #@! TO.N,46*
X243098650Y161190200D03*
G04 #@! TO.N,1*
X242298650Y160390200D03*
G04 #@! TO.N,44*
X241498650Y161190200D03*
G04 #@! TO.N,5*
X240698650Y160390200D03*
%LPD*%
M02*