G04 #@! TF.FileFunction,Copper,L10,Bot*
G04 #@! TF.FilePolarity,Positive*
G04 #@! TF.SameCoordinates,1cDX9PD3q2MVNQUlwPAFNq2hZJss5yh*
G04 #@! TF.CreationDate,2025-09-04T08:30:56+0200*
G04 #@! TF.GenerationSoftware,Ucamco,UcamX,v2023.12-240208*
%FSLAX36Y36*%
%MOMM*%
%AMBOXR*
$16=$1/2*
$17=$2/2*
$8=$16-$3*
$9=$17-$3*
$10=$8X$6*
$11=$8X$5*
$12=$9X$6*
$13=$9X$5*
$15=2X$3*
$18=0-$10*
$19=0-$11*
21,1-$7,$1,$2-$15,0,0,$4*
21,1-$7,$1-$15,$2,0,0,$4*
1,1-$7,$15,$10-$13,$11+$12*
1,1-$7,$15,$18-$13,$12-$11*
1,1-$7,$15,$10+$13,$11-$12*
1,1-$7,$15,$13-$10,$19-$12*%
%ADD10BOXR,0.600000X0.800000X0.250000X45.00X0.707107X0.707107X0*%
%ADD11C,0.550000*%
%ADD12C,0.250000*%
%ADD13C,0.650000*%
G04 layer name: DFS3498AM4_bot*
%LPD*%
G04 #@! TO.N,1*
D10*
X237500000Y85339995D03*
G04 #@! TO.N,2*
X236500000D03*
G04 #@! TO.N,3*
X235500000D03*
G04 #@! TO.N,4*
X234500000D03*
G04 #@! TO.N,5*
X233500000D03*
G04 #@! TO.N,6*
X232500000D03*
G04 #@! TO.N,7*
X231500000D03*
G04 #@! TO.N,8*
X230500000D03*
G04 #@! TO.N,9*
X229500000D03*
G04 #@! TO.N,10*
X228500000D03*
G04 #@! TO.N,11*
X237500000Y86339995D03*
G04 #@! TO.N,12*
X236500000D03*
G04 #@! TO.N,13*
X235500000D03*
G04 #@! TO.N,14*
X234500000D03*
G04 #@! TO.N,15*
X233500000D03*
G04 #@! TO.N,16*
X232500000D03*
G04 #@! TO.N,17*
X231500000D03*
G04 #@! TO.N,18*
X230500000D03*
G04 #@! TO.N,11*
X229500000D03*
G04 #@! TO.N,19*
X228500000D03*
G04 #@! TO.N,20*
X237500000Y87339995D03*
G04 #@! TO.N,8*
X236500000D03*
G04 #@! TO.N,21*
X235500000D03*
G04 #@! TO.N,22*
X234500000D03*
G04 #@! TO.N,23*
X233500000D03*
G04 #@! TO.N,4*
X232500000D03*
G04 #@! TO.N,24*
X231500000D03*
G04 #@! TO.N,25*
X230500000D03*
G04 #@! TO.N,26*
X229500000D03*
G04 #@! TO.N,15*
X228500000D03*
G04 #@! TO.N,27*
X237500000Y88339995D03*
G04 #@! TO.N,28*
X236500000D03*
G04 #@! TO.N,29*
X235500000D03*
G04 #@! TO.N,30*
X234500000D03*
G04 #@! TO.N,31*
X233500000D03*
G04 #@! TO.N,21*
X232500000D03*
G04 #@! TO.N,32*
X231500000D03*
G04 #@! TO.N,33*
X230500000D03*
G04 #@! TO.N,34*
X229500000D03*
G04 #@! TO.N,30*
X228500000D03*
G04 #@! TO.N,18*
X237500000Y89339995D03*
G04 #@! TO.N,35*
X236500000D03*
G04 #@! TO.N,36*
X235500000D03*
G04 #@! TO.N,37*
X234500000D03*
G04 #@! TO.N,26*
X233500000D03*
G04 #@! TO.N,35*
X232500000D03*
G04 #@! TO.N,12*
X231500000D03*
G04 #@! TO.N,38*
X230500000D03*
G04 #@! TO.N,39*
X229500000D03*
G04 #@! TO.N,40*
X228500000D03*
G04 #@! TO.N,41*
X237500000Y90339995D03*
G04 #@! TO.N,7*
X236500000D03*
G04 #@! TO.N,40*
X235500000D03*
G04 #@! TO.N,42*
X234500000D03*
G04 #@! TO.N,43*
X233500000D03*
G04 #@! TO.N,44*
X232500000D03*
G04 #@! TO.N,27*
X231500000D03*
G04 #@! TO.N,1*
X230500000D03*
G04 #@! TO.N,45*
X229500000D03*
G04 #@! TO.N,46*
X228500000D03*
G04 #@! TO.N,44*
X237500000Y91339995D03*
G04 #@! TO.N,47*
X236500000D03*
G04 #@! TO.N,48*
X235500000D03*
G04 #@! TO.N,34*
X234500000D03*
G04 #@! TO.N,49*
X233500000D03*
G04 #@! TO.N,50*
X232500000D03*
G04 #@! TO.N,49*
X231500000D03*
G04 #@! TO.N,31*
X230500000D03*
G04 #@! TO.N,5*
X229500000D03*
G04 #@! TO.N,51*
X228500000D03*
G04 #@! TO.N,17*
X237500000Y92339995D03*
G04 #@! TO.N,46*
X236500000D03*
G04 #@! TO.N,52*
X235500000D03*
G04 #@! TO.N,53*
X234500000D03*
G04 #@! TO.N,25*
X233500000D03*
G04 #@! TO.N,54*
X232500000D03*
G04 #@! TO.N,55*
X231500000D03*
G04 #@! TO.N,42*
X230500000D03*
G04 #@! TO.N,22*
X229500000D03*
G04 #@! TO.N,56*
X228500000D03*
G04 #@! TO.N,57*
X237500000Y93339995D03*
G04 #@! TO.N,6*
X236500000D03*
G04 #@! TO.N,39*
X235500000D03*
G04 #@! TO.N,55*
X234500000D03*
G04 #@! TO.N,58*
X233500000D03*
G04 #@! TO.N,2*
X232500000D03*
G04 #@! TO.N,59*
X231500000D03*
G04 #@! TO.N,52*
X230500000D03*
G04 #@! TO.N,36*
X229500000D03*
G04 #@! TO.N,13*
X228500000D03*
G04 #@! TO.N,60*
X237500000Y94339995D03*
X236500000D03*
X235500000D03*
X234500000D03*
X233500000D03*
X232500000D03*
X231500000D03*
X230500000D03*
X229500000D03*
X228500000D03*
X237500000Y95339995D03*
X236500000D03*
X235500000D03*
X234500000D03*
X233500000D03*
X232500000D03*
X231500000D03*
X230500000D03*
X229500000D03*
X228500000D03*
G04 #@! TO.N,61*
X237500000Y96339995D03*
G04 #@! TO.N,62*
X236500000D03*
G04 #@! TO.N,33*
X235500000D03*
G04 #@! TO.N,50*
X234500000D03*
G04 #@! TO.N,60*
X233500000D03*
G04 #@! TO.N,20*
X232500000D03*
G04 #@! TO.N,10*
X231500000D03*
G04 #@! TO.N,61*
X230500000D03*
G04 #@! TO.N,47*
X229500000D03*
G04 #@! TO.N,28*
X228500000D03*
G04 #@! TO.N,59*
X237500000Y97339995D03*
G04 #@! TO.N,63*
X236500000D03*
G04 #@! TO.N,24*
X235500000D03*
G04 #@! TO.N,51*
X234500000D03*
G04 #@! TO.N,60*
X233500000D03*
G04 #@! TO.N,43*
X232500000D03*
G04 #@! TO.N,23*
X231500000D03*
G04 #@! TO.N,64*
X230500000D03*
G04 #@! TO.N,57*
X229500000D03*
G04 #@! TO.N,41*
X228500000D03*
G04 #@! TO.N,38*
X237500000Y98339995D03*
G04 #@! TO.N,54*
X236500000D03*
G04 #@! TO.N,65*
X235500000D03*
G04 #@! TO.N,16*
X234500000D03*
G04 #@! TO.N,45*
X233500000D03*
G04 #@! TO.N,53*
X232500000D03*
G04 #@! TO.N,37*
X231500000D03*
G04 #@! TO.N,14*
X230500000D03*
G04 #@! TO.N,65*
X229500000D03*
G04 #@! TO.N,58*
X228500000D03*
G04 #@! TO.N,9*
X237500000Y99339995D03*
G04 #@! TO.N,32*
X236500000D03*
G04 #@! TO.N,56*
X235500000D03*
G04 #@! TO.N,64*
X234500000D03*
G04 #@! TO.N,19*
X233500000D03*
G04 #@! TO.N,62*
X232500000D03*
G04 #@! TO.N,48*
X231500000D03*
G04 #@! TO.N,29*
X230500000D03*
G04 #@! TO.N,3*
X229500000D03*
G04 #@! TO.N,63*
X228500000D03*
G04 #@! TO.N,31*
X237500000Y100339995D03*
G04 #@! TO.N,48*
X236500000D03*
G04 #@! TO.N,51*
X235500000D03*
G04 #@! TO.N,3*
X234500000D03*
G04 #@! TO.N,27*
X233500000D03*
G04 #@! TO.N,19*
X232500000D03*
G04 #@! TO.N,40*
X231500000D03*
G04 #@! TO.N,56*
X230500000D03*
G04 #@! TO.N,41*
X229500000D03*
G04 #@! TO.N,9*
X228500000D03*
G04 #@! TO.N,53*
X237500000Y101339995D03*
G04 #@! TO.N,45*
X236500000D03*
G04 #@! TO.N,14*
X235500000D03*
G04 #@! TO.N,35*
X234500000D03*
G04 #@! TO.N,58*
X233500000D03*
G04 #@! TO.N,37*
X232500000D03*
G04 #@! TO.N,16*
X231500000D03*
G04 #@! TO.N,35*
X230500000D03*
G04 #@! TO.N,54*
X229500000D03*
G04 #@! TO.N,43*
X228500000D03*
G04 #@! TO.N,38*
X237500000Y102339995D03*
G04 #@! TO.N,23*
X236500000D03*
G04 #@! TO.N,40*
X235500000D03*
G04 #@! TO.N,57*
X234500000D03*
G04 #@! TO.N,60*
X233500000D03*
G04 #@! TO.N,61*
X232500000D03*
G04 #@! TO.N,29*
X231500000D03*
G04 #@! TO.N,24*
X230500000D03*
G04 #@! TO.N,27*
X229500000D03*
G04 #@! TO.N,59*
X228500000D03*
G04 #@! TO.N,32*
X237500000Y103339995D03*
G04 #@! TO.N,20*
X236500000D03*
G04 #@! TO.N,34*
X235500000D03*
G04 #@! TO.N,61*
X234500000D03*
G04 #@! TO.N,60*
X233500000D03*
G04 #@! TO.N,22*
X232500000D03*
G04 #@! TO.N,57*
X231500000D03*
G04 #@! TO.N,8*
X230500000D03*
G04 #@! TO.N,33*
X229500000D03*
G04 #@! TO.N,31*
X228500000D03*
G04 #@! TO.N,60*
X237500000Y104339995D03*
X236500000D03*
X235500000D03*
X234500000D03*
X233500000D03*
X232500000D03*
X231500000D03*
X230500000D03*
X229500000D03*
X228500000D03*
X237500000Y105339995D03*
X236500000D03*
X235500000D03*
X234500000D03*
X233500000D03*
X232500000D03*
X231500000D03*
X230500000D03*
X229500000D03*
X228500000D03*
G04 #@! TO.N,4*
X237500000Y106339995D03*
G04 #@! TO.N,28*
X236500000D03*
G04 #@! TO.N,25*
X235500000D03*
G04 #@! TO.N,59*
X234500000D03*
G04 #@! TO.N,15*
X233500000D03*
G04 #@! TO.N,46*
X232500000D03*
G04 #@! TO.N,13*
X231500000D03*
G04 #@! TO.N,58*
X230500000D03*
G04 #@! TO.N,11*
X229500000D03*
G04 #@! TO.N,39*
X228500000D03*
G04 #@! TO.N,36*
X237500000Y107339995D03*
G04 #@! TO.N,17*
X236500000D03*
G04 #@! TO.N,54*
X235500000D03*
G04 #@! TO.N,11*
X234500000D03*
G04 #@! TO.N,42*
X233500000D03*
G04 #@! TO.N,4*
X232500000D03*
G04 #@! TO.N,44*
X231500000D03*
G04 #@! TO.N,2*
X230500000D03*
G04 #@! TO.N,53*
X229500000D03*
G04 #@! TO.N,15*
X228500000D03*
G04 #@! TO.N,6*
X237500000Y108339995D03*
G04 #@! TO.N,56*
X236500000D03*
G04 #@! TO.N,8*
X235500000D03*
G04 #@! TO.N,49*
X234500000D03*
G04 #@! TO.N,62*
X233500000D03*
G04 #@! TO.N,7*
X232500000D03*
G04 #@! TO.N,32*
X231500000D03*
G04 #@! TO.N,49*
X230500000D03*
G04 #@! TO.N,10*
X229500000D03*
G04 #@! TO.N,48*
X228500000D03*
G04 #@! TO.N,5*
X237500000Y109339995D03*
G04 #@! TO.N,29*
X236500000D03*
G04 #@! TO.N,44*
X235500000D03*
G04 #@! TO.N,63*
X234500000D03*
G04 #@! TO.N,1*
X233500000D03*
G04 #@! TO.N,65*
X232500000D03*
G04 #@! TO.N,18*
X231500000D03*
G04 #@! TO.N,38*
X230500000D03*
G04 #@! TO.N,42*
X229500000D03*
G04 #@! TO.N,64*
X228500000D03*
G04 #@! TO.N,37*
X237500000Y110339995D03*
G04 #@! TO.N,46*
X236500000D03*
G04 #@! TO.N,65*
X235500000D03*
G04 #@! TO.N,12*
X234500000D03*
G04 #@! TO.N,43*
X233500000D03*
G04 #@! TO.N,28*
X232500000D03*
G04 #@! TO.N,63*
X231500000D03*
G04 #@! TO.N,26*
X230500000D03*
G04 #@! TO.N,45*
X229500000D03*
G04 #@! TO.N,36*
X228500000D03*
G04 #@! TO.N,39*
X237500000Y111339995D03*
G04 #@! TO.N,64*
X236500000D03*
G04 #@! TO.N,21*
X235500000D03*
G04 #@! TO.N,41*
X234500000D03*
G04 #@! TO.N,33*
X233500000D03*
G04 #@! TO.N,50*
X232500000D03*
G04 #@! TO.N,20*
X231500000D03*
G04 #@! TO.N,62*
X230500000D03*
G04 #@! TO.N,30*
X229500000D03*
G04 #@! TO.N,51*
X228500000D03*
G04 #@! TO.N,10*
X237500000Y112339995D03*
G04 #@! TO.N,30*
X236500000D03*
G04 #@! TO.N,47*
X235500000D03*
G04 #@! TO.N,24*
X234500000D03*
G04 #@! TO.N,2*
X233500000D03*
G04 #@! TO.N,12*
X232500000D03*
G04 #@! TO.N,55*
X231500000D03*
G04 #@! TO.N,23*
X230500000D03*
G04 #@! TO.N,6*
X229500000D03*
G04 #@! TO.N,21*
X228500000D03*
G04 #@! TO.N,26*
X237500000Y113339995D03*
G04 #@! TO.N,52*
X236500000D03*
G04 #@! TO.N,16*
X235500000D03*
G04 #@! TO.N,13*
X234500000D03*
G04 #@! TO.N,18*
X233500000D03*
G04 #@! TO.N,25*
X232500000D03*
G04 #@! TO.N,1*
X231500000D03*
G04 #@! TO.N,52*
X230500000D03*
G04 #@! TO.N,14*
X229500000D03*
G04 #@! TO.N,17*
X228500000D03*
G04 #@! TO.N,55*
X237500000Y114339995D03*
G04 #@! TO.N,19*
X236500000D03*
G04 #@! TO.N,22*
X235500000D03*
G04 #@! TO.N,7*
X234500000D03*
G04 #@! TO.N,50*
X233500000D03*
G04 #@! TO.N,9*
X232500000D03*
G04 #@! TO.N,34*
X231500000D03*
G04 #@! TO.N,5*
X230500000D03*
G04 #@! TO.N,47*
X229500000D03*
G04 #@! TO.N,3*
X228500000D03*
G04 #@! TO.N,1*
D11*
X237850000Y84989995D03*
G04 #@! TO.N,2*
X236850000D03*
G04 #@! TO.N,3*
X235850000D03*
G04 #@! TO.N,4*
X234850000D03*
G04 #@! TO.N,5*
X233850000D03*
G04 #@! TO.N,6*
X232850000D03*
G04 #@! TO.N,7*
X231850000D03*
G04 #@! TO.N,8*
X230850000D03*
G04 #@! TO.N,9*
X229850000D03*
G04 #@! TO.N,10*
X228850000D03*
G04 #@! TO.N,11*
X237850000Y85989995D03*
G04 #@! TO.N,12*
X236850000D03*
G04 #@! TO.N,13*
X235850000D03*
G04 #@! TO.N,14*
X234850000D03*
G04 #@! TO.N,15*
X233850000D03*
G04 #@! TO.N,16*
X232850000D03*
G04 #@! TO.N,17*
X231850000D03*
G04 #@! TO.N,18*
X230850000D03*
G04 #@! TO.N,11*
X229850000D03*
G04 #@! TO.N,19*
X228850000D03*
G04 #@! TO.N,20*
X237850000Y86989995D03*
G04 #@! TO.N,8*
X236850000D03*
G04 #@! TO.N,21*
X235850000D03*
G04 #@! TO.N,22*
X234850000D03*
G04 #@! TO.N,23*
X233850000D03*
G04 #@! TO.N,4*
X232850000D03*
G04 #@! TO.N,24*
X231850000D03*
G04 #@! TO.N,25*
X230850000D03*
G04 #@! TO.N,26*
X229850000D03*
G04 #@! TO.N,15*
X228850000D03*
G04 #@! TO.N,27*
X237850000Y87989995D03*
G04 #@! TO.N,28*
X236850000D03*
G04 #@! TO.N,29*
X235850000D03*
G04 #@! TO.N,30*
X234850000D03*
G04 #@! TO.N,31*
X233850000D03*
G04 #@! TO.N,21*
X232850000D03*
G04 #@! TO.N,32*
X231850000D03*
G04 #@! TO.N,33*
X230850000D03*
G04 #@! TO.N,34*
X229850000D03*
G04 #@! TO.N,30*
X228850000D03*
G04 #@! TO.N,18*
X237850000Y88989995D03*
G04 #@! TO.N,35*
X236850000D03*
G04 #@! TO.N,36*
X235850000D03*
G04 #@! TO.N,37*
X234850000D03*
G04 #@! TO.N,26*
X233850000D03*
G04 #@! TO.N,35*
X232850000D03*
G04 #@! TO.N,12*
X231850000D03*
G04 #@! TO.N,38*
X230850000D03*
G04 #@! TO.N,39*
X229850000D03*
G04 #@! TO.N,40*
X228850000D03*
G04 #@! TO.N,41*
X237850000Y89989995D03*
G04 #@! TO.N,7*
X236850000D03*
G04 #@! TO.N,40*
X235850000D03*
G04 #@! TO.N,42*
X234850000D03*
G04 #@! TO.N,43*
X233850000D03*
G04 #@! TO.N,44*
X232850000D03*
G04 #@! TO.N,27*
X231850000D03*
G04 #@! TO.N,1*
X230850000D03*
G04 #@! TO.N,45*
X229850000D03*
G04 #@! TO.N,46*
X228850000D03*
G04 #@! TO.N,44*
X237850000Y90989995D03*
G04 #@! TO.N,47*
X236850000D03*
G04 #@! TO.N,48*
X235850000D03*
G04 #@! TO.N,34*
X234850000D03*
G04 #@! TO.N,49*
X233850000D03*
G04 #@! TO.N,50*
X232850000D03*
G04 #@! TO.N,49*
X231850000D03*
G04 #@! TO.N,31*
X230850000D03*
G04 #@! TO.N,5*
X229850000D03*
G04 #@! TO.N,51*
X228850000D03*
G04 #@! TO.N,17*
X237850000Y91989995D03*
G04 #@! TO.N,46*
X236850000D03*
G04 #@! TO.N,52*
X235850000D03*
G04 #@! TO.N,53*
X234850000D03*
G04 #@! TO.N,25*
X233850000D03*
G04 #@! TO.N,54*
X232850000D03*
G04 #@! TO.N,55*
X231850000D03*
G04 #@! TO.N,42*
X230850000D03*
G04 #@! TO.N,22*
X229850000D03*
G04 #@! TO.N,56*
X228850000D03*
G04 #@! TO.N,57*
X237850000Y92989995D03*
G04 #@! TO.N,6*
X236850000D03*
G04 #@! TO.N,39*
X235850000D03*
G04 #@! TO.N,55*
X234850000D03*
G04 #@! TO.N,58*
X233850000D03*
G04 #@! TO.N,2*
X232850000D03*
G04 #@! TO.N,59*
X231850000D03*
G04 #@! TO.N,52*
X230850000D03*
G04 #@! TO.N,36*
X229850000D03*
G04 #@! TO.N,13*
X228850000D03*
G04 #@! TO.N,60*
X237850000Y93989995D03*
X236850000D03*
X235850000D03*
X234850000D03*
X233850000D03*
X232850000D03*
X231850000D03*
X230850000D03*
X229850000D03*
X228850000D03*
X237850000Y94989995D03*
X236850000D03*
X235850000D03*
X234850000D03*
X233850000D03*
X232850000D03*
X231850000D03*
X230850000D03*
X229850000D03*
X228850000D03*
G04 #@! TO.N,61*
X237850000Y95989995D03*
G04 #@! TO.N,62*
X236850000D03*
G04 #@! TO.N,33*
X235850000D03*
G04 #@! TO.N,50*
X234850000D03*
G04 #@! TO.N,60*
X233850000D03*
G04 #@! TO.N,20*
X232850000D03*
G04 #@! TO.N,10*
X231850000D03*
G04 #@! TO.N,61*
X230850000D03*
G04 #@! TO.N,47*
X229850000D03*
G04 #@! TO.N,28*
X228850000D03*
G04 #@! TO.N,59*
X237850000Y96989995D03*
G04 #@! TO.N,63*
X236850000D03*
G04 #@! TO.N,24*
X235850000D03*
G04 #@! TO.N,51*
X234850000D03*
G04 #@! TO.N,60*
X233850000D03*
G04 #@! TO.N,43*
X232850000D03*
G04 #@! TO.N,23*
X231850000D03*
G04 #@! TO.N,64*
X230850000D03*
G04 #@! TO.N,57*
X229850000D03*
G04 #@! TO.N,41*
X228850000D03*
G04 #@! TO.N,38*
X237850000Y97989995D03*
G04 #@! TO.N,54*
X236850000D03*
G04 #@! TO.N,65*
X235850000D03*
G04 #@! TO.N,16*
X234850000D03*
G04 #@! TO.N,45*
X233850000D03*
G04 #@! TO.N,53*
X232850000D03*
G04 #@! TO.N,37*
X231850000D03*
G04 #@! TO.N,14*
X230850000D03*
G04 #@! TO.N,65*
X229850000D03*
G04 #@! TO.N,58*
X228850000D03*
G04 #@! TO.N,9*
X237850000Y98989995D03*
G04 #@! TO.N,32*
X236850000D03*
G04 #@! TO.N,56*
X235850000D03*
G04 #@! TO.N,64*
X234850000D03*
G04 #@! TO.N,19*
X233850000D03*
G04 #@! TO.N,62*
X232850000D03*
G04 #@! TO.N,48*
X231850000D03*
G04 #@! TO.N,29*
X230850000D03*
G04 #@! TO.N,3*
X229850000D03*
G04 #@! TO.N,63*
X228850000D03*
G04 #@! TO.N,31*
X237850000Y99989995D03*
G04 #@! TO.N,48*
X236850000D03*
G04 #@! TO.N,51*
X235850000D03*
G04 #@! TO.N,3*
X234850000D03*
G04 #@! TO.N,27*
X233850000D03*
G04 #@! TO.N,19*
X232850000D03*
G04 #@! TO.N,40*
X231850000D03*
G04 #@! TO.N,56*
X230850000D03*
G04 #@! TO.N,41*
X229850000D03*
G04 #@! TO.N,9*
X228850000D03*
G04 #@! TO.N,53*
X237850000Y100989995D03*
G04 #@! TO.N,45*
X236850000D03*
G04 #@! TO.N,14*
X235850000D03*
G04 #@! TO.N,35*
X234850000D03*
G04 #@! TO.N,58*
X233850000D03*
G04 #@! TO.N,37*
X232850000D03*
G04 #@! TO.N,16*
X231850000D03*
G04 #@! TO.N,35*
X230850000D03*
G04 #@! TO.N,54*
X229850000D03*
G04 #@! TO.N,43*
X228850000D03*
G04 #@! TO.N,38*
X237850000Y101989995D03*
G04 #@! TO.N,23*
X236850000D03*
G04 #@! TO.N,40*
X235850000D03*
G04 #@! TO.N,57*
X234850000D03*
G04 #@! TO.N,60*
X233850000D03*
G04 #@! TO.N,61*
X232850000D03*
G04 #@! TO.N,29*
X231850000D03*
G04 #@! TO.N,24*
X230850000D03*
G04 #@! TO.N,27*
X229850000D03*
G04 #@! TO.N,59*
X228850000D03*
G04 #@! TO.N,32*
X237850000Y102989995D03*
G04 #@! TO.N,20*
X236850000D03*
G04 #@! TO.N,34*
X235850000D03*
G04 #@! TO.N,61*
X234850000D03*
G04 #@! TO.N,60*
X233850000D03*
G04 #@! TO.N,22*
X232850000D03*
G04 #@! TO.N,57*
X231850000D03*
G04 #@! TO.N,8*
X230850000D03*
G04 #@! TO.N,33*
X229850000D03*
G04 #@! TO.N,31*
X228850000D03*
G04 #@! TO.N,60*
X237850000Y103989995D03*
X236850000D03*
X235850000D03*
X234850000D03*
X233850000D03*
X232850000D03*
X231850000D03*
X230850000D03*
X229850000D03*
X228850000D03*
X237850000Y104989995D03*
X236850000D03*
X235850000D03*
X234850000D03*
X233850000D03*
X232850000D03*
X231850000D03*
X230850000D03*
X229850000D03*
X228850000D03*
G04 #@! TO.N,4*
X237850000Y105989995D03*
G04 #@! TO.N,28*
X236850000D03*
G04 #@! TO.N,25*
X235850000D03*
G04 #@! TO.N,59*
X234850000D03*
G04 #@! TO.N,15*
X233850000D03*
G04 #@! TO.N,46*
X232850000D03*
G04 #@! TO.N,13*
X231850000D03*
G04 #@! TO.N,58*
X230850000D03*
G04 #@! TO.N,11*
X229850000D03*
G04 #@! TO.N,39*
X228850000D03*
G04 #@! TO.N,36*
X237850000Y106989995D03*
G04 #@! TO.N,17*
X236850000D03*
G04 #@! TO.N,54*
X235850000D03*
G04 #@! TO.N,11*
X234850000D03*
G04 #@! TO.N,42*
X233850000D03*
G04 #@! TO.N,4*
X232850000D03*
G04 #@! TO.N,44*
X231850000D03*
G04 #@! TO.N,2*
X230850000D03*
G04 #@! TO.N,53*
X229850000D03*
G04 #@! TO.N,15*
X228850000D03*
G04 #@! TO.N,6*
X237850000Y107989995D03*
G04 #@! TO.N,56*
X236850000D03*
G04 #@! TO.N,8*
X235850000D03*
G04 #@! TO.N,49*
X234850000D03*
G04 #@! TO.N,62*
X233850000D03*
G04 #@! TO.N,7*
X232850000D03*
G04 #@! TO.N,32*
X231850000D03*
G04 #@! TO.N,49*
X230850000D03*
G04 #@! TO.N,10*
X229850000D03*
G04 #@! TO.N,48*
X228850000D03*
G04 #@! TO.N,5*
X237850000Y108989995D03*
G04 #@! TO.N,29*
X236850000D03*
G04 #@! TO.N,44*
X235850000D03*
G04 #@! TO.N,63*
X234850000D03*
G04 #@! TO.N,1*
X233850000D03*
G04 #@! TO.N,65*
X232850000D03*
G04 #@! TO.N,18*
X231850000D03*
G04 #@! TO.N,38*
X230850000D03*
G04 #@! TO.N,42*
X229850000D03*
G04 #@! TO.N,64*
X228850000D03*
G04 #@! TO.N,37*
X237850000Y109989995D03*
G04 #@! TO.N,46*
X236850000D03*
G04 #@! TO.N,65*
X235850000D03*
G04 #@! TO.N,12*
X234850000D03*
G04 #@! TO.N,43*
X233850000D03*
G04 #@! TO.N,28*
X232850000D03*
G04 #@! TO.N,63*
X231850000D03*
G04 #@! TO.N,26*
X230850000D03*
G04 #@! TO.N,45*
X229850000D03*
G04 #@! TO.N,36*
X228850000D03*
G04 #@! TO.N,39*
X237850000Y110989995D03*
G04 #@! TO.N,64*
X236850000D03*
G04 #@! TO.N,21*
X235850000D03*
G04 #@! TO.N,41*
X234850000D03*
G04 #@! TO.N,33*
X233850000D03*
G04 #@! TO.N,50*
X232850000D03*
G04 #@! TO.N,20*
X231850000D03*
G04 #@! TO.N,62*
X230850000D03*
G04 #@! TO.N,30*
X229850000D03*
G04 #@! TO.N,51*
X228850000D03*
G04 #@! TO.N,10*
X237850000Y111989995D03*
G04 #@! TO.N,30*
X236850000D03*
G04 #@! TO.N,47*
X235850000D03*
G04 #@! TO.N,24*
X234850000D03*
G04 #@! TO.N,2*
X233850000D03*
G04 #@! TO.N,12*
X232850000D03*
G04 #@! TO.N,55*
X231850000D03*
G04 #@! TO.N,23*
X230850000D03*
G04 #@! TO.N,6*
X229850000D03*
G04 #@! TO.N,21*
X228850000D03*
G04 #@! TO.N,26*
X237850000Y112989995D03*
G04 #@! TO.N,52*
X236850000D03*
G04 #@! TO.N,16*
X235850000D03*
G04 #@! TO.N,13*
X234850000D03*
G04 #@! TO.N,18*
X233850000D03*
G04 #@! TO.N,25*
X232850000D03*
G04 #@! TO.N,1*
X231850000D03*
G04 #@! TO.N,52*
X230850000D03*
G04 #@! TO.N,14*
X229850000D03*
G04 #@! TO.N,17*
X228850000D03*
G04 #@! TO.N,55*
X237850000Y113989995D03*
G04 #@! TO.N,19*
X236850000D03*
G04 #@! TO.N,22*
X235850000D03*
G04 #@! TO.N,7*
X234850000D03*
G04 #@! TO.N,50*
X233850000D03*
G04 #@! TO.N,9*
X232850000D03*
G04 #@! TO.N,34*
X231850000D03*
G04 #@! TO.N,5*
X230850000D03*
G04 #@! TO.N,47*
X229850000D03*
G04 #@! TO.N,3*
X228850000D03*
G04 #@! TO.N,1*
D12*
X237850000Y84989995D03*
G04 #@! TO.N,2*
X236850000D03*
G04 #@! TO.N,3*
X235850000D03*
G04 #@! TO.N,4*
X234850000D03*
G04 #@! TO.N,5*
X233850000D03*
G04 #@! TO.N,6*
X232850000D03*
G04 #@! TO.N,7*
X231850000D03*
G04 #@! TO.N,8*
X230850000D03*
G04 #@! TO.N,9*
X229850000D03*
G04 #@! TO.N,10*
X228850000D03*
G04 #@! TO.N,11*
X237850000Y85989995D03*
G04 #@! TO.N,12*
X236850000D03*
G04 #@! TO.N,13*
X235850000D03*
G04 #@! TO.N,14*
X234850000D03*
G04 #@! TO.N,15*
X233850000D03*
G04 #@! TO.N,16*
X232850000D03*
G04 #@! TO.N,17*
X231850000D03*
G04 #@! TO.N,18*
X230850000D03*
G04 #@! TO.N,11*
X229850000D03*
G04 #@! TO.N,19*
X228850000D03*
G04 #@! TO.N,20*
X237850000Y86989995D03*
G04 #@! TO.N,8*
X236850000D03*
G04 #@! TO.N,21*
X235850000D03*
G04 #@! TO.N,22*
X234850000D03*
G04 #@! TO.N,23*
X233850000D03*
G04 #@! TO.N,4*
X232850000D03*
G04 #@! TO.N,24*
X231850000D03*
G04 #@! TO.N,25*
X230850000D03*
G04 #@! TO.N,26*
X229850000D03*
G04 #@! TO.N,15*
X228850000D03*
G04 #@! TO.N,27*
X237850000Y87989995D03*
G04 #@! TO.N,28*
X236850000D03*
G04 #@! TO.N,29*
X235850000D03*
G04 #@! TO.N,30*
X234850000D03*
G04 #@! TO.N,31*
X233850000D03*
G04 #@! TO.N,21*
X232850000D03*
G04 #@! TO.N,32*
X231850000D03*
G04 #@! TO.N,33*
X230850000D03*
G04 #@! TO.N,34*
X229850000D03*
G04 #@! TO.N,30*
X228850000D03*
G04 #@! TO.N,18*
X237850000Y88989995D03*
G04 #@! TO.N,35*
X236850000D03*
G04 #@! TO.N,36*
X235850000D03*
G04 #@! TO.N,37*
X234850000D03*
G04 #@! TO.N,26*
X233850000D03*
G04 #@! TO.N,35*
X232850000D03*
G04 #@! TO.N,12*
X231850000D03*
G04 #@! TO.N,38*
X230850000D03*
G04 #@! TO.N,39*
X229850000D03*
G04 #@! TO.N,40*
X228850000D03*
G04 #@! TO.N,41*
X237850000Y89989995D03*
G04 #@! TO.N,7*
X236850000D03*
G04 #@! TO.N,40*
X235850000D03*
G04 #@! TO.N,42*
X234850000D03*
G04 #@! TO.N,43*
X233850000D03*
G04 #@! TO.N,44*
X232850000D03*
G04 #@! TO.N,27*
X231850000D03*
G04 #@! TO.N,1*
X230850000D03*
G04 #@! TO.N,45*
X229850000D03*
G04 #@! TO.N,46*
X228850000D03*
G04 #@! TO.N,44*
X237850000Y90989995D03*
G04 #@! TO.N,47*
X236850000D03*
G04 #@! TO.N,48*
X235850000D03*
G04 #@! TO.N,34*
X234850000D03*
G04 #@! TO.N,49*
X233850000D03*
G04 #@! TO.N,50*
X232850000D03*
G04 #@! TO.N,49*
X231850000D03*
G04 #@! TO.N,31*
X230850000D03*
G04 #@! TO.N,5*
X229850000D03*
G04 #@! TO.N,51*
X228850000D03*
G04 #@! TO.N,17*
X237850000Y91989995D03*
G04 #@! TO.N,46*
X236850000D03*
G04 #@! TO.N,52*
X235850000D03*
G04 #@! TO.N,53*
X234850000D03*
G04 #@! TO.N,25*
X233850000D03*
G04 #@! TO.N,54*
X232850000D03*
G04 #@! TO.N,55*
X231850000D03*
G04 #@! TO.N,42*
X230850000D03*
G04 #@! TO.N,22*
X229850000D03*
G04 #@! TO.N,56*
X228850000D03*
G04 #@! TO.N,57*
X237850000Y92989995D03*
G04 #@! TO.N,6*
X236850000D03*
G04 #@! TO.N,39*
X235850000D03*
G04 #@! TO.N,55*
X234850000D03*
G04 #@! TO.N,58*
X233850000D03*
G04 #@! TO.N,2*
X232850000D03*
G04 #@! TO.N,59*
X231850000D03*
G04 #@! TO.N,52*
X230850000D03*
G04 #@! TO.N,36*
X229850000D03*
G04 #@! TO.N,13*
X228850000D03*
G04 #@! TO.N,60*
X237850000Y93989995D03*
X236850000D03*
X235850000D03*
X234850000D03*
X233850000D03*
X232850000D03*
X231850000D03*
X230850000D03*
X229850000D03*
X228850000D03*
X237850000Y94989995D03*
X236850000D03*
X235850000D03*
X234850000D03*
X233850000D03*
X232850000D03*
X231850000D03*
X230850000D03*
X229850000D03*
X228850000D03*
G04 #@! TO.N,61*
X237850000Y95989995D03*
G04 #@! TO.N,62*
X236850000D03*
G04 #@! TO.N,33*
X235850000D03*
G04 #@! TO.N,50*
X234850000D03*
G04 #@! TO.N,60*
X233850000D03*
G04 #@! TO.N,20*
X232850000D03*
G04 #@! TO.N,10*
X231850000D03*
G04 #@! TO.N,61*
X230850000D03*
G04 #@! TO.N,47*
X229850000D03*
G04 #@! TO.N,28*
X228850000D03*
G04 #@! TO.N,59*
X237850000Y96989995D03*
G04 #@! TO.N,63*
X236850000D03*
G04 #@! TO.N,24*
X235850000D03*
G04 #@! TO.N,51*
X234850000D03*
G04 #@! TO.N,60*
X233850000D03*
G04 #@! TO.N,43*
X232850000D03*
G04 #@! TO.N,23*
X231850000D03*
G04 #@! TO.N,64*
X230850000D03*
G04 #@! TO.N,57*
X229850000D03*
G04 #@! TO.N,41*
X228850000D03*
G04 #@! TO.N,38*
X237850000Y97989995D03*
G04 #@! TO.N,54*
X236850000D03*
G04 #@! TO.N,65*
X235850000D03*
G04 #@! TO.N,16*
X234850000D03*
G04 #@! TO.N,45*
X233850000D03*
G04 #@! TO.N,53*
X232850000D03*
G04 #@! TO.N,37*
X231850000D03*
G04 #@! TO.N,14*
X230850000D03*
G04 #@! TO.N,65*
X229850000D03*
G04 #@! TO.N,58*
X228850000D03*
G04 #@! TO.N,9*
X237850000Y98989995D03*
G04 #@! TO.N,32*
X236850000D03*
G04 #@! TO.N,56*
X235850000D03*
G04 #@! TO.N,64*
X234850000D03*
G04 #@! TO.N,19*
X233850000D03*
G04 #@! TO.N,62*
X232850000D03*
G04 #@! TO.N,48*
X231850000D03*
G04 #@! TO.N,29*
X230850000D03*
G04 #@! TO.N,3*
X229850000D03*
G04 #@! TO.N,63*
X228850000D03*
G04 #@! TO.N,31*
X237850000Y99989995D03*
G04 #@! TO.N,48*
X236850000D03*
G04 #@! TO.N,51*
X235850000D03*
G04 #@! TO.N,3*
X234850000D03*
G04 #@! TO.N,27*
X233850000D03*
G04 #@! TO.N,19*
X232850000D03*
G04 #@! TO.N,40*
X231850000D03*
G04 #@! TO.N,56*
X230850000D03*
G04 #@! TO.N,41*
X229850000D03*
G04 #@! TO.N,9*
X228850000D03*
G04 #@! TO.N,53*
X237850000Y100989995D03*
G04 #@! TO.N,45*
X236850000D03*
G04 #@! TO.N,14*
X235850000D03*
G04 #@! TO.N,35*
X234850000D03*
G04 #@! TO.N,58*
X233850000D03*
G04 #@! TO.N,37*
X232850000D03*
G04 #@! TO.N,16*
X231850000D03*
G04 #@! TO.N,35*
X230850000D03*
G04 #@! TO.N,54*
X229850000D03*
G04 #@! TO.N,43*
X228850000D03*
G04 #@! TO.N,38*
X237850000Y101989995D03*
G04 #@! TO.N,23*
X236850000D03*
G04 #@! TO.N,40*
X235850000D03*
G04 #@! TO.N,57*
X234850000D03*
G04 #@! TO.N,60*
X233850000D03*
G04 #@! TO.N,61*
X232850000D03*
G04 #@! TO.N,29*
X231850000D03*
G04 #@! TO.N,24*
X230850000D03*
G04 #@! TO.N,27*
X229850000D03*
G04 #@! TO.N,59*
X228850000D03*
G04 #@! TO.N,32*
X237850000Y102989995D03*
G04 #@! TO.N,20*
X236850000D03*
G04 #@! TO.N,34*
X235850000D03*
G04 #@! TO.N,61*
X234850000D03*
G04 #@! TO.N,60*
X233850000D03*
G04 #@! TO.N,22*
X232850000D03*
G04 #@! TO.N,57*
X231850000D03*
G04 #@! TO.N,8*
X230850000D03*
G04 #@! TO.N,33*
X229850000D03*
G04 #@! TO.N,31*
X228850000D03*
G04 #@! TO.N,60*
X237850000Y103989995D03*
X236850000D03*
X235850000D03*
X234850000D03*
X233850000D03*
X232850000D03*
X231850000D03*
X230850000D03*
X229850000D03*
X228850000D03*
X237850000Y104989995D03*
X236850000D03*
X235850000D03*
X234850000D03*
X233850000D03*
X232850000D03*
X231850000D03*
X230850000D03*
X229850000D03*
X228850000D03*
G04 #@! TO.N,4*
X237850000Y105989995D03*
G04 #@! TO.N,28*
X236850000D03*
G04 #@! TO.N,25*
X235850000D03*
G04 #@! TO.N,59*
X234850000D03*
G04 #@! TO.N,15*
X233850000D03*
G04 #@! TO.N,46*
X232850000D03*
G04 #@! TO.N,13*
X231850000D03*
G04 #@! TO.N,58*
X230850000D03*
G04 #@! TO.N,11*
X229850000D03*
G04 #@! TO.N,39*
X228850000D03*
G04 #@! TO.N,36*
X237850000Y106989995D03*
G04 #@! TO.N,17*
X236850000D03*
G04 #@! TO.N,54*
X235850000D03*
G04 #@! TO.N,11*
X234850000D03*
G04 #@! TO.N,42*
X233850000D03*
G04 #@! TO.N,4*
X232850000D03*
G04 #@! TO.N,44*
X231850000D03*
G04 #@! TO.N,2*
X230850000D03*
G04 #@! TO.N,53*
X229850000D03*
G04 #@! TO.N,15*
X228850000D03*
G04 #@! TO.N,6*
X237850000Y107989995D03*
G04 #@! TO.N,56*
X236850000D03*
G04 #@! TO.N,8*
X235850000D03*
G04 #@! TO.N,49*
X234850000D03*
G04 #@! TO.N,62*
X233850000D03*
G04 #@! TO.N,7*
X232850000D03*
G04 #@! TO.N,32*
X231850000D03*
G04 #@! TO.N,49*
X230850000D03*
G04 #@! TO.N,10*
X229850000D03*
G04 #@! TO.N,48*
X228850000D03*
G04 #@! TO.N,5*
X237850000Y108989995D03*
G04 #@! TO.N,29*
X236850000D03*
G04 #@! TO.N,44*
X235850000D03*
G04 #@! TO.N,63*
X234850000D03*
G04 #@! TO.N,1*
X233850000D03*
G04 #@! TO.N,65*
X232850000D03*
G04 #@! TO.N,18*
X231850000D03*
G04 #@! TO.N,38*
X230850000D03*
G04 #@! TO.N,42*
X229850000D03*
G04 #@! TO.N,64*
X228850000D03*
G04 #@! TO.N,37*
X237850000Y109989995D03*
G04 #@! TO.N,46*
X236850000D03*
G04 #@! TO.N,65*
X235850000D03*
G04 #@! TO.N,12*
X234850000D03*
G04 #@! TO.N,43*
X233850000D03*
G04 #@! TO.N,28*
X232850000D03*
G04 #@! TO.N,63*
X231850000D03*
G04 #@! TO.N,26*
X230850000D03*
G04 #@! TO.N,45*
X229850000D03*
G04 #@! TO.N,36*
X228850000D03*
G04 #@! TO.N,39*
X237850000Y110989995D03*
G04 #@! TO.N,64*
X236850000D03*
G04 #@! TO.N,21*
X235850000D03*
G04 #@! TO.N,41*
X234850000D03*
G04 #@! TO.N,33*
X233850000D03*
G04 #@! TO.N,50*
X232850000D03*
G04 #@! TO.N,20*
X231850000D03*
G04 #@! TO.N,62*
X230850000D03*
G04 #@! TO.N,30*
X229850000D03*
G04 #@! TO.N,51*
X228850000D03*
G04 #@! TO.N,10*
X237850000Y111989995D03*
G04 #@! TO.N,30*
X236850000D03*
G04 #@! TO.N,47*
X235850000D03*
G04 #@! TO.N,24*
X234850000D03*
G04 #@! TO.N,2*
X233850000D03*
G04 #@! TO.N,12*
X232850000D03*
G04 #@! TO.N,55*
X231850000D03*
G04 #@! TO.N,23*
X230850000D03*
G04 #@! TO.N,6*
X229850000D03*
G04 #@! TO.N,21*
X228850000D03*
G04 #@! TO.N,26*
X237850000Y112989995D03*
G04 #@! TO.N,52*
X236850000D03*
G04 #@! TO.N,16*
X235850000D03*
G04 #@! TO.N,13*
X234850000D03*
G04 #@! TO.N,18*
X233850000D03*
G04 #@! TO.N,25*
X232850000D03*
G04 #@! TO.N,1*
X231850000D03*
G04 #@! TO.N,52*
X230850000D03*
G04 #@! TO.N,14*
X229850000D03*
G04 #@! TO.N,17*
X228850000D03*
G04 #@! TO.N,55*
X237850000Y113989995D03*
G04 #@! TO.N,19*
X236850000D03*
G04 #@! TO.N,22*
X235850000D03*
G04 #@! TO.N,7*
X234850000D03*
G04 #@! TO.N,50*
X233850000D03*
G04 #@! TO.N,9*
X232850000D03*
G04 #@! TO.N,34*
X231850000D03*
G04 #@! TO.N,5*
X230850000D03*
G04 #@! TO.N,47*
X229850000D03*
G04 #@! TO.N,3*
X228850000D03*
G04 #@! TO.N,48*
D13*
X227103750Y160390200D03*
G04 #@! TO.N,3*
X227903750Y161190200D03*
G04 #@! TO.N,53*
X228703750Y160390200D03*
G04 #@! TO.N,14*
X229503750Y161190200D03*
G04 #@! TO.N,58*
X230303750Y160390200D03*
G04 #@! TO.N,23*
X231103750Y161190200D03*
G04 #@! TO.N,57*
X231903750Y160390200D03*
G04 #@! TO.N,20*
X232703750Y161190200D03*
G04 #@! TO.N,61*
X233503750Y160390200D03*
G04 #@! TO.N,28*
X234303750Y161190200D03*
G04 #@! TO.N,59*
X235103750Y160390200D03*
G04 #@! TO.N,36*
X235903750Y161190200D03*
G04 #@! TO.N,54*
X236703750Y160390200D03*
G04 #@! TO.N,42*
X237503750Y161190200D03*
G04 #@! TO.N,56*
X238303750Y160390200D03*
G04 #@! TO.N,49*
X239103750Y161190200D03*
G04 #@! TO.N,5*
X240703750Y160390200D03*
G04 #@! TO.N,44*
X241503750Y161190200D03*
G04 #@! TO.N,1*
X242303750Y160390200D03*
G04 #@! TO.N,46*
X243103750Y161190200D03*
G04 #@! TO.N,12*
X243903750Y160390200D03*
G04 #@! TO.N,39*
X244703750Y161190200D03*
G04 #@! TO.N,21*
X245503750Y160390200D03*
G04 #@! TO.N,33*
X246303750Y161190200D03*
G04 #@! TO.N,30*
X247103750Y160390200D03*
G04 #@! TO.N,24*
X247903750Y161190200D03*
G04 #@! TO.N,26*
X248703750Y160390200D03*
G04 #@! TO.N,16*
X249503750Y161190200D03*
G04 #@! TO.N,18*
X250303750Y160390200D03*
G04 #@! TO.N,19*
X251103750Y161190200D03*
G04 #@! TO.N,7*
X251903750Y160390200D03*
G04 #@! TO.N,9*
X252703750Y161190200D03*
G04 #@! TO.N,31*
X227103750Y152390200D03*
G04 #@! TO.N,51*
X227903750Y153190200D03*
G04 #@! TO.N,27*
X228703750Y152390200D03*
G04 #@! TO.N,45*
X229503750Y153190200D03*
G04 #@! TO.N,35*
X230303750Y152390200D03*
G04 #@! TO.N,38*
X231103750Y153190200D03*
G04 #@! TO.N,40*
X231903750Y152390200D03*
G04 #@! TO.N,32*
X232703750Y153190200D03*
G04 #@! TO.N,34*
X233503750Y152390200D03*
G04 #@! TO.N,4*
X234303750Y153190200D03*
G04 #@! TO.N,25*
X235103750Y152390200D03*
G04 #@! TO.N,15*
X235903750Y153190200D03*
G04 #@! TO.N,17*
X236703750Y152390200D03*
G04 #@! TO.N,11*
X237503750Y153190200D03*
G04 #@! TO.N,6*
X238303750Y152390200D03*
G04 #@! TO.N,8*
X239103750Y153190200D03*
G04 #@! TO.N,62*
X240703750Y152390200D03*
G04 #@! TO.N,29*
X241503750Y153190200D03*
G04 #@! TO.N,63*
X242303750Y152390200D03*
G04 #@! TO.N,37*
X243103750Y153190200D03*
G04 #@! TO.N,65*
X243903750Y152390200D03*
G04 #@! TO.N,43*
X244703750Y153190200D03*
G04 #@! TO.N,64*
X245503750Y152390200D03*
G04 #@! TO.N,41*
X246303750Y153190200D03*
G04 #@! TO.N,10*
X247103750Y152390200D03*
G04 #@! TO.N,47*
X247903750Y153190200D03*
G04 #@! TO.N,2*
X248703750Y152390200D03*
G04 #@! TO.N,52*
X249503750Y153190200D03*
G04 #@! TO.N,13*
X250303750Y152390200D03*
G04 #@! TO.N,55*
X251103750Y153190200D03*
G04 #@! TO.N,22*
X251903750Y152390200D03*
G04 #@! TO.N,50*
X252703750Y153190200D03*
G04 #@! TO.N,41*
X252698650Y127390100D03*
G04 #@! TO.N,40*
X251898650Y128190100D03*
G04 #@! TO.N,43*
X251098650Y127390100D03*
G04 #@! TO.N,35*
X250298650Y128190100D03*
G04 #@! TO.N,37*
X249498650Y127390100D03*
G04 #@! TO.N,27*
X248698650Y128190100D03*
G04 #@! TO.N,29*
X247898650Y127390100D03*
G04 #@! TO.N,31*
X247098650Y128190100D03*
G04 #@! TO.N,8*
X246298650Y127390100D03*
G04 #@! TO.N,22*
X245498650Y128190100D03*
G04 #@! TO.N,11*
X244698650Y127390100D03*
G04 #@! TO.N,13*
X243898650Y128190100D03*
G04 #@! TO.N,15*
X243098650Y127390100D03*
G04 #@! TO.N,2*
X242298650Y128190100D03*
G04 #@! TO.N,4*
X241498650Y127390100D03*
G04 #@! TO.N,10*
X240698650Y128190100D03*
G04 #@! TO.N,32*
X239098650Y127390100D03*
G04 #@! TO.N,64*
X238298650Y128190100D03*
G04 #@! TO.N,38*
X237498650Y127390100D03*
G04 #@! TO.N,65*
X236698650Y128190100D03*
G04 #@! TO.N,45*
X235898650Y127390100D03*
G04 #@! TO.N,63*
X235098650Y128190100D03*
G04 #@! TO.N,51*
X234298650Y127390100D03*
G04 #@! TO.N,62*
X233498650Y128190100D03*
G04 #@! TO.N,50*
X232698650Y127390100D03*
G04 #@! TO.N,6*
X231898650Y128190100D03*
G04 #@! TO.N,55*
X231098650Y127390100D03*
G04 #@! TO.N,17*
X230298650Y128190100D03*
G04 #@! TO.N,52*
X229498650Y127390100D03*
G04 #@! TO.N,25*
X228698650Y128190100D03*
G04 #@! TO.N,47*
X227898650Y127390100D03*
G04 #@! TO.N,34*
X227098650Y128190100D03*
G04 #@! TO.N,9*
X252698650Y141290100D03*
G04 #@! TO.N,56*
X251898650Y140490100D03*
G04 #@! TO.N,19*
X251098650Y141290100D03*
G04 #@! TO.N,54*
X250298650Y140490100D03*
G04 #@! TO.N,16*
X249498650Y141290100D03*
G04 #@! TO.N,59*
X248698650Y140490100D03*
G04 #@! TO.N,24*
X247898650Y141290100D03*
G04 #@! TO.N,61*
X247098650Y140490100D03*
G04 #@! TO.N,33*
X246298650Y141290100D03*
G04 #@! TO.N,57*
X245498650Y140490100D03*
G04 #@! TO.N,39*
X244698650Y141290100D03*
G04 #@! TO.N,58*
X243898650Y140490100D03*
G04 #@! TO.N,46*
X243098650Y141290100D03*
G04 #@! TO.N,53*
X242298650Y140490100D03*
G04 #@! TO.N,44*
X241498650Y141290100D03*
G04 #@! TO.N,48*
X240698650Y140490100D03*
G04 #@! TO.N,49*
X239098650Y141290100D03*
G04 #@! TO.N,7*
X238298650Y140490100D03*
G04 #@! TO.N,42*
X237498650Y141290100D03*
G04 #@! TO.N,18*
X236698650Y140490100D03*
G04 #@! TO.N,36*
X235898650Y141290100D03*
G04 #@! TO.N,26*
X235098650Y140490100D03*
G04 #@! TO.N,28*
X234298650Y141290100D03*
G04 #@! TO.N,30*
X233498650Y140490100D03*
G04 #@! TO.N,20*
X232698650Y141290100D03*
G04 #@! TO.N,21*
X231898650Y140490100D03*
G04 #@! TO.N,23*
X231098650Y141290100D03*
G04 #@! TO.N,12*
X230298650Y140490100D03*
G04 #@! TO.N,14*
X229498650Y141290100D03*
G04 #@! TO.N,1*
X228698650Y140490100D03*
G04 #@! TO.N,3*
X227898650Y141290100D03*
G04 #@! TO.N,5*
X227098650Y140490100D03*
%LPD*%
M02*