G04 #@! TF.FileFunction,Copper,L3,Inr*
G04 #@! TF.FilePolarity,Positive*
G04 #@! TF.SameCoordinates,X6d7ZJsscqpJGbbtGXR9ZhFdWuJ0khT*
G04 #@! TF.CreationDate,2025-05-23T14:01:22+0200*
G04 #@! TF.GenerationSoftware,Ucamco,UcamX,v2023.12-240208*
%FSLAX36Y36*%
%MOMM*%
%ADD10R,416X416X408X408*%
%AMBOXR*
$16=$1/2*
$17=$2/2*
$8=$16-$3*
$9=$17-$3*
$10=$8X$6*
$11=$8X$5*
$12=$9X$6*
$13=$9X$5*
$15=2X$3*
$18=0-$10*
$19=0-$11*
21,1-$7,$1,$2-$15,0,0,$4*
21,1-$7,$1-$15,$2,0,0,$4*
1,1-$7,$15,$10-$13,$11+$12*
1,1-$7,$15,$18-$13,$12-$11*
1,1-$7,$15,$10+$13,$11-$12*
1,1-$7,$15,$13-$10,$19-$12*%
%ADD11BOXR,10X5X1X0.00X0X1X0*%
%ADD12C,10*%
%ADD13C,2*%
%ADD14BOXR,0.600000X0.800000X0.250000X45.00X0.707107X0.707107X0*%
%ADD15C,1.200000*%
%ADD16C,0.550000*%
%ADD17C,0.250000*%
%ADD18BOXR,0.600000X0.800000X0.250000X135.00X0.707107X-0.707107X0*%
%ADD19BOXR,5X10X1X0.00X0X1X0*%
%ADD20C,1.500000*%
%AMTHE21*
4,1-$1,41,
4.874980,1.111110,4.887400,0.991215,4.870775,0.871830,4.826055,0.759895,4.755850,0.661915,
4.664240,0.583580,4.556540,0.529450,4.439020,0.502665,4.318500,0.504780,4.201990,0.535680,
4.096265,0.593560,4.007460,0.675065,3.940740,0.775450,3.899985,0.888890,3.809740,1.218965,
3.691615,1.540115,3.546475,1.850000,3.375385,2.146340,3.179585,2.426980,2.960520,2.689850,
2.719790,2.933040,2.641930,3.025055,2.588350,3.133030,2.562170,3.250690,2.564905,3.371195,
2.596405,3.487545,2.654830,3.592975,2.736790,3.681360,2.837515,3.747560,2.951160,3.787735,
3.071120,3.799540,3.190415,3.782300,3.302120,3.737010,3.399740,3.666300,3.664475,3.401705,
3.908680,3.118045,4.130980,2.816915,4.330125,2.500000,4.505010,2.169075,4.654650,1.825990,
4.778200,1.472675,4.874980,1.111110,$2*
4,1-$1,41,
-4.874980,-1.111110,-4.887400,-0.991215,-4.870775,-0.871830,-4.826055,-0.759895,-4.755850,-0.661915,
-4.664240,-0.583580,-4.556540,-0.529450,-4.439020,-0.502665,-4.318500,-0.504780,-4.201990,-0.535680,
-4.096265,-0.593560,-4.007460,-0.675065,-3.940740,-0.775450,-3.899985,-0.888890,-3.809740,-1.218965,
-3.691615,-1.540115,-3.546475,-1.850000,-3.375385,-2.146340,-3.179585,-2.426980,-2.960520,-2.689850,
-2.719790,-2.933040,-2.641930,-3.025055,-2.588350,-3.133030,-2.562170,-3.250690,-2.564905,-3.371195,
-2.596405,-3.487545,-2.654830,-3.592975,-2.736790,-3.681360,-2.837515,-3.747560,-2.951160,-3.787735,
-3.071120,-3.799540,-3.190415,-3.782300,-3.302120,-3.737010,-3.399740,-3.666300,-3.664475,-3.401705,
-3.908680,-3.118045,-4.130980,-2.816915,-4.330125,-2.500000,-4.505010,-2.169075,-4.654650,-1.825990,
-4.778200,-1.472675,-4.874980,-1.111110,$2*
4,1-$1,41,
3.399740,-3.666300,3.302120,-3.737010,3.190415,-3.782300,3.071120,-3.799540,2.951160,-3.787735,
2.837515,-3.747560,2.736790,-3.681360,2.654830,-3.592975,2.596405,-3.487545,2.564905,-3.371195,
2.562170,-3.250690,2.588350,-3.133030,2.641930,-3.025055,2.719790,-2.933040,2.960520,-2.689850,
3.179585,-2.426980,3.375385,-2.146340,3.546475,-1.850000,3.691615,-1.540115,3.809740,-1.218965,
3.899985,-0.888890,3.940740,-0.775450,4.007460,-0.675065,4.096265,-0.593560,4.201990,-0.535680,
4.318500,-0.504780,4.439020,-0.502665,4.556540,-0.529450,4.664240,-0.583580,4.755850,-0.661915,
4.826055,-0.759895,4.870775,-0.871830,4.887400,-0.991215,4.874980,-1.111110,4.778200,-1.472675,
4.654650,-1.825990,4.505010,-2.169075,4.330125,-2.500000,4.130980,-2.816915,3.908680,-3.118045,
3.664475,-3.401705,3.399740,-3.666300,$2*
4,1-$1,41,
-3.399740,3.666300,-3.302120,3.737010,-3.190415,3.782300,-3.071120,3.799540,-2.951160,3.787735,
-2.837515,3.747560,-2.736790,3.681360,-2.654830,3.592975,-2.596405,3.487545,-2.564905,3.371195,
-2.562170,3.250690,-2.588350,3.133030,-2.641930,3.025055,-2.719790,2.933040,-2.960520,2.689850,
-3.179585,2.426980,-3.375385,2.146340,-3.546475,1.850000,-3.691615,1.540115,-3.809740,1.218965,
-3.899985,0.888890,-3.940740,0.775450,-4.007460,0.675065,-4.096265,0.593560,-4.201990,0.535680,
-4.318500,0.504780,-4.439020,0.502665,-4.556540,0.529450,-4.664240,0.583580,-4.755850,0.661915,
-4.826055,0.759895,-4.870775,0.871830,-4.887400,0.991215,-4.874980,1.111110,-4.778200,1.472675,
-4.654650,1.825990,-4.505010,2.169075,-4.330125,2.500000,-4.130980,2.816915,-3.908680,3.118045,
-3.664475,3.401705,-3.399740,3.666300,$2*
4,1-$1,41,
1.475240,4.777410,1.585285,4.728225,1.680360,4.654130,1.754940,4.559435,1.804690,4.449645,
1.826725,4.331140,1.819755,4.210805,1.784190,4.095635,1.722095,3.992325,1.637085,3.906870,
1.534090,3.844250,1.419105,3.808095,1.298805,3.800505,1.180190,3.821930,0.849215,3.908815,
0.512030,3.967095,0.171095,3.996340,-0.171095,3.996340,-0.512030,3.967095,-0.849215,3.908815,
-1.180190,3.821930,-1.298805,3.800505,-1.419105,3.808095,-1.534090,3.844250,-1.637085,3.906870,
-1.722095,3.992325,-1.784190,4.095635,-1.819755,4.210805,-1.826725,4.331140,-1.804690,4.449645,
-1.754940,4.559435,-1.680360,4.654130,-1.585285,4.728225,-1.475240,4.777410,-1.113725,4.874380,
-0.745970,4.944040,-0.374030,4.985990,0,5,0.374030,4.985990,0.745970,4.944040,
1.113725,4.874380,1.475240,4.777410,$2*
4,1-$1,41,
-1.475240,-4.777410,-1.585285,-4.728225,-1.680360,-4.654130,-1.754940,-4.559435,-1.804690,-4.449645,
-1.826725,-4.331140,-1.819755,-4.210805,-1.784190,-4.095635,-1.722095,-3.992325,-1.637085,-3.906870,
-1.534090,-3.844250,-1.419105,-3.808095,-1.298805,-3.800505,-1.180190,-3.821930,-0.849215,-3.908815,
-0.512030,-3.967095,-0.171095,-3.996340,0.171095,-3.996340,0.512030,-3.967095,0.849215,-3.908815,
1.180190,-3.821930,1.298805,-3.800505,1.419105,-3.808095,1.534090,-3.844250,1.637085,-3.906870,
1.722095,-3.992325,1.784190,-4.095635,1.819755,-4.210805,1.826725,-4.331140,1.804690,-4.449645,
1.754940,-4.559435,1.680360,-4.654130,1.585285,-4.728225,1.475240,-4.777410,1.113725,-4.874380,
0.745970,-4.944040,0.374030,-4.985990,0,-5,-0.374030,-4.985990,-0.745970,-4.944040,
-1.113725,-4.874380,-1.475240,-4.777410,$2*
%
%ADD21THE21,0X90.00*%
%ADD22C,1.500000*%
G04 layer name: DFS3498A_top-cu*
%LPD*%
D10*
X0Y0D03*
D11*
X-208400000Y233400000D03*
X-188400000D03*
%LPC*%
D12*
X-198510005Y-199240000D02*
Y-210696480D01*
X198510005Y199240000D02*
Y210696480D01*
%LPD*%
D13*
X-205290220Y-206079505D03*
X-191362075D03*
X205290220Y206079505D03*
X191362075D03*
D14*
X237500000Y85339995D03*
X236500000D03*
X235500000D03*
X234500000D03*
X233500000D03*
X232500000D03*
X231500000D03*
X230500000D03*
X229500000D03*
X228500000D03*
X237500000Y86339995D03*
X236500000D03*
X235500000D03*
X234500000D03*
X233500000D03*
X232500000D03*
X231500000D03*
X230500000D03*
X229500000D03*
X228500000D03*
X237500000Y87339995D03*
X236500000D03*
X235500000D03*
X234500000D03*
X233500000D03*
X232500000D03*
X231500000D03*
X230500000D03*
X229500000D03*
X228500000D03*
X237500000Y88339995D03*
X236500000D03*
X235500000D03*
X234500000D03*
X233500000D03*
X232500000D03*
X231500000D03*
X230500000D03*
X229500000D03*
X228500000D03*
X237500000Y89339995D03*
X236500000D03*
X235500000D03*
X234500000D03*
X233500000D03*
X232500000D03*
X231500000D03*
X230500000D03*
X229500000D03*
X228500000D03*
X237500000Y90339995D03*
X236500000D03*
X235500000D03*
X234500000D03*
X233500000D03*
X232500000D03*
X231500000D03*
X230500000D03*
X229500000D03*
X228500000D03*
X237500000Y91339995D03*
X236500000D03*
X235500000D03*
X234500000D03*
X233500000D03*
X232500000D03*
X231500000D03*
X230500000D03*
X229500000D03*
X228500000D03*
X237500000Y92339995D03*
X236500000D03*
X235500000D03*
X234500000D03*
X233500000D03*
X232500000D03*
X231500000D03*
X230500000D03*
X229500000D03*
X228500000D03*
X237500000Y93339995D03*
X236500000D03*
X235500000D03*
X234500000D03*
X233500000D03*
X232500000D03*
X231500000D03*
X230500000D03*
X229500000D03*
X228500000D03*
X237500000Y94339995D03*
X236500000D03*
X235500000D03*
X234500000D03*
X233500000D03*
X232500000D03*
X231500000D03*
X230500000D03*
X229500000D03*
X228500000D03*
X237500000Y95339995D03*
X236500000D03*
X235500000D03*
X234500000D03*
X233500000D03*
X232500000D03*
X231500000D03*
X230500000D03*
X229500000D03*
X228500000D03*
X237500000Y96339995D03*
X236500000D03*
X235500000D03*
X234500000D03*
X233500000D03*
X232500000D03*
X231500000D03*
X230500000D03*
X229500000D03*
X228500000D03*
X237500000Y97339995D03*
X236500000D03*
X235500000D03*
X234500000D03*
X233500000D03*
X232500000D03*
X231500000D03*
X230500000D03*
X229500000D03*
X228500000D03*
X237500000Y98339995D03*
X236500000D03*
X235500000D03*
X234500000D03*
X233500000D03*
X232500000D03*
X231500000D03*
X230500000D03*
X229500000D03*
X228500000D03*
X237500000Y99339995D03*
X236500000D03*
X235500000D03*
X234500000D03*
X233500000D03*
X232500000D03*
X231500000D03*
X230500000D03*
X229500000D03*
X228500000D03*
X237500000Y100339995D03*
X236500000D03*
X235500000D03*
X234500000D03*
X233500000D03*
X232500000D03*
X231500000D03*
X230500000D03*
X229500000D03*
X228500000D03*
X237500000Y101339995D03*
X236500000D03*
X235500000D03*
X234500000D03*
X233500000D03*
X232500000D03*
X231500000D03*
X230500000D03*
X229500000D03*
X228500000D03*
X237500000Y102339995D03*
X236500000D03*
X235500000D03*
X234500000D03*
X233500000D03*
X232500000D03*
X231500000D03*
X230500000D03*
X229500000D03*
X228500000D03*
X237500000Y103339995D03*
X236500000D03*
X235500000D03*
X234500000D03*
X233500000D03*
X232500000D03*
X231500000D03*
X230500000D03*
X229500000D03*
X228500000D03*
X237500000Y104339995D03*
X236500000D03*
X235500000D03*
X234500000D03*
X233500000D03*
X232500000D03*
X231500000D03*
X230500000D03*
X229500000D03*
X228500000D03*
X237500000Y105339995D03*
X236500000D03*
X235500000D03*
X234500000D03*
X233500000D03*
X232500000D03*
X231500000D03*
X230500000D03*
X229500000D03*
X228500000D03*
X237500000Y106339995D03*
X236500000D03*
X235500000D03*
X234500000D03*
X233500000D03*
X232500000D03*
X231500000D03*
X230500000D03*
X229500000D03*
X228500000D03*
X237500000Y107339995D03*
X236500000D03*
X235500000D03*
X234500000D03*
X233500000D03*
X232500000D03*
X231500000D03*
X230500000D03*
X229500000D03*
X228500000D03*
X237500000Y108339995D03*
X236500000D03*
X235500000D03*
X234500000D03*
X233500000D03*
X232500000D03*
X231500000D03*
X230500000D03*
X229500000D03*
X228500000D03*
X237500000Y109339995D03*
X236500000D03*
X235500000D03*
X234500000D03*
X233500000D03*
X232500000D03*
X231500000D03*
X230500000D03*
X229500000D03*
X228500000D03*
X237500000Y110339995D03*
X236500000D03*
X235500000D03*
X234500000D03*
X233500000D03*
X232500000D03*
X231500000D03*
X230500000D03*
X229500000D03*
X228500000D03*
X237500000Y111339995D03*
X236500000D03*
X235500000D03*
X234500000D03*
X233500000D03*
X232500000D03*
X231500000D03*
X230500000D03*
X229500000D03*
X228500000D03*
X237500000Y112339995D03*
X236500000D03*
X235500000D03*
X234500000D03*
X233500000D03*
X232500000D03*
X231500000D03*
X230500000D03*
X229500000D03*
X228500000D03*
X237500000Y113339995D03*
X236500000D03*
X235500000D03*
X234500000D03*
X233500000D03*
X232500000D03*
X231500000D03*
X230500000D03*
X229500000D03*
X228500000D03*
X237500000Y114339995D03*
X236500000D03*
X235500000D03*
X234500000D03*
X233500000D03*
X232500000D03*
X231500000D03*
X230500000D03*
X229500000D03*
X228500000D03*
X237500000Y-114340005D03*
X236500000D03*
X235500000D03*
X234500000D03*
X233500000D03*
X232500000D03*
X231500000D03*
X230500000D03*
X229500000D03*
X228500000D03*
X237500000Y-113340005D03*
X236500000D03*
X235500000D03*
X234500000D03*
X233500000D03*
X232500000D03*
X231500000D03*
X230500000D03*
X229500000D03*
X228500000D03*
X237500000Y-112340005D03*
X236500000D03*
X235500000D03*
X234500000D03*
X233500000D03*
X232500000D03*
X231500000D03*
X230500000D03*
X229500000D03*
X228500000D03*
X237500000Y-111340005D03*
X236500000D03*
X235500000D03*
X234500000D03*
X233500000D03*
X232500000D03*
X231500000D03*
X230500000D03*
X229500000D03*
X228500000D03*
X237500000Y-110340005D03*
X236500000D03*
X235500000D03*
X234500000D03*
X233500000D03*
X232500000D03*
X231500000D03*
X230500000D03*
X229500000D03*
X228500000D03*
X237500000Y-109340005D03*
X236500000D03*
X235500000D03*
X234500000D03*
X233500000D03*
X232500000D03*
X231500000D03*
X230500000D03*
X229500000D03*
X228500000D03*
X237500000Y-108340005D03*
X236500000D03*
X235500000D03*
X234500000D03*
X233500000D03*
X232500000D03*
X231500000D03*
X230500000D03*
X229500000D03*
X228500000D03*
X237500000Y-107340005D03*
X236500000D03*
X235500000D03*
X234500000D03*
X233500000D03*
X232500000D03*
X231500000D03*
X230500000D03*
X229500000D03*
X228500000D03*
X237500000Y-106340005D03*
X236500000D03*
X235500000D03*
X234500000D03*
X233500000D03*
X232500000D03*
X231500000D03*
X230500000D03*
X229500000D03*
X228500000D03*
X237500000Y-105340005D03*
X236500000D03*
X235500000D03*
X234500000D03*
X233500000D03*
X232500000D03*
X231500000D03*
X230500000D03*
X229500000D03*
X228500000D03*
X237500000Y-104340005D03*
X236500000D03*
X235500000D03*
X234500000D03*
X233500000D03*
X232500000D03*
X231500000D03*
X230500000D03*
X229500000D03*
X228500000D03*
X237500000Y-103340005D03*
X236500000D03*
X235500000D03*
X234500000D03*
X233500000D03*
X232500000D03*
X231500000D03*
X230500000D03*
X229500000D03*
X228500000D03*
X237500000Y-102340005D03*
X236500000D03*
X235500000D03*
X234500000D03*
X233500000D03*
X232500000D03*
X231500000D03*
X230500000D03*
X229500000D03*
X228500000D03*
X237500000Y-101340005D03*
X236500000D03*
X235500000D03*
X234500000D03*
X233500000D03*
X232500000D03*
X231500000D03*
X230500000D03*
X229500000D03*
X228500000D03*
X237500000Y-100340005D03*
X236500000D03*
X235500000D03*
X234500000D03*
X233500000D03*
X232500000D03*
X231500000D03*
X230500000D03*
X229500000D03*
X228500000D03*
X237500000Y-99340005D03*
X236500000D03*
X235500000D03*
X234500000D03*
X233500000D03*
X232500000D03*
X231500000D03*
X230500000D03*
X229500000D03*
X228500000D03*
X237500000Y-98340005D03*
X236500000D03*
X235500000D03*
X234500000D03*
X233500000D03*
X232500000D03*
X231500000D03*
X230500000D03*
X229500000D03*
X228500000D03*
X237500000Y-97340005D03*
X236500000D03*
X235500000D03*
X234500000D03*
X233500000D03*
X232500000D03*
X231500000D03*
X230500000D03*
X229500000D03*
X228500000D03*
X237500000Y-96340005D03*
X236500000D03*
X235500000D03*
X234500000D03*
X233500000D03*
X232500000D03*
X231500000D03*
X230500000D03*
X229500000D03*
X228500000D03*
X237500000Y-95340005D03*
X236500000D03*
X235500000D03*
X234500000D03*
X233500000D03*
X232500000D03*
X231500000D03*
X230500000D03*
X229500000D03*
X228500000D03*
X237500000Y-94340005D03*
X236500000D03*
X235500000D03*
X234500000D03*
X233500000D03*
X232500000D03*
X231500000D03*
X230500000D03*
X229500000D03*
X228500000D03*
X237500000Y-93340005D03*
X236500000D03*
X235500000D03*
X234500000D03*
X233500000D03*
X232500000D03*
X231500000D03*
X230500000D03*
X229500000D03*
X228500000D03*
X237500000Y-92340005D03*
X236500000D03*
X235500000D03*
X234500000D03*
X233500000D03*
X232500000D03*
X231500000D03*
X230500000D03*
X229500000D03*
X228500000D03*
X237500000Y-91340005D03*
X236500000D03*
X235500000D03*
X234500000D03*
X233500000D03*
X232500000D03*
X231500000D03*
X230500000D03*
X229500000D03*
X228500000D03*
X237500000Y-90340005D03*
X236500000D03*
X235500000D03*
X234500000D03*
X233500000D03*
X232500000D03*
X231500000D03*
X230500000D03*
X229500000D03*
X228500000D03*
X237500000Y-89340005D03*
X236500000D03*
X235500000D03*
X234500000D03*
X233500000D03*
X232500000D03*
X231500000D03*
X230500000D03*
X229500000D03*
X228500000D03*
X237500000Y-88340005D03*
X236500000D03*
X235500000D03*
X234500000D03*
X233500000D03*
X232500000D03*
X231500000D03*
X230500000D03*
X229500000D03*
X228500000D03*
X237500000Y-87340005D03*
X236500000D03*
X235500000D03*
X234500000D03*
X233500000D03*
X232500000D03*
X231500000D03*
X230500000D03*
X229500000D03*
X228500000D03*
X237500000Y-86340005D03*
X236500000D03*
X235500000D03*
X234500000D03*
X233500000D03*
X232500000D03*
X231500000D03*
X230500000D03*
X229500000D03*
X228500000D03*
X237500000Y-85340005D03*
X236500000D03*
X235500000D03*
X234500000D03*
X233500000D03*
X232500000D03*
X231500000D03*
X230500000D03*
X229500000D03*
X228500000D03*
D15*
X228350005Y82840005D03*
X233000005Y116840005D03*
X228350005Y-116839995D03*
X233000005Y-82839995D03*
X-82840005Y228350005D03*
X-116840005Y233000005D03*
X116839995Y228350005D03*
X82839995Y233000005D03*
D16*
X237850000Y84989995D03*
X236850000D03*
X235850000D03*
X234850000D03*
X233850000D03*
X232850000D03*
X231850000D03*
X230850000D03*
X229850000D03*
X228850000D03*
X237850000Y85989995D03*
X236850000D03*
X235850000D03*
X234850000D03*
X233850000D03*
X232850000D03*
X231850000D03*
X230850000D03*
X229850000D03*
X228850000D03*
X237850000Y86989995D03*
X236850000D03*
X235850000D03*
X234850000D03*
X233850000D03*
X232850000D03*
X231850000D03*
X230850000D03*
X229850000D03*
X228850000D03*
X237850000Y87989995D03*
X236850000D03*
X235850000D03*
X234850000D03*
X233850000D03*
X232850000D03*
X231850000D03*
X230850000D03*
X229850000D03*
X228850000D03*
X237850000Y88989995D03*
X236850000D03*
X235850000D03*
X234850000D03*
X233850000D03*
X232850000D03*
X231850000D03*
X230850000D03*
X229850000D03*
X228850000D03*
X237850000Y89989995D03*
X236850000D03*
X235850000D03*
X234850000D03*
X233850000D03*
X232850000D03*
X231850000D03*
X230850000D03*
X229850000D03*
X228850000D03*
X237850000Y90989995D03*
X236850000D03*
X235850000D03*
X234850000D03*
X233850000D03*
X232850000D03*
X231850000D03*
X230850000D03*
X229850000D03*
X228850000D03*
X237850000Y91989995D03*
X236850000D03*
X235850000D03*
X234850000D03*
X233850000D03*
X232850000D03*
X231850000D03*
X230850000D03*
X229850000D03*
X228850000D03*
X237850000Y92989995D03*
X236850000D03*
X235850000D03*
X234850000D03*
X233850000D03*
X232850000D03*
X231850000D03*
X230850000D03*
X229850000D03*
X228850000D03*
X237850000Y93989995D03*
X236850000D03*
X235850000D03*
X234850000D03*
X233850000D03*
X232850000D03*
X231850000D03*
X230850000D03*
X229850000D03*
X228850000D03*
X237850000Y94989995D03*
X236850000D03*
X235850000D03*
X234850000D03*
X233850000D03*
X232850000D03*
X231850000D03*
X230850000D03*
X229850000D03*
X228850000D03*
X237850000Y95989995D03*
X236850000D03*
X235850000D03*
X234850000D03*
X233850000D03*
X232850000D03*
X231850000D03*
X230850000D03*
X229850000D03*
X228850000D03*
X237850000Y96989995D03*
X236850000D03*
X235850000D03*
X234850000D03*
X233850000D03*
X232850000D03*
X231850000D03*
X230850000D03*
X229850000D03*
X228850000D03*
X237850000Y97989995D03*
X236850000D03*
X235850000D03*
X234850000D03*
X233850000D03*
X232850000D03*
X231850000D03*
X230850000D03*
X229850000D03*
X228850000D03*
X237850000Y98989995D03*
X236850000D03*
X235850000D03*
X234850000D03*
X233850000D03*
X232850000D03*
X231850000D03*
X230850000D03*
X229850000D03*
X228850000D03*
X237850000Y99989995D03*
X236850000D03*
X235850000D03*
X234850000D03*
X233850000D03*
X232850000D03*
X231850000D03*
X230850000D03*
X229850000D03*
X228850000D03*
X237850000Y100989995D03*
X236850000D03*
X235850000D03*
X234850000D03*
X233850000D03*
X232850000D03*
X231850000D03*
X230850000D03*
X229850000D03*
X228850000D03*
X237850000Y101989995D03*
X236850000D03*
X235850000D03*
X234850000D03*
X233850000D03*
X232850000D03*
X231850000D03*
X230850000D03*
X229850000D03*
X228850000D03*
X237850000Y102989995D03*
X236850000D03*
X235850000D03*
X234850000D03*
X233850000D03*
X232850000D03*
X231850000D03*
X230850000D03*
X229850000D03*
X228850000D03*
X237850000Y103989995D03*
X236850000D03*
X235850000D03*
X234850000D03*
X233850000D03*
X232850000D03*
X231850000D03*
X230850000D03*
X229850000D03*
X228850000D03*
X237850000Y104989995D03*
X236850000D03*
X235850000D03*
X234850000D03*
X233850000D03*
X232850000D03*
X231850000D03*
X230850000D03*
X229850000D03*
X228850000D03*
X237850000Y105989995D03*
X236850000D03*
X235850000D03*
X234850000D03*
X233850000D03*
X232850000D03*
X231850000D03*
X230850000D03*
X229850000D03*
X228850000D03*
X237850000Y106989995D03*
X236850000D03*
X235850000D03*
X234850000D03*
X233850000D03*
X232850000D03*
X231850000D03*
X230850000D03*
X229850000D03*
X228850000D03*
X237850000Y107989995D03*
X236850000D03*
X235850000D03*
X234850000D03*
X233850000D03*
X232850000D03*
X231850000D03*
X230850000D03*
X229850000D03*
X228850000D03*
X237850000Y108989995D03*
X236850000D03*
X235850000D03*
X234850000D03*
X233850000D03*
X232850000D03*
X231850000D03*
X230850000D03*
X229850000D03*
X228850000D03*
X237850000Y109989995D03*
X236850000D03*
X235850000D03*
X234850000D03*
X233850000D03*
X232850000D03*
X231850000D03*
X230850000D03*
X229850000D03*
X228850000D03*
X237850000Y110989995D03*
X236850000D03*
X235850000D03*
X234850000D03*
X233850000D03*
X232850000D03*
X231850000D03*
X230850000D03*
X229850000D03*
X228850000D03*
X237850000Y111989995D03*
X236850000D03*
X235850000D03*
X234850000D03*
X233850000D03*
X232850000D03*
X231850000D03*
X230850000D03*
X229850000D03*
X228850000D03*
X237850000Y112989995D03*
X236850000D03*
X235850000D03*
X234850000D03*
X233850000D03*
X232850000D03*
X231850000D03*
X230850000D03*
X229850000D03*
X228850000D03*
X237850000Y113989995D03*
X236850000D03*
X235850000D03*
X234850000D03*
X233850000D03*
X232850000D03*
X231850000D03*
X230850000D03*
X229850000D03*
X228850000D03*
X237850000Y-114690005D03*
X236850000D03*
X235850000D03*
X234850000D03*
X233850000D03*
X232850000D03*
X231850000D03*
X230850000D03*
X229850000D03*
X228850000D03*
X237850000Y-113690005D03*
X236850000D03*
X235850000D03*
X234850000D03*
X233850000D03*
X232850000D03*
X231850000D03*
X230850000D03*
X229850000D03*
X228850000D03*
X237850000Y-112690005D03*
X236850000D03*
X235850000D03*
X234850000D03*
X233850000D03*
X232850000D03*
X231850000D03*
X230850000D03*
X229850000D03*
X228850000D03*
X237850000Y-111690005D03*
X236850000D03*
X235850000D03*
X234850000D03*
X233850000D03*
X232850000D03*
X231850000D03*
X230850000D03*
X229850000D03*
X228850000D03*
X237850000Y-110690005D03*
X236850000D03*
X235850000D03*
X234850000D03*
X233850000D03*
X232850000D03*
X231850000D03*
X230850000D03*
X229850000D03*
X228850000D03*
X237850000Y-109690005D03*
X236850000D03*
X235850000D03*
X234850000D03*
X233850000D03*
X232850000D03*
X231850000D03*
X230850000D03*
X229850000D03*
X228850000D03*
X237850000Y-108690005D03*
X236850000D03*
X235850000D03*
X234850000D03*
X233850000D03*
X232850000D03*
X231850000D03*
X230850000D03*
X229850000D03*
X228850000D03*
X237850000Y-107690005D03*
X236850000D03*
X235850000D03*
X234850000D03*
X233850000D03*
X232850000D03*
X231850000D03*
X230850000D03*
X229850000D03*
X228850000D03*
X237850000Y-106690005D03*
X236850000D03*
X235850000D03*
X234850000D03*
X233850000D03*
X232850000D03*
X231850000D03*
X230850000D03*
X229850000D03*
X228850000D03*
X237850000Y-105690005D03*
X236850000D03*
X235850000D03*
X234850000D03*
X233850000D03*
X232850000D03*
X231850000D03*
X230850000D03*
X229850000D03*
X228850000D03*
X237850000Y-104690005D03*
X236850000D03*
X235850000D03*
X234850000D03*
X233850000D03*
X232850000D03*
X231850000D03*
X230850000D03*
X229850000D03*
X228850000D03*
X237850000Y-103690005D03*
X236850000D03*
X235850000D03*
X234850000D03*
X233850000D03*
X232850000D03*
X231850000D03*
X230850000D03*
X229850000D03*
X228850000D03*
X237850000Y-102690005D03*
X236850000D03*
X235850000D03*
X234850000D03*
X233850000D03*
X232850000D03*
X231850000D03*
X230850000D03*
X229850000D03*
X228850000D03*
X237850000Y-101690005D03*
X236850000D03*
X235850000D03*
X234850000D03*
X233850000D03*
X232850000D03*
X231850000D03*
X230850000D03*
X229850000D03*
X228850000D03*
X237850000Y-100690005D03*
X236850000D03*
X235850000D03*
X234850000D03*
X233850000D03*
X232850000D03*
X231850000D03*
X230850000D03*
X229850000D03*
X228850000D03*
X237850000Y-99690005D03*
X236850000D03*
X235850000D03*
X234850000D03*
X233850000D03*
X232850000D03*
X231850000D03*
X230850000D03*
X229850000D03*
X228850000D03*
X237850000Y-98690005D03*
X236850000D03*
X235850000D03*
X234850000D03*
X233850000D03*
X232850000D03*
X231850000D03*
X230850000D03*
X229850000D03*
X228850000D03*
X237850000Y-97690005D03*
X236850000D03*
X235850000D03*
X234850000D03*
X233850000D03*
X232850000D03*
X231850000D03*
X230850000D03*
X229850000D03*
X228850000D03*
X237850000Y-96690005D03*
X236850000D03*
X235850000D03*
X234850000D03*
X233850000D03*
X232850000D03*
X231850000D03*
X230850000D03*
X229850000D03*
X228850000D03*
X237850000Y-95690005D03*
X236850000D03*
X235850000D03*
X234850000D03*
X233850000D03*
X232850000D03*
X231850000D03*
X230850000D03*
X229850000D03*
X228850000D03*
X237850000Y-94690005D03*
X236850000D03*
X235850000D03*
X234850000D03*
X233850000D03*
X232850000D03*
X231850000D03*
X230850000D03*
X229850000D03*
X228850000D03*
X237850000Y-93690005D03*
X236850000D03*
X235850000D03*
X234850000D03*
X233850000D03*
X232850000D03*
X231850000D03*
X230850000D03*
X229850000D03*
X228850000D03*
X237850000Y-92690005D03*
X236850000D03*
X235850000D03*
X234850000D03*
X233850000D03*
X232850000D03*
X231850000D03*
X230850000D03*
X229850000D03*
X228850000D03*
X237850000Y-91690005D03*
X236850000D03*
X235850000D03*
X234850000D03*
X233850000D03*
X232850000D03*
X231850000D03*
X230850000D03*
X229850000D03*
X228850000D03*
X237850000Y-90690005D03*
X236850000D03*
X235850000D03*
X234850000D03*
X233850000D03*
X232850000D03*
X231850000D03*
X230850000D03*
X229850000D03*
X228850000D03*
X237850000Y-89690005D03*
X236850000D03*
X235850000D03*
X234850000D03*
X233850000D03*
X232850000D03*
X231850000D03*
X230850000D03*
X229850000D03*
X228850000D03*
X237850000Y-88690005D03*
X236850000D03*
X235850000D03*
X234850000D03*
X233850000D03*
X232850000D03*
X231850000D03*
X230850000D03*
X229850000D03*
X228850000D03*
X237850000Y-87690005D03*
X236850000D03*
X235850000D03*
X234850000D03*
X233850000D03*
X232850000D03*
X231850000D03*
X230850000D03*
X229850000D03*
X228850000D03*
X237850000Y-86690005D03*
X236850000D03*
X235850000D03*
X234850000D03*
X233850000D03*
X232850000D03*
X231850000D03*
X230850000D03*
X229850000D03*
X228850000D03*
X237850000Y-85690005D03*
X236850000D03*
X235850000D03*
X234850000D03*
X233850000D03*
X232850000D03*
X231850000D03*
X230850000D03*
X229850000D03*
X228850000D03*
X-84989995Y237850000D03*
Y236850000D03*
Y235850000D03*
Y234850000D03*
Y233850000D03*
Y232850000D03*
Y231850000D03*
Y230850000D03*
Y229850000D03*
Y228850000D03*
X-85989995Y237850000D03*
Y236850000D03*
Y235850000D03*
Y234850000D03*
Y233850000D03*
Y232850000D03*
Y231850000D03*
Y230850000D03*
Y229850000D03*
Y228850000D03*
X-86989995Y237850000D03*
Y236850000D03*
Y235850000D03*
Y234850000D03*
Y233850000D03*
Y232850000D03*
Y231850000D03*
Y230850000D03*
Y229850000D03*
Y228850000D03*
X-87989995Y237850000D03*
Y236850000D03*
Y235850000D03*
Y234850000D03*
Y233850000D03*
Y232850000D03*
Y231850000D03*
Y230850000D03*
Y229850000D03*
Y228850000D03*
X-88989995Y237850000D03*
Y236850000D03*
Y235850000D03*
Y234850000D03*
Y233850000D03*
Y232850000D03*
Y231850000D03*
Y230850000D03*
Y229850000D03*
Y228850000D03*
X-89989995Y237850000D03*
Y236850000D03*
Y235850000D03*
Y234850000D03*
Y233850000D03*
Y232850000D03*
Y231850000D03*
Y230850000D03*
Y229850000D03*
Y228850000D03*
X-90989995Y237850000D03*
Y236850000D03*
Y235850000D03*
Y234850000D03*
Y233850000D03*
Y232850000D03*
Y231850000D03*
Y230850000D03*
Y229850000D03*
Y228850000D03*
X-91989995Y237850000D03*
Y236850000D03*
Y235850000D03*
Y234850000D03*
Y233850000D03*
Y232850000D03*
Y231850000D03*
Y230850000D03*
Y229850000D03*
Y228850000D03*
X-92989995Y237850000D03*
Y236850000D03*
Y235850000D03*
Y234850000D03*
Y233850000D03*
Y232850000D03*
Y231850000D03*
Y230850000D03*
Y229850000D03*
Y228850000D03*
X-93989995Y237850000D03*
Y236850000D03*
Y235850000D03*
Y234850000D03*
Y233850000D03*
Y232850000D03*
Y231850000D03*
Y230850000D03*
Y229850000D03*
Y228850000D03*
X-94989995Y237850000D03*
Y236850000D03*
Y235850000D03*
Y234850000D03*
Y233850000D03*
Y232850000D03*
Y231850000D03*
Y230850000D03*
Y229850000D03*
Y228850000D03*
X-95989995Y237850000D03*
Y236850000D03*
Y235850000D03*
Y234850000D03*
Y233850000D03*
Y232850000D03*
Y231850000D03*
Y230850000D03*
Y229850000D03*
Y228850000D03*
X-96989995Y237850000D03*
Y236850000D03*
Y235850000D03*
Y234850000D03*
Y233850000D03*
Y232850000D03*
Y231850000D03*
Y230850000D03*
Y229850000D03*
Y228850000D03*
X-97989995Y237850000D03*
Y236850000D03*
Y235850000D03*
Y234850000D03*
Y233850000D03*
Y232850000D03*
Y231850000D03*
Y230850000D03*
Y229850000D03*
Y228850000D03*
X-98989995Y237850000D03*
Y236850000D03*
Y235850000D03*
Y234850000D03*
Y233850000D03*
Y232850000D03*
Y231850000D03*
Y230850000D03*
Y229850000D03*
Y228850000D03*
X-99989995Y237850000D03*
Y236850000D03*
Y235850000D03*
Y234850000D03*
Y233850000D03*
Y232850000D03*
Y231850000D03*
Y230850000D03*
Y229850000D03*
Y228850000D03*
X-100989995Y237850000D03*
Y236850000D03*
Y235850000D03*
Y234850000D03*
Y233850000D03*
Y232850000D03*
Y231850000D03*
Y230850000D03*
Y229850000D03*
Y228850000D03*
X-101989995Y237850000D03*
Y236850000D03*
Y235850000D03*
Y234850000D03*
Y233850000D03*
Y232850000D03*
Y231850000D03*
Y230850000D03*
Y229850000D03*
Y228850000D03*
X-102989995Y237850000D03*
Y236850000D03*
Y235850000D03*
Y234850000D03*
Y233850000D03*
Y232850000D03*
Y231850000D03*
Y230850000D03*
Y229850000D03*
Y228850000D03*
X-103989995Y237850000D03*
Y236850000D03*
Y235850000D03*
Y234850000D03*
Y233850000D03*
Y232850000D03*
Y231850000D03*
Y230850000D03*
Y229850000D03*
Y228850000D03*
X-104989995Y237850000D03*
Y236850000D03*
Y235850000D03*
Y234850000D03*
Y233850000D03*
Y232850000D03*
Y231850000D03*
Y230850000D03*
Y229850000D03*
Y228850000D03*
X-105989995Y237850000D03*
Y236850000D03*
Y235850000D03*
Y234850000D03*
Y233850000D03*
Y232850000D03*
Y231850000D03*
Y230850000D03*
Y229850000D03*
Y228850000D03*
X-106989995Y237850000D03*
Y236850000D03*
Y235850000D03*
Y234850000D03*
Y233850000D03*
Y232850000D03*
Y231850000D03*
Y230850000D03*
Y229850000D03*
Y228850000D03*
X-107989995Y237850000D03*
Y236850000D03*
Y235850000D03*
Y234850000D03*
Y233850000D03*
Y232850000D03*
Y231850000D03*
Y230850000D03*
Y229850000D03*
Y228850000D03*
X-108989995Y237850000D03*
Y236850000D03*
Y235850000D03*
Y234850000D03*
Y233850000D03*
Y232850000D03*
Y231850000D03*
Y230850000D03*
Y229850000D03*
Y228850000D03*
X-109989995Y237850000D03*
Y236850000D03*
Y235850000D03*
Y234850000D03*
Y233850000D03*
Y232850000D03*
Y231850000D03*
Y230850000D03*
Y229850000D03*
Y228850000D03*
X-110989995Y237850000D03*
Y236850000D03*
Y235850000D03*
Y234850000D03*
Y233850000D03*
Y232850000D03*
Y231850000D03*
Y230850000D03*
Y229850000D03*
Y228850000D03*
X-111989995Y237850000D03*
Y236850000D03*
Y235850000D03*
Y234850000D03*
Y233850000D03*
Y232850000D03*
Y231850000D03*
Y230850000D03*
Y229850000D03*
Y228850000D03*
X-112989995Y237850000D03*
Y236850000D03*
Y235850000D03*
Y234850000D03*
Y233850000D03*
Y232850000D03*
Y231850000D03*
Y230850000D03*
Y229850000D03*
Y228850000D03*
X-113989995Y237850000D03*
Y236850000D03*
Y235850000D03*
Y234850000D03*
Y233850000D03*
Y232850000D03*
Y231850000D03*
Y230850000D03*
Y229850000D03*
Y228850000D03*
X114690005Y237850000D03*
Y236850000D03*
Y235850000D03*
Y234850000D03*
Y233850000D03*
Y232850000D03*
Y231850000D03*
Y230850000D03*
Y229850000D03*
Y228850000D03*
X113690005Y237850000D03*
Y236850000D03*
Y235850000D03*
Y234850000D03*
Y233850000D03*
Y232850000D03*
Y231850000D03*
Y230850000D03*
Y229850000D03*
Y228850000D03*
X112690005Y237850000D03*
Y236850000D03*
Y235850000D03*
Y234850000D03*
Y233850000D03*
Y232850000D03*
Y231850000D03*
Y230850000D03*
Y229850000D03*
Y228850000D03*
X111690005Y237850000D03*
Y236850000D03*
Y235850000D03*
Y234850000D03*
Y233850000D03*
Y232850000D03*
Y231850000D03*
Y230850000D03*
Y229850000D03*
Y228850000D03*
X110690005Y237850000D03*
Y236850000D03*
Y235850000D03*
Y234850000D03*
Y233850000D03*
Y232850000D03*
Y231850000D03*
Y230850000D03*
Y229850000D03*
Y228850000D03*
X109690005Y237850000D03*
Y236850000D03*
Y235850000D03*
Y234850000D03*
Y233850000D03*
Y232850000D03*
Y231850000D03*
Y230850000D03*
Y229850000D03*
Y228850000D03*
X108690005Y237850000D03*
Y236850000D03*
Y235850000D03*
Y234850000D03*
Y233850000D03*
Y232850000D03*
Y231850000D03*
Y230850000D03*
Y229850000D03*
Y228850000D03*
X107690005Y237850000D03*
Y236850000D03*
Y235850000D03*
Y234850000D03*
Y233850000D03*
Y232850000D03*
Y231850000D03*
Y230850000D03*
Y229850000D03*
Y228850000D03*
X106690005Y237850000D03*
Y236850000D03*
Y235850000D03*
Y234850000D03*
Y233850000D03*
Y232850000D03*
Y231850000D03*
Y230850000D03*
Y229850000D03*
Y228850000D03*
X105690005Y237850000D03*
Y236850000D03*
Y235850000D03*
Y234850000D03*
Y233850000D03*
Y232850000D03*
Y231850000D03*
Y230850000D03*
Y229850000D03*
Y228850000D03*
X104690005Y237850000D03*
Y236850000D03*
Y235850000D03*
Y234850000D03*
Y233850000D03*
Y232850000D03*
Y231850000D03*
Y230850000D03*
Y229850000D03*
Y228850000D03*
X103690005Y237850000D03*
Y236850000D03*
Y235850000D03*
Y234850000D03*
Y233850000D03*
Y232850000D03*
Y231850000D03*
Y230850000D03*
Y229850000D03*
Y228850000D03*
X102690005Y237850000D03*
Y236850000D03*
Y235850000D03*
Y234850000D03*
Y233850000D03*
Y232850000D03*
Y231850000D03*
Y230850000D03*
Y229850000D03*
Y228850000D03*
X101690005Y237850000D03*
Y236850000D03*
Y235850000D03*
Y234850000D03*
Y233850000D03*
Y232850000D03*
Y231850000D03*
Y230850000D03*
Y229850000D03*
Y228850000D03*
X100690005Y237850000D03*
Y236850000D03*
Y235850000D03*
Y234850000D03*
Y233850000D03*
Y232850000D03*
Y231850000D03*
Y230850000D03*
Y229850000D03*
Y228850000D03*
X99690005Y237850000D03*
Y236850000D03*
Y235850000D03*
Y234850000D03*
Y233850000D03*
Y232850000D03*
Y231850000D03*
Y230850000D03*
Y229850000D03*
Y228850000D03*
X98690005Y237850000D03*
Y236850000D03*
Y235850000D03*
Y234850000D03*
Y233850000D03*
Y232850000D03*
Y231850000D03*
Y230850000D03*
Y229850000D03*
Y228850000D03*
X97690005Y237850000D03*
Y236850000D03*
Y235850000D03*
Y234850000D03*
Y233850000D03*
Y232850000D03*
Y231850000D03*
Y230850000D03*
Y229850000D03*
Y228850000D03*
X96690005Y237850000D03*
Y236850000D03*
Y235850000D03*
Y234850000D03*
Y233850000D03*
Y232850000D03*
Y231850000D03*
Y230850000D03*
Y229850000D03*
Y228850000D03*
X95690005Y237850000D03*
Y236850000D03*
Y235850000D03*
Y234850000D03*
Y233850000D03*
Y232850000D03*
Y231850000D03*
Y230850000D03*
Y229850000D03*
Y228850000D03*
X94690005Y237850000D03*
Y236850000D03*
Y235850000D03*
Y234850000D03*
Y233850000D03*
Y232850000D03*
Y231850000D03*
Y230850000D03*
Y229850000D03*
Y228850000D03*
X93690005Y237850000D03*
Y236850000D03*
Y235850000D03*
Y234850000D03*
Y233850000D03*
Y232850000D03*
Y231850000D03*
Y230850000D03*
Y229850000D03*
Y228850000D03*
X92690005Y237850000D03*
Y236850000D03*
Y235850000D03*
Y234850000D03*
Y233850000D03*
Y232850000D03*
Y231850000D03*
Y230850000D03*
Y229850000D03*
Y228850000D03*
X91690005Y237850000D03*
Y236850000D03*
Y235850000D03*
Y234850000D03*
Y233850000D03*
Y232850000D03*
Y231850000D03*
Y230850000D03*
Y229850000D03*
Y228850000D03*
X90690005Y237850000D03*
Y236850000D03*
Y235850000D03*
Y234850000D03*
Y233850000D03*
Y232850000D03*
Y231850000D03*
Y230850000D03*
Y229850000D03*
Y228850000D03*
X89690005Y237850000D03*
Y236850000D03*
Y235850000D03*
Y234850000D03*
Y233850000D03*
Y232850000D03*
Y231850000D03*
Y230850000D03*
Y229850000D03*
Y228850000D03*
X88690005Y237850000D03*
Y236850000D03*
Y235850000D03*
Y234850000D03*
Y233850000D03*
Y232850000D03*
Y231850000D03*
Y230850000D03*
Y229850000D03*
Y228850000D03*
X87690005Y237850000D03*
Y236850000D03*
Y235850000D03*
Y234850000D03*
Y233850000D03*
Y232850000D03*
Y231850000D03*
Y230850000D03*
Y229850000D03*
Y228850000D03*
X86690005Y237850000D03*
Y236850000D03*
Y235850000D03*
Y234850000D03*
Y233850000D03*
Y232850000D03*
Y231850000D03*
Y230850000D03*
Y229850000D03*
Y228850000D03*
X85690005Y237850000D03*
Y236850000D03*
Y235850000D03*
Y234850000D03*
Y233850000D03*
Y232850000D03*
Y231850000D03*
Y230850000D03*
Y229850000D03*
Y228850000D03*
D17*
X237850000Y84989995D03*
X236850000D03*
X235850000D03*
X234850000D03*
X233850000D03*
X232850000D03*
X231850000D03*
X230850000D03*
X229850000D03*
X228850000D03*
X237850000Y85989995D03*
X236850000D03*
X235850000D03*
X234850000D03*
X233850000D03*
X232850000D03*
X231850000D03*
X230850000D03*
X229850000D03*
X228850000D03*
X237850000Y86989995D03*
X236850000D03*
X235850000D03*
X234850000D03*
X233850000D03*
X232850000D03*
X231850000D03*
X230850000D03*
X229850000D03*
X228850000D03*
X237850000Y87989995D03*
X236850000D03*
X235850000D03*
X234850000D03*
X233850000D03*
X232850000D03*
X231850000D03*
X230850000D03*
X229850000D03*
X228850000D03*
X237850000Y88989995D03*
X236850000D03*
X235850000D03*
X234850000D03*
X233850000D03*
X232850000D03*
X231850000D03*
X230850000D03*
X229850000D03*
X228850000D03*
X237850000Y89989995D03*
X236850000D03*
X235850000D03*
X234850000D03*
X233850000D03*
X232850000D03*
X231850000D03*
X230850000D03*
X229850000D03*
X228850000D03*
X237850000Y90989995D03*
X236850000D03*
X235850000D03*
X234850000D03*
X233850000D03*
X232850000D03*
X231850000D03*
X230850000D03*
X229850000D03*
X228850000D03*
X237850000Y91989995D03*
X236850000D03*
X235850000D03*
X234850000D03*
X233850000D03*
X232850000D03*
X231850000D03*
X230850000D03*
X229850000D03*
X228850000D03*
X237850000Y92989995D03*
X236850000D03*
X235850000D03*
X234850000D03*
X233850000D03*
X232850000D03*
X231850000D03*
X230850000D03*
X229850000D03*
X228850000D03*
X237850000Y93989995D03*
X236850000D03*
X235850000D03*
X234850000D03*
X233850000D03*
X232850000D03*
X231850000D03*
X230850000D03*
X229850000D03*
X228850000D03*
X237850000Y94989995D03*
X236850000D03*
X235850000D03*
X234850000D03*
X233850000D03*
X232850000D03*
X231850000D03*
X230850000D03*
X229850000D03*
X228850000D03*
X237850000Y95989995D03*
X236850000D03*
X235850000D03*
X234850000D03*
X233850000D03*
X232850000D03*
X231850000D03*
X230850000D03*
X229850000D03*
X228850000D03*
X237850000Y96989995D03*
X236850000D03*
X235850000D03*
X234850000D03*
X233850000D03*
X232850000D03*
X231850000D03*
X230850000D03*
X229850000D03*
X228850000D03*
X237850000Y97989995D03*
X236850000D03*
X235850000D03*
X234850000D03*
X233850000D03*
X232850000D03*
X231850000D03*
X230850000D03*
X229850000D03*
X228850000D03*
X237850000Y98989995D03*
X236850000D03*
X235850000D03*
X234850000D03*
X233850000D03*
X232850000D03*
X231850000D03*
X230850000D03*
X229850000D03*
X228850000D03*
X237850000Y99989995D03*
X236850000D03*
X235850000D03*
X234850000D03*
X233850000D03*
X232850000D03*
X231850000D03*
X230850000D03*
X229850000D03*
X228850000D03*
X237850000Y100989995D03*
X236850000D03*
X235850000D03*
X234850000D03*
X233850000D03*
X232850000D03*
X231850000D03*
X230850000D03*
X229850000D03*
X228850000D03*
X237850000Y101989995D03*
X236850000D03*
X235850000D03*
X234850000D03*
X233850000D03*
X232850000D03*
X231850000D03*
X230850000D03*
X229850000D03*
X228850000D03*
X237850000Y102989995D03*
X236850000D03*
X235850000D03*
X234850000D03*
X233850000D03*
X232850000D03*
X231850000D03*
X230850000D03*
X229850000D03*
X228850000D03*
X237850000Y103989995D03*
X236850000D03*
X235850000D03*
X234850000D03*
X233850000D03*
X232850000D03*
X231850000D03*
X230850000D03*
X229850000D03*
X228850000D03*
X237850000Y104989995D03*
X236850000D03*
X235850000D03*
X234850000D03*
X233850000D03*
X232850000D03*
X231850000D03*
X230850000D03*
X229850000D03*
X228850000D03*
X237850000Y105989995D03*
X236850000D03*
X235850000D03*
X234850000D03*
X233850000D03*
X232850000D03*
X231850000D03*
X230850000D03*
X229850000D03*
X228850000D03*
X237850000Y106989995D03*
X236850000D03*
X235850000D03*
X234850000D03*
X233850000D03*
X232850000D03*
X231850000D03*
X230850000D03*
X229850000D03*
X228850000D03*
X237850000Y107989995D03*
X236850000D03*
X235850000D03*
X234850000D03*
X233850000D03*
X232850000D03*
X231850000D03*
X230850000D03*
X229850000D03*
X228850000D03*
X237850000Y108989995D03*
X236850000D03*
X235850000D03*
X234850000D03*
X233850000D03*
X232850000D03*
X231850000D03*
X230850000D03*
X229850000D03*
X228850000D03*
X237850000Y109989995D03*
X236850000D03*
X235850000D03*
X234850000D03*
X233850000D03*
X232850000D03*
X231850000D03*
X230850000D03*
X229850000D03*
X228850000D03*
X237850000Y110989995D03*
X236850000D03*
X235850000D03*
X234850000D03*
X233850000D03*
X232850000D03*
X231850000D03*
X230850000D03*
X229850000D03*
X228850000D03*
X237850000Y111989995D03*
X236850000D03*
X235850000D03*
X234850000D03*
X233850000D03*
X232850000D03*
X231850000D03*
X230850000D03*
X229850000D03*
X228850000D03*
X237850000Y112989995D03*
X236850000D03*
X235850000D03*
X234850000D03*
X233850000D03*
X232850000D03*
X231850000D03*
X230850000D03*
X229850000D03*
X228850000D03*
X237850000Y113989995D03*
X236850000D03*
X235850000D03*
X234850000D03*
X233850000D03*
X232850000D03*
X231850000D03*
X230850000D03*
X229850000D03*
X228850000D03*
X237850000Y-114690005D03*
X236850000D03*
X235850000D03*
X234850000D03*
X233850000D03*
X232850000D03*
X231850000D03*
X230850000D03*
X229850000D03*
X228850000D03*
X237850000Y-113690005D03*
X236850000D03*
X235850000D03*
X234850000D03*
X233850000D03*
X232850000D03*
X231850000D03*
X230850000D03*
X229850000D03*
X228850000D03*
X237850000Y-112690005D03*
X236850000D03*
X235850000D03*
X234850000D03*
X233850000D03*
X232850000D03*
X231850000D03*
X230850000D03*
X229850000D03*
X228850000D03*
X237850000Y-111690005D03*
X236850000D03*
X235850000D03*
X234850000D03*
X233850000D03*
X232850000D03*
X231850000D03*
X230850000D03*
X229850000D03*
X228850000D03*
X237850000Y-110690005D03*
X236850000D03*
X235850000D03*
X234850000D03*
X233850000D03*
X232850000D03*
X231850000D03*
X230850000D03*
X229850000D03*
X228850000D03*
X237850000Y-109690005D03*
X236850000D03*
X235850000D03*
X234850000D03*
X233850000D03*
X232850000D03*
X231850000D03*
X230850000D03*
X229850000D03*
X228850000D03*
X237850000Y-108690005D03*
X236850000D03*
X235850000D03*
X234850000D03*
X233850000D03*
X232850000D03*
X231850000D03*
X230850000D03*
X229850000D03*
X228850000D03*
X237850000Y-107690005D03*
X236850000D03*
X235850000D03*
X234850000D03*
X233850000D03*
X232850000D03*
X231850000D03*
X230850000D03*
X229850000D03*
X228850000D03*
X237850000Y-106690005D03*
X236850000D03*
X235850000D03*
X234850000D03*
X233850000D03*
X232850000D03*
X231850000D03*
X230850000D03*
X229850000D03*
X228850000D03*
X237850000Y-105690005D03*
X236850000D03*
X235850000D03*
X234850000D03*
X233850000D03*
X232850000D03*
X231850000D03*
X230850000D03*
X229850000D03*
X228850000D03*
X237850000Y-104690005D03*
X236850000D03*
X235850000D03*
X234850000D03*
X233850000D03*
X232850000D03*
X231850000D03*
X230850000D03*
X229850000D03*
X228850000D03*
X237850000Y-103690005D03*
X236850000D03*
X235850000D03*
X234850000D03*
X233850000D03*
X232850000D03*
X231850000D03*
X230850000D03*
X229850000D03*
X228850000D03*
X237850000Y-102690005D03*
X236850000D03*
X235850000D03*
X234850000D03*
X233850000D03*
X232850000D03*
X231850000D03*
X230850000D03*
X229850000D03*
X228850000D03*
X237850000Y-101690005D03*
X236850000D03*
X235850000D03*
X234850000D03*
X233850000D03*
X232850000D03*
X231850000D03*
X230850000D03*
X229850000D03*
X228850000D03*
X237850000Y-100690005D03*
X236850000D03*
X235850000D03*
X234850000D03*
X233850000D03*
X232850000D03*
X231850000D03*
X230850000D03*
X229850000D03*
X228850000D03*
X237850000Y-99690005D03*
X236850000D03*
X235850000D03*
X234850000D03*
X233850000D03*
X232850000D03*
X231850000D03*
X230850000D03*
X229850000D03*
X228850000D03*
X237850000Y-98690005D03*
X236850000D03*
X235850000D03*
X234850000D03*
X233850000D03*
X232850000D03*
X231850000D03*
X230850000D03*
X229850000D03*
X228850000D03*
X237850000Y-97690005D03*
X236850000D03*
X235850000D03*
X234850000D03*
X233850000D03*
X232850000D03*
X231850000D03*
X230850000D03*
X229850000D03*
X228850000D03*
X237850000Y-96690005D03*
X236850000D03*
X235850000D03*
X234850000D03*
X233850000D03*
X232850000D03*
X231850000D03*
X230850000D03*
X229850000D03*
X228850000D03*
X237850000Y-95690005D03*
X236850000D03*
X235850000D03*
X234850000D03*
X233850000D03*
X232850000D03*
X231850000D03*
X230850000D03*
X229850000D03*
X228850000D03*
X237850000Y-94690005D03*
X236850000D03*
X235850000D03*
X234850000D03*
X233850000D03*
X232850000D03*
X231850000D03*
X230850000D03*
X229850000D03*
X228850000D03*
X237850000Y-93690005D03*
X236850000D03*
X235850000D03*
X234850000D03*
X233850000D03*
X232850000D03*
X231850000D03*
X230850000D03*
X229850000D03*
X228850000D03*
X237850000Y-92690005D03*
X236850000D03*
X235850000D03*
X234850000D03*
X233850000D03*
X232850000D03*
X231850000D03*
X230850000D03*
X229850000D03*
X228850000D03*
X237850000Y-91690005D03*
X236850000D03*
X235850000D03*
X234850000D03*
X233850000D03*
X232850000D03*
X231850000D03*
X230850000D03*
X229850000D03*
X228850000D03*
X237850000Y-90690005D03*
X236850000D03*
X235850000D03*
X234850000D03*
X233850000D03*
X232850000D03*
X231850000D03*
X230850000D03*
X229850000D03*
X228850000D03*
X237850000Y-89690005D03*
X236850000D03*
X235850000D03*
X234850000D03*
X233850000D03*
X232850000D03*
X231850000D03*
X230850000D03*
X229850000D03*
X228850000D03*
X237850000Y-88690005D03*
X236850000D03*
X235850000D03*
X234850000D03*
X233850000D03*
X232850000D03*
X231850000D03*
X230850000D03*
X229850000D03*
X228850000D03*
X237850000Y-87690005D03*
X236850000D03*
X235850000D03*
X234850000D03*
X233850000D03*
X232850000D03*
X231850000D03*
X230850000D03*
X229850000D03*
X228850000D03*
X237850000Y-86690005D03*
X236850000D03*
X235850000D03*
X234850000D03*
X233850000D03*
X232850000D03*
X231850000D03*
X230850000D03*
X229850000D03*
X228850000D03*
X237850000Y-85690005D03*
X236850000D03*
X235850000D03*
X234850000D03*
X233850000D03*
X232850000D03*
X231850000D03*
X230850000D03*
X229850000D03*
X228850000D03*
X-84989995Y237850000D03*
Y236850000D03*
Y235850000D03*
Y234850000D03*
Y233850000D03*
Y232850000D03*
Y231850000D03*
Y230850000D03*
Y229850000D03*
Y228850000D03*
X-85989995Y237850000D03*
Y236850000D03*
Y235850000D03*
Y234850000D03*
Y233850000D03*
Y232850000D03*
Y231850000D03*
Y230850000D03*
Y229850000D03*
Y228850000D03*
X-86989995Y237850000D03*
Y236850000D03*
Y235850000D03*
Y234850000D03*
Y233850000D03*
Y232850000D03*
Y231850000D03*
Y230850000D03*
Y229850000D03*
Y228850000D03*
X-87989995Y237850000D03*
Y236850000D03*
Y235850000D03*
Y234850000D03*
Y233850000D03*
Y232850000D03*
Y231850000D03*
Y230850000D03*
Y229850000D03*
Y228850000D03*
X-88989995Y237850000D03*
Y236850000D03*
Y235850000D03*
Y234850000D03*
Y233850000D03*
Y232850000D03*
Y231850000D03*
Y230850000D03*
Y229850000D03*
Y228850000D03*
X-89989995Y237850000D03*
Y236850000D03*
Y235850000D03*
Y234850000D03*
Y233850000D03*
Y232850000D03*
Y231850000D03*
Y230850000D03*
Y229850000D03*
Y228850000D03*
X-90989995Y237850000D03*
Y236850000D03*
Y235850000D03*
Y234850000D03*
Y233850000D03*
Y232850000D03*
Y231850000D03*
Y230850000D03*
Y229850000D03*
Y228850000D03*
X-91989995Y237850000D03*
Y236850000D03*
Y235850000D03*
Y234850000D03*
Y233850000D03*
Y232850000D03*
Y231850000D03*
Y230850000D03*
Y229850000D03*
Y228850000D03*
X-92989995Y237850000D03*
Y236850000D03*
Y235850000D03*
Y234850000D03*
Y233850000D03*
Y232850000D03*
Y231850000D03*
Y230850000D03*
Y229850000D03*
Y228850000D03*
X-93989995Y237850000D03*
Y236850000D03*
Y235850000D03*
Y234850000D03*
Y233850000D03*
Y232850000D03*
Y231850000D03*
Y230850000D03*
Y229850000D03*
Y228850000D03*
X-94989995Y237850000D03*
Y236850000D03*
Y235850000D03*
Y234850000D03*
Y233850000D03*
Y232850000D03*
Y231850000D03*
Y230850000D03*
Y229850000D03*
Y228850000D03*
X-95989995Y237850000D03*
Y236850000D03*
Y235850000D03*
Y234850000D03*
Y233850000D03*
Y232850000D03*
Y231850000D03*
Y230850000D03*
Y229850000D03*
Y228850000D03*
X-96989995Y237850000D03*
Y236850000D03*
Y235850000D03*
Y234850000D03*
Y233850000D03*
Y232850000D03*
Y231850000D03*
Y230850000D03*
Y229850000D03*
Y228850000D03*
X-97989995Y237850000D03*
Y236850000D03*
Y235850000D03*
Y234850000D03*
Y233850000D03*
Y232850000D03*
Y231850000D03*
Y230850000D03*
Y229850000D03*
Y228850000D03*
X-98989995Y237850000D03*
Y236850000D03*
Y235850000D03*
Y234850000D03*
Y233850000D03*
Y232850000D03*
Y231850000D03*
Y230850000D03*
Y229850000D03*
Y228850000D03*
X-99989995Y237850000D03*
Y236850000D03*
Y235850000D03*
Y234850000D03*
Y233850000D03*
Y232850000D03*
Y231850000D03*
Y230850000D03*
Y229850000D03*
Y228850000D03*
X-100989995Y237850000D03*
Y236850000D03*
Y235850000D03*
Y234850000D03*
Y233850000D03*
Y232850000D03*
Y231850000D03*
Y230850000D03*
Y229850000D03*
Y228850000D03*
X-101989995Y237850000D03*
Y236850000D03*
Y235850000D03*
Y234850000D03*
Y233850000D03*
Y232850000D03*
Y231850000D03*
Y230850000D03*
Y229850000D03*
Y228850000D03*
X-102989995Y237850000D03*
Y236850000D03*
Y235850000D03*
Y234850000D03*
Y233850000D03*
Y232850000D03*
Y231850000D03*
Y230850000D03*
Y229850000D03*
Y228850000D03*
X-103989995Y237850000D03*
Y236850000D03*
Y235850000D03*
Y234850000D03*
Y233850000D03*
Y232850000D03*
Y231850000D03*
Y230850000D03*
Y229850000D03*
Y228850000D03*
X-104989995Y237850000D03*
Y236850000D03*
Y235850000D03*
Y234850000D03*
Y233850000D03*
Y232850000D03*
Y231850000D03*
Y230850000D03*
Y229850000D03*
Y228850000D03*
X-105989995Y237850000D03*
Y236850000D03*
Y235850000D03*
Y234850000D03*
Y233850000D03*
Y232850000D03*
Y231850000D03*
Y230850000D03*
Y229850000D03*
Y228850000D03*
X-106989995Y237850000D03*
Y236850000D03*
Y235850000D03*
Y234850000D03*
Y233850000D03*
Y232850000D03*
Y231850000D03*
Y230850000D03*
Y229850000D03*
Y228850000D03*
X-107989995Y237850000D03*
Y236850000D03*
Y235850000D03*
Y234850000D03*
Y233850000D03*
Y232850000D03*
Y231850000D03*
Y230850000D03*
Y229850000D03*
Y228850000D03*
X-108989995Y237850000D03*
Y236850000D03*
Y235850000D03*
Y234850000D03*
Y233850000D03*
Y232850000D03*
Y231850000D03*
Y230850000D03*
Y229850000D03*
Y228850000D03*
X-109989995Y237850000D03*
Y236850000D03*
Y235850000D03*
Y234850000D03*
Y233850000D03*
Y232850000D03*
Y231850000D03*
Y230850000D03*
Y229850000D03*
Y228850000D03*
X-110989995Y237850000D03*
Y236850000D03*
Y235850000D03*
Y234850000D03*
Y233850000D03*
Y232850000D03*
Y231850000D03*
Y230850000D03*
Y229850000D03*
Y228850000D03*
X-111989995Y237850000D03*
Y236850000D03*
Y235850000D03*
Y234850000D03*
Y233850000D03*
Y232850000D03*
Y231850000D03*
Y230850000D03*
Y229850000D03*
Y228850000D03*
X-112989995Y237850000D03*
Y236850000D03*
Y235850000D03*
Y234850000D03*
Y233850000D03*
Y232850000D03*
Y231850000D03*
Y230850000D03*
Y229850000D03*
Y228850000D03*
X-113989995Y237850000D03*
Y236850000D03*
Y235850000D03*
Y234850000D03*
Y233850000D03*
Y232850000D03*
Y231850000D03*
Y230850000D03*
Y229850000D03*
Y228850000D03*
X114690005Y237850000D03*
Y236850000D03*
Y235850000D03*
Y234850000D03*
Y233850000D03*
Y232850000D03*
Y231850000D03*
Y230850000D03*
Y229850000D03*
Y228850000D03*
X113690005Y237850000D03*
Y236850000D03*
Y235850000D03*
Y234850000D03*
Y233850000D03*
Y232850000D03*
Y231850000D03*
Y230850000D03*
Y229850000D03*
Y228850000D03*
X112690005Y237850000D03*
Y236850000D03*
Y235850000D03*
Y234850000D03*
Y233850000D03*
Y232850000D03*
Y231850000D03*
Y230850000D03*
Y229850000D03*
Y228850000D03*
X111690005Y237850000D03*
Y236850000D03*
Y235850000D03*
Y234850000D03*
Y233850000D03*
Y232850000D03*
Y231850000D03*
Y230850000D03*
Y229850000D03*
Y228850000D03*
X110690005Y237850000D03*
Y236850000D03*
Y235850000D03*
Y234850000D03*
Y233850000D03*
Y232850000D03*
Y231850000D03*
Y230850000D03*
Y229850000D03*
Y228850000D03*
X109690005Y237850000D03*
Y236850000D03*
Y235850000D03*
Y234850000D03*
Y233850000D03*
Y232850000D03*
Y231850000D03*
Y230850000D03*
Y229850000D03*
Y228850000D03*
X108690005Y237850000D03*
Y236850000D03*
Y235850000D03*
Y234850000D03*
Y233850000D03*
Y232850000D03*
Y231850000D03*
Y230850000D03*
Y229850000D03*
Y228850000D03*
X107690005Y237850000D03*
Y236850000D03*
Y235850000D03*
Y234850000D03*
Y233850000D03*
Y232850000D03*
Y231850000D03*
Y230850000D03*
Y229850000D03*
Y228850000D03*
X106690005Y237850000D03*
Y236850000D03*
Y235850000D03*
Y234850000D03*
Y233850000D03*
Y232850000D03*
Y231850000D03*
Y230850000D03*
Y229850000D03*
Y228850000D03*
X105690005Y237850000D03*
Y236850000D03*
Y235850000D03*
Y234850000D03*
Y233850000D03*
Y232850000D03*
Y231850000D03*
Y230850000D03*
Y229850000D03*
Y228850000D03*
X104690005Y237850000D03*
Y236850000D03*
Y235850000D03*
Y234850000D03*
Y233850000D03*
Y232850000D03*
Y231850000D03*
Y230850000D03*
Y229850000D03*
Y228850000D03*
X103690005Y237850000D03*
Y236850000D03*
Y235850000D03*
Y234850000D03*
Y233850000D03*
Y232850000D03*
Y231850000D03*
Y230850000D03*
Y229850000D03*
Y228850000D03*
X102690005Y237850000D03*
Y236850000D03*
Y235850000D03*
Y234850000D03*
Y233850000D03*
Y232850000D03*
Y231850000D03*
Y230850000D03*
Y229850000D03*
Y228850000D03*
X101690005Y237850000D03*
Y236850000D03*
Y235850000D03*
Y234850000D03*
Y233850000D03*
Y232850000D03*
Y231850000D03*
Y230850000D03*
Y229850000D03*
Y228850000D03*
X100690005Y237850000D03*
Y236850000D03*
Y235850000D03*
Y234850000D03*
Y233850000D03*
Y232850000D03*
Y231850000D03*
Y230850000D03*
Y229850000D03*
Y228850000D03*
X99690005Y237850000D03*
Y236850000D03*
Y235850000D03*
Y234850000D03*
Y233850000D03*
Y232850000D03*
Y231850000D03*
Y230850000D03*
Y229850000D03*
Y228850000D03*
X98690005Y237850000D03*
Y236850000D03*
Y235850000D03*
Y234850000D03*
Y233850000D03*
Y232850000D03*
Y231850000D03*
Y230850000D03*
Y229850000D03*
Y228850000D03*
X97690005Y237850000D03*
Y236850000D03*
Y235850000D03*
Y234850000D03*
Y233850000D03*
Y232850000D03*
Y231850000D03*
Y230850000D03*
Y229850000D03*
Y228850000D03*
X96690005Y237850000D03*
Y236850000D03*
Y235850000D03*
Y234850000D03*
Y233850000D03*
Y232850000D03*
Y231850000D03*
Y230850000D03*
Y229850000D03*
Y228850000D03*
X95690005Y237850000D03*
Y236850000D03*
Y235850000D03*
Y234850000D03*
Y233850000D03*
Y232850000D03*
Y231850000D03*
Y230850000D03*
Y229850000D03*
Y228850000D03*
X94690005Y237850000D03*
Y236850000D03*
Y235850000D03*
Y234850000D03*
Y233850000D03*
Y232850000D03*
Y231850000D03*
Y230850000D03*
Y229850000D03*
Y228850000D03*
X93690005Y237850000D03*
Y236850000D03*
Y235850000D03*
Y234850000D03*
Y233850000D03*
Y232850000D03*
Y231850000D03*
Y230850000D03*
Y229850000D03*
Y228850000D03*
X92690005Y237850000D03*
Y236850000D03*
Y235850000D03*
Y234850000D03*
Y233850000D03*
Y232850000D03*
Y231850000D03*
Y230850000D03*
Y229850000D03*
Y228850000D03*
X91690005Y237850000D03*
Y236850000D03*
Y235850000D03*
Y234850000D03*
Y233850000D03*
Y232850000D03*
Y231850000D03*
Y230850000D03*
Y229850000D03*
Y228850000D03*
X90690005Y237850000D03*
Y236850000D03*
Y235850000D03*
Y234850000D03*
Y233850000D03*
Y232850000D03*
Y231850000D03*
Y230850000D03*
Y229850000D03*
Y228850000D03*
X89690005Y237850000D03*
Y236850000D03*
Y235850000D03*
Y234850000D03*
Y233850000D03*
Y232850000D03*
Y231850000D03*
Y230850000D03*
Y229850000D03*
Y228850000D03*
X88690005Y237850000D03*
Y236850000D03*
Y235850000D03*
Y234850000D03*
Y233850000D03*
Y232850000D03*
Y231850000D03*
Y230850000D03*
Y229850000D03*
Y228850000D03*
X87690005Y237850000D03*
Y236850000D03*
Y235850000D03*
Y234850000D03*
Y233850000D03*
Y232850000D03*
Y231850000D03*
Y230850000D03*
Y229850000D03*
Y228850000D03*
X86690005Y237850000D03*
Y236850000D03*
Y235850000D03*
Y234850000D03*
Y233850000D03*
Y232850000D03*
Y231850000D03*
Y230850000D03*
Y229850000D03*
Y228850000D03*
X85690005Y237850000D03*
Y236850000D03*
Y235850000D03*
Y234850000D03*
Y233850000D03*
Y232850000D03*
Y231850000D03*
Y230850000D03*
Y229850000D03*
Y228850000D03*
D18*
X-85339995Y237500000D03*
Y236500000D03*
Y235500000D03*
Y234500000D03*
Y233500000D03*
Y232500000D03*
Y231500000D03*
Y230500000D03*
Y229500000D03*
Y228500000D03*
X-86339995Y237500000D03*
Y236500000D03*
Y235500000D03*
Y234500000D03*
Y233500000D03*
Y232500000D03*
Y231500000D03*
Y230500000D03*
Y229500000D03*
Y228500000D03*
X-87339995Y237500000D03*
Y236500000D03*
Y235500000D03*
Y234500000D03*
Y233500000D03*
Y232500000D03*
Y231500000D03*
Y230500000D03*
Y229500000D03*
Y228500000D03*
X-88339995Y237500000D03*
Y236500000D03*
Y235500000D03*
Y234500000D03*
Y233500000D03*
Y232500000D03*
Y231500000D03*
Y230500000D03*
Y229500000D03*
Y228500000D03*
X-89339995Y237500000D03*
Y236500000D03*
Y235500000D03*
Y234500000D03*
Y233500000D03*
Y232500000D03*
Y231500000D03*
Y230500000D03*
Y229500000D03*
Y228500000D03*
X-90339995Y237500000D03*
Y236500000D03*
Y235500000D03*
Y234500000D03*
Y233500000D03*
Y232500000D03*
Y231500000D03*
Y230500000D03*
Y229500000D03*
Y228500000D03*
X-91339995Y237500000D03*
Y236500000D03*
Y235500000D03*
Y234500000D03*
Y233500000D03*
Y232500000D03*
Y231500000D03*
Y230500000D03*
Y229500000D03*
Y228500000D03*
X-92339995Y237500000D03*
Y236500000D03*
Y235500000D03*
Y234500000D03*
Y233500000D03*
Y232500000D03*
Y231500000D03*
Y230500000D03*
Y229500000D03*
Y228500000D03*
X-93339995Y237500000D03*
Y236500000D03*
Y235500000D03*
Y234500000D03*
Y233500000D03*
Y232500000D03*
Y231500000D03*
Y230500000D03*
Y229500000D03*
Y228500000D03*
X-94339995Y237500000D03*
Y236500000D03*
Y235500000D03*
Y234500000D03*
Y233500000D03*
Y232500000D03*
Y231500000D03*
Y230500000D03*
Y229500000D03*
Y228500000D03*
X-95339995Y237500000D03*
Y236500000D03*
Y235500000D03*
Y234500000D03*
Y233500000D03*
Y232500000D03*
Y231500000D03*
Y230500000D03*
Y229500000D03*
Y228500000D03*
X-96339995Y237500000D03*
Y236500000D03*
Y235500000D03*
Y234500000D03*
Y233500000D03*
Y232500000D03*
Y231500000D03*
Y230500000D03*
Y229500000D03*
Y228500000D03*
X-97339995Y237500000D03*
Y236500000D03*
Y235500000D03*
Y234500000D03*
Y233500000D03*
Y232500000D03*
Y231500000D03*
Y230500000D03*
Y229500000D03*
Y228500000D03*
X-98339995Y237500000D03*
Y236500000D03*
Y235500000D03*
Y234500000D03*
Y233500000D03*
Y232500000D03*
Y231500000D03*
Y230500000D03*
Y229500000D03*
Y228500000D03*
X-99339995Y237500000D03*
Y236500000D03*
Y235500000D03*
Y234500000D03*
Y233500000D03*
Y232500000D03*
Y231500000D03*
Y230500000D03*
Y229500000D03*
Y228500000D03*
X-100339995Y237500000D03*
Y236500000D03*
Y235500000D03*
Y234500000D03*
Y233500000D03*
Y232500000D03*
Y231500000D03*
Y230500000D03*
Y229500000D03*
Y228500000D03*
X-101339995Y237500000D03*
Y236500000D03*
Y235500000D03*
Y234500000D03*
Y233500000D03*
Y232500000D03*
Y231500000D03*
Y230500000D03*
Y229500000D03*
Y228500000D03*
X-102339995Y237500000D03*
Y236500000D03*
Y235500000D03*
Y234500000D03*
Y233500000D03*
Y232500000D03*
Y231500000D03*
Y230500000D03*
Y229500000D03*
Y228500000D03*
X-103339995Y237500000D03*
Y236500000D03*
Y235500000D03*
Y234500000D03*
Y233500000D03*
Y232500000D03*
Y231500000D03*
Y230500000D03*
Y229500000D03*
Y228500000D03*
X-104339995Y237500000D03*
Y236500000D03*
Y235500000D03*
Y234500000D03*
Y233500000D03*
Y232500000D03*
Y231500000D03*
Y230500000D03*
Y229500000D03*
Y228500000D03*
X-105339995Y237500000D03*
Y236500000D03*
Y235500000D03*
Y234500000D03*
Y233500000D03*
Y232500000D03*
Y231500000D03*
Y230500000D03*
Y229500000D03*
Y228500000D03*
X-106339995Y237500000D03*
Y236500000D03*
Y235500000D03*
Y234500000D03*
Y233500000D03*
Y232500000D03*
Y231500000D03*
Y230500000D03*
Y229500000D03*
Y228500000D03*
X-107339995Y237500000D03*
Y236500000D03*
Y235500000D03*
Y234500000D03*
Y233500000D03*
Y232500000D03*
Y231500000D03*
Y230500000D03*
Y229500000D03*
Y228500000D03*
X-108339995Y237500000D03*
Y236500000D03*
Y235500000D03*
Y234500000D03*
Y233500000D03*
Y232500000D03*
Y231500000D03*
Y230500000D03*
Y229500000D03*
Y228500000D03*
X-109339995Y237500000D03*
Y236500000D03*
Y235500000D03*
Y234500000D03*
Y233500000D03*
Y232500000D03*
Y231500000D03*
Y230500000D03*
Y229500000D03*
Y228500000D03*
X-110339995Y237500000D03*
Y236500000D03*
Y235500000D03*
Y234500000D03*
Y233500000D03*
Y232500000D03*
Y231500000D03*
Y230500000D03*
Y229500000D03*
Y228500000D03*
X-111339995Y237500000D03*
Y236500000D03*
Y235500000D03*
Y234500000D03*
Y233500000D03*
Y232500000D03*
Y231500000D03*
Y230500000D03*
Y229500000D03*
Y228500000D03*
X-112339995Y237500000D03*
Y236500000D03*
Y235500000D03*
Y234500000D03*
Y233500000D03*
Y232500000D03*
Y231500000D03*
Y230500000D03*
Y229500000D03*
Y228500000D03*
X-113339995Y237500000D03*
Y236500000D03*
Y235500000D03*
Y234500000D03*
Y233500000D03*
Y232500000D03*
Y231500000D03*
Y230500000D03*
Y229500000D03*
Y228500000D03*
X-114339995Y237500000D03*
Y236500000D03*
Y235500000D03*
Y234500000D03*
Y233500000D03*
Y232500000D03*
Y231500000D03*
Y230500000D03*
Y229500000D03*
Y228500000D03*
X114340005Y237500000D03*
Y236500000D03*
Y235500000D03*
Y234500000D03*
Y233500000D03*
Y232500000D03*
Y231500000D03*
Y230500000D03*
Y229500000D03*
Y228500000D03*
X113340005Y237500000D03*
Y236500000D03*
Y235500000D03*
Y234500000D03*
Y233500000D03*
Y232500000D03*
Y231500000D03*
Y230500000D03*
Y229500000D03*
Y228500000D03*
X112340005Y237500000D03*
Y236500000D03*
Y235500000D03*
Y234500000D03*
Y233500000D03*
Y232500000D03*
Y231500000D03*
Y230500000D03*
Y229500000D03*
Y228500000D03*
X111340005Y237500000D03*
Y236500000D03*
Y235500000D03*
Y234500000D03*
Y233500000D03*
Y232500000D03*
Y231500000D03*
Y230500000D03*
Y229500000D03*
Y228500000D03*
X110340005Y237500000D03*
Y236500000D03*
Y235500000D03*
Y234500000D03*
Y233500000D03*
Y232500000D03*
Y231500000D03*
Y230500000D03*
Y229500000D03*
Y228500000D03*
X109340005Y237500000D03*
Y236500000D03*
Y235500000D03*
Y234500000D03*
Y233500000D03*
Y232500000D03*
Y231500000D03*
Y230500000D03*
Y229500000D03*
Y228500000D03*
X108340005Y237500000D03*
Y236500000D03*
Y235500000D03*
Y234500000D03*
Y233500000D03*
Y232500000D03*
Y231500000D03*
Y230500000D03*
Y229500000D03*
Y228500000D03*
X107340005Y237500000D03*
Y236500000D03*
Y235500000D03*
Y234500000D03*
Y233500000D03*
Y232500000D03*
Y231500000D03*
Y230500000D03*
Y229500000D03*
Y228500000D03*
X106340005Y237500000D03*
Y236500000D03*
Y235500000D03*
Y234500000D03*
Y233500000D03*
Y232500000D03*
Y231500000D03*
Y230500000D03*
Y229500000D03*
Y228500000D03*
X105340005Y237500000D03*
Y236500000D03*
Y235500000D03*
Y234500000D03*
Y233500000D03*
Y232500000D03*
Y231500000D03*
Y230500000D03*
Y229500000D03*
Y228500000D03*
X104340005Y237500000D03*
Y236500000D03*
Y235500000D03*
Y234500000D03*
Y233500000D03*
Y232500000D03*
Y231500000D03*
Y230500000D03*
Y229500000D03*
Y228500000D03*
X103340005Y237500000D03*
Y236500000D03*
Y235500000D03*
Y234500000D03*
Y233500000D03*
Y232500000D03*
Y231500000D03*
Y230500000D03*
Y229500000D03*
Y228500000D03*
X102340005Y237500000D03*
Y236500000D03*
Y235500000D03*
Y234500000D03*
Y233500000D03*
Y232500000D03*
Y231500000D03*
Y230500000D03*
Y229500000D03*
Y228500000D03*
X101340005Y237500000D03*
Y236500000D03*
Y235500000D03*
Y234500000D03*
Y233500000D03*
Y232500000D03*
Y231500000D03*
Y230500000D03*
Y229500000D03*
Y228500000D03*
X100340005Y237500000D03*
Y236500000D03*
Y235500000D03*
Y234500000D03*
Y233500000D03*
Y232500000D03*
Y231500000D03*
Y230500000D03*
Y229500000D03*
Y228500000D03*
X99340005Y237500000D03*
Y236500000D03*
Y235500000D03*
Y234500000D03*
Y233500000D03*
Y232500000D03*
Y231500000D03*
Y230500000D03*
Y229500000D03*
Y228500000D03*
X98340005Y237500000D03*
Y236500000D03*
Y235500000D03*
Y234500000D03*
Y233500000D03*
Y232500000D03*
Y231500000D03*
Y230500000D03*
Y229500000D03*
Y228500000D03*
X97340005Y237500000D03*
Y236500000D03*
Y235500000D03*
Y234500000D03*
Y233500000D03*
Y232500000D03*
Y231500000D03*
Y230500000D03*
Y229500000D03*
Y228500000D03*
X96340005Y237500000D03*
Y236500000D03*
Y235500000D03*
Y234500000D03*
Y233500000D03*
Y232500000D03*
Y231500000D03*
Y230500000D03*
Y229500000D03*
Y228500000D03*
X95340005Y237500000D03*
Y236500000D03*
Y235500000D03*
Y234500000D03*
Y233500000D03*
Y232500000D03*
Y231500000D03*
Y230500000D03*
Y229500000D03*
Y228500000D03*
X94340005Y237500000D03*
Y236500000D03*
Y235500000D03*
Y234500000D03*
Y233500000D03*
Y232500000D03*
Y231500000D03*
Y230500000D03*
Y229500000D03*
Y228500000D03*
X93340005Y237500000D03*
Y236500000D03*
Y235500000D03*
Y234500000D03*
Y233500000D03*
Y232500000D03*
Y231500000D03*
Y230500000D03*
Y229500000D03*
Y228500000D03*
X92340005Y237500000D03*
Y236500000D03*
Y235500000D03*
Y234500000D03*
Y233500000D03*
Y232500000D03*
Y231500000D03*
Y230500000D03*
Y229500000D03*
Y228500000D03*
X91340005Y237500000D03*
Y236500000D03*
Y235500000D03*
Y234500000D03*
Y233500000D03*
Y232500000D03*
Y231500000D03*
Y230500000D03*
Y229500000D03*
Y228500000D03*
X90340005Y237500000D03*
Y236500000D03*
Y235500000D03*
Y234500000D03*
Y233500000D03*
Y232500000D03*
Y231500000D03*
Y230500000D03*
Y229500000D03*
Y228500000D03*
X89340005Y237500000D03*
Y236500000D03*
Y235500000D03*
Y234500000D03*
Y233500000D03*
Y232500000D03*
Y231500000D03*
Y230500000D03*
Y229500000D03*
Y228500000D03*
X88340005Y237500000D03*
Y236500000D03*
Y235500000D03*
Y234500000D03*
Y233500000D03*
Y232500000D03*
Y231500000D03*
Y230500000D03*
Y229500000D03*
Y228500000D03*
X87340005Y237500000D03*
Y236500000D03*
Y235500000D03*
Y234500000D03*
Y233500000D03*
Y232500000D03*
Y231500000D03*
Y230500000D03*
Y229500000D03*
Y228500000D03*
X86340005Y237500000D03*
Y236500000D03*
Y235500000D03*
Y234500000D03*
Y233500000D03*
Y232500000D03*
Y231500000D03*
Y230500000D03*
Y229500000D03*
Y228500000D03*
X85340005Y237500000D03*
Y236500000D03*
Y235500000D03*
Y234500000D03*
Y233500000D03*
Y232500000D03*
Y231500000D03*
Y230500000D03*
Y229500000D03*
Y228500000D03*
D19*
X233400000Y-208400000D03*
Y-188400000D03*
G36*
X131311000Y247500000D02*
G75*
G2*
X132311000Y248500000I1000000J0D01*
G74*
G1*
X197400000D01*
Y223400000D01*
G75*
G3*
X198400000Y222400000I1000000J0D01*
G74*
G1*
X222400000D01*
Y203400000D01*
G75*
G3*
X223400000Y202400000I1000000J0D01*
G74*
G1*
X248500000D01*
Y159284175D01*
G75*
G2*
X247433015Y158286420I-1000000J0D01*
G74*
G75*
G2*
X247371865Y158292425I67110J997745D01*
G74*
G75*
G2*
X246836290Y158536185I128135J991750D01*
G74*
G75*
G3*
X246139400Y158800795I-696890J-785390D01*
G74*
G1*
X219400000D01*
Y218400000D01*
G75*
G3*
X218400000Y219400000I-1000000J0D01*
G74*
G1*
X160360785D01*
Y225417480D01*
G75*
G3*
X160053245Y226159940I-1050000J0D01*
G74*
G1*
X159085330Y227127855D01*
G75*
G3*
X158342870Y227435395I-742460J-742460D01*
G74*
G1*
X134661000D01*
G75*
G2*
X133953895Y227728290I0J1000000D01*
G74*
G1*
X133154755Y228527430D01*
G75*
G2*
X132861860Y229234535I707105J707105D01*
G74*
G1*
Y245100000D01*
G75*
G3*
X132554325Y245842465I-1050000J0D01*
G74*
G1*
X131603895Y246792895D01*
G75*
G2*
X131311000Y247500000I707105J707105D01*
G74*
G37*
G36*
G1*
X-39871720Y247500000D02*
G75*
G2*
X-38871720Y248500000I1000000J0D01*
G74*
G1*
X40395825D01*
G75*
G2*
X40556100Y248487065I-45J-999995D01*
G74*
G75*
G2*
X40607250Y248477395I-160125J-987095D01*
G74*
G75*
G2*
X41198420Y248096525I-211425J-977395D01*
G74*
G75*
G2*
X41244395Y248029070I-802645J-596450D01*
G74*
G75*
G2*
X41393580Y247433015I-848565J-529085D01*
G74*
G75*
G2*
X41387575Y247371865I-997745J67110D01*
G74*
G75*
G2*
X41143815Y246836290I-991750J128135D01*
G74*
G75*
G3*
X40879205Y246139400I785390J-696890D01*
G74*
G1*
Y219400000D01*
X-39319215D01*
Y246100000D01*
G75*
G3*
X-39602205Y246817070I-1050000J0D01*
G74*
G75*
G2*
X-39871720Y247500000I730485J682930D01*
G74*
G37*
G36*
G1*
X219400000Y39319215D02*
X246100000D01*
G75*
G3*
X246487875Y39393480I0J1050000D01*
G74*
G75*
G2*
X246691760Y39450415I369405J-929270D01*
G74*
G75*
G3*
X247020955Y39564255I-173800J1035520D01*
G74*
G75*
G2*
X248500000Y38686465I479045J-877790D01*
G74*
G1*
Y-40395825D01*
G75*
G2*
X247433015Y-41393580I-1000000J0D01*
G74*
G75*
G2*
X247371865Y-41387575I67110J997745D01*
G74*
G75*
G2*
X246836290Y-41143815I128135J991750D01*
G74*
G75*
G3*
X246139400Y-40879205I-696890J-785390D01*
G74*
G1*
X219400000D01*
Y39319215D01*
G37*
G36*
X-218500000Y247500000D02*
G75*
G2*
X-217500000Y248500000I1000000J0D01*
G74*
G1*
X-159284175D01*
G75*
G2*
X-159123900Y248487065I-45J-999995D01*
G74*
G75*
G2*
X-159072750Y248477395I-160125J-987095D01*
G74*
G75*
G2*
X-158481580Y248096525I-211425J-977395D01*
G74*
G75*
G2*
X-158435605Y248029070I-802645J-596450D01*
G74*
G75*
G2*
X-158286420Y247433015I-848565J-529085D01*
G74*
G75*
G2*
X-158292425Y247371865I-997745J67110D01*
G74*
G75*
G2*
X-158536185Y246836290I-991750J128135D01*
G74*
G75*
G3*
X-158800795Y246139400I785390J-696890D01*
G74*
G1*
Y219400000D01*
X-218400000D01*
G75*
G3*
X-218500000Y219394990I0J-1000000D01*
G74*
G1*
Y247500000D01*
G37*
G36*
X219394990Y-218500000D02*
G75*
G3*
X219400000Y-218400000I-994990J100000D01*
G74*
G1*
Y-160360785D01*
X224385395D01*
G75*
G3*
X224734640Y-160301000I0J1050000D01*
G74*
G75*
G2*
X225067250Y-160244065I332610J-943065D01*
G74*
G1*
X246517960D01*
G75*
G3*
X247020955Y-160115750I0J1050000D01*
G74*
G75*
G2*
X248500000Y-160993540I479045J-877790D01*
G74*
G1*
Y-217500000D01*
G75*
G2*
X247500000Y-218500000I-1000000J0D01*
G74*
G1*
X219394990D01*
G37*
D20*
X-218500000Y248500000D02*
Y-218500000D01*
X248500000D01*
X196900000Y248500000D02*
X-218500000D01*
X248500000Y-218500000D02*
Y201900000D01*
X196900000Y221900000D02*
X221900000D01*
Y201900000D01*
X248500000D01*
X196900000Y248500000D02*
Y221900000D01*
X233400000Y228400000D02*
Y198418565D01*
%LPC*%
G36*
X197655195Y235900000D02*
X217655195D01*
X223400000D01*
Y220900000D01*
X217655195D01*
X197655195D01*
Y235900000D01*
G37*
%LPD*%
G36*
X228400000Y240900000D02*
X238400000D01*
Y245900000D01*
X228400000D01*
Y240900000D01*
G37*
G36*
X228400000Y225900000D02*
X238400000D01*
Y230900000D01*
X228400000D01*
Y225900000D01*
G37*
G36*
X208400000Y225900000D02*
X218400000D01*
Y230900000D01*
X208400000D01*
Y225900000D01*
G37*
G36*
X208400000Y240900000D02*
X218400000D01*
Y245900000D01*
X208400000D01*
Y240900000D01*
G37*
%LPC*%
D21*
X230400000Y186400000D03*
X243000000D03*
%LPD*%
D22*
X213400000Y228400000D02*
X207657695D01*
%LPD*%
M02*