G04 #@! TF.FileFunction,Other,rout*
G04 #@! TF.FilePolarity,Positive*
G04 #@! TF.SameCoordinates,X6d7ZJsscqpJGbbtGXR9ZhFdWuJ0khT*
G04 #@! TF.CreationDate,2025-05-23T14:01:28+0200*
G04 #@! TF.GenerationSoftware,Ucamco,UcamX,v2023.12-240208*
%FSLAX36Y36*%
%MOMM*%
%ADD10C,0.010000*%
%ADD11C,7.500000X7*%
%ADD12C,3*%
%ADD13C,4*%
%ADD14C,4.200000*%
G04 layer name: DFS3498A_gasframe*
%LPD*%
D10*
X-200000000Y-205000000D02*
X200000000D01*
G75*
G3*
X205000000Y-200000000I0J5000000D01*
G74*
G1*
Y200000000D01*
G75*
G3*
X200000000Y205000000I-5000000J0D01*
G74*
G1*
X-200000000D01*
G75*
G3*
X-205000000Y200000000I0J-5000000D01*
G74*
G1*
Y-200000000D01*
G75*
G3*
X-200000000Y-205000000I5000000J0D01*
G74*
G1*
X-218400000Y218400000D02*
Y-218400000D01*
X218400000D01*
Y218400000D01*
X-218400000D01*
D11*
X214000000Y-214000000D03*
Y214000000D03*
X-214000000Y-214000000D03*
Y214000000D03*
X-165000000D03*
X-110000000D03*
X-55000000D03*
X0D03*
X55000000D03*
X110000000D03*
X165000000D03*
X214000000Y165000000D03*
X-214000000D03*
X214000000Y110000000D03*
X-214000000D03*
X214000000Y55000000D03*
X-214000000D03*
X214000000Y0D03*
X-214000000D03*
X214000000Y-55000000D03*
X-214000000D03*
X214000000Y-110000000D03*
X-214000000D03*
X214000000Y-165000000D03*
X-214000000D03*
X-165000000Y-214000000D03*
X-110000000D03*
X-55000000D03*
X0D03*
X55000000D03*
X110000000D03*
X165000000D03*
D12*
X-199900000Y-209900000D02*
X199900000D01*
G75*
G3*
X209900000Y-199900000I0J10000000D01*
G74*
G1*
Y199900000D01*
G75*
G3*
X199900000Y209900000I-10000000J0D01*
G74*
G1*
X-199900000D01*
G75*
G3*
X-209900000Y199900000I0J-10000000D01*
G74*
G1*
Y-199900000D01*
G75*
G3*
X-199900000Y-209900000I10000000J0D01*
G74*
D13*
G1*
X233000005Y140000000D03*
Y-60000000D03*
X140000000Y233000005D03*
X-60000000D03*
D14*
X214000000Y-214000000D03*
Y214000000D03*
X-214000000Y-214000000D03*
Y214000000D03*
X-165000000D03*
X-110000000D03*
X-55000000D03*
X0D03*
X55000000D03*
X110000000D03*
X165000000D03*
X214000000Y165000000D03*
X-214000000D03*
X214000000Y110000000D03*
X-214000000D03*
X214000000Y55000000D03*
X-214000000D03*
X214000000Y0D03*
X-214000000D03*
X214000000Y-55000000D03*
X-214000000D03*
X214000000Y-110000000D03*
X-214000000D03*
X214000000Y-165000000D03*
X-214000000D03*
X-165000000Y-214000000D03*
X-110000000D03*
X-55000000D03*
X0D03*
X55000000D03*
X110000000D03*
X165000000D03*
%LPD*%
M02*