G04 #@! TF.FileFunction,Plated,3,4,PTH*
G04 #@! TF.FilePolarity,Positive*
G04 #@! TF.SameCoordinates,X6d7ZJsscqpJGbbtGXR9ZhFdWuJ0khT*
G04 #@! TF.CreationDate,2025-05-23T14:01:28+0200*
G04 #@! TF.GenerationSoftware,Ucamco,UcamX,v2023.12-240208*
%FSLAX36Y36*%
%MOMM*%
%ADD10C,0.250000*%
G04 layer name: DFS3498A_pla1-2*
%LPD*%
D10*
X237850000Y84989995D03*
X236850000D03*
X235850000D03*
X234850000D03*
X233850000D03*
X232850000D03*
X231850000D03*
X230850000D03*
X229850000D03*
X228850000D03*
X237850000Y85989995D03*
X236850000D03*
X235850000D03*
X234850000D03*
X233850000D03*
X232850000D03*
X231850000D03*
X230850000D03*
X229850000D03*
X228850000D03*
X237850000Y86989995D03*
X236850000D03*
X235850000D03*
X234850000D03*
X233850000D03*
X232850000D03*
X231850000D03*
X230850000D03*
X229850000D03*
X228850000D03*
X237850000Y87989995D03*
X236850000D03*
X235850000D03*
X234850000D03*
X233850000D03*
X232850000D03*
X231850000D03*
X230850000D03*
X229850000D03*
X228850000D03*
X237850000Y88989995D03*
X236850000D03*
X235850000D03*
X234850000D03*
X233850000D03*
X232850000D03*
X231850000D03*
X230850000D03*
X229850000D03*
X228850000D03*
X237850000Y89989995D03*
X236850000D03*
X235850000D03*
X234850000D03*
X233850000D03*
X232850000D03*
X231850000D03*
X230850000D03*
X229850000D03*
X228850000D03*
X237850000Y90989995D03*
X236850000D03*
X235850000D03*
X234850000D03*
X233850000D03*
X232850000D03*
X231850000D03*
X230850000D03*
X229850000D03*
X228850000D03*
X237850000Y91989995D03*
X236850000D03*
X235850000D03*
X234850000D03*
X233850000D03*
X232850000D03*
X231850000D03*
X230850000D03*
X229850000D03*
X228850000D03*
X237850000Y92989995D03*
X236850000D03*
X235850000D03*
X234850000D03*
X233850000D03*
X232850000D03*
X231850000D03*
X230850000D03*
X229850000D03*
X228850000D03*
X237850000Y93989995D03*
X236850000D03*
X235850000D03*
X234850000D03*
X233850000D03*
X232850000D03*
X231850000D03*
X230850000D03*
X229850000D03*
X228850000D03*
X237850000Y94989995D03*
X236850000D03*
X235850000D03*
X234850000D03*
X233850000D03*
X232850000D03*
X231850000D03*
X230850000D03*
X229850000D03*
X228850000D03*
X237850000Y95989995D03*
X236850000D03*
X235850000D03*
X234850000D03*
X233850000D03*
X232850000D03*
X231850000D03*
X230850000D03*
X229850000D03*
X228850000D03*
X237850000Y96989995D03*
X236850000D03*
X235850000D03*
X234850000D03*
X233850000D03*
X232850000D03*
X231850000D03*
X230850000D03*
X229850000D03*
X228850000D03*
X237850000Y97989995D03*
X236850000D03*
X235850000D03*
X234850000D03*
X233850000D03*
X232850000D03*
X231850000D03*
X230850000D03*
X229850000D03*
X228850000D03*
X237850000Y98989995D03*
X236850000D03*
X235850000D03*
X234850000D03*
X233850000D03*
X232850000D03*
X231850000D03*
X230850000D03*
X229850000D03*
X228850000D03*
X237850000Y99989995D03*
X236850000D03*
X235850000D03*
X234850000D03*
X233850000D03*
X232850000D03*
X231850000D03*
X230850000D03*
X229850000D03*
X228850000D03*
X237850000Y100989995D03*
X236850000D03*
X235850000D03*
X234850000D03*
X233850000D03*
X232850000D03*
X231850000D03*
X230850000D03*
X229850000D03*
X228850000D03*
X237850000Y101989995D03*
X236850000D03*
X235850000D03*
X234850000D03*
X233850000D03*
X232850000D03*
X231850000D03*
X230850000D03*
X229850000D03*
X228850000D03*
X237850000Y102989995D03*
X236850000D03*
X235850000D03*
X234850000D03*
X233850000D03*
X232850000D03*
X231850000D03*
X230850000D03*
X229850000D03*
X228850000D03*
X237850000Y103989995D03*
X236850000D03*
X235850000D03*
X234850000D03*
X233850000D03*
X232850000D03*
X231850000D03*
X230850000D03*
X229850000D03*
X228850000D03*
X237850000Y104989995D03*
X236850000D03*
X235850000D03*
X234850000D03*
X233850000D03*
X232850000D03*
X231850000D03*
X230850000D03*
X229850000D03*
X228850000D03*
X237850000Y105989995D03*
X236850000D03*
X235850000D03*
X234850000D03*
X233850000D03*
X232850000D03*
X231850000D03*
X230850000D03*
X229850000D03*
X228850000D03*
X237850000Y106989995D03*
X236850000D03*
X235850000D03*
X234850000D03*
X233850000D03*
X232850000D03*
X231850000D03*
X230850000D03*
X229850000D03*
X228850000D03*
X237850000Y107989995D03*
X236850000D03*
X235850000D03*
X234850000D03*
X233850000D03*
X232850000D03*
X231850000D03*
X230850000D03*
X229850000D03*
X228850000D03*
X237850000Y108989995D03*
X236850000D03*
X235850000D03*
X234850000D03*
X233850000D03*
X232850000D03*
X231850000D03*
X230850000D03*
X229850000D03*
X228850000D03*
X237850000Y109989995D03*
X236850000D03*
X235850000D03*
X234850000D03*
X233850000D03*
X232850000D03*
X231850000D03*
X230850000D03*
X229850000D03*
X228850000D03*
X237850000Y110989995D03*
X236850000D03*
X235850000D03*
X234850000D03*
X233850000D03*
X232850000D03*
X231850000D03*
X230850000D03*
X229850000D03*
X228850000D03*
X237850000Y111989995D03*
X236850000D03*
X235850000D03*
X234850000D03*
X233850000D03*
X232850000D03*
X231850000D03*
X230850000D03*
X229850000D03*
X228850000D03*
X237850000Y112989995D03*
X236850000D03*
X235850000D03*
X234850000D03*
X233850000D03*
X232850000D03*
X231850000D03*
X230850000D03*
X229850000D03*
X228850000D03*
X237850000Y113989995D03*
X236850000D03*
X235850000D03*
X234850000D03*
X233850000D03*
X232850000D03*
X231850000D03*
X230850000D03*
X229850000D03*
X228850000D03*
X237850000Y-114690005D03*
X236850000D03*
X235850000D03*
X234850000D03*
X233850000D03*
X232850000D03*
X231850000D03*
X230850000D03*
X229850000D03*
X228850000D03*
X237850000Y-113690005D03*
X236850000D03*
X235850000D03*
X234850000D03*
X233850000D03*
X232850000D03*
X231850000D03*
X230850000D03*
X229850000D03*
X228850000D03*
X237850000Y-112690005D03*
X236850000D03*
X235850000D03*
X234850000D03*
X233850000D03*
X232850000D03*
X231850000D03*
X230850000D03*
X229850000D03*
X228850000D03*
X237850000Y-111690005D03*
X236850000D03*
X235850000D03*
X234850000D03*
X233850000D03*
X232850000D03*
X231850000D03*
X230850000D03*
X229850000D03*
X228850000D03*
X237850000Y-110690005D03*
X236850000D03*
X235850000D03*
X234850000D03*
X233850000D03*
X232850000D03*
X231850000D03*
X230850000D03*
X229850000D03*
X228850000D03*
X237850000Y-109690005D03*
X236850000D03*
X235850000D03*
X234850000D03*
X233850000D03*
X232850000D03*
X231850000D03*
X230850000D03*
X229850000D03*
X228850000D03*
X237850000Y-108690005D03*
X236850000D03*
X235850000D03*
X234850000D03*
X233850000D03*
X232850000D03*
X231850000D03*
X230850000D03*
X229850000D03*
X228850000D03*
X237850000Y-107690005D03*
X236850000D03*
X235850000D03*
X234850000D03*
X233850000D03*
X232850000D03*
X231850000D03*
X230850000D03*
X229850000D03*
X228850000D03*
X237850000Y-106690005D03*
X236850000D03*
X235850000D03*
X234850000D03*
X233850000D03*
X232850000D03*
X231850000D03*
X230850000D03*
X229850000D03*
X228850000D03*
X237850000Y-105690005D03*
X236850000D03*
X235850000D03*
X234850000D03*
X233850000D03*
X232850000D03*
X231850000D03*
X230850000D03*
X229850000D03*
X228850000D03*
X237850000Y-104690005D03*
X236850000D03*
X235850000D03*
X234850000D03*
X233850000D03*
X232850000D03*
X231850000D03*
X230850000D03*
X229850000D03*
X228850000D03*
X237850000Y-103690005D03*
X236850000D03*
X235850000D03*
X234850000D03*
X233850000D03*
X232850000D03*
X231850000D03*
X230850000D03*
X229850000D03*
X228850000D03*
X237850000Y-102690005D03*
X236850000D03*
X235850000D03*
X234850000D03*
X233850000D03*
X232850000D03*
X231850000D03*
X230850000D03*
X229850000D03*
X228850000D03*
X237850000Y-101690005D03*
X236850000D03*
X235850000D03*
X234850000D03*
X233850000D03*
X232850000D03*
X231850000D03*
X230850000D03*
X229850000D03*
X228850000D03*
X237850000Y-100690005D03*
X236850000D03*
X235850000D03*
X234850000D03*
X233850000D03*
X232850000D03*
X231850000D03*
X230850000D03*
X229850000D03*
X228850000D03*
X237850000Y-99690005D03*
X236850000D03*
X235850000D03*
X234850000D03*
X233850000D03*
X232850000D03*
X231850000D03*
X230850000D03*
X229850000D03*
X228850000D03*
X237850000Y-98690005D03*
X236850000D03*
X235850000D03*
X234850000D03*
X233850000D03*
X232850000D03*
X231850000D03*
X230850000D03*
X229850000D03*
X228850000D03*
X237850000Y-97690005D03*
X236850000D03*
X235850000D03*
X234850000D03*
X233850000D03*
X232850000D03*
X231850000D03*
X230850000D03*
X229850000D03*
X228850000D03*
X237850000Y-96690005D03*
X236850000D03*
X235850000D03*
X234850000D03*
X233850000D03*
X232850000D03*
X231850000D03*
X230850000D03*
X229850000D03*
X228850000D03*
X237850000Y-95690005D03*
X236850000D03*
X235850000D03*
X234850000D03*
X233850000D03*
X232850000D03*
X231850000D03*
X230850000D03*
X229850000D03*
X228850000D03*
X237850000Y-94690005D03*
X236850000D03*
X235850000D03*
X234850000D03*
X233850000D03*
X232850000D03*
X231850000D03*
X230850000D03*
X229850000D03*
X228850000D03*
X237850000Y-93690005D03*
X236850000D03*
X235850000D03*
X234850000D03*
X233850000D03*
X232850000D03*
X231850000D03*
X230850000D03*
X229850000D03*
X228850000D03*
X237850000Y-92690005D03*
X236850000D03*
X235850000D03*
X234850000D03*
X233850000D03*
X232850000D03*
X231850000D03*
X230850000D03*
X229850000D03*
X228850000D03*
X237850000Y-91690005D03*
X236850000D03*
X235850000D03*
X234850000D03*
X233850000D03*
X232850000D03*
X231850000D03*
X230850000D03*
X229850000D03*
X228850000D03*
X237850000Y-90690005D03*
X236850000D03*
X235850000D03*
X234850000D03*
X233850000D03*
X232850000D03*
X231850000D03*
X230850000D03*
X229850000D03*
X228850000D03*
X237850000Y-89690005D03*
X236850000D03*
X235850000D03*
X234850000D03*
X233850000D03*
X232850000D03*
X231850000D03*
X230850000D03*
X229850000D03*
X228850000D03*
X237850000Y-88690005D03*
X236850000D03*
X235850000D03*
X234850000D03*
X233850000D03*
X232850000D03*
X231850000D03*
X230850000D03*
X229850000D03*
X228850000D03*
X237850000Y-87690005D03*
X236850000D03*
X235850000D03*
X234850000D03*
X233850000D03*
X232850000D03*
X231850000D03*
X230850000D03*
X229850000D03*
X228850000D03*
X237850000Y-86690005D03*
X236850000D03*
X235850000D03*
X234850000D03*
X233850000D03*
X232850000D03*
X231850000D03*
X230850000D03*
X229850000D03*
X228850000D03*
X237850000Y-85690005D03*
X236850000D03*
X235850000D03*
X234850000D03*
X233850000D03*
X232850000D03*
X231850000D03*
X230850000D03*
X229850000D03*
X228850000D03*
X-84989995Y237850000D03*
Y236850000D03*
Y235850000D03*
Y234850000D03*
Y233850000D03*
Y232850000D03*
Y231850000D03*
Y230850000D03*
Y229850000D03*
Y228850000D03*
X-85989995Y237850000D03*
Y236850000D03*
Y235850000D03*
Y234850000D03*
Y233850000D03*
Y232850000D03*
Y231850000D03*
Y230850000D03*
Y229850000D03*
Y228850000D03*
X-86989995Y237850000D03*
Y236850000D03*
Y235850000D03*
Y234850000D03*
Y233850000D03*
Y232850000D03*
Y231850000D03*
Y230850000D03*
Y229850000D03*
Y228850000D03*
X-87989995Y237850000D03*
Y236850000D03*
Y235850000D03*
Y234850000D03*
Y233850000D03*
Y232850000D03*
Y231850000D03*
Y230850000D03*
Y229850000D03*
Y228850000D03*
X-88989995Y237850000D03*
Y236850000D03*
Y235850000D03*
Y234850000D03*
Y233850000D03*
Y232850000D03*
Y231850000D03*
Y230850000D03*
Y229850000D03*
Y228850000D03*
X-89989995Y237850000D03*
Y236850000D03*
Y235850000D03*
Y234850000D03*
Y233850000D03*
Y232850000D03*
Y231850000D03*
Y230850000D03*
Y229850000D03*
Y228850000D03*
X-90989995Y237850000D03*
Y236850000D03*
Y235850000D03*
Y234850000D03*
Y233850000D03*
Y232850000D03*
Y231850000D03*
Y230850000D03*
Y229850000D03*
Y228850000D03*
X-91989995Y237850000D03*
Y236850000D03*
Y235850000D03*
Y234850000D03*
Y233850000D03*
Y232850000D03*
Y231850000D03*
Y230850000D03*
Y229850000D03*
Y228850000D03*
X-92989995Y237850000D03*
Y236850000D03*
Y235850000D03*
Y234850000D03*
Y233850000D03*
Y232850000D03*
Y231850000D03*
Y230850000D03*
Y229850000D03*
Y228850000D03*
X-93989995Y237850000D03*
Y236850000D03*
Y235850000D03*
Y234850000D03*
Y233850000D03*
Y232850000D03*
Y231850000D03*
Y230850000D03*
Y229850000D03*
Y228850000D03*
X-94989995Y237850000D03*
Y236850000D03*
Y235850000D03*
Y234850000D03*
Y233850000D03*
Y232850000D03*
Y231850000D03*
Y230850000D03*
Y229850000D03*
Y228850000D03*
X-95989995Y237850000D03*
Y236850000D03*
Y235850000D03*
Y234850000D03*
Y233850000D03*
Y232850000D03*
Y231850000D03*
Y230850000D03*
Y229850000D03*
Y228850000D03*
X-96989995Y237850000D03*
Y236850000D03*
Y235850000D03*
Y234850000D03*
Y233850000D03*
Y232850000D03*
Y231850000D03*
Y230850000D03*
Y229850000D03*
Y228850000D03*
X-97989995Y237850000D03*
Y236850000D03*
Y235850000D03*
Y234850000D03*
Y233850000D03*
Y232850000D03*
Y231850000D03*
Y230850000D03*
Y229850000D03*
Y228850000D03*
X-98989995Y237850000D03*
Y236850000D03*
Y235850000D03*
Y234850000D03*
Y233850000D03*
Y232850000D03*
Y231850000D03*
Y230850000D03*
Y229850000D03*
Y228850000D03*
X-99989995Y237850000D03*
Y236850000D03*
Y235850000D03*
Y234850000D03*
Y233850000D03*
Y232850000D03*
Y231850000D03*
Y230850000D03*
Y229850000D03*
Y228850000D03*
X-100989995Y237850000D03*
Y236850000D03*
Y235850000D03*
Y234850000D03*
Y233850000D03*
Y232850000D03*
Y231850000D03*
Y230850000D03*
Y229850000D03*
Y228850000D03*
X-101989995Y237850000D03*
Y236850000D03*
Y235850000D03*
Y234850000D03*
Y233850000D03*
Y232850000D03*
Y231850000D03*
Y230850000D03*
Y229850000D03*
Y228850000D03*
X-102989995Y237850000D03*
Y236850000D03*
Y235850000D03*
Y234850000D03*
Y233850000D03*
Y232850000D03*
Y231850000D03*
Y230850000D03*
Y229850000D03*
Y228850000D03*
X-103989995Y237850000D03*
Y236850000D03*
Y235850000D03*
Y234850000D03*
Y233850000D03*
Y232850000D03*
Y231850000D03*
Y230850000D03*
Y229850000D03*
Y228850000D03*
X-104989995Y237850000D03*
Y236850000D03*
Y235850000D03*
Y234850000D03*
Y233850000D03*
Y232850000D03*
Y231850000D03*
Y230850000D03*
Y229850000D03*
Y228850000D03*
X-105989995Y237850000D03*
Y236850000D03*
Y235850000D03*
Y234850000D03*
Y233850000D03*
Y232850000D03*
Y231850000D03*
Y230850000D03*
Y229850000D03*
Y228850000D03*
X-106989995Y237850000D03*
Y236850000D03*
Y235850000D03*
Y234850000D03*
Y233850000D03*
Y232850000D03*
Y231850000D03*
Y230850000D03*
Y229850000D03*
Y228850000D03*
X-107989995Y237850000D03*
Y236850000D03*
Y235850000D03*
Y234850000D03*
Y233850000D03*
Y232850000D03*
Y231850000D03*
Y230850000D03*
Y229850000D03*
Y228850000D03*
X-108989995Y237850000D03*
Y236850000D03*
Y235850000D03*
Y234850000D03*
Y233850000D03*
Y232850000D03*
Y231850000D03*
Y230850000D03*
Y229850000D03*
Y228850000D03*
X-109989995Y237850000D03*
Y236850000D03*
Y235850000D03*
Y234850000D03*
Y233850000D03*
Y232850000D03*
Y231850000D03*
Y230850000D03*
Y229850000D03*
Y228850000D03*
X-110989995Y237850000D03*
Y236850000D03*
Y235850000D03*
Y234850000D03*
Y233850000D03*
Y232850000D03*
Y231850000D03*
Y230850000D03*
Y229850000D03*
Y228850000D03*
X-111989995Y237850000D03*
Y236850000D03*
Y235850000D03*
Y234850000D03*
Y233850000D03*
Y232850000D03*
Y231850000D03*
Y230850000D03*
Y229850000D03*
Y228850000D03*
X-112989995Y237850000D03*
Y236850000D03*
Y235850000D03*
Y234850000D03*
Y233850000D03*
Y232850000D03*
Y231850000D03*
Y230850000D03*
Y229850000D03*
Y228850000D03*
X-113989995Y237850000D03*
Y236850000D03*
Y235850000D03*
Y234850000D03*
Y233850000D03*
Y232850000D03*
Y231850000D03*
Y230850000D03*
Y229850000D03*
Y228850000D03*
X114690005Y237850000D03*
Y236850000D03*
Y235850000D03*
Y234850000D03*
Y233850000D03*
Y232850000D03*
Y231850000D03*
Y230850000D03*
Y229850000D03*
Y228850000D03*
X113690005Y237850000D03*
Y236850000D03*
Y235850000D03*
Y234850000D03*
Y233850000D03*
Y232850000D03*
Y231850000D03*
Y230850000D03*
Y229850000D03*
Y228850000D03*
X112690005Y237850000D03*
Y236850000D03*
Y235850000D03*
Y234850000D03*
Y233850000D03*
Y232850000D03*
Y231850000D03*
Y230850000D03*
Y229850000D03*
Y228850000D03*
X111690005Y237850000D03*
Y236850000D03*
Y235850000D03*
Y234850000D03*
Y233850000D03*
Y232850000D03*
Y231850000D03*
Y230850000D03*
Y229850000D03*
Y228850000D03*
X110690005Y237850000D03*
Y236850000D03*
Y235850000D03*
Y234850000D03*
Y233850000D03*
Y232850000D03*
Y231850000D03*
Y230850000D03*
Y229850000D03*
Y228850000D03*
X109690005Y237850000D03*
Y236850000D03*
Y235850000D03*
Y234850000D03*
Y233850000D03*
Y232850000D03*
Y231850000D03*
Y230850000D03*
Y229850000D03*
Y228850000D03*
X108690005Y237850000D03*
Y236850000D03*
Y235850000D03*
Y234850000D03*
Y233850000D03*
Y232850000D03*
Y231850000D03*
Y230850000D03*
Y229850000D03*
Y228850000D03*
X107690005Y237850000D03*
Y236850000D03*
Y235850000D03*
Y234850000D03*
Y233850000D03*
Y232850000D03*
Y231850000D03*
Y230850000D03*
Y229850000D03*
Y228850000D03*
X106690005Y237850000D03*
Y236850000D03*
Y235850000D03*
Y234850000D03*
Y233850000D03*
Y232850000D03*
Y231850000D03*
Y230850000D03*
Y229850000D03*
Y228850000D03*
X105690005Y237850000D03*
Y236850000D03*
Y235850000D03*
Y234850000D03*
Y233850000D03*
Y232850000D03*
Y231850000D03*
Y230850000D03*
Y229850000D03*
Y228850000D03*
X104690005Y237850000D03*
Y236850000D03*
Y235850000D03*
Y234850000D03*
Y233850000D03*
Y232850000D03*
Y231850000D03*
Y230850000D03*
Y229850000D03*
Y228850000D03*
X103690005Y237850000D03*
Y236850000D03*
Y235850000D03*
Y234850000D03*
Y233850000D03*
Y232850000D03*
Y231850000D03*
Y230850000D03*
Y229850000D03*
Y228850000D03*
X102690005Y237850000D03*
Y236850000D03*
Y235850000D03*
Y234850000D03*
Y233850000D03*
Y232850000D03*
Y231850000D03*
Y230850000D03*
Y229850000D03*
Y228850000D03*
X101690005Y237850000D03*
Y236850000D03*
Y235850000D03*
Y234850000D03*
Y233850000D03*
Y232850000D03*
Y231850000D03*
Y230850000D03*
Y229850000D03*
Y228850000D03*
X100690005Y237850000D03*
Y236850000D03*
Y235850000D03*
Y234850000D03*
Y233850000D03*
Y232850000D03*
Y231850000D03*
Y230850000D03*
Y229850000D03*
Y228850000D03*
X99690005Y237850000D03*
Y236850000D03*
Y235850000D03*
Y234850000D03*
Y233850000D03*
Y232850000D03*
Y231850000D03*
Y230850000D03*
Y229850000D03*
Y228850000D03*
X98690005Y237850000D03*
Y236850000D03*
Y235850000D03*
Y234850000D03*
Y233850000D03*
Y232850000D03*
Y231850000D03*
Y230850000D03*
Y229850000D03*
Y228850000D03*
X97690005Y237850000D03*
Y236850000D03*
Y235850000D03*
Y234850000D03*
Y233850000D03*
Y232850000D03*
Y231850000D03*
Y230850000D03*
Y229850000D03*
Y228850000D03*
X96690005Y237850000D03*
Y236850000D03*
Y235850000D03*
Y234850000D03*
Y233850000D03*
Y232850000D03*
Y231850000D03*
Y230850000D03*
Y229850000D03*
Y228850000D03*
X95690005Y237850000D03*
Y236850000D03*
Y235850000D03*
Y234850000D03*
Y233850000D03*
Y232850000D03*
Y231850000D03*
Y230850000D03*
Y229850000D03*
Y228850000D03*
X94690005Y237850000D03*
Y236850000D03*
Y235850000D03*
Y234850000D03*
Y233850000D03*
Y232850000D03*
Y231850000D03*
Y230850000D03*
Y229850000D03*
Y228850000D03*
X93690005Y237850000D03*
Y236850000D03*
Y235850000D03*
Y234850000D03*
Y233850000D03*
Y232850000D03*
Y231850000D03*
Y230850000D03*
Y229850000D03*
Y228850000D03*
X92690005Y237850000D03*
Y236850000D03*
Y235850000D03*
Y234850000D03*
Y233850000D03*
Y232850000D03*
Y231850000D03*
Y230850000D03*
Y229850000D03*
Y228850000D03*
X91690005Y237850000D03*
Y236850000D03*
Y235850000D03*
Y234850000D03*
Y233850000D03*
Y232850000D03*
Y231850000D03*
Y230850000D03*
Y229850000D03*
Y228850000D03*
X90690005Y237850000D03*
Y236850000D03*
Y235850000D03*
Y234850000D03*
Y233850000D03*
Y232850000D03*
Y231850000D03*
Y230850000D03*
Y229850000D03*
Y228850000D03*
X89690005Y237850000D03*
Y236850000D03*
Y235850000D03*
Y234850000D03*
Y233850000D03*
Y232850000D03*
Y231850000D03*
Y230850000D03*
Y229850000D03*
Y228850000D03*
X88690005Y237850000D03*
Y236850000D03*
Y235850000D03*
Y234850000D03*
Y233850000D03*
Y232850000D03*
Y231850000D03*
Y230850000D03*
Y229850000D03*
Y228850000D03*
X87690005Y237850000D03*
Y236850000D03*
Y235850000D03*
Y234850000D03*
Y233850000D03*
Y232850000D03*
Y231850000D03*
Y230850000D03*
Y229850000D03*
Y228850000D03*
X86690005Y237850000D03*
Y236850000D03*
Y235850000D03*
Y234850000D03*
Y233850000D03*
Y232850000D03*
Y231850000D03*
Y230850000D03*
Y229850000D03*
Y228850000D03*
X85690005Y237850000D03*
Y236850000D03*
Y235850000D03*
Y234850000D03*
Y233850000D03*
Y232850000D03*
Y231850000D03*
Y230850000D03*
Y229850000D03*
Y228850000D03*
X207657695Y228400000D03*
X207357695D03*
X207657695Y228700000D03*
X207957695Y228400000D03*
X207657695Y228100000D03*
X205657695Y206079505D03*
X205357695D03*
X205657695Y206379505D03*
X205957695Y206079505D03*
X205657695Y205779505D03*
X191729550Y206079505D03*
X191429550D03*
X191729550Y206379505D03*
X192029550Y206079505D03*
X191729550Y205779505D03*
X-205657695Y-206079505D03*
X-205357695D03*
X-205657695Y-206379505D03*
X-205957695Y-206079505D03*
X-205657695Y-205779505D03*
X-191729550Y-206079505D03*
X-191429550D03*
X-191729550Y-206379505D03*
X-192029550Y-206079505D03*
X-191729550Y-205779505D03*
%LPD*%
M02*