G04 #@! TF.FileFunction,Other,rout*
G04 #@! TF.FilePolarity,Positive*
G04 #@! TF.SameCoordinates,X6d7ZJsscqpJGbbtGXR9ZhFdWuJ0khT*
G04 #@! TF.CreationDate,2025-05-23T14:01:28+0200*
G04 #@! TF.GenerationSoftware,Ucamco,UcamX,v2023.12-240208*
%FSLAX36Y36*%
%MOMM*%
%ADD10C,2.100000*%
%ADD11C,4*%
%ADD12C,1.600000*%
%ADD13O,1.600000X1.800000*%
%ADD14O,1.800000X1.600000*%
%ADD15C,4.200000*%
%ADD16C,0.010000*%
%ADD17C,3.100000*%
G04 layer name: DFS3498A_det*
%LPD*%
D10*
X240500000Y84090000D03*
Y94590000D03*
Y105090000D03*
Y115590000D03*
X225500000Y84090000D03*
Y94590000D03*
Y105090000D03*
Y115590000D03*
X240500000Y-115590000D03*
Y-105090000D03*
Y-94590000D03*
Y-84090000D03*
X225500000Y-115590000D03*
Y-105090000D03*
Y-94590000D03*
Y-84090000D03*
X-84090000Y240500000D03*
X-94590000D03*
X-105090000D03*
X-115590000D03*
X-84090000Y225500000D03*
X-94590000D03*
X-105090000D03*
X-115590000D03*
X115590000Y240500000D03*
X105090000D03*
X94590000D03*
X84090000D03*
X115590000Y225500000D03*
X105090000D03*
X94590000D03*
X84090000D03*
D11*
X233000005Y140000000D03*
Y-60000000D03*
X140000000Y233000005D03*
X-60000000D03*
D12*
X-116839995Y232999995D03*
X82840005D03*
X233000005Y116839995D03*
Y-82840005D03*
D13*
X-82839995Y228349995D03*
X116840005D03*
D14*
X228350005Y82839995D03*
Y-116840005D03*
D15*
X214000000Y-214000000D03*
Y214000000D03*
X-214000000Y-214000000D03*
Y214000000D03*
X-165000000D03*
X-110000000D03*
X-55000000D03*
X0D03*
X55000000D03*
X110000000D03*
X165000000D03*
X214000000Y165000000D03*
X-214000000D03*
X214000000Y110000000D03*
X-214000000D03*
X214000000Y55000000D03*
X-214000000D03*
X214000000Y0D03*
X-214000000D03*
X214000000Y-55000000D03*
X-214000000D03*
X214000000Y-110000000D03*
X-214000000D03*
X214000000Y-165000000D03*
X-214000000D03*
X-165000000Y-214000000D03*
X-110000000D03*
X-55000000D03*
X0D03*
X55000000D03*
X110000000D03*
X165000000D03*
D16*
X250000000Y250000000D02*
X-220000000D01*
Y-220000000D01*
X250000000D01*
Y250000000D01*
D17*
X247400005Y245399995D03*
Y206399995D03*
X201400005Y235899995D03*
%LPD*%
M02*