G04 #@! TF.FileFunction,Copper,L2,Inr*
G04 #@! TF.FilePolarity,Positive*
G04 #@! TF.SameCoordinates,5Qqye3v5bPdaGfKeuBeZBbiL4PMt2bR*
G04 #@! TF.CreationDate,2025-09-04T08:30:00+0200*
G04 #@! TF.GenerationSoftware,Ucamco,UcamX,v2023.12-240208*
%FSLAX36Y36*%
%MOMM*%
%ADD10C,0.100000*%
%ADD11C,0.650000*%
%AMBOXR*
$16=$1/2*
$17=$2/2*
$8=$16-$3*
$9=$17-$3*
$10=$8X$6*
$11=$8X$5*
$12=$9X$6*
$13=$9X$5*
$15=2X$3*
$18=0-$10*
$19=0-$11*
21,1-$7,$1,$2-$15,0,0,$4*
21,1-$7,$1-$15,$2,0,0,$4*
1,1-$7,$15,$10-$13,$11+$12*
1,1-$7,$15,$18-$13,$12-$11*
1,1-$7,$15,$10+$13,$11-$12*
1,1-$7,$15,$13-$10,$19-$12*%
%ADD12BOXR,0.700000X0.520000X0.250000X0.00X0X1X0*%
%ADD13C,0.500000*%
G04 layer name: DFS3498AM2_L2*
%LPD*%
G04 #@! TO.N,12*
D10*
X236850000Y85989995D02*
X237250000Y85589995D01*
X238457230D01*
X238667825Y85379400D01*
Y81845745D01*
X239167825Y81345745D01*
X258200000D01*
X258700000Y81845745D01*
Y145490050D01*
X258200000Y145990050D01*
X230798950D01*
X230298950Y145490050D01*
Y140490100D01*
G04 #@! TO.N,34*
X234850000Y87989995D02*
X235450000Y87389995D01*
X257400000D01*
X257900000Y87889995D01*
Y144690050D01*
X257400000Y145190050D01*
X233998950D01*
X233498950Y144690050D01*
Y140490100D01*
G04 #@! TO.N,32*
X236850000Y87989995D02*
X237250000Y87589995D01*
X257200000D01*
X257700000Y88089995D01*
Y144490050D01*
X257200000Y144990050D01*
X234798950D01*
X234298950Y144490050D01*
Y141290100D01*
G04 #@! TO.N,23*
X235850000Y86989995D02*
X236250000Y86589995D01*
X257800000D01*
X258300000Y87089995D01*
Y145090050D01*
X257800000Y145590050D01*
X232398950D01*
X231898950Y145090050D01*
Y140490100D01*
G04 #@! TO.N,54*
X234850000Y89989995D02*
X235450000Y89389995D01*
X256400000D01*
X256900000Y89889995D01*
Y143690050D01*
X256400000Y144190050D01*
X237998950D01*
X237498950Y143690050D01*
Y141290100D01*
G04 #@! TO.N,52*
X236850000Y89989995D02*
X237250000Y89589995D01*
X256200000D01*
X256700000Y90089995D01*
Y143490050D01*
X256200000Y143990050D01*
X238798950D01*
X238298950Y143490050D01*
Y140490100D01*
G04 #@! TO.N,45*
X233850000Y88989995D02*
X234450000Y88389995D01*
X257000000D01*
X257500000Y88889995D01*
Y144290050D01*
X257000000Y144790050D01*
X235598950D01*
X235098950Y144290050D01*
Y140490100D01*
G04 #@! TO.N,43*
X235850000Y88989995D02*
X236250000Y88589995D01*
X256800000D01*
X257300000Y89089995D01*
Y144090050D01*
X256800000Y144590050D01*
X236398950D01*
X235898950Y144090050D01*
Y141290100D01*
G04 #@! TO.N,65*
X233850000Y90989995D02*
X234450000Y90389995D01*
X256000000D01*
X256500000Y90889995D01*
Y143290050D01*
X256000000Y143790050D01*
X239598950D01*
X239098950Y143290050D01*
Y141290100D01*
G04 #@! TO.N,3*
X227898950Y141290100D02*
Y146090050D01*
X228398950Y146590050D01*
X258800000D01*
X259300000Y146090050D01*
Y81245745D01*
X258800000Y80745745D01*
X236157945D01*
X235850000Y81053690D01*
Y84989995D01*
G04 #@! TO.N,1*
X228698950Y140490100D02*
Y145890050D01*
X229198950Y146390050D01*
X258600000D01*
X259100000Y145890050D01*
Y81445745D01*
X258600000Y80945745D01*
X238157945D01*
X237850000Y81253690D01*
Y84989995D01*
G04 #@! TO.N,14*
X229498950Y141290100D02*
Y145690050D01*
X229998950Y146190050D01*
X258400000D01*
X258900000Y145690050D01*
Y81645745D01*
X258400000Y81145745D01*
X238967825D01*
X238467825Y81645745D01*
Y85190875D01*
X238268705Y85389995D01*
X235450000D01*
X234850000Y85989995D01*
G04 #@! TO.N,5*
X233850000Y84989995D02*
X233541905Y84205205D01*
Y80853690D01*
X233849850Y80545745D01*
X259000000D01*
X259500000Y81045745D01*
Y146290050D01*
X259000000Y146790050D01*
X227598650D01*
X227098675Y146290050D01*
X227098950Y140490100D01*
G04 #@! TO.N,41*
X237850000Y88989995D02*
X256600000D01*
X257100000Y89489995D01*
Y143890050D01*
X256600000Y144390050D01*
X237198950D01*
X236698950Y143890050D01*
Y140490100D01*
G04 #@! TO.N,25*
X231098950Y141290100D02*
Y145290050D01*
X231598950Y145790050D01*
X258000000D01*
X258500000Y145290050D01*
Y86889995D01*
X258000000Y86389995D01*
X234450000D01*
X233850000Y86989995D01*
G04 #@! TO.N,21*
X237850000Y86989995D02*
X257600000D01*
X258100000Y87489995D01*
Y144890050D01*
X257600000Y145390050D01*
X233198950D01*
X232698950Y144890050D01*
Y141290100D01*
G04 #@! TO.N,38*
X230850000Y87989995D02*
X230450000Y88389995D01*
X222500000D01*
X222000000Y88889995D01*
X221905115Y88889995D02*
Y174590155D01*
X222000000Y174590155D02*
X222500000Y175090155D01*
X244502080D01*
X246298950Y173293285D01*
Y171190200D01*
G04 #@! TO.N,47*
X243898950Y170390200D02*
Y172693285D01*
X242102080Y174490155D01*
X223100000D01*
X222600000Y173990155D01*
X222505115Y173990155D02*
Y90089995D01*
X222600000Y90089995D02*
X223100000Y89589995D01*
X231250000D01*
X231850000Y88989995D01*
G04 #@! TO.N,29*
X248698350Y170390200D02*
Y173893285D01*
X246901480Y175690155D01*
X221900000D01*
X221400000Y175190155D01*
X221305115Y175190155D02*
Y87889995D01*
X221400000Y87889995D02*
X221900000Y87389995D01*
X229450000D01*
X229850000Y86989995D01*
G04 #@! TO.N,7*
X251898650Y170390200D02*
Y174693285D01*
X250101780Y176490155D01*
X221100000D01*
X220600000Y175990155D01*
X220505115Y175990155D02*
Y86269985D01*
X220600000Y86269985D02*
X221100000Y85769985D01*
X226861840D01*
X227041830Y85589995D01*
X231250000D01*
X231850000Y84989995D01*
G04 #@! TO.N,69*
X240698950Y170390200D02*
Y171893285D01*
X238902080Y173690155D01*
X223900000D01*
X223400000Y173190155D01*
X223305115Y173190155D02*
Y91889995D01*
X223400000Y91889995D02*
X223900000Y91389995D01*
X229450000D01*
X229850000Y90989995D01*
G04 #@! TO.N,56*
X232850000Y89989995D02*
X232250000Y90589995D01*
X223700000D01*
X223200000Y91089995D01*
X223105115Y91089995D02*
Y173390155D01*
X223200000Y173390155D02*
X223700000Y173890155D01*
X239702080D01*
X241498950Y172093285D01*
Y171190200D01*
G04 #@! TO.N,60*
X243098950Y171190200D02*
Y172493285D01*
X241302080Y174290155D01*
X223300000D01*
X222800000Y173790155D01*
X222705115Y173790155D02*
Y90489995D01*
X222800000Y90489995D02*
X223300000Y89989995D01*
X228850000D01*
G04 #@! TO.N,49*
X229850000Y88989995D02*
X229450000Y89389995D01*
X222900000D01*
X222400000Y89889995D01*
X222305115Y89889995D02*
Y174190155D01*
X222400000Y174190155D02*
X222900000Y174690155D01*
X242902080D01*
X244698950Y172893285D01*
Y171190200D01*
G04 #@! TO.N,27*
X247898650Y171190200D02*
Y173693285D01*
X246101780Y175490155D01*
X222100000D01*
X221600000Y174990155D01*
X221505115Y174990155D02*
Y88089995D01*
X221600000Y88089995D02*
X222100000Y87589995D01*
X231250000D01*
X231850000Y86989995D01*
G04 #@! TO.N,20*
X251098650Y171190200D02*
Y174493285D01*
X249301780Y176290155D01*
X221300000D01*
X220800000Y175790155D01*
X220705115Y175790155D02*
Y86489995D01*
X220800000Y86489995D02*
X221300000Y85989995D01*
X228850000D01*
G04 #@! TO.N,9*
X252698650Y171190200D02*
Y174893285D01*
X250901780Y176690155D01*
X220900000D01*
X220400000Y176190155D01*
X220305115Y176190155D02*
Y86058930D01*
X220400000Y86058930D02*
X220900000Y85558930D01*
X226672895D01*
X226841830Y85389995D01*
X229450000D01*
X229850000Y84989995D01*
G04 #@! TO.N,18*
X250298650Y170390200D02*
Y174293285D01*
X248501780Y176090155D01*
X221500000D01*
X221000000Y175590155D01*
X220905115Y175590155D02*
Y86889995D01*
X221000000Y86889995D02*
X221500000Y86389995D01*
X230450000D01*
X230850000Y85989995D01*
G04 #@! TO.N,16*
X232850000Y85989995D02*
X232250000Y86589995D01*
X221700000D01*
X221200000Y87089995D01*
X221105115Y87089995D02*
Y175390155D01*
X221200000Y175390155D02*
X221700000Y175890155D01*
X247701480D01*
X249498350Y174093285D01*
Y171190200D01*
G04 #@! TO.N,36*
X245498950Y170390200D02*
Y173093285D01*
X243702080Y174890155D01*
X222700000D01*
X222200000Y174390155D01*
X222105115Y174390155D02*
Y89089995D01*
X222200000Y89089995D02*
X222700000Y88589995D01*
X232250000D01*
X232850000Y87989995D01*
G04 #@! TO.N,58*
X242298950Y170390200D02*
Y172293285D01*
X240502080Y174090155D01*
X223500000D01*
X223000000Y173590155D01*
X222905115Y173590155D02*
Y90889995D01*
X223000000Y90889995D02*
X223500000Y90389995D01*
X230450000D01*
X230850000Y89989995D01*
G04 #@! TO.N,40*
X228850000Y87989995D02*
X222300000D01*
X221800000Y88489995D01*
X221705115Y88489995D02*
Y174790155D01*
X221800000Y174790155D02*
X222300000Y175290155D01*
X245301780D01*
X247098650Y173493285D01*
Y170390200D01*
G04 #@! TO.N,65*
D11*
X239098650Y141290100D03*
G04 #@! TO.N,52*
X238298650Y140490100D03*
G04 #@! TO.N,54*
X237498650Y141290100D03*
G04 #@! TO.N,41*
X236698650Y140490100D03*
G04 #@! TO.N,43*
X235898650Y141290100D03*
G04 #@! TO.N,45*
X235098650Y140490100D03*
G04 #@! TO.N,32*
X234298650Y141290100D03*
G04 #@! TO.N,34*
X233498650Y140490100D03*
G04 #@! TO.N,21*
X232698650Y141290100D03*
G04 #@! TO.N,23*
X231898650Y140490100D03*
G04 #@! TO.N,25*
X231098650Y141290100D03*
G04 #@! TO.N,12*
X230298650Y140490100D03*
G04 #@! TO.N,14*
X229498650Y141290100D03*
G04 #@! TO.N,1*
X228698650Y140490100D03*
G04 #@! TO.N,3*
X227898650Y141290100D03*
G04 #@! TO.N,5*
X227098650Y140490100D03*
G04 #@! TO.N,9*
X252698650Y171190200D03*
G04 #@! TO.N,7*
X251898650Y170390200D03*
G04 #@! TO.N,20*
X251098650Y171190200D03*
G04 #@! TO.N,18*
X250298650Y170390200D03*
G04 #@! TO.N,16*
X249498650Y171190200D03*
G04 #@! TO.N,29*
X248698650Y170390200D03*
G04 #@! TO.N,27*
X247898650Y171190200D03*
G04 #@! TO.N,40*
X247098650Y170390200D03*
G04 #@! TO.N,38*
X246298650Y171190200D03*
G04 #@! TO.N,36*
X245498650Y170390200D03*
G04 #@! TO.N,49*
X244698650Y171190200D03*
G04 #@! TO.N,47*
X243898650Y170390200D03*
G04 #@! TO.N,60*
X243098650Y171190200D03*
G04 #@! TO.N,58*
X242298650Y170390200D03*
G04 #@! TO.N,56*
X241498650Y171190200D03*
G04 #@! TO.N,69*
X240698650Y170390200D03*
G04 #@! TO.N,9*
X252698650Y171190200D03*
G04 #@! TO.N,7*
X251898650Y170390200D03*
G04 #@! TO.N,20*
X251098650Y171190200D03*
G04 #@! TO.N,18*
X250298650Y170390200D03*
G04 #@! TO.N,16*
X249498650Y171190200D03*
G04 #@! TO.N,29*
X248698650Y170390200D03*
G04 #@! TO.N,27*
X247898650Y171190200D03*
G04 #@! TO.N,40*
X247098650Y170390200D03*
G04 #@! TO.N,38*
X246298650Y171190200D03*
G04 #@! TO.N,36*
X245498650Y170390200D03*
G04 #@! TO.N,49*
X244698650Y171190200D03*
G04 #@! TO.N,47*
X243898650Y170390200D03*
G04 #@! TO.N,60*
X243098650Y171190200D03*
G04 #@! TO.N,58*
X242298650Y170390200D03*
G04 #@! TO.N,56*
X241498650Y171190200D03*
G04 #@! TO.N,69*
X240698650Y170390200D03*
G04 #@! TO.N,10*
Y128190100D03*
G04 #@! TO.N,4*
X241498650Y127390100D03*
G04 #@! TO.N,2*
X242298650Y128190100D03*
G04 #@! TO.N,15*
X243098650Y127390100D03*
G04 #@! TO.N,13*
X243898650Y128190100D03*
G04 #@! TO.N,11*
X244698650Y127390100D03*
G04 #@! TO.N,24*
X245498650Y128190100D03*
G04 #@! TO.N,22*
X246298650Y127390100D03*
G04 #@! TO.N,35*
X247098650Y128190100D03*
G04 #@! TO.N,33*
X247898650Y127390100D03*
G04 #@! TO.N,31*
X248698650Y128190100D03*
G04 #@! TO.N,44*
X249498650Y127390100D03*
G04 #@! TO.N,42*
X250298650Y128190100D03*
G04 #@! TO.N,55*
X251098650Y127390100D03*
G04 #@! TO.N,53*
X251898650Y128190100D03*
G04 #@! TO.N,64*
X227098650D03*
G04 #@! TO.N,62*
X227898650Y127390100D03*
G04 #@! TO.N,75*
X228698650Y128190100D03*
G04 #@! TO.N,73*
X229498650Y127390100D03*
G04 #@! TO.N,71*
X230298650Y128190100D03*
G04 #@! TO.N,84*
X231098650Y127390100D03*
G04 #@! TO.N,82*
X231898650Y128190100D03*
G04 #@! TO.N,95*
X232698650Y127390100D03*
G04 #@! TO.N,93*
X233498650Y128190100D03*
G04 #@! TO.N,104*
X234298650Y127390100D03*
G04 #@! TO.N,102*
X235098650Y128190100D03*
G04 #@! TO.N,114*
X235898650Y127390100D03*
G04 #@! TO.N,112*
X236698650Y128190100D03*
G04 #@! TO.N,110*
X237498650Y127390100D03*
G04 #@! TO.N,123*
X238298650Y128190100D03*
G04 #@! TO.N,121*
X239098650Y127390100D03*
G04 #@! TO.N,8*
Y163190200D03*
G04 #@! TO.N,6*
X238298650Y162390200D03*
G04 #@! TO.N,19*
X237498650Y163190200D03*
G04 #@! TO.N,17*
X236698650Y162390200D03*
G04 #@! TO.N,30*
X235898650Y163190200D03*
G04 #@! TO.N,28*
X235098650Y162390200D03*
G04 #@! TO.N,26*
X234298650Y163190200D03*
G04 #@! TO.N,39*
X233498650Y162390200D03*
G04 #@! TO.N,37*
X232698650Y163190200D03*
G04 #@! TO.N,50*
X231898650Y162390200D03*
G04 #@! TO.N,48*
X231098650Y163190200D03*
G04 #@! TO.N,46*
X230298650Y162390200D03*
G04 #@! TO.N,59*
X229498650Y163190200D03*
G04 #@! TO.N,57*
X228698650Y162390200D03*
G04 #@! TO.N,70*
X227898650Y163190200D03*
G04 #@! TO.N,68*
X227098650Y162390200D03*
G04 #@! TO.N,67*
X239098650Y171190200D03*
G04 #@! TO.N,80*
X238298650Y170390200D03*
G04 #@! TO.N,78*
X237498650Y171190200D03*
G04 #@! TO.N,76*
X236698650Y170390200D03*
G04 #@! TO.N,89*
X235898650Y171190200D03*
G04 #@! TO.N,87*
X235098650Y170390200D03*
G04 #@! TO.N,100*
X234298650Y171190200D03*
G04 #@! TO.N,98*
X233498650Y170390200D03*
G04 #@! TO.N,96*
X232698650Y171190200D03*
G04 #@! TO.N,108*
X231898650Y170390200D03*
G04 #@! TO.N,106*
X231098650Y171190200D03*
G04 #@! TO.N,119*
X230298650Y170390200D03*
G04 #@! TO.N,117*
X229498650Y171190200D03*
G04 #@! TO.N,115*
X228698650Y170390200D03*
G04 #@! TO.N,128*
X227898650Y171190200D03*
G04 #@! TO.N,126*
X227098650Y170390200D03*
G04 #@! TO.N,66*
X252698650Y163190200D03*
G04 #@! TO.N,79*
X251898650Y162390200D03*
G04 #@! TO.N,77*
X251098650Y163190200D03*
G04 #@! TO.N,90*
X250298650Y162390200D03*
G04 #@! TO.N,88*
X249498650Y163190200D03*
G04 #@! TO.N,86*
X248698650Y162390200D03*
G04 #@! TO.N,99*
X247898650Y163190200D03*
G04 #@! TO.N,97*
X247098650Y162390200D03*
G04 #@! TO.N,109*
X246298650Y163190200D03*
G04 #@! TO.N,107*
X245498650Y162390200D03*
G04 #@! TO.N,105*
X244698650Y163190200D03*
G04 #@! TO.N,118*
X243898650Y162390200D03*
G04 #@! TO.N,116*
X243098650Y163190200D03*
G04 #@! TO.N,129*
X242298650Y162390200D03*
G04 #@! TO.N,127*
X241498650Y163190200D03*
G04 #@! TO.N,125*
X240698650Y162390200D03*
G04 #@! TO.N,9*
X252698650Y171190200D03*
G04 #@! TO.N,7*
X251898650Y170390200D03*
G04 #@! TO.N,20*
X251098650Y171190200D03*
G04 #@! TO.N,18*
X250298650Y170390200D03*
G04 #@! TO.N,16*
X249498650Y171190200D03*
G04 #@! TO.N,29*
X248698650Y170390200D03*
G04 #@! TO.N,27*
X247898650Y171190200D03*
G04 #@! TO.N,40*
X247098650Y170390200D03*
G04 #@! TO.N,38*
X246298650Y171190200D03*
G04 #@! TO.N,36*
X245498650Y170390200D03*
G04 #@! TO.N,49*
X244698650Y171190200D03*
G04 #@! TO.N,47*
X243898650Y170390200D03*
G04 #@! TO.N,60*
X243098650Y171190200D03*
G04 #@! TO.N,58*
X242298650Y170390200D03*
G04 #@! TO.N,56*
X241498650Y171190200D03*
G04 #@! TO.N,69*
X240698650Y170390200D03*
G04 #@! TO.N,9*
X252698650Y171190200D03*
G04 #@! TO.N,7*
X251898650Y170390200D03*
G04 #@! TO.N,20*
X251098650Y171190200D03*
G04 #@! TO.N,18*
X250298650Y170390200D03*
G04 #@! TO.N,16*
X249498650Y171190200D03*
G04 #@! TO.N,29*
X248698650Y170390200D03*
G04 #@! TO.N,27*
X247898650Y171190200D03*
G04 #@! TO.N,40*
X247098650Y170390200D03*
G04 #@! TO.N,38*
X246298650Y171190200D03*
G04 #@! TO.N,36*
X245498650Y170390200D03*
G04 #@! TO.N,49*
X244698650Y171190200D03*
G04 #@! TO.N,47*
X243898650Y170390200D03*
G04 #@! TO.N,60*
X243098650Y171190200D03*
G04 #@! TO.N,58*
X242298650Y170390200D03*
G04 #@! TO.N,56*
X241498650Y171190200D03*
G04 #@! TO.N,69*
X240698650Y170390200D03*
G04 #@! TO.N,51*
X252698650Y127390100D03*
G04 #@! TO.N,120*
Y141290100D03*
G04 #@! TO.N,122*
X251898650Y140490100D03*
G04 #@! TO.N,124*
X251098650Y141290100D03*
G04 #@! TO.N,111*
X250298650Y140490100D03*
G04 #@! TO.N,113*
X249498650Y141290100D03*
G04 #@! TO.N,101*
X248698650Y140490100D03*
G04 #@! TO.N,103*
X247898650Y141290100D03*
G04 #@! TO.N,92*
X247098650Y140490100D03*
G04 #@! TO.N,94*
X246298650Y141290100D03*
G04 #@! TO.N,81*
X245498650Y140490100D03*
G04 #@! TO.N,83*
X244698650Y141290100D03*
G04 #@! TO.N,85*
X243898650Y140490100D03*
G04 #@! TO.N,72*
X243098650Y141290100D03*
G04 #@! TO.N,74*
X242298650Y140490100D03*
G04 #@! TO.N,61*
X241498650Y141290100D03*
G04 #@! TO.N,63*
X240698650Y140490100D03*
G04 #@! TO.N,65*
X239098650Y141290100D03*
G04 #@! TO.N,52*
X238298650Y140490100D03*
G04 #@! TO.N,54*
X237498650Y141290100D03*
G04 #@! TO.N,41*
X236698650Y140490100D03*
G04 #@! TO.N,43*
X235898650Y141290100D03*
G04 #@! TO.N,45*
X235098650Y140490100D03*
G04 #@! TO.N,32*
X234298650Y141290100D03*
G04 #@! TO.N,34*
X233498650Y140490100D03*
G04 #@! TO.N,21*
X232698650Y141290100D03*
G04 #@! TO.N,23*
X231898650Y140490100D03*
G04 #@! TO.N,25*
X231098650Y141290100D03*
G04 #@! TO.N,12*
X230298650Y140490100D03*
G04 #@! TO.N,14*
X229498650Y141290100D03*
G04 #@! TO.N,1*
X228698650Y140490100D03*
G04 #@! TO.N,3*
X227898650Y141290100D03*
G04 #@! TO.N,5*
X227098650Y140490100D03*
G04 #@! TO.N,1*
D12*
X237850000Y84989995D03*
G04 #@! TO.N,2*
X236850000D03*
G04 #@! TO.N,3*
X235850000D03*
G04 #@! TO.N,4*
X234850000D03*
G04 #@! TO.N,5*
X233850000D03*
G04 #@! TO.N,6*
X232850000D03*
G04 #@! TO.N,7*
X231850000D03*
G04 #@! TO.N,8*
X230850000D03*
G04 #@! TO.N,9*
X229850000D03*
G04 #@! TO.N,10*
X228850000D03*
G04 #@! TO.N,11*
X237850000Y85989995D03*
G04 #@! TO.N,12*
X236850000D03*
G04 #@! TO.N,13*
X235850000D03*
G04 #@! TO.N,14*
X234850000D03*
G04 #@! TO.N,15*
X233850000D03*
G04 #@! TO.N,16*
X232850000D03*
G04 #@! TO.N,17*
X231850000D03*
G04 #@! TO.N,18*
X230850000D03*
G04 #@! TO.N,19*
X229850000D03*
G04 #@! TO.N,20*
X228850000D03*
G04 #@! TO.N,21*
X237850000Y86989995D03*
G04 #@! TO.N,22*
X236850000D03*
G04 #@! TO.N,23*
X235850000D03*
G04 #@! TO.N,24*
X234850000D03*
G04 #@! TO.N,25*
X233850000D03*
G04 #@! TO.N,26*
X232850000D03*
G04 #@! TO.N,27*
X231850000D03*
G04 #@! TO.N,28*
X230850000D03*
G04 #@! TO.N,29*
X229850000D03*
G04 #@! TO.N,30*
X228850000D03*
G04 #@! TO.N,31*
X237850000Y87989995D03*
G04 #@! TO.N,32*
X236850000D03*
G04 #@! TO.N,33*
X235850000D03*
G04 #@! TO.N,34*
X234850000D03*
G04 #@! TO.N,35*
X233850000D03*
G04 #@! TO.N,36*
X232850000D03*
G04 #@! TO.N,37*
X231850000D03*
G04 #@! TO.N,38*
X230850000D03*
G04 #@! TO.N,39*
X229850000D03*
G04 #@! TO.N,40*
X228850000D03*
G04 #@! TO.N,41*
X237850000Y88989995D03*
G04 #@! TO.N,42*
X236850000D03*
G04 #@! TO.N,43*
X235850000D03*
G04 #@! TO.N,44*
X234850000D03*
G04 #@! TO.N,45*
X233850000D03*
G04 #@! TO.N,46*
X232850000D03*
G04 #@! TO.N,47*
X231850000D03*
G04 #@! TO.N,48*
X230850000D03*
G04 #@! TO.N,49*
X229850000D03*
G04 #@! TO.N,50*
X228850000D03*
G04 #@! TO.N,51*
X237850000Y89989995D03*
G04 #@! TO.N,52*
X236850000D03*
G04 #@! TO.N,53*
X235850000D03*
G04 #@! TO.N,54*
X234850000D03*
G04 #@! TO.N,55*
X233850000D03*
G04 #@! TO.N,56*
X232850000D03*
G04 #@! TO.N,57*
X231850000D03*
G04 #@! TO.N,58*
X230850000D03*
G04 #@! TO.N,59*
X229850000D03*
G04 #@! TO.N,60*
X228850000D03*
G04 #@! TO.N,61*
X237850000Y90989995D03*
G04 #@! TO.N,62*
X236850000D03*
G04 #@! TO.N,63*
X235850000D03*
G04 #@! TO.N,64*
X234850000D03*
G04 #@! TO.N,65*
X233850000D03*
G04 #@! TO.N,66*
X232850000D03*
G04 #@! TO.N,67*
X231850000D03*
G04 #@! TO.N,68*
X230850000D03*
G04 #@! TO.N,69*
X229850000D03*
G04 #@! TO.N,70*
X228850000D03*
G04 #@! TO.N,71*
X237850000Y91989995D03*
G04 #@! TO.N,72*
X236850000D03*
G04 #@! TO.N,73*
X235850000D03*
G04 #@! TO.N,74*
X234850000D03*
G04 #@! TO.N,75*
X233850000D03*
G04 #@! TO.N,76*
X232850000D03*
G04 #@! TO.N,77*
X231850000D03*
G04 #@! TO.N,78*
X230850000D03*
G04 #@! TO.N,79*
X229850000D03*
G04 #@! TO.N,80*
X228850000D03*
G04 #@! TO.N,81*
X237850000Y92989995D03*
G04 #@! TO.N,82*
X236850000D03*
G04 #@! TO.N,83*
X235850000D03*
G04 #@! TO.N,84*
X234850000D03*
G04 #@! TO.N,85*
X233850000D03*
G04 #@! TO.N,86*
X232850000D03*
G04 #@! TO.N,87*
X231850000D03*
G04 #@! TO.N,88*
X230850000D03*
G04 #@! TO.N,89*
X229850000D03*
G04 #@! TO.N,90*
X228850000D03*
G04 #@! TO.N,91*
X237850000Y93989995D03*
X236850000D03*
X235850000D03*
X234850000D03*
X233850000D03*
X232850000D03*
X231850000D03*
X230850000D03*
X229850000D03*
X228850000D03*
X237850000Y94989995D03*
X236850000D03*
X235850000D03*
X234850000D03*
X233850000D03*
X232850000D03*
X231850000D03*
X230850000D03*
X229850000D03*
X228850000D03*
G04 #@! TO.N,92*
X237850000Y95989995D03*
G04 #@! TO.N,93*
X236850000D03*
G04 #@! TO.N,94*
X235850000D03*
G04 #@! TO.N,95*
X234850000D03*
G04 #@! TO.N,91*
X233850000D03*
G04 #@! TO.N,96*
X232850000D03*
G04 #@! TO.N,97*
X231850000D03*
G04 #@! TO.N,98*
X230850000D03*
G04 #@! TO.N,99*
X229850000D03*
G04 #@! TO.N,100*
X228850000D03*
G04 #@! TO.N,101*
X237850000Y96989995D03*
G04 #@! TO.N,102*
X236850000D03*
G04 #@! TO.N,103*
X235850000D03*
G04 #@! TO.N,104*
X234850000D03*
G04 #@! TO.N,91*
X233850000D03*
G04 #@! TO.N,105*
X232850000D03*
G04 #@! TO.N,106*
X231850000D03*
G04 #@! TO.N,107*
X230850000D03*
G04 #@! TO.N,108*
X229850000D03*
G04 #@! TO.N,109*
X228850000D03*
G04 #@! TO.N,110*
X237850000Y97989995D03*
G04 #@! TO.N,111*
X236850000D03*
G04 #@! TO.N,112*
X235850000D03*
G04 #@! TO.N,113*
X234850000D03*
G04 #@! TO.N,114*
X233850000D03*
G04 #@! TO.N,115*
X232850000D03*
G04 #@! TO.N,116*
X231850000D03*
G04 #@! TO.N,117*
X230850000D03*
G04 #@! TO.N,118*
X229850000D03*
G04 #@! TO.N,119*
X228850000D03*
G04 #@! TO.N,120*
X237850000Y98989995D03*
G04 #@! TO.N,121*
X236850000D03*
G04 #@! TO.N,122*
X235850000D03*
G04 #@! TO.N,123*
X234850000D03*
G04 #@! TO.N,124*
X233850000D03*
G04 #@! TO.N,125*
X232850000D03*
G04 #@! TO.N,126*
X231850000D03*
G04 #@! TO.N,127*
X230850000D03*
G04 #@! TO.N,128*
X229850000D03*
G04 #@! TO.N,129*
X228850000D03*
G04 #@! TO.N,68*
X237850000Y99989995D03*
G04 #@! TO.N,126*
X236850000D03*
G04 #@! TO.N,70*
X235850000D03*
G04 #@! TO.N,128*
X234850000D03*
G04 #@! TO.N,57*
X233850000D03*
G04 #@! TO.N,124*
X232850000D03*
G04 #@! TO.N,53*
X231850000D03*
G04 #@! TO.N,122*
X230850000D03*
G04 #@! TO.N,51*
X229850000D03*
G04 #@! TO.N,120*
X228850000D03*
G04 #@! TO.N,115*
X237850000Y100989995D03*
G04 #@! TO.N,59*
X236850000D03*
G04 #@! TO.N,117*
X235850000D03*
G04 #@! TO.N,46*
X234850000D03*
G04 #@! TO.N,119*
X233850000D03*
G04 #@! TO.N,44*
X232850000D03*
G04 #@! TO.N,113*
X231850000D03*
G04 #@! TO.N,42*
X230850000D03*
G04 #@! TO.N,111*
X229850000D03*
G04 #@! TO.N,55*
X228850000D03*
G04 #@! TO.N,48*
X237850000Y101989995D03*
G04 #@! TO.N,106*
X236850000D03*
G04 #@! TO.N,50*
X235850000D03*
G04 #@! TO.N,108*
X234850000D03*
G04 #@! TO.N,91*
X233850000D03*
G04 #@! TO.N,92*
X232850000D03*
G04 #@! TO.N,33*
X231850000D03*
G04 #@! TO.N,103*
X230850000D03*
G04 #@! TO.N,31*
X229850000D03*
G04 #@! TO.N,101*
X228850000D03*
G04 #@! TO.N,37*
X237850000Y102989995D03*
G04 #@! TO.N,96*
X236850000D03*
G04 #@! TO.N,39*
X235850000D03*
G04 #@! TO.N,98*
X234850000D03*
G04 #@! TO.N,91*
X233850000D03*
G04 #@! TO.N,24*
X232850000D03*
G04 #@! TO.N,81*
X231850000D03*
G04 #@! TO.N,22*
X230850000D03*
G04 #@! TO.N,94*
X229850000D03*
G04 #@! TO.N,35*
X228850000D03*
G04 #@! TO.N,91*
X237850000Y103989995D03*
X236850000D03*
X235850000D03*
X234850000D03*
X233850000D03*
X232850000D03*
X231850000D03*
X230850000D03*
X229850000D03*
X228850000D03*
X237850000Y104989995D03*
X236850000D03*
X235850000D03*
X234850000D03*
X233850000D03*
X232850000D03*
X231850000D03*
X230850000D03*
X229850000D03*
X228850000D03*
G04 #@! TO.N,26*
X237850000Y105989995D03*
G04 #@! TO.N,100*
X236850000D03*
G04 #@! TO.N,28*
X235850000D03*
G04 #@! TO.N,87*
X234850000D03*
G04 #@! TO.N,30*
X233850000D03*
G04 #@! TO.N,72*
X232850000D03*
G04 #@! TO.N,13*
X231850000D03*
G04 #@! TO.N,85*
X230850000D03*
G04 #@! TO.N,11*
X229850000D03*
G04 #@! TO.N,83*
X228850000D03*
G04 #@! TO.N,89*
X237850000Y106989995D03*
G04 #@! TO.N,17*
X236850000D03*
G04 #@! TO.N,76*
X235850000D03*
G04 #@! TO.N,19*
X234850000D03*
G04 #@! TO.N,78*
X233850000D03*
G04 #@! TO.N,4*
X232850000D03*
G04 #@! TO.N,61*
X231850000D03*
G04 #@! TO.N,2*
X230850000D03*
G04 #@! TO.N,74*
X229850000D03*
G04 #@! TO.N,15*
X228850000D03*
G04 #@! TO.N,6*
X237850000Y107989995D03*
G04 #@! TO.N,80*
X236850000D03*
G04 #@! TO.N,8*
X235850000D03*
G04 #@! TO.N,67*
X234850000D03*
G04 #@! TO.N,125*
X233850000D03*
G04 #@! TO.N,52*
X232850000D03*
G04 #@! TO.N,121*
X231850000D03*
G04 #@! TO.N,65*
X230850000D03*
G04 #@! TO.N,10*
X229850000D03*
G04 #@! TO.N,63*
X228850000D03*
G04 #@! TO.N,69*
X237850000Y108989995D03*
G04 #@! TO.N,127*
X236850000D03*
G04 #@! TO.N,56*
X235850000D03*
G04 #@! TO.N,129*
X234850000D03*
G04 #@! TO.N,58*
X233850000D03*
G04 #@! TO.N,112*
X232850000D03*
G04 #@! TO.N,41*
X231850000D03*
G04 #@! TO.N,110*
X230850000D03*
G04 #@! TO.N,54*
X229850000D03*
G04 #@! TO.N,123*
X228850000D03*
G04 #@! TO.N,116*
X237850000Y109989995D03*
G04 #@! TO.N,60*
X236850000D03*
G04 #@! TO.N,118*
X235850000D03*
G04 #@! TO.N,47*
X234850000D03*
G04 #@! TO.N,105*
X233850000D03*
G04 #@! TO.N,32*
X232850000D03*
G04 #@! TO.N,102*
X231850000D03*
G04 #@! TO.N,45*
X230850000D03*
G04 #@! TO.N,114*
X229850000D03*
G04 #@! TO.N,43*
X228850000D03*
G04 #@! TO.N,49*
X237850000Y110989995D03*
G04 #@! TO.N,107*
X236850000D03*
G04 #@! TO.N,36*
X235850000D03*
G04 #@! TO.N,109*
X234850000D03*
G04 #@! TO.N,38*
X233850000D03*
G04 #@! TO.N,95*
X232850000D03*
G04 #@! TO.N,21*
X231850000D03*
G04 #@! TO.N,93*
X230850000D03*
G04 #@! TO.N,34*
X229850000D03*
G04 #@! TO.N,104*
X228850000D03*
G04 #@! TO.N,97*
X237850000Y111989995D03*
G04 #@! TO.N,40*
X236850000D03*
G04 #@! TO.N,99*
X235850000D03*
G04 #@! TO.N,27*
X234850000D03*
G04 #@! TO.N,86*
X233850000D03*
G04 #@! TO.N,12*
X232850000D03*
G04 #@! TO.N,84*
X231850000D03*
G04 #@! TO.N,25*
X230850000D03*
G04 #@! TO.N,82*
X229850000D03*
G04 #@! TO.N,23*
X228850000D03*
G04 #@! TO.N,29*
X237850000Y112989995D03*
G04 #@! TO.N,88*
X236850000D03*
G04 #@! TO.N,16*
X235850000D03*
G04 #@! TO.N,90*
X234850000D03*
G04 #@! TO.N,18*
X233850000D03*
G04 #@! TO.N,75*
X232850000D03*
G04 #@! TO.N,1*
X231850000D03*
G04 #@! TO.N,73*
X230850000D03*
G04 #@! TO.N,14*
X229850000D03*
G04 #@! TO.N,71*
X228850000D03*
G04 #@! TO.N,77*
X237850000Y113989995D03*
G04 #@! TO.N,20*
X236850000D03*
G04 #@! TO.N,79*
X235850000D03*
G04 #@! TO.N,7*
X234850000D03*
G04 #@! TO.N,66*
X233850000D03*
G04 #@! TO.N,9*
X232850000D03*
G04 #@! TO.N,64*
X231850000D03*
G04 #@! TO.N,5*
X230850000D03*
G04 #@! TO.N,62*
X229850000D03*
G04 #@! TO.N,3*
X228850000D03*
G04 #@! TO.N,1*
D13*
X237550000Y84989995D03*
G04 #@! TO.N,2*
X236550000D03*
G04 #@! TO.N,3*
X235550000D03*
G04 #@! TO.N,4*
X234550000D03*
G04 #@! TO.N,5*
X233550000D03*
G04 #@! TO.N,6*
X232550000D03*
G04 #@! TO.N,7*
X231550000D03*
G04 #@! TO.N,8*
X230550000D03*
G04 #@! TO.N,9*
X229550000D03*
G04 #@! TO.N,10*
X228550000D03*
G04 #@! TO.N,11*
X237550000Y85989995D03*
G04 #@! TO.N,12*
X236550000D03*
G04 #@! TO.N,13*
X235550000D03*
G04 #@! TO.N,14*
X234550000D03*
G04 #@! TO.N,15*
X233550000D03*
G04 #@! TO.N,16*
X232550000D03*
G04 #@! TO.N,17*
X231550000D03*
G04 #@! TO.N,18*
X230550000D03*
G04 #@! TO.N,19*
X229550000D03*
G04 #@! TO.N,20*
X228550000D03*
G04 #@! TO.N,21*
X237550000Y86989995D03*
G04 #@! TO.N,22*
X236550000D03*
G04 #@! TO.N,23*
X235550000D03*
G04 #@! TO.N,24*
X234550000D03*
G04 #@! TO.N,25*
X233550000D03*
G04 #@! TO.N,26*
X232550000D03*
G04 #@! TO.N,27*
X231550000D03*
G04 #@! TO.N,28*
X230550000D03*
G04 #@! TO.N,29*
X229550000D03*
G04 #@! TO.N,30*
X228550000D03*
G04 #@! TO.N,31*
X237550000Y87989995D03*
G04 #@! TO.N,32*
X236550000D03*
G04 #@! TO.N,33*
X235550000D03*
G04 #@! TO.N,34*
X234550000D03*
G04 #@! TO.N,35*
X233550000D03*
G04 #@! TO.N,36*
X232550000D03*
G04 #@! TO.N,37*
X231550000D03*
G04 #@! TO.N,38*
X230550000D03*
G04 #@! TO.N,39*
X229550000D03*
G04 #@! TO.N,40*
X228550000D03*
G04 #@! TO.N,41*
X237550000Y88989995D03*
G04 #@! TO.N,42*
X236550000D03*
G04 #@! TO.N,43*
X235550000D03*
G04 #@! TO.N,44*
X234550000D03*
G04 #@! TO.N,45*
X233550000D03*
G04 #@! TO.N,46*
X232550000D03*
G04 #@! TO.N,47*
X231550000D03*
G04 #@! TO.N,48*
X230550000D03*
G04 #@! TO.N,49*
X229550000D03*
G04 #@! TO.N,50*
X228550000D03*
G04 #@! TO.N,51*
X237550000Y89989995D03*
G04 #@! TO.N,52*
X236550000D03*
G04 #@! TO.N,53*
X235550000D03*
G04 #@! TO.N,54*
X234550000D03*
G04 #@! TO.N,55*
X233550000D03*
G04 #@! TO.N,56*
X232550000D03*
G04 #@! TO.N,57*
X231550000D03*
G04 #@! TO.N,58*
X230550000D03*
G04 #@! TO.N,59*
X229550000D03*
G04 #@! TO.N,60*
X228550000D03*
G04 #@! TO.N,61*
X237550000Y90989995D03*
G04 #@! TO.N,62*
X236550000D03*
G04 #@! TO.N,63*
X235550000D03*
G04 #@! TO.N,64*
X234550000D03*
G04 #@! TO.N,65*
X233550000D03*
G04 #@! TO.N,66*
X232550000D03*
G04 #@! TO.N,67*
X231550000D03*
G04 #@! TO.N,68*
X230550000D03*
G04 #@! TO.N,69*
X229550000D03*
G04 #@! TO.N,70*
X228550000D03*
G04 #@! TO.N,71*
X237550000Y91989995D03*
G04 #@! TO.N,72*
X236550000D03*
G04 #@! TO.N,73*
X235550000D03*
G04 #@! TO.N,74*
X234550000D03*
G04 #@! TO.N,75*
X233550000D03*
G04 #@! TO.N,76*
X232550000D03*
G04 #@! TO.N,77*
X231550000D03*
G04 #@! TO.N,78*
X230550000D03*
G04 #@! TO.N,79*
X229550000D03*
G04 #@! TO.N,80*
X228550000D03*
G04 #@! TO.N,81*
X237550000Y92989995D03*
G04 #@! TO.N,82*
X236550000D03*
G04 #@! TO.N,83*
X235550000D03*
G04 #@! TO.N,84*
X234550000D03*
G04 #@! TO.N,85*
X233550000D03*
G04 #@! TO.N,86*
X232550000D03*
G04 #@! TO.N,87*
X231550000D03*
G04 #@! TO.N,88*
X230550000D03*
G04 #@! TO.N,89*
X229550000D03*
G04 #@! TO.N,90*
X228550000D03*
G04 #@! TO.N,91*
X237550000Y93989995D03*
X236550000D03*
X235550000D03*
X234550000D03*
X233550000D03*
X232550000D03*
X231550000D03*
X230550000D03*
X229550000D03*
X228550000D03*
X237550000Y94989995D03*
X236550000D03*
X235550000D03*
X234550000D03*
X233550000D03*
X232550000D03*
X231550000D03*
X230550000D03*
X229550000D03*
X228550000D03*
G04 #@! TO.N,92*
X237550000Y95989995D03*
G04 #@! TO.N,93*
X236550000D03*
G04 #@! TO.N,94*
X235550000D03*
G04 #@! TO.N,95*
X234550000D03*
G04 #@! TO.N,91*
X233550000D03*
G04 #@! TO.N,96*
X232550000D03*
G04 #@! TO.N,97*
X231550000D03*
G04 #@! TO.N,98*
X230550000D03*
G04 #@! TO.N,99*
X229550000D03*
G04 #@! TO.N,100*
X228550000D03*
G04 #@! TO.N,101*
X237550000Y96989995D03*
G04 #@! TO.N,102*
X236550000D03*
G04 #@! TO.N,103*
X235550000D03*
G04 #@! TO.N,104*
X234550000D03*
G04 #@! TO.N,91*
X233550000D03*
G04 #@! TO.N,105*
X232550000D03*
G04 #@! TO.N,106*
X231550000D03*
G04 #@! TO.N,107*
X230550000D03*
G04 #@! TO.N,108*
X229550000D03*
G04 #@! TO.N,109*
X228550000D03*
G04 #@! TO.N,110*
X237550000Y97989995D03*
G04 #@! TO.N,111*
X236550000D03*
G04 #@! TO.N,112*
X235550000D03*
G04 #@! TO.N,113*
X234550000D03*
G04 #@! TO.N,114*
X233550000D03*
G04 #@! TO.N,115*
X232550000D03*
G04 #@! TO.N,116*
X231550000D03*
G04 #@! TO.N,117*
X230550000D03*
G04 #@! TO.N,118*
X229550000D03*
G04 #@! TO.N,119*
X228550000D03*
G04 #@! TO.N,120*
X237550000Y98989995D03*
G04 #@! TO.N,121*
X236550000D03*
G04 #@! TO.N,122*
X235550000D03*
G04 #@! TO.N,123*
X234550000D03*
G04 #@! TO.N,124*
X233550000D03*
G04 #@! TO.N,125*
X232550000D03*
G04 #@! TO.N,126*
X231550000D03*
G04 #@! TO.N,127*
X230550000D03*
G04 #@! TO.N,128*
X229550000D03*
G04 #@! TO.N,129*
X228550000D03*
G04 #@! TO.N,68*
X237550000Y99989995D03*
G04 #@! TO.N,126*
X236550000D03*
G04 #@! TO.N,70*
X235550000D03*
G04 #@! TO.N,128*
X234550000D03*
G04 #@! TO.N,57*
X233550000D03*
G04 #@! TO.N,124*
X232550000D03*
G04 #@! TO.N,53*
X231550000D03*
G04 #@! TO.N,122*
X230550000D03*
G04 #@! TO.N,51*
X229550000D03*
G04 #@! TO.N,120*
X228550000D03*
G04 #@! TO.N,115*
X237550000Y100989995D03*
G04 #@! TO.N,59*
X236550000D03*
G04 #@! TO.N,117*
X235550000D03*
G04 #@! TO.N,46*
X234550000D03*
G04 #@! TO.N,119*
X233550000D03*
G04 #@! TO.N,44*
X232550000D03*
G04 #@! TO.N,113*
X231550000D03*
G04 #@! TO.N,42*
X230550000D03*
G04 #@! TO.N,111*
X229550000D03*
G04 #@! TO.N,55*
X228550000D03*
G04 #@! TO.N,48*
X237550000Y101989995D03*
G04 #@! TO.N,106*
X236550000D03*
G04 #@! TO.N,50*
X235550000D03*
G04 #@! TO.N,108*
X234550000D03*
G04 #@! TO.N,91*
X233550000D03*
G04 #@! TO.N,92*
X232550000D03*
G04 #@! TO.N,33*
X231550000D03*
G04 #@! TO.N,103*
X230550000D03*
G04 #@! TO.N,31*
X229550000D03*
G04 #@! TO.N,101*
X228550000D03*
G04 #@! TO.N,37*
X237550000Y102989995D03*
G04 #@! TO.N,96*
X236550000D03*
G04 #@! TO.N,39*
X235550000D03*
G04 #@! TO.N,98*
X234550000D03*
G04 #@! TO.N,91*
X233550000D03*
G04 #@! TO.N,24*
X232550000D03*
G04 #@! TO.N,81*
X231550000D03*
G04 #@! TO.N,22*
X230550000D03*
G04 #@! TO.N,94*
X229550000D03*
G04 #@! TO.N,35*
X228550000D03*
G04 #@! TO.N,91*
X237550000Y103989995D03*
X236550000D03*
X235550000D03*
X234550000D03*
X233550000D03*
X232550000D03*
X231550000D03*
X230550000D03*
X229550000D03*
X228550000D03*
X237550000Y104989995D03*
X236550000D03*
X235550000D03*
X234550000D03*
X233550000D03*
X232550000D03*
X231550000D03*
X230550000D03*
X229550000D03*
X228550000D03*
G04 #@! TO.N,26*
X237550000Y105989995D03*
G04 #@! TO.N,100*
X236550000D03*
G04 #@! TO.N,28*
X235550000D03*
G04 #@! TO.N,87*
X234550000D03*
G04 #@! TO.N,30*
X233550000D03*
G04 #@! TO.N,72*
X232550000D03*
G04 #@! TO.N,13*
X231550000D03*
G04 #@! TO.N,85*
X230550000D03*
G04 #@! TO.N,11*
X229550000D03*
G04 #@! TO.N,83*
X228550000D03*
G04 #@! TO.N,89*
X237550000Y106989995D03*
G04 #@! TO.N,17*
X236550000D03*
G04 #@! TO.N,76*
X235550000D03*
G04 #@! TO.N,19*
X234550000D03*
G04 #@! TO.N,78*
X233550000D03*
G04 #@! TO.N,4*
X232550000D03*
G04 #@! TO.N,61*
X231550000D03*
G04 #@! TO.N,2*
X230550000D03*
G04 #@! TO.N,74*
X229550000D03*
G04 #@! TO.N,15*
X228550000D03*
G04 #@! TO.N,6*
X237550000Y107989995D03*
G04 #@! TO.N,80*
X236550000D03*
G04 #@! TO.N,8*
X235550000D03*
G04 #@! TO.N,67*
X234550000D03*
G04 #@! TO.N,125*
X233550000D03*
G04 #@! TO.N,52*
X232550000D03*
G04 #@! TO.N,121*
X231550000D03*
G04 #@! TO.N,65*
X230550000D03*
G04 #@! TO.N,10*
X229550000D03*
G04 #@! TO.N,63*
X228550000D03*
G04 #@! TO.N,69*
X237550000Y108989995D03*
G04 #@! TO.N,127*
X236550000D03*
G04 #@! TO.N,56*
X235550000D03*
G04 #@! TO.N,129*
X234550000D03*
G04 #@! TO.N,58*
X233550000D03*
G04 #@! TO.N,112*
X232550000D03*
G04 #@! TO.N,41*
X231550000D03*
G04 #@! TO.N,110*
X230550000D03*
G04 #@! TO.N,54*
X229550000D03*
G04 #@! TO.N,123*
X228550000D03*
G04 #@! TO.N,116*
X237550000Y109989995D03*
G04 #@! TO.N,60*
X236550000D03*
G04 #@! TO.N,118*
X235550000D03*
G04 #@! TO.N,47*
X234550000D03*
G04 #@! TO.N,105*
X233550000D03*
G04 #@! TO.N,32*
X232550000D03*
G04 #@! TO.N,102*
X231550000D03*
G04 #@! TO.N,45*
X230550000D03*
G04 #@! TO.N,114*
X229550000D03*
G04 #@! TO.N,43*
X228550000D03*
G04 #@! TO.N,49*
X237550000Y110989995D03*
G04 #@! TO.N,107*
X236550000D03*
G04 #@! TO.N,36*
X235550000D03*
G04 #@! TO.N,109*
X234550000D03*
G04 #@! TO.N,38*
X233550000D03*
G04 #@! TO.N,95*
X232550000D03*
G04 #@! TO.N,21*
X231550000D03*
G04 #@! TO.N,93*
X230550000D03*
G04 #@! TO.N,34*
X229550000D03*
G04 #@! TO.N,104*
X228550000D03*
G04 #@! TO.N,97*
X237550000Y111989995D03*
G04 #@! TO.N,40*
X236550000D03*
G04 #@! TO.N,99*
X235550000D03*
G04 #@! TO.N,27*
X234550000D03*
G04 #@! TO.N,86*
X233550000D03*
G04 #@! TO.N,12*
X232550000D03*
G04 #@! TO.N,84*
X231550000D03*
G04 #@! TO.N,25*
X230550000D03*
G04 #@! TO.N,82*
X229550000D03*
G04 #@! TO.N,23*
X228550000D03*
G04 #@! TO.N,29*
X237550000Y112989995D03*
G04 #@! TO.N,88*
X236550000D03*
G04 #@! TO.N,16*
X235550000D03*
G04 #@! TO.N,90*
X234550000D03*
G04 #@! TO.N,18*
X233550000D03*
G04 #@! TO.N,75*
X232550000D03*
G04 #@! TO.N,1*
X231550000D03*
G04 #@! TO.N,73*
X230550000D03*
G04 #@! TO.N,14*
X229550000D03*
G04 #@! TO.N,71*
X228550000D03*
G04 #@! TO.N,77*
X237550000Y113989995D03*
G04 #@! TO.N,20*
X236550000D03*
G04 #@! TO.N,79*
X235550000D03*
G04 #@! TO.N,7*
X234550000D03*
G04 #@! TO.N,66*
X233550000D03*
G04 #@! TO.N,9*
X232550000D03*
G04 #@! TO.N,64*
X231550000D03*
G04 #@! TO.N,5*
X230550000D03*
G04 #@! TO.N,62*
X229550000D03*
G04 #@! TO.N,3*
X228550000D03*
%LPD*%
M02*