G04 #@! TF.FileFunction,Copper,L7,Inr*
G04 #@! TF.FilePolarity,Positive*
G04 #@! TF.SameCoordinates,5Qqye3v5bPdaGfKeuBeZBbiL4PMt2bR*
G04 #@! TF.CreationDate,2025-09-04T08:30:01+0200*
G04 #@! TF.GenerationSoftware,Ucamco,UcamX,v2023.12-240208*
%FSLAX36Y36*%
%MOMM*%
%ADD10C,0.100000*%
%ADD11C,0.650000*%
%ADD12C,0.200000*%
%AMBOXR*
$16=$1/2*
$17=$2/2*
$8=$16-$3*
$9=$17-$3*
$10=$8X$6*
$11=$8X$5*
$12=$9X$6*
$13=$9X$5*
$15=2X$3*
$18=0-$10*
$19=0-$11*
21,1-$7,$1,$2-$15,0,0,$4*
21,1-$7,$1-$15,$2,0,0,$4*
1,1-$7,$15,$10-$13,$11+$12*
1,1-$7,$15,$18-$13,$12-$11*
1,1-$7,$15,$10+$13,$11-$12*
1,1-$7,$15,$13-$10,$19-$12*%
%ADD13BOXR,0.700000X0.520000X0.250000X0.00X0X1X0*%
%ADD14C,0.500000*%
G04 layer name: DFS3498AM2_L7*
%LPD*%
G04 #@! TO.N,78*
D10*
X233850000Y106989995D02*
X234450000Y107589995D01*
X256350000D01*
X256600000Y107839995D01*
Y173890150D01*
X256100000Y174390150D01*
X237998650D01*
X237498650Y173890150D01*
Y171990200D01*
Y171190200D01*
G04 #@! TO.N,76*
X235850000Y106989995D02*
X236250000Y107389995D01*
X256550000D01*
X256800000Y107639995D01*
Y174090150D01*
X256300000Y174590150D01*
X237198650D01*
X236698650Y174090150D01*
Y171990200D01*
Y170390200D01*
G04 #@! TO.N,126*
X236850000Y99989995D02*
X237250000Y100389995D01*
X258200000D01*
X259200000Y101389995D01*
Y176490150D01*
X258700000Y176990150D01*
X227598650D01*
X227098650Y176490150D01*
G04 #@! TO.N,115*
X237850000Y100989995D02*
X257800000D01*
X258800000Y101989995D01*
Y176090150D01*
X258300000Y176590150D01*
X229198650D01*
X228698650Y176090150D01*
Y171990200D01*
Y170390200D01*
G04 #@! TO.N,117*
X235850000Y100989995D02*
X236250000Y101389995D01*
X257600000D01*
X258600000Y102389995D01*
Y175890150D01*
X258100000Y176390150D01*
X229998650D01*
X229498650Y175890150D01*
Y171990200D01*
Y171190200D01*
G04 #@! TO.N,119*
X233850000Y100989995D02*
X234450000Y101589995D01*
X257400000D01*
X258400000Y102589995D01*
Y175690150D01*
X257900000Y176190150D01*
X230798650D01*
X230298650Y175690150D01*
Y171990200D01*
Y170390200D01*
G04 #@! TO.N,98*
X234850000Y102989995D02*
X235450000Y103589995D01*
X257350000D01*
X257600000Y103839995D01*
Y174890150D01*
X257100000Y175390150D01*
X233998650D01*
X233498650Y174890150D01*
Y171990200D01*
Y170390200D01*
G04 #@! TO.N,100*
X236850000Y105989995D02*
X237250000Y106389995D01*
X238858180D01*
X239058180Y106589995D01*
X257150000D01*
X257400000Y106839995D01*
Y174690150D01*
X256900000Y175190150D01*
X234798650D01*
X234298650Y174690150D01*
Y171990200D01*
Y171190200D01*
G04 #@! TO.N,106*
X236850000Y101989995D02*
X237250000Y102389995D01*
X257875010D01*
X258200000Y102714985D01*
Y175490150D01*
X257700000Y175990150D01*
X231598650D01*
X231098650Y175490150D01*
Y171990200D01*
Y171190200D01*
G04 #@! TO.N,108*
X234850000Y101989995D02*
X235450000Y102589995D01*
X257750000D01*
X258000000Y102839995D01*
Y175290150D01*
X257500000Y175790150D01*
X232398650D01*
X231898650Y175290150D01*
Y171990200D01*
Y170390200D01*
G04 #@! TO.N,80*
X236850000Y107989995D02*
X237250000Y108389995D01*
X256150000D01*
X256400000Y108639995D01*
Y173690150D01*
X255900000Y174190150D01*
X238798650D01*
X238298650Y173690150D01*
Y171990200D01*
Y170390200D01*
G04 #@! TO.N,87*
X234850000Y105989995D02*
X235450000Y106589995D01*
X238658180D01*
X238858180Y106789995D01*
X256950000D01*
X257200000Y107039995D01*
Y174490150D01*
X256700000Y174990150D01*
X235598650D01*
X235098650Y174490150D01*
Y171990200D01*
Y170390200D01*
G04 #@! TO.N,89*
X237850000Y106989995D02*
X256750000D01*
X257000000Y107239995D01*
Y174290150D01*
X256500000Y174790150D01*
X236398650D01*
X235898650Y174290150D01*
Y171990200D01*
Y171190200D01*
G04 #@! TO.N,96*
X236850000Y102989995D02*
X237250000Y103389995D01*
X257550000D01*
X257800000Y103639995D01*
Y175090150D01*
X257300000Y175590150D01*
X233198650D01*
X232698650Y175090150D01*
Y171990200D01*
Y171190200D01*
X233558650Y170612590D02*
G75*
G2*
X233498650Y170877700I555690J265110D01*
G74*
G04 #@! TO.N,98*
G1*
X233453235Y170545330D01*
X233634890Y170545330D02*
X233498650Y170877700D01*
G75*
G2*
X233438650Y170612590I-615690J0D01*
G74*
G1*
X233725720Y170545330D02*
X233498650Y170877700D01*
G75*
G3*
X233642760Y170612590I315905J0D01*
G74*
G1*
X233354540Y170612590D02*
G75*
G3*
X233498650Y170877700I-171795J265110D01*
G74*
G1*
X233271580Y170545330D01*
X239038650Y171412590D02*
G75*
G3*
X239098650Y171677700I-555690J265110D01*
G74*
G75*
G3*
X239158650Y171412590I615690J0D01*
G74*
G04 #@! TO.N,67*
G1*
X238871580Y171345330D02*
X239098650Y171677700D01*
X238962405Y171345330D01*
X239242760Y171412590D02*
G75*
G2*
X239098650Y171677700I171795J265110D01*
G74*
G1*
X239325720Y171345330D01*
X239053235Y171345330D02*
X239098650Y171677700D01*
X239144060Y171345330D01*
X239234890Y171345330D02*
X239098650Y171677700D01*
G75*
G2*
X238954540Y171412590I-315905J0D01*
G74*
G1*
X238358650Y170612590D02*
G75*
G2*
X238298650Y170877700I555690J265110D01*
G74*
G04 #@! TO.N,80*
G1*
X238525720Y170545330D01*
X238162405Y170545330D02*
X238298650Y170877700D01*
X238071580Y170545330D01*
X238344060Y170545330D02*
X238298650Y170877700D01*
X238253235Y170545330D01*
X238238650Y170612590D02*
G75*
G3*
X238298650Y170877700I-555690J265110D01*
G74*
G1*
X238434890Y170545330D01*
X238442760Y170612590D02*
G75*
G2*
X238298650Y170877700I171795J265110D01*
G74*
G75*
G2*
X238154540Y170612590I-315905J0D01*
G74*
G04 #@! TO.N,78*
G1*
X237453235Y171345330D02*
X237498650Y171677700D01*
X237544060Y171345330D01*
X237642760Y171412590D02*
G75*
G2*
X237498650Y171677700I171795J265110D01*
G74*
G75*
G2*
X237438650Y171412590I-615690J0D01*
G74*
G1*
X237271580Y171345330D02*
X237498650Y171677700D01*
G75*
G3*
X237558650Y171412590I615690J0D01*
G74*
G1*
X237362405Y171345330D02*
X237498650Y171677700D01*
X237634890Y171345330D01*
X237354540Y171412590D02*
G75*
G3*
X237498650Y171677700I-171795J265110D01*
G74*
G1*
X237725720Y171345330D01*
X236638650Y170612590D02*
G75*
G3*
X236698650Y170877700I-555690J265110D01*
G74*
G75*
G3*
X236758650Y170612590I615690J0D01*
G74*
G04 #@! TO.N,76*
G1*
X236744060Y170545330D02*
X236698650Y170877700D01*
X236925720Y170545330D01*
X236653235Y170545330D02*
X236698650Y170877700D01*
X236834890Y170545330D01*
X236562405Y170545330D02*
X236698650Y170877700D01*
X236471580Y170545330D01*
X236842760Y170612590D02*
G75*
G2*
X236698650Y170877700I171795J265110D01*
G74*
G75*
G2*
X236554540Y170612590I-315905J0D01*
G74*
G04 #@! TO.N,89*
G1*
X235944060Y171345330D02*
X235898650Y171677700D01*
X236125720Y171345330D01*
X236034890Y171345330D02*
X235898650Y171677700D01*
X235853235Y171345330D01*
X236042760Y171412590D02*
G75*
G2*
X235898650Y171677700I171795J265110D01*
G74*
G75*
G2*
X235838650Y171412590I-615690J0D01*
G74*
G1*
X235671580Y171345330D02*
X235898650Y171677700D01*
G75*
G3*
X235958650Y171412590I615690J0D01*
G74*
G1*
X235754540Y171412590D02*
G75*
G3*
X235898650Y171677700I-171795J265110D01*
G74*
G1*
X235762405Y171345330D01*
X235038650Y170612590D02*
G75*
G3*
X235098650Y170877700I-555690J265110D01*
G74*
G04 #@! TO.N,87*
G1*
X235234890Y170545330D01*
X234871580Y170545330D02*
X235098650Y170877700D01*
G75*
G2*
X234954540Y170612590I-315905J0D01*
G74*
G1*
X234962405Y170545330D02*
X235098650Y170877700D01*
G75*
G3*
X235158650Y170612590I615690J0D01*
G74*
G1*
X235325720Y170545330D02*
X235098650Y170877700D01*
G75*
G3*
X235242760Y170612590I315905J0D01*
G74*
G1*
X235053235Y170545330D02*
X235098650Y170877700D01*
X235144060Y170545330D01*
X234238650Y171412590D02*
G75*
G3*
X234298650Y171677700I-555690J265110D01*
G74*
G75*
G3*
X234442760Y171412590I315905J0D01*
G74*
G04 #@! TO.N,100*
G1*
X234071580Y171345330D02*
X234298650Y171677700D01*
X234344060Y171345330D01*
X234154540Y171412590D02*
G75*
G3*
X234298650Y171677700I-171795J265110D01*
G74*
G1*
X234434890Y171345330D01*
X234358650Y171412590D02*
G75*
G2*
X234298650Y171677700I555690J265110D01*
G74*
G1*
X234525720Y171345330D01*
X234162405Y171345330D02*
X234298650Y171677700D01*
X234253235Y171345330D01*
G04 #@! TO.N,98*
X233544060Y170545330D02*
X233498650Y170877700D01*
X233362405Y170545330D01*
G04 #@! TO.N,96*
X232653235Y171345330D02*
X232698650Y171677700D01*
G75*
G3*
X232758650Y171412590I615690J0D01*
G74*
G1*
X232554540Y171412590D02*
G75*
G3*
X232698650Y171677700I-171795J265110D01*
G74*
G1*
X232562405Y171345330D01*
X232834890Y171345330D02*
X232698650Y171677700D01*
X232471580Y171345330D01*
X232925720Y171345330D02*
X232698650Y171677700D01*
G75*
G3*
X232842760Y171412590I315905J0D01*
G74*
G1*
X232638650Y171412590D02*
G75*
G3*
X232698650Y171677700I-555690J265110D01*
G74*
G1*
X232744060Y171345330D01*
G04 #@! TO.N,108*
X231853235Y170545330D02*
X231898650Y170877700D01*
X231944060Y170545330D01*
X232042760Y170612590D02*
G75*
G2*
X231898650Y170877700I171795J265110D01*
G74*
G75*
G2*
X231838650Y170612590I-615690J0D01*
G74*
G1*
X231671580Y170545330D02*
X231898650Y170877700D01*
G75*
G2*
X231754540Y170612590I-315905J0D01*
G74*
G1*
X231958650Y170612590D02*
G75*
G2*
X231898650Y170877700I555690J265110D01*
G74*
G1*
X231762405Y170545330D01*
X232125720Y170545330D02*
X231898650Y170877700D01*
X232034890Y170545330D01*
X230954540Y171412590D02*
G75*
G3*
X231098650Y171677700I-171795J265110D01*
G74*
G04 #@! TO.N,106*
G1*
X231325720Y171345330D01*
X231144060Y171345330D02*
X231098650Y171677700D01*
X231053235Y171345330D01*
X231242760Y171412590D02*
G75*
G2*
X231098650Y171677700I171795J265110D01*
G74*
G1*
X230962405Y171345330D01*
X230871580Y171345330D02*
X231098650Y171677700D01*
X231234890Y171345330D01*
X231158650Y171412590D02*
G75*
G2*
X231098650Y171677700I555690J265110D01*
G74*
G75*
G2*
X231038650Y171412590I-615690J0D01*
G74*
G04 #@! TO.N,119*
G1*
X230071580Y170545330D02*
X230298650Y170877700D01*
G75*
G3*
X230442760Y170612590I315905J0D01*
G74*
G1*
X230238650Y170612590D02*
G75*
G3*
X230298650Y170877700I-555690J265110D01*
G74*
G1*
X230253235Y170545330D01*
X230162405Y170545330D02*
X230298650Y170877700D01*
X230434890Y170545330D01*
X230358650Y170612590D02*
G75*
G2*
X230298650Y170877700I555690J265110D01*
G74*
G75*
G2*
X230154540Y170612590I-315905J0D01*
G74*
G1*
X230525720Y170545330D02*
X230298650Y170877700D01*
X230344060Y170545330D01*
X229558650Y171412590D02*
G75*
G2*
X229498650Y171677700I555690J265110D01*
G74*
G75*
G2*
X229438650Y171412590I-615690J0D01*
G74*
G04 #@! TO.N,117*
G1*
X229362405Y171345330D02*
X229498650Y171677700D01*
G75*
G2*
X229354540Y171412590I-315905J0D01*
G74*
G1*
X229642760Y171412590D02*
G75*
G2*
X229498650Y171677700I171795J265110D01*
G74*
G1*
X229453235Y171345330D01*
X229725720Y171345330D02*
X229498650Y171677700D01*
X229271580Y171345330D01*
X229634890Y171345330D02*
X229498650Y171677700D01*
X229544060Y171345330D01*
G04 #@! TO.N,115*
X228562405Y170545330D02*
X228698650Y170877700D01*
X228653235Y170545330D01*
X228471580Y170545330D02*
X228698650Y170877700D01*
G75*
G3*
X228842760Y170612590I315905J0D01*
G74*
G1*
X228925720Y170545330D02*
X228698650Y170877700D01*
G75*
G3*
X228758650Y170612590I615690J0D01*
G74*
G1*
X228638650Y170612590D02*
G75*
G3*
X228698650Y170877700I-555690J265110D01*
G74*
G1*
X228834890Y170545330D01*
X228554540Y170612590D02*
G75*
G3*
X228698650Y170877700I-171795J265110D01*
G74*
G1*
X228744060Y170545330D01*
G04 #@! TO.N,128*
X227944060Y171345330D02*
X227898650Y171677700D01*
X227853235Y171345330D01*
X228125720Y171345330D02*
X227898650Y171677700D01*
G75*
G3*
X228042760Y171412590I315905J0D01*
G74*
G1*
X227762405Y171345330D02*
X227898650Y171677700D01*
G75*
G2*
X227838650Y171412590I-615690J0D01*
G74*
G1*
X227958650Y171412590D02*
G75*
G2*
X227898650Y171677700I555690J265110D01*
G74*
G1*
X227671580Y171345330D01*
X228034890Y171345330D02*
X227898650Y171677700D01*
G75*
G2*
X227754540Y171412590I-315905J0D01*
G74*
G1*
X234850000Y99989995D02*
X235450000Y100589995D01*
X258000000D01*
X259000000Y101589995D01*
Y176290150D01*
X258500000Y176790150D01*
X228398650D01*
X227898650Y176290150D01*
Y171990200D01*
Y171190200D01*
X227898950Y171690205D02*
Y171190200D01*
G04 #@! TO.N,96*
X232698950Y171690205D02*
Y171190200D01*
G04 #@! TO.N,100*
X234298950Y171690205D02*
Y171190200D01*
G04 #@! TO.N,87*
X235098950Y171690205D02*
Y170390200D01*
G04 #@! TO.N,89*
X235898950Y171690205D02*
Y171190200D01*
G04 #@! TO.N,76*
X236698950Y171690205D02*
Y170390200D01*
G04 #@! TO.N,80*
X238298950Y171690205D02*
Y170390200D01*
G04 #@! TO.N,67*
X239098950Y171690205D02*
Y171190200D01*
G04 #@! TO.N,78*
X237498950Y171690205D02*
Y171190200D01*
G04 #@! TO.N,115*
X228698950Y170390200D02*
Y171690205D01*
G04 #@! TO.N,117*
X229498950Y171190200D02*
Y171690205D01*
G04 #@! TO.N,119*
X230298950Y170390200D02*
Y171690205D01*
G04 #@! TO.N,108*
X231898950Y170390200D02*
Y171690205D01*
G04 #@! TO.N,98*
X233498950Y171690205D02*
Y170390200D01*
G04 #@! TO.N,106*
X231098950Y171690205D02*
Y171190200D01*
G04 #@! TO.N,126*
X227098950Y170390200D02*
Y176490150D01*
G04 #@! TO.N,67*
X234850000Y107989995D02*
X235450000Y108589995D01*
X255950000D01*
X256200000Y108839995D01*
Y173490150D01*
X255700000Y173990150D01*
X239598650D01*
X239098650Y173490150D01*
Y171990200D01*
Y171190200D01*
G04 #@! TO.N,74*
X242298650Y140490100D02*
Y142190050D01*
X241798650Y142690050D01*
X223511015D01*
X223011015Y142190050D01*
Y107889995D01*
X223511015Y107389995D01*
X229450000D01*
X229850000Y106989995D01*
G04 #@! TO.N,63*
X240698650Y140490100D02*
Y141790050D01*
X240198650Y142290050D01*
X223911015D01*
X223411015Y141790050D01*
Y108489995D01*
X223911015Y107989995D01*
X228850000D01*
G04 #@! TO.N,61*
X241498650Y141290100D02*
Y141990050D01*
X240998650Y142490050D01*
X223711015D01*
X223211015Y141990050D01*
Y108089995D01*
X223711015Y107589995D01*
X231250000D01*
X231850000Y106989995D01*
G04 #@! TO.N,85*
X243898650Y140490100D02*
Y142590050D01*
X243398650Y143090050D01*
X223111015D01*
X222611015Y142590050D01*
Y107489995D01*
X223111015Y106989995D01*
X226541820D01*
X227141820Y106389995D01*
X230450000D01*
X230850000Y105989995D01*
G04 #@! TO.N,72*
X243098650Y141290100D02*
Y142390050D01*
X242598650Y142890050D01*
X223311015D01*
X222811015Y142390050D01*
Y107689995D01*
X223311015Y107189995D01*
X226741820D01*
X227341820Y106589995D01*
X232250000D01*
X232850000Y105989995D01*
G04 #@! TO.N,83*
X244698650Y141290100D02*
Y142790050D01*
X244198650Y143290050D01*
X222911015D01*
X222411015Y142790050D01*
Y107089995D01*
X222718515Y106782495D01*
X226367900D01*
X227160400Y105989995D01*
X228850000D01*
G04 #@! TO.N,122*
X230850000Y99989995D02*
X230450000Y100389995D01*
X221111015D01*
X220611015Y100889995D01*
Y144590050D01*
X221111015Y145090050D01*
X251398650D01*
X251898650Y144590050D01*
Y140490100D01*
G04 #@! TO.N,124*
X232850000Y99989995D02*
X232250000Y100589995D01*
X221311015D01*
X220811015Y101089995D01*
Y144390050D01*
X221311015Y144890050D01*
X250598650D01*
X251098650Y144390050D01*
Y141290100D01*
G04 #@! TO.N,81*
X231850000Y102989995D02*
X231250000Y103589995D01*
X227141820D01*
X226541820Y102989995D01*
X222711015D01*
X222211015Y103489995D01*
Y142990050D01*
X222711015Y143490050D01*
X244998650D01*
X245498650Y142990050D01*
Y140490100D01*
G04 #@! TO.N,94*
X229850000Y102989995D02*
X229450000Y103389995D01*
X227341820D01*
X226661820Y102709995D01*
X222511015D01*
X222011015Y103209995D01*
Y143190050D01*
X222511015Y143690050D01*
X245798650D01*
X246298650Y143190050D01*
Y141290100D01*
G04 #@! TO.N,92*
X232850000Y101989995D02*
X232250000Y102589995D01*
X227141820D01*
X226981815Y102429990D01*
X222311015D01*
X221811015Y102929990D01*
Y143390050D01*
X222311015Y143890050D01*
X246598650D01*
X247098650Y143390050D01*
Y140490100D01*
G04 #@! TO.N,103*
X230850000Y101989995D02*
X230450000Y102389995D01*
X227341820D01*
X227101810Y102149985D01*
X222111015D01*
X221611015Y102649985D01*
Y143590050D01*
X222111015Y144090050D01*
X247398650D01*
X247898650Y143590050D01*
Y141290100D01*
G04 #@! TO.N,101*
X228850000Y101989995D02*
X227341820D01*
X227221805Y101869980D01*
X221911015D01*
X221411015Y102369980D01*
Y143790050D01*
X221911015Y144290050D01*
X248198650D01*
X248698650Y143790050D01*
Y140490100D01*
G04 #@! TO.N,113*
X231850000Y100989995D02*
X231250000Y101589995D01*
X221711015D01*
X221211015Y102089995D01*
Y143990050D01*
X221711015Y144490050D01*
X248998650D01*
X249498650Y143990050D01*
Y141290100D01*
G04 #@! TO.N,111*
X229850000Y100989995D02*
X229450000Y101389995D01*
X221511015D01*
X221011015Y101889995D01*
Y144190050D01*
X221511015Y144690050D01*
X249798650D01*
X250298650Y144190050D01*
Y140490100D01*
G04 #@! TO.N,120*
X228850000Y99989995D02*
X220911015D01*
X220411015Y100489995D01*
Y144790050D01*
X220911015Y145290050D01*
X252198650D01*
X252698650Y144790050D01*
Y141290100D01*
G04 #@! TO.N,67*
D11*
X239098650Y171190200D03*
G04 #@! TO.N,80*
X238298650Y170390200D03*
G04 #@! TO.N,78*
X237498650Y171190200D03*
G04 #@! TO.N,76*
X236698650Y170390200D03*
G04 #@! TO.N,89*
X235898650Y171190200D03*
G04 #@! TO.N,87*
X235098650Y170390200D03*
G04 #@! TO.N,100*
X234298650Y171190200D03*
G04 #@! TO.N,98*
X233498650Y170390200D03*
G04 #@! TO.N,96*
X232698650Y171190200D03*
G04 #@! TO.N,108*
X231898650Y170390200D03*
G04 #@! TO.N,106*
X231098650Y171190200D03*
G04 #@! TO.N,119*
X230298650Y170390200D03*
G04 #@! TO.N,117*
X229498650Y171190200D03*
G04 #@! TO.N,115*
X228698650Y170390200D03*
G04 #@! TO.N,128*
X227898650Y171190200D03*
G04 #@! TO.N,8*
X239098650Y163190200D03*
G04 #@! TO.N,6*
X238298650Y162390200D03*
G04 #@! TO.N,19*
X237498650Y163190200D03*
G04 #@! TO.N,17*
X236698650Y162390200D03*
G04 #@! TO.N,30*
X235898650Y163190200D03*
G04 #@! TO.N,28*
X235098650Y162390200D03*
G04 #@! TO.N,26*
X234298650Y163190200D03*
G04 #@! TO.N,39*
X233498650Y162390200D03*
G04 #@! TO.N,37*
X232698650Y163190200D03*
G04 #@! TO.N,50*
X231898650Y162390200D03*
G04 #@! TO.N,48*
X231098650Y163190200D03*
G04 #@! TO.N,46*
X230298650Y162390200D03*
G04 #@! TO.N,59*
X229498650Y163190200D03*
G04 #@! TO.N,57*
X228698650Y162390200D03*
G04 #@! TO.N,70*
X227898650Y163190200D03*
G04 #@! TO.N,68*
X227098650Y162390200D03*
G04 #@! TO.N,66*
X252698650Y163190200D03*
G04 #@! TO.N,79*
X251898650Y162390200D03*
G04 #@! TO.N,77*
X251098650Y163190200D03*
G04 #@! TO.N,90*
X250298650Y162390200D03*
G04 #@! TO.N,88*
X249498650Y163190200D03*
G04 #@! TO.N,86*
X248698650Y162390200D03*
G04 #@! TO.N,99*
X247898650Y163190200D03*
G04 #@! TO.N,97*
X247098650Y162390200D03*
G04 #@! TO.N,109*
X246298650Y163190200D03*
G04 #@! TO.N,107*
X245498650Y162390200D03*
G04 #@! TO.N,105*
X244698650Y163190200D03*
G04 #@! TO.N,118*
X243898650Y162390200D03*
G04 #@! TO.N,116*
X243098650Y163190200D03*
G04 #@! TO.N,129*
X242298650Y162390200D03*
G04 #@! TO.N,127*
X241498650Y163190200D03*
G04 #@! TO.N,125*
X240698650Y162390200D03*
G04 #@! TO.N,9*
X252698650Y171190200D03*
G04 #@! TO.N,7*
X251898650Y170390200D03*
G04 #@! TO.N,20*
X251098650Y171190200D03*
G04 #@! TO.N,18*
X250298650Y170390200D03*
G04 #@! TO.N,16*
X249498650Y171190200D03*
G04 #@! TO.N,29*
X248698650Y170390200D03*
G04 #@! TO.N,27*
X247898650Y171190200D03*
G04 #@! TO.N,40*
X247098650Y170390200D03*
G04 #@! TO.N,38*
X246298650Y171190200D03*
G04 #@! TO.N,36*
X245498650Y170390200D03*
G04 #@! TO.N,49*
X244698650Y171190200D03*
G04 #@! TO.N,47*
X243898650Y170390200D03*
G04 #@! TO.N,60*
X243098650Y171190200D03*
G04 #@! TO.N,58*
X242298650Y170390200D03*
G04 #@! TO.N,56*
X241498650Y171190200D03*
G04 #@! TO.N,69*
X240698650Y170390200D03*
G04 #@! TO.N,67*
X239098650Y171190200D03*
G04 #@! TO.N,80*
X238298650Y170390200D03*
G04 #@! TO.N,78*
X237498650Y171190200D03*
G04 #@! TO.N,76*
X236698650Y170390200D03*
G04 #@! TO.N,89*
X235898650Y171190200D03*
G04 #@! TO.N,87*
X235098650Y170390200D03*
G04 #@! TO.N,100*
X234298650Y171190200D03*
G04 #@! TO.N,98*
X233498650Y170390200D03*
G04 #@! TO.N,96*
X232698650Y171190200D03*
G04 #@! TO.N,108*
X231898650Y170390200D03*
G04 #@! TO.N,106*
X231098650Y171190200D03*
G04 #@! TO.N,119*
X230298650Y170390200D03*
G04 #@! TO.N,117*
X229498650Y171190200D03*
G04 #@! TO.N,115*
X228698650Y170390200D03*
G04 #@! TO.N,128*
X227898650Y171190200D03*
G04 #@! TO.N,126*
X227098650Y170390200D03*
G04 #@! TO.N,10*
X240698650Y128190100D03*
G04 #@! TO.N,4*
X241498650Y127390100D03*
G04 #@! TO.N,2*
X242298650Y128190100D03*
G04 #@! TO.N,15*
X243098650Y127390100D03*
G04 #@! TO.N,13*
X243898650Y128190100D03*
G04 #@! TO.N,11*
X244698650Y127390100D03*
G04 #@! TO.N,24*
X245498650Y128190100D03*
G04 #@! TO.N,22*
X246298650Y127390100D03*
G04 #@! TO.N,35*
X247098650Y128190100D03*
G04 #@! TO.N,33*
X247898650Y127390100D03*
G04 #@! TO.N,31*
X248698650Y128190100D03*
G04 #@! TO.N,44*
X249498650Y127390100D03*
G04 #@! TO.N,42*
X250298650Y128190100D03*
G04 #@! TO.N,55*
X251098650Y127390100D03*
G04 #@! TO.N,53*
X251898650Y128190100D03*
G04 #@! TO.N,64*
X227098650D03*
G04 #@! TO.N,62*
X227898650Y127390100D03*
G04 #@! TO.N,75*
X228698650Y128190100D03*
G04 #@! TO.N,73*
X229498650Y127390100D03*
G04 #@! TO.N,71*
X230298650Y128190100D03*
G04 #@! TO.N,84*
X231098650Y127390100D03*
G04 #@! TO.N,82*
X231898650Y128190100D03*
G04 #@! TO.N,95*
X232698650Y127390100D03*
G04 #@! TO.N,93*
X233498650Y128190100D03*
G04 #@! TO.N,104*
X234298650Y127390100D03*
G04 #@! TO.N,102*
X235098650Y128190100D03*
G04 #@! TO.N,114*
X235898650Y127390100D03*
G04 #@! TO.N,112*
X236698650Y128190100D03*
G04 #@! TO.N,110*
X237498650Y127390100D03*
G04 #@! TO.N,123*
X238298650Y128190100D03*
G04 #@! TO.N,121*
X239098650Y127390100D03*
G04 #@! TO.N,51*
X252698650D03*
G04 #@! TO.N,120*
Y141290100D03*
G04 #@! TO.N,122*
X251898650Y140490100D03*
G04 #@! TO.N,124*
X251098650Y141290100D03*
G04 #@! TO.N,111*
X250298650Y140490100D03*
G04 #@! TO.N,113*
X249498650Y141290100D03*
G04 #@! TO.N,101*
X248698650Y140490100D03*
G04 #@! TO.N,103*
X247898650Y141290100D03*
G04 #@! TO.N,92*
X247098650Y140490100D03*
G04 #@! TO.N,94*
X246298650Y141290100D03*
G04 #@! TO.N,81*
X245498650Y140490100D03*
G04 #@! TO.N,83*
X244698650Y141290100D03*
G04 #@! TO.N,85*
X243898650Y140490100D03*
G04 #@! TO.N,72*
X243098650Y141290100D03*
G04 #@! TO.N,74*
X242298650Y140490100D03*
G04 #@! TO.N,61*
X241498650Y141290100D03*
G04 #@! TO.N,63*
X240698650Y140490100D03*
G04 #@! TO.N,65*
X239098650Y141290100D03*
G04 #@! TO.N,52*
X238298650Y140490100D03*
G04 #@! TO.N,54*
X237498650Y141290100D03*
G04 #@! TO.N,41*
X236698650Y140490100D03*
G04 #@! TO.N,43*
X235898650Y141290100D03*
G04 #@! TO.N,45*
X235098650Y140490100D03*
G04 #@! TO.N,32*
X234298650Y141290100D03*
G04 #@! TO.N,34*
X233498650Y140490100D03*
G04 #@! TO.N,21*
X232698650Y141290100D03*
G04 #@! TO.N,23*
X231898650Y140490100D03*
G04 #@! TO.N,25*
X231098650Y141290100D03*
G04 #@! TO.N,12*
X230298650Y140490100D03*
G04 #@! TO.N,14*
X229498650Y141290100D03*
G04 #@! TO.N,1*
X228698650Y140490100D03*
G04 #@! TO.N,3*
X227898650Y141290100D03*
G04 #@! TO.N,5*
X227098650Y140490100D03*
G04 #@! TO.N,91*
D12*
X237850000Y104989995D02*
X228850000D01*
X237850000Y93989995D02*
X228850000D01*
X237850000Y94989995D02*
X228850000D01*
X237850000Y103989995D02*
X228850000D01*
X233850000Y104989995D02*
Y101989995D01*
X233850000Y96989995D02*
Y93989995D01*
G04 #@! TO.N,1*
D13*
X237850000Y84989995D03*
G04 #@! TO.N,2*
X236850000D03*
G04 #@! TO.N,3*
X235850000D03*
G04 #@! TO.N,4*
X234850000D03*
G04 #@! TO.N,5*
X233850000D03*
G04 #@! TO.N,6*
X232850000D03*
G04 #@! TO.N,7*
X231850000D03*
G04 #@! TO.N,8*
X230850000D03*
G04 #@! TO.N,9*
X229850000D03*
G04 #@! TO.N,10*
X228850000D03*
G04 #@! TO.N,11*
X237850000Y85989995D03*
G04 #@! TO.N,12*
X236850000D03*
G04 #@! TO.N,13*
X235850000D03*
G04 #@! TO.N,14*
X234850000D03*
G04 #@! TO.N,15*
X233850000D03*
G04 #@! TO.N,16*
X232850000D03*
G04 #@! TO.N,17*
X231850000D03*
G04 #@! TO.N,18*
X230850000D03*
G04 #@! TO.N,19*
X229850000D03*
G04 #@! TO.N,20*
X228850000D03*
G04 #@! TO.N,21*
X237850000Y86989995D03*
G04 #@! TO.N,22*
X236850000D03*
G04 #@! TO.N,23*
X235850000D03*
G04 #@! TO.N,24*
X234850000D03*
G04 #@! TO.N,25*
X233850000D03*
G04 #@! TO.N,26*
X232850000D03*
G04 #@! TO.N,27*
X231850000D03*
G04 #@! TO.N,28*
X230850000D03*
G04 #@! TO.N,29*
X229850000D03*
G04 #@! TO.N,30*
X228850000D03*
G04 #@! TO.N,31*
X237850000Y87989995D03*
G04 #@! TO.N,32*
X236850000D03*
G04 #@! TO.N,33*
X235850000D03*
G04 #@! TO.N,34*
X234850000D03*
G04 #@! TO.N,35*
X233850000D03*
G04 #@! TO.N,36*
X232850000D03*
G04 #@! TO.N,37*
X231850000D03*
G04 #@! TO.N,38*
X230850000D03*
G04 #@! TO.N,39*
X229850000D03*
G04 #@! TO.N,40*
X228850000D03*
G04 #@! TO.N,41*
X237850000Y88989995D03*
G04 #@! TO.N,42*
X236850000D03*
G04 #@! TO.N,43*
X235850000D03*
G04 #@! TO.N,44*
X234850000D03*
G04 #@! TO.N,45*
X233850000D03*
G04 #@! TO.N,46*
X232850000D03*
G04 #@! TO.N,47*
X231850000D03*
G04 #@! TO.N,48*
X230850000D03*
G04 #@! TO.N,49*
X229850000D03*
G04 #@! TO.N,50*
X228850000D03*
G04 #@! TO.N,51*
X237850000Y89989995D03*
G04 #@! TO.N,52*
X236850000D03*
G04 #@! TO.N,53*
X235850000D03*
G04 #@! TO.N,54*
X234850000D03*
G04 #@! TO.N,55*
X233850000D03*
G04 #@! TO.N,56*
X232850000D03*
G04 #@! TO.N,57*
X231850000D03*
G04 #@! TO.N,58*
X230850000D03*
G04 #@! TO.N,59*
X229850000D03*
G04 #@! TO.N,60*
X228850000D03*
G04 #@! TO.N,61*
X237850000Y90989995D03*
G04 #@! TO.N,62*
X236850000D03*
G04 #@! TO.N,63*
X235850000D03*
G04 #@! TO.N,64*
X234850000D03*
G04 #@! TO.N,65*
X233850000D03*
G04 #@! TO.N,66*
X232850000D03*
G04 #@! TO.N,67*
X231850000D03*
G04 #@! TO.N,68*
X230850000D03*
G04 #@! TO.N,69*
X229850000D03*
G04 #@! TO.N,70*
X228850000D03*
G04 #@! TO.N,71*
X237850000Y91989995D03*
G04 #@! TO.N,72*
X236850000D03*
G04 #@! TO.N,73*
X235850000D03*
G04 #@! TO.N,74*
X234850000D03*
G04 #@! TO.N,75*
X233850000D03*
G04 #@! TO.N,76*
X232850000D03*
G04 #@! TO.N,77*
X231850000D03*
G04 #@! TO.N,78*
X230850000D03*
G04 #@! TO.N,79*
X229850000D03*
G04 #@! TO.N,80*
X228850000D03*
G04 #@! TO.N,81*
X237850000Y92989995D03*
G04 #@! TO.N,82*
X236850000D03*
G04 #@! TO.N,83*
X235850000D03*
G04 #@! TO.N,84*
X234850000D03*
G04 #@! TO.N,85*
X233850000D03*
G04 #@! TO.N,86*
X232850000D03*
G04 #@! TO.N,87*
X231850000D03*
G04 #@! TO.N,88*
X230850000D03*
G04 #@! TO.N,89*
X229850000D03*
G04 #@! TO.N,90*
X228850000D03*
G04 #@! TO.N,91*
X237850000Y93989995D03*
X236850000D03*
X235850000D03*
X234850000D03*
X233850000D03*
X232850000D03*
X231850000D03*
X230850000D03*
X229850000D03*
X228850000D03*
X237850000Y94989995D03*
X236850000D03*
X235850000D03*
X234850000D03*
X233850000D03*
X232850000D03*
X231850000D03*
X230850000D03*
X229850000D03*
X228850000D03*
G04 #@! TO.N,92*
X237850000Y95989995D03*
G04 #@! TO.N,93*
X236850000D03*
G04 #@! TO.N,94*
X235850000D03*
G04 #@! TO.N,95*
X234850000D03*
G04 #@! TO.N,91*
X233850000D03*
G04 #@! TO.N,96*
X232850000D03*
G04 #@! TO.N,97*
X231850000D03*
G04 #@! TO.N,98*
X230850000D03*
G04 #@! TO.N,99*
X229850000D03*
G04 #@! TO.N,100*
X228850000D03*
G04 #@! TO.N,101*
X237850000Y96989995D03*
G04 #@! TO.N,102*
X236850000D03*
G04 #@! TO.N,103*
X235850000D03*
G04 #@! TO.N,104*
X234850000D03*
G04 #@! TO.N,91*
X233850000D03*
G04 #@! TO.N,105*
X232850000D03*
G04 #@! TO.N,106*
X231850000D03*
G04 #@! TO.N,107*
X230850000D03*
G04 #@! TO.N,108*
X229850000D03*
G04 #@! TO.N,109*
X228850000D03*
G04 #@! TO.N,110*
X237850000Y97989995D03*
G04 #@! TO.N,111*
X236850000D03*
G04 #@! TO.N,112*
X235850000D03*
G04 #@! TO.N,113*
X234850000D03*
G04 #@! TO.N,114*
X233850000D03*
G04 #@! TO.N,115*
X232850000D03*
G04 #@! TO.N,116*
X231850000D03*
G04 #@! TO.N,117*
X230850000D03*
G04 #@! TO.N,118*
X229850000D03*
G04 #@! TO.N,119*
X228850000D03*
G04 #@! TO.N,120*
X237850000Y98989995D03*
G04 #@! TO.N,121*
X236850000D03*
G04 #@! TO.N,122*
X235850000D03*
G04 #@! TO.N,123*
X234850000D03*
G04 #@! TO.N,124*
X233850000D03*
G04 #@! TO.N,125*
X232850000D03*
G04 #@! TO.N,126*
X231850000D03*
G04 #@! TO.N,127*
X230850000D03*
G04 #@! TO.N,128*
X229850000D03*
G04 #@! TO.N,129*
X228850000D03*
G04 #@! TO.N,68*
X237850000Y99989995D03*
G04 #@! TO.N,126*
X236850000D03*
G04 #@! TO.N,70*
X235850000D03*
G04 #@! TO.N,128*
X234850000D03*
G04 #@! TO.N,57*
X233850000D03*
G04 #@! TO.N,124*
X232850000D03*
G04 #@! TO.N,53*
X231850000D03*
G04 #@! TO.N,122*
X230850000D03*
G04 #@! TO.N,51*
X229850000D03*
G04 #@! TO.N,120*
X228850000D03*
G04 #@! TO.N,115*
X237850000Y100989995D03*
G04 #@! TO.N,59*
X236850000D03*
G04 #@! TO.N,117*
X235850000D03*
G04 #@! TO.N,46*
X234850000D03*
G04 #@! TO.N,119*
X233850000D03*
G04 #@! TO.N,44*
X232850000D03*
G04 #@! TO.N,113*
X231850000D03*
G04 #@! TO.N,42*
X230850000D03*
G04 #@! TO.N,111*
X229850000D03*
G04 #@! TO.N,55*
X228850000D03*
G04 #@! TO.N,48*
X237850000Y101989995D03*
G04 #@! TO.N,106*
X236850000D03*
G04 #@! TO.N,50*
X235850000D03*
G04 #@! TO.N,108*
X234850000D03*
G04 #@! TO.N,91*
X233850000D03*
G04 #@! TO.N,92*
X232850000D03*
G04 #@! TO.N,33*
X231850000D03*
G04 #@! TO.N,103*
X230850000D03*
G04 #@! TO.N,31*
X229850000D03*
G04 #@! TO.N,101*
X228850000D03*
G04 #@! TO.N,37*
X237850000Y102989995D03*
G04 #@! TO.N,96*
X236850000D03*
G04 #@! TO.N,39*
X235850000D03*
G04 #@! TO.N,98*
X234850000D03*
G04 #@! TO.N,91*
X233850000D03*
G04 #@! TO.N,24*
X232850000D03*
G04 #@! TO.N,81*
X231850000D03*
G04 #@! TO.N,22*
X230850000D03*
G04 #@! TO.N,94*
X229850000D03*
G04 #@! TO.N,35*
X228850000D03*
G04 #@! TO.N,91*
X237850000Y103989995D03*
X236850000D03*
X235850000D03*
X234850000D03*
X233850000D03*
X232850000D03*
X231850000D03*
X230850000D03*
X229850000D03*
X228850000D03*
X237850000Y104989995D03*
X236850000D03*
X235850000D03*
X234850000D03*
X233850000D03*
X232850000D03*
X231850000D03*
X230850000D03*
X229850000D03*
X228850000D03*
G04 #@! TO.N,26*
X237850000Y105989995D03*
G04 #@! TO.N,100*
X236850000D03*
G04 #@! TO.N,28*
X235850000D03*
G04 #@! TO.N,87*
X234850000D03*
G04 #@! TO.N,30*
X233850000D03*
G04 #@! TO.N,72*
X232850000D03*
G04 #@! TO.N,13*
X231850000D03*
G04 #@! TO.N,85*
X230850000D03*
G04 #@! TO.N,11*
X229850000D03*
G04 #@! TO.N,83*
X228850000D03*
G04 #@! TO.N,89*
X237850000Y106989995D03*
G04 #@! TO.N,17*
X236850000D03*
G04 #@! TO.N,76*
X235850000D03*
G04 #@! TO.N,19*
X234850000D03*
G04 #@! TO.N,78*
X233850000D03*
G04 #@! TO.N,4*
X232850000D03*
G04 #@! TO.N,61*
X231850000D03*
G04 #@! TO.N,2*
X230850000D03*
G04 #@! TO.N,74*
X229850000D03*
G04 #@! TO.N,15*
X228850000D03*
G04 #@! TO.N,6*
X237850000Y107989995D03*
G04 #@! TO.N,80*
X236850000D03*
G04 #@! TO.N,8*
X235850000D03*
G04 #@! TO.N,67*
X234850000D03*
G04 #@! TO.N,125*
X233850000D03*
G04 #@! TO.N,52*
X232850000D03*
G04 #@! TO.N,121*
X231850000D03*
G04 #@! TO.N,65*
X230850000D03*
G04 #@! TO.N,10*
X229850000D03*
G04 #@! TO.N,63*
X228850000D03*
G04 #@! TO.N,69*
X237850000Y108989995D03*
G04 #@! TO.N,127*
X236850000D03*
G04 #@! TO.N,56*
X235850000D03*
G04 #@! TO.N,129*
X234850000D03*
G04 #@! TO.N,58*
X233850000D03*
G04 #@! TO.N,112*
X232850000D03*
G04 #@! TO.N,41*
X231850000D03*
G04 #@! TO.N,110*
X230850000D03*
G04 #@! TO.N,54*
X229850000D03*
G04 #@! TO.N,123*
X228850000D03*
G04 #@! TO.N,116*
X237850000Y109989995D03*
G04 #@! TO.N,60*
X236850000D03*
G04 #@! TO.N,118*
X235850000D03*
G04 #@! TO.N,47*
X234850000D03*
G04 #@! TO.N,105*
X233850000D03*
G04 #@! TO.N,32*
X232850000D03*
G04 #@! TO.N,102*
X231850000D03*
G04 #@! TO.N,45*
X230850000D03*
G04 #@! TO.N,114*
X229850000D03*
G04 #@! TO.N,43*
X228850000D03*
G04 #@! TO.N,49*
X237850000Y110989995D03*
G04 #@! TO.N,107*
X236850000D03*
G04 #@! TO.N,36*
X235850000D03*
G04 #@! TO.N,109*
X234850000D03*
G04 #@! TO.N,38*
X233850000D03*
G04 #@! TO.N,95*
X232850000D03*
G04 #@! TO.N,21*
X231850000D03*
G04 #@! TO.N,93*
X230850000D03*
G04 #@! TO.N,34*
X229850000D03*
G04 #@! TO.N,104*
X228850000D03*
G04 #@! TO.N,97*
X237850000Y111989995D03*
G04 #@! TO.N,40*
X236850000D03*
G04 #@! TO.N,99*
X235850000D03*
G04 #@! TO.N,27*
X234850000D03*
G04 #@! TO.N,86*
X233850000D03*
G04 #@! TO.N,12*
X232850000D03*
G04 #@! TO.N,84*
X231850000D03*
G04 #@! TO.N,25*
X230850000D03*
G04 #@! TO.N,82*
X229850000D03*
G04 #@! TO.N,23*
X228850000D03*
G04 #@! TO.N,29*
X237850000Y112989995D03*
G04 #@! TO.N,88*
X236850000D03*
G04 #@! TO.N,16*
X235850000D03*
G04 #@! TO.N,90*
X234850000D03*
G04 #@! TO.N,18*
X233850000D03*
G04 #@! TO.N,75*
X232850000D03*
G04 #@! TO.N,1*
X231850000D03*
G04 #@! TO.N,73*
X230850000D03*
G04 #@! TO.N,14*
X229850000D03*
G04 #@! TO.N,71*
X228850000D03*
G04 #@! TO.N,77*
X237850000Y113989995D03*
G04 #@! TO.N,20*
X236850000D03*
G04 #@! TO.N,79*
X235850000D03*
G04 #@! TO.N,7*
X234850000D03*
G04 #@! TO.N,66*
X233850000D03*
G04 #@! TO.N,9*
X232850000D03*
G04 #@! TO.N,64*
X231850000D03*
G04 #@! TO.N,5*
X230850000D03*
G04 #@! TO.N,62*
X229850000D03*
G04 #@! TO.N,3*
X228850000D03*
G04 #@! TO.N,1*
D14*
X237550000Y84989995D03*
G04 #@! TO.N,2*
X236550000D03*
G04 #@! TO.N,3*
X235550000D03*
G04 #@! TO.N,4*
X234550000D03*
G04 #@! TO.N,5*
X233550000D03*
G04 #@! TO.N,6*
X232550000D03*
G04 #@! TO.N,7*
X231550000D03*
G04 #@! TO.N,8*
X230550000D03*
G04 #@! TO.N,9*
X229550000D03*
G04 #@! TO.N,10*
X228550000D03*
G04 #@! TO.N,11*
X237550000Y85989995D03*
G04 #@! TO.N,12*
X236550000D03*
G04 #@! TO.N,13*
X235550000D03*
G04 #@! TO.N,14*
X234550000D03*
G04 #@! TO.N,15*
X233550000D03*
G04 #@! TO.N,16*
X232550000D03*
G04 #@! TO.N,17*
X231550000D03*
G04 #@! TO.N,18*
X230550000D03*
G04 #@! TO.N,19*
X229550000D03*
G04 #@! TO.N,20*
X228550000D03*
G04 #@! TO.N,21*
X237550000Y86989995D03*
G04 #@! TO.N,22*
X236550000D03*
G04 #@! TO.N,23*
X235550000D03*
G04 #@! TO.N,24*
X234550000D03*
G04 #@! TO.N,25*
X233550000D03*
G04 #@! TO.N,26*
X232550000D03*
G04 #@! TO.N,27*
X231550000D03*
G04 #@! TO.N,28*
X230550000D03*
G04 #@! TO.N,29*
X229550000D03*
G04 #@! TO.N,30*
X228550000D03*
G04 #@! TO.N,31*
X237550000Y87989995D03*
G04 #@! TO.N,32*
X236550000D03*
G04 #@! TO.N,33*
X235550000D03*
G04 #@! TO.N,34*
X234550000D03*
G04 #@! TO.N,35*
X233550000D03*
G04 #@! TO.N,36*
X232550000D03*
G04 #@! TO.N,37*
X231550000D03*
G04 #@! TO.N,38*
X230550000D03*
G04 #@! TO.N,39*
X229550000D03*
G04 #@! TO.N,40*
X228550000D03*
G04 #@! TO.N,41*
X237550000Y88989995D03*
G04 #@! TO.N,42*
X236550000D03*
G04 #@! TO.N,43*
X235550000D03*
G04 #@! TO.N,44*
X234550000D03*
G04 #@! TO.N,45*
X233550000D03*
G04 #@! TO.N,46*
X232550000D03*
G04 #@! TO.N,47*
X231550000D03*
G04 #@! TO.N,48*
X230550000D03*
G04 #@! TO.N,49*
X229550000D03*
G04 #@! TO.N,50*
X228550000D03*
G04 #@! TO.N,51*
X237550000Y89989995D03*
G04 #@! TO.N,52*
X236550000D03*
G04 #@! TO.N,53*
X235550000D03*
G04 #@! TO.N,54*
X234550000D03*
G04 #@! TO.N,55*
X233550000D03*
G04 #@! TO.N,56*
X232550000D03*
G04 #@! TO.N,57*
X231550000D03*
G04 #@! TO.N,58*
X230550000D03*
G04 #@! TO.N,59*
X229550000D03*
G04 #@! TO.N,60*
X228550000D03*
G04 #@! TO.N,61*
X237550000Y90989995D03*
G04 #@! TO.N,62*
X236550000D03*
G04 #@! TO.N,63*
X235550000D03*
G04 #@! TO.N,64*
X234550000D03*
G04 #@! TO.N,65*
X233550000D03*
G04 #@! TO.N,66*
X232550000D03*
G04 #@! TO.N,67*
X231550000D03*
G04 #@! TO.N,68*
X230550000D03*
G04 #@! TO.N,69*
X229550000D03*
G04 #@! TO.N,70*
X228550000D03*
G04 #@! TO.N,71*
X237550000Y91989995D03*
G04 #@! TO.N,72*
X236550000D03*
G04 #@! TO.N,73*
X235550000D03*
G04 #@! TO.N,74*
X234550000D03*
G04 #@! TO.N,75*
X233550000D03*
G04 #@! TO.N,76*
X232550000D03*
G04 #@! TO.N,77*
X231550000D03*
G04 #@! TO.N,78*
X230550000D03*
G04 #@! TO.N,79*
X229550000D03*
G04 #@! TO.N,80*
X228550000D03*
G04 #@! TO.N,81*
X237550000Y92989995D03*
G04 #@! TO.N,82*
X236550000D03*
G04 #@! TO.N,83*
X235550000D03*
G04 #@! TO.N,84*
X234550000D03*
G04 #@! TO.N,85*
X233550000D03*
G04 #@! TO.N,86*
X232550000D03*
G04 #@! TO.N,87*
X231550000D03*
G04 #@! TO.N,88*
X230550000D03*
G04 #@! TO.N,89*
X229550000D03*
G04 #@! TO.N,90*
X228550000D03*
G04 #@! TO.N,91*
X237550000Y93989995D03*
X236550000D03*
X235550000D03*
X234550000D03*
X233550000D03*
X232550000D03*
X231550000D03*
X230550000D03*
X229550000D03*
X228550000D03*
X237550000Y94989995D03*
X236550000D03*
X235550000D03*
X234550000D03*
X233550000D03*
X232550000D03*
X231550000D03*
X230550000D03*
X229550000D03*
X228550000D03*
G04 #@! TO.N,92*
X237550000Y95989995D03*
G04 #@! TO.N,93*
X236550000D03*
G04 #@! TO.N,94*
X235550000D03*
G04 #@! TO.N,95*
X234550000D03*
G04 #@! TO.N,91*
X233550000D03*
G04 #@! TO.N,96*
X232550000D03*
G04 #@! TO.N,97*
X231550000D03*
G04 #@! TO.N,98*
X230550000D03*
G04 #@! TO.N,99*
X229550000D03*
G04 #@! TO.N,100*
X228550000D03*
G04 #@! TO.N,101*
X237550000Y96989995D03*
G04 #@! TO.N,102*
X236550000D03*
G04 #@! TO.N,103*
X235550000D03*
G04 #@! TO.N,104*
X234550000D03*
G04 #@! TO.N,91*
X233550000D03*
G04 #@! TO.N,105*
X232550000D03*
G04 #@! TO.N,106*
X231550000D03*
G04 #@! TO.N,107*
X230550000D03*
G04 #@! TO.N,108*
X229550000D03*
G04 #@! TO.N,109*
X228550000D03*
G04 #@! TO.N,110*
X237550000Y97989995D03*
G04 #@! TO.N,111*
X236550000D03*
G04 #@! TO.N,112*
X235550000D03*
G04 #@! TO.N,113*
X234550000D03*
G04 #@! TO.N,114*
X233550000D03*
G04 #@! TO.N,115*
X232550000D03*
G04 #@! TO.N,116*
X231550000D03*
G04 #@! TO.N,117*
X230550000D03*
G04 #@! TO.N,118*
X229550000D03*
G04 #@! TO.N,119*
X228550000D03*
G04 #@! TO.N,120*
X237550000Y98989995D03*
G04 #@! TO.N,121*
X236550000D03*
G04 #@! TO.N,122*
X235550000D03*
G04 #@! TO.N,123*
X234550000D03*
G04 #@! TO.N,124*
X233550000D03*
G04 #@! TO.N,125*
X232550000D03*
G04 #@! TO.N,126*
X231550000D03*
G04 #@! TO.N,127*
X230550000D03*
G04 #@! TO.N,128*
X229550000D03*
G04 #@! TO.N,129*
X228550000D03*
G04 #@! TO.N,68*
X237550000Y99989995D03*
G04 #@! TO.N,126*
X236550000D03*
G04 #@! TO.N,70*
X235550000D03*
G04 #@! TO.N,128*
X234550000D03*
G04 #@! TO.N,57*
X233550000D03*
G04 #@! TO.N,124*
X232550000D03*
G04 #@! TO.N,53*
X231550000D03*
G04 #@! TO.N,122*
X230550000D03*
G04 #@! TO.N,51*
X229550000D03*
G04 #@! TO.N,120*
X228550000D03*
G04 #@! TO.N,115*
X237550000Y100989995D03*
G04 #@! TO.N,59*
X236550000D03*
G04 #@! TO.N,117*
X235550000D03*
G04 #@! TO.N,46*
X234550000D03*
G04 #@! TO.N,119*
X233550000D03*
G04 #@! TO.N,44*
X232550000D03*
G04 #@! TO.N,113*
X231550000D03*
G04 #@! TO.N,42*
X230550000D03*
G04 #@! TO.N,111*
X229550000D03*
G04 #@! TO.N,55*
X228550000D03*
G04 #@! TO.N,48*
X237550000Y101989995D03*
G04 #@! TO.N,106*
X236550000D03*
G04 #@! TO.N,50*
X235550000D03*
G04 #@! TO.N,108*
X234550000D03*
G04 #@! TO.N,91*
X233550000D03*
G04 #@! TO.N,92*
X232550000D03*
G04 #@! TO.N,33*
X231550000D03*
G04 #@! TO.N,103*
X230550000D03*
G04 #@! TO.N,31*
X229550000D03*
G04 #@! TO.N,101*
X228550000D03*
G04 #@! TO.N,37*
X237550000Y102989995D03*
G04 #@! TO.N,96*
X236550000D03*
G04 #@! TO.N,39*
X235550000D03*
G04 #@! TO.N,98*
X234550000D03*
G04 #@! TO.N,91*
X233550000D03*
G04 #@! TO.N,24*
X232550000D03*
G04 #@! TO.N,81*
X231550000D03*
G04 #@! TO.N,22*
X230550000D03*
G04 #@! TO.N,94*
X229550000D03*
G04 #@! TO.N,35*
X228550000D03*
G04 #@! TO.N,91*
X237550000Y103989995D03*
X236550000D03*
X235550000D03*
X234550000D03*
X233550000D03*
X232550000D03*
X231550000D03*
X230550000D03*
X229550000D03*
X228550000D03*
X237550000Y104989995D03*
X236550000D03*
X235550000D03*
X234550000D03*
X233550000D03*
X232550000D03*
X231550000D03*
X230550000D03*
X229550000D03*
X228550000D03*
G04 #@! TO.N,26*
X237550000Y105989995D03*
G04 #@! TO.N,100*
X236550000D03*
G04 #@! TO.N,28*
X235550000D03*
G04 #@! TO.N,87*
X234550000D03*
G04 #@! TO.N,30*
X233550000D03*
G04 #@! TO.N,72*
X232550000D03*
G04 #@! TO.N,13*
X231550000D03*
G04 #@! TO.N,85*
X230550000D03*
G04 #@! TO.N,11*
X229550000D03*
G04 #@! TO.N,83*
X228550000D03*
G04 #@! TO.N,89*
X237550000Y106989995D03*
G04 #@! TO.N,17*
X236550000D03*
G04 #@! TO.N,76*
X235550000D03*
G04 #@! TO.N,19*
X234550000D03*
G04 #@! TO.N,78*
X233550000D03*
G04 #@! TO.N,4*
X232550000D03*
G04 #@! TO.N,61*
X231550000D03*
G04 #@! TO.N,2*
X230550000D03*
G04 #@! TO.N,74*
X229550000D03*
G04 #@! TO.N,15*
X228550000D03*
G04 #@! TO.N,6*
X237550000Y107989995D03*
G04 #@! TO.N,80*
X236550000D03*
G04 #@! TO.N,8*
X235550000D03*
G04 #@! TO.N,67*
X234550000D03*
G04 #@! TO.N,125*
X233550000D03*
G04 #@! TO.N,52*
X232550000D03*
G04 #@! TO.N,121*
X231550000D03*
G04 #@! TO.N,65*
X230550000D03*
G04 #@! TO.N,10*
X229550000D03*
G04 #@! TO.N,63*
X228550000D03*
G04 #@! TO.N,69*
X237550000Y108989995D03*
G04 #@! TO.N,127*
X236550000D03*
G04 #@! TO.N,56*
X235550000D03*
G04 #@! TO.N,129*
X234550000D03*
G04 #@! TO.N,58*
X233550000D03*
G04 #@! TO.N,112*
X232550000D03*
G04 #@! TO.N,41*
X231550000D03*
G04 #@! TO.N,110*
X230550000D03*
G04 #@! TO.N,54*
X229550000D03*
G04 #@! TO.N,123*
X228550000D03*
G04 #@! TO.N,116*
X237550000Y109989995D03*
G04 #@! TO.N,60*
X236550000D03*
G04 #@! TO.N,118*
X235550000D03*
G04 #@! TO.N,47*
X234550000D03*
G04 #@! TO.N,105*
X233550000D03*
G04 #@! TO.N,32*
X232550000D03*
G04 #@! TO.N,102*
X231550000D03*
G04 #@! TO.N,45*
X230550000D03*
G04 #@! TO.N,114*
X229550000D03*
G04 #@! TO.N,43*
X228550000D03*
G04 #@! TO.N,49*
X237550000Y110989995D03*
G04 #@! TO.N,107*
X236550000D03*
G04 #@! TO.N,36*
X235550000D03*
G04 #@! TO.N,109*
X234550000D03*
G04 #@! TO.N,38*
X233550000D03*
G04 #@! TO.N,95*
X232550000D03*
G04 #@! TO.N,21*
X231550000D03*
G04 #@! TO.N,93*
X230550000D03*
G04 #@! TO.N,34*
X229550000D03*
G04 #@! TO.N,104*
X228550000D03*
G04 #@! TO.N,97*
X237550000Y111989995D03*
G04 #@! TO.N,40*
X236550000D03*
G04 #@! TO.N,99*
X235550000D03*
G04 #@! TO.N,27*
X234550000D03*
G04 #@! TO.N,86*
X233550000D03*
G04 #@! TO.N,12*
X232550000D03*
G04 #@! TO.N,84*
X231550000D03*
G04 #@! TO.N,25*
X230550000D03*
G04 #@! TO.N,82*
X229550000D03*
G04 #@! TO.N,23*
X228550000D03*
G04 #@! TO.N,29*
X237550000Y112989995D03*
G04 #@! TO.N,88*
X236550000D03*
G04 #@! TO.N,16*
X235550000D03*
G04 #@! TO.N,90*
X234550000D03*
G04 #@! TO.N,18*
X233550000D03*
G04 #@! TO.N,75*
X232550000D03*
G04 #@! TO.N,1*
X231550000D03*
G04 #@! TO.N,73*
X230550000D03*
G04 #@! TO.N,14*
X229550000D03*
G04 #@! TO.N,71*
X228550000D03*
G04 #@! TO.N,77*
X237550000Y113989995D03*
G04 #@! TO.N,20*
X236550000D03*
G04 #@! TO.N,79*
X235550000D03*
G04 #@! TO.N,7*
X234550000D03*
G04 #@! TO.N,66*
X233550000D03*
G04 #@! TO.N,9*
X232550000D03*
G04 #@! TO.N,64*
X231550000D03*
G04 #@! TO.N,5*
X230550000D03*
G04 #@! TO.N,62*
X229550000D03*
G04 #@! TO.N,3*
X228550000D03*
%LPD*%
M02*