G04 #@! TF.FileFunction,Copper,L8,Inr*
G04 #@! TF.FilePolarity,Positive*
G04 #@! TF.SameCoordinates,5Qqye3v5bPdaGfKeuBeZBbiL4PMt2bR*
G04 #@! TF.CreationDate,2025-09-04T08:30:01+0200*
G04 #@! TF.GenerationSoftware,Ucamco,UcamX,v2023.12-240208*
%FSLAX36Y36*%
%MOMM*%
%ADD10C,0.100000*%
%ADD11C,0.650000*%
%ADD12C,0.200000*%
%AMBOXR*
$16=$1/2*
$17=$2/2*
$8=$16-$3*
$9=$17-$3*
$10=$8X$6*
$11=$8X$5*
$12=$9X$6*
$13=$9X$5*
$15=2X$3*
$18=0-$10*
$19=0-$11*
21,1-$7,$1,$2-$15,0,0,$4*
21,1-$7,$1-$15,$2,0,0,$4*
1,1-$7,$15,$10-$13,$11+$12*
1,1-$7,$15,$18-$13,$12-$11*
1,1-$7,$15,$10+$13,$11-$12*
1,1-$7,$15,$13-$10,$19-$12*%
%ADD13BOXR,0.700000X0.520000X0.250000X0.00X0X1X0*%
%ADD14C,0.500000*%
G04 layer name: DFS3498AM2_L8*
%LPD*%
D10*
X249354540Y163412590D02*
G75*
G3*
X249498650Y163677700I-171795J265110D01*
G74*
G75*
G3*
X249642760Y163412590I315905J0D01*
G74*
G04 #@! TO.N,88*
G1*
X249725720Y163345330D02*
X249498650Y163677700D01*
X249271580Y163345330D01*
X249544060Y163345330D02*
X249498650Y163677700D01*
G75*
G2*
X249438650Y163412590I-615690J0D01*
G74*
G1*
X249558650Y163412590D02*
G75*
G2*
X249498650Y163677700I555690J265110D01*
G74*
G1*
X249453235Y163345330D01*
G04 #@! TO.N,127*
X241271580Y163345330D02*
X241498650Y163677700D01*
X241544060Y163345330D01*
X241362405Y163345330D02*
X241498650Y163677700D01*
X241453235Y163345330D01*
G04 #@! TO.N,79*
X251853235Y162545330D02*
X251898650Y162877700D01*
G75*
G2*
X251838650Y162612590I-615690J0D01*
G74*
G1*
X251944060Y162545330D02*
X251898650Y162877700D01*
X252125720Y162545330D01*
X252042760Y162612590D02*
G75*
G2*
X251898650Y162877700I171795J265110D01*
G74*
G1*
X251671580Y162545330D01*
X251754540Y162612590D02*
G75*
G3*
X251898650Y162877700I-171795J265110D01*
G74*
G75*
G3*
X251958650Y162612590I615690J0D01*
G74*
G1*
X251762405Y162545330D02*
X251898650Y162877700D01*
X252034890Y162545330D01*
G04 #@! TO.N,77*
X251144060Y163345330D02*
X251098650Y163677700D01*
X250871580Y163345330D01*
X251053235Y163345330D02*
X251098650Y163677700D01*
G75*
G2*
X250954540Y163412590I-315905J0D01*
G74*
G1*
X251234890Y163345330D02*
X251098650Y163677700D01*
G75*
G2*
X251038650Y163412590I-615690J0D01*
G74*
G1*
X251242760Y163412590D02*
G75*
G2*
X251098650Y163677700I171795J265110D01*
G74*
G1*
X250962405Y163345330D01*
X251325720Y163345330D02*
X251098650Y163677700D01*
G75*
G3*
X251158650Y163412590I615690J0D01*
G74*
G1*
X250358650Y162612590D02*
G75*
G2*
X250298650Y162877700I555690J265110D01*
G74*
G04 #@! TO.N,90*
G1*
X250344060Y162545330D01*
X250442760Y162612590D02*
G75*
G2*
X250298650Y162877700I171795J265110D01*
G74*
G1*
X250071580Y162545330D01*
X250238650Y162612590D02*
G75*
G3*
X250298650Y162877700I-555690J265110D01*
G74*
G1*
X250525720Y162545330D01*
X250253235Y162545330D02*
X250298650Y162877700D01*
X250162405Y162545330D01*
X250154540Y162612590D02*
G75*
G3*
X250298650Y162877700I-171795J265110D01*
G74*
G1*
X250434890Y162545330D01*
G04 #@! TO.N,88*
X249362405Y163345330D02*
X249498650Y163677700D01*
X249634890Y163345330D01*
X248842760Y162612590D02*
G75*
G2*
X248698650Y162877700I171795J265110D01*
G74*
G04 #@! TO.N,86*
G1*
X248925720Y162545330D01*
X248638650Y162612590D02*
G75*
G3*
X248698650Y162877700I-555690J265110D01*
G74*
G1*
X248834890Y162545330D01*
X248554540Y162612590D02*
G75*
G3*
X248698650Y162877700I-171795J265110D01*
G74*
G1*
X248562405Y162545330D01*
X248758650Y162612590D02*
G75*
G2*
X248698650Y162877700I555690J265110D01*
G74*
G1*
X248653235Y162545330D01*
X248744060Y162545330D02*
X248698650Y162877700D01*
X248471580Y162545330D01*
G04 #@! TO.N,99*
X247762405Y163345330D02*
X247898650Y163677700D01*
X247671580Y163345330D01*
X248042760Y163412590D02*
G75*
G2*
X247898650Y163677700I171795J265110D01*
G74*
G1*
X248034890Y163345330D01*
X247958650Y163412590D02*
G75*
G2*
X247898650Y163677700I555690J265110D01*
G74*
G1*
X247853235Y163345330D01*
X247754540Y163412590D02*
G75*
G3*
X247898650Y163677700I-171795J265110D01*
G74*
G1*
X248125720Y163345330D01*
X247838650Y163412590D02*
G75*
G3*
X247898650Y163677700I-555690J265110D01*
G74*
G1*
X247944060Y163345330D01*
G04 #@! TO.N,97*
X246871580Y162545330D02*
X247098650Y162877700D01*
X246962405Y162545330D01*
X247053235Y162545330D02*
X247098650Y162877700D01*
X247234890Y162545330D01*
X247242760Y162612590D02*
G75*
G2*
X247098650Y162877700I171795J265110D01*
G74*
G1*
X247144060Y162545330D01*
X247038650Y162612590D02*
G75*
G3*
X247098650Y162877700I-555690J265110D01*
G74*
G1*
X247325720Y162545330D01*
X247158650Y162612590D02*
G75*
G2*
X247098650Y162877700I555690J265110D01*
G74*
G75*
G2*
X246954540Y162612590I-315905J0D01*
G74*
G1*
X246154540Y163412590D02*
G75*
G3*
X246298650Y163677700I-171795J265110D01*
G74*
G75*
G2*
X246238650Y163412590I-615690J0D01*
G74*
G1*
X246442760Y163412590D02*
G75*
G2*
X246298650Y163677700I171795J265110D01*
G74*
G04 #@! TO.N,109*
G1*
X246162405Y163345330D01*
X246253235Y163345330D02*
X246298650Y163677700D01*
X246525720Y163345330D01*
X246434890Y163345330D02*
X246298650Y163677700D01*
G75*
G3*
X246358650Y163412590I615690J0D01*
G74*
G1*
X246344060Y163345330D02*
X246298650Y163677700D01*
X246071580Y163345330D01*
G04 #@! TO.N,107*
X245544060Y162545330D02*
X245498650Y162877700D01*
X245271580Y162545330D01*
X245558650Y162612590D02*
G75*
G2*
X245498650Y162877700I555690J265110D01*
G74*
G75*
G3*
X245642760Y162612590I315905J0D01*
G74*
G1*
X245453235Y162545330D02*
X245498650Y162877700D01*
X245634890Y162545330D01*
X245354540Y162612590D02*
G75*
G3*
X245498650Y162877700I-171795J265110D01*
G74*
G1*
X245362405Y162545330D01*
X245438650Y162612590D02*
G75*
G3*
X245498650Y162877700I-555690J265110D01*
G74*
G1*
X245725720Y162545330D01*
G04 #@! TO.N,105*
X244925720Y163345330D02*
X244698650Y163677700D01*
X244471580Y163345330D01*
X244562405Y163345330D02*
X244698650Y163677700D01*
X244653235Y163345330D01*
X244744060Y163345330D02*
X244698650Y163677700D01*
G75*
G2*
X244554540Y163412590I-315905J0D01*
G74*
G1*
X244758650Y163412590D02*
G75*
G2*
X244698650Y163677700I555690J265110D01*
G74*
G75*
G2*
X244638650Y163412590I-615690J0D01*
G74*
G1*
X244842760Y163412590D02*
G75*
G2*
X244698650Y163677700I171795J265110D01*
G74*
G1*
X244834890Y163345330D01*
G04 #@! TO.N,118*
X243853235Y162545330D02*
X243898650Y162877700D01*
G75*
G3*
X243958650Y162612590I615690J0D01*
G74*
G1*
X243754540Y162612590D02*
G75*
G3*
X243898650Y162877700I-171795J265110D01*
G74*
G1*
X244125720Y162545330D01*
X243762405Y162545330D02*
X243898650Y162877700D01*
X244034890Y162545330D01*
X243838650Y162612590D02*
G75*
G3*
X243898650Y162877700I-555690J265110D01*
G74*
G75*
G3*
X244042760Y162612590I315905J0D01*
G74*
G1*
X243944060Y162545330D02*
X243898650Y162877700D01*
X243671580Y162545330D01*
X242954540Y163412590D02*
G75*
G3*
X243098650Y163677700I-171795J265110D01*
G74*
G04 #@! TO.N,116*
G1*
X243234890Y163345330D01*
X243038650Y163412590D02*
G75*
G3*
X243098650Y163677700I-555690J265110D01*
G74*
G1*
X243144060Y163345330D01*
X243242760Y163412590D02*
G75*
G2*
X243098650Y163677700I171795J265110D01*
G74*
G1*
X243053235Y163345330D01*
X243158650Y163412590D02*
G75*
G2*
X243098650Y163677700I555690J265110D01*
G74*
G1*
X243325720Y163345330D01*
X242962405Y163345330D02*
X243098650Y163677700D01*
X242871580Y163345330D01*
G04 #@! TO.N,129*
X242434890Y162545330D02*
X242298650Y162877700D01*
X242525720Y162545330D01*
X242344060Y162545330D02*
X242298650Y162877700D01*
G75*
G2*
X242238650Y162612590I-615690J0D01*
G74*
G1*
X242154540Y162612590D02*
G75*
G3*
X242298650Y162877700I-171795J265110D01*
G74*
G75*
G3*
X242442760Y162612590I315905J0D01*
G74*
G1*
X242071580Y162545330D02*
X242298650Y162877700D01*
X242253235Y162545330D01*
X242162405Y162545330D02*
X242298650Y162877700D01*
G75*
G3*
X242358650Y162612590I615690J0D01*
G74*
G1*
X241438650Y163412590D02*
G75*
G3*
X241498650Y163677700I-555690J265110D01*
G74*
G75*
G3*
X241558650Y163412590I615690J0D01*
G74*
G04 #@! TO.N,127*
G1*
X241725720Y163345330D02*
X241498650Y163677700D01*
G75*
G3*
X241642760Y163412590I315905J0D01*
G74*
G1*
X241634890Y163345330D02*
X241498650Y163677700D01*
G75*
G2*
X241354540Y163412590I-315905J0D01*
G74*
G04 #@! TO.N,125*
G1*
X240834890Y162545330D02*
X240698650Y162877700D01*
X240925720Y162545330D01*
X240842760Y162612590D02*
G75*
G2*
X240698650Y162877700I171795J265110D01*
G74*
G1*
X240471580Y162545330D01*
X240562405Y162545330D02*
X240698650Y162877700D01*
G75*
G2*
X240638650Y162612590I-615690J0D01*
G74*
G1*
X240554540Y162612590D02*
G75*
G3*
X240698650Y162877700I-171795J265110D01*
G74*
G75*
G3*
X240758650Y162612590I615690J0D01*
G74*
G1*
X240744060Y162545330D02*
X240698650Y162877700D01*
X240653235Y162545330D01*
G04 #@! TO.N,90*
X234850000Y112989995D02*
X235450000Y113589995D01*
X238450000D01*
X238700000Y113839995D01*
Y120416210D01*
X239200000Y120916210D01*
X256400000D01*
X256900000Y121416210D01*
Y165090150D01*
X256400000Y165590150D01*
X250798650D01*
X250298650Y165090150D01*
Y163990200D01*
Y162390200D01*
G04 #@! TO.N,88*
X236850000Y112989995D02*
X237250000Y113389995D01*
X238650000D01*
X238900000Y113639995D01*
Y120216210D01*
X239400000Y120716210D01*
X256600000D01*
X257100000Y121216210D01*
Y165290150D01*
X256600000Y165790150D01*
X249998650D01*
X249498650Y165290150D01*
Y163990200D01*
Y163190200D01*
G04 #@! TO.N,66*
X233850000Y113989995D02*
X234450000Y114589995D01*
X237850000D01*
X238100000Y114839995D01*
Y121016210D01*
X238600000Y121516210D01*
X255800000D01*
X256300000Y122016210D01*
Y164490150D01*
X255800000Y164990150D01*
X253198650D01*
X252698650Y164490150D01*
Y163990200D01*
Y163190200D01*
G04 #@! TO.N,79*
X235850000Y113989995D02*
X236250000Y114389995D01*
X238050000D01*
X238300000Y114639995D01*
Y120816210D01*
X238800000Y121316210D01*
X256000000D01*
X256500000Y121816210D01*
Y164690150D01*
X256000000Y165190150D01*
X252398650D01*
X251898650Y164690150D01*
Y163990200D01*
Y162390200D01*
G04 #@! TO.N,109*
X234850000Y110989995D02*
X235450000Y111589995D01*
X256900000D01*
X257900000Y112589995D01*
Y166090150D01*
X257400000Y166590150D01*
X246798650D01*
X246298650Y166090150D01*
Y163990200D01*
Y163190200D01*
G04 #@! TO.N,107*
X236850000Y110989995D02*
X237250000Y111389995D01*
X257100000D01*
X258100000Y112389995D01*
Y166290150D01*
X257600000Y166790150D01*
X245998650D01*
X245498650Y166290150D01*
Y163990200D01*
Y162390200D01*
G04 #@! TO.N,86*
X233850000Y111989995D02*
X234450000Y112589995D01*
X238850000D01*
X239100000Y112839995D01*
Y120016210D01*
X239600000Y120516210D01*
X256800000D01*
X257300000Y121016210D01*
Y165490150D01*
X256800000Y165990150D01*
X249198650D01*
X248698650Y165490150D01*
Y163990200D01*
Y162390200D01*
G04 #@! TO.N,99*
X235850000Y111989995D02*
X236250000Y112389995D01*
X256500000D01*
X257500000Y113389995D01*
Y165690150D01*
X257000000Y166190150D01*
X248398650D01*
X247898650Y165690150D01*
Y163990200D01*
Y163190200D01*
G04 #@! TO.N,129*
X234850000Y108989995D02*
X235450000Y109589995D01*
X257900000D01*
X258900000Y110589995D01*
Y167090150D01*
X258400000Y167590150D01*
X242798650D01*
X242298650Y167090150D01*
Y163990200D01*
Y162390200D01*
G04 #@! TO.N,127*
X236850000Y108989995D02*
X237250000Y109389995D01*
X258100000D01*
X259100000Y110389995D01*
Y167290150D01*
X258600000Y167790150D01*
X241998650D01*
X241498650Y167290150D01*
Y163990200D01*
Y163190200D01*
G04 #@! TO.N,105*
X233850000Y109989995D02*
X234450000Y110589995D01*
X257300000D01*
X258300000Y111589995D01*
Y166490150D01*
X257800000Y166990150D01*
X245198650D01*
X244698650Y166490150D01*
Y163990200D01*
Y163190200D01*
G04 #@! TO.N,118*
X235850000Y109989995D02*
X236250000Y110389995D01*
X257500000D01*
X258500000Y111389995D01*
Y166690150D01*
X258000000Y167190150D01*
X244398650D01*
X243898650Y166690150D01*
Y163990200D01*
Y162390200D01*
G04 #@! TO.N,125*
X233850000Y107989995D02*
X234450000Y108589995D01*
X258300000D01*
X259300000Y109589995D01*
Y167490150D01*
X258800000Y167990150D01*
X241198650D01*
X240698650Y167490150D01*
Y163990200D01*
Y162390200D01*
G04 #@! TO.N,77*
X237850000Y113989995D02*
X238250000D01*
X238500000Y114239995D01*
Y120616210D01*
X239000000Y121116210D01*
X256200000D01*
X256700000Y121616210D01*
Y164890150D01*
X256200000Y165390150D01*
X251598650D01*
X251098650Y164890150D01*
Y163990200D01*
Y163190200D01*
G04 #@! TO.N,97*
X237850000Y111989995D02*
X256700000D01*
X257700000Y112989995D01*
Y165890150D01*
X257200000Y166390150D01*
X247598650D01*
X247098650Y165890150D01*
Y163990200D01*
Y162390200D01*
G04 #@! TO.N,116*
X237850000Y109989995D02*
X257700000D01*
X258700000Y110989995D01*
Y166890150D01*
X258200000Y167390150D01*
X243598650D01*
X243098650Y166890150D01*
Y163990200D01*
Y163190200D01*
G04 #@! TO.N,10*
X229850000Y107989995D02*
X229450000Y108389995D01*
X224000000D01*
X223500000Y108889995D01*
Y129490050D01*
X224000000Y129990050D01*
X240198650D01*
X240698650Y129490050D01*
Y128190100D01*
G04 #@! TO.N,24*
X232850000Y102989995D02*
X232250000Y103589995D01*
X222800000D01*
X222300000Y104089995D01*
Y130690050D01*
X222800000Y131190050D01*
X244998650D01*
X245498650Y130690050D01*
Y128190100D01*
G04 #@! TO.N,22*
X230850000Y102989995D02*
X230450000Y103389995D01*
X222600000D01*
X222100000Y103889995D01*
Y130890050D01*
X222600000Y131390050D01*
X245798650D01*
X246298650Y130890050D01*
Y127390100D01*
G04 #@! TO.N,33*
X231850000Y101989995D02*
X231250000Y102589995D01*
X222200000D01*
X221700000Y103089995D01*
Y131290050D01*
X222200000Y131790050D01*
X247398650D01*
X247898650Y131290050D01*
Y127390100D01*
G04 #@! TO.N,31*
X229850000Y101989995D02*
X229450000Y102389995D01*
X222000000D01*
X221500000Y102889995D01*
Y131490050D01*
X222000000Y131990050D01*
X248198650D01*
X248698650Y131490050D01*
Y128190100D01*
G04 #@! TO.N,44*
X232850000Y100989995D02*
X232250000Y101589995D01*
X221800000D01*
X221300000Y102089995D01*
Y131690050D01*
X221800000Y132190050D01*
X248998650D01*
X249498650Y131690050D01*
Y127390100D01*
G04 #@! TO.N,42*
X230850000Y100989995D02*
X230450000Y101389995D01*
X221600000D01*
X221100000Y101889995D01*
Y131890050D01*
X221600000Y132390050D01*
X249798650D01*
X250298650Y131890050D01*
Y128190100D01*
G04 #@! TO.N,53*
X231850000Y99989995D02*
X231250000Y100589995D01*
X221200000D01*
X220700000Y101089995D01*
Y132290050D01*
X221200000Y132790050D01*
X251398650D01*
X251898650Y132290050D01*
Y128190100D01*
G04 #@! TO.N,51*
X229850000Y99989995D02*
X229450000Y100389995D01*
X221000000D01*
X220500000Y100889995D01*
Y132490050D01*
X221000000Y132990050D01*
X252198650D01*
X252698650Y132490050D01*
Y127390100D01*
G04 #@! TO.N,4*
X232850000Y106989995D02*
X232250000Y107589995D01*
X223800000D01*
X223300000Y108089995D01*
Y129690050D01*
X223800000Y130190050D01*
X240998650D01*
X241498650Y129690050D01*
Y127390100D01*
G04 #@! TO.N,13*
X231850000Y105989995D02*
X231250000Y106589995D01*
X227341820D01*
X227141820Y106789995D01*
X223200000D01*
X222700000Y107289995D01*
Y130290050D01*
X223200000Y130790050D01*
X243398650D01*
X243898650Y130290050D01*
Y128190100D01*
G04 #@! TO.N,11*
X229850000Y105989995D02*
X229450000Y106389995D01*
X227141820D01*
X226941820Y106589995D01*
X223000000D01*
X222500000Y107089995D01*
Y130490050D01*
X223000000Y130990050D01*
X244198650D01*
X244698650Y130490050D01*
Y127390100D01*
G04 #@! TO.N,2*
X230850000Y106989995D02*
X230450000Y107389995D01*
X223600000D01*
X223100000Y107889995D01*
Y129890050D01*
X223600000Y130390050D01*
X241798650D01*
X242298650Y129890050D01*
Y128190100D01*
G04 #@! TO.N,15*
X228850000Y106989995D02*
X223400000D01*
X222900000Y107489995D01*
Y130090050D01*
X223400000Y130590050D01*
X242598650D01*
X243098650Y130090050D01*
Y127390100D01*
G04 #@! TO.N,35*
X228850000Y102989995D02*
X222400000D01*
X221900000Y103489995D01*
Y131090050D01*
X222400000Y131590050D01*
X246598650D01*
X247098650Y131090050D01*
Y128190100D01*
G04 #@! TO.N,55*
X228850000Y100989995D02*
X221400000D01*
X220900000Y101489995D01*
Y132090050D01*
X221400000Y132590050D01*
X250598650D01*
X251098650Y132090050D01*
Y127390100D01*
G04 #@! TO.N,8*
D11*
X239098650Y163190200D03*
G04 #@! TO.N,6*
X238298650Y162390200D03*
G04 #@! TO.N,19*
X237498650Y163190200D03*
G04 #@! TO.N,17*
X236698650Y162390200D03*
G04 #@! TO.N,30*
X235898650Y163190200D03*
G04 #@! TO.N,28*
X235098650Y162390200D03*
G04 #@! TO.N,26*
X234298650Y163190200D03*
G04 #@! TO.N,39*
X233498650Y162390200D03*
G04 #@! TO.N,37*
X232698650Y163190200D03*
G04 #@! TO.N,50*
X231898650Y162390200D03*
G04 #@! TO.N,48*
X231098650Y163190200D03*
G04 #@! TO.N,46*
X230298650Y162390200D03*
G04 #@! TO.N,59*
X229498650Y163190200D03*
G04 #@! TO.N,57*
X228698650Y162390200D03*
G04 #@! TO.N,70*
X227898650Y163190200D03*
G04 #@! TO.N,68*
X227098650Y162390200D03*
G04 #@! TO.N,67*
X239098650Y171190200D03*
G04 #@! TO.N,80*
X238298650Y170390200D03*
G04 #@! TO.N,78*
X237498650Y171190200D03*
G04 #@! TO.N,76*
X236698650Y170390200D03*
G04 #@! TO.N,89*
X235898650Y171190200D03*
G04 #@! TO.N,87*
X235098650Y170390200D03*
G04 #@! TO.N,100*
X234298650Y171190200D03*
G04 #@! TO.N,98*
X233498650Y170390200D03*
G04 #@! TO.N,96*
X232698650Y171190200D03*
G04 #@! TO.N,108*
X231898650Y170390200D03*
G04 #@! TO.N,106*
X231098650Y171190200D03*
G04 #@! TO.N,119*
X230298650Y170390200D03*
G04 #@! TO.N,117*
X229498650Y171190200D03*
G04 #@! TO.N,115*
X228698650Y170390200D03*
G04 #@! TO.N,128*
X227898650Y171190200D03*
G04 #@! TO.N,126*
X227098650Y170390200D03*
G04 #@! TO.N,66*
X252698650Y163190200D03*
G04 #@! TO.N,79*
X251898650Y162390200D03*
G04 #@! TO.N,77*
X251098650Y163190200D03*
G04 #@! TO.N,90*
X250298650Y162390200D03*
G04 #@! TO.N,88*
X249498650Y163190200D03*
G04 #@! TO.N,86*
X248698650Y162390200D03*
G04 #@! TO.N,99*
X247898650Y163190200D03*
G04 #@! TO.N,97*
X247098650Y162390200D03*
G04 #@! TO.N,109*
X246298650Y163190200D03*
G04 #@! TO.N,107*
X245498650Y162390200D03*
G04 #@! TO.N,105*
X244698650Y163190200D03*
G04 #@! TO.N,118*
X243898650Y162390200D03*
G04 #@! TO.N,116*
X243098650Y163190200D03*
G04 #@! TO.N,129*
X242298650Y162390200D03*
G04 #@! TO.N,127*
X241498650Y163190200D03*
G04 #@! TO.N,125*
X240698650Y162390200D03*
G04 #@! TO.N,9*
X252698650Y171190200D03*
G04 #@! TO.N,7*
X251898650Y170390200D03*
G04 #@! TO.N,20*
X251098650Y171190200D03*
G04 #@! TO.N,18*
X250298650Y170390200D03*
G04 #@! TO.N,16*
X249498650Y171190200D03*
G04 #@! TO.N,29*
X248698650Y170390200D03*
G04 #@! TO.N,27*
X247898650Y171190200D03*
G04 #@! TO.N,40*
X247098650Y170390200D03*
G04 #@! TO.N,38*
X246298650Y171190200D03*
G04 #@! TO.N,36*
X245498650Y170390200D03*
G04 #@! TO.N,49*
X244698650Y171190200D03*
G04 #@! TO.N,47*
X243898650Y170390200D03*
G04 #@! TO.N,60*
X243098650Y171190200D03*
G04 #@! TO.N,58*
X242298650Y170390200D03*
G04 #@! TO.N,56*
X241498650Y171190200D03*
G04 #@! TO.N,69*
X240698650Y170390200D03*
G04 #@! TO.N,10*
Y128190100D03*
G04 #@! TO.N,4*
X241498650Y127390100D03*
G04 #@! TO.N,2*
X242298650Y128190100D03*
G04 #@! TO.N,15*
X243098650Y127390100D03*
G04 #@! TO.N,13*
X243898650Y128190100D03*
G04 #@! TO.N,11*
X244698650Y127390100D03*
G04 #@! TO.N,24*
X245498650Y128190100D03*
G04 #@! TO.N,22*
X246298650Y127390100D03*
G04 #@! TO.N,35*
X247098650Y128190100D03*
G04 #@! TO.N,33*
X247898650Y127390100D03*
G04 #@! TO.N,31*
X248698650Y128190100D03*
G04 #@! TO.N,44*
X249498650Y127390100D03*
G04 #@! TO.N,42*
X250298650Y128190100D03*
G04 #@! TO.N,55*
X251098650Y127390100D03*
G04 #@! TO.N,53*
X251898650Y128190100D03*
G04 #@! TO.N,64*
X227098650D03*
G04 #@! TO.N,62*
X227898650Y127390100D03*
G04 #@! TO.N,75*
X228698650Y128190100D03*
G04 #@! TO.N,73*
X229498650Y127390100D03*
G04 #@! TO.N,71*
X230298650Y128190100D03*
G04 #@! TO.N,84*
X231098650Y127390100D03*
G04 #@! TO.N,82*
X231898650Y128190100D03*
G04 #@! TO.N,95*
X232698650Y127390100D03*
G04 #@! TO.N,93*
X233498650Y128190100D03*
G04 #@! TO.N,104*
X234298650Y127390100D03*
G04 #@! TO.N,102*
X235098650Y128190100D03*
G04 #@! TO.N,114*
X235898650Y127390100D03*
G04 #@! TO.N,112*
X236698650Y128190100D03*
G04 #@! TO.N,110*
X237498650Y127390100D03*
G04 #@! TO.N,123*
X238298650Y128190100D03*
G04 #@! TO.N,121*
X239098650Y127390100D03*
G04 #@! TO.N,51*
X252698650D03*
G04 #@! TO.N,120*
Y141290100D03*
G04 #@! TO.N,122*
X251898650Y140490100D03*
G04 #@! TO.N,124*
X251098650Y141290100D03*
G04 #@! TO.N,111*
X250298650Y140490100D03*
G04 #@! TO.N,113*
X249498650Y141290100D03*
G04 #@! TO.N,101*
X248698650Y140490100D03*
G04 #@! TO.N,103*
X247898650Y141290100D03*
G04 #@! TO.N,92*
X247098650Y140490100D03*
G04 #@! TO.N,94*
X246298650Y141290100D03*
G04 #@! TO.N,81*
X245498650Y140490100D03*
G04 #@! TO.N,83*
X244698650Y141290100D03*
G04 #@! TO.N,85*
X243898650Y140490100D03*
G04 #@! TO.N,72*
X243098650Y141290100D03*
G04 #@! TO.N,74*
X242298650Y140490100D03*
G04 #@! TO.N,61*
X241498650Y141290100D03*
G04 #@! TO.N,63*
X240698650Y140490100D03*
G04 #@! TO.N,65*
X239098650Y141290100D03*
G04 #@! TO.N,52*
X238298650Y140490100D03*
G04 #@! TO.N,54*
X237498650Y141290100D03*
G04 #@! TO.N,41*
X236698650Y140490100D03*
G04 #@! TO.N,43*
X235898650Y141290100D03*
G04 #@! TO.N,45*
X235098650Y140490100D03*
G04 #@! TO.N,32*
X234298650Y141290100D03*
G04 #@! TO.N,34*
X233498650Y140490100D03*
G04 #@! TO.N,21*
X232698650Y141290100D03*
G04 #@! TO.N,23*
X231898650Y140490100D03*
G04 #@! TO.N,25*
X231098650Y141290100D03*
G04 #@! TO.N,12*
X230298650Y140490100D03*
G04 #@! TO.N,14*
X229498650Y141290100D03*
G04 #@! TO.N,1*
X228698650Y140490100D03*
G04 #@! TO.N,3*
X227898650Y141290100D03*
G04 #@! TO.N,5*
X227098650Y140490100D03*
G04 #@! TO.N,91*
D12*
X237850000Y104989995D02*
X228850000D01*
X237850000Y93989995D02*
X228850000D01*
X237850000Y94989995D02*
X228850000D01*
X237850000Y103989995D02*
X228850000D01*
X233850000Y104989995D02*
Y101989995D01*
X233850000Y96989995D02*
Y93989995D01*
G04 #@! TO.N,1*
D13*
X237850000Y84989995D03*
G04 #@! TO.N,2*
X236850000D03*
G04 #@! TO.N,3*
X235850000D03*
G04 #@! TO.N,4*
X234850000D03*
G04 #@! TO.N,5*
X233850000D03*
G04 #@! TO.N,6*
X232850000D03*
G04 #@! TO.N,7*
X231850000D03*
G04 #@! TO.N,8*
X230850000D03*
G04 #@! TO.N,9*
X229850000D03*
G04 #@! TO.N,10*
X228850000D03*
G04 #@! TO.N,11*
X237850000Y85989995D03*
G04 #@! TO.N,12*
X236850000D03*
G04 #@! TO.N,13*
X235850000D03*
G04 #@! TO.N,14*
X234850000D03*
G04 #@! TO.N,15*
X233850000D03*
G04 #@! TO.N,16*
X232850000D03*
G04 #@! TO.N,17*
X231850000D03*
G04 #@! TO.N,18*
X230850000D03*
G04 #@! TO.N,19*
X229850000D03*
G04 #@! TO.N,20*
X228850000D03*
G04 #@! TO.N,21*
X237850000Y86989995D03*
G04 #@! TO.N,22*
X236850000D03*
G04 #@! TO.N,23*
X235850000D03*
G04 #@! TO.N,24*
X234850000D03*
G04 #@! TO.N,25*
X233850000D03*
G04 #@! TO.N,26*
X232850000D03*
G04 #@! TO.N,27*
X231850000D03*
G04 #@! TO.N,28*
X230850000D03*
G04 #@! TO.N,29*
X229850000D03*
G04 #@! TO.N,30*
X228850000D03*
G04 #@! TO.N,31*
X237850000Y87989995D03*
G04 #@! TO.N,32*
X236850000D03*
G04 #@! TO.N,33*
X235850000D03*
G04 #@! TO.N,34*
X234850000D03*
G04 #@! TO.N,35*
X233850000D03*
G04 #@! TO.N,36*
X232850000D03*
G04 #@! TO.N,37*
X231850000D03*
G04 #@! TO.N,38*
X230850000D03*
G04 #@! TO.N,39*
X229850000D03*
G04 #@! TO.N,40*
X228850000D03*
G04 #@! TO.N,41*
X237850000Y88989995D03*
G04 #@! TO.N,42*
X236850000D03*
G04 #@! TO.N,43*
X235850000D03*
G04 #@! TO.N,44*
X234850000D03*
G04 #@! TO.N,45*
X233850000D03*
G04 #@! TO.N,46*
X232850000D03*
G04 #@! TO.N,47*
X231850000D03*
G04 #@! TO.N,48*
X230850000D03*
G04 #@! TO.N,49*
X229850000D03*
G04 #@! TO.N,50*
X228850000D03*
G04 #@! TO.N,51*
X237850000Y89989995D03*
G04 #@! TO.N,52*
X236850000D03*
G04 #@! TO.N,53*
X235850000D03*
G04 #@! TO.N,54*
X234850000D03*
G04 #@! TO.N,55*
X233850000D03*
G04 #@! TO.N,56*
X232850000D03*
G04 #@! TO.N,57*
X231850000D03*
G04 #@! TO.N,58*
X230850000D03*
G04 #@! TO.N,59*
X229850000D03*
G04 #@! TO.N,60*
X228850000D03*
G04 #@! TO.N,61*
X237850000Y90989995D03*
G04 #@! TO.N,62*
X236850000D03*
G04 #@! TO.N,63*
X235850000D03*
G04 #@! TO.N,64*
X234850000D03*
G04 #@! TO.N,65*
X233850000D03*
G04 #@! TO.N,66*
X232850000D03*
G04 #@! TO.N,67*
X231850000D03*
G04 #@! TO.N,68*
X230850000D03*
G04 #@! TO.N,69*
X229850000D03*
G04 #@! TO.N,70*
X228850000D03*
G04 #@! TO.N,71*
X237850000Y91989995D03*
G04 #@! TO.N,72*
X236850000D03*
G04 #@! TO.N,73*
X235850000D03*
G04 #@! TO.N,74*
X234850000D03*
G04 #@! TO.N,75*
X233850000D03*
G04 #@! TO.N,76*
X232850000D03*
G04 #@! TO.N,77*
X231850000D03*
G04 #@! TO.N,78*
X230850000D03*
G04 #@! TO.N,79*
X229850000D03*
G04 #@! TO.N,80*
X228850000D03*
G04 #@! TO.N,81*
X237850000Y92989995D03*
G04 #@! TO.N,82*
X236850000D03*
G04 #@! TO.N,83*
X235850000D03*
G04 #@! TO.N,84*
X234850000D03*
G04 #@! TO.N,85*
X233850000D03*
G04 #@! TO.N,86*
X232850000D03*
G04 #@! TO.N,87*
X231850000D03*
G04 #@! TO.N,88*
X230850000D03*
G04 #@! TO.N,89*
X229850000D03*
G04 #@! TO.N,90*
X228850000D03*
G04 #@! TO.N,91*
X237850000Y93989995D03*
X236850000D03*
X235850000D03*
X234850000D03*
X233850000D03*
X232850000D03*
X231850000D03*
X230850000D03*
X229850000D03*
X228850000D03*
X237850000Y94989995D03*
X236850000D03*
X235850000D03*
X234850000D03*
X233850000D03*
X232850000D03*
X231850000D03*
X230850000D03*
X229850000D03*
X228850000D03*
G04 #@! TO.N,92*
X237850000Y95989995D03*
G04 #@! TO.N,93*
X236850000D03*
G04 #@! TO.N,94*
X235850000D03*
G04 #@! TO.N,95*
X234850000D03*
G04 #@! TO.N,91*
X233850000D03*
G04 #@! TO.N,96*
X232850000D03*
G04 #@! TO.N,97*
X231850000D03*
G04 #@! TO.N,98*
X230850000D03*
G04 #@! TO.N,99*
X229850000D03*
G04 #@! TO.N,100*
X228850000D03*
G04 #@! TO.N,101*
X237850000Y96989995D03*
G04 #@! TO.N,102*
X236850000D03*
G04 #@! TO.N,103*
X235850000D03*
G04 #@! TO.N,104*
X234850000D03*
G04 #@! TO.N,91*
X233850000D03*
G04 #@! TO.N,105*
X232850000D03*
G04 #@! TO.N,106*
X231850000D03*
G04 #@! TO.N,107*
X230850000D03*
G04 #@! TO.N,108*
X229850000D03*
G04 #@! TO.N,109*
X228850000D03*
G04 #@! TO.N,110*
X237850000Y97989995D03*
G04 #@! TO.N,111*
X236850000D03*
G04 #@! TO.N,112*
X235850000D03*
G04 #@! TO.N,113*
X234850000D03*
G04 #@! TO.N,114*
X233850000D03*
G04 #@! TO.N,115*
X232850000D03*
G04 #@! TO.N,116*
X231850000D03*
G04 #@! TO.N,117*
X230850000D03*
G04 #@! TO.N,118*
X229850000D03*
G04 #@! TO.N,119*
X228850000D03*
G04 #@! TO.N,120*
X237850000Y98989995D03*
G04 #@! TO.N,121*
X236850000D03*
G04 #@! TO.N,122*
X235850000D03*
G04 #@! TO.N,123*
X234850000D03*
G04 #@! TO.N,124*
X233850000D03*
G04 #@! TO.N,125*
X232850000D03*
G04 #@! TO.N,126*
X231850000D03*
G04 #@! TO.N,127*
X230850000D03*
G04 #@! TO.N,128*
X229850000D03*
G04 #@! TO.N,129*
X228850000D03*
G04 #@! TO.N,68*
X237850000Y99989995D03*
G04 #@! TO.N,126*
X236850000D03*
G04 #@! TO.N,70*
X235850000D03*
G04 #@! TO.N,128*
X234850000D03*
G04 #@! TO.N,57*
X233850000D03*
G04 #@! TO.N,124*
X232850000D03*
G04 #@! TO.N,53*
X231850000D03*
G04 #@! TO.N,122*
X230850000D03*
G04 #@! TO.N,51*
X229850000D03*
G04 #@! TO.N,120*
X228850000D03*
G04 #@! TO.N,115*
X237850000Y100989995D03*
G04 #@! TO.N,59*
X236850000D03*
G04 #@! TO.N,117*
X235850000D03*
G04 #@! TO.N,46*
X234850000D03*
G04 #@! TO.N,119*
X233850000D03*
G04 #@! TO.N,44*
X232850000D03*
G04 #@! TO.N,113*
X231850000D03*
G04 #@! TO.N,42*
X230850000D03*
G04 #@! TO.N,111*
X229850000D03*
G04 #@! TO.N,55*
X228850000D03*
G04 #@! TO.N,48*
X237850000Y101989995D03*
G04 #@! TO.N,106*
X236850000D03*
G04 #@! TO.N,50*
X235850000D03*
G04 #@! TO.N,108*
X234850000D03*
G04 #@! TO.N,91*
X233850000D03*
G04 #@! TO.N,92*
X232850000D03*
G04 #@! TO.N,33*
X231850000D03*
G04 #@! TO.N,103*
X230850000D03*
G04 #@! TO.N,31*
X229850000D03*
G04 #@! TO.N,101*
X228850000D03*
G04 #@! TO.N,37*
X237850000Y102989995D03*
G04 #@! TO.N,96*
X236850000D03*
G04 #@! TO.N,39*
X235850000D03*
G04 #@! TO.N,98*
X234850000D03*
G04 #@! TO.N,91*
X233850000D03*
G04 #@! TO.N,24*
X232850000D03*
G04 #@! TO.N,81*
X231850000D03*
G04 #@! TO.N,22*
X230850000D03*
G04 #@! TO.N,94*
X229850000D03*
G04 #@! TO.N,35*
X228850000D03*
G04 #@! TO.N,91*
X237850000Y103989995D03*
X236850000D03*
X235850000D03*
X234850000D03*
X233850000D03*
X232850000D03*
X231850000D03*
X230850000D03*
X229850000D03*
X228850000D03*
X237850000Y104989995D03*
X236850000D03*
X235850000D03*
X234850000D03*
X233850000D03*
X232850000D03*
X231850000D03*
X230850000D03*
X229850000D03*
X228850000D03*
G04 #@! TO.N,26*
X237850000Y105989995D03*
G04 #@! TO.N,100*
X236850000D03*
G04 #@! TO.N,28*
X235850000D03*
G04 #@! TO.N,87*
X234850000D03*
G04 #@! TO.N,30*
X233850000D03*
G04 #@! TO.N,72*
X232850000D03*
G04 #@! TO.N,13*
X231850000D03*
G04 #@! TO.N,85*
X230850000D03*
G04 #@! TO.N,11*
X229850000D03*
G04 #@! TO.N,83*
X228850000D03*
G04 #@! TO.N,89*
X237850000Y106989995D03*
G04 #@! TO.N,17*
X236850000D03*
G04 #@! TO.N,76*
X235850000D03*
G04 #@! TO.N,19*
X234850000D03*
G04 #@! TO.N,78*
X233850000D03*
G04 #@! TO.N,4*
X232850000D03*
G04 #@! TO.N,61*
X231850000D03*
G04 #@! TO.N,2*
X230850000D03*
G04 #@! TO.N,74*
X229850000D03*
G04 #@! TO.N,15*
X228850000D03*
G04 #@! TO.N,6*
X237850000Y107989995D03*
G04 #@! TO.N,80*
X236850000D03*
G04 #@! TO.N,8*
X235850000D03*
G04 #@! TO.N,67*
X234850000D03*
G04 #@! TO.N,125*
X233850000D03*
G04 #@! TO.N,52*
X232850000D03*
G04 #@! TO.N,121*
X231850000D03*
G04 #@! TO.N,65*
X230850000D03*
G04 #@! TO.N,10*
X229850000D03*
G04 #@! TO.N,63*
X228850000D03*
G04 #@! TO.N,69*
X237850000Y108989995D03*
G04 #@! TO.N,127*
X236850000D03*
G04 #@! TO.N,56*
X235850000D03*
G04 #@! TO.N,129*
X234850000D03*
G04 #@! TO.N,58*
X233850000D03*
G04 #@! TO.N,112*
X232850000D03*
G04 #@! TO.N,41*
X231850000D03*
G04 #@! TO.N,110*
X230850000D03*
G04 #@! TO.N,54*
X229850000D03*
G04 #@! TO.N,123*
X228850000D03*
G04 #@! TO.N,116*
X237850000Y109989995D03*
G04 #@! TO.N,60*
X236850000D03*
G04 #@! TO.N,118*
X235850000D03*
G04 #@! TO.N,47*
X234850000D03*
G04 #@! TO.N,105*
X233850000D03*
G04 #@! TO.N,32*
X232850000D03*
G04 #@! TO.N,102*
X231850000D03*
G04 #@! TO.N,45*
X230850000D03*
G04 #@! TO.N,114*
X229850000D03*
G04 #@! TO.N,43*
X228850000D03*
G04 #@! TO.N,49*
X237850000Y110989995D03*
G04 #@! TO.N,107*
X236850000D03*
G04 #@! TO.N,36*
X235850000D03*
G04 #@! TO.N,109*
X234850000D03*
G04 #@! TO.N,38*
X233850000D03*
G04 #@! TO.N,95*
X232850000D03*
G04 #@! TO.N,21*
X231850000D03*
G04 #@! TO.N,93*
X230850000D03*
G04 #@! TO.N,34*
X229850000D03*
G04 #@! TO.N,104*
X228850000D03*
G04 #@! TO.N,97*
X237850000Y111989995D03*
G04 #@! TO.N,40*
X236850000D03*
G04 #@! TO.N,99*
X235850000D03*
G04 #@! TO.N,27*
X234850000D03*
G04 #@! TO.N,86*
X233850000D03*
G04 #@! TO.N,12*
X232850000D03*
G04 #@! TO.N,84*
X231850000D03*
G04 #@! TO.N,25*
X230850000D03*
G04 #@! TO.N,82*
X229850000D03*
G04 #@! TO.N,23*
X228850000D03*
G04 #@! TO.N,29*
X237850000Y112989995D03*
G04 #@! TO.N,88*
X236850000D03*
G04 #@! TO.N,16*
X235850000D03*
G04 #@! TO.N,90*
X234850000D03*
G04 #@! TO.N,18*
X233850000D03*
G04 #@! TO.N,75*
X232850000D03*
G04 #@! TO.N,1*
X231850000D03*
G04 #@! TO.N,73*
X230850000D03*
G04 #@! TO.N,14*
X229850000D03*
G04 #@! TO.N,71*
X228850000D03*
G04 #@! TO.N,77*
X237850000Y113989995D03*
G04 #@! TO.N,20*
X236850000D03*
G04 #@! TO.N,79*
X235850000D03*
G04 #@! TO.N,7*
X234850000D03*
G04 #@! TO.N,66*
X233850000D03*
G04 #@! TO.N,9*
X232850000D03*
G04 #@! TO.N,64*
X231850000D03*
G04 #@! TO.N,5*
X230850000D03*
G04 #@! TO.N,62*
X229850000D03*
G04 #@! TO.N,3*
X228850000D03*
G04 #@! TO.N,1*
D14*
X237550000Y84989995D03*
G04 #@! TO.N,2*
X236550000D03*
G04 #@! TO.N,3*
X235550000D03*
G04 #@! TO.N,4*
X234550000D03*
G04 #@! TO.N,5*
X233550000D03*
G04 #@! TO.N,6*
X232550000D03*
G04 #@! TO.N,7*
X231550000D03*
G04 #@! TO.N,8*
X230550000D03*
G04 #@! TO.N,9*
X229550000D03*
G04 #@! TO.N,10*
X228550000D03*
G04 #@! TO.N,11*
X237550000Y85989995D03*
G04 #@! TO.N,12*
X236550000D03*
G04 #@! TO.N,13*
X235550000D03*
G04 #@! TO.N,14*
X234550000D03*
G04 #@! TO.N,15*
X233550000D03*
G04 #@! TO.N,16*
X232550000D03*
G04 #@! TO.N,17*
X231550000D03*
G04 #@! TO.N,18*
X230550000D03*
G04 #@! TO.N,19*
X229550000D03*
G04 #@! TO.N,20*
X228550000D03*
G04 #@! TO.N,21*
X237550000Y86989995D03*
G04 #@! TO.N,22*
X236550000D03*
G04 #@! TO.N,23*
X235550000D03*
G04 #@! TO.N,24*
X234550000D03*
G04 #@! TO.N,25*
X233550000D03*
G04 #@! TO.N,26*
X232550000D03*
G04 #@! TO.N,27*
X231550000D03*
G04 #@! TO.N,28*
X230550000D03*
G04 #@! TO.N,29*
X229550000D03*
G04 #@! TO.N,30*
X228550000D03*
G04 #@! TO.N,31*
X237550000Y87989995D03*
G04 #@! TO.N,32*
X236550000D03*
G04 #@! TO.N,33*
X235550000D03*
G04 #@! TO.N,34*
X234550000D03*
G04 #@! TO.N,35*
X233550000D03*
G04 #@! TO.N,36*
X232550000D03*
G04 #@! TO.N,37*
X231550000D03*
G04 #@! TO.N,38*
X230550000D03*
G04 #@! TO.N,39*
X229550000D03*
G04 #@! TO.N,40*
X228550000D03*
G04 #@! TO.N,41*
X237550000Y88989995D03*
G04 #@! TO.N,42*
X236550000D03*
G04 #@! TO.N,43*
X235550000D03*
G04 #@! TO.N,44*
X234550000D03*
G04 #@! TO.N,45*
X233550000D03*
G04 #@! TO.N,46*
X232550000D03*
G04 #@! TO.N,47*
X231550000D03*
G04 #@! TO.N,48*
X230550000D03*
G04 #@! TO.N,49*
X229550000D03*
G04 #@! TO.N,50*
X228550000D03*
G04 #@! TO.N,51*
X237550000Y89989995D03*
G04 #@! TO.N,52*
X236550000D03*
G04 #@! TO.N,53*
X235550000D03*
G04 #@! TO.N,54*
X234550000D03*
G04 #@! TO.N,55*
X233550000D03*
G04 #@! TO.N,56*
X232550000D03*
G04 #@! TO.N,57*
X231550000D03*
G04 #@! TO.N,58*
X230550000D03*
G04 #@! TO.N,59*
X229550000D03*
G04 #@! TO.N,60*
X228550000D03*
G04 #@! TO.N,61*
X237550000Y90989995D03*
G04 #@! TO.N,62*
X236550000D03*
G04 #@! TO.N,63*
X235550000D03*
G04 #@! TO.N,64*
X234550000D03*
G04 #@! TO.N,65*
X233550000D03*
G04 #@! TO.N,66*
X232550000D03*
G04 #@! TO.N,67*
X231550000D03*
G04 #@! TO.N,68*
X230550000D03*
G04 #@! TO.N,69*
X229550000D03*
G04 #@! TO.N,70*
X228550000D03*
G04 #@! TO.N,71*
X237550000Y91989995D03*
G04 #@! TO.N,72*
X236550000D03*
G04 #@! TO.N,73*
X235550000D03*
G04 #@! TO.N,74*
X234550000D03*
G04 #@! TO.N,75*
X233550000D03*
G04 #@! TO.N,76*
X232550000D03*
G04 #@! TO.N,77*
X231550000D03*
G04 #@! TO.N,78*
X230550000D03*
G04 #@! TO.N,79*
X229550000D03*
G04 #@! TO.N,80*
X228550000D03*
G04 #@! TO.N,81*
X237550000Y92989995D03*
G04 #@! TO.N,82*
X236550000D03*
G04 #@! TO.N,83*
X235550000D03*
G04 #@! TO.N,84*
X234550000D03*
G04 #@! TO.N,85*
X233550000D03*
G04 #@! TO.N,86*
X232550000D03*
G04 #@! TO.N,87*
X231550000D03*
G04 #@! TO.N,88*
X230550000D03*
G04 #@! TO.N,89*
X229550000D03*
G04 #@! TO.N,90*
X228550000D03*
G04 #@! TO.N,91*
X237550000Y93989995D03*
X236550000D03*
X235550000D03*
X234550000D03*
X233550000D03*
X232550000D03*
X231550000D03*
X230550000D03*
X229550000D03*
X228550000D03*
X237550000Y94989995D03*
X236550000D03*
X235550000D03*
X234550000D03*
X233550000D03*
X232550000D03*
X231550000D03*
X230550000D03*
X229550000D03*
X228550000D03*
G04 #@! TO.N,92*
X237550000Y95989995D03*
G04 #@! TO.N,93*
X236550000D03*
G04 #@! TO.N,94*
X235550000D03*
G04 #@! TO.N,95*
X234550000D03*
G04 #@! TO.N,91*
X233550000D03*
G04 #@! TO.N,96*
X232550000D03*
G04 #@! TO.N,97*
X231550000D03*
G04 #@! TO.N,98*
X230550000D03*
G04 #@! TO.N,99*
X229550000D03*
G04 #@! TO.N,100*
X228550000D03*
G04 #@! TO.N,101*
X237550000Y96989995D03*
G04 #@! TO.N,102*
X236550000D03*
G04 #@! TO.N,103*
X235550000D03*
G04 #@! TO.N,104*
X234550000D03*
G04 #@! TO.N,91*
X233550000D03*
G04 #@! TO.N,105*
X232550000D03*
G04 #@! TO.N,106*
X231550000D03*
G04 #@! TO.N,107*
X230550000D03*
G04 #@! TO.N,108*
X229550000D03*
G04 #@! TO.N,109*
X228550000D03*
G04 #@! TO.N,110*
X237550000Y97989995D03*
G04 #@! TO.N,111*
X236550000D03*
G04 #@! TO.N,112*
X235550000D03*
G04 #@! TO.N,113*
X234550000D03*
G04 #@! TO.N,114*
X233550000D03*
G04 #@! TO.N,115*
X232550000D03*
G04 #@! TO.N,116*
X231550000D03*
G04 #@! TO.N,117*
X230550000D03*
G04 #@! TO.N,118*
X229550000D03*
G04 #@! TO.N,119*
X228550000D03*
G04 #@! TO.N,120*
X237550000Y98989995D03*
G04 #@! TO.N,121*
X236550000D03*
G04 #@! TO.N,122*
X235550000D03*
G04 #@! TO.N,123*
X234550000D03*
G04 #@! TO.N,124*
X233550000D03*
G04 #@! TO.N,125*
X232550000D03*
G04 #@! TO.N,126*
X231550000D03*
G04 #@! TO.N,127*
X230550000D03*
G04 #@! TO.N,128*
X229550000D03*
G04 #@! TO.N,129*
X228550000D03*
G04 #@! TO.N,68*
X237550000Y99989995D03*
G04 #@! TO.N,126*
X236550000D03*
G04 #@! TO.N,70*
X235550000D03*
G04 #@! TO.N,128*
X234550000D03*
G04 #@! TO.N,57*
X233550000D03*
G04 #@! TO.N,124*
X232550000D03*
G04 #@! TO.N,53*
X231550000D03*
G04 #@! TO.N,122*
X230550000D03*
G04 #@! TO.N,51*
X229550000D03*
G04 #@! TO.N,120*
X228550000D03*
G04 #@! TO.N,115*
X237550000Y100989995D03*
G04 #@! TO.N,59*
X236550000D03*
G04 #@! TO.N,117*
X235550000D03*
G04 #@! TO.N,46*
X234550000D03*
G04 #@! TO.N,119*
X233550000D03*
G04 #@! TO.N,44*
X232550000D03*
G04 #@! TO.N,113*
X231550000D03*
G04 #@! TO.N,42*
X230550000D03*
G04 #@! TO.N,111*
X229550000D03*
G04 #@! TO.N,55*
X228550000D03*
G04 #@! TO.N,48*
X237550000Y101989995D03*
G04 #@! TO.N,106*
X236550000D03*
G04 #@! TO.N,50*
X235550000D03*
G04 #@! TO.N,108*
X234550000D03*
G04 #@! TO.N,91*
X233550000D03*
G04 #@! TO.N,92*
X232550000D03*
G04 #@! TO.N,33*
X231550000D03*
G04 #@! TO.N,103*
X230550000D03*
G04 #@! TO.N,31*
X229550000D03*
G04 #@! TO.N,101*
X228550000D03*
G04 #@! TO.N,37*
X237550000Y102989995D03*
G04 #@! TO.N,96*
X236550000D03*
G04 #@! TO.N,39*
X235550000D03*
G04 #@! TO.N,98*
X234550000D03*
G04 #@! TO.N,91*
X233550000D03*
G04 #@! TO.N,24*
X232550000D03*
G04 #@! TO.N,81*
X231550000D03*
G04 #@! TO.N,22*
X230550000D03*
G04 #@! TO.N,94*
X229550000D03*
G04 #@! TO.N,35*
X228550000D03*
G04 #@! TO.N,91*
X237550000Y103989995D03*
X236550000D03*
X235550000D03*
X234550000D03*
X233550000D03*
X232550000D03*
X231550000D03*
X230550000D03*
X229550000D03*
X228550000D03*
X237550000Y104989995D03*
X236550000D03*
X235550000D03*
X234550000D03*
X233550000D03*
X232550000D03*
X231550000D03*
X230550000D03*
X229550000D03*
X228550000D03*
G04 #@! TO.N,26*
X237550000Y105989995D03*
G04 #@! TO.N,100*
X236550000D03*
G04 #@! TO.N,28*
X235550000D03*
G04 #@! TO.N,87*
X234550000D03*
G04 #@! TO.N,30*
X233550000D03*
G04 #@! TO.N,72*
X232550000D03*
G04 #@! TO.N,13*
X231550000D03*
G04 #@! TO.N,85*
X230550000D03*
G04 #@! TO.N,11*
X229550000D03*
G04 #@! TO.N,83*
X228550000D03*
G04 #@! TO.N,89*
X237550000Y106989995D03*
G04 #@! TO.N,17*
X236550000D03*
G04 #@! TO.N,76*
X235550000D03*
G04 #@! TO.N,19*
X234550000D03*
G04 #@! TO.N,78*
X233550000D03*
G04 #@! TO.N,4*
X232550000D03*
G04 #@! TO.N,61*
X231550000D03*
G04 #@! TO.N,2*
X230550000D03*
G04 #@! TO.N,74*
X229550000D03*
G04 #@! TO.N,15*
X228550000D03*
G04 #@! TO.N,6*
X237550000Y107989995D03*
G04 #@! TO.N,80*
X236550000D03*
G04 #@! TO.N,8*
X235550000D03*
G04 #@! TO.N,67*
X234550000D03*
G04 #@! TO.N,125*
X233550000D03*
G04 #@! TO.N,52*
X232550000D03*
G04 #@! TO.N,121*
X231550000D03*
G04 #@! TO.N,65*
X230550000D03*
G04 #@! TO.N,10*
X229550000D03*
G04 #@! TO.N,63*
X228550000D03*
G04 #@! TO.N,69*
X237550000Y108989995D03*
G04 #@! TO.N,127*
X236550000D03*
G04 #@! TO.N,56*
X235550000D03*
G04 #@! TO.N,129*
X234550000D03*
G04 #@! TO.N,58*
X233550000D03*
G04 #@! TO.N,112*
X232550000D03*
G04 #@! TO.N,41*
X231550000D03*
G04 #@! TO.N,110*
X230550000D03*
G04 #@! TO.N,54*
X229550000D03*
G04 #@! TO.N,123*
X228550000D03*
G04 #@! TO.N,116*
X237550000Y109989995D03*
G04 #@! TO.N,60*
X236550000D03*
G04 #@! TO.N,118*
X235550000D03*
G04 #@! TO.N,47*
X234550000D03*
G04 #@! TO.N,105*
X233550000D03*
G04 #@! TO.N,32*
X232550000D03*
G04 #@! TO.N,102*
X231550000D03*
G04 #@! TO.N,45*
X230550000D03*
G04 #@! TO.N,114*
X229550000D03*
G04 #@! TO.N,43*
X228550000D03*
G04 #@! TO.N,49*
X237550000Y110989995D03*
G04 #@! TO.N,107*
X236550000D03*
G04 #@! TO.N,36*
X235550000D03*
G04 #@! TO.N,109*
X234550000D03*
G04 #@! TO.N,38*
X233550000D03*
G04 #@! TO.N,95*
X232550000D03*
G04 #@! TO.N,21*
X231550000D03*
G04 #@! TO.N,93*
X230550000D03*
G04 #@! TO.N,34*
X229550000D03*
G04 #@! TO.N,104*
X228550000D03*
G04 #@! TO.N,97*
X237550000Y111989995D03*
G04 #@! TO.N,40*
X236550000D03*
G04 #@! TO.N,99*
X235550000D03*
G04 #@! TO.N,27*
X234550000D03*
G04 #@! TO.N,86*
X233550000D03*
G04 #@! TO.N,12*
X232550000D03*
G04 #@! TO.N,84*
X231550000D03*
G04 #@! TO.N,25*
X230550000D03*
G04 #@! TO.N,82*
X229550000D03*
G04 #@! TO.N,23*
X228550000D03*
G04 #@! TO.N,29*
X237550000Y112989995D03*
G04 #@! TO.N,88*
X236550000D03*
G04 #@! TO.N,16*
X235550000D03*
G04 #@! TO.N,90*
X234550000D03*
G04 #@! TO.N,18*
X233550000D03*
G04 #@! TO.N,75*
X232550000D03*
G04 #@! TO.N,1*
X231550000D03*
G04 #@! TO.N,73*
X230550000D03*
G04 #@! TO.N,14*
X229550000D03*
G04 #@! TO.N,71*
X228550000D03*
G04 #@! TO.N,77*
X237550000Y113989995D03*
G04 #@! TO.N,20*
X236550000D03*
G04 #@! TO.N,79*
X235550000D03*
G04 #@! TO.N,7*
X234550000D03*
G04 #@! TO.N,66*
X233550000D03*
G04 #@! TO.N,9*
X232550000D03*
G04 #@! TO.N,64*
X231550000D03*
G04 #@! TO.N,5*
X230550000D03*
G04 #@! TO.N,62*
X229550000D03*
G04 #@! TO.N,3*
X228550000D03*
%LPD*%
M02*