G04 #@! TF.FileFunction,Soldermask,Bot*
G04 #@! TF.FilePolarity,Negative*
G04 #@! TF.SameCoordinates,5Qqye3v5bPdaGfKeuBeZBbiL4PMt2bR*
G04 #@! TF.CreationDate,2025-09-04T08:30:01+0200*
G04 #@! TF.GenerationSoftware,Ucamco,UcamX,v2023.12-240208*
%FSLAX36Y36*%
%MOMM*%
%ADD10C,0.300000*%
%ADD11C,0.350000*%
%ADD12C,2.100000*%
%ADD13C,1.600000*%
%ADD14O,1.800000X1.600000*%
%ADD15C,1.600000*%
%AMBOXR*
$16=$1/2*
$17=$2/2*
$8=$16-$3*
$9=$17-$3*
$10=$8X$6*
$11=$8X$5*
$12=$9X$6*
$13=$9X$5*
$15=2X$3*
$18=0-$10*
$19=0-$11*
21,1-$7,$1,$2-$15,0,0,$4*
21,1-$7,$1-$15,$2,0,0,$4*
1,1-$7,$15,$10-$13,$11+$12*
1,1-$7,$15,$18-$13,$12-$11*
1,1-$7,$15,$10+$13,$11-$12*
1,1-$7,$15,$13-$10,$19-$12*%
%ADD16BOXR,0.600000X0.800000X0.250000X45.00X0.707107X0.707107X0*%
%ADD17C,0.410000*%
G04 layer name: DFS3498AM2_ebm*
%LPD*%
D10*
X237850000Y84989995D03*
X236850000D03*
X235850000D03*
X234850000D03*
X233850000D03*
X232850000D03*
X231850000D03*
X230850000D03*
X229850000D03*
X228850000D03*
X237850000Y85989995D03*
X236850000D03*
X235850000D03*
X234850000D03*
X233850000D03*
X232850000D03*
X231850000D03*
X230850000D03*
X229850000D03*
X228850000D03*
X237850000Y86989995D03*
X236850000D03*
X235850000D03*
X234850000D03*
X233850000D03*
X232850000D03*
X231850000D03*
X230850000D03*
X229850000D03*
X228850000D03*
X237850000Y87989995D03*
X236850000D03*
X235850000D03*
X234850000D03*
X233850000D03*
X232850000D03*
X231850000D03*
X230850000D03*
X229850000D03*
X228850000D03*
X237850000Y88989995D03*
X236850000D03*
X235850000D03*
X234850000D03*
X233850000D03*
X232850000D03*
X231850000D03*
X230850000D03*
X229850000D03*
X228850000D03*
X237850000Y89989995D03*
X236850000D03*
X235850000D03*
X234850000D03*
X233850000D03*
X232850000D03*
X231850000D03*
X230850000D03*
X229850000D03*
X228850000D03*
X237850000Y90989995D03*
X236850000D03*
X235850000D03*
X234850000D03*
X233850000D03*
X232850000D03*
X231850000D03*
X230850000D03*
X229850000D03*
X228850000D03*
X237850000Y91989995D03*
X236850000D03*
X235850000D03*
X234850000D03*
X233850000D03*
X232850000D03*
X231850000D03*
X230850000D03*
X229850000D03*
X228850000D03*
X237850000Y92989995D03*
X236850000D03*
X235850000D03*
X234850000D03*
X233850000D03*
X232850000D03*
X231850000D03*
X230850000D03*
X229850000D03*
X228850000D03*
X237850000Y93989995D03*
X236850000D03*
X235850000D03*
X234850000D03*
X233850000D03*
X232850000D03*
X231850000D03*
X230850000D03*
X229850000D03*
X228850000D03*
X237850000Y94989995D03*
X236850000D03*
X235850000D03*
X234850000D03*
X233850000D03*
X232850000D03*
X231850000D03*
X230850000D03*
X229850000D03*
X228850000D03*
X237850000Y95989995D03*
X236850000D03*
X235850000D03*
X234850000D03*
X233850000D03*
X232850000D03*
X231850000D03*
X230850000D03*
X229850000D03*
X228850000D03*
X237850000Y96989995D03*
X236850000D03*
X235850000D03*
X234850000D03*
X233850000D03*
X232850000D03*
X231850000D03*
X230850000D03*
X229850000D03*
X228850000D03*
X237850000Y97989995D03*
X236850000D03*
X235850000D03*
X234850000D03*
X233850000D03*
X232850000D03*
X231850000D03*
X230850000D03*
X229850000D03*
X228850000D03*
X237850000Y98989995D03*
X236850000D03*
X235850000D03*
X234850000D03*
X233850000D03*
X232850000D03*
X231850000D03*
X230850000D03*
X229850000D03*
X228850000D03*
X237850000Y99989995D03*
X236850000D03*
X235850000D03*
X234850000D03*
X233850000D03*
X232850000D03*
X231850000D03*
X230850000D03*
X229850000D03*
X228850000D03*
X237850000Y100989995D03*
X236850000D03*
X235850000D03*
X234850000D03*
X233850000D03*
X232850000D03*
X231850000D03*
X230850000D03*
X229850000D03*
X228850000D03*
X237850000Y101989995D03*
X236850000D03*
X235850000D03*
X234850000D03*
X233850000D03*
X232850000D03*
X231850000D03*
X230850000D03*
X229850000D03*
X228850000D03*
X237850000Y102989995D03*
X236850000D03*
X235850000D03*
X234850000D03*
X233850000D03*
X232850000D03*
X231850000D03*
X230850000D03*
X229850000D03*
X228850000D03*
X237850000Y103989995D03*
X236850000D03*
X235850000D03*
X234850000D03*
X233850000D03*
X232850000D03*
X231850000D03*
X230850000D03*
X229850000D03*
X228850000D03*
X237850000Y104989995D03*
X236850000D03*
X235850000D03*
X234850000D03*
X233850000D03*
X232850000D03*
X231850000D03*
X230850000D03*
X229850000D03*
X228850000D03*
X237850000Y105989995D03*
X236850000D03*
X235850000D03*
X234850000D03*
X233850000D03*
X232850000D03*
X231850000D03*
X230850000D03*
X229850000D03*
X228850000D03*
X237850000Y106989995D03*
X236850000D03*
X235850000D03*
X234850000D03*
X233850000D03*
X232850000D03*
X231850000D03*
X230850000D03*
X229850000D03*
X228850000D03*
X237850000Y107989995D03*
X236850000D03*
X235850000D03*
X234850000D03*
X233850000D03*
X232850000D03*
X231850000D03*
X230850000D03*
X229850000D03*
X228850000D03*
X237850000Y108989995D03*
X236850000D03*
X235850000D03*
X234850000D03*
X233850000D03*
X232850000D03*
X231850000D03*
X230850000D03*
X229850000D03*
X228850000D03*
X237850000Y109989995D03*
X236850000D03*
X235850000D03*
X234850000D03*
X233850000D03*
X232850000D03*
X231850000D03*
X230850000D03*
X229850000D03*
X228850000D03*
X237850000Y110989995D03*
X236850000D03*
X235850000D03*
X234850000D03*
X233850000D03*
X232850000D03*
X231850000D03*
X230850000D03*
X229850000D03*
X228850000D03*
X237850000Y111989995D03*
X236850000D03*
X235850000D03*
X234850000D03*
X233850000D03*
X232850000D03*
X231850000D03*
X230850000D03*
X229850000D03*
X228850000D03*
X237850000Y112989995D03*
X236850000D03*
X235850000D03*
X234850000D03*
X233850000D03*
X232850000D03*
X231850000D03*
X230850000D03*
X229850000D03*
X228850000D03*
X237850000Y113989995D03*
X236850000D03*
X235850000D03*
X234850000D03*
X233850000D03*
X232850000D03*
X231850000D03*
X230850000D03*
X229850000D03*
X228850000D03*
G04 #@! TO.N,211*
D11*
X227103750Y170390200D03*
G04 #@! TO.N,212*
X227903750Y171190200D03*
G04 #@! TO.N,213*
X228703750Y170390200D03*
G04 #@! TO.N,214*
X229503750Y171190200D03*
G04 #@! TO.N,215*
X230303750Y170390200D03*
G04 #@! TO.N,216*
X231103750Y171190200D03*
G04 #@! TO.N,217*
X231903750Y170390200D03*
G04 #@! TO.N,218*
X232703750Y171190200D03*
G04 #@! TO.N,219*
X233503750Y170390200D03*
G04 #@! TO.N,220*
X234303750Y171190200D03*
G04 #@! TO.N,221*
X235103750Y170390200D03*
G04 #@! TO.N,222*
X235903750Y171190200D03*
G04 #@! TO.N,223*
X236703750Y170390200D03*
G04 #@! TO.N,224*
X237503750Y171190200D03*
G04 #@! TO.N,225*
X238303750Y170390200D03*
G04 #@! TO.N,226*
X239103750Y171190200D03*
G04 #@! TO.N,227*
X240703750Y170390200D03*
G04 #@! TO.N,228*
X241503750Y171190200D03*
G04 #@! TO.N,229*
X242303750Y170390200D03*
G04 #@! TO.N,230*
X243103750Y171190200D03*
G04 #@! TO.N,231*
X243903750Y170390200D03*
G04 #@! TO.N,232*
X244703750Y171190200D03*
G04 #@! TO.N,233*
X245503750Y170390200D03*
G04 #@! TO.N,234*
X246303750Y171190200D03*
G04 #@! TO.N,235*
X247103750Y170390200D03*
G04 #@! TO.N,236*
X247903750Y171190200D03*
G04 #@! TO.N,237*
X248703750Y170390200D03*
G04 #@! TO.N,238*
X249503750Y171190200D03*
G04 #@! TO.N,239*
X250303750Y170390200D03*
G04 #@! TO.N,240*
X251103750Y171190200D03*
G04 #@! TO.N,241*
X251903750Y170390200D03*
G04 #@! TO.N,242*
X252703750Y171190200D03*
G04 #@! TO.N,209*
X227103750Y162390200D03*
G04 #@! TO.N,210*
X227903750Y163190200D03*
G04 #@! TO.N,208*
X228703750Y162390200D03*
G04 #@! TO.N,207*
X229503750Y163190200D03*
G04 #@! TO.N,206*
X230303750Y162390200D03*
G04 #@! TO.N,205*
X231103750Y163190200D03*
G04 #@! TO.N,204*
X231903750Y162390200D03*
G04 #@! TO.N,203*
X232703750Y163190200D03*
G04 #@! TO.N,202*
X233503750Y162390200D03*
G04 #@! TO.N,201*
X234303750Y163190200D03*
G04 #@! TO.N,200*
X235103750Y162390200D03*
G04 #@! TO.N,199*
X235903750Y163190200D03*
G04 #@! TO.N,198*
X236703750Y162390200D03*
G04 #@! TO.N,197*
X237503750Y163190200D03*
G04 #@! TO.N,196*
X238303750Y162390200D03*
G04 #@! TO.N,195*
X239103750Y163190200D03*
G04 #@! TO.N,194*
X240703750Y162390200D03*
G04 #@! TO.N,193*
X241503750Y163190200D03*
G04 #@! TO.N,192*
X242303750Y162390200D03*
G04 #@! TO.N,191*
X243103750Y163190200D03*
G04 #@! TO.N,190*
X243903750Y162390200D03*
G04 #@! TO.N,189*
X244703750Y163190200D03*
G04 #@! TO.N,188*
X245503750Y162390200D03*
G04 #@! TO.N,187*
X246303750Y163190200D03*
G04 #@! TO.N,186*
X247103750Y162390200D03*
G04 #@! TO.N,185*
X247903750Y163190200D03*
G04 #@! TO.N,184*
X248703750Y162390200D03*
G04 #@! TO.N,183*
X249503750Y163190200D03*
G04 #@! TO.N,182*
X250303750Y162390200D03*
G04 #@! TO.N,181*
X251103750Y163190200D03*
G04 #@! TO.N,179*
X251903750Y162390200D03*
G04 #@! TO.N,180*
X252703750Y163190200D03*
G04 #@! TO.N,467*
X252698650Y127390100D03*
G04 #@! TO.N,468*
X251898650Y128190100D03*
G04 #@! TO.N,469*
X251098650Y127390100D03*
G04 #@! TO.N,470*
X250298650Y128190100D03*
G04 #@! TO.N,471*
X249498650Y127390100D03*
G04 #@! TO.N,472*
X248698650Y128190100D03*
G04 #@! TO.N,473*
X247898650Y127390100D03*
G04 #@! TO.N,474*
X247098650Y128190100D03*
G04 #@! TO.N,475*
X246298650Y127390100D03*
G04 #@! TO.N,476*
X245498650Y128190100D03*
G04 #@! TO.N,477*
X244698650Y127390100D03*
G04 #@! TO.N,478*
X243898650Y128190100D03*
G04 #@! TO.N,479*
X243098650Y127390100D03*
G04 #@! TO.N,480*
X242298650Y128190100D03*
G04 #@! TO.N,481*
X241498650Y127390100D03*
G04 #@! TO.N,482*
X240698650Y128190100D03*
G04 #@! TO.N,483*
X239098650Y127390100D03*
G04 #@! TO.N,484*
X238298650Y128190100D03*
G04 #@! TO.N,485*
X237498650Y127390100D03*
G04 #@! TO.N,486*
X236698650Y128190100D03*
G04 #@! TO.N,487*
X235898650Y127390100D03*
G04 #@! TO.N,488*
X235098650Y128190100D03*
G04 #@! TO.N,489*
X234298650Y127390100D03*
G04 #@! TO.N,490*
X233498650Y128190100D03*
G04 #@! TO.N,491*
X232698650Y127390100D03*
G04 #@! TO.N,492*
X231898650Y128190100D03*
G04 #@! TO.N,493*
X231098650Y127390100D03*
G04 #@! TO.N,494*
X230298650Y128190100D03*
G04 #@! TO.N,495*
X229498650Y127390100D03*
G04 #@! TO.N,496*
X228698650Y128190100D03*
G04 #@! TO.N,497*
X227898650Y127390100D03*
G04 #@! TO.N,498*
X227098650Y128190100D03*
G04 #@! TO.N,465*
X252698650Y141290100D03*
G04 #@! TO.N,466*
X251898650Y140490100D03*
G04 #@! TO.N,464*
X251098650Y141290100D03*
G04 #@! TO.N,463*
X250298650Y140490100D03*
G04 #@! TO.N,462*
X249498650Y141290100D03*
G04 #@! TO.N,461*
X248698650Y140490100D03*
G04 #@! TO.N,460*
X247898650Y141290100D03*
G04 #@! TO.N,459*
X247098650Y140490100D03*
G04 #@! TO.N,458*
X246298650Y141290100D03*
G04 #@! TO.N,457*
X245498650Y140490100D03*
G04 #@! TO.N,456*
X244698650Y141290100D03*
G04 #@! TO.N,455*
X243898650Y140490100D03*
G04 #@! TO.N,454*
X243098650Y141290100D03*
G04 #@! TO.N,453*
X242298650Y140490100D03*
G04 #@! TO.N,452*
X241498650Y141290100D03*
G04 #@! TO.N,451*
X240698650Y140490100D03*
G04 #@! TO.N,450*
X239098650Y141290100D03*
G04 #@! TO.N,449*
X238298650Y140490100D03*
G04 #@! TO.N,448*
X237498650Y141290100D03*
G04 #@! TO.N,447*
X236698650Y140490100D03*
G04 #@! TO.N,446*
X235898650Y141290100D03*
G04 #@! TO.N,445*
X235098650Y140490100D03*
G04 #@! TO.N,444*
X234298650Y141290100D03*
G04 #@! TO.N,443*
X233498650Y140490100D03*
G04 #@! TO.N,442*
X232698650Y141290100D03*
G04 #@! TO.N,441*
X231898650Y140490100D03*
G04 #@! TO.N,440*
X231098650Y141290100D03*
G04 #@! TO.N,439*
X230298650Y140490100D03*
G04 #@! TO.N,435*
X229498650Y141290100D03*
G04 #@! TO.N,438*
X228698650Y140490100D03*
G04 #@! TO.N,436*
X227898650Y141290100D03*
G04 #@! TO.N,437*
X227098650Y140490100D03*
G04 #@! TO.N,0*
D12*
X240500000Y84090000D03*
Y94590000D03*
Y105090000D03*
Y115590000D03*
X225500000Y84090000D03*
Y94590000D03*
Y105090000D03*
Y115590000D03*
D13*
X233000005Y116839995D03*
D14*
X228350005Y82839995D03*
G04 #@! TO.N,931*
D15*
X225099950Y169590200D03*
G04 #@! TO.N,932*
X254699950D03*
G04 #@! TO.N,931*
X225099950Y134590000D03*
G04 #@! TO.N,932*
X254699950D03*
G04 #@! TO.N,0*
D16*
X237500000Y85339995D03*
X236500000D03*
X235500000D03*
X234500000D03*
X233500000D03*
X232500000D03*
X231500000D03*
X230500000D03*
X229500000D03*
X228500000D03*
X237500000Y86339995D03*
X236500000D03*
X235500000D03*
X234500000D03*
X233500000D03*
X232500000D03*
X231500000D03*
X230500000D03*
X229500000D03*
X228500000D03*
X237500000Y87339995D03*
X236500000D03*
X235500000D03*
X234500000D03*
X233500000D03*
X232500000D03*
X231500000D03*
X230500000D03*
X229500000D03*
X228500000D03*
X237500000Y88339995D03*
X236500000D03*
X235500000D03*
X234500000D03*
X233500000D03*
X232500000D03*
X231500000D03*
X230500000D03*
X229500000D03*
X228500000D03*
X237500000Y89339995D03*
X236500000D03*
X235500000D03*
X234500000D03*
X233500000D03*
X232500000D03*
X231500000D03*
X230500000D03*
X229500000D03*
X228500000D03*
X237500000Y90339995D03*
X236500000D03*
X235500000D03*
X234500000D03*
X233500000D03*
X232500000D03*
X231500000D03*
X230500000D03*
X229500000D03*
X228500000D03*
X237500000Y91339995D03*
X236500000D03*
X235500000D03*
X234500000D03*
X233500000D03*
X232500000D03*
X231500000D03*
X230500000D03*
X229500000D03*
X228500000D03*
X237500000Y92339995D03*
X236500000D03*
X235500000D03*
X234500000D03*
X233500000D03*
X232500000D03*
X231500000D03*
X230500000D03*
X229500000D03*
X228500000D03*
X237500000Y93339995D03*
X236500000D03*
X235500000D03*
X234500000D03*
X233500000D03*
X232500000D03*
X231500000D03*
X230500000D03*
X229500000D03*
X228500000D03*
X237500000Y94339995D03*
X236500000D03*
X235500000D03*
X234500000D03*
X233500000D03*
X232500000D03*
X231500000D03*
X230500000D03*
X229500000D03*
X228500000D03*
X237500000Y95339995D03*
X236500000D03*
X235500000D03*
X234500000D03*
X233500000D03*
X232500000D03*
X231500000D03*
X230500000D03*
X229500000D03*
X228500000D03*
X237500000Y96339995D03*
X236500000D03*
X235500000D03*
X234500000D03*
X233500000D03*
X232500000D03*
X231500000D03*
X230500000D03*
X229500000D03*
X228500000D03*
X237500000Y97339995D03*
X236500000D03*
X235500000D03*
X234500000D03*
X233500000D03*
X232500000D03*
X231500000D03*
X230500000D03*
X229500000D03*
X228500000D03*
X237500000Y98339995D03*
X236500000D03*
X235500000D03*
X234500000D03*
X233500000D03*
X232500000D03*
X231500000D03*
X230500000D03*
X229500000D03*
X228500000D03*
X237500000Y99339995D03*
X236500000D03*
X235500000D03*
X234500000D03*
X233500000D03*
X232500000D03*
X231500000D03*
X230500000D03*
X229500000D03*
X228500000D03*
X237500000Y100339995D03*
X236500000D03*
X235500000D03*
X234500000D03*
X233500000D03*
X232500000D03*
X231500000D03*
X230500000D03*
X229500000D03*
X228500000D03*
X237500000Y101339995D03*
X236500000D03*
X235500000D03*
X234500000D03*
X233500000D03*
X232500000D03*
X231500000D03*
X230500000D03*
X229500000D03*
X228500000D03*
X237500000Y102339995D03*
X236500000D03*
X235500000D03*
X234500000D03*
X233500000D03*
X232500000D03*
X231500000D03*
X230500000D03*
X229500000D03*
X228500000D03*
X237500000Y103339995D03*
X236500000D03*
X235500000D03*
X234500000D03*
X233500000D03*
X232500000D03*
X231500000D03*
X230500000D03*
X229500000D03*
X228500000D03*
X237500000Y104339995D03*
X236500000D03*
X235500000D03*
X234500000D03*
X233500000D03*
X232500000D03*
X231500000D03*
X230500000D03*
X229500000D03*
X228500000D03*
X237500000Y105339995D03*
X236500000D03*
X235500000D03*
X234500000D03*
X233500000D03*
X232500000D03*
X231500000D03*
X230500000D03*
X229500000D03*
X228500000D03*
X237500000Y106339995D03*
X236500000D03*
X235500000D03*
X234500000D03*
X233500000D03*
X232500000D03*
X231500000D03*
X230500000D03*
X229500000D03*
X228500000D03*
X237500000Y107339995D03*
X236500000D03*
X235500000D03*
X234500000D03*
X233500000D03*
X232500000D03*
X231500000D03*
X230500000D03*
X229500000D03*
X228500000D03*
X237500000Y108339995D03*
X236500000D03*
X235500000D03*
X234500000D03*
X233500000D03*
X232500000D03*
X231500000D03*
X230500000D03*
X229500000D03*
X228500000D03*
X237500000Y109339995D03*
X236500000D03*
X235500000D03*
X234500000D03*
X233500000D03*
X232500000D03*
X231500000D03*
X230500000D03*
X229500000D03*
X228500000D03*
X237500000Y110339995D03*
X236500000D03*
X235500000D03*
X234500000D03*
X233500000D03*
X232500000D03*
X231500000D03*
X230500000D03*
X229500000D03*
X228500000D03*
X237500000Y111339995D03*
X236500000D03*
X235500000D03*
X234500000D03*
X233500000D03*
X232500000D03*
X231500000D03*
X230500000D03*
X229500000D03*
X228500000D03*
X237500000Y112339995D03*
X236500000D03*
X235500000D03*
X234500000D03*
X233500000D03*
X232500000D03*
X231500000D03*
X230500000D03*
X229500000D03*
X228500000D03*
X237500000Y113339995D03*
X236500000D03*
X235500000D03*
X234500000D03*
X233500000D03*
X232500000D03*
X231500000D03*
X230500000D03*
X229500000D03*
X228500000D03*
X237500000Y114339995D03*
X236500000D03*
X235500000D03*
X234500000D03*
X233500000D03*
X232500000D03*
X231500000D03*
X230500000D03*
X229500000D03*
X228500000D03*
D17*
X219400000Y179590100D02*
X260400000D01*
X260400000Y69590100D02*
X219400000D01*
Y179590100D01*
X260400000Y179590100D02*
Y69590100D01*
%LPD*%
M02*